  0
SECTION
  2
HEADER
  9
$ACADVER
  1
AC1027
  9
$ACADMAINTVER
 70
105
  9
$DWGCODEPAGE
  3
ANSI_1252
  9
$LASTSAVEDBY
  1
ezdxf
  9
$REQUIREDVERSIONS
160
0
  9
$INSBASE
 10
0.0
 20
0.0
 30
0.0
  9
$EXTMIN
 10
1e+20
 20
1e+20
 30
1e+20
  9
$EXTMAX
 10
-1e+20
 20
-1e+20
 30
-1e+20
  9
$LIMMIN
 10
0.0
 20
0.0
  9
$LIMMAX
 10
420.0
 20
297.0
  9
$ORTHOMODE
 70
0
  9
$REGENMODE
 70
1
  9
$FILLMODE
 70
1
  9
$QTEXTMODE
 70
0
  9
$MIRRTEXT
 70
1
  9
$LTSCALE
 40
1.0
  9
$ATTMODE
 70
1
  9
$TEXTSIZE
 40
2.5
  9
$TRACEWID
 40
1.0
  9
$TEXTSTYLE
  7
Standard
  9
$CLAYER
  8
0
  9
$CELTYPE
  6
ByLayer
  9
$CECOLOR
 62
256
  9
$CELTSCALE
 40
1.0
  9
$DISPSILH
 70
0
  9
$DIMSCALE
 40
1.0
  9
$DIMASZ
 40
2.5
  9
$DIMEXO
 40
0.625
  9
$DIMDLI
 40
3.75
  9
$DIMRND
 40
0.0
  9
$DIMDLE
 40
0.0
  9
$DIMEXE
 40
1.25
  9
$DIMTP
 40
0.0
  9
$DIMTM
 40
0.0
  9
$DIMTXT
 40
2.5
  9
$DIMCEN
 40
2.5
  9
$DIMTSZ
 40
0.0
  9
$DIMTOL
 70
0
  9
$DIMLIM
 70
0
  9
$DIMTIH
 70
0
  9
$DIMTOH
 70
0
  9
$DIMSE1
 70
0
  9
$DIMSE2
 70
0
  9
$DIMTAD
 70
1
  9
$DIMZIN
 70
8
  9
$DIMBLK
  1

  9
$DIMASO
 70
1
  9
$DIMSHO
 70
1
  9
$DIMPOST
  1

  9
$DIMAPOST
  1

  9
$DIMALT
 70
0
  9
$DIMALTD
 70
3
  9
$DIMALTF
 40
0.03937007874
  9
$DIMLFAC
 40
1.0
  9
$DIMTOFL
 70
1
  9
$DIMTVP
 40
0.0
  9
$DIMTIX
 70
0
  9
$DIMSOXD
 70
0
  9
$DIMSAH
 70
0
  9
$DIMBLK1
  1

  9
$DIMBLK2
  1

  9
$DIMSTYLE
  2
ISO-25
  9
$DIMCLRD
 70
0
  9
$DIMCLRE
 70
0
  9
$DIMCLRT
 70
0
  9
$DIMTFAC
 40
1.0
  9
$DIMGAP
 40
0.625
  9
$DIMJUST
 70
0
  9
$DIMSD1
 70
0
  9
$DIMSD2
 70
0
  9
$DIMTOLJ
 70
0
  9
$DIMTZIN
 70
8
  9
$DIMALTZ
 70
0
  9
$DIMALTTZ
 70
0
  9
$DIMUPT
 70
0
  9
$DIMDEC
 70
2
  9
$DIMTDEC
 70
2
  9
$DIMALTU
 70
2
  9
$DIMALTTD
 70
3
  9
$DIMTXSTY
  7
Standard
  9
$DIMAUNIT
 70
0
  9
$DIMADEC
 70
0
  9
$DIMALTRND
 40
0.0
  9
$DIMAZIN
 70
0
  9
$DIMDSEP
 70
44
  9
$DIMATFIT
 70
3
  9
$DIMFRAC
 70
0
  9
$DIMLDRBLK
  1

  9
$DIMLUNIT
 70
2
  9
$DIMLWD
 70
-2
  9
$DIMLWE
 70
-2
  9
$DIMTMOVE
 70
0
  9
$DIMFXL
 40
1.0
  9
$DIMFXLON
 70
0
  9
$DIMJOGANG
 40
0.785398163397
  9
$DIMTFILL
 70
0
  9
$DIMTFILLCLR
 70
0
  9
$DIMARCSYM
 70
0
  9
$DIMLTYPE
  6

  9
$DIMLTEX1
  6

  9
$DIMLTEX2
  6

  9
$DIMTXTDIRECTION
 70
0
  9
$LUNITS
 70
2
  9
$LUPREC
 70
4
  9
$SKETCHINC
 40
1.0
  9
$FILLETRAD
 40
10.0
  9
$AUNITS
 70
0
  9
$AUPREC
 70
2
  9
$MENU
  1
.
  9
$ELEVATION
 40
0.0
  9
$PELEVATION
 40
0.0
  9
$THICKNESS
 40
0.0
  9
$LIMCHECK
 70
0
  9
$CHAMFERA
 40
0.0
  9
$CHAMFERB
 40
0.0
  9
$CHAMFERC
 40
0.0
  9
$CHAMFERD
 40
0.0
  9
$SKPOLY
 70
0
  9
$TDCREATE
 40
2460276.0316898148
  9
$TDUCREATE
 40
2458532.153996898
  9
$TDUPDATE
 40
2460276.0316898148
  9
$TDUUPDATE
 40
2458532.1544311
  9
$TDINDWG
 40
0.0
  9
$TDUSRTIMER
 40
0.0
  9
$USRTIMER
 70
1
  9
$ANGBASE
 50
0.0
  9
$ANGDIR
 70
0
  9
$PDMODE
 70
0
  9
$PDSIZE
 40
0.0
  9
$PLINEWID
 40
0.0
  9
$SPLFRAME
 70
0
  9
$SPLINETYPE
 70
6
  9
$SPLINESEGS
 70
8
  9
$HANDSEED
  5
47A
  9
$SURFTAB1
 70
6
  9
$SURFTAB2
 70
6
  9
$SURFTYPE
 70
6
  9
$SURFU
 70
6
  9
$SURFV
 70
6
  9
$UCSBASE
  2

  9
$UCSNAME
  2

  9
$UCSORG
 10
0.0
 20
0.0
 30
0.0
  9
$UCSXDIR
 10
1.0
 20
0.0
 30
0.0
  9
$UCSYDIR
 10
0.0
 20
1.0
 30
0.0
  9
$UCSORTHOREF
  2

  9
$UCSORTHOVIEW
 70
0
  9
$UCSORGTOP
 10
0.0
 20
0.0
 30
0.0
  9
$UCSORGBOTTOM
 10
0.0
 20
0.0
 30
0.0
  9
$UCSORGLEFT
 10
0.0
 20
0.0
 30
0.0
  9
$UCSORGRIGHT
 10
0.0
 20
0.0
 30
0.0
  9
$UCSORGFRONT
 10
0.0
 20
0.0
 30
0.0
  9
$UCSORGBACK
 10
0.0
 20
0.0
 30
0.0
  9
$PUCSBASE
  2

  9
$PUCSNAME
  2

  9
$PUCSORG
 10
0.0
 20
0.0
 30
0.0
  9
$PUCSXDIR
 10
1.0
 20
0.0
 30
0.0
  9
$PUCSYDIR
 10
0.0
 20
1.0
 30
0.0
  9
$PUCSORTHOREF
  2

  9
$PUCSORTHOVIEW
 70
0
  9
$PUCSORGTOP
 10
0.0
 20
0.0
 30
0.0
  9
$PUCSORGBOTTOM
 10
0.0
 20
0.0
 30
0.0
  9
$PUCSORGLEFT
 10
0.0
 20
0.0
 30
0.0
  9
$PUCSORGRIGHT
 10
0.0
 20
0.0
 30
0.0
  9
$PUCSORGFRONT
 10
0.0
 20
0.0
 30
0.0
  9
$PUCSORGBACK
 10
0.0
 20
0.0
 30
0.0
  9
$USERI1
 70
0
  9
$USERI2
 70
0
  9
$USERI3
 70
0
  9
$USERI4
 70
0
  9
$USERI5
 70
0
  9
$USERR1
 40
0.0
  9
$USERR2
 40
0.0
  9
$USERR3
 40
0.0
  9
$USERR4
 40
0.0
  9
$USERR5
 40
0.0
  9
$WORLDVIEW
 70
1
  9
$SHADEDGE
 70
3
  9
$SHADEDIF
 70
70
  9
$TILEMODE
 70
1
  9
$MAXACTVP
 70
64
  9
$PINSBASE
 10
0.0
 20
0.0
 30
0.0
  9
$PLIMCHECK
 70
0
  9
$PEXTMIN
 10
1e+20
 20
1e+20
 30
1e+20
  9
$PEXTMAX
 10
-1e+20
 20
-1e+20
 30
-1e+20
  9
$PLIMMIN
 10
0.0
 20
0.0
  9
$PLIMMAX
 10
420.0
 20
297.0
  9
$UNITMODE
 70
0
  9
$VISRETAIN
 70
1
  9
$PLINEGEN
 70
0
  9
$PSLTSCALE
 70
1
  9
$TREEDEPTH
 70
3020
  9
$CMLSTYLE
  2
Standard
  9
$CMLJUST
 70
0
  9
$CMLSCALE
 40
20.0
  9
$PROXYGRAPHICS
 70
1
  9
$MEASUREMENT
 70
1
  9
$CELWEIGHT
370
-1
  9
$ENDCAPS
280
0
  9
$JOINSTYLE
280
0
  9
$LWDISPLAY
290
0
  9
$INSUNITS
 70
6
  9
$HYPERLINKBASE
  1

  9
$STYLESHEET
  1

  9
$XEDIT
290
1
  9
$CEPSNTYPE
380
0
  9
$PSTYLEMODE
290
1
  9
$FINGERPRINTGUID
  2
{6DD16179-00F1-496A-BECC-C0E9336A4A97}
  9
$VERSIONGUID
  2
{5F531AF0-CFBC-4BB9-BBF1-2F1AEE167FC1}
  9
$EXTNAMES
290
1
  9
$PSVPSCALE
 40
0.0
  9
$OLESTARTUP
290
0
  9
$SORTENTS
280
127
  9
$INDEXCTL
280
0
  9
$HIDETEXT
280
1
  9
$XCLIPFRAME
280
0
  9
$HALOGAP
280
0
  9
$OBSCOLOR
 70
257
  9
$OBSLTYPE
280
0
  9
$INTERSECTIONDISPLAY
280
0
  9
$INTERSECTIONCOLOR
 70
257
  9
$DIMASSOC
280
2
  9
$PROJECTNAME
  1

  9
$CAMERADISPLAY
290
0
  9
$LENSLENGTH
 40
50.0
  9
$CAMERAHEIGHT
 40
0.0
  9
$STEPSPERSEC
 40
24.0
  9
$STEPSIZE
 40
100.0
  9
$3DDWFPREC
 40
2.0
  9
$PSOLWIDTH
 40
0.005
  9
$PSOLHEIGHT
 40
0.08
  9
$LOFTANG1
 40
1.570796326795
  9
$LOFTANG2
 40
1.570796326795
  9
$LOFTMAG1
 40
0.0
  9
$LOFTMAG2
 40
0.0
  9
$LOFTPARAM
 70
7
  9
$LOFTNORMALS
280
1
  9
$LATITUDE
 40
37.795
  9
$LONGITUDE
 40
-122.394
  9
$NORTHDIRECTION
 40
0.0
  9
$TIMEZONE
 70
-8000
  9
$LIGHTGLYPHDISPLAY
280
1
  9
$TILEMODELIGHTSYNCH
280
1
  9
$CMATERIAL
347
20
  9
$SOLIDHIST
280
0
  9
$SHOWHIST
280
1
  9
$DWFFRAME
280
2
  9
$DGNFRAME
280
2
  9
$REALWORLDSCALE
290
1
  9
$INTERFERECOLOR
 62
256
  9
$CSHADOW
280
0
  9
$SHADOWPLANELOCATION
 40
0.0
  0
ENDSEC
  0
SECTION
  2
CLASSES
  0
CLASS
  1
ACDBDICTIONARYWDFLT
  2
AcDbDictionaryWithDefault
  3
ObjectDBX Classes
 90
0
 91
0
280
0
281
0
  0
CLASS
  1
SUN
  2
AcDbSun
  3
SCENEOE
 90
1153
 91
0
280
0
281
0
  0
CLASS
  1
VISUALSTYLE
  2
AcDbVisualStyle
  3
ObjectDBX Classes
 90
4095
 91
0
280
0
281
0
  0
CLASS
  1
MATERIAL
  2
AcDbMaterial
  3
ObjectDBX Classes
 90
1153
 91
0
280
0
281
0
  0
CLASS
  1
SCALE
  2
AcDbScale
  3
ObjectDBX Classes
 90
1153
 91
0
280
0
281
0
  0
CLASS
  1
TABLESTYLE
  2
AcDbTableStyle
  3
ObjectDBX Classes
 90
4095
 91
0
280
0
281
0
  0
CLASS
  1
MLEADERSTYLE
  2
AcDbMLeaderStyle
  3
ACDB_MLEADERSTYLE_CLASS
 90
4095
 91
0
280
0
281
0
  0
CLASS
  1
DICTIONARYVAR
  2
AcDbDictionaryVar
  3
ObjectDBX Classes
 90
0
 91
0
280
0
281
0
  0
CLASS
  1
CELLSTYLEMAP
  2
AcDbCellStyleMap
  3
ObjectDBX Classes
 90
1152
 91
0
280
0
281
0
  0
CLASS
  1
MENTALRAYRENDERSETTINGS
  2
AcDbMentalRayRenderSettings
  3
SCENEOE
 90
1024
 91
0
280
0
281
0
  0
CLASS
  1
ACDBDETAILVIEWSTYLE
  2
AcDbDetailViewStyle
  3
ObjectDBX Classes
 90
1025
 91
0
280
0
281
0
  0
CLASS
  1
ACDBSECTIONVIEWSTYLE
  2
AcDbSectionViewStyle
  3
ObjectDBX Classes
 90
1025
 91
0
280
0
281
0
  0
CLASS
  1
RASTERVARIABLES
  2
AcDbRasterVariables
  3
ISM
 90
0
 91
0
280
0
281
0
  0
CLASS
  1
ACDBPLACEHOLDER
  2
AcDbPlaceHolder
  3
ObjectDBX Classes
 90
0
 91
0
280
0
281
0
  0
CLASS
  1
LAYOUT
  2
AcDbLayout
  3
ObjectDBX Classes
 90
0
 91
0
280
0
281
0
  0
ENDSEC
  0
SECTION
  2
TABLES
  0
TABLE
  2
VPORT
  5
8
330
0
100
AcDbSymbolTable
 70
1
  0
VPORT
  5
23
330
8
100
AcDbSymbolTableRecord
100
AcDbViewportTableRecord
  2
*Active
 70
0
 10
0.0
 20
0.0
 11
1.0
 21
1.0
 12
0.0
 22
0.0
 13
0.0
 23
0.0
 14
0.5
 24
0.5
 15
0.5
 25
0.5
 16
0.0
 26
0.0
 36
1.0
 17
0.0
 27
0.0
 37
0.0
 40
1000.0
 41
1.34
 42
50.0
 43
0.0
 44
0.0
 50
0.0
 51
0.0
 71
0
 72
1000
 73
1
 74
3
 75
0
 76
0
 77
0
 78
0
281
0
 65
0
146
0.0
  0
ENDTAB
  0
TABLE
  2
LTYPE
  5
2
330
0
100
AcDbSymbolTable
 70
3
  0
LTYPE
  5
24
330
2
100
AcDbSymbolTableRecord
100
AcDbLinetypeTableRecord
  2
ByBlock
 70
0
  3

 72
65
 73
0
 40
0.0
  0
LTYPE
  5
25
330
2
100
AcDbSymbolTableRecord
100
AcDbLinetypeTableRecord
  2
ByLayer
 70
0
  3

 72
65
 73
0
 40
0.0
  0
LTYPE
  5
26
330
2
100
AcDbSymbolTableRecord
100
AcDbLinetypeTableRecord
  2
Continuous
 70
0
  3

 72
65
 73
0
 40
0.0
  0
ENDTAB
  0
TABLE
  2
LAYER
  5
1
330
0
100
AcDbSymbolTable
 70
2
  0
LAYER
  5
27
330
1
100
AcDbSymbolTableRecord
100
AcDbLayerTableRecord
  2
0
 70
0
 62
7
  6
Continuous
370
-3
390
13
347
21
  0
LAYER
  5
28
330
1
100
AcDbSymbolTableRecord
100
AcDbLayerTableRecord
  2
Defpoints
 70
0
 62
7
  6
Continuous
290
0
370
-3
390
13
347
21
  0
ENDTAB
  0
TABLE
  2
STYLE
  5
5
330
0
100
AcDbSymbolTable
 70
1
  0
STYLE
  5
29
330
5
100
AcDbSymbolTableRecord
100
AcDbTextStyleTableRecord
  2
Standard
 70
0
 40
0.0
 41
1.0
 50
0.0
 71
0
 42
2.5
  3
txt
  4

  0
ENDTAB
  0
TABLE
  2
VIEW
  5
7
330
0
100
AcDbSymbolTable
 70
0
  0
ENDTAB
  0
TABLE
  2
UCS
  5
6
330
0
100
AcDbSymbolTable
 70
0
  0
ENDTAB
  0
TABLE
  2
APPID
  5
3
330
0
100
AcDbSymbolTable
 70
3
  0
APPID
  5
2A
330
3
100
AcDbSymbolTableRecord
100
AcDbRegAppTableRecord
  2
ACAD
 70
0
  0
APPID
  5
477
330
3
100
AcDbSymbolTableRecord
100
AcDbRegAppTableRecord
  2
HATCHBACKGROUNDCOLOR
 70
0
  0
APPID
  5
478
330
3
100
AcDbSymbolTableRecord
100
AcDbRegAppTableRecord
  2
EZDXF
 70
0
  0
ENDTAB
  0
TABLE
  2
DIMSTYLE
  5
4
330
0
100
AcDbSymbolTable
 70
1
100
AcDbDimStyleTable
  0
DIMSTYLE
105
2B
330
4
100
AcDbSymbolTableRecord
100
AcDbDimStyleTableRecord
  2
Standard
 70
0
 40
1.0
 41
2.5
 42
0.625
 43
3.75
 44
1.25
 45
0.0
 46
0.0
 47
0.0
 48
0.0
 49
2.5
140
2.5
141
2.5
142
0.0
143
0.03937007874
144
1.0
145
0.0
146
1.0
147
0.625
148
0.0
 69
0
 70
0
 71
0
 72
0
 73
0
 74
0
 75
0
 76
0
 77
1
 78
8
 79
3
170
0
171
3
172
1
173
0
174
0
175
0
176
0
177
0
178
0
179
2
271
2
272
2
273
2
274
3
275
0
276
0
277
2
278
44
279
0
280
0
281
0
282
0
283
0
284
8
285
0
286
0
288
0
289
3
290
0
371
-2
372
-2
  0
ENDTAB
  0
TABLE
  2
BLOCK_RECORD
  5
9
330
0
100
AcDbSymbolTable
 70
2
  0
BLOCK_RECORD
  5
17
330
9
100
AcDbSymbolTableRecord
100
AcDbBlockTableRecord
  2
*Model_Space
340
1A
 70
0
280
1
281
0
  0
BLOCK_RECORD
  5
1B
330
9
100
AcDbSymbolTableRecord
100
AcDbBlockTableRecord
  2
*Paper_Space
340
1E
 70
0
280
1
281
0
  0
ENDTAB
  0
ENDSEC
  0
SECTION
  2
BLOCKS
  0
BLOCK
  5
18
330
17
100
AcDbEntity
  8
0
100
AcDbBlockBegin
  2
*Model_Space
 70
0
 10
0.0
 20
0.0
 30
0.0
  3
*Model_Space
  1

  0
ENDBLK
  5
19
330
17
100
AcDbEntity
  8
0
100
AcDbBlockEnd
  0
BLOCK
  5
1C
330
1B
100
AcDbEntity
  8
0
100
AcDbBlockBegin
  2
*Paper_Space
 70
0
 10
0.0
 20
0.0
 30
0.0
  3
*Paper_Space
  1

  0
ENDBLK
  5
1D
330
1B
100
AcDbEntity
  8
0
100
AcDbBlockEnd
  0
ENDSEC
  0
SECTION
  2
ENTITIES
  0
LINE
  5
2F
330
17
100
AcDbEntity
  8
0
100
AcDbLine
 10
-104.53787198196196
 20
3.00000000000018
 30
0.0
 11
-135.95443512214896
 21
3.00000000000018
 31
0.0
  0
LINE
  5
30
330
17
100
AcDbEntity
  8
0
100
AcDbLine
 10
-104.53787198195995
 20
3.00000000000018
 30
0.0
 11
-104.53787198195995
 21
-2.99999999999982
 31
0.0
  0
LINE
  5
31
330
17
100
AcDbEntity
  8
0
100
AcDbLine
 10
-104.53787198196495
 20
-2.99999999999982
 30
0.0
 11
-135.95443512214896
 21
-2.99999999999982
 31
0.0
  0
LINE
  5
32
330
17
100
AcDbEntity
  8
0
100
AcDbLine
 10
-134.9209514422112
 20
-7.731339503790423
 30
0.0
 11
-134.94172311854055
 21
-7.686604908205867
 31
0.0
  0
LINE
  5
33
330
17
100
AcDbEntity
  8
0
100
AcDbLine
 10
-134.94172311854055
 20
-7.686604908205867
 30
0.0
 11
-134.9622940553288
 21
-7.641777649319119
 31
0.0
  0
LINE
  5
34
330
17
100
AcDbEntity
  8
0
100
AcDbLine
 10
-134.9622940553288
 20
-7.641777649319119
 30
0.0
 11
-134.98266383921293
 21
-7.596858627912155
 31
0.0
  0
LINE
  5
35
330
17
100
AcDbEntity
  8
0
100
AcDbLine
 10
-134.98266383921293
 20
-7.596858627912155
 30
0.0
 11
-135.00283206087207
 21
-7.551848746610892
 31
0.0
  0
LINE
  5
36
330
17
100
AcDbEntity
  8
0
100
AcDbLine
 10
-135.00283206087207
 20
-7.551848746610892
 30
0.0
 11
-135.02279831503557
 21
-7.506748909867017
 31
0.0
  0
LINE
  5
37
330
17
100
AcDbEntity
  8
0
100
AcDbLine
 10
-135.02279831503557
 20
-7.506748909867017
 30
0.0
 11
-135.0425622004913
 21
-7.461560023939839
 31
0.0
  0
LINE
  5
38
330
17
100
AcDbEntity
  8
0
100
AcDbLine
 10
-135.0425622004913
 20
-7.461560023939839
 30
0.0
 11
-135.06212332009352
 21
-7.416282996878058
 31
0.0
  0
LINE
  5
39
330
17
100
AcDbEntity
  8
0
100
AcDbLine
 10
-135.06212332009352
 20
-7.416282996878058
 30
0.0
 11
-135.08148128077107
 21
-7.370918738501533
 31
0.0
  0
LINE
  5
3A
330
17
100
AcDbEntity
  8
0
100
AcDbLine
 10
-135.08148128077107
 20
-7.370918738501533
 30
0.0
 11
-135.10063569353514
 21
-7.3254681603829965
 31
0.0
  0
LINE
  5
3B
330
17
100
AcDbEntity
  8
0
100
AcDbLine
 10
-135.10063569353514
 20
-7.3254681603829965
 30
0.0
 11
-135.1195861734871
 21
-7.279932175829726
 31
0.0
  0
LINE
  5
3C
330
17
100
AcDbEntity
  8
0
100
AcDbLine
 10
-135.1195861734871
 20
-7.279932175829726
 30
0.0
 11
-135.13833233982632
 21
-7.234311699865209
 31
0.0
  0
LINE
  5
3D
330
17
100
AcDbEntity
  8
0
100
AcDbLine
 10
-135.13833233982632
 20
-7.234311699865209
 30
0.0
 11
-135.1568738158576
 21
-7.188607649210736
 31
0.0
  0
LINE
  5
3E
330
17
100
AcDbEntity
  8
0
100
AcDbLine
 10
-135.1568738158576
 20
-7.188607649210736
 30
0.0
 11
-135.17521022899908
 21
-7.142820942267001
 31
0.0
  0
LINE
  5
3F
330
17
100
AcDbEntity
  8
0
100
AcDbLine
 10
-135.17521022899908
 20
-7.142820942267001
 30
0.0
 11
-135.19334121078938
 21
-7.096952499095627
 31
0.0
  0
LINE
  5
40
330
17
100
AcDbEntity
  8
0
100
AcDbLine
 10
-135.19334121078938
 20
-7.096952499095627
 30
0.0
 11
-135.21126639689527
 21
-7.051003241400695
 31
0.0
  0
LINE
  5
41
330
17
100
AcDbEntity
  8
0
100
AcDbLine
 10
-135.21126639689527
 20
-7.051003241400695
 30
0.0
 11
-135.2289854271188
 21
-7.004974092510211
 31
0.0
  0
LINE
  5
42
330
17
100
AcDbEntity
  8
0
100
AcDbLine
 10
-135.2289854271188
 20
-7.004974092510211
 30
0.0
 11
-135.24649794540474
 21
-6.958865977357552
 31
0.0
  0
LINE
  5
43
330
17
100
AcDbEntity
  8
0
100
AcDbLine
 10
-135.24649794540474
 20
-6.958865977357552
 30
0.0
 11
-135.2638035998475
 21
-6.9126798224628905
 31
0.0
  0
LINE
  5
44
330
17
100
AcDbEntity
  8
0
100
AcDbLine
 10
-135.2638035998475
 20
-6.9126798224628905
 30
0.0
 11
-135.28090204269836
 21
-6.8664165559145625
 31
0.0
  0
LINE
  5
45
330
17
100
AcDbEntity
  8
0
100
AcDbLine
 10
-135.28090204269836
 20
-6.8664165559145625
 30
0.0
 11
-135.29779293037242
 21
-6.820077107350432
 31
0.0
  0
LINE
  5
46
330
17
100
AcDbEntity
  8
0
100
AcDbLine
 10
-135.29779293037242
 20
-6.820077107350432
 30
0.0
 11
-135.31447592345555
 21
-6.773662407939201
 31
0.0
  0
LINE
  5
47
330
17
100
AcDbEntity
  8
0
100
AcDbLine
 10
-135.31447592345555
 20
-6.773662407939201
 30
0.0
 11
-135.33095068671102
 21
-6.727173390361698
 31
0.0
  0
LINE
  5
48
330
17
100
AcDbEntity
  8
0
100
AcDbLine
 10
-135.33095068671102
 20
-6.727173390361698
 30
0.0
 11
-135.34721688908655
 21
-6.680610988792145
 31
0.0
  0
LINE
  5
49
330
17
100
AcDbEntity
  8
0
100
AcDbLine
 10
-135.34721688908655
 20
-6.680610988792145
 30
0.0
 11
-135.36327420372066
 21
-6.63397613887937
 31
0.0
  0
LINE
  5
4A
330
17
100
AcDbEntity
  8
0
100
AcDbLine
 10
-135.36327420372066
 20
-6.63397613887937
 30
0.0
 11
-135.37912230794942
 21
-6.587269777728027
 31
0.0
  0
LINE
  5
4B
330
17
100
AcDbEntity
  8
0
100
AcDbLine
 10
-135.37912230794942
 20
-6.587269777728027
 30
0.0
 11
-135.3947608833129
 21
-6.540492843879743
 31
0.0
  0
LINE
  5
4C
330
17
100
AcDbEntity
  8
0
100
AcDbLine
 10
-135.3947608833129
 20
-6.540492843879743
 30
0.0
 11
-135.4101896155615
 21
-6.493646277294278
 31
0.0
  0
LINE
  5
4D
330
17
100
AcDbEntity
  8
0
100
AcDbLine
 10
-135.4101896155615
 20
-6.493646277294278
 30
0.0
 11
-135.4254081946624
 21
-6.44673101933062
 31
0.0
  0
LINE
  5
4E
330
17
100
AcDbEntity
  8
0
100
AcDbLine
 10
-135.4254081946624
 20
-6.44673101933062
 30
0.0
 11
-135.44041631480556
 21
-6.399748012728083
 31
0.0
  0
LINE
  5
4F
330
17
100
AcDbEntity
  8
0
100
AcDbLine
 10
-135.44041631480556
 20
-6.399748012728083
 30
0.0
 11
-135.45521367441015
 21
-6.352698201587357
 31
0.0
  0
LINE
  5
50
330
17
100
AcDbEntity
  8
0
100
AcDbLine
 10
-135.45521367441015
 20
-6.352698201587357
 30
0.0
 11
-135.46979997613042
 21
-6.3055825313515275
 31
0.0
  0
LINE
  5
51
330
17
100
AcDbEntity
  8
0
100
AcDbLine
 10
-135.46979997613042
 20
-6.3055825313515275
 30
0.0
 11
-135.4841749268617
 21
-6.258401948787101
 31
0.0
  0
LINE
  5
52
330
17
100
AcDbEntity
  8
0
100
AcDbLine
 10
-135.4841749268617
 20
-6.258401948787101
 30
0.0
 11
-135.49833823774637
 21
-6.211157401964952
 31
0.0
  0
LINE
  5
53
330
17
100
AcDbEntity
  8
0
100
AcDbLine
 10
-135.49833823774637
 20
-6.211157401964952
 30
0.0
 11
-135.51228962417954
 21
-6.163849840241294
 31
0.0
  0
LINE
  5
54
330
17
100
AcDbEntity
  8
0
100
AcDbLine
 10
-135.51228962417954
 20
-6.163849840241294
 30
0.0
 11
-135.52602880581495
 21
-6.116480214238596
 31
0.0
  0
LINE
  5
55
330
17
100
AcDbEntity
  8
0
100
AcDbLine
 10
-135.52602880581495
 20
-6.116480214238596
 30
0.0
 11
-135.53955550657034
 21
-6.069049475826468
 31
0.0
  0
LINE
  5
56
330
17
100
AcDbEntity
  8
0
100
AcDbLine
 10
-135.53955550657034
 20
-6.069049475826468
 30
0.0
 11
-135.55286945463328
 21
-6.021558578102555
 31
0.0
  0
LINE
  5
57
330
17
100
AcDbEntity
  8
0
100
AcDbLine
 10
-135.55286945463328
 20
-6.021558578102555
 30
0.0
 11
-135.56597038246645
 21
-5.974008475373369
 31
0.0
  0
LINE
  5
58
330
17
100
AcDbEntity
  8
0
100
AcDbLine
 10
-135.56597038246645
 20
-5.974008475373369
 30
0.0
 11
-135.57885802681304
 21
-5.926400123135119
 31
0.0
  0
LINE
  5
59
330
17
100
AcDbEntity
  8
0
100
AcDbLine
 10
-135.57885802681304
 20
-5.926400123135119
 30
0.0
 11
-135.59153212870214
 21
-5.878734478054508
 31
0.0
  0
LINE
  5
5A
330
17
100
AcDbEntity
  8
0
100
AcDbLine
 10
-135.59153212870214
 20
-5.878734478054508
 30
0.0
 11
-135.6039924334538
 21
-5.831012497949513
 31
0.0
  0
LINE
  5
5B
330
17
100
AcDbEntity
  8
0
100
AcDbLine
 10
-135.6039924334538
 20
-5.831012497949513
 30
0.0
 11
-135.61623869068427
 21
-5.783235141770138
 31
0.0
  0
LINE
  5
5C
330
17
100
AcDbEntity
  8
0
100
AcDbLine
 10
-135.61623869068427
 20
-5.783235141770138
 30
0.0
 11
-135.62827065431094
 21
-5.735403369579133
 31
0.0
  0
LINE
  5
5D
330
17
100
AcDbEntity
  8
0
100
AcDbLine
 10
-135.62827065431094
 20
-5.735403369579133
 30
0.0
 11
-135.64008808255738
 21
-5.687518142532726
 31
0.0
  0
LINE
  5
5E
330
17
100
AcDbEntity
  8
0
100
AcDbLine
 10
-135.64008808255738
 20
-5.687518142532726
 30
0.0
 11
-135.6516907379581
 21
-5.639580422861277
 31
0.0
  0
LINE
  5
5F
330
17
100
AcDbEntity
  8
0
100
AcDbLine
 10
-135.6516907379581
 20
-5.639580422861277
 30
0.0
 11
-135.66307838736336
 21
-5.591591173849977
 31
0.0
  0
LINE
  5
60
330
17
100
AcDbEntity
  8
0
100
AcDbLine
 10
-135.66307838736336
 20
-5.591591173849977
 30
0.0
 11
-135.67425080194388
 21
-5.54355135981946
 31
0.0
  0
LINE
  5
61
330
17
100
AcDbEntity
  8
0
100
AcDbLine
 10
-135.67425080194388
 20
-5.54355135981946
 30
0.0
 11
-135.68520775719543
 21
-5.495461946106447
 31
0.0
  0
LINE
  5
62
330
17
100
AcDbEntity
  8
0
100
AcDbLine
 10
-135.68520775719543
 20
-5.495461946106447
 30
0.0
 11
-135.69594903294333
 21
-5.447323899044344
 31
0.0
  0
LINE
  5
63
330
17
100
AcDbEntity
  8
0
100
AcDbLine
 10
-135.69594903294333
 20
-5.447323899044344
 30
0.0
 11
-135.70647441334685
 21
-5.399138185943807
 31
0.0
  0
LINE
  5
64
330
17
100
AcDbEntity
  8
0
100
AcDbLine
 10
-135.70647441334685
 20
-5.399138185943807
 30
0.0
 11
-135.71678368690357
 21
-5.350905775073333
 31
0.0
  0
LINE
  5
65
330
17
100
AcDbEntity
  8
0
100
AcDbLine
 10
-135.71678368690357
 20
-5.350905775073333
 30
0.0
 11
-135.72687664645366
 21
-5.302627635639776
 31
0.0
  0
LINE
  5
66
330
17
100
AcDbEntity
  8
0
100
AcDbLine
 10
-135.72687664645366
 20
-5.302627635639776
 30
0.0
 11
-135.73675308918402
 21
-5.254304737768891
 31
0.0
  0
LINE
  5
67
330
17
100
AcDbEntity
  8
0
100
AcDbLine
 10
-135.73675308918402
 20
-5.254304737768891
 30
0.0
 11
-135.74641281663233
 21
-5.205938052485834
 31
0.0
  0
LINE
  5
68
330
17
100
AcDbEntity
  8
0
100
AcDbLine
 10
-135.74641281663233
 20
-5.205938052485834
 30
0.0
 11
-135.75585563469102
 21
-5.157528551695636
 31
0.0
  0
LINE
  5
69
330
17
100
AcDbEntity
  8
0
100
AcDbLine
 10
-135.75585563469102
 20
-5.157528551695636
 30
0.0
 11
-135.7650813536113
 21
-5.109077208163697
 31
0.0
  0
LINE
  5
6A
330
17
100
AcDbEntity
  8
0
100
AcDbLine
 10
-135.7650813536113
 20
-5.109077208163697
 30
0.0
 11
-135.7740897880068
 21
-5.060584995496219
 31
0.0
  0
LINE
  5
6B
330
17
100
AcDbEntity
  8
0
100
AcDbLine
 10
-135.7740897880068
 20
-5.060584995496219
 30
0.0
 11
-135.7828807568574
 21
-5.012052888120653
 31
0.0
  0
LINE
  5
6C
330
17
100
AcDbEntity
  8
0
100
AcDbLine
 10
-135.7828807568574
 20
-5.012052888120653
 30
0.0
 11
-135.7914540835129
 21
-4.963481861266117
 31
0.0
  0
LINE
  5
6D
330
17
100
AcDbEntity
  8
0
100
AcDbLine
 10
-135.7914540835129
 20
-4.963481861266117
 30
0.0
 11
-135.79980959569642
 21
-4.9148728909437915
 31
0.0
  0
LINE
  5
6E
330
17
100
AcDbEntity
  8
0
100
AcDbLine
 10
-135.79980959569642
 20
-4.9148728909437915
 30
0.0
 11
-135.807947125508
 21
-4.866226953927312
 31
0.0
  0
LINE
  5
6F
330
17
100
AcDbEntity
  8
0
100
AcDbLine
 10
-135.807947125508
 20
-4.866226953927312
 30
0.0
 11
-135.81586650942796
 21
-4.817545027733148
 31
0.0
  0
LINE
  5
70
330
17
100
AcDbEntity
  8
0
100
AcDbLine
 10
-135.81586650942796
 20
-4.817545027733148
 30
0.0
 11
-135.82356758832015
 21
-4.7688280906009535
 31
0.0
  0
LINE
  5
71
330
17
100
AcDbEntity
  8
0
100
AcDbLine
 10
-135.82356758832015
 20
-4.7688280906009535
 30
0.0
 11
-135.83105020743508
 21
-4.720077121473902
 31
0.0
  0
LINE
  5
72
330
17
100
AcDbEntity
  8
0
100
AcDbLine
 10
-135.83105020743508
 20
-4.720077121473902
 30
0.0
 11
-135.83831421641318
 21
-4.671293099979033
 31
0.0
  0
LINE
  5
73
330
17
100
AcDbEntity
  8
0
100
AcDbLine
 10
-135.83831421641318
 20
-4.671293099979033
 30
0.0
 11
-135.8453594692877
 21
-4.622477006407551
 31
0.0
  0
LINE
  5
74
330
17
100
AcDbEntity
  8
0
100
AcDbLine
 10
-135.8453594692877
 20
-4.622477006407551
 30
0.0
 11
-135.85218582448775
 21
-4.573629821695135
 31
0.0
  0
LINE
  5
75
330
17
100
AcDbEntity
  8
0
100
AcDbLine
 10
-135.85218582448775
 20
-4.573629821695135
 30
0.0
 11
-135.858793144841
 21
-4.524752527402231
 31
0.0
  0
LINE
  5
76
330
17
100
AcDbEntity
  8
0
100
AcDbLine
 10
-135.858793144841
 20
-4.524752527402231
 30
0.0
 11
-135.86518129757656
 21
-4.475846105694311
 31
0.0
  0
LINE
  5
77
330
17
100
AcDbEntity
  8
0
100
AcDbLine
 10
-135.86518129757656
 20
-4.475846105694311
 30
0.0
 11
-135.87135015432764
 21
-4.426911539322159
 31
0.0
  0
LINE
  5
78
330
17
100
AcDbEntity
  8
0
100
AcDbLine
 10
-135.87135015432764
 20
-4.426911539322159
 30
0.0
 11
-135.877299591134
 21
-4.377949811602105
 31
0.0
  0
LINE
  5
79
330
17
100
AcDbEntity
  8
0
100
AcDbLine
 10
-135.877299591134
 20
-4.377949811602105
 30
0.0
 11
-135.88302948844466
 21
-4.328961906396277
 31
0.0
  0
LINE
  5
7A
330
17
100
AcDbEntity
  8
0
100
AcDbLine
 10
-135.88302948844466
 20
-4.328961906396277
 30
0.0
 11
-135.88853973112012
 21
-4.279948808092827
 31
0.0
  0
LINE
  5
7B
330
17
100
AcDbEntity
  8
0
100
AcDbLine
 10
-135.88853973112012
 20
-4.279948808092827
 30
0.0
 11
-135.89383020843465
 21
-4.230911501586148
 31
0.0
  0
LINE
  5
7C
330
17
100
AcDbEntity
  8
0
100
AcDbLine
 10
-135.89383020843465
 20
-4.230911501586148
 30
0.0
 11
-135.89890081407876
 21
-4.181850972257086
 31
0.0
  0
LINE
  5
7D
330
17
100
AcDbEntity
  8
0
100
AcDbLine
 10
-135.89890081407876
 20
-4.181850972257086
 30
0.0
 11
-135.90375144616107
 21
-4.132768205953138
 31
0.0
  0
LINE
  5
7E
330
17
100
AcDbEntity
  8
0
100
AcDbLine
 10
-135.90375144616107
 20
-4.132768205953138
 30
0.0
 11
-135.90838200721046
 21
-4.083664188968645
 31
0.0
  0
LINE
  5
7F
330
17
100
AcDbEntity
  8
0
100
AcDbLine
 10
-135.90838200721046
 20
-4.083664188968645
 30
0.0
 11
-135.9127924041781
 21
-4.034539908024962
 31
0.0
  0
LINE
  5
80
330
17
100
AcDbEntity
  8
0
100
AcDbLine
 10
-135.9127924041781
 20
-4.034539908024962
 30
0.0
 11
-135.9169825484392
 21
-3.9853963502506518
 31
0.0
  0
LINE
  5
81
330
17
100
AcDbEntity
  8
0
100
AcDbLine
 10
-135.9169825484392
 20
-3.9853963502506518
 30
0.0
 11
-135.92095235579478
 21
-3.9362345031616206
 31
0.0
  0
LINE
  5
82
330
17
100
AcDbEntity
  8
0
100
AcDbLine
 10
-135.92095235579478
 20
-3.9362345031616206
 30
0.0
 11
-135.92470174647357
 21
-3.8870553546413
 31
0.0
  0
LINE
  5
83
330
17
100
AcDbEntity
  8
0
100
AcDbLine
 10
-135.92470174647357
 20
-3.8870553546413
 30
0.0
 11
-135.92823064513337
 21
-3.837859892920785
 31
0.0
  0
LINE
  5
84
330
17
100
AcDbEntity
  8
0
100
AcDbLine
 10
-135.92823064513337
 20
-3.837859892920785
 30
0.0
 11
-135.93153898086263
 21
-3.788649106558969
 31
0.0
  0
LINE
  5
85
330
17
100
AcDbEntity
  8
0
100
AcDbLine
 10
-135.93153898086263
 20
-3.788649106558969
 30
0.0
 11
-135.934626687182
 21
-3.739423984422696
 31
0.0
  0
LINE
  5
86
330
17
100
AcDbEntity
  8
0
100
AcDbLine
 10
-135.934626687182
 20
-3.739423984422696
 30
0.0
 11
-135.93749370204551
 21
-3.6901855156668715
 31
0.0
  0
LINE
  5
87
330
17
100
AcDbEntity
  8
0
100
AcDbLine
 10
-135.93749370204551
 20
-3.6901855156668715
 30
0.0
 11
-135.9401399678419
 21
-3.6409346897146007
 31
0.0
  0
LINE
  5
88
330
17
100
AcDbEntity
  8
0
100
AcDbLine
 10
-135.9401399678419
 20
-3.6409346897146007
 30
0.0
 11
-135.9425654313957
 21
-3.5916724962373023
 31
0.0
  0
LINE
  5
89
330
17
100
AcDbEntity
  8
0
100
AcDbLine
 10
-135.9425654313957
 20
-3.5916724962373023
 30
0.0
 11
-135.94477004396845
 21
-3.542399925134814
 31
0.0
  0
LINE
  5
8A
330
17
100
AcDbEntity
  8
0
100
AcDbLine
 10
-135.94477004396845
 20
-3.542399925134814
 30
0.0
 11
-135.9467537612595
 21
-3.493117966515507
 31
0.0
  0
LINE
  5
8B
330
17
100
AcDbEntity
  8
0
100
AcDbLine
 10
-135.9467537612595
 20
-3.493117966515507
 30
0.0
 11
-135.94851654340704
 21
-3.443827610676395
 31
0.0
  0
LINE
  5
8C
330
17
100
AcDbEntity
  8
0
100
AcDbLine
 10
-135.94851654340704
 20
-3.443827610676395
 30
0.0
 11
-135.95005835498878
 21
-3.394529848083228
 31
0.0
  0
LINE
  5
8D
330
17
100
AcDbEntity
  8
0
100
AcDbLine
 10
-135.95005835498878
 20
-3.394529848083228
 30
0.0
 11
-135.95137916502281
 21
-3.345225669350592
 31
0.0
  0
LINE
  5
8E
330
17
100
AcDbEntity
  8
0
100
AcDbLine
 10
-135.95137916502281
 20
-3.345225669350592
 30
0.0
 11
-135.95247894696806
 21
-3.2959160652219968
 31
0.0
  0
LINE
  5
8F
330
17
100
AcDbEntity
  8
0
100
AcDbLine
 10
-135.95247894696806
 20
-3.2959160652219968
 30
0.0
 11
-135.95335767872496
 21
-3.246602026549981
 31
0.0
  0
LINE
  5
90
330
17
100
AcDbEntity
  8
0
100
AcDbLine
 10
-135.95335767872496
 20
-3.246602026549981
 30
0.0
 11
-135.95401534263584
 21
-3.1972845442761844
 31
0.0
  0
LINE
  5
91
330
17
100
AcDbEntity
  8
0
100
AcDbLine
 10
-135.95401534263584
 20
-3.1972845442761844
 30
0.0
 11
-135.95445192548524
 21
-3.1479646094114533
 31
0.0
  0
LINE
  5
92
330
17
100
AcDbEntity
  8
0
100
AcDbLine
 10
-135.95445192548524
 20
-3.1479646094114533
 30
0.0
 11
-135.95466741850024
 21
-3.0986432130159094
 31
0.0
  0
LINE
  5
93
330
17
100
AcDbEntity
  8
0
100
AcDbLine
 10
-135.95466741850024
 20
-3.0986432130159094
 30
0.0
 11
-135.95466181735063
 21
-3.049321346179051
 31
0.0
  0
LINE
  5
94
330
17
100
AcDbEntity
  8
0
100
AcDbLine
 10
-135.95466181735063
 20
-3.049321346179051
 30
0.0
 11
-135.95443512214894
 21
-2.999999999999821
 31
0.0
  0
LINE
  5
95
330
17
100
AcDbEntity
  8
0
100
AcDbLine
 10
-5.999999999999995
 20
-118.36109611263862
 30
0.0
 11
-7.623126932311158
 21
-117.87582405905276
 31
0.0
  0
LINE
  5
96
330
17
100
AcDbEntity
  8
0
100
AcDbLine
 10
-7.623126932311158
 20
-117.87582405905276
 30
0.0
 11
-9.245514774927662
 21
-117.37631629151933
 31
0.0
  0
LINE
  5
97
330
17
100
AcDbEntity
  8
0
100
AcDbLine
 10
-9.245514774927662
 20
-117.37631629151933
 30
0.0
 11
-10.866984555771259
 21
-116.8625395412
 31
0.0
  0
LINE
  5
98
330
17
100
AcDbEntity
  8
0
100
AcDbLine
 10
-10.866984555771259
 20
-116.8625395412
 30
0.0
 11
-12.48735605253447
 21
-116.33446334482313
 31
0.0
  0
LINE
  5
99
330
17
100
AcDbEntity
  8
0
100
AcDbLine
 10
-12.48735605253447
 20
-116.33446334482313
 30
0.0
 11
-14.106447844974637
 21
-115.79206008382299
 31
0.0
  0
LINE
  5
9A
330
17
100
AcDbEntity
  8
0
100
AcDbLine
 10
-14.106447844974637
 20
-115.79206008382299
 30
0.0
 11
-15.724077368481586
 21
-115.23530502240861
 31
0.0
  0
LINE
  5
9B
330
17
100
AcDbEntity
  8
0
100
AcDbLine
 10
-15.724077368481586
 20
-115.23530502240861
 30
0.0
 11
-17.340060968895944
 21
-114.66417634451922
 31
0.0
  0
LINE
  5
9C
330
17
100
AcDbEntity
  8
0
100
AcDbLine
 10
-17.340060968895944
 20
-114.66417634451922
 30
0.0
 11
-18.954213958553286
 21
-114.07865518962272
 31
0.0
  0
LINE
  5
9D
330
17
100
AcDbEntity
  8
0
100
AcDbLine
 10
-18.954213958553286
 20
-114.07865518962272
 30
0.0
 11
-20.566350673528955
 21
-113.478725687314
 31
0.0
  0
LINE
  5
9E
330
17
100
AcDbEntity
  8
0
100
AcDbLine
 10
-20.566350673528955
 20
-113.478725687314
 30
0.0
 11
-22.176284532053117
 21
-112.86437499067206
 31
0.0
  0
LINE
  5
9F
330
17
100
AcDbEntity
  8
0
100
AcDbLine
 10
-22.176284532053117
 20
-112.86437499067206
 30
0.0
 11
-23.783828094070017
 21
-112.23559330833302
 31
0.0
  0
LINE
  5
A0
330
17
100
AcDbEntity
  8
0
100
AcDbLine
 10
-23.783828094070017
 20
-112.23559330833302
 30
0.0
 11
-25.388793121907796
 21
-111.59237393523904
 31
0.0
  0
LINE
  5
A1
330
17
100
AcDbEntity
  8
0
100
AcDbLine
 10
-25.388793121907796
 20
-111.59237393523904
 30
0.0
 11
-26.990990642027267
 21
-110.93471328202288
 31
0.0
  0
LINE
  5
A2
330
17
100
AcDbEntity
  8
0
100
AcDbLine
 10
-26.990990642027267
 20
-110.93471328202288
 30
0.0
 11
-28.590231007815294
 21
-110.26261090298861
 31
0.0
  0
LINE
  5
A3
330
17
100
AcDbEntity
  8
0
100
AcDbLine
 10
-28.590231007815294
 20
-110.26261090298861
 30
0.0
 11
-30.186323963386986
 21
-109.57606952265046
 31
0.0
  0
LINE
  5
A4
330
17
100
AcDbEntity
  8
0
100
AcDbLine
 10
-30.186323963386986
 20
-109.57606952265046
 30
0.0
 11
-31.77907870835943
 21
-108.87509506079199
 31
0.0
  0
LINE
  5
A5
330
17
100
AcDbEntity
  8
0
100
AcDbLine
 10
-31.77907870835943
 20
-108.87509506079199
 30
0.0
 11
-33.368303963558255
 21
-108.15969665600967
 31
0.0
  0
LINE
  5
A6
330
17
100
AcDbEntity
  8
0
100
AcDbLine
 10
-33.368303963558255
 20
-108.15969665600967
 30
0.0
 11
-34.953808037616646
 21
-107.42988668770506
 31
0.0
  0
LINE
  5
A7
330
17
100
AcDbEntity
  8
0
100
AcDbLine
 10
-34.953808037616646
 20
-107.42988668770506
 30
0.0
 11
-36.53539889442538
 21
-106.68568079649198
 31
0.0
  0
LINE
  5
A8
330
17
100
AcDbEntity
  8
0
100
AcDbLine
 10
-36.53539889442538
 20
-106.68568079649198
 30
0.0
 11
-38.11288422139054
 21
-105.92709790298524
 31
0.0
  0
LINE
  5
A9
330
17
100
AcDbEntity
  8
0
100
AcDbLine
 10
-38.11288422139054
 20
-105.92709790298524
 30
0.0
 11
-39.68607149845466
 21
-105.15416022493964
 31
0.0
  0
LINE
  5
AA
330
17
100
AcDbEntity
  8
0
100
AcDbLine
 10
-39.68607149845466
 20
-105.15416022493964
 30
0.0
 11
-41.25476806783528
 21
-104.3668932927087
 31
0.0
  0
LINE
  5
AB
330
17
100
AcDbEntity
  8
0
100
AcDbLine
 10
-41.25476806783528
 20
-104.3668932927087
 30
0.0
 11
-42.81878120443503
 21
-103.565325962994
 31
0.0
  0
LINE
  5
AC
330
17
100
AcDbEntity
  8
0
100
AcDbLine
 10
-42.81878120443503
 20
-103.565325962994
 30
0.0
 11
-44.37791818687219
 21
-102.7494904308585
 31
0.0
  0
LINE
  5
AD
330
17
100
AcDbEntity
  8
0
100
AcDbLine
 10
-44.37791818687219
 20
-102.7494904308585
 30
0.0
 11
-45.93198636908601
 21
-101.91942223997658
 31
0.0
  0
LINE
  5
AE
330
17
100
AcDbEntity
  8
0
100
AcDbLine
 10
-45.93198636908601
 20
-101.91942223997658
 30
0.0
 11
-47.480793252463315
 21
-101.0751602910973
 31
0.0
  0
LINE
  5
AF
330
17
100
AcDbEntity
  8
0
100
AcDbLine
 10
-47.480793252463315
 20
-101.0751602910973
 30
0.0
 11
-49.024146558436
 21
-100.2167468486976
 31
0.0
  0
LINE
  5
B0
330
17
100
AcDbEntity
  8
0
100
AcDbLine
 10
-49.024146558436
 20
-100.2167468486976
 30
0.0
 11
-50.56185430149657
 21
-99.3442275458045
 31
0.0
  0
LINE
  5
B1
330
17
100
AcDbEntity
  8
0
100
AcDbLine
 10
-50.56185430149657
 20
-99.3442275458045
 30
0.0
 11
-52.09372486257795
 21
-98.45765138696676
 31
0.0
  0
LINE
  5
B2
330
17
100
AcDbEntity
  8
0
100
AcDbLine
 10
-52.09372486257795
 20
-98.45765138696676
 30
0.0
 11
-53.61956706274306
 21
-97.55707074935809
 31
0.0
  0
LINE
  5
B3
330
17
100
AcDbEntity
  8
0
100
AcDbLine
 10
-53.61956706274306
 20
-97.55707074935809
 30
0.0
 11
-55.13919023712896
 21
-96.64254138199617
 31
0.0
  0
LINE
  5
B4
330
17
100
AcDbEntity
  8
0
100
AcDbLine
 10
-55.13919023712896
 20
-96.64254138199617
 30
0.0
 11
-56.65240430908925
 21
-95.71412240306341
 31
0.0
  0
LINE
  5
B5
330
17
100
AcDbEntity
  8
0
100
AcDbLine
 10
-56.65240430908925
 20
-95.71412240306341
 30
0.0
 11
-58.159019864477905
 21
-94.77187629531696
 31
0.0
  0
LINE
  5
B6
330
17
100
AcDbEntity
  8
0
100
AcDbLine
 10
-58.159019864477905
 20
-94.77187629531696
 30
0.0
 11
-59.65884822601715
 21
-93.81586889957785
 31
0.0
  0
LINE
  5
B7
330
17
100
AcDbEntity
  8
0
100
AcDbLine
 10
-59.65884822601715
 20
-93.81586889957785
 30
0.0
 11
-61.15170152769132
 21
-92.8461694062908
 31
0.0
  0
LINE
  5
B8
330
17
100
AcDbEntity
  8
0
100
AcDbLine
 10
-61.15170152769132
 20
-92.8461694062908
 30
0.0
 11
-62.63739278910796
 21
-91.86285034514836
 31
0.0
  0
LINE
  5
B9
330
17
100
AcDbEntity
  8
0
100
AcDbLine
 10
-62.63739278910796
 20
-91.86285034514836
 30
0.0
 11
-64.11573598976832
 21
-90.86598757277422
 31
0.0
  0
LINE
  5
BA
330
17
100
AcDbEntity
  8
0
100
AcDbLine
 10
-64.11573598976832
 20
-90.86598757277422
 30
0.0
 11
-65.5865461431855
 21
-89.8556602584649
 31
0.0
  0
LINE
  5
BB
330
17
100
AcDbEntity
  8
0
100
AcDbLine
 10
-65.5865461431855
 20
-89.8556602584649
 30
0.0
 11
-67.04963937079387
 21
-88.83195086798736
 31
0.0
  0
LINE
  5
BC
330
17
100
AcDbEntity
  8
0
100
AcDbLine
 10
-67.04963937079387
 20
-88.83195086798736
 30
0.0
 11
-68.50483297558779
 21
-87.79494514543563
 31
0.0
  0
LINE
  5
BD
330
17
100
AcDbEntity
  8
0
100
AcDbLine
 10
-68.50483297558779
 20
-87.79494514543563
 30
0.0
 11
-69.95194551543088
 21
-86.74473209314958
 31
0.0
  0
LINE
  5
BE
330
17
100
AcDbEntity
  8
0
100
AcDbLine
 10
-69.95194551543088
 20
-86.74473209314958
 30
0.0
 11
-71.39079687597535
 21
-85.68140394970166
 31
0.0
  0
LINE
  5
BF
330
17
100
AcDbEntity
  8
0
100
AcDbLine
 10
-71.39079687597535
 20
-85.68140394970166
 30
0.0
 11
-72.8212083431325
 21
-84.60505616595961
 31
0.0
  0
LINE
  5
C0
330
17
100
AcDbEntity
  8
0
100
AcDbLine
 10
-72.8212083431325
 20
-84.60505616595961
 30
0.0
 11
-74.24300267503384
 21
-83.51578737923475
 31
0.0
  0
LINE
  5
C1
330
17
100
AcDbEntity
  8
0
100
AcDbLine
 10
-74.24300267503384
 20
-83.51578737923475
 30
0.0
 11
-75.6560041734242
 21
-82.41369938552819
 31
0.0
  0
LINE
  5
C2
330
17
100
AcDbEntity
  8
0
100
AcDbLine
 10
-75.6560041734242
 20
-82.41369938552819
 30
0.0
 11
-77.06003875442731
 21
-81.29889710988898
 31
0.0
  0
LINE
  5
C3
330
17
100
AcDbEntity
  8
0
100
AcDbLine
 10
-77.06003875442731
 20
-81.29889710988898
 30
0.0
 11
-78.4549340186254
 21
-80.17148857489985
 31
0.0
  0
LINE
  5
C4
330
17
100
AcDbEntity
  8
0
100
AcDbLine
 10
-78.4549340186254
 20
-80.17148857489985
 30
0.0
 11
-79.84051932039442
 21
-79.03158486730958
 31
0.0
  0
LINE
  5
C5
330
17
100
AcDbEntity
  8
0
100
AcDbLine
 10
-79.84051932039442
 20
-79.03158486730958
 30
0.0
 11
-81.21662583643743
 21
-77.87930010283148
 31
0.0
  0
LINE
  5
C6
330
17
100
AcDbEntity
  8
0
100
AcDbLine
 10
-81.21662583643743
 20
-77.87930010283148
 30
0.0
 11
-82.58308663345889
 21
-76.71475138913074
 31
0.0
  0
LINE
  5
C7
330
17
100
AcDbEntity
  8
0
100
AcDbLine
 10
-82.58308663345889
 20
-76.71475138913074
 30
0.0
 11
-83.9397367349238
 21
-75.53805878702448
 31
0.0
  0
LINE
  5
C8
330
17
100
AcDbEntity
  8
0
100
AcDbLine
 10
-83.9397367349238
 20
-75.53805878702448
 30
0.0
 11
-85.2864131868464
 21
-74.34934526992075
 31
0.0
  0
LINE
  5
C9
330
17
100
AcDbEntity
  8
0
100
AcDbLine
 10
-85.2864131868464
 20
-74.34934526992075
 30
0.0
 11
-86.62295512255245
 21
-73.14873668152569
 31
0.0
  0
LINE
  5
CA
330
17
100
AcDbEntity
  8
0
100
AcDbLine
 10
-86.62295512255245
 20
-73.14873668152569
 30
0.0
 11
-87.94920382636354
 21
-71.93636169184691
 31
0.0
  0
LINE
  5
CB
330
17
100
AcDbEntity
  8
0
100
AcDbLine
 10
-87.94920382636354
 20
-71.93636169184691
 30
0.0
 11
-89.26500279614899
 21
-70.71235175152701
 31
0.0
  0
LINE
  5
CC
330
17
100
AcDbEntity
  8
0
100
AcDbLine
 10
-89.26500279614899
 20
-70.71235175152701
 30
0.0
 11
-90.57019780469467
 21
-69.47684104453974
 31
0.0
  0
LINE
  5
CD
330
17
100
AcDbEntity
  8
0
100
AcDbLine
 10
-90.57019780469467
 20
-69.47684104453974
 30
0.0
 11
-91.86463695983805
 21
-68.22996643928501
 31
0.0
  0
LINE
  5
CE
330
17
100
AcDbEntity
  8
0
100
AcDbLine
 10
-91.86463695983805
 20
-68.22996643928501
 30
0.0
 11
-93.14817076332037
 21
-66.97186743811994
 31
0.0
  0
LINE
  5
CF
330
17
100
AcDbEntity
  8
0
100
AcDbLine
 10
-93.14817076332037
 20
-66.97186743811994
 30
0.0
 11
-94.42065216830807
 21
-65.70268612536486
 31
0.0
  0
LINE
  5
D0
330
17
100
AcDbEntity
  8
0
100
AcDbLine
 10
-94.42065216830807
 20
-65.70268612536486
 30
0.0
 11
-95.68193663553747
 21
-64.42256711382488
 31
0.0
  0
LINE
  5
D1
330
17
100
AcDbEntity
  8
0
100
AcDbLine
 10
-95.68193663553747
 20
-64.42256711382488
 30
0.0
 11
-96.93188218803672
 21
-63.13165748986961
 31
0.0
  0
LINE
  5
D2
330
17
100
AcDbEntity
  8
0
100
AcDbLine
 10
-96.93188218803672
 20
-63.13165748986961
 30
0.0
 11
-98.1703494643825
 21
-61.83010675711454
 31
0.0
  0
LINE
  5
D3
330
17
100
AcDbEntity
  8
0
100
AcDbLine
 10
-98.1703494643825
 20
-61.83010675711454
 30
0.0
 11
-99.39720177044917
 21
-60.51806677874929
 31
0.0
  0
LINE
  5
D4
330
17
100
AcDbEntity
  8
0
100
AcDbLine
 10
-99.39720177044917
 20
-60.51806677874929
 30
0.0
 11
-100.6123051296097
 21
-59.19569171855995
 31
0.0
  0
LINE
  5
D5
330
17
100
AcDbEntity
  8
0
100
AcDbLine
 10
-100.6123051296097
 20
-59.19569171855995
 30
0.0
 11
-101.81552833135075
 21
-57.86313798069221
 31
0.0
  0
LINE
  5
D6
330
17
100
AcDbEntity
  8
0
100
AcDbLine
 10
-101.81552833135075
 20
-57.86313798069221
 30
0.0
 11
-103.00674297826316
 21
-56.5205641482071
 31
0.0
  0
LINE
  5
D7
330
17
100
AcDbEntity
  8
0
100
AcDbLine
 10
-103.00674297826316
 20
-56.5205641482071
 30
0.0
 11
-104.18582353137501
 21
-55.16813092047674
 31
0.0
  0
LINE
  5
D8
330
17
100
AcDbEntity
  8
0
100
AcDbLine
 10
-104.18582353137501
 20
-55.16813092047674
 30
0.0
 11
-105.35264735379198
 21
-53.80600104947414
 31
0.0
  0
LINE
  5
D9
330
17
100
AcDbEntity
  8
0
100
AcDbLine
 10
-105.35264735379198
 20
-53.80600104947414
 30
0.0
 11
-106.50709475261503
 21
-52.43433927500872
 31
0.0
  0
LINE
  5
DA
330
17
100
AcDbEntity
  8
0
100
AcDbLine
 10
-106.50709475261503
 20
-52.43433927500872
 30
0.0
 11
-107.64904901910421
 21
-51.05331225896166
 31
0.0
  0
LINE
  5
DB
330
17
100
AcDbEntity
  8
0
100
AcDbLine
 10
-107.64904901910421
 20
-51.05331225896166
 30
0.0
 11
-108.77839646706285
 21
-49.66308851857536
 31
0.0
  0
LINE
  5
DC
330
17
100
AcDbEntity
  8
0
100
AcDbLine
 10
-108.77839646706285
 20
-49.66308851857536
 30
0.0
 11
-109.89502646941489
 21
-48.263838358852965
 31
0.0
  0
LINE
  5
DD
330
17
100
AcDbEntity
  8
0
100
AcDbLine
 10
-109.89502646941489
 20
-48.263838358852965
 30
0.0
 11
-110.99883149295245
 21
-46.855733804123716
 31
0.0
  0
LINE
  5
DE
330
17
100
AcDbEntity
  8
0
100
AcDbLine
 10
-110.99883149295245
 20
-46.855733804123716
 30
0.0
 11
-112.08970713123198
 21
-45.438948528831595
 31
0.0
  0
LINE
  5
DF
330
17
100
AcDbEntity
  8
0
100
AcDbLine
 10
-112.08970713123198
 20
-45.438948528831595
 30
0.0
 11
-113.16755213559911
 21
-44.01365778760412
 31
0.0
  0
LINE
  5
E0
330
17
100
AcDbEntity
  8
0
100
AcDbLine
 10
-113.16755213559911
 20
-44.01365778760412
 30
0.0
 11
-114.23226844432462
 21
-42.58003834466012
 31
0.0
  0
LINE
  5
E1
330
17
100
AcDbEntity
  8
0
100
AcDbLine
 10
-114.23226844432462
 20
-42.58003834466012
 30
0.0
 11
-115.28376120983634
 21
-41.13826840261436
 31
0.0
  0
LINE
  5
E2
330
17
100
AcDbEntity
  8
0
100
AcDbLine
 10
-115.28376120983634
 20
-41.13826840261436
 30
0.0
 11
-116.3219388240336
 21
-39.688527530738114
 31
0.0
  0
LINE
  5
E3
330
17
100
AcDbEntity
  8
0
100
AcDbLine
 10
-116.3219388240336
 20
-39.688527530738114
 30
0.0
 11
-117.346712941672
 21
-38.23099659273512
 31
0.0
  0
LINE
  5
E4
330
17
100
AcDbEntity
  8
0
100
AcDbLine
 10
-117.346712941672
 20
-38.23099659273512
 30
0.0
 11
-118.3579985018111
 21
-36.76585767409099
 31
0.0
  0
LINE
  5
E5
330
17
100
AcDbEntity
  8
0
100
AcDbLine
 10
-118.3579985018111
 20
-36.76585767409099
 30
0.0
 11
-119.35571374731532
 21
-35.29329400905816
 31
0.0
  0
LINE
  5
E6
330
17
100
AcDbEntity
  8
0
100
AcDbLine
 10
-119.35571374731532
 20
-35.29329400905816
 30
0.0
 11
-120.33978024240588
 21
-33.81348990733259
 31
0.0
  0
LINE
  5
E7
330
17
100
AcDbEntity
  8
0
100
AcDbLine
 10
-120.33978024240588
 20
-33.81348990733259
 30
0.0
 11
-121.3101228882583
 21
-32.32663068048398
 31
0.0
  0
LINE
  5
E8
330
17
100
AcDbEntity
  8
0
100
AcDbLine
 10
-121.3101228882583
 20
-32.32663068048398
 30
0.0
 11
-122.26666993664621
 21
-30.832902568197802
 31
0.0
  0
LINE
  5
E9
330
17
100
AcDbEntity
  8
0
100
AcDbLine
 10
-122.26666993664621
 20
-30.832902568197802
 30
0.0
 11
-123.20935300163167
 21
-29.332492664388806
 31
0.0
  0
LINE
  5
EA
330
17
100
AcDbEntity
  8
0
100
AcDbLine
 10
-123.20935300163167
 20
-29.332492664388806
 30
0.0
 11
-124.13810706930569
 21
-27.825588843244162
 31
0.0
  0
LINE
  5
EB
330
17
100
AcDbEntity
  8
0
100
AcDbLine
 10
-124.13810706930569
 20
-27.825588843244162
 30
0.0
 11
-125.05287050558408
 21
-26.312379685255213
 31
0.0
  0
LINE
  5
EC
330
17
100
AcDbEntity
  8
0
100
AcDbLine
 10
-125.05287050558408
 20
-26.312379685255213
 30
0.0
 11
-125.95358506206524
 21
-24.79305440329569
 31
0.0
  0
LINE
  5
ED
330
17
100
AcDbEntity
  8
0
100
AcDbLine
 10
-125.95358506206524
 20
-24.79305440329569
 30
0.0
 11
-126.84019587996012
 21
-23.26780276880389
 31
0.0
  0
LINE
  5
EE
330
17
100
AcDbEntity
  8
0
100
AcDbLine
 10
-126.84019587996012
 20
-23.26780276880389
 30
0.0
 11
-127.71265149210451
 21
-21.73681503812567
 31
0.0
  0
LINE
  5
EF
330
17
100
AcDbEntity
  8
0
100
AcDbLine
 10
-127.71265149210451
 20
-21.73681503812567
 30
0.0
 11
-128.57090382306686
 21
-20.200281879074716
 31
0.0
  0
LINE
  5
F0
330
17
100
AcDbEntity
  8
0
100
AcDbLine
 10
-128.57090382306686
 20
-20.200281879074716
 30
0.0
 11
-129.4149081873667
 21
-18.65839429776565
 31
0.0
  0
LINE
  5
F1
330
17
100
AcDbEntity
  8
0
100
AcDbLine
 10
-129.4149081873667
 20
-18.65839429776565
 30
0.0
 11
-130.24462328582078
 21
-17.111343565773627
 31
0.0
  0
LINE
  5
F2
330
17
100
AcDbEntity
  8
0
100
AcDbLine
 10
-130.24462328582078
 20
-17.111343565773627
 30
0.0
 11
-131.0600112000332
 21
-15.559321147677908
 31
0.0
  0
LINE
  5
F3
330
17
100
AcDbEntity
  8
0
100
AcDbLine
 10
-131.0600112000332
 20
-15.559321147677908
 30
0.0
 11
-131.8610373850537
 21
-14.002518629035949
 31
0.0
  0
LINE
  5
F4
330
17
100
AcDbEntity
  8
0
100
AcDbLine
 10
-131.8610373850537
 20
-14.002518629035949
 30
0.0
 11
-132.64767066022168
 21
-12.441127644847652
 31
0.0
  0
LINE
  5
F5
330
17
100
AcDbEntity
  8
0
100
AcDbLine
 10
-132.64767066022168
 20
-12.441127644847652
 30
0.0
 11
-133.41988319822238
 21
-10.875339808554633
 31
0.0
  0
LINE
  5
F6
330
17
100
AcDbEntity
  8
0
100
AcDbLine
 10
-133.41988319822238
 20
-10.875339808554633
 30
0.0
 11
-134.1776505123795
 21
-9.305346641627736
 31
0.0
  0
LINE
  5
F7
330
17
100
AcDbEntity
  8
0
100
AcDbLine
 10
-134.1776505123795
 20
-9.305346641627736
 30
0.0
 11
-134.92095144221082
 21
-7.731339503790311
 31
0.0
  0
LINE
  5
F8
330
17
100
AcDbEntity
  8
0
100
AcDbLine
 10
-5.999999999999991
 20
-117.759267634412
 30
0.0
 11
-5.999999999999991
 21
-118.36109611263902
 31
0.0
  0
LINE
  5
F9
330
17
100
AcDbEntity
  8
0
100
AcDbLine
 10
-5.999999999999961
 20
117.759267634413
 30
0.0
 11
-5.999999999999961
 21
-117.759267634412
 31
0.0
  0
LINE
  5
FA
330
17
100
AcDbEntity
  8
0
100
AcDbLine
 10
-5.999999999999991
 20
118.36109611263899
 30
0.0
 11
-5.999999999999991
 21
117.75926763441299
 31
0.0
  0
LINE
  5
FB
330
17
100
AcDbEntity
  8
0
100
AcDbLine
 10
-5.9999999999999
 20
118.36109611263863
 30
0.0
 11
-7.623126932311045
 21
117.8758240590528
 31
0.0
  0
LINE
  5
FC
330
17
100
AcDbEntity
  8
0
100
AcDbLine
 10
-7.623126932311045
 20
117.8758240590528
 30
0.0
 11
-9.245514774927562
 21
117.37631629151936
 31
0.0
  0
LINE
  5
FD
330
17
100
AcDbEntity
  8
0
100
AcDbLine
 10
-9.245514774927562
 20
117.37631629151936
 30
0.0
 11
-10.866984555771133
 21
116.86253954120004
 31
0.0
  0
LINE
  5
FE
330
17
100
AcDbEntity
  8
0
100
AcDbLine
 10
-10.866984555771133
 20
116.86253954120004
 30
0.0
 11
-12.487356052534356
 21
116.33446334482318
 31
0.0
  0
LINE
  5
FF
330
17
100
AcDbEntity
  8
0
100
AcDbLine
 10
-12.487356052534356
 20
116.33446334482318
 30
0.0
 11
-14.106447844974495
 21
115.79206008382305
 31
0.0
  0
LINE
  5
100
330
17
100
AcDbEntity
  8
0
100
AcDbLine
 10
-14.106447844974495
 20
115.79206008382305
 30
0.0
 11
-15.724077368481417
 21
115.23530502240867
 31
0.0
  0
LINE
  5
101
330
17
100
AcDbEntity
  8
0
100
AcDbLine
 10
-15.724077368481417
 20
115.23530502240867
 30
0.0
 11
-17.340060968895784
 21
114.66417634451928
 31
0.0
  0
LINE
  5
102
330
17
100
AcDbEntity
  8
0
100
AcDbLine
 10
-17.340060968895784
 20
114.66417634451928
 30
0.0
 11
-18.95421395855327
 21
114.07865518962274
 31
0.0
  0
LINE
  5
103
330
17
100
AcDbEntity
  8
0
100
AcDbLine
 10
-18.95421395855327
 20
114.07865518962274
 30
0.0
 11
-20.56635067352896
 21
113.47872568731401
 31
0.0
  0
LINE
  5
104
330
17
100
AcDbEntity
  8
0
100
AcDbLine
 10
-20.56635067352896
 20
113.47872568731401
 30
0.0
 11
-22.176284532053096
 21
112.86437499067209
 31
0.0
  0
LINE
  5
105
330
17
100
AcDbEntity
  8
0
100
AcDbLine
 10
-22.176284532053096
 20
112.86437499067209
 30
0.0
 11
-23.783828094069968
 21
112.23559330833307
 31
0.0
  0
LINE
  5
106
330
17
100
AcDbEntity
  8
0
100
AcDbLine
 10
-23.783828094069968
 20
112.23559330833307
 30
0.0
 11
-25.38879312190776
 21
111.59237393523907
 31
0.0
  0
LINE
  5
107
330
17
100
AcDbEntity
  8
0
100
AcDbLine
 10
-25.38879312190776
 20
111.59237393523907
 30
0.0
 11
-26.990990642027203
 21
110.93471328202293
 31
0.0
  0
LINE
  5
108
330
17
100
AcDbEntity
  8
0
100
AcDbLine
 10
-26.990990642027203
 20
110.93471328202293
 30
0.0
 11
-28.590231007815238
 21
110.26261090298868
 31
0.0
  0
LINE
  5
109
330
17
100
AcDbEntity
  8
0
100
AcDbLine
 10
-28.590231007815238
 20
110.26261090298868
 30
0.0
 11
-30.1863239633869
 21
109.57606952265053
 31
0.0
  0
LINE
  5
10A
330
17
100
AcDbEntity
  8
0
100
AcDbLine
 10
-30.1863239633869
 20
109.57606952265053
 30
0.0
 11
-31.779078708359364
 21
108.87509506079206
 31
0.0
  0
LINE
  5
10B
330
17
100
AcDbEntity
  8
0
100
AcDbLine
 10
-31.779078708359364
 20
108.87509506079206
 30
0.0
 11
-33.368303963558105
 21
108.15969665600976
 31
0.0
  0
LINE
  5
10C
330
17
100
AcDbEntity
  8
0
100
AcDbLine
 10
-33.368303963558105
 20
108.15969665600976
 30
0.0
 11
-34.953808037616525
 21
107.42988668770515
 31
0.0
  0
LINE
  5
10D
330
17
100
AcDbEntity
  8
0
100
AcDbLine
 10
-34.953808037616525
 20
107.42988668770515
 30
0.0
 11
-36.53539889442527
 21
106.68568079649208
 31
0.0
  0
LINE
  5
10E
330
17
100
AcDbEntity
  8
0
100
AcDbLine
 10
-36.53539889442527
 20
106.68568079649208
 30
0.0
 11
-38.11288422139045
 21
105.92709790298535
 31
0.0
  0
LINE
  5
10F
330
17
100
AcDbEntity
  8
0
100
AcDbLine
 10
-38.11288422139045
 20
105.92709790298535
 30
0.0
 11
-39.68607149845449
 21
105.15416022493979
 31
0.0
  0
LINE
  5
110
330
17
100
AcDbEntity
  8
0
100
AcDbLine
 10
-39.68607149845449
 20
105.15416022493979
 30
0.0
 11
-41.25476806783531
 21
104.36689329270877
 31
0.0
  0
LINE
  5
111
330
17
100
AcDbEntity
  8
0
100
AcDbLine
 10
-41.25476806783531
 20
104.36689329270877
 30
0.0
 11
-42.81878120443506
 21
103.56532596299405
 31
0.0
  0
LINE
  5
112
330
17
100
AcDbEntity
  8
0
100
AcDbLine
 10
-42.81878120443506
 20
103.56532596299405
 30
0.0
 11
-44.377918186872165
 21
102.74949043085859
 31
0.0
  0
LINE
  5
113
330
17
100
AcDbEntity
  8
0
100
AcDbLine
 10
-44.377918186872165
 20
102.74949043085859
 30
0.0
 11
-45.931986369086
 21
101.91942223997668
 31
0.0
  0
LINE
  5
114
330
17
100
AcDbEntity
  8
0
100
AcDbLine
 10
-45.931986369086
 20
101.91942223997668
 30
0.0
 11
-47.480793252463315
 21
101.0751602910974
 31
0.0
  0
LINE
  5
115
330
17
100
AcDbEntity
  8
0
100
AcDbLine
 10
-47.480793252463315
 20
101.0751602910974
 30
0.0
 11
-49.02414655843593
 21
100.21674684869772
 31
0.0
  0
LINE
  5
116
330
17
100
AcDbEntity
  8
0
100
AcDbLine
 10
-49.02414655843593
 20
100.21674684869772
 30
0.0
 11
-50.56185430149653
 21
99.34422754580463
 31
0.0
  0
LINE
  5
117
330
17
100
AcDbEntity
  8
0
100
AcDbLine
 10
-50.56185430149653
 20
99.34422754580463
 30
0.0
 11
-52.09372486257791
 21
98.4576513869669
 31
0.0
  0
LINE
  5
118
330
17
100
AcDbEntity
  8
0
100
AcDbLine
 10
-52.09372486257791
 20
98.4576513869669
 30
0.0
 11
-53.61956706274303
 21
97.55707074935822
 31
0.0
  0
LINE
  5
119
330
17
100
AcDbEntity
  8
0
100
AcDbLine
 10
-53.61956706274303
 20
97.55707074935822
 30
0.0
 11
-55.13919023712887
 21
96.64254138199635
 31
0.0
  0
LINE
  5
11A
330
17
100
AcDbEntity
  8
0
100
AcDbLine
 10
-55.13919023712887
 20
96.64254138199635
 30
0.0
 11
-56.65240430908918
 21
95.7141224030636
 31
0.0
  0
LINE
  5
11B
330
17
100
AcDbEntity
  8
0
100
AcDbLine
 10
-56.65240430908918
 20
95.7141224030636
 30
0.0
 11
-58.15901986447785
 21
94.77187629531713
 31
0.0
  0
LINE
  5
11C
330
17
100
AcDbEntity
  8
0
100
AcDbLine
 10
-58.15901986447785
 20
94.77187629531713
 30
0.0
 11
-59.658848226017035
 21
93.81586889957808
 31
0.0
  0
LINE
  5
11D
330
17
100
AcDbEntity
  8
0
100
AcDbLine
 10
-59.658848226017035
 20
93.81586889957808
 30
0.0
 11
-61.15170152769121
 21
92.84616940629103
 31
0.0
  0
LINE
  5
11E
330
17
100
AcDbEntity
  8
0
100
AcDbLine
 10
-61.15170152769121
 20
92.84616940629103
 30
0.0
 11
-62.63739278910803
 21
91.8628503451485
 31
0.0
  0
LINE
  5
11F
330
17
100
AcDbEntity
  8
0
100
AcDbLine
 10
-62.63739278910803
 20
91.8628503451485
 30
0.0
 11
-64.11573598976841
 21
90.86598757277434
 31
0.0
  0
LINE
  5
120
330
17
100
AcDbEntity
  8
0
100
AcDbLine
 10
-64.11573598976841
 20
90.86598757277434
 30
0.0
 11
-65.5865461431855
 21
89.85566025846506
 31
0.0
  0
LINE
  5
121
330
17
100
AcDbEntity
  8
0
100
AcDbLine
 10
-65.5865461431855
 20
89.85566025846506
 30
0.0
 11
-67.04963937079388
 21
88.83195086798752
 31
0.0
  0
LINE
  5
122
330
17
100
AcDbEntity
  8
0
100
AcDbLine
 10
-67.04963937079388
 20
88.83195086798752
 30
0.0
 11
-68.50483297558783
 21
87.79494514543578
 31
0.0
  0
LINE
  5
123
330
17
100
AcDbEntity
  8
0
100
AcDbLine
 10
-68.50483297558783
 20
87.79494514543578
 30
0.0
 11
-69.95194551543086
 21
86.74473209314979
 31
0.0
  0
LINE
  5
124
330
17
100
AcDbEntity
  8
0
100
AcDbLine
 10
-69.95194551543086
 20
86.74473209314979
 30
0.0
 11
-71.39079687597535
 21
85.68140394970189
 31
0.0
  0
LINE
  5
125
330
17
100
AcDbEntity
  8
0
100
AcDbLine
 10
-71.39079687597535
 20
85.68140394970189
 30
0.0
 11
-72.82120834313251
 21
84.60505616595981
 31
0.0
  0
LINE
  5
126
330
17
100
AcDbEntity
  8
0
100
AcDbLine
 10
-72.82120834313251
 20
84.60505616595981
 30
0.0
 11
-74.2430026750338
 21
83.51578737923501
 31
0.0
  0
LINE
  5
127
330
17
100
AcDbEntity
  8
0
100
AcDbLine
 10
-74.2430026750338
 20
83.51578737923501
 30
0.0
 11
-75.65600417342417
 21
82.41369938552846
 31
0.0
  0
LINE
  5
128
330
17
100
AcDbEntity
  8
0
100
AcDbLine
 10
-75.65600417342417
 20
82.41369938552846
 30
0.0
 11
-77.0600387544273
 21
81.29889710988923
 31
0.0
  0
LINE
  5
129
330
17
100
AcDbEntity
  8
0
100
AcDbLine
 10
-77.0600387544273
 20
81.29889710988923
 30
0.0
 11
-78.45493401862534
 21
80.17148857490014
 31
0.0
  0
LINE
  5
12A
330
17
100
AcDbEntity
  8
0
100
AcDbLine
 10
-78.45493401862534
 20
80.17148857490014
 30
0.0
 11
-79.84051932039438
 21
79.03158486730986
 31
0.0
  0
LINE
  5
12B
330
17
100
AcDbEntity
  8
0
100
AcDbLine
 10
-79.84051932039438
 20
79.03158486730986
 30
0.0
 11
-81.2166258364374
 21
77.87930010283178
 31
0.0
  0
LINE
  5
12C
330
17
100
AcDbEntity
  8
0
100
AcDbLine
 10
-81.2166258364374
 20
77.87930010283178
 30
0.0
 11
-82.58308663345888
 21
76.71475138913102
 31
0.0
  0
LINE
  5
12D
330
17
100
AcDbEntity
  8
0
100
AcDbLine
 10
-82.58308663345888
 20
76.71475138913102
 30
0.0
 11
-83.93973673492384
 21
75.53805878702471
 31
0.0
  0
LINE
  5
12E
330
17
100
AcDbEntity
  8
0
100
AcDbLine
 10
-83.93973673492384
 20
75.53805878702471
 30
0.0
 11
-85.28641318684647
 21
74.34934526992096
 31
0.0
  0
LINE
  5
12F
330
17
100
AcDbEntity
  8
0
100
AcDbLine
 10
-85.28641318684647
 20
74.34934526992096
 30
0.0
 11
-86.62295512255254
 21
73.1487366815259
 31
0.0
  0
LINE
  5
130
330
17
100
AcDbEntity
  8
0
100
AcDbLine
 10
-86.62295512255254
 20
73.1487366815259
 30
0.0
 11
-87.94920382636356
 21
71.9363616918472
 31
0.0
  0
LINE
  5
131
330
17
100
AcDbEntity
  8
0
100
AcDbLine
 10
-87.94920382636356
 20
71.9363616918472
 30
0.0
 11
-89.26500279614905
 21
70.7123517515273
 31
0.0
  0
LINE
  5
132
330
17
100
AcDbEntity
  8
0
100
AcDbLine
 10
-89.26500279614905
 20
70.7123517515273
 30
0.0
 11
-90.57019780469476
 21
69.47684104454
 31
0.0
  0
LINE
  5
133
330
17
100
AcDbEntity
  8
0
100
AcDbLine
 10
-90.57019780469476
 20
69.47684104454
 30
0.0
 11
-91.86463695983812
 21
68.22996643928526
 31
0.0
  0
LINE
  5
134
330
17
100
AcDbEntity
  8
0
100
AcDbLine
 10
-91.86463695983812
 20
68.22996643928526
 30
0.0
 11
-93.14817076332037
 21
66.97186743812028
 31
0.0
  0
LINE
  5
135
330
17
100
AcDbEntity
  8
0
100
AcDbLine
 10
-93.14817076332037
 20
66.97186743812028
 30
0.0
 11
-94.42065216830812
 21
65.70268612536518
 31
0.0
  0
LINE
  5
136
330
17
100
AcDbEntity
  8
0
100
AcDbLine
 10
-94.42065216830812
 20
65.70268612536518
 30
0.0
 11
-95.68193663553754
 21
64.42256711382518
 31
0.0
  0
LINE
  5
137
330
17
100
AcDbEntity
  8
0
100
AcDbLine
 10
-95.68193663553754
 20
64.42256711382518
 30
0.0
 11
-96.93188218803671
 21
63.13165748987001
 31
0.0
  0
LINE
  5
138
330
17
100
AcDbEntity
  8
0
100
AcDbLine
 10
-96.93188218803671
 20
63.13165748987001
 30
0.0
 11
-98.17034946438251
 21
61.830106757114905
 31
0.0
  0
LINE
  5
139
330
17
100
AcDbEntity
  8
0
100
AcDbLine
 10
-98.17034946438251
 20
61.830106757114905
 30
0.0
 11
-99.3972017704492
 21
60.51806677874964
 31
0.0
  0
LINE
  5
13A
330
17
100
AcDbEntity
  8
0
100
AcDbLine
 10
-99.3972017704492
 20
60.51806677874964
 30
0.0
 11
-100.61230512960987
 21
59.195691718560155
 31
0.0
  0
LINE
  5
13B
330
17
100
AcDbEntity
  8
0
100
AcDbLine
 10
-100.61230512960987
 20
59.195691718560155
 30
0.0
 11
-101.81552833135088
 21
57.86313798069249
 31
0.0
  0
LINE
  5
13C
330
17
100
AcDbEntity
  8
0
100
AcDbLine
 10
-101.81552833135088
 20
57.86313798069249
 30
0.0
 11
-103.00674297826329
 21
56.52056414820735
 31
0.0
  0
LINE
  5
13D
330
17
100
AcDbEntity
  8
0
100
AcDbLine
 10
-103.00674297826329
 20
56.52056414820735
 30
0.0
 11
-104.18582353137508
 21
55.16813092047706
 31
0.0
  0
LINE
  5
13E
330
17
100
AcDbEntity
  8
0
100
AcDbLine
 10
-104.18582353137508
 20
55.16813092047706
 30
0.0
 11
-105.3526473537921
 21
53.80600104947443
 31
0.0
  0
LINE
  5
13F
330
17
100
AcDbEntity
  8
0
100
AcDbLine
 10
-105.3526473537921
 20
53.80600104947443
 30
0.0
 11
-106.50709475261513
 21
52.43433927500904
 31
0.0
  0
LINE
  5
140
330
17
100
AcDbEntity
  8
0
100
AcDbLine
 10
-106.50709475261513
 20
52.43433927500904
 30
0.0
 11
-107.64904901910434
 21
51.053312258961945
 31
0.0
  0
LINE
  5
141
330
17
100
AcDbEntity
  8
0
100
AcDbLine
 10
-107.64904901910434
 20
51.053312258961945
 30
0.0
 11
-108.77839646706293
 21
49.66308851857572
 31
0.0
  0
LINE
  5
142
330
17
100
AcDbEntity
  8
0
100
AcDbLine
 10
-108.77839646706293
 20
49.66308851857572
 30
0.0
 11
-109.89502646941497
 21
48.26383835885333
 31
0.0
  0
LINE
  5
143
330
17
100
AcDbEntity
  8
0
100
AcDbLine
 10
-109.89502646941497
 20
48.26383835885333
 30
0.0
 11
-110.99883149295255
 21
46.855733804124064
 31
0.0
  0
LINE
  5
144
330
17
100
AcDbEntity
  8
0
100
AcDbLine
 10
-110.99883149295255
 20
46.855733804124064
 30
0.0
 11
-112.08970713123205
 21
45.438948528832
 31
0.0
  0
LINE
  5
145
330
17
100
AcDbEntity
  8
0
100
AcDbLine
 10
-112.08970713123205
 20
45.438948528832
 30
0.0
 11
-113.16755213559918
 21
44.01365778760451
 31
0.0
  0
LINE
  5
146
330
17
100
AcDbEntity
  8
0
100
AcDbLine
 10
-113.16755213559918
 20
44.01365778760451
 30
0.0
 11
-114.23226844432467
 21
42.58003834466051
 31
0.0
  0
LINE
  5
147
330
17
100
AcDbEntity
  8
0
100
AcDbLine
 10
-114.23226844432467
 20
42.58003834466051
 30
0.0
 11
-115.28376120983647
 21
41.138268402614734
 31
0.0
  0
LINE
  5
148
330
17
100
AcDbEntity
  8
0
100
AcDbLine
 10
-115.28376120983647
 20
41.138268402614734
 30
0.0
 11
-116.32193882403365
 21
39.688527530738575
 31
0.0
  0
LINE
  5
149
330
17
100
AcDbEntity
  8
0
100
AcDbLine
 10
-116.32193882403365
 20
39.688527530738575
 30
0.0
 11
-117.3467129416722
 21
38.23099659273542
 31
0.0
  0
LINE
  5
14A
330
17
100
AcDbEntity
  8
0
100
AcDbLine
 10
-117.3467129416722
 20
38.23099659273542
 30
0.0
 11
-118.35799850181127
 21
36.765857674091265
 31
0.0
  0
LINE
  5
14B
330
17
100
AcDbEntity
  8
0
100
AcDbLine
 10
-118.35799850181127
 20
36.765857674091265
 30
0.0
 11
-119.35571374731546
 21
35.29329400905849
 31
0.0
  0
LINE
  5
14C
330
17
100
AcDbEntity
  8
0
100
AcDbLine
 10
-119.35571374731546
 20
35.29329400905849
 30
0.0
 11
-120.33978024240604
 21
33.81348990733292
 31
0.0
  0
LINE
  5
14D
330
17
100
AcDbEntity
  8
0
100
AcDbLine
 10
-120.33978024240604
 20
33.81348990733292
 30
0.0
 11
-121.31012288825848
 21
32.3266306804843
 31
0.0
  0
LINE
  5
14E
330
17
100
AcDbEntity
  8
0
100
AcDbLine
 10
-121.31012288825848
 20
32.3266306804843
 30
0.0
 11
-122.2666699366464
 21
30.832902568198094
 31
0.0
  0
LINE
  5
14F
330
17
100
AcDbEntity
  8
0
100
AcDbLine
 10
-122.2666699366464
 20
30.832902568198094
 30
0.0
 11
-123.20935300163178
 21
29.33249266438918
 31
0.0
  0
LINE
  5
150
330
17
100
AcDbEntity
  8
0
100
AcDbLine
 10
-123.20935300163178
 20
29.33249266438918
 30
0.0
 11
-124.13810706930585
 21
27.825588843244496
 31
0.0
  0
LINE
  5
151
330
17
100
AcDbEntity
  8
0
100
AcDbLine
 10
-124.13810706930585
 20
27.825588843244496
 30
0.0
 11
-125.05287050558418
 21
26.31237968525563
 31
0.0
  0
LINE
  5
152
330
17
100
AcDbEntity
  8
0
100
AcDbLine
 10
-125.05287050558418
 20
26.31237968525563
 30
0.0
 11
-125.95358506206532
 21
24.793054403296097
 31
0.0
  0
LINE
  5
153
330
17
100
AcDbEntity
  8
0
100
AcDbLine
 10
-125.95358506206532
 20
24.793054403296097
 30
0.0
 11
-126.84019587996025
 21
23.267802768804295
 31
0.0
  0
LINE
  5
154
330
17
100
AcDbEntity
  8
0
100
AcDbLine
 10
-126.84019587996025
 20
23.267802768804295
 30
0.0
 11
-127.71265149210463
 21
21.73681503812606
 31
0.0
  0
LINE
  5
155
330
17
100
AcDbEntity
  8
0
100
AcDbLine
 10
-127.71265149210463
 20
21.73681503812606
 30
0.0
 11
-128.57090382306697
 21
20.200281879075092
 31
0.0
  0
LINE
  5
156
330
17
100
AcDbEntity
  8
0
100
AcDbLine
 10
-128.57090382306697
 20
20.200281879075092
 30
0.0
 11
-129.4149081873669
 21
18.658394297765938
 31
0.0
  0
LINE
  5
157
330
17
100
AcDbEntity
  8
0
100
AcDbLine
 10
-129.4149081873669
 20
18.658394297765938
 30
0.0
 11
-130.2446232858209
 21
17.111343565774046
 31
0.0
  0
LINE
  5
158
330
17
100
AcDbEntity
  8
0
100
AcDbLine
 10
-130.2446232858209
 20
17.111343565774046
 30
0.0
 11
-131.06001120003333
 21
15.559321147678254
 31
0.0
  0
LINE
  5
159
330
17
100
AcDbEntity
  8
0
100
AcDbLine
 10
-131.06001120003333
 20
15.559321147678254
 30
0.0
 11
-131.8610373850539
 21
14.00251862903628
 31
0.0
  0
LINE
  5
15A
330
17
100
AcDbEntity
  8
0
100
AcDbLine
 10
-131.8610373850539
 20
14.00251862903628
 30
0.0
 11
-132.64767066022185
 21
12.441127644847924
 31
0.0
  0
LINE
  5
15B
330
17
100
AcDbEntity
  8
0
100
AcDbLine
 10
-132.64767066022185
 20
12.441127644847924
 30
0.0
 11
-133.41988319822255
 21
10.875339808554935
 31
0.0
  0
LINE
  5
15C
330
17
100
AcDbEntity
  8
0
100
AcDbLine
 10
-133.41988319822255
 20
10.875339808554935
 30
0.0
 11
-134.1776505123797
 21
9.30534664162801
 31
0.0
  0
LINE
  5
15D
330
17
100
AcDbEntity
  8
0
100
AcDbLine
 10
-134.1776505123797
 20
9.30534664162801
 30
0.0
 11
-134.92095144221094
 21
7.731339503790656
 31
0.0
  0
LINE
  5
15E
330
17
100
AcDbEntity
  8
0
100
AcDbLine
 10
-134.9209514422112
 20
7.731339503790749
 30
0.0
 11
-134.94172311854055
 21
7.686604908206194
 31
0.0
  0
LINE
  5
15F
330
17
100
AcDbEntity
  8
0
100
AcDbLine
 10
-134.94172311854055
 20
7.686604908206194
 30
0.0
 11
-134.9622940553288
 21
7.641777649319443
 31
0.0
  0
LINE
  5
160
330
17
100
AcDbEntity
  8
0
100
AcDbLine
 10
-134.9622940553288
 20
7.641777649319443
 30
0.0
 11
-134.98266383921296
 21
7.59685862791248
 31
0.0
  0
LINE
  5
161
330
17
100
AcDbEntity
  8
0
100
AcDbLine
 10
-134.98266383921296
 20
7.59685862791248
 30
0.0
 11
-135.00283206087207
 21
7.551848746611223
 31
0.0
  0
LINE
  5
162
330
17
100
AcDbEntity
  8
0
100
AcDbLine
 10
-135.00283206087207
 20
7.551848746611223
 30
0.0
 11
-135.02279831503557
 21
7.506748909867348
 31
0.0
  0
LINE
  5
163
330
17
100
AcDbEntity
  8
0
100
AcDbLine
 10
-135.02279831503557
 20
7.506748909867348
 30
0.0
 11
-135.0425622004913
 21
7.461560023940168
 31
0.0
  0
LINE
  5
164
330
17
100
AcDbEntity
  8
0
100
AcDbLine
 10
-135.0425622004913
 20
7.461560023940168
 30
0.0
 11
-135.06212332009352
 21
7.416282996878387
 31
0.0
  0
LINE
  5
165
330
17
100
AcDbEntity
  8
0
100
AcDbLine
 10
-135.06212332009352
 20
7.416282996878387
 30
0.0
 11
-135.08148128077107
 21
7.370918738501863
 31
0.0
  0
LINE
  5
166
330
17
100
AcDbEntity
  8
0
100
AcDbLine
 10
-135.08148128077107
 20
7.370918738501863
 30
0.0
 11
-135.10063569353514
 21
7.325468160383324
 31
0.0
  0
LINE
  5
167
330
17
100
AcDbEntity
  8
0
100
AcDbLine
 10
-135.10063569353514
 20
7.325468160383324
 30
0.0
 11
-135.11958617348714
 21
7.279932175830053
 31
0.0
  0
LINE
  5
168
330
17
100
AcDbEntity
  8
0
100
AcDbLine
 10
-135.11958617348714
 20
7.279932175830053
 30
0.0
 11
-135.13833233982632
 21
7.234311699865542
 31
0.0
  0
LINE
  5
169
330
17
100
AcDbEntity
  8
0
100
AcDbLine
 10
-135.13833233982632
 20
7.234311699865542
 30
0.0
 11
-135.1568738158576
 21
7.188607649211069
 31
0.0
  0
LINE
  5
16A
330
17
100
AcDbEntity
  8
0
100
AcDbLine
 10
-135.1568738158576
 20
7.188607649211069
 30
0.0
 11
-135.17521022899908
 21
7.142820942267332
 31
0.0
  0
LINE
  5
16B
330
17
100
AcDbEntity
  8
0
100
AcDbLine
 10
-135.17521022899908
 20
7.142820942267332
 30
0.0
 11
-135.19334121078938
 21
7.096952499095958
 31
0.0
  0
LINE
  5
16C
330
17
100
AcDbEntity
  8
0
100
AcDbLine
 10
-135.19334121078938
 20
7.096952499095958
 30
0.0
 11
-135.21126639689524
 21
7.051003241401026
 31
0.0
  0
LINE
  5
16D
330
17
100
AcDbEntity
  8
0
100
AcDbLine
 10
-135.21126639689524
 20
7.051003241401026
 30
0.0
 11
-135.2289854271188
 21
7.0049740925105395
 31
0.0
  0
LINE
  5
16E
330
17
100
AcDbEntity
  8
0
100
AcDbLine
 10
-135.2289854271188
 20
7.0049740925105395
 30
0.0
 11
-135.24649794540474
 21
6.958865977357881
 31
0.0
  0
LINE
  5
16F
330
17
100
AcDbEntity
  8
0
100
AcDbLine
 10
-135.24649794540474
 20
6.958865977357881
 30
0.0
 11
-135.2638035998475
 21
6.912679822463226
 31
0.0
  0
LINE
  5
170
330
17
100
AcDbEntity
  8
0
100
AcDbLine
 10
-135.2638035998475
 20
6.912679822463226
 30
0.0
 11
-135.28090204269836
 21
6.866416555914899
 31
0.0
  0
LINE
  5
171
330
17
100
AcDbEntity
  8
0
100
AcDbLine
 10
-135.28090204269836
 20
6.866416555914899
 30
0.0
 11
-135.29779293037242
 21
6.820077107350768
 31
0.0
  0
LINE
  5
172
330
17
100
AcDbEntity
  8
0
100
AcDbLine
 10
-135.29779293037242
 20
6.820077107350768
 30
0.0
 11
-135.31447592345555
 21
6.7736624079395344
 31
0.0
  0
LINE
  5
173
330
17
100
AcDbEntity
  8
0
100
AcDbLine
 10
-135.31447592345555
 20
6.7736624079395344
 30
0.0
 11
-135.33095068671102
 21
6.727173390362031
 31
0.0
  0
LINE
  5
174
330
17
100
AcDbEntity
  8
0
100
AcDbLine
 10
-135.33095068671102
 20
6.727173390362031
 30
0.0
 11
-135.34721688908655
 21
6.680610988792475
 31
0.0
  0
LINE
  5
175
330
17
100
AcDbEntity
  8
0
100
AcDbLine
 10
-135.34721688908655
 20
6.680610988792475
 30
0.0
 11
-135.36327420372066
 21
6.633976138879701
 31
0.0
  0
LINE
  5
176
330
17
100
AcDbEntity
  8
0
100
AcDbLine
 10
-135.36327420372066
 20
6.633976138879701
 30
0.0
 11
-135.37912230794942
 21
6.587269777728364
 31
0.0
  0
LINE
  5
177
330
17
100
AcDbEntity
  8
0
100
AcDbLine
 10
-135.37912230794942
 20
6.587269777728364
 30
0.0
 11
-135.3947608833129
 21
6.540492843880081
 31
0.0
  0
LINE
  5
178
330
17
100
AcDbEntity
  8
0
100
AcDbLine
 10
-135.3947608833129
 20
6.540492843880081
 30
0.0
 11
-135.4101896155615
 21
6.493646277294615
 31
0.0
  0
LINE
  5
179
330
17
100
AcDbEntity
  8
0
100
AcDbLine
 10
-135.4101896155615
 20
6.493646277294615
 30
0.0
 11
-135.4254081946624
 21
6.446731019330956
 31
0.0
  0
LINE
  5
17A
330
17
100
AcDbEntity
  8
0
100
AcDbLine
 10
-135.4254081946624
 20
6.446731019330956
 30
0.0
 11
-135.44041631480556
 21
6.39974801272842
 31
0.0
  0
LINE
  5
17B
330
17
100
AcDbEntity
  8
0
100
AcDbLine
 10
-135.44041631480556
 20
6.39974801272842
 30
0.0
 11
-135.45521367441015
 21
6.352698201587689
 31
0.0
  0
LINE
  5
17C
330
17
100
AcDbEntity
  8
0
100
AcDbLine
 10
-135.45521367441015
 20
6.352698201587689
 30
0.0
 11
-135.46979997613042
 21
6.305582531351861
 31
0.0
  0
LINE
  5
17D
330
17
100
AcDbEntity
  8
0
100
AcDbLine
 10
-135.46979997613042
 20
6.305582531351861
 30
0.0
 11
-135.4841749268617
 21
6.258401948787432
 31
0.0
  0
LINE
  5
17E
330
17
100
AcDbEntity
  8
0
100
AcDbLine
 10
-135.4841749268617
 20
6.258401948787432
 30
0.0
 11
-135.49833823774637
 21
6.211157401965293
 31
0.0
  0
LINE
  5
17F
330
17
100
AcDbEntity
  8
0
100
AcDbLine
 10
-135.49833823774637
 20
6.211157401965293
 30
0.0
 11
-135.51228962417954
 21
6.163849840241634
 31
0.0
  0
LINE
  5
180
330
17
100
AcDbEntity
  8
0
100
AcDbLine
 10
-135.51228962417954
 20
6.163849840241634
 30
0.0
 11
-135.52602880581495
 21
6.116480214238933
 31
0.0
  0
LINE
  5
181
330
17
100
AcDbEntity
  8
0
100
AcDbLine
 10
-135.52602880581495
 20
6.116480214238933
 30
0.0
 11
-135.53955550657034
 21
6.069049475826805
 31
0.0
  0
LINE
  5
182
330
17
100
AcDbEntity
  8
0
100
AcDbLine
 10
-135.53955550657034
 20
6.069049475826805
 30
0.0
 11
-135.55286945463328
 21
6.0215585781028915
 31
0.0
  0
LINE
  5
183
330
17
100
AcDbEntity
  8
0
100
AcDbLine
 10
-135.55286945463328
 20
6.0215585781028915
 30
0.0
 11
-135.56597038246645
 21
5.974008475373704
 31
0.0
  0
LINE
  5
184
330
17
100
AcDbEntity
  8
0
100
AcDbLine
 10
-135.56597038246645
 20
5.974008475373704
 30
0.0
 11
-135.57885802681304
 21
5.926400123135463
 31
0.0
  0
LINE
  5
185
330
17
100
AcDbEntity
  8
0
100
AcDbLine
 10
-135.57885802681304
 20
5.926400123135463
 30
0.0
 11
-135.59153212870214
 21
5.878734478054851
 31
0.0
  0
LINE
  5
186
330
17
100
AcDbEntity
  8
0
100
AcDbLine
 10
-135.59153212870214
 20
5.878734478054851
 30
0.0
 11
-135.60399243345378
 21
5.831012497949857
 31
0.0
  0
LINE
  5
187
330
17
100
AcDbEntity
  8
0
100
AcDbLine
 10
-135.60399243345378
 20
5.831012497949857
 30
0.0
 11
-135.61623869068427
 21
5.783235141770479
 31
0.0
  0
LINE
  5
188
330
17
100
AcDbEntity
  8
0
100
AcDbLine
 10
-135.61623869068427
 20
5.783235141770479
 30
0.0
 11
-135.62827065431094
 21
5.735403369579474
 31
0.0
  0
LINE
  5
189
330
17
100
AcDbEntity
  8
0
100
AcDbLine
 10
-135.62827065431094
 20
5.735403369579474
 30
0.0
 11
-135.64008808255738
 21
5.687518142533063
 31
0.0
  0
LINE
  5
18A
330
17
100
AcDbEntity
  8
0
100
AcDbLine
 10
-135.64008808255738
 20
5.687518142533063
 30
0.0
 11
-135.6516907379581
 21
5.639580422861616
 31
0.0
  0
LINE
  5
18B
330
17
100
AcDbEntity
  8
0
100
AcDbLine
 10
-135.6516907379581
 20
5.639580422861616
 30
0.0
 11
-135.66307838736336
 21
5.591591173850313
 31
0.0
  0
LINE
  5
18C
330
17
100
AcDbEntity
  8
0
100
AcDbLine
 10
-135.66307838736336
 20
5.591591173850313
 30
0.0
 11
-135.67425080194388
 21
5.543551359819806
 31
0.0
  0
LINE
  5
18D
330
17
100
AcDbEntity
  8
0
100
AcDbLine
 10
-135.67425080194388
 20
5.543551359819806
 30
0.0
 11
-135.68520775719543
 21
5.4954619461067935
 31
0.0
  0
LINE
  5
18E
330
17
100
AcDbEntity
  8
0
100
AcDbLine
 10
-135.68520775719543
 20
5.4954619461067935
 30
0.0
 11
-135.69594903294333
 21
5.447323899044687
 31
0.0
  0
LINE
  5
18F
330
17
100
AcDbEntity
  8
0
100
AcDbLine
 10
-135.69594903294333
 20
5.447323899044687
 30
0.0
 11
-135.70647441334685
 21
5.39913818594415
 31
0.0
  0
LINE
  5
190
330
17
100
AcDbEntity
  8
0
100
AcDbLine
 10
-135.70647441334685
 20
5.39913818594415
 30
0.0
 11
-135.71678368690357
 21
5.350905775073674
 31
0.0
  0
LINE
  5
191
330
17
100
AcDbEntity
  8
0
100
AcDbLine
 10
-135.71678368690357
 20
5.350905775073674
 30
0.0
 11
-135.72687664645366
 21
5.302627635640117
 31
0.0
  0
LINE
  5
192
330
17
100
AcDbEntity
  8
0
100
AcDbLine
 10
-135.72687664645366
 20
5.302627635640117
 30
0.0
 11
-135.73675308918402
 21
5.2543047377692425
 31
0.0
  0
LINE
  5
193
330
17
100
AcDbEntity
  8
0
100
AcDbLine
 10
-135.73675308918402
 20
5.2543047377692425
 30
0.0
 11
-135.74641281663233
 21
5.205938052486182
 31
0.0
  0
LINE
  5
194
330
17
100
AcDbEntity
  8
0
100
AcDbLine
 10
-135.74641281663233
 20
5.205938052486182
 30
0.0
 11
-135.75585563469102
 21
5.157528551695984
 31
0.0
  0
LINE
  5
195
330
17
100
AcDbEntity
  8
0
100
AcDbLine
 10
-135.75585563469102
 20
5.157528551695984
 30
0.0
 11
-135.7650813536113
 21
5.109077208164043
 31
0.0
  0
LINE
  5
196
330
17
100
AcDbEntity
  8
0
100
AcDbLine
 10
-135.7650813536113
 20
5.109077208164043
 30
0.0
 11
-135.7740897880068
 21
5.060584995496565
 31
0.0
  0
LINE
  5
197
330
17
100
AcDbEntity
  8
0
100
AcDbLine
 10
-135.7740897880068
 20
5.060584995496565
 30
0.0
 11
-135.7828807568574
 21
5.012052888121
 31
0.0
  0
LINE
  5
198
330
17
100
AcDbEntity
  8
0
100
AcDbLine
 10
-135.7828807568574
 20
5.012052888121
 30
0.0
 11
-135.7914540835129
 21
4.963481861266461
 31
0.0
  0
LINE
  5
199
330
17
100
AcDbEntity
  8
0
100
AcDbLine
 10
-135.7914540835129
 20
4.963481861266461
 30
0.0
 11
-135.7998095956964
 21
4.914872890944133
 31
0.0
  0
LINE
  5
19A
330
17
100
AcDbEntity
  8
0
100
AcDbLine
 10
-135.7998095956964
 20
4.914872890944133
 30
0.0
 11
-135.807947125508
 21
4.866226953927663
 31
0.0
  0
LINE
  5
19B
330
17
100
AcDbEntity
  8
0
100
AcDbLine
 10
-135.807947125508
 20
4.866226953927663
 30
0.0
 11
-135.81586650942796
 21
4.817545027733499
 31
0.0
  0
LINE
  5
19C
330
17
100
AcDbEntity
  8
0
100
AcDbLine
 10
-135.81586650942796
 20
4.817545027733499
 30
0.0
 11
-135.82356758832015
 21
4.768828090601302
 31
0.0
  0
LINE
  5
19D
330
17
100
AcDbEntity
  8
0
100
AcDbLine
 10
-135.82356758832015
 20
4.768828090601302
 30
0.0
 11
-135.83105020743508
 21
4.72007712147425
 31
0.0
  0
LINE
  5
19E
330
17
100
AcDbEntity
  8
0
100
AcDbLine
 10
-135.83105020743508
 20
4.72007712147425
 30
0.0
 11
-135.83831421641318
 21
4.67129309997938
 31
0.0
  0
LINE
  5
19F
330
17
100
AcDbEntity
  8
0
100
AcDbLine
 10
-135.83831421641318
 20
4.67129309997938
 30
0.0
 11
-135.8453594692877
 21
4.622477006407896
 31
0.0
  0
LINE
  5
1A0
330
17
100
AcDbEntity
  8
0
100
AcDbLine
 10
-135.8453594692877
 20
4.622477006407896
 30
0.0
 11
-135.85218582448775
 21
4.573629821695482
 31
0.0
  0
LINE
  5
1A1
330
17
100
AcDbEntity
  8
0
100
AcDbLine
 10
-135.85218582448775
 20
4.573629821695482
 30
0.0
 11
-135.858793144841
 21
4.524752527402584
 31
0.0
  0
LINE
  5
1A2
330
17
100
AcDbEntity
  8
0
100
AcDbLine
 10
-135.858793144841
 20
4.524752527402584
 30
0.0
 11
-135.86518129757656
 21
4.475846105694664
 31
0.0
  0
LINE
  5
1A3
330
17
100
AcDbEntity
  8
0
100
AcDbLine
 10
-135.86518129757656
 20
4.475846105694664
 30
0.0
 11
-135.87135015432764
 21
4.42691153932251
 31
0.0
  0
LINE
  5
1A4
330
17
100
AcDbEntity
  8
0
100
AcDbLine
 10
-135.87135015432764
 20
4.42691153932251
 30
0.0
 11
-135.877299591134
 21
4.3779498116024556
 31
0.0
  0
LINE
  5
1A5
330
17
100
AcDbEntity
  8
0
100
AcDbLine
 10
-135.877299591134
 20
4.3779498116024556
 30
0.0
 11
-135.88302948844466
 21
4.328961906396627
 31
0.0
  0
LINE
  5
1A6
330
17
100
AcDbEntity
  8
0
100
AcDbLine
 10
-135.88302948844466
 20
4.328961906396627
 30
0.0
 11
-135.8885397311201
 21
4.279948808093176
 31
0.0
  0
LINE
  5
1A7
330
17
100
AcDbEntity
  8
0
100
AcDbLine
 10
-135.8885397311201
 20
4.279948808093176
 30
0.0
 11
-135.89383020843465
 21
4.230911501586496
 31
0.0
  0
LINE
  5
1A8
330
17
100
AcDbEntity
  8
0
100
AcDbLine
 10
-135.89383020843465
 20
4.230911501586496
 30
0.0
 11
-135.89890081407876
 21
4.181850972257442
 31
0.0
  0
LINE
  5
1A9
330
17
100
AcDbEntity
  8
0
100
AcDbLine
 10
-135.89890081407876
 20
4.181850972257442
 30
0.0
 11
-135.90375144616107
 21
4.132768205953494
 31
0.0
  0
LINE
  5
1AA
330
17
100
AcDbEntity
  8
0
100
AcDbLine
 10
-135.90375144616107
 20
4.132768205953494
 30
0.0
 11
-135.90838200721046
 21
4.0836641889689975
 31
0.0
  0
LINE
  5
1AB
330
17
100
AcDbEntity
  8
0
100
AcDbLine
 10
-135.90838200721046
 20
4.0836641889689975
 30
0.0
 11
-135.9127924041781
 21
4.034539908025316
 31
0.0
  0
LINE
  5
1AC
330
17
100
AcDbEntity
  8
0
100
AcDbLine
 10
-135.9127924041781
 20
4.034539908025316
 30
0.0
 11
-135.9169825484392
 21
3.985396350251002
 31
0.0
  0
LINE
  5
1AD
330
17
100
AcDbEntity
  8
0
100
AcDbLine
 10
-135.9169825484392
 20
3.985396350251002
 30
0.0
 11
-135.92095235579478
 21
3.9362345031619714
 31
0.0
  0
LINE
  5
1AE
330
17
100
AcDbEntity
  8
0
100
AcDbLine
 10
-135.92095235579478
 20
3.9362345031619714
 30
0.0
 11
-135.92470174647357
 21
3.887055354641651
 31
0.0
  0
LINE
  5
1AF
330
17
100
AcDbEntity
  8
0
100
AcDbLine
 10
-135.92470174647357
 20
3.887055354641651
 30
0.0
 11
-135.92823064513337
 21
3.837859892921143
 31
0.0
  0
LINE
  5
1B0
330
17
100
AcDbEntity
  8
0
100
AcDbLine
 10
-135.92823064513337
 20
3.837859892921143
 30
0.0
 11
-135.93153898086263
 21
3.788649106559327
 31
0.0
  0
LINE
  5
1B1
330
17
100
AcDbEntity
  8
0
100
AcDbLine
 10
-135.93153898086263
 20
3.788649106559327
 30
0.0
 11
-135.934626687182
 21
3.739423984423052
 31
0.0
  0
LINE
  5
1B2
330
17
100
AcDbEntity
  8
0
100
AcDbLine
 10
-135.934626687182
 20
3.739423984423052
 30
0.0
 11
-135.93749370204551
 21
3.690185515667227
 31
0.0
  0
LINE
  5
1B3
330
17
100
AcDbEntity
  8
0
100
AcDbLine
 10
-135.93749370204551
 20
3.690185515667227
 30
0.0
 11
-135.94013996784187
 21
3.6409346897149564
 31
0.0
  0
LINE
  5
1B4
330
17
100
AcDbEntity
  8
0
100
AcDbLine
 10
-135.94013996784187
 20
3.6409346897149564
 30
0.0
 11
-135.9425654313957
 21
3.5916724962376554
 31
0.0
  0
LINE
  5
1B5
330
17
100
AcDbEntity
  8
0
100
AcDbLine
 10
-135.9425654313957
 20
3.5916724962376554
 30
0.0
 11
-135.94477004396845
 21
3.5423999251351646
 31
0.0
  0
LINE
  5
1B6
330
17
100
AcDbEntity
  8
0
100
AcDbLine
 10
-135.94477004396845
 20
3.5423999251351646
 30
0.0
 11
-135.9467537612595
 21
3.4931179665158676
 31
0.0
  0
LINE
  5
1B7
330
17
100
AcDbEntity
  8
0
100
AcDbLine
 10
-135.9467537612595
 20
3.4931179665158676
 30
0.0
 11
-135.948516543407
 21
3.4438276106767556
 31
0.0
  0
LINE
  5
1B8
330
17
100
AcDbEntity
  8
0
100
AcDbLine
 10
-135.948516543407
 20
3.4438276106767556
 30
0.0
 11
-135.95005835498878
 21
3.3945298480835886
 31
0.0
  0
LINE
  5
1B9
330
17
100
AcDbEntity
  8
0
100
AcDbLine
 10
-135.95005835498878
 20
3.3945298480835886
 30
0.0
 11
-135.95137916502281
 21
3.3452256693509503
 31
0.0
  0
LINE
  5
1BA
330
17
100
AcDbEntity
  8
0
100
AcDbLine
 10
-135.95137916502281
 20
3.3452256693509503
 30
0.0
 11
-135.95247894696806
 21
3.2959160652223547
 31
0.0
  0
LINE
  5
1BB
330
17
100
AcDbEntity
  8
0
100
AcDbLine
 10
-135.95247894696806
 20
3.2959160652223547
 30
0.0
 11
-135.95335767872496
 21
3.246602026550337
 31
0.0
  0
LINE
  5
1BC
330
17
100
AcDbEntity
  8
0
100
AcDbLine
 10
-135.95335767872496
 20
3.246602026550337
 30
0.0
 11
-135.95401534263584
 21
3.19728454427654
 31
0.0
  0
LINE
  5
1BD
330
17
100
AcDbEntity
  8
0
100
AcDbLine
 10
-135.95401534263584
 20
3.19728454427654
 30
0.0
 11
-135.95445192548524
 21
3.1479646094118166
 31
0.0
  0
LINE
  5
1BE
330
17
100
AcDbEntity
  8
0
100
AcDbLine
 10
-135.95445192548524
 20
3.1479646094118166
 30
0.0
 11
-135.95466741850024
 21
3.098643213016272
 31
0.0
  0
LINE
  5
1BF
330
17
100
AcDbEntity
  8
0
100
AcDbLine
 10
-135.95466741850024
 20
3.098643213016272
 30
0.0
 11
-135.95466181735063
 21
3.0493213461794118
 31
0.0
  0
LINE
  5
1C0
330
17
100
AcDbEntity
  8
0
100
AcDbLine
 10
-135.95466181735063
 20
3.0493213461794118
 30
0.0
 11
-135.95443512214894
 21
3.0000000000001816
 31
0.0
  0
LINE
  5
1C1
330
17
100
AcDbEntity
  8
0
100
AcDbLine
 10
-15.999999999999961
 20
93.2642500177102
 30
0.0
 11
-15.999999999999961
 21
-93.2642500177098
 31
0.0
  0
LINE
  5
1C2
330
17
100
AcDbEntity
  8
0
100
AcDbLine
 10
-19.99999999999996
 20
-97.2642500177099
 30
0.0
 11
-19.936536144660728
 21
-97.26374652840539
 31
0.0
  0
LINE
  5
1C3
330
17
100
AcDbEntity
  8
0
100
AcDbLine
 10
-19.936536144660728
 20
-97.26374652840539
 30
0.0
 11
-19.873088266007688
 21
-97.26223618724264
 31
0.0
  0
LINE
  5
1C4
330
17
100
AcDbEntity
  8
0
100
AcDbLine
 10
-19.873088266007688
 20
-97.26223618724264
 30
0.0
 11
-19.80967233670499
 21
-97.25971937444193
 31
0.0
  0
LINE
  5
1C5
330
17
100
AcDbEntity
  8
0
100
AcDbLine
 10
-19.80967233670499
 20
-97.25971937444193
 30
0.0
 11
-19.7463043213737
 21
-97.25619672359744
 31
0.0
  0
LINE
  5
1C6
330
17
100
AcDbEntity
  8
0
100
AcDbLine
 10
-19.7463043213737
 20
-97.25619672359744
 30
0.0
 11
-19.683000172572804
 21
-97.25166912151766
 31
0.0
  0
LINE
  5
1C7
330
17
100
AcDbEntity
  8
0
100
AcDbLine
 10
-19.683000172572804
 20
-97.25166912151766
 30
0.0
 11
-19.619775826783226
 21
-97.24613770800224
 31
0.0
  0
LINE
  5
1C8
330
17
100
AcDbEntity
  8
0
100
AcDbLine
 10
-19.619775826783226
 20
-97.24613770800224
 30
0.0
 11
-19.55664720039591
 21
-97.23960387555492
 31
0.0
  0
LINE
  5
1C9
330
17
100
AcDbEntity
  8
0
100
AcDbLine
 10
-19.55664720039591
 20
-97.23960387555492
 30
0.0
 11
-19.493630185704955
 21
-97.23206926903308
 31
0.0
  0
LINE
  5
1CA
330
17
100
AcDbEntity
  8
0
100
AcDbLine
 10
-19.493630185704955
 20
-97.23206926903308
 30
0.0
 11
-19.430740646906813
 21
-97.22353578523362
 31
0.0
  0
LINE
  5
1CB
330
17
100
AcDbEntity
  8
0
100
AcDbLine
 10
-19.430740646906813
 20
-97.22353578523362
 30
0.0
 11
-19.36799441610655
 21
-97.21400557241547
 31
0.0
  0
LINE
  5
1CC
330
17
100
AcDbEntity
  8
0
100
AcDbLine
 10
-19.36799441610655
 20
-97.21400557241547
 30
0.0
 11
-19.30540728933223
 21
-97.20348102975873
 31
0.0
  0
LINE
  5
1CD
330
17
100
AcDbEntity
  8
0
100
AcDbLine
 10
-19.30540728933223
 20
-97.20348102975873
 30
0.0
 11
-19.242995022558308
 21
-97.19196480676072
 31
0.0
  0
LINE
  5
1CE
330
17
100
AcDbEntity
  8
0
100
AcDbLine
 10
-19.242995022558308
 20
-97.19196480676072
 30
0.0
 11
-19.180773327739185
 21
-97.17945980256901
 31
0.0
  0
LINE
  5
1CF
330
17
100
AcDbEntity
  8
0
100
AcDbLine
 10
-19.180773327739185
 20
-97.17945980256901
 30
0.0
 11
-19.118757868853784
 21
-97.16596916525152
 31
0.0
  0
LINE
  5
1D0
330
17
100
AcDbEntity
  8
0
100
AcDbLine
 10
-19.118757868853784
 20
-97.16596916525152
 30
0.0
 11
-19.05696425796224
 21
-97.15149629100407
 31
0.0
  0
LINE
  5
1D1
330
17
100
AcDbEntity
  8
0
100
AcDbLine
 10
-19.05696425796224
 20
-97.15149629100407
 30
0.0
 11
-18.99540805127563
 21
-97.13604482329532
 31
0.0
  0
LINE
  5
1D2
330
17
100
AcDbEntity
  8
0
100
AcDbLine
 10
-18.99540805127563
 20
-97.13604482329532
 30
0.0
 11
-18.934104745239804
 21
-97.11961865194966
 31
0.0
  0
LINE
  5
1D3
330
17
100
AcDbEntity
  8
0
100
AcDbLine
 10
-18.934104745239804
 20
-97.11961865194966
 30
0.0
 11
-18.873069772634224
 21
-97.10222191216788
 31
0.0
  0
LINE
  5
1D4
330
17
100
AcDbEntity
  8
0
100
AcDbLine
 10
-18.873069772634224
 20
-97.10222191216788
 30
0.0
 11
-18.812318498686842
 21
-97.08385898348618
 31
0.0
  0
LINE
  5
1D5
330
17
100
AcDbEntity
  8
0
100
AcDbLine
 10
-18.812318498686842
 20
-97.08385898348618
 30
0.0
 11
-18.751866217205993
 21
-97.06453448867367
 31
0.0
  0
LINE
  5
1D6
330
17
100
AcDbEntity
  8
0
100
AcDbLine
 10
-18.751866217205993
 20
-97.06453448867367
 30
0.0
 11
-18.691728146730256
 21
-97.04425329256857
 31
0.0
  0
LINE
  5
1D7
330
17
100
AcDbEntity
  8
0
100
AcDbLine
 10
-18.691728146730256
 20
-97.04425329256857
 30
0.0
 11
-18.631919426697266
 21
-97.02302050085352
 31
0.0
  0
LINE
  5
1D8
330
17
100
AcDbEntity
  8
0
100
AcDbLine
 10
-18.631919426697266
 20
-97.02302050085352
 30
0.0
 11
-18.57245511363245
 21
-97.00084145877031
 31
0.0
  0
LINE
  5
1D9
330
17
100
AcDbEntity
  8
0
100
AcDbLine
 10
-18.57245511363245
 20
-97.00084145877031
 30
0.0
 11
-18.513350177358628
 21
-96.97772174977418
 31
0.0
  0
LINE
  5
1DA
330
17
100
AcDbEntity
  8
0
100
AcDbLine
 10
-18.513350177358628
 20
-96.97772174977418
 30
0.0
 11
-18.454619497227423
 21
-96.95366719412822
 31
0.0
  0
LINE
  5
1DB
330
17
100
AcDbEntity
  8
0
100
AcDbLine
 10
-18.454619497227423
 20
-96.95366719412822
 30
0.0
 11
-18.396277858373484
 21
-96.92868384743817
 31
0.0
  0
LINE
  5
1DC
330
17
100
AcDbEntity
  8
0
100
AcDbLine
 10
-18.396277858373484
 20
-96.92868384743817
 30
0.0
 11
-18.33833994799239
 21
-96.90277799912796
 31
0.0
  0
LINE
  5
1DD
330
17
100
AcDbEntity
  8
0
100
AcDbLine
 10
-18.33833994799239
 20
-96.90277799912796
 30
0.0
 11
-18.28082035164325
 21
-96.87595617085637
 31
0.0
  0
LINE
  5
1DE
330
17
100
AcDbEntity
  8
0
100
AcDbLine
 10
-18.28082035164325
 20
-96.87595617085637
 30
0.0
 11
-18.22373354957684
 21
-96.84822511487523
 31
0.0
  0
LINE
  5
1DF
330
17
100
AcDbEntity
  8
0
100
AcDbLine
 10
-18.22373354957684
 20
-96.84822511487523
 30
0.0
 11
-18.16709391309029
 21
-96.81959181232958
 31
0.0
  0
LINE
  5
1E0
330
17
100
AcDbEntity
  8
0
100
AcDbLine
 10
-18.16709391309029
 20
-96.81959181232958
 30
0.0
 11
-18.110915700909203
 21
-96.79006347150022
 31
0.0
  0
LINE
  5
1E1
330
17
100
AcDbEntity
  8
0
100
AcDbLine
 10
-18.110915700909203
 20
-96.79006347150022
 30
0.0
 11
-18.055213055598056
 21
-96.75964752598902
 31
0.0
  0
LINE
  5
1E2
330
17
100
AcDbEntity
  8
0
100
AcDbLine
 10
-18.055213055598056
 20
-96.75964752598902
 30
0.0
 11
-17.999999999999932
 21
-96.72835163284763
 31
0.0
  0
LINE
  5
1E3
330
17
100
AcDbEntity
  8
0
100
AcDbLine
 10
-17.999999999999932
 20
-96.72835163284763
 30
0.0
 11
-17.945290433706308
 21
-96.69618367064979
 31
0.0
  0
LINE
  5
1E4
330
17
100
AcDbEntity
  8
0
100
AcDbLine
 10
-17.945290433706308
 20
-96.69618367064979
 30
0.0
 11
-17.89109812955792
 21
-96.66315173750793
 31
0.0
  0
LINE
  5
1E5
330
17
100
AcDbEntity
  8
0
100
AcDbLine
 10
-17.89109812955792
 20
-96.66315173750793
 30
0.0
 11
-17.83743673017754
 21
-96.6292641490346
 31
0.0
  0
LINE
  5
1E6
330
17
100
AcDbEntity
  8
0
100
AcDbLine
 10
-17.83743673017754
 20
-96.6292641490346
 30
0.0
 11
-17.784319744535487
 21
-96.59452943624896
 31
0.0
  0
LINE
  5
1E7
330
17
100
AcDbEntity
  8
0
100
AcDbLine
 10
-17.784319744535487
 20
-96.59452943624896
 30
0.0
 11
-17.731760544548845
 21
-96.5589563434292
 31
0.0
  0
LINE
  5
1E8
330
17
100
AcDbEntity
  8
0
100
AcDbLine
 10
-17.731760544548845
 20
-96.5589563434292
 30
0.0
 11
-17.679772361715138
 21
-96.52255382591122
 31
0.0
  0
LINE
  5
1E9
330
17
100
AcDbEntity
  8
0
100
AcDbLine
 10
-17.679772361715138
 20
-96.52255382591122
 30
0.0
 11
-17.628368283781366
 21
-96.48533104783411
 31
0.0
  0
LINE
  5
1EA
330
17
100
AcDbEntity
  8
0
100
AcDbLine
 10
-17.628368283781366
 20
-96.48533104783411
 30
0.0
 11
-17.57756125144926
 21
-96.4472973798332
 31
0.0
  0
LINE
  5
1EB
330
17
100
AcDbEntity
  8
0
100
AcDbLine
 10
-17.57756125144926
 20
-96.4472973798332
 30
0.0
 11
-17.527364055117506
 21
-96.40846239668102
 31
0.0
  0
LINE
  5
1EC
330
17
100
AcDbEntity
  8
0
100
AcDbLine
 10
-17.527364055117506
 20
-96.40846239668102
 30
0.0
 11
-17.47778933166184
 21
-96.3688358748769
 31
0.0
  0
LINE
  5
1ED
330
17
100
AcDbEntity
  8
0
100
AcDbLine
 10
-17.47778933166184
 20
-96.3688358748769
 30
0.0
 11
-17.42884956125377
 21
-96.32842779018578
 31
0.0
  0
LINE
  5
1EE
330
17
100
AcDbEntity
  8
0
100
AcDbLine
 10
-17.42884956125377
 20
-96.32842779018578
 30
0.0
 11
-17.380557064218788
 21
-96.2872483151269
 31
0.0
  0
LINE
  5
1EF
330
17
100
AcDbEntity
  8
0
100
AcDbLine
 10
-17.380557064218788
 20
-96.2872483151269
 30
0.0
 11
-17.33292399793476
 21
-96.24530781641289
 31
0.0
  0
LINE
  5
1F0
330
17
100
AcDbEntity
  8
0
100
AcDbLine
 10
-17.33292399793476
 20
-96.24530781641289
 30
0.0
 11
-17.2859623537714
 21
-96.20261685234
 31
0.0
  0
LINE
  5
1F1
330
17
100
AcDbEntity
  8
0
100
AcDbLine
 10
-17.2859623537714
 20
-96.20261685234
 30
0.0
 11
-17.239683954071477
 21
-96.15918617013014
 31
0.0
  0
LINE
  5
1F2
330
17
100
AcDbEntity
  8
0
100
AcDbLine
 10
-17.239683954071477
 20
-96.15918617013014
 30
0.0
 11
-17.19410044917464
 21
-96.11502670322531
 31
0.0
  0
LINE
  5
1F3
330
17
100
AcDbEntity
  8
0
100
AcDbLine
 10
-17.19410044917464
 20
-96.11502670322531
 30
0.0
 11
-17.149223314484473
 21
-96.07014956853514
 31
0.0
  0
LINE
  5
1F4
330
17
100
AcDbEntity
  8
0
100
AcDbLine
 10
-17.149223314484473
 20
-96.07014956853514
 30
0.0
 11
-17.105063847579647
 21
-96.0245660636383
 31
0.0
  0
LINE
  5
1F5
330
17
100
AcDbEntity
  8
0
100
AcDbLine
 10
-17.105063847579647
 20
-96.0245660636383
 30
0.0
 11
-17.06163316536979
 21
-95.97828766393839
 31
0.0
  0
LINE
  5
1F6
330
17
100
AcDbEntity
  8
0
100
AcDbLine
 10
-17.06163316536979
 20
-95.97828766393839
 30
0.0
 11
-17.018942201296905
 21
-95.93132601977503
 31
0.0
  0
LINE
  5
1F7
330
17
100
AcDbEntity
  8
0
100
AcDbLine
 10
-17.018942201296905
 20
-95.93132601977503
 30
0.0
 11
-16.977001702582893
 21
-95.88369295349099
 31
0.0
  0
LINE
  5
1F8
330
17
100
AcDbEntity
  8
0
100
AcDbLine
 10
-16.977001702582893
 20
-95.88369295349099
 30
0.0
 11
-16.935822227524014
 21
-95.83540045645601
 31
0.0
  0
LINE
  5
1F9
330
17
100
AcDbEntity
  8
0
100
AcDbLine
 10
-16.935822227524014
 20
-95.83540045645601
 30
0.0
 11
-16.895414142832898
 21
-95.78646068604795
 31
0.0
  0
LINE
  5
1FA
330
17
100
AcDbEntity
  8
0
100
AcDbLine
 10
-16.895414142832898
 20
-95.78646068604795
 30
0.0
 11
-16.855787621028774
 21
-95.73688596259227
 31
0.0
  0
LINE
  5
1FB
330
17
100
AcDbEntity
  8
0
100
AcDbLine
 10
-16.855787621028774
 20
-95.73688596259227
 30
0.0
 11
-16.816952637876597
 21
-95.68668876626052
 31
0.0
  0
LINE
  5
1FC
330
17
100
AcDbEntity
  8
0
100
AcDbLine
 10
-16.816952637876597
 20
-95.68668876626052
 30
0.0
 11
-16.778918969875694
 21
-95.63588173392841
 31
0.0
  0
LINE
  5
1FD
330
17
100
AcDbEntity
  8
0
100
AcDbLine
 10
-16.778918969875694
 20
-95.63588173392841
 30
0.0
 11
-16.741696191798585
 21
-95.58447765599465
 31
0.0
  0
LINE
  5
1FE
330
17
100
AcDbEntity
  8
0
100
AcDbLine
 10
-16.741696191798585
 20
-95.58447765599465
 30
0.0
 11
-16.705293674280597
 21
-95.53248947316094
 31
0.0
  0
LINE
  5
1FF
330
17
100
AcDbEntity
  8
0
100
AcDbLine
 10
-16.705293674280597
 20
-95.53248947316094
 30
0.0
 11
-16.66972058146084
 21
-95.47993027317429
 31
0.0
  0
LINE
  5
200
330
17
100
AcDbEntity
  8
0
100
AcDbLine
 10
-16.66972058146084
 20
-95.47993027317429
 30
0.0
 11
-16.6349858686752
 21
-95.42681328753224
 31
0.0
  0
LINE
  5
201
330
17
100
AcDbEntity
  8
0
100
AcDbLine
 10
-16.6349858686752
 20
-95.42681328753224
 30
0.0
 11
-16.60109828020187
 21
-95.37315188815185
 31
0.0
  0
LINE
  5
202
330
17
100
AcDbEntity
  8
0
100
AcDbLine
 10
-16.60109828020187
 20
-95.37315188815185
 30
0.0
 11
-16.568066347060018
 21
-95.31895958400347
 31
0.0
  0
LINE
  5
203
330
17
100
AcDbEntity
  8
0
100
AcDbLine
 10
-16.568066347060018
 20
-95.31895958400347
 30
0.0
 11
-16.535898384862172
 21
-95.26425001770984
 31
0.0
  0
LINE
  5
204
330
17
100
AcDbEntity
  8
0
100
AcDbLine
 10
-16.535898384862172
 20
-95.26425001770984
 30
0.0
 11
-16.50460249172079
 21
-95.20903696211171
 31
0.0
  0
LINE
  5
205
330
17
100
AcDbEntity
  8
0
100
AcDbLine
 10
-16.50460249172079
 20
-95.20903696211171
 30
0.0
 11
-16.4741865462096
 21
-95.15333431680057
 31
0.0
  0
LINE
  5
206
330
17
100
AcDbEntity
  8
0
100
AcDbLine
 10
-16.4741865462096
 20
-95.15333431680057
 30
0.0
 11
-16.444658205380236
 21
-95.09715610461947
 31
0.0
  0
LINE
  5
207
330
17
100
AcDbEntity
  8
0
100
AcDbLine
 10
-16.444658205380236
 20
-95.09715610461947
 30
0.0
 11
-16.416024902834586
 21
-95.04051646813294
 31
0.0
  0
LINE
  5
208
330
17
100
AcDbEntity
  8
0
100
AcDbLine
 10
-16.416024902834586
 20
-95.04051646813294
 30
0.0
 11
-16.388293846853447
 21
-94.98342966606651
 31
0.0
  0
LINE
  5
209
330
17
100
AcDbEntity
  8
0
100
AcDbLine
 10
-16.388293846853447
 20
-94.98342966606651
 30
0.0
 11
-16.361472018581857
 21
-94.92591006971737
 31
0.0
  0
LINE
  5
20A
330
17
100
AcDbEntity
  8
0
100
AcDbLine
 10
-16.361472018581857
 20
-94.92591006971737
 30
0.0
 11
-16.335566170271655
 21
-94.86797215933629
 31
0.0
  0
LINE
  5
20B
330
17
100
AcDbEntity
  8
0
100
AcDbLine
 10
-16.335566170271655
 20
-94.86797215933629
 30
0.0
 11
-16.31058282358161
 21
-94.80963052048234
 31
0.0
  0
LINE
  5
20C
330
17
100
AcDbEntity
  8
0
100
AcDbLine
 10
-16.31058282358161
 20
-94.80963052048234
 30
0.0
 11
-16.286528267935644
 21
-94.75089984035114
 31
0.0
  0
LINE
  5
20D
330
17
100
AcDbEntity
  8
0
100
AcDbLine
 10
-16.286528267935644
 20
-94.75089984035114
 30
0.0
 11
-16.263408558939506
 21
-94.69179490407731
 31
0.0
  0
LINE
  5
20E
330
17
100
AcDbEntity
  8
0
100
AcDbLine
 10
-16.263408558939506
 20
-94.69179490407731
 30
0.0
 11
-16.2412295168563
 21
-94.6323305910125
 31
0.0
  0
LINE
  5
20F
330
17
100
AcDbEntity
  8
0
100
AcDbLine
 10
-16.2412295168563
 20
-94.6323305910125
 30
0.0
 11
-16.21999672514126
 21
-94.57252187097951
 31
0.0
  0
LINE
  5
210
330
17
100
AcDbEntity
  8
0
100
AcDbLine
 10
-16.21999672514126
 20
-94.57252187097951
 30
0.0
 11
-16.199715529036155
 21
-94.51238380050377
 31
0.0
  0
LINE
  5
211
330
17
100
AcDbEntity
  8
0
100
AcDbLine
 10
-16.199715529036155
 20
-94.51238380050377
 30
0.0
 11
-16.180391034223643
 21
-94.45193151902292
 31
0.0
  0
LINE
  5
212
330
17
100
AcDbEntity
  8
0
100
AcDbLine
 10
-16.180391034223643
 20
-94.45193151902292
 30
0.0
 11
-16.16202810554195
 21
-94.39118024507553
 31
0.0
  0
LINE
  5
213
330
17
100
AcDbEntity
  8
0
100
AcDbLine
 10
-16.16202810554195
 20
-94.39118024507553
 30
0.0
 11
-16.144631365760173
 21
-94.33014527246996
 31
0.0
  0
LINE
  5
214
330
17
100
AcDbEntity
  8
0
100
AcDbLine
 10
-16.144631365760173
 20
-94.33014527246996
 30
0.0
 11
-16.128205194414516
 21
-94.26884196643414
 31
0.0
  0
LINE
  5
215
330
17
100
AcDbEntity
  8
0
100
AcDbLine
 10
-16.128205194414516
 20
-94.26884196643414
 30
0.0
 11
-16.112753726705773
 21
-94.20728575974752
 31
0.0
  0
LINE
  5
216
330
17
100
AcDbEntity
  8
0
100
AcDbLine
 10
-16.112753726705773
 20
-94.20728575974752
 30
0.0
 11
-16.098280852458313
 21
-94.14549214885598
 31
0.0
  0
LINE
  5
217
330
17
100
AcDbEntity
  8
0
100
AcDbLine
 10
-16.098280852458313
 20
-94.14549214885598
 30
0.0
 11
-16.084790215140828
 21
-94.08347668997058
 31
0.0
  0
LINE
  5
218
330
17
100
AcDbEntity
  8
0
100
AcDbLine
 10
-16.084790215140828
 20
-94.08347668997058
 30
0.0
 11
-16.07228521094912
 21
-94.02125499515145
 31
0.0
  0
LINE
  5
219
330
17
100
AcDbEntity
  8
0
100
AcDbLine
 10
-16.07228521094912
 20
-94.02125499515145
 30
0.0
 11
-16.060768987951114
 21
-93.95884272837753
 31
0.0
  0
LINE
  5
21A
330
17
100
AcDbEntity
  8
0
100
AcDbLine
 10
-16.060768987951114
 20
-93.95884272837753
 30
0.0
 11
-16.05024444529437
 21
-93.89625560160322
 31
0.0
  0
LINE
  5
21B
330
17
100
AcDbEntity
  8
0
100
AcDbLine
 10
-16.05024444529437
 20
-93.89625560160322
 30
0.0
 11
-16.040714232476216
 21
-93.83350937080294
 31
0.0
  0
LINE
  5
21C
330
17
100
AcDbEntity
  8
0
100
AcDbLine
 10
-16.040714232476216
 20
-93.83350937080294
 30
0.0
 11
-16.03218074867677
 21
-93.7706198320048
 31
0.0
  0
LINE
  5
21D
330
17
100
AcDbEntity
  8
0
100
AcDbLine
 10
-16.03218074867677
 20
-93.7706198320048
 30
0.0
 11
-16.024646142154936
 21
-93.70760281731386
 31
0.0
  0
LINE
  5
21E
330
17
100
AcDbEntity
  8
0
100
AcDbLine
 10
-16.024646142154936
 20
-93.70760281731386
 30
0.0
 11
-16.018112309707615
 21
-93.64447419092653
 31
0.0
  0
LINE
  5
21F
330
17
100
AcDbEntity
  8
0
100
AcDbLine
 10
-16.018112309707615
 20
-93.64447419092653
 30
0.0
 11
-16.012580896192183
 21
-93.58124984513695
 31
0.0
  0
LINE
  5
220
330
17
100
AcDbEntity
  8
0
100
AcDbLine
 10
-16.012580896192183
 20
-93.58124984513695
 30
0.0
 11
-16.00805329411242
 21
-93.51794569633606
 31
0.0
  0
LINE
  5
221
330
17
100
AcDbEntity
  8
0
100
AcDbLine
 10
-16.00805329411242
 20
-93.51794569633606
 30
0.0
 11
-16.004530643267923
 21
-93.45457768100476
 31
0.0
  0
LINE
  5
222
330
17
100
AcDbEntity
  8
0
100
AcDbLine
 10
-16.004530643267923
 20
-93.45457768100476
 30
0.0
 11
-16.002013830467217
 21
-93.39116175170207
 31
0.0
  0
LINE
  5
223
330
17
100
AcDbEntity
  8
0
100
AcDbLine
 10
-16.002013830467217
 20
-93.39116175170207
 30
0.0
 11
-16.00050348930446
 21
-93.32771387304903
 31
0.0
  0
LINE
  5
224
330
17
100
AcDbEntity
  8
0
100
AcDbLine
 10
-16.00050348930446
 20
-93.32771387304903
 30
0.0
 11
-15.999999999999961
 21
-93.2642500177098
 31
0.0
  0
LINE
  5
225
330
17
100
AcDbEntity
  8
0
100
AcDbLine
 10
-21.54073300074717
 20
-96.95561044720043
 30
0.0
 11
-21.525977443063645
 21
-96.96173468208119
 31
0.0
  0
LINE
  5
226
330
17
100
AcDbEntity
  8
0
100
AcDbLine
 10
-21.525977443063645
 20
-96.96173468208119
 30
0.0
 11
-21.51119754291781
 21
-96.96779993451662
 31
0.0
  0
LINE
  5
227
330
17
100
AcDbEntity
  8
0
100
AcDbLine
 10
-21.51119754291781
 20
-96.96779993451662
 30
0.0
 11
-21.496393536079303
 21
-96.97380610775355
 31
0.0
  0
LINE
  5
228
330
17
100
AcDbEntity
  8
0
100
AcDbLine
 10
-21.496393536079303
 20
-96.97380610775355
 30
0.0
 11
-21.481565658702337
 21
-96.97975310598123
 31
0.0
  0
LINE
  5
229
330
17
100
AcDbEntity
  8
0
100
AcDbLine
 10
-21.481565658702337
 20
-96.97975310598123
 30
0.0
 11
-21.466714147321877
 21
-96.98564083433287
 31
0.0
  0
LINE
  5
22A
330
17
100
AcDbEntity
  8
0
100
AcDbLine
 10
-21.466714147321877
 20
-96.98564083433287
 30
0.0
 11
-21.451839238849924
 21
-96.99146919888715
 31
0.0
  0
LINE
  5
22B
330
17
100
AcDbEntity
  8
0
100
AcDbLine
 10
-21.451839238849924
 20
-96.99146919888715
 30
0.0
 11
-21.436941170571703
 21
-96.99723810666973
 31
0.0
  0
LINE
  5
22C
330
17
100
AcDbEntity
  8
0
100
AcDbLine
 10
-21.436941170571703
 20
-96.99723810666973
 30
0.0
 11
-21.422020180141878
 21
-97.00294746565473
 31
0.0
  0
LINE
  5
22D
330
17
100
AcDbEntity
  8
0
100
AcDbLine
 10
-21.422020180141878
 20
-97.00294746565473
 30
0.0
 11
-21.40707650558078
 21
-97.00859718476619
 31
0.0
  0
LINE
  5
22E
330
17
100
AcDbEntity
  8
0
100
AcDbLine
 10
-21.40707650558078
 20
-97.00859718476619
 30
0.0
 11
-21.392110385270588
 21
-97.01418717387953
 31
0.0
  0
LINE
  5
22F
330
17
100
AcDbEntity
  8
0
100
AcDbLine
 10
-21.392110385270588
 20
-97.01418717387953
 30
0.0
 11
-21.377122057951542
 21
-97.01971734382302
 31
0.0
  0
LINE
  5
230
330
17
100
AcDbEntity
  8
0
100
AcDbLine
 10
-21.377122057951542
 20
-97.01971734382302
 30
0.0
 11
-21.362111762718133
 21
-97.02518760637908
 31
0.0
  0
LINE
  5
231
330
17
100
AcDbEntity
  8
0
100
AcDbLine
 10
-21.362111762718133
 20
-97.02518760637908
 30
0.0
 11
-21.347079739015275
 21
-97.03059787428587
 31
0.0
  0
LINE
  5
232
330
17
100
AcDbEntity
  8
0
100
AcDbLine
 10
-21.347079739015275
 20
-97.03059787428587
 30
0.0
 11
-21.3320262266345
 21
-97.03594806123854
 31
0.0
  0
LINE
  5
233
330
17
100
AcDbEntity
  8
0
100
AcDbLine
 10
-21.3320262266345
 20
-97.03594806123854
 30
0.0
 11
-21.316951465710137
 21
-97.04123808189064
 31
0.0
  0
LINE
  5
234
330
17
100
AcDbEntity
  8
0
100
AcDbLine
 10
-21.316951465710137
 20
-97.04123808189064
 30
0.0
 11
-21.301855696715457
 21
-97.04646785185555
 31
0.0
  0
LINE
  5
235
330
17
100
AcDbEntity
  8
0
100
AcDbLine
 10
-21.301855696715457
 20
-97.04646785185555
 30
0.0
 11
-21.28673916045887
 21
-97.05163728770772
 31
0.0
  0
LINE
  5
236
330
17
100
AcDbEntity
  8
0
100
AcDbLine
 10
-21.28673916045887
 20
-97.05163728770772
 30
0.0
 11
-21.271602098080045
 21
-97.05674630698407
 31
0.0
  0
LINE
  5
237
330
17
100
AcDbEntity
  8
0
100
AcDbLine
 10
-21.271602098080045
 20
-97.05674630698407
 30
0.0
 11
-21.256444751046104
 21
-97.0617948281853
 31
0.0
  0
LINE
  5
238
330
17
100
AcDbEntity
  8
0
100
AcDbLine
 10
-21.256444751046104
 20
-97.0617948281853
 30
0.0
 11
-21.241267361147745
 21
-97.06678277077715
 31
0.0
  0
LINE
  5
239
330
17
100
AcDbEntity
  8
0
100
AcDbLine
 10
-21.241267361147745
 20
-97.06678277077715
 30
0.0
 11
-21.226070170495387
 21
-97.07171005519176
 31
0.0
  0
LINE
  5
23A
330
17
100
AcDbEntity
  8
0
100
AcDbLine
 10
-21.226070170495387
 20
-97.07171005519176
 30
0.0
 11
-21.210853421515313
 21
-97.07657660282882
 31
0.0
  0
LINE
  5
23B
330
17
100
AcDbEntity
  8
0
100
AcDbLine
 10
-21.210853421515313
 20
-97.07657660282882
 30
0.0
 11
-21.195617356945803
 21
-97.08138233605699
 31
0.0
  0
LINE
  5
23C
330
17
100
AcDbEntity
  8
0
100
AcDbLine
 10
-21.195617356945803
 20
-97.08138233605699
 30
0.0
 11
-21.18036221983326
 21
-97.08612717821495
 31
0.0
  0
LINE
  5
23D
330
17
100
AcDbEntity
  8
0
100
AcDbLine
 10
-21.18036221983326
 20
-97.08612717821495
 30
0.0
 11
-21.165088253528335
 21
-97.09081105361278
 31
0.0
  0
LINE
  5
23E
330
17
100
AcDbEntity
  8
0
100
AcDbLine
 10
-21.165088253528335
 20
-97.09081105361278
 30
0.0
 11
-21.14979570168203
 21
-97.09543388753309
 31
0.0
  0
LINE
  5
23F
330
17
100
AcDbEntity
  8
0
100
AcDbLine
 10
-21.14979570168203
 20
-97.09543388753309
 30
0.0
 11
-21.134484808241847
 21
-97.09999560623221
 31
0.0
  0
LINE
  5
240
330
17
100
AcDbEntity
  8
0
100
AcDbLine
 10
-21.134484808241847
 20
-97.09999560623221
 30
0.0
 11
-21.11915581744786
 21
-97.10449613694139
 31
0.0
  0
LINE
  5
241
330
17
100
AcDbEntity
  8
0
100
AcDbLine
 10
-21.11915581744786
 20
-97.10449613694139
 30
0.0
 11
-21.103808973828826
 21
-97.10893540786796
 31
0.0
  0
LINE
  5
242
330
17
100
AcDbEntity
  8
0
100
AcDbLine
 10
-21.103808973828826
 20
-97.10893540786796
 30
0.0
 11
-21.088444522198312
 21
-97.11331334819647
 31
0.0
  0
LINE
  5
243
330
17
100
AcDbEntity
  8
0
100
AcDbLine
 10
-21.088444522198312
 20
-97.11331334819647
 30
0.0
 11
-21.073062707650745
 21
-97.11762988808982
 31
0.0
  0
LINE
  5
244
330
17
100
AcDbEntity
  8
0
100
AcDbLine
 10
-21.073062707650745
 20
-97.11762988808982
 30
0.0
 11
-21.057663775557547
 21
-97.12188495869036
 31
0.0
  0
LINE
  5
245
330
17
100
AcDbEntity
  8
0
100
AcDbLine
 10
-21.057663775557547
 20
-97.12188495869036
 30
0.0
 11
-21.042247971563185
 21
-97.126078492121
 31
0.0
  0
LINE
  5
246
330
17
100
AcDbEntity
  8
0
100
AcDbLine
 10
-21.042247971563185
 20
-97.126078492121
 30
0.0
 11
-21.026815541581275
 21
-97.13021042148631
 31
0.0
  0
LINE
  5
247
330
17
100
AcDbEntity
  8
0
100
AcDbLine
 10
-21.026815541581275
 20
-97.13021042148631
 30
0.0
 11
-21.01136673179065
 21
-97.13428068087357
 31
0.0
  0
LINE
  5
248
330
17
100
AcDbEntity
  8
0
100
AcDbLine
 10
-21.01136673179065
 20
-97.13428068087357
 30
0.0
 11
-20.995901788631432
 21
-97.1382892053538
 31
0.0
  0
LINE
  5
249
330
17
100
AcDbEntity
  8
0
100
AcDbLine
 10
-20.995901788631432
 20
-97.1382892053538
 30
0.0
 11
-20.980420958801105
 21
-97.14223593098285
 31
0.0
  0
LINE
  5
24A
330
17
100
AcDbEntity
  8
0
100
AcDbLine
 10
-20.980420958801105
 20
-97.14223593098285
 30
0.0
 11
-20.96492448925058
 21
-97.14612079480236
 31
0.0
  0
LINE
  5
24B
330
17
100
AcDbEntity
  8
0
100
AcDbLine
 10
-20.96492448925058
 20
-97.14612079480236
 30
0.0
 11
-20.949412627180248
 21
-97.1499437348408
 31
0.0
  0
LINE
  5
24C
330
17
100
AcDbEntity
  8
0
100
AcDbLine
 10
-20.949412627180248
 20
-97.1499437348408
 30
0.0
 11
-20.93388562003605
 21
-97.15370469011448
 31
0.0
  0
LINE
  5
24D
330
17
100
AcDbEntity
  8
0
100
AcDbLine
 10
-20.93388562003605
 20
-97.15370469011448
 30
0.0
 11
-20.918343715505518
 21
-97.15740360062844
 31
0.0
  0
LINE
  5
24E
330
17
100
AcDbEntity
  8
0
100
AcDbLine
 10
-20.918343715505518
 20
-97.15740360062844
 30
0.0
 11
-20.90278716151382
 21
-97.1610404073775
 31
0.0
  0
LINE
  5
24F
330
17
100
AcDbEntity
  8
0
100
AcDbLine
 10
-20.90278716151382
 20
-97.1610404073775
 30
0.0
 11
-20.88721620621983
 21
-97.16461505234714
 31
0.0
  0
LINE
  5
250
330
17
100
AcDbEntity
  8
0
100
AcDbLine
 10
-20.88721620621983
 20
-97.16461505234714
 30
0.0
 11
-20.87163109801214
 21
-97.16812747851449
 31
0.0
  0
LINE
  5
251
330
17
100
AcDbEntity
  8
0
100
AcDbLine
 10
-20.87163109801214
 20
-97.16812747851449
 30
0.0
 11
-20.856032085505106
 21
-97.17157762984914
 31
0.0
  0
LINE
  5
252
330
17
100
AcDbEntity
  8
0
100
AcDbLine
 10
-20.856032085505106
 20
-97.17157762984914
 30
0.0
 11
-20.840419417534903
 21
-97.17496545131412
 31
0.0
  0
LINE
  5
253
330
17
100
AcDbEntity
  8
0
100
AcDbLine
 10
-20.840419417534903
 20
-97.17496545131412
 30
0.0
 11
-20.824793343155516
 21
-97.17829088886675
 31
0.0
  0
LINE
  5
254
330
17
100
AcDbEntity
  8
0
100
AcDbLine
 10
-20.824793343155516
 20
-97.17829088886675
 30
0.0
 11
-20.80915411163481
 21
-97.1815538894595
 31
0.0
  0
LINE
  5
255
330
17
100
AcDbEntity
  8
0
100
AcDbLine
 10
-20.80915411163481
 20
-97.1815538894595
 30
0.0
 11
-20.793501972450528
 21
-97.18475440104083
 31
0.0
  0
LINE
  5
256
330
17
100
AcDbEntity
  8
0
100
AcDbLine
 10
-20.793501972450528
 20
-97.18475440104083
 30
0.0
 11
-20.7778371752863
 21
-97.18789237255604
 31
0.0
  0
LINE
  5
257
330
17
100
AcDbEntity
  8
0
100
AcDbLine
 10
-20.7778371752863
 20
-97.18789237255604
 30
0.0
 11
-20.762159970027707
 21
-97.19096775394806
 31
0.0
  0
LINE
  5
258
330
17
100
AcDbEntity
  8
0
100
AcDbLine
 10
-20.762159970027707
 20
-97.19096775394806
 30
0.0
 11
-20.746470606758237
 21
-97.19398049615825
 31
0.0
  0
LINE
  5
259
330
17
100
AcDbEntity
  8
0
100
AcDbLine
 10
-20.746470606758237
 20
-97.19398049615825
 30
0.0
 11
-20.730769335755337
 21
-97.19693055112724
 31
0.0
  0
LINE
  5
25A
330
17
100
AcDbEntity
  8
0
100
AcDbLine
 10
-20.730769335755337
 20
-97.19693055112724
 30
0.0
 11
-20.715056407486404
 21
-97.19981787179557
 31
0.0
  0
LINE
  5
25B
330
17
100
AcDbEntity
  8
0
100
AcDbLine
 10
-20.715056407486404
 20
-97.19981787179557
 30
0.0
 11
-20.69933207260479
 21
-97.20264241210462
 31
0.0
  0
LINE
  5
25C
330
17
100
AcDbEntity
  8
0
100
AcDbLine
 10
-20.69933207260479
 20
-97.20264241210462
 30
0.0
 11
-20.683596581945814
 21
-97.20540412699717
 31
0.0
  0
LINE
  5
25D
330
17
100
AcDbEntity
  8
0
100
AcDbLine
 10
-20.683596581945814
 20
-97.20540412699717
 30
0.0
 11
-20.667850186522738
 21
-97.20810297241822
 31
0.0
  0
LINE
  5
25E
330
17
100
AcDbEntity
  8
0
100
AcDbLine
 10
-20.667850186522738
 20
-97.20810297241822
 30
0.0
 11
-20.65209313752279
 21
-97.21073890531564
 31
0.0
  0
LINE
  5
25F
330
17
100
AcDbEntity
  8
0
100
AcDbLine
 10
-20.65209313752279
 20
-97.21073890531564
 30
0.0
 11
-20.63632568630314
 21
-97.21331188364094
 31
0.0
  0
LINE
  5
260
330
17
100
AcDbEntity
  8
0
100
AcDbLine
 10
-20.63632568630314
 20
-97.21331188364094
 30
0.0
 11
-20.620548084386893
 21
-97.21582186634984
 31
0.0
  0
LINE
  5
261
330
17
100
AcDbEntity
  8
0
100
AcDbLine
 10
-20.620548084386893
 20
-97.21582186634984
 30
0.0
 11
-20.604760583459083
 21
-97.21826881340299
 31
0.0
  0
LINE
  5
262
330
17
100
AcDbEntity
  8
0
100
AcDbLine
 10
-20.604760583459083
 20
-97.21826881340299
 30
0.0
 11
-20.58896343536265
 21
-97.22065268576655
 31
0.0
  0
LINE
  5
263
330
17
100
AcDbEntity
  8
0
100
AcDbLine
 10
-20.58896343536265
 20
-97.22065268576655
 30
0.0
 11
-20.57315689209442
 21
-97.2229734454129
 31
0.0
  0
LINE
  5
264
330
17
100
AcDbEntity
  8
0
100
AcDbLine
 10
-20.57315689209442
 20
-97.2229734454129
 30
0.0
 11
-20.557341205801105
 21
-97.22523105532117
 31
0.0
  0
LINE
  5
265
330
17
100
AcDbEntity
  8
0
100
AcDbLine
 10
-20.557341205801105
 20
-97.22523105532117
 30
0.0
 11
-20.541516628775256
 21
-97.22742547947787
 31
0.0
  0
LINE
  5
266
330
17
100
AcDbEntity
  8
0
100
AcDbLine
 10
-20.541516628775256
 20
-97.22742547947787
 30
0.0
 11
-20.525683413451254
 21
-97.22955668287744
 31
0.0
  0
LINE
  5
267
330
17
100
AcDbEntity
  8
0
100
AcDbLine
 10
-20.525683413451254
 20
-97.22955668287744
 30
0.0
 11
-20.509841812401284
 21
-97.23162463152283
 31
0.0
  0
LINE
  5
268
330
17
100
AcDbEntity
  8
0
100
AcDbLine
 10
-20.509841812401284
 20
-97.23162463152283
 30
0.0
 11
-20.49399207833128
 21
-97.23362929242602
 31
0.0
  0
LINE
  5
269
330
17
100
AcDbEntity
  8
0
100
AcDbLine
 10
-20.49399207833128
 20
-97.23362929242602
 30
0.0
 11
-20.47813446407694
 21
-97.23557063360857
 31
0.0
  0
LINE
  5
26A
330
17
100
AcDbEntity
  8
0
100
AcDbLine
 10
-20.47813446407694
 20
-97.23557063360857
 30
0.0
 11
-20.462269222599655
 21
-97.23744862410211
 31
0.0
  0
LINE
  5
26B
330
17
100
AcDbEntity
  8
0
100
AcDbLine
 10
-20.462269222599655
 20
-97.23744862410211
 30
0.0
 11
-20.44639660698248
 21
-97.23926323394888
 31
0.0
  0
LINE
  5
26C
330
17
100
AcDbEntity
  8
0
100
AcDbLine
 10
-20.44639660698248
 20
-97.23926323394888
 30
0.0
 11
-20.430516870426114
 21
-97.24101443420209
 31
0.0
  0
LINE
  5
26D
330
17
100
AcDbEntity
  8
0
100
AcDbLine
 10
-20.430516870426114
 20
-97.24101443420209
 30
0.0
 11
-20.41463026624484
 21
-97.24270219692654
 31
0.0
  0
LINE
  5
26E
330
17
100
AcDbEntity
  8
0
100
AcDbLine
 10
-20.41463026624484
 20
-97.24270219692654
 30
0.0
 11
-20.3987370478625
 21
-97.24432649519898
 31
0.0
  0
LINE
  5
26F
330
17
100
AcDbEntity
  8
0
100
AcDbLine
 10
-20.3987370478625
 20
-97.24432649519898
 30
0.0
 11
-20.38283746880845
 21
-97.24588730310849
 31
0.0
  0
LINE
  5
270
330
17
100
AcDbEntity
  8
0
100
AcDbLine
 10
-20.38283746880845
 20
-97.24588730310849
 30
0.0
 11
-20.366931782713493
 21
-97.24738459575703
 31
0.0
  0
LINE
  5
271
330
17
100
AcDbEntity
  8
0
100
AcDbLine
 10
-20.366931782713493
 20
-97.24738459575703
 30
0.0
 11
-20.351020243305882
 21
-97.24881834925968
 31
0.0
  0
LINE
  5
272
330
17
100
AcDbEntity
  8
0
100
AcDbLine
 10
-20.351020243305882
 20
-97.24881834925968
 30
0.0
 11
-20.335103104407207
 21
-97.25018854074517
 31
0.0
  0
LINE
  5
273
330
17
100
AcDbEntity
  8
0
100
AcDbLine
 10
-20.335103104407207
 20
-97.25018854074517
 30
0.0
 11
-20.31918061992841
 21
-97.25149514835613
 31
0.0
  0
LINE
  5
274
330
17
100
AcDbEntity
  8
0
100
AcDbLine
 10
-20.31918061992841
 20
-97.25149514835613
 30
0.0
 11
-20.3032530438657
 21
-97.25273815124949
 31
0.0
  0
LINE
  5
275
330
17
100
AcDbEntity
  8
0
100
AcDbLine
 10
-20.3032530438657
 20
-97.25273815124949
 30
0.0
 11
-20.287320630296485
 21
-97.25391752959682
 31
0.0
  0
LINE
  5
276
330
17
100
AcDbEntity
  8
0
100
AcDbLine
 10
-20.287320630296485
 20
-97.25391752959682
 30
0.0
 11
-20.271383633375375
 21
-97.25503326458463
 31
0.0
  0
LINE
  5
277
330
17
100
AcDbEntity
  8
0
100
AcDbLine
 10
-20.271383633375375
 20
-97.25503326458463
 30
0.0
 11
-20.25544230733007
 21
-97.25608533841464
 31
0.0
  0
LINE
  5
278
330
17
100
AcDbEntity
  8
0
100
AcDbLine
 10
-20.25544230733007
 20
-97.25608533841464
 30
0.0
 11
-20.239496906457337
 21
-97.25707373430413
 31
0.0
  0
LINE
  5
279
330
17
100
AcDbEntity
  8
0
100
AcDbLine
 10
-20.239496906457337
 20
-97.25707373430413
 30
0.0
 11
-20.223547685118948
 21
-97.25799843648616
 31
0.0
  0
LINE
  5
27A
330
17
100
AcDbEntity
  8
0
100
AcDbLine
 10
-20.223547685118948
 20
-97.25799843648616
 30
0.0
 11
-20.207594897737604
 21
-97.25885943020987
 31
0.0
  0
LINE
  5
27B
330
17
100
AcDbEntity
  8
0
100
AcDbLine
 10
-20.207594897737604
 20
-97.25885943020987
 30
0.0
 11
-20.191638798792912
 21
-97.2596567017406
 31
0.0
  0
LINE
  5
27C
330
17
100
AcDbEntity
  8
0
100
AcDbLine
 10
-20.191638798792912
 20
-97.2596567017406
 30
0.0
 11
-20.175679642817297
 21
-97.26039023836027
 31
0.0
  0
LINE
  5
27D
330
17
100
AcDbEntity
  8
0
100
AcDbLine
 10
-20.175679642817297
 20
-97.26039023836027
 30
0.0
 11
-20.15971768439194
 21
-97.26106002836745
 31
0.0
  0
LINE
  5
27E
330
17
100
AcDbEntity
  8
0
100
AcDbLine
 10
-20.15971768439194
 20
-97.26106002836745
 30
0.0
 11
-20.14375317814274
 21
-97.26166606107765
 31
0.0
  0
LINE
  5
27F
330
17
100
AcDbEntity
  8
0
100
AcDbLine
 10
-20.14375317814274
 20
-97.26166606107765
 30
0.0
 11
-20.12778637873624
 21
-97.26220832682337
 31
0.0
  0
LINE
  5
280
330
17
100
AcDbEntity
  8
0
100
AcDbLine
 10
-20.12778637873624
 20
-97.26220832682337
 30
0.0
 11
-20.111817540875546
 21
-97.26268681695439
 31
0.0
  0
LINE
  5
281
330
17
100
AcDbEntity
  8
0
100
AcDbLine
 10
-20.111817540875546
 20
-97.26268681695439
 30
0.0
 11
-20.095846919296307
 21
-97.2631015238378
 31
0.0
  0
LINE
  5
282
330
17
100
AcDbEntity
  8
0
100
AcDbLine
 10
-20.095846919296307
 20
-97.2631015238378
 30
0.0
 11
-20.0798747687626
 21
-97.26345244085819
 31
0.0
  0
LINE
  5
283
330
17
100
AcDbEntity
  8
0
100
AcDbLine
 10
-20.0798747687626
 20
-97.26345244085819
 30
0.0
 11
-20.063901344062913
 21
-97.2637395624177
 31
0.0
  0
LINE
  5
284
330
17
100
AcDbEntity
  8
0
100
AcDbLine
 10
-20.063901344062913
 20
-97.2637395624177
 30
0.0
 11
-20.04792690000605
 21
-97.26396288393614
 31
0.0
  0
LINE
  5
285
330
17
100
AcDbEntity
  8
0
100
AcDbLine
 10
-20.04792690000605
 20
-97.26396288393614
 30
0.0
 11
-20.03195169141707
 21
-97.26412240185113
 31
0.0
  0
LINE
  5
286
330
17
100
AcDbEntity
  8
0
100
AcDbLine
 10
-20.03195169141707
 20
-97.26412240185113
 30
0.0
 11
-20.015975973133248
 21
-97.26421811361797
 31
0.0
  0
LINE
  5
287
330
17
100
AcDbEntity
  8
0
100
AcDbLine
 10
-20.015975973133248
 20
-97.26421811361797
 30
0.0
 11
-19.99999999999996
 21
-97.2642500177099
 31
0.0
  0
LINE
  5
288
330
17
100
AcDbEntity
  8
0
100
AcDbLine
 10
-21.540733000747057
 20
-96.95561044720037
 30
0.0
 11
-21.910704097765812
 21
-96.80073642535822
 31
0.0
  0
LINE
  5
289
330
17
100
AcDbEntity
  8
0
100
AcDbLine
 10
-21.910704097765812
 20
-96.80073642535822
 30
0.0
 11
-22.280498885098503
 21
-96.64503097208778
 31
0.0
  0
LINE
  5
28A
330
17
100
AcDbEntity
  8
0
100
AcDbLine
 10
-22.280498885098503
 20
-96.64503097208778
 30
0.0
 11
-22.65011461341272
 21
-96.48849424153343
 31
0.0
  0
LINE
  5
28B
330
17
100
AcDbEntity
  8
0
100
AcDbLine
 10
-22.65011461341272
 20
-96.48849424153343
 30
0.0
 11
-23.019548533376533
 21
-96.33112638783936
 31
0.0
  0
LINE
  5
28C
330
17
100
AcDbEntity
  8
0
100
AcDbLine
 10
-23.019548533376533
 20
-96.33112638783936
 30
0.0
 11
-23.38879789565753
 21
-96.17292756514995
 31
0.0
  0
LINE
  5
28D
330
17
100
AcDbEntity
  8
0
100
AcDbLine
 10
-23.38879789565753
 20
-96.17292756514995
 30
0.0
 11
-23.75785995092347
 21
-96.0138979276095
 31
0.0
  0
LINE
  5
28E
330
17
100
AcDbEntity
  8
0
100
AcDbLine
 10
-23.75785995092347
 20
-96.0138979276095
 30
0.0
 11
-24.126731949841943
 21
-95.85403762936244
 31
0.0
  0
LINE
  5
28F
330
17
100
AcDbEntity
  8
0
100
AcDbLine
 10
-24.126731949841943
 20
-95.85403762936244
 30
0.0
 11
-24.495411143081014
 21
-95.69334682455292
 31
0.0
  0
LINE
  5
290
330
17
100
AcDbEntity
  8
0
100
AcDbLine
 10
-24.495411143081014
 20
-95.69334682455292
 30
0.0
 11
-24.86389478130828
 21
-95.53182566732532
 31
0.0
  0
LINE
  5
291
330
17
100
AcDbEntity
  8
0
100
AcDbLine
 10
-24.86389478130828
 20
-95.53182566732532
 30
0.0
 11
-25.232180115191493
 21
-95.36947431182398
 31
0.0
  0
LINE
  5
292
330
17
100
AcDbEntity
  8
0
100
AcDbLine
 10
-25.232180115191493
 20
-95.36947431182398
 30
0.0
 11
-25.600264395398238
 21
-95.20629291219328
 31
0.0
  0
LINE
  5
293
330
17
100
AcDbEntity
  8
0
100
AcDbLine
 10
-25.600264395398238
 20
-95.20629291219328
 30
0.0
 11
-25.968144872596593
 21
-95.04228162257738
 31
0.0
  0
LINE
  5
294
330
17
100
AcDbEntity
  8
0
100
AcDbLine
 10
-25.968144872596593
 20
-95.04228162257738
 30
0.0
 11
-26.33581879745414
 21
-94.8774405971207
 31
0.0
  0
LINE
  5
295
330
17
100
AcDbEntity
  8
0
100
AcDbLine
 10
-26.33581879745414
 20
-94.8774405971207
 30
0.0
 11
-26.703283420638645
 21
-94.71176998996754
 31
0.0
  0
LINE
  5
296
330
17
100
AcDbEntity
  8
0
100
AcDbLine
 10
-26.703283420638645
 20
-94.71176998996754
 30
0.0
 11
-27.070535992817685
 21
-94.54526995526227
 31
0.0
  0
LINE
  5
297
330
17
100
AcDbEntity
  8
0
100
AcDbLine
 10
-27.070535992817685
 20
-94.54526995526227
 30
0.0
 11
-27.437573764659344
 21
-94.3779406471491
 31
0.0
  0
LINE
  5
298
330
17
100
AcDbEntity
  8
0
100
AcDbLine
 10
-27.437573764659344
 20
-94.3779406471491
 30
0.0
 11
-27.8043939868312
 21
-94.2097822197724
 31
0.0
  0
LINE
  5
299
330
17
100
AcDbEntity
  8
0
100
AcDbLine
 10
-27.8043939868312
 20
-94.2097822197724
 30
0.0
 11
-28.170993910001016
 21
-94.0407948272765
 31
0.0
  0
LINE
  5
29A
330
17
100
AcDbEntity
  8
0
100
AcDbLine
 10
-28.170993910001016
 20
-94.0407948272765
 30
0.0
 11
-28.537370784836376
 21
-93.87097862380578
 31
0.0
  0
LINE
  5
29B
330
17
100
AcDbEntity
  8
0
100
AcDbLine
 10
-28.537370784836376
 20
-93.87097862380578
 30
0.0
 11
-28.903521862005352
 21
-93.70033376350442
 31
0.0
  0
LINE
  5
29C
330
17
100
AcDbEntity
  8
0
100
AcDbLine
 10
-28.903521862005352
 20
-93.70033376350442
 30
0.0
 11
-29.26944439217554
 21
-93.5288604005168
 31
0.0
  0
LINE
  5
29D
330
17
100
AcDbEntity
  8
0
100
AcDbLine
 10
-29.26944439217554
 20
-93.5288604005168
 30
0.0
 11
-29.635135626014687
 21
-93.35655868898725
 31
0.0
  0
LINE
  5
29E
330
17
100
AcDbEntity
  8
0
100
AcDbLine
 10
-29.635135626014687
 20
-93.35655868898725
 30
0.0
 11
-30.000592814190384
 21
-93.18342878306015
 31
0.0
  0
LINE
  5
29F
330
17
100
AcDbEntity
  8
0
100
AcDbLine
 10
-30.000592814190384
 20
-93.18342878306015
 30
0.0
 11
-30.365813207370703
 21
-93.00947083687967
 31
0.0
  0
LINE
  5
2A0
330
17
100
AcDbEntity
  8
0
100
AcDbLine
 10
-30.365813207370703
 20
-93.00947083687967
 30
0.0
 11
-30.730794056223235
 21
-92.83468500459021
 31
0.0
  0
LINE
  5
2A1
330
17
100
AcDbEntity
  8
0
100
AcDbLine
 10
-30.730794056223235
 20
-92.83468500459021
 30
0.0
 11
-31.095532611415738
 21
-92.65907144033609
 31
0.0
  0
LINE
  5
2A2
330
17
100
AcDbEntity
  8
0
100
AcDbLine
 10
-31.095532611415738
 20
-92.65907144033609
 30
0.0
 11
-31.460026123615794
 21
-92.4826302982617
 31
0.0
  0
LINE
  5
2A3
330
17
100
AcDbEntity
  8
0
100
AcDbLine
 10
-31.460026123615794
 20
-92.4826302982617
 30
0.0
 11
-31.82427184349148
 21
-92.3053617325112
 31
0.0
  0
LINE
  5
2A4
330
17
100
AcDbEntity
  8
0
100
AcDbLine
 10
-31.82427184349148
 20
-92.3053617325112
 30
0.0
 11
-32.188267021710374
 21
-92.12726589722898
 31
0.0
  0
LINE
  5
2A5
330
17
100
AcDbEntity
  8
0
100
AcDbLine
 10
-32.188267021710374
 20
-92.12726589722898
 30
0.0
 11
-32.55200890894025
 21
-91.94834294655938
 31
0.0
  0
LINE
  5
2A6
330
17
100
AcDbEntity
  8
0
100
AcDbLine
 10
-32.55200890894025
 20
-91.94834294655938
 30
0.0
 11
-32.915494755848684
 21
-91.76859303464678
 31
0.0
  0
LINE
  5
2A7
330
17
100
AcDbEntity
  8
0
100
AcDbLine
 10
-32.915494755848684
 20
-91.76859303464678
 30
0.0
 11
-33.27872181310375
 21
-91.58801631563534
 31
0.0
  0
LINE
  5
2A8
330
17
100
AcDbEntity
  8
0
100
AcDbLine
 10
-33.27872181310375
 20
-91.58801631563534
 30
0.0
 11
-33.64168733137305
 21
-91.40661294366947
 31
0.0
  0
LINE
  5
2A9
330
17
100
AcDbEntity
  8
0
100
AcDbLine
 10
-33.64168733137305
 20
-91.40661294366947
 30
0.0
 11
-34.004388561324305
 21
-91.22438307289346
 31
0.0
  0
LINE
  5
2AA
330
17
100
AcDbEntity
  8
0
100
AcDbLine
 10
-34.004388561324305
 20
-91.22438307289346
 30
0.0
 11
-34.3668227536253
 21
-91.04132685745166
 31
0.0
  0
LINE
  5
2AB
330
17
100
AcDbEntity
  8
0
100
AcDbLine
 10
-34.3668227536253
 20
-91.04132685745166
 30
0.0
 11
-34.72898715894362
 21
-90.85744445148845
 31
0.0
  0
LINE
  5
2AC
330
17
100
AcDbEntity
  8
0
100
AcDbLine
 10
-34.72898715894362
 20
-90.85744445148845
 30
0.0
 11
-35.09087901558267
 21
-90.67273600827869
 31
0.0
  0
LINE
  5
2AD
330
17
100
AcDbEntity
  8
0
100
AcDbLine
 10
-35.09087901558267
 20
-90.67273600827869
 30
0.0
 11
-35.45249517520488
 21
-90.48720180371966
 31
0.0
  0
LINE
  5
2AE
330
17
100
AcDbEntity
  8
0
100
AcDbLine
 10
-35.45249517520488
 20
-90.48720180371966
 30
0.0
 11
-35.81383270319245
 21
-90.30084253510455
 31
0.0
  0
LINE
  5
2AF
330
17
100
AcDbEntity
  8
0
100
AcDbLine
 10
-35.81383270319245
 20
-90.30084253510455
 30
0.0
 11
-36.17488885912974
 21
-90.1136589794402
 31
0.0
  0
LINE
  5
2B0
330
17
100
AcDbEntity
  8
0
100
AcDbLine
 10
-36.17488885912974
 20
-90.1136589794402
 30
0.0
 11
-36.535660902601535
 21
-89.92565191373322
 31
0.0
  0
LINE
  5
2B1
330
17
100
AcDbEntity
  8
0
100
AcDbLine
 10
-36.535660902601535
 20
-89.92565191373322
 30
0.0
 11
-36.89614609319218
 21
-89.73682211499045
 31
0.0
  0
LINE
  5
2B2
330
17
100
AcDbEntity
  8
0
100
AcDbLine
 10
-36.89614609319218
 20
-89.73682211499045
 30
0.0
 11
-37.25634169048616
 21
-89.54717036021863
 31
0.0
  0
LINE
  5
2B3
330
17
100
AcDbEntity
  8
0
100
AcDbLine
 10
-37.25634169048616
 20
-89.54717036021863
 30
0.0
 11
-37.61624495406782
 21
-89.35669742642463
 31
0.0
  0
LINE
  5
2B4
330
17
100
AcDbEntity
  8
0
100
AcDbLine
 10
-37.61624495406782
 20
-89.35669742642463
 30
0.0
 11
-37.97585314352196
 21
-89.16540409061506
 31
0.0
  0
LINE
  5
2B5
330
17
100
AcDbEntity
  8
0
100
AcDbLine
 10
-37.97585314352196
 20
-89.16540409061506
 30
0.0
 11
-38.33516351843292
 21
-88.97329112979672
 31
0.0
  0
LINE
  5
2B6
330
17
100
AcDbEntity
  8
0
100
AcDbLine
 10
-38.33516351843292
 20
-88.97329112979672
 30
0.0
 11
-38.69417333838519
 21
-88.78035932097642
 31
0.0
  0
LINE
  5
2B7
330
17
100
AcDbEntity
  8
0
100
AcDbLine
 10
-38.69417333838519
 20
-88.78035932097642
 30
0.0
 11
-39.05287986296311
 21
-88.58660944116096
 31
0.0
  0
LINE
  5
2B8
330
17
100
AcDbEntity
  8
0
100
AcDbLine
 10
-39.05287986296311
 20
-88.58660944116096
 30
0.0
 11
-39.411280351751486
 21
-88.39204226735696
 31
0.0
  0
LINE
  5
2B9
330
17
100
AcDbEntity
  8
0
100
AcDbLine
 10
-39.411280351751486
 20
-88.39204226735696
 30
0.0
 11
-39.76937206433465
 21
-88.19665857657127
 31
0.0
  0
LINE
  5
2BA
330
17
100
AcDbEntity
  8
0
100
AcDbLine
 10
-39.76937206433465
 20
-88.19665857657127
 30
0.0
 11
-40.127152260297095
 21
-88.00045914581062
 31
0.0
  0
LINE
  5
2BB
330
17
100
AcDbEntity
  8
0
100
AcDbLine
 10
-40.127152260297095
 20
-88.00045914581062
 30
0.0
 11
-40.484618199223156
 21
-87.8034447520819
 31
0.0
  0
LINE
  5
2BC
330
17
100
AcDbEntity
  8
0
100
AcDbLine
 10
-40.484618199223156
 20
-87.8034447520819
 30
0.0
 11
-40.84176714069765
 21
-87.60561617239168
 31
0.0
  0
LINE
  5
2BD
330
17
100
AcDbEntity
  8
0
100
AcDbLine
 10
-40.84176714069765
 20
-87.60561617239168
 30
0.0
 11
-41.198596344304896
 21
-87.40697418374681
 31
0.0
  0
LINE
  5
2BE
330
17
100
AcDbEntity
  8
0
100
AcDbLine
 10
-41.198596344304896
 20
-87.40697418374681
 30
0.0
 11
-41.5551030696294
 21
-87.20751956315404
 31
0.0
  0
LINE
  5
2BF
330
17
100
AcDbEntity
  8
0
100
AcDbLine
 10
-41.5551030696294
 20
-87.20751956315404
 30
0.0
 11
-41.9112845762555
 21
-87.00725308762023
 31
0.0
  0
LINE
  5
2C0
330
17
100
AcDbEntity
  8
0
100
AcDbLine
 10
-41.9112845762555
 20
-87.00725308762023
 30
0.0
 11
-42.26713812376799
 21
-86.80617553415198
 31
0.0
  0
LINE
  5
2C1
330
17
100
AcDbEntity
  8
0
100
AcDbLine
 10
-42.26713812376799
 20
-86.80617553415198
 30
0.0
 11
-42.62266097175121
 21
-86.6042876797561
 31
0.0
  0
LINE
  5
2C2
330
17
100
AcDbEntity
  8
0
100
AcDbLine
 10
-42.62266097175121
 20
-86.6042876797561
 30
0.0
 11
-42.97785037978966
 21
-86.4015903014394
 31
0.0
  0
LINE
  5
2C3
330
17
100
AcDbEntity
  8
0
100
AcDbLine
 10
-42.97785037978966
 20
-86.4015903014394
 30
0.0
 11
-43.33270360746767
 21
-86.1980841762087
 31
0.0
  0
LINE
  5
2C4
330
17
100
AcDbEntity
  8
0
100
AcDbLine
 10
-43.33270360746767
 20
-86.1980841762087
 30
0.0
 11
-43.687217914370045
 21
-85.99377008107058
 31
0.0
  0
LINE
  5
2C5
330
17
100
AcDbEntity
  8
0
100
AcDbLine
 10
-43.687217914370045
 20
-85.99377008107058
 30
0.0
 11
-44.041390560081126
 21
-85.78864879303191
 31
0.0
  0
LINE
  5
2C6
330
17
100
AcDbEntity
  8
0
100
AcDbLine
 10
-44.041390560081126
 20
-85.78864879303191
 30
0.0
 11
-44.395218804185404
 21
-85.58272108909945
 31
0.0
  0
LINE
  5
2C7
330
17
100
AcDbEntity
  8
0
100
AcDbLine
 10
-44.395218804185404
 20
-85.58272108909945
 30
0.0
 11
-44.74869990626721
 21
-85.37598774628003
 31
0.0
  0
LINE
  5
2C8
330
17
100
AcDbEntity
  8
0
100
AcDbLine
 10
-44.74869990626721
 20
-85.37598774628003
 30
0.0
 11
-45.10183112591136
 21
-85.16844954158026
 31
0.0
  0
LINE
  5
2C9
330
17
100
AcDbEntity
  8
0
100
AcDbLine
 10
-45.10183112591136
 20
-85.16844954158026
 30
0.0
 11
-45.45460972270218
 21
-84.96010725200698
 31
0.0
  0
LINE
  5
2CA
330
17
100
AcDbEntity
  8
0
100
AcDbLine
 10
-45.45460972270218
 20
-84.96010725200698
 30
0.0
 11
-45.80703295622418
 21
-84.75096165456694
 31
0.0
  0
LINE
  5
2CB
330
17
100
AcDbEntity
  8
0
100
AcDbLine
 10
-45.80703295622418
 20
-84.75096165456694
 30
0.0
 11
-46.159098086061825
 21
-84.54101352626692
 31
0.0
  0
LINE
  5
2CC
330
17
100
AcDbEntity
  8
0
100
AcDbLine
 10
-46.159098086061825
 20
-84.54101352626692
 30
0.0
 11
-46.51080237179947
 21
-84.33026364411376
 31
0.0
  0
LINE
  5
2CD
330
17
100
AcDbEntity
  8
0
100
AcDbLine
 10
-46.51080237179947
 20
-84.33026364411376
 30
0.0
 11
-46.862143073021926
 21
-84.11871278511406
 31
0.0
  0
LINE
  5
2CE
330
17
100
AcDbEntity
  8
0
100
AcDbLine
 10
-46.862143073021926
 20
-84.11871278511406
 30
0.0
 11
-47.21311744931351
 21
-83.90636172627464
 31
0.0
  0
LINE
  5
2CF
330
17
100
AcDbEntity
  8
0
100
AcDbLine
 10
-47.21311744931351
 20
-83.90636172627464
 30
0.0
 11
-47.56372276025873
 21
-83.69321124460228
 31
0.0
  0
LINE
  5
2D0
330
17
100
AcDbEntity
  8
0
100
AcDbLine
 10
-47.56372276025873
 20
-83.69321124460228
 30
0.0
 11
-47.913956265441925
 21
-83.47926211710384
 31
0.0
  0
LINE
  5
2D1
330
17
100
AcDbEntity
  8
0
100
AcDbLine
 10
-47.913956265441925
 20
-83.47926211710384
 30
0.0
 11
-48.26381522444788
 21
-83.26451512078589
 31
0.0
  0
LINE
  5
2D2
330
17
100
AcDbEntity
  8
0
100
AcDbLine
 10
-48.26381522444788
 20
-83.26451512078589
 30
0.0
 11
-48.61329689686095
 21
-83.04897103265527
 31
0.0
  0
LINE
  5
2D3
330
17
100
AcDbEntity
  8
0
100
AcDbLine
 10
-48.61329689686095
 20
-83.04897103265527
 30
0.0
 11
-48.962398542265625
 21
-82.83263062971878
 31
0.0
  0
LINE
  5
2D4
330
17
100
AcDbEntity
  8
0
100
AcDbLine
 10
-48.962398542265625
 20
-82.83263062971878
 30
0.0
 11
-49.31111742024625
 21
-82.61549468898323
 31
0.0
  0
LINE
  5
2D5
330
17
100
AcDbEntity
  8
0
100
AcDbLine
 10
-49.31111742024625
 20
-82.61549468898323
 30
0.0
 11
-49.65945079038761
 21
-82.39756398745523
 31
0.0
  0
LINE
  5
2D6
330
17
100
AcDbEntity
  8
0
100
AcDbLine
 10
-49.65945079038761
 20
-82.39756398745523
 30
0.0
 11
-50.00739591227404
 21
-82.17883930214163
 31
0.0
  0
LINE
  5
2D7
330
17
100
AcDbEntity
  8
0
100
AcDbLine
 10
-50.00739591227404
 20
-82.17883930214163
 30
0.0
 11
-50.35495004549006
 21
-81.95932141004916
 31
0.0
  0
LINE
  5
2D8
330
17
100
AcDbEntity
  8
0
100
AcDbLine
 10
-50.35495004549006
 20
-81.95932141004916
 30
0.0
 11
-50.70211044961999
 21
-81.73901108818471
 31
0.0
  0
LINE
  5
2D9
330
17
100
AcDbEntity
  8
0
100
AcDbLine
 10
-50.70211044961999
 20
-81.73901108818471
 30
0.0
 11
-51.04887438424863
 21
-81.51790911355485
 31
0.0
  0
LINE
  5
2DA
330
17
100
AcDbEntity
  8
0
100
AcDbLine
 10
-51.04887438424863
 20
-81.51790911355485
 30
0.0
 11
-51.39523910896032
 21
-81.29601626316642
 31
0.0
  0
LINE
  5
2DB
330
17
100
AcDbEntity
  8
0
100
AcDbLine
 10
-51.39523910896032
 20
-81.29601626316642
 30
0.0
 11
-51.741201883339556
 21
-81.07333331402619
 31
0.0
  0
LINE
  5
2DC
330
17
100
AcDbEntity
  8
0
100
AcDbLine
 10
-51.741201883339556
 20
-81.07333331402619
 30
0.0
 11
-52.08675996697068
 21
-80.84986104314102
 31
0.0
  0
LINE
  5
2DD
330
17
100
AcDbEntity
  8
0
100
AcDbLine
 10
-52.08675996697068
 20
-80.84986104314102
 30
0.0
 11
-52.43191061943849
 21
-80.62560022751747
 31
0.0
  0
LINE
  5
2DE
330
17
100
AcDbEntity
  8
0
100
AcDbLine
 10
-52.43191061943849
 20
-80.62560022751747
 30
0.0
 11
-52.776651100327314
 21
-80.4005516441624
 31
0.0
  0
LINE
  5
2DF
330
17
100
AcDbEntity
  8
0
100
AcDbLine
 10
-52.776651100327314
 20
-80.4005516441624
 30
0.0
 11
-53.12097866922167
 21
-80.1747160700826
 31
0.0
  0
LINE
  5
2E0
330
17
100
AcDbEntity
  8
0
100
AcDbLine
 10
-53.12097866922167
 20
-80.1747160700826
 30
0.0
 11
-53.464890585705874
 21
-79.9480942822849
 31
0.0
  0
LINE
  5
2E1
330
17
100
AcDbEntity
  8
0
100
AcDbLine
 10
-53.464890585705874
 20
-79.9480942822849
 30
0.0
 11
-53.80838387461911
 21
-79.72068718535259
 31
0.0
  0
LINE
  5
2E2
330
17
100
AcDbEntity
  8
0
100
AcDbLine
 10
-53.80838387461911
 20
-79.72068718535259
 30
0.0
 11
-54.15145557568978
 21
-79.49249611188145
 31
0.0
  0
LINE
  5
2E3
330
17
100
AcDbEntity
  8
0
100
AcDbLine
 10
-54.15145557568978
 20
-79.49249611188145
 30
0.0
 11
-54.494103133261106
 21
-79.26352245694981
 31
0.0
  0
LINE
  5
2E4
330
17
100
AcDbEntity
  8
0
100
AcDbLine
 10
-54.494103133261106
 20
-79.26352245694981
 30
0.0
 11
-54.8363239944148
 21
-79.0337676151851
 31
0.0
  0
LINE
  5
2E5
330
17
100
AcDbEntity
  8
0
100
AcDbLine
 10
-54.8363239944148
 20
-79.0337676151851
 30
0.0
 11
-55.17811560623299
 21
-78.80323298121438
 31
0.0
  0
LINE
  5
2E6
330
17
100
AcDbEntity
  8
0
100
AcDbLine
 10
-55.17811560623299
 20
-78.80323298121438
 30
0.0
 11
-55.51947541579741
 21
-78.57191994966506
 31
0.0
  0
LINE
  5
2E7
330
17
100
AcDbEntity
  8
0
100
AcDbLine
 10
-55.51947541579741
 20
-78.57191994966506
 30
0.0
 11
-55.860400870189885
 21
-78.33982991516442
 31
0.0
  0
LINE
  5
2E8
330
17
100
AcDbEntity
  8
0
100
AcDbLine
 10
-55.860400870189885
 20
-78.33982991516442
 30
0.0
 11
-56.20088941649213
 21
-78.10696427233987
 31
0.0
  0
LINE
  5
2E9
330
17
100
AcDbEntity
  8
0
100
AcDbLine
 10
-56.20088941649213
 20
-78.10696427233987
 30
0.0
 11
-56.54093850178629
 21
-77.87332441581847
 31
0.0
  0
LINE
  5
2EA
330
17
100
AcDbEntity
  8
0
100
AcDbLine
 10
-56.54093850178629
 20
-77.87332441581847
 30
0.0
 11
-56.880545573154066
 21
-77.63891174022766
 31
0.0
  0
LINE
  5
2EB
330
17
100
AcDbEntity
  8
0
100
AcDbLine
 10
-56.88054557315403
 20
77.6389117402281
 30
0.0
 11
-58.38469333780462
 21
76.57644932111891
 31
0.0
  0
LINE
  5
2EC
330
17
100
AcDbEntity
  8
0
100
AcDbLine
 10
-58.38469333780462
 20
76.57644932111891
 30
0.0
 11
-59.86783134861299
 21
75.48485025057242
 31
0.0
  0
LINE
  5
2ED
330
17
100
AcDbEntity
  8
0
100
AcDbLine
 10
-59.86783134861299
 20
75.48485025057242
 30
0.0
 11
-61.32939528488218
 21
74.36452987223414
 31
0.0
  0
LINE
  5
2EE
330
17
100
AcDbEntity
  8
0
100
AcDbLine
 10
-61.32939528488218
 20
74.36452987223414
 30
0.0
 11
-62.76882903465684
 21
73.21591445794947
 31
0.0
  0
LINE
  5
2EF
330
17
100
AcDbEntity
  8
0
100
AcDbLine
 10
-62.76882903465684
 20
73.21591445794947
 30
0.0
 11
-64.18558490631891
 21
72.03944104557084
 31
0.0
  0
LINE
  5
2F0
330
17
100
AcDbEntity
  8
0
100
AcDbLine
 10
-64.18558490631891
 20
72.03944104557084
 30
0.0
 11
-65.57912383697929
 21
70.83555727266895
 31
0.0
  0
LINE
  5
2F1
330
17
100
AcDbEntity
  8
0
100
AcDbLine
 10
-65.57912383697929
 20
70.83555727266895
 30
0.0
 11
-66.94891559758659
 21
69.60472120621043
 31
0.0
  0
LINE
  5
2F2
330
17
100
AcDbEntity
  8
0
100
AcDbLine
 10
-66.94891559758659
 20
69.60472120621043
 30
0.0
 11
-68.29443899467434
 21
68.34740116826778
 31
0.0
  0
LINE
  5
2F3
330
17
100
AcDbEntity
  8
0
100
AcDbLine
 10
-68.29443899467434
 20
68.34740116826778
 30
0.0
 11
-69.61518206867048
 21
67.06407555782675
 31
0.0
  0
LINE
  5
2F4
330
17
100
AcDbEntity
  8
0
100
AcDbLine
 10
-69.61518206867048
 20
67.06407555782675
 30
0.0
 11
-70.91064228869347
 21
65.75523266875997
 31
0.0
  0
LINE
  5
2F5
330
17
100
AcDbEntity
  8
0
100
AcDbLine
 10
-70.91064228869347
 20
65.75523266875997
 30
0.0
 11
-72.18032674376069
 21
64.42137050403552
 31
0.0
  0
LINE
  5
2F6
330
17
100
AcDbEntity
  8
0
100
AcDbLine
 10
-72.18032674376069
 20
64.42137050403552
 30
0.0
 11
-73.42375233033658
 21
63.062996586231186
 31
0.0
  0
LINE
  5
2F7
330
17
100
AcDbEntity
  8
0
100
AcDbLine
 10
-73.42375233033658
 20
63.062996586231186
 30
0.0
 11
-74.64044593614938
 21
61.68062776442681
 31
0.0
  0
LINE
  5
2F8
330
17
100
AcDbEntity
  8
0
100
AcDbLine
 10
-74.64044593614938
 20
61.68062776442681
 30
0.0
 11
-75.82994462020602
 21
60.2747900175476
 31
0.0
  0
LINE
  5
2F9
330
17
100
AcDbEntity
  8
0
100
AcDbLine
 10
-75.82994462020602
 20
60.2747900175476
 30
0.0
 11
-76.99179578893683
 21
58.846018254234295
 31
0.0
  0
LINE
  5
2FA
330
17
100
AcDbEntity
  8
0
100
AcDbLine
 10
-76.99179578893683
 20
58.846018254234295
 30
0.0
 11
-78.12555736840363
 21
57.39485610931475
 31
0.0
  0
LINE
  5
2FB
330
17
100
AcDbEntity
  8
0
100
AcDbLine
 10
-78.12555736840363
 20
57.39485610931475
 30
0.0
 11
-79.23079797250485
 21
55.921855736956054
 31
0.0
  0
LINE
  5
2FC
330
17
100
AcDbEntity
  8
0
100
AcDbLine
 10
-79.23079797250485
 20
55.921855736956054
 30
0.0
 11
-80.30709706711369
 21
54.4275776005749
 31
0.0
  0
LINE
  5
2FD
330
17
100
AcDbEntity
  8
0
100
AcDbLine
 10
-80.30709706711369
 20
54.4275776005749
 30
0.0
 11
-81.3540451300881
 21
52.912590259585976
 31
0.0
  0
LINE
  5
2FE
330
17
100
AcDbEntity
  8
0
100
AcDbLine
 10
-81.3540451300881
 20
52.912590259585976
 30
0.0
 11
-82.37124380709002
 21
51.37747015307039
 31
0.0
  0
LINE
  5
2FF
330
17
100
AcDbEntity
  8
0
100
AcDbLine
 10
-82.37124380709002
 20
51.37747015307039
 30
0.0
 11
-83.35830606315554
 21
49.822801380445995
 31
0.0
  0
LINE
  5
300
330
17
100
AcDbEntity
  8
0
100
AcDbLine
 10
-83.35830606315554
 20
49.822801380445995
 30
0.0
 11
-84.3148563299584
 21
48.24917547922235
 31
0.0
  0
LINE
  5
301
330
17
100
AcDbEntity
  8
0
100
AcDbLine
 10
-84.3148563299584
 20
48.24917547922235
 30
0.0
 11
-85.24053064871038
 21
46.65719119992625
 31
0.0
  0
LINE
  5
302
330
17
100
AcDbEntity
  8
0
100
AcDbLine
 10
-85.24053064871038
 20
46.65719119992625
 30
0.0
 11
-86.13497680864414
 21
45.04745427828274
 31
0.0
  0
LINE
  5
303
330
17
100
AcDbEntity
  8
0
100
AcDbLine
 10
-86.13497680864414
 20
45.04745427828274
 30
0.0
 11
-86.99785448102651
 21
43.420577204737675
 31
0.0
  0
LINE
  5
304
330
17
100
AcDbEntity
  8
0
100
AcDbLine
 10
-86.99785448102651
 20
43.420577204737675
 30
0.0
 11
-87.82883534865037
 21
41.7771789914108
 31
0.0
  0
LINE
  5
305
330
17
100
AcDbEntity
  8
0
100
AcDbLine
 10
-87.82883534865037
 20
41.7771789914108
 30
0.0
 11
-88.62760323075636
 21
40.11788493656746
 31
0.0
  0
LINE
  5
306
330
17
100
AcDbEntity
  8
0
100
AcDbLine
 10
-88.62760323075636
 20
40.11788493656746
 30
0.0
 11
-89.393854203337
 21
38.443326386697734
 31
0.0
  0
LINE
  5
307
330
17
100
AcDbEntity
  8
0
100
AcDbLine
 10
-89.393854203337
 20
38.443326386697734
 30
0.0
 11
-90.12729671477689
 21
36.754140496295015
 31
0.0
  0
LINE
  5
308
330
17
100
AcDbEntity
  8
0
100
AcDbLine
 10
-90.12729671477689
 20
36.754140496295015
 30
0.0
 11
-90.82765169678545
 21
35.05096998542467
 31
0.0
  0
LINE
  5
309
330
17
100
AcDbEntity
  8
0
100
AcDbLine
 10
-90.82765169678545
 20
35.05096998542467
 30
0.0
 11
-91.49465267058015
 21
33.3344628951743
 31
0.0
  0
LINE
  5
30A
330
17
100
AcDbEntity
  8
0
100
AcDbLine
 10
-91.49465267058015
 20
33.3344628951743
 30
0.0
 11
-92.12804584827893
 21
31.605272341080504
 31
0.0
  0
LINE
  5
30B
330
17
100
AcDbEntity
  8
0
100
AcDbLine
 10
-92.12804584827893
 20
31.605272341080504
 30
0.0
 11
-92.72759022946454
 21
29.864056264623787
 31
0.0
  0
LINE
  5
30C
330
17
100
AcDbEntity
  8
0
100
AcDbLine
 10
-92.72759022946454
 20
29.864056264623787
 30
0.0
 11
-93.29305769288287
 21
28.111477182887924
 31
0.0
  0
LINE
  5
30D
330
17
100
AcDbEntity
  8
0
100
AcDbLine
 10
-93.29305769288287
 20
28.111477182887924
 30
0.0
 11
-93.82423308324101
 21
26.34820193647844
 31
0.0
  0
LINE
  5
30E
330
17
100
AcDbEntity
  8
0
100
AcDbLine
 10
-93.82423308324101
 20
26.34820193647844
 30
0.0
 11
-94.32091429307202
 21
24.574901435795212
 31
0.0
  0
LINE
  5
30F
330
17
100
AcDbEntity
  8
0
100
AcDbLine
 10
-94.32091429307202
 20
24.574901435795212
 30
0.0
 11
-94.78291233963493
 21
22.79225040575739
 31
0.0
  0
LINE
  5
310
330
17
100
AcDbEntity
  8
0
100
AcDbLine
 10
-94.78291233963493
 20
22.79225040575739
 30
0.0
 11
-95.21005143682099
 21
21.000927129076814
 31
0.0
  0
LINE
  5
311
330
17
100
AcDbEntity
  8
0
100
AcDbLine
 10
-95.21005143682099
 20
21.000927129076814
 30
0.0
 11
-95.60216906203875
 21
19.201613188176985
 31
0.0
  0
LINE
  5
312
330
17
100
AcDbEntity
  8
0
100
AcDbLine
 10
-95.60216906203875
 20
19.201613188176985
 30
0.0
 11
-95.95911601805233
 21
17.394993205857737
 31
0.0
  0
LINE
  5
313
330
17
100
AcDbEntity
  8
0
100
AcDbLine
 10
-95.95911601805233
 20
17.394993205857737
 30
0.0
 11
-96.28075648974979
 21
15.58175458480181
 31
0.0
  0
LINE
  5
314
330
17
100
AcDbEntity
  8
0
100
AcDbLine
 10
-96.28075648974979
 20
15.58175458480181
 30
0.0
 11
-96.56696809581946
 21
13.76258724602456
 31
0.0
  0
LINE
  5
315
330
17
100
AcDbEntity
  8
0
100
AcDbLine
 10
-96.56696809581946
 20
13.76258724602456
 30
0.0
 11
-96.81764193531488
 21
11.938183366365461
 31
0.0
  0
LINE
  5
316
330
17
100
AcDbEntity
  8
0
100
AcDbLine
 10
-96.81764193531488
 20
11.938183366365461
 30
0.0
 11
-97.03268262909083
 21
10.109237115120518
 31
0.0
  0
LINE
  5
317
330
17
100
AcDbEntity
  8
0
100
AcDbLine
 10
-97.03268262909083
 20
10.109237115120518
 30
0.0
 11
-97.21200835609397
 21
8.276444389917348
 31
0.0
  0
LINE
  5
318
330
17
100
AcDbEntity
  8
0
100
AcDbLine
 10
-97.21200835609397
 20
8.276444389917348
 30
0.0
 11
-97.35555088449527
 21
6.440502551932623
 31
0.0
  0
LINE
  5
319
330
17
100
AcDbEntity
  8
0
100
AcDbLine
 10
-97.35555088449527
 20
6.440502551932623
 30
0.0
 11
-97.46325559765143
 21
4.602110160551905
 31
0.0
  0
LINE
  5
31A
330
17
100
AcDbEntity
  8
0
100
AcDbLine
 10
-97.46325559765143
 20
4.602110160551905
 30
0.0
 11
-97.5350815148861
 21
2.76196670757432
 31
0.0
  0
LINE
  5
31B
330
17
100
AcDbEntity
  8
0
100
AcDbLine
 10
-97.5350815148861
 20
2.76196670757432
 30
0.0
 11
-97.57100130708264
 21
0.9207723510624607
 31
0.0
  0
LINE
  5
31C
330
17
100
AcDbEntity
  8
0
100
AcDbLine
 10
-97.57100130708264
 20
0.9207723510624607
 30
0.0
 11
-97.57100130708265
 21
-0.9207723510619717
 31
0.0
  0
LINE
  5
31D
330
17
100
AcDbEntity
  8
0
100
AcDbLine
 10
-97.57100130708265
 20
-0.9207723510619717
 30
0.0
 11
-97.5350815148861
 21
-2.761966707573915
 31
0.0
  0
LINE
  5
31E
330
17
100
AcDbEntity
  8
0
100
AcDbLine
 10
-97.5350815148861
 20
-2.761966707573915
 30
0.0
 11
-97.46325559765143
 21
-4.602110160551417
 31
0.0
  0
LINE
  5
31F
330
17
100
AcDbEntity
  8
0
100
AcDbLine
 10
-97.46325559765143
 20
-4.602110160551417
 30
0.0
 11
-97.35555088449529
 21
-6.440502551932135
 31
0.0
  0
LINE
  5
320
330
17
100
AcDbEntity
  8
0
100
AcDbLine
 10
-97.35555088449529
 20
-6.440502551932135
 30
0.0
 11
-97.21200835609399
 21
-8.276444389916943
 31
0.0
  0
LINE
  5
321
330
17
100
AcDbEntity
  8
0
100
AcDbLine
 10
-97.21200835609399
 20
-8.276444389916943
 30
0.0
 11
-97.03268262909083
 21
-10.10923711512003
 31
0.0
  0
LINE
  5
322
330
17
100
AcDbEntity
  8
0
100
AcDbLine
 10
-97.03268262909083
 20
-10.10923711512003
 30
0.0
 11
-96.81764193531491
 21
-11.93818336636497
 31
0.0
  0
LINE
  5
323
330
17
100
AcDbEntity
  8
0
100
AcDbLine
 10
-96.81764193531491
 20
-11.93818336636497
 30
0.0
 11
-96.56696809581946
 21
-13.762587246024156
 31
0.0
  0
LINE
  5
324
330
17
100
AcDbEntity
  8
0
100
AcDbLine
 10
-96.56696809581946
 20
-13.762587246024156
 30
0.0
 11
-96.2807564897498
 21
-15.581754584801322
 31
0.0
  0
LINE
  5
325
330
17
100
AcDbEntity
  8
0
100
AcDbLine
 10
-96.2807564897498
 20
-15.581754584801322
 30
0.0
 11
-95.95911601805236
 21
-17.39499320585725
 31
0.0
  0
LINE
  5
326
330
17
100
AcDbEntity
  8
0
100
AcDbLine
 10
-95.95911601805236
 20
-17.39499320585725
 30
0.0
 11
-95.60216906203875
 21
-19.20161318817658
 31
0.0
  0
LINE
  5
327
330
17
100
AcDbEntity
  8
0
100
AcDbLine
 10
-95.60216906203875
 20
-19.20161318817658
 30
0.0
 11
-95.21005143682103
 21
-21.000927129076324
 31
0.0
  0
LINE
  5
328
330
17
100
AcDbEntity
  8
0
100
AcDbLine
 10
-95.21005143682103
 20
-21.000927129076324
 30
0.0
 11
-94.78291233963495
 21
-22.792250405756985
 31
0.0
  0
LINE
  5
329
330
17
100
AcDbEntity
  8
0
100
AcDbLine
 10
-94.78291233963495
 20
-22.792250405756985
 30
0.0
 11
-94.32091429307205
 21
-24.574901435794732
 31
0.0
  0
LINE
  5
32A
330
17
100
AcDbEntity
  8
0
100
AcDbLine
 10
-94.32091429307205
 20
-24.574901435794732
 30
0.0
 11
-93.82423308324101
 21
-26.348201936478038
 31
0.0
  0
LINE
  5
32B
330
17
100
AcDbEntity
  8
0
100
AcDbLine
 10
-93.82423308324101
 20
-26.348201936478038
 30
0.0
 11
-93.29305769288288
 21
-28.11147718288753
 31
0.0
  0
LINE
  5
32C
330
17
100
AcDbEntity
  8
0
100
AcDbLine
 10
-93.29305769288288
 20
-28.11147718288753
 30
0.0
 11
-92.72759022946458
 21
-29.864056264623308
 31
0.0
  0
LINE
  5
32D
330
17
100
AcDbEntity
  8
0
100
AcDbLine
 10
-92.72759022946458
 20
-29.864056264623308
 30
0.0
 11
-92.12804584827894
 21
-31.605272341080106
 31
0.0
  0
LINE
  5
32E
330
17
100
AcDbEntity
  8
0
100
AcDbLine
 10
-92.12804584827894
 20
-31.605272341080106
 30
0.0
 11
-91.49465267058017
 21
-33.3344628951739
 31
0.0
  0
LINE
  5
32F
330
17
100
AcDbEntity
  8
0
100
AcDbLine
 10
-91.49465267058017
 20
-33.3344628951739
 30
0.0
 11
-90.82765169678551
 21
-35.050969985424196
 31
0.0
  0
LINE
  5
330
330
17
100
AcDbEntity
  8
0
100
AcDbLine
 10
-90.82765169678551
 20
-35.050969985424196
 30
0.0
 11
-90.12729671477689
 21
-36.75414049629461
 31
0.0
  0
LINE
  5
331
330
17
100
AcDbEntity
  8
0
100
AcDbLine
 10
-90.12729671477689
 20
-36.75414049629461
 30
0.0
 11
-89.39385420333704
 21
-38.44332638669726
 31
0.0
  0
LINE
  5
332
330
17
100
AcDbEntity
  8
0
100
AcDbLine
 10
-89.39385420333704
 20
-38.44332638669726
 30
0.0
 11
-88.62760323075642
 21
-40.11788493656699
 31
0.0
  0
LINE
  5
333
330
17
100
AcDbEntity
  8
0
100
AcDbLine
 10
-88.62760323075642
 20
-40.11788493656699
 30
0.0
 11
-87.8288353486504
 21
-41.77717899141041
 31
0.0
  0
LINE
  5
334
330
17
100
AcDbEntity
  8
0
100
AcDbLine
 10
-87.8288353486504
 20
-41.77717899141041
 30
0.0
 11
-86.99785448102655
 21
-43.42057720473721
 31
0.0
  0
LINE
  5
335
330
17
100
AcDbEntity
  8
0
100
AcDbLine
 10
-86.99785448102655
 20
-43.42057720473721
 30
0.0
 11
-86.1349768086442
 21
-45.04745427828227
 31
0.0
  0
LINE
  5
336
330
17
100
AcDbEntity
  8
0
100
AcDbLine
 10
-86.1349768086442
 20
-45.04745427828227
 30
0.0
 11
-85.2405306487104
 21
-46.65719119992585
 31
0.0
  0
LINE
  5
337
330
17
100
AcDbEntity
  8
0
100
AcDbLine
 10
-85.2405306487104
 20
-46.65719119992585
 30
0.0
 11
-84.31485632995845
 21
-48.24917547922187
 31
0.0
  0
LINE
  5
338
330
17
100
AcDbEntity
  8
0
100
AcDbLine
 10
-84.31485632995845
 20
-48.24917547922187
 30
0.0
 11
-83.3583060631556
 21
-49.82280138044552
 31
0.0
  0
LINE
  5
339
330
17
100
AcDbEntity
  8
0
100
AcDbLine
 10
-83.3583060631556
 20
-49.82280138044552
 30
0.0
 11
-82.37124380709005
 21
-51.377470153069986
 31
0.0
  0
LINE
  5
33A
330
17
100
AcDbEntity
  8
0
100
AcDbLine
 10
-82.37124380709005
 20
-51.377470153069986
 30
0.0
 11
-81.35404513008818
 21
-52.9125902595855
 31
0.0
  0
LINE
  5
33B
330
17
100
AcDbEntity
  8
0
100
AcDbLine
 10
-81.35404513008818
 20
-52.9125902595855
 30
0.0
 11
-80.30709706711372
 21
-54.42757760057449
 31
0.0
  0
LINE
  5
33C
330
17
100
AcDbEntity
  8
0
100
AcDbLine
 10
-80.30709706711372
 20
-54.42757760057449
 30
0.0
 11
-79.23079797250487
 21
-55.921855736955656
 31
0.0
  0
LINE
  5
33D
330
17
100
AcDbEntity
  8
0
100
AcDbLine
 10
-79.23079797250487
 20
-55.921855736955656
 30
0.0
 11
-78.12555736840372
 21
-57.39485610931429
 31
0.0
  0
LINE
  5
33E
330
17
100
AcDbEntity
  8
0
100
AcDbLine
 10
-78.12555736840372
 20
-57.39485610931429
 30
0.0
 11
-76.99179578893684
 21
-58.8460182542339
 31
0.0
  0
LINE
  5
33F
330
17
100
AcDbEntity
  8
0
100
AcDbLine
 10
-76.99179578893684
 20
-58.8460182542339
 30
0.0
 11
-75.82994462020604
 21
-60.2747900175472
 31
0.0
  0
LINE
  5
340
330
17
100
AcDbEntity
  8
0
100
AcDbLine
 10
-75.82994462020604
 20
-60.2747900175472
 30
0.0
 11
-74.6404459361494
 21
-61.68062776442641
 31
0.0
  0
LINE
  5
341
330
17
100
AcDbEntity
  8
0
100
AcDbLine
 10
-74.6404459361494
 20
-61.68062776442641
 30
0.0
 11
-73.42375233033661
 21
-63.06299658623079
 31
0.0
  0
LINE
  5
342
330
17
100
AcDbEntity
  8
0
100
AcDbLine
 10
-73.42375233033661
 20
-63.06299658623079
 30
0.0
 11
-72.18032674376074
 21
-64.42137050403508
 31
0.0
  0
LINE
  5
343
330
17
100
AcDbEntity
  8
0
100
AcDbLine
 10
-72.18032674376074
 20
-64.42137050403508
 30
0.0
 11
-70.91064228869351
 21
-65.75523266875958
 31
0.0
  0
LINE
  5
344
330
17
100
AcDbEntity
  8
0
100
AcDbLine
 10
-70.91064228869351
 20
-65.75523266875958
 30
0.0
 11
-69.61518206867053
 21
-67.06407555782633
 31
0.0
  0
LINE
  5
345
330
17
100
AcDbEntity
  8
0
100
AcDbLine
 10
-69.61518206867053
 20
-67.06407555782633
 30
0.0
 11
-68.2944389946744
 21
-68.34740116826734
 31
0.0
  0
LINE
  5
346
330
17
100
AcDbEntity
  8
0
100
AcDbLine
 10
-68.2944389946744
 20
-68.34740116826734
 30
0.0
 11
-66.94891559758662
 21
-69.60472120621004
 31
0.0
  0
LINE
  5
347
330
17
100
AcDbEntity
  8
0
100
AcDbLine
 10
-66.94891559758662
 20
-69.60472120621004
 30
0.0
 11
-65.57912383697933
 21
-70.83555727266854
 31
0.0
  0
LINE
  5
348
330
17
100
AcDbEntity
  8
0
100
AcDbLine
 10
-65.57912383697933
 20
-70.83555727266854
 30
0.0
 11
-64.18558490631897
 21
-72.03944104557043
 31
0.0
  0
LINE
  5
349
330
17
100
AcDbEntity
  8
0
100
AcDbLine
 10
-64.18558490631897
 20
-72.03944104557043
 30
0.0
 11
-62.768829034656875
 21
-73.21591445794907
 31
0.0
  0
LINE
  5
34A
330
17
100
AcDbEntity
  8
0
100
AcDbLine
 10
-62.768829034656875
 20
-73.21591445794907
 30
0.0
 11
-61.329395284882246
 21
-74.36452987223373
 31
0.0
  0
LINE
  5
34B
330
17
100
AcDbEntity
  8
0
100
AcDbLine
 10
-61.329395284882246
 20
-74.36452987223373
 30
0.0
 11
-59.86783134861308
 21
-75.48485025057198
 31
0.0
  0
LINE
  5
34C
330
17
100
AcDbEntity
  8
0
100
AcDbLine
 10
-59.86783134861308
 20
-75.48485025057198
 30
0.0
 11
-58.384693337804656
 21
-76.57644932111853
 31
0.0
  0
LINE
  5
34D
330
17
100
AcDbEntity
  8
0
100
AcDbLine
 10
-58.384693337804656
 20
-76.57644932111853
 30
0.0
 11
-56.880545573154095
 21
-77.63891174022768
 31
0.0
  0
LINE
  5
34E
330
17
100
AcDbEntity
  8
0
100
AcDbLine
 10
-21.54073300074722
 20
96.95561044720077
 30
0.0
 11
-21.910704097765972
 21
96.80073642535862
 31
0.0
  0
LINE
  5
34F
330
17
100
AcDbEntity
  8
0
100
AcDbLine
 10
-21.910704097765972
 20
96.80073642535862
 30
0.0
 11
-22.280498885098503
 21
96.64503097208825
 31
0.0
  0
LINE
  5
350
330
17
100
AcDbEntity
  8
0
100
AcDbLine
 10
-22.280498885098503
 20
96.64503097208825
 30
0.0
 11
-22.650114613412878
 21
96.48849424153381
 31
0.0
  0
LINE
  5
351
330
17
100
AcDbEntity
  8
0
100
AcDbLine
 10
-22.650114613412878
 20
96.48849424153381
 30
0.0
 11
-23.01954853337669
 21
96.33112638783973
 31
0.0
  0
LINE
  5
352
330
17
100
AcDbEntity
  8
0
100
AcDbLine
 10
-23.01954853337669
 20
96.33112638783973
 30
0.0
 11
-23.38879789565769
 21
96.17292756515032
 31
0.0
  0
LINE
  5
353
330
17
100
AcDbEntity
  8
0
100
AcDbLine
 10
-23.38879789565769
 20
96.17292756515032
 30
0.0
 11
-23.75785995092347
 21
96.01389792760993
 31
0.0
  0
LINE
  5
354
330
17
100
AcDbEntity
  8
0
100
AcDbLine
 10
-23.75785995092347
 20
96.01389792760993
 30
0.0
 11
-24.1267319498421
 21
95.8540376293628
 31
0.0
  0
LINE
  5
355
330
17
100
AcDbEntity
  8
0
100
AcDbLine
 10
-24.1267319498421
 20
95.8540376293628
 30
0.0
 11
-24.495411143081174
 21
95.69334682455326
 31
0.0
  0
LINE
  5
356
330
17
100
AcDbEntity
  8
0
100
AcDbLine
 10
-24.495411143081174
 20
95.69334682455326
 30
0.0
 11
-24.86389478130844
 21
95.53182566732566
 31
0.0
  0
LINE
  5
357
330
17
100
AcDbEntity
  8
0
100
AcDbLine
 10
-24.86389478130844
 20
95.53182566732566
 30
0.0
 11
-25.232180115191493
 21
95.36947431182438
 31
0.0
  0
LINE
  5
358
330
17
100
AcDbEntity
  8
0
100
AcDbLine
 10
-25.232180115191493
 20
95.36947431182438
 30
0.0
 11
-25.600264395398394
 21
95.20629291219359
 31
0.0
  0
LINE
  5
359
330
17
100
AcDbEntity
  8
0
100
AcDbLine
 10
-25.600264395398394
 20
95.20629291219359
 30
0.0
 11
-25.96814487259675
 21
95.04228162257769
 31
0.0
  0
LINE
  5
35A
330
17
100
AcDbEntity
  8
0
100
AcDbLine
 10
-25.96814487259675
 20
95.04228162257769
 30
0.0
 11
-26.335818797454305
 21
94.87744059712101
 31
0.0
  0
LINE
  5
35B
330
17
100
AcDbEntity
  8
0
100
AcDbLine
 10
-26.335818797454305
 20
94.87744059712101
 30
0.0
 11
-26.703283420638645
 21
94.7117699899679
 31
0.0
  0
LINE
  5
35C
330
17
100
AcDbEntity
  8
0
100
AcDbLine
 10
-26.703283420638645
 20
94.7117699899679
 30
0.0
 11
-27.07053599281785
 21
94.54526995526257
 31
0.0
  0
LINE
  5
35D
330
17
100
AcDbEntity
  8
0
100
AcDbLine
 10
-27.07053599281785
 20
94.54526995526257
 30
0.0
 11
-27.4375737646595
 21
94.37794064714939
 31
0.0
  0
LINE
  5
35E
330
17
100
AcDbEntity
  8
0
100
AcDbLine
 10
-27.4375737646595
 20
94.37794064714939
 30
0.0
 11
-27.80439398683136
 21
94.20978221977269
 31
0.0
  0
LINE
  5
35F
330
17
100
AcDbEntity
  8
0
100
AcDbLine
 10
-27.80439398683136
 20
94.20978221977269
 30
0.0
 11
-28.170993910001016
 21
94.04079482727686
 31
0.0
  0
LINE
  5
360
330
17
100
AcDbEntity
  8
0
100
AcDbLine
 10
-28.170993910001016
 20
94.04079482727686
 30
0.0
 11
-28.537370784836536
 21
93.87097862380605
 31
0.0
  0
LINE
  5
361
330
17
100
AcDbEntity
  8
0
100
AcDbLine
 10
-28.537370784836536
 20
93.87097862380605
 30
0.0
 11
-28.903521862005512
 21
93.70033376350469
 31
0.0
  0
LINE
  5
362
330
17
100
AcDbEntity
  8
0
100
AcDbLine
 10
-28.903521862005512
 20
93.70033376350469
 30
0.0
 11
-29.269444392175696
 21
93.52886040051706
 31
0.0
  0
LINE
  5
363
330
17
100
AcDbEntity
  8
0
100
AcDbLine
 10
-29.269444392175696
 20
93.52886040051706
 30
0.0
 11
-29.635135626014687
 21
93.35655868898758
 31
0.0
  0
LINE
  5
364
330
17
100
AcDbEntity
  8
0
100
AcDbLine
 10
-29.635135626014687
 20
93.35655868898758
 30
0.0
 11
-30.000592814190544
 21
93.1834287830604
 31
0.0
  0
LINE
  5
365
330
17
100
AcDbEntity
  8
0
100
AcDbLine
 10
-30.000592814190544
 20
93.1834287830604
 30
0.0
 11
-30.365813207370863
 21
93.00947083687993
 31
0.0
  0
LINE
  5
366
330
17
100
AcDbEntity
  8
0
100
AcDbLine
 10
-30.365813207370863
 20
93.00947083687993
 30
0.0
 11
-30.7307940562234
 21
92.83468500459045
 31
0.0
  0
LINE
  5
367
330
17
100
AcDbEntity
  8
0
100
AcDbLine
 10
-30.7307940562234
 20
92.83468500459045
 30
0.0
 11
-31.095532611415738
 21
92.6590714403364
 31
0.0
  0
LINE
  5
368
330
17
100
AcDbEntity
  8
0
100
AcDbLine
 10
-31.095532611415738
 20
92.6590714403364
 30
0.0
 11
-31.460026123615954
 21
92.48263029826194
 31
0.0
  0
LINE
  5
369
330
17
100
AcDbEntity
  8
0
100
AcDbLine
 10
-31.460026123615954
 20
92.48263029826194
 30
0.0
 11
-31.824271843491633
 21
92.30536173251144
 31
0.0
  0
LINE
  5
36A
330
17
100
AcDbEntity
  8
0
100
AcDbLine
 10
-31.824271843491633
 20
92.30536173251144
 30
0.0
 11
-32.18826702171053
 21
92.12726589722922
 31
0.0
  0
LINE
  5
36B
330
17
100
AcDbEntity
  8
0
100
AcDbLine
 10
-32.18826702171053
 20
92.12726589722922
 30
0.0
 11
-32.55200890894025
 21
91.94834294655969
 31
0.0
  0
LINE
  5
36C
330
17
100
AcDbEntity
  8
0
100
AcDbLine
 10
-32.55200890894025
 20
91.94834294655969
 30
0.0
 11
-32.91549475584884
 21
91.76859303464701
 31
0.0
  0
LINE
  5
36D
330
17
100
AcDbEntity
  8
0
100
AcDbLine
 10
-32.91549475584884
 20
91.76859303464701
 30
0.0
 11
-33.278721813103914
 21
91.58801631563557
 31
0.0
  0
LINE
  5
36E
330
17
100
AcDbEntity
  8
0
100
AcDbLine
 10
-33.278721813103914
 20
91.58801631563557
 30
0.0
 11
-33.6416873313732
 21
91.4066129436697
 31
0.0
  0
LINE
  5
36F
330
17
100
AcDbEntity
  8
0
100
AcDbLine
 10
-33.6416873313732
 20
91.4066129436697
 30
0.0
 11
-34.004388561324305
 21
91.22438307289377
 31
0.0
  0
LINE
  5
370
330
17
100
AcDbEntity
  8
0
100
AcDbLine
 10
-34.004388561324305
 20
91.22438307289377
 30
0.0
 11
-34.3668227536253
 21
91.04132685745196
 31
0.0
  0
LINE
  5
371
330
17
100
AcDbEntity
  8
0
100
AcDbLine
 10
-34.3668227536253
 20
91.04132685745196
 30
0.0
 11
-34.728987158943774
 21
90.85744445148867
 31
0.0
  0
LINE
  5
372
330
17
100
AcDbEntity
  8
0
100
AcDbLine
 10
-34.728987158943774
 20
90.85744445148867
 30
0.0
 11
-35.09087901558282
 21
90.67273600827892
 31
0.0
  0
LINE
  5
373
330
17
100
AcDbEntity
  8
0
100
AcDbLine
 10
-35.09087901558282
 20
90.67273600827892
 30
0.0
 11
-35.45249517520488
 21
90.48720180371997
 31
0.0
  0
LINE
  5
374
330
17
100
AcDbEntity
  8
0
100
AcDbLine
 10
-35.45249517520488
 20
90.48720180371997
 30
0.0
 11
-35.81383270319245
 21
90.30084253510486
 31
0.0
  0
LINE
  5
375
330
17
100
AcDbEntity
  8
0
100
AcDbLine
 10
-35.81383270319245
 20
90.30084253510486
 30
0.0
 11
-36.174888859129894
 21
90.11365897944043
 31
0.0
  0
LINE
  5
376
330
17
100
AcDbEntity
  8
0
100
AcDbLine
 10
-36.174888859129894
 20
90.11365897944043
 30
0.0
 11
-36.53566090260169
 21
89.92565191373345
 31
0.0
  0
LINE
  5
377
330
17
100
AcDbEntity
  8
0
100
AcDbLine
 10
-36.53566090260169
 20
89.92565191373345
 30
0.0
 11
-36.89614609319218
 21
89.73682211499076
 31
0.0
  0
LINE
  5
378
330
17
100
AcDbEntity
  8
0
100
AcDbLine
 10
-36.89614609319218
 20
89.73682211499076
 30
0.0
 11
-37.25634169048616
 21
89.54717036021894
 31
0.0
  0
LINE
  5
379
330
17
100
AcDbEntity
  8
0
100
AcDbLine
 10
-37.25634169048616
 20
89.54717036021894
 30
0.0
 11
-37.61624495406797
 21
89.35669742642487
 31
0.0
  0
LINE
  5
37A
330
17
100
AcDbEntity
  8
0
100
AcDbLine
 10
-37.61624495406797
 20
89.35669742642487
 30
0.0
 11
-37.975853143522116
 21
89.16540409061528
 31
0.0
  0
LINE
  5
37B
330
17
100
AcDbEntity
  8
0
100
AcDbLine
 10
-37.975853143522116
 20
89.16540409061528
 30
0.0
 11
-38.33516351843292
 21
88.97329112979705
 31
0.0
  0
LINE
  5
37C
330
17
100
AcDbEntity
  8
0
100
AcDbLine
 10
-38.33516351843292
 20
88.97329112979705
 30
0.0
 11
-38.69417333838519
 21
88.78035932097673
 31
0.0
  0
LINE
  5
37D
330
17
100
AcDbEntity
  8
0
100
AcDbLine
 10
-38.69417333838519
 20
88.78035932097673
 30
0.0
 11
-39.052879862963266
 21
88.58660944116119
 31
0.0
  0
LINE
  5
37E
330
17
100
AcDbEntity
  8
0
100
AcDbLine
 10
-39.052879862963266
 20
88.58660944116119
 30
0.0
 11
-39.41128035175164
 21
88.3920422673572
 31
0.0
  0
LINE
  5
37F
330
17
100
AcDbEntity
  8
0
100
AcDbLine
 10
-39.41128035175164
 20
88.3920422673572
 30
0.0
 11
-39.76937206433465
 21
88.19665857657158
 31
0.0
  0
LINE
  5
380
330
17
100
AcDbEntity
  8
0
100
AcDbLine
 10
-39.76937206433465
 20
88.19665857657158
 30
0.0
 11
-40.127152260297095
 21
88.00045914581095
 31
0.0
  0
LINE
  5
381
330
17
100
AcDbEntity
  8
0
100
AcDbLine
 10
-40.127152260297095
 20
88.00045914581095
 30
0.0
 11
-40.48461819922331
 21
87.80344475208214
 31
0.0
  0
LINE
  5
382
330
17
100
AcDbEntity
  8
0
100
AcDbLine
 10
-40.48461819922331
 20
87.80344475208214
 30
0.0
 11
-40.8417671406978
 21
87.60561617239192
 31
0.0
  0
LINE
  5
383
330
17
100
AcDbEntity
  8
0
100
AcDbLine
 10
-40.8417671406978
 20
87.60561617239192
 30
0.0
 11
-41.198596344304896
 21
87.40697418374714
 31
0.0
  0
LINE
  5
384
330
17
100
AcDbEntity
  8
0
100
AcDbLine
 10
-41.198596344304896
 20
87.40697418374714
 30
0.0
 11
-41.5551030696294
 21
87.20751956315438
 31
0.0
  0
LINE
  5
385
330
17
100
AcDbEntity
  8
0
100
AcDbLine
 10
-41.5551030696294
 20
87.20751956315438
 30
0.0
 11
-41.91128457625565
 21
87.00725308762048
 31
0.0
  0
LINE
  5
386
330
17
100
AcDbEntity
  8
0
100
AcDbLine
 10
-41.91128457625565
 20
87.00725308762048
 30
0.0
 11
-42.26713812376814
 21
86.80617553415222
 31
0.0
  0
LINE
  5
387
330
17
100
AcDbEntity
  8
0
100
AcDbLine
 10
-42.26713812376814
 20
86.80617553415222
 30
0.0
 11
-42.62266097175121
 21
86.60428767975645
 31
0.0
  0
LINE
  5
388
330
17
100
AcDbEntity
  8
0
100
AcDbLine
 10
-42.62266097175121
 20
86.60428767975645
 30
0.0
 11
-42.97785037978966
 21
86.40159030143974
 31
0.0
  0
LINE
  5
389
330
17
100
AcDbEntity
  8
0
100
AcDbLine
 10
-42.97785037978966
 20
86.40159030143974
 30
0.0
 11
-43.33270360746782
 21
86.19808417620895
 31
0.0
  0
LINE
  5
38A
330
17
100
AcDbEntity
  8
0
100
AcDbLine
 10
-43.33270360746782
 20
86.19808417620895
 30
0.0
 11
-43.687217914370194
 21
85.99377008107083
 31
0.0
  0
LINE
  5
38B
330
17
100
AcDbEntity
  8
0
100
AcDbLine
 10
-43.687217914370194
 20
85.99377008107083
 30
0.0
 11
-44.041390560081126
 21
85.78864879303227
 31
0.0
  0
LINE
  5
38C
330
17
100
AcDbEntity
  8
0
100
AcDbLine
 10
-44.041390560081126
 20
85.78864879303227
 30
0.0
 11
-44.395218804185404
 21
85.5827210890998
 31
0.0
  0
LINE
  5
38D
330
17
100
AcDbEntity
  8
0
100
AcDbLine
 10
-44.395218804185404
 20
85.5827210890998
 30
0.0
 11
-44.74869990626737
 21
85.3759877462803
 31
0.0
  0
LINE
  5
38E
330
17
100
AcDbEntity
  8
0
100
AcDbLine
 10
-44.74869990626737
 20
85.3759877462803
 30
0.0
 11
-45.10183112591152
 21
85.16844954158053
 31
0.0
  0
LINE
  5
38F
330
17
100
AcDbEntity
  8
0
100
AcDbLine
 10
-45.10183112591152
 20
85.16844954158053
 30
0.0
 11
-45.45460972270218
 21
84.96010725200733
 31
0.0
  0
LINE
  5
390
330
17
100
AcDbEntity
  8
0
100
AcDbLine
 10
-45.45460972270218
 20
84.96010725200733
 30
0.0
 11
-45.80703295622418
 21
84.7509616545673
 31
0.0
  0
LINE
  5
391
330
17
100
AcDbEntity
  8
0
100
AcDbLine
 10
-45.80703295622418
 20
84.7509616545673
 30
0.0
 11
-46.159098086061825
 21
84.54101352626729
 31
0.0
  0
LINE
  5
392
330
17
100
AcDbEntity
  8
0
100
AcDbLine
 10
-46.159098086061825
 20
84.54101352626729
 30
0.0
 11
-46.51080237179963
 21
84.33026364411404
 31
0.0
  0
LINE
  5
393
330
17
100
AcDbEntity
  8
0
100
AcDbLine
 10
-46.51080237179963
 20
84.33026364411404
 30
0.0
 11
-46.862143073021926
 21
84.11871278511443
 31
0.0
  0
LINE
  5
394
330
17
100
AcDbEntity
  8
0
100
AcDbLine
 10
-46.862143073021926
 20
84.11871278511443
 30
0.0
 11
-47.21311744931351
 21
83.90636172627501
 31
0.0
  0
LINE
  5
395
330
17
100
AcDbEntity
  8
0
100
AcDbLine
 10
-47.21311744931351
 20
83.90636172627501
 30
0.0
 11
-47.56372276025873
 21
83.69321124460267
 31
0.0
  0
LINE
  5
396
330
17
100
AcDbEntity
  8
0
100
AcDbLine
 10
-47.56372276025873
 20
83.69321124460267
 30
0.0
 11
-47.913956265442074
 21
83.47926211710413
 31
0.0
  0
LINE
  5
397
330
17
100
AcDbEntity
  8
0
100
AcDbLine
 10
-47.913956265442074
 20
83.47926211710413
 30
0.0
 11
-48.26381522444788
 21
83.26451512078627
 31
0.0
  0
LINE
  5
398
330
17
100
AcDbEntity
  8
0
100
AcDbLine
 10
-48.26381522444788
 20
83.26451512078627
 30
0.0
 11
-48.61329689686095
 21
83.04897103265566
 31
0.0
  0
LINE
  5
399
330
17
100
AcDbEntity
  8
0
100
AcDbLine
 10
-48.61329689686095
 20
83.04897103265566
 30
0.0
 11
-48.962398542265625
 21
82.83263062971916
 31
0.0
  0
LINE
  5
39A
330
17
100
AcDbEntity
  8
0
100
AcDbLine
 10
-48.962398542265625
 20
82.83263062971916
 30
0.0
 11
-49.3111174202464
 21
82.61549468898353
 31
0.0
  0
LINE
  5
39B
330
17
100
AcDbEntity
  8
0
100
AcDbLine
 10
-49.3111174202464
 20
82.61549468898353
 30
0.0
 11
-49.65945079038761
 21
82.39756398745563
 31
0.0
  0
LINE
  5
39C
330
17
100
AcDbEntity
  8
0
100
AcDbLine
 10
-49.65945079038761
 20
82.39756398745563
 30
0.0
 11
-50.00739591227404
 21
82.17883930214201
 31
0.0
  0
LINE
  5
39D
330
17
100
AcDbEntity
  8
0
100
AcDbLine
 10
-50.00739591227404
 20
82.17883930214201
 30
0.0
 11
-50.35495004549006
 21
81.95932141004955
 31
0.0
  0
LINE
  5
39E
330
17
100
AcDbEntity
  8
0
100
AcDbLine
 10
-50.35495004549006
 20
81.95932141004955
 30
0.0
 11
-50.702110449620136
 21
81.73901108818501
 31
0.0
  0
LINE
  5
39F
330
17
100
AcDbEntity
  8
0
100
AcDbLine
 10
-50.702110449620136
 20
81.73901108818501
 30
0.0
 11
-51.04887438424863
 21
81.51790911355525
 31
0.0
  0
LINE
  5
3A0
330
17
100
AcDbEntity
  8
0
100
AcDbLine
 10
-51.04887438424863
 20
81.51790911355525
 30
0.0
 11
-51.39523910896032
 21
81.29601626316682
 31
0.0
  0
LINE
  5
3A1
330
17
100
AcDbEntity
  8
0
100
AcDbLine
 10
-51.39523910896032
 20
81.29601626316682
 30
0.0
 11
-51.741201883339556
 21
81.07333331402658
 31
0.0
  0
LINE
  5
3A2
330
17
100
AcDbEntity
  8
0
100
AcDbLine
 10
-51.741201883339556
 20
81.07333331402658
 30
0.0
 11
-52.08675996697083
 21
80.84986104314132
 31
0.0
  0
LINE
  5
3A3
330
17
100
AcDbEntity
  8
0
100
AcDbLine
 10
-52.08675996697083
 20
80.84986104314132
 30
0.0
 11
-52.43191061943849
 21
80.62560022751788
 31
0.0
  0
LINE
  5
3A4
330
17
100
AcDbEntity
  8
0
100
AcDbLine
 10
-52.43191061943849
 20
80.62560022751788
 30
0.0
 11
-52.776651100327314
 21
80.40055164416282
 31
0.0
  0
LINE
  5
3A5
330
17
100
AcDbEntity
  8
0
100
AcDbLine
 10
-52.776651100327314
 20
80.40055164416282
 30
0.0
 11
-53.12097866922167
 21
80.17471607008301
 31
0.0
  0
LINE
  5
3A6
330
17
100
AcDbEntity
  8
0
100
AcDbLine
 10
-53.12097866922167
 20
80.17471607008301
 30
0.0
 11
-53.464890585706016
 21
79.9480942822852
 31
0.0
  0
LINE
  5
3A7
330
17
100
AcDbEntity
  8
0
100
AcDbLine
 10
-53.464890585706016
 20
79.9480942822852
 30
0.0
 11
-53.80838387461911
 21
79.72068718535299
 31
0.0
  0
LINE
  5
3A8
330
17
100
AcDbEntity
  8
0
100
AcDbLine
 10
-53.80838387461911
 20
79.72068718535299
 30
0.0
 11
-54.15145557568978
 21
79.49249611188185
 31
0.0
  0
LINE
  5
3A9
330
17
100
AcDbEntity
  8
0
100
AcDbLine
 10
-54.15145557568978
 20
79.49249611188185
 30
0.0
 11
-54.494103133261106
 21
79.26352245695021
 31
0.0
  0
LINE
  5
3AA
330
17
100
AcDbEntity
  8
0
100
AcDbLine
 10
-54.494103133261106
 20
79.26352245695021
 30
0.0
 11
-54.83632399441495
 21
79.0337676151854
 31
0.0
  0
LINE
  5
3AB
330
17
100
AcDbEntity
  8
0
100
AcDbLine
 10
-54.83632399441495
 20
79.0337676151854
 30
0.0
 11
-55.17811560623299
 21
78.80323298121478
 31
0.0
  0
LINE
  5
3AC
330
17
100
AcDbEntity
  8
0
100
AcDbLine
 10
-55.17811560623299
 20
78.80323298121478
 30
0.0
 11
-55.51947541579741
 21
78.57191994966546
 31
0.0
  0
LINE
  5
3AD
330
17
100
AcDbEntity
  8
0
100
AcDbLine
 10
-55.51947541579741
 20
78.57191994966546
 30
0.0
 11
-55.860400870189885
 21
78.33982991516481
 31
0.0
  0
LINE
  5
3AE
330
17
100
AcDbEntity
  8
0
100
AcDbLine
 10
-55.860400870189885
 20
78.33982991516481
 30
0.0
 11
-56.200889416492274
 21
78.10696427234015
 31
0.0
  0
LINE
  5
3AF
330
17
100
AcDbEntity
  8
0
100
AcDbLine
 10
-56.200889416492274
 20
78.10696427234015
 30
0.0
 11
-56.54093850178629
 21
77.87332441581887
 31
0.0
  0
LINE
  5
3B0
330
17
100
AcDbEntity
  8
0
100
AcDbLine
 10
-56.54093850178629
 20
77.87332441581887
 30
0.0
 11
-56.880545573154066
 21
77.63891174022807
 31
0.0
  0
LINE
  5
3B1
330
17
100
AcDbEntity
  8
0
100
AcDbLine
 10
-20.00000000000006
 20
97.2642500177102
 30
0.0
 11
-20.015975973133344
 21
97.26421811361827
 31
0.0
  0
LINE
  5
3B2
330
17
100
AcDbEntity
  8
0
100
AcDbLine
 10
-20.015975973133344
 20
97.26421811361827
 30
0.0
 11
-20.03195169141717
 21
97.26412240185142
 31
0.0
  0
LINE
  5
3B3
330
17
100
AcDbEntity
  8
0
100
AcDbLine
 10
-20.03195169141717
 20
97.26412240185142
 30
0.0
 11
-20.047926900006146
 21
97.26396288393644
 31
0.0
  0
LINE
  5
3B4
330
17
100
AcDbEntity
  8
0
100
AcDbLine
 10
-20.047926900006146
 20
97.26396288393644
 30
0.0
 11
-20.063901344063012
 21
97.263739562418
 31
0.0
  0
LINE
  5
3B5
330
17
100
AcDbEntity
  8
0
100
AcDbLine
 10
-20.063901344063012
 20
97.263739562418
 30
0.0
 11
-20.0798747687627
 21
97.26345244085849
 31
0.0
  0
LINE
  5
3B6
330
17
100
AcDbEntity
  8
0
100
AcDbLine
 10
-20.0798747687627
 20
97.26345244085849
 30
0.0
 11
-20.095846919296402
 21
97.2631015238381
 31
0.0
  0
LINE
  5
3B7
330
17
100
AcDbEntity
  8
0
100
AcDbLine
 10
-20.095846919296402
 20
97.2631015238381
 30
0.0
 11
-20.111817540875645
 21
97.26268681695468
 31
0.0
  0
LINE
  5
3B8
330
17
100
AcDbEntity
  8
0
100
AcDbLine
 10
-20.111817540875645
 20
97.26268681695468
 30
0.0
 11
-20.127786378736335
 21
97.26220832682367
 31
0.0
  0
LINE
  5
3B9
330
17
100
AcDbEntity
  8
0
100
AcDbLine
 10
-20.127786378736335
 20
97.26220832682367
 30
0.0
 11
-20.143753178142838
 21
97.26166606107795
 31
0.0
  0
LINE
  5
3BA
330
17
100
AcDbEntity
  8
0
100
AcDbLine
 10
-20.143753178142838
 20
97.26166606107795
 30
0.0
 11
-20.159717684392035
 21
97.26106002836775
 31
0.0
  0
LINE
  5
3BB
330
17
100
AcDbEntity
  8
0
100
AcDbLine
 10
-20.159717684392035
 20
97.26106002836775
 30
0.0
 11
-20.175679642817393
 21
97.26039023836057
 31
0.0
  0
LINE
  5
3BC
330
17
100
AcDbEntity
  8
0
100
AcDbLine
 10
-20.175679642817393
 20
97.26039023836057
 30
0.0
 11
-20.19163879879301
 21
97.2596567017409
 31
0.0
  0
LINE
  5
3BD
330
17
100
AcDbEntity
  8
0
100
AcDbLine
 10
-20.19163879879301
 20
97.2596567017409
 30
0.0
 11
-20.207594897737703
 21
97.25885943021017
 31
0.0
  0
LINE
  5
3BE
330
17
100
AcDbEntity
  8
0
100
AcDbLine
 10
-20.207594897737703
 20
97.25885943021017
 30
0.0
 11
-20.223547685119044
 21
97.25799843648646
 31
0.0
  0
LINE
  5
3BF
330
17
100
AcDbEntity
  8
0
100
AcDbLine
 10
-20.223547685119044
 20
97.25799843648646
 30
0.0
 11
-20.239496906457436
 21
97.25707373430443
 31
0.0
  0
LINE
  5
3C0
330
17
100
AcDbEntity
  8
0
100
AcDbLine
 10
-20.239496906457436
 20
97.25707373430443
 30
0.0
 11
-20.255442307330167
 21
97.25608533841493
 31
0.0
  0
LINE
  5
3C1
330
17
100
AcDbEntity
  8
0
100
AcDbLine
 10
-20.255442307330167
 20
97.25608533841493
 30
0.0
 11
-20.27138363337547
 21
97.25503326458492
 31
0.0
  0
LINE
  5
3C2
330
17
100
AcDbEntity
  8
0
100
AcDbLine
 10
-20.27138363337547
 20
97.25503326458492
 30
0.0
 11
-20.287320630296584
 21
97.25391752959712
 31
0.0
  0
LINE
  5
3C3
330
17
100
AcDbEntity
  8
0
100
AcDbLine
 10
-20.287320630296584
 20
97.25391752959712
 30
0.0
 11
-20.303253043865794
 21
97.25273815124979
 31
0.0
  0
LINE
  5
3C4
330
17
100
AcDbEntity
  8
0
100
AcDbLine
 10
-20.303253043865794
 20
97.25273815124979
 30
0.0
 11
-20.31918061992851
 21
97.25149514835643
 31
0.0
  0
LINE
  5
3C5
330
17
100
AcDbEntity
  8
0
100
AcDbLine
 10
-20.31918061992851
 20
97.25149514835643
 30
0.0
 11
-20.335103104407306
 21
97.25018854074547
 31
0.0
  0
LINE
  5
3C6
330
17
100
AcDbEntity
  8
0
100
AcDbLine
 10
-20.335103104407306
 20
97.25018854074547
 30
0.0
 11
-20.351020243305978
 21
97.24881834925998
 31
0.0
  0
LINE
  5
3C7
330
17
100
AcDbEntity
  8
0
100
AcDbLine
 10
-20.351020243305978
 20
97.24881834925998
 30
0.0
 11
-20.366931782713593
 21
97.24738459575732
 31
0.0
  0
LINE
  5
3C8
330
17
100
AcDbEntity
  8
0
100
AcDbLine
 10
-20.366931782713593
 20
97.24738459575732
 30
0.0
 11
-20.382837468808546
 21
97.24588730310879
 31
0.0
  0
LINE
  5
3C9
330
17
100
AcDbEntity
  8
0
100
AcDbLine
 10
-20.382837468808546
 20
97.24588730310879
 30
0.0
 11
-20.3987370478626
 21
97.24432649519927
 31
0.0
  0
LINE
  5
3CA
330
17
100
AcDbEntity
  8
0
100
AcDbLine
 10
-20.3987370478626
 20
97.24432649519927
 30
0.0
 11
-20.414630266244938
 21
97.24270219692684
 31
0.0
  0
LINE
  5
3CB
330
17
100
AcDbEntity
  8
0
100
AcDbLine
 10
-20.414630266244938
 20
97.24270219692684
 30
0.0
 11
-20.43051687042621
 21
97.24101443420238
 31
0.0
  0
LINE
  5
3CC
330
17
100
AcDbEntity
  8
0
100
AcDbLine
 10
-20.43051687042621
 20
97.24101443420238
 30
0.0
 11
-20.446396606982578
 21
97.23926323394917
 31
0.0
  0
LINE
  5
3CD
330
17
100
AcDbEntity
  8
0
100
AcDbLine
 10
-20.446396606982578
 20
97.23926323394917
 30
0.0
 11
-20.46226922259975
 21
97.23744862410241
 31
0.0
  0
LINE
  5
3CE
330
17
100
AcDbEntity
  8
0
100
AcDbLine
 10
-20.46226922259975
 20
97.23744862410241
 30
0.0
 11
-20.47813446407704
 21
97.23557063360887
 31
0.0
  0
LINE
  5
3CF
330
17
100
AcDbEntity
  8
0
100
AcDbLine
 10
-20.47813446407704
 20
97.23557063360887
 30
0.0
 11
-20.493992078331377
 21
97.23362929242631
 31
0.0
  0
LINE
  5
3D0
330
17
100
AcDbEntity
  8
0
100
AcDbLine
 10
-20.493992078331377
 20
97.23362929242631
 30
0.0
 11
-20.50984181240138
 21
97.23162463152313
 31
0.0
  0
LINE
  5
3D1
330
17
100
AcDbEntity
  8
0
100
AcDbLine
 10
-20.50984181240138
 20
97.23162463152313
 30
0.0
 11
-20.525683413451354
 21
97.22955668287774
 31
0.0
  0
LINE
  5
3D2
330
17
100
AcDbEntity
  8
0
100
AcDbLine
 10
-20.525683413451354
 20
97.22955668287774
 30
0.0
 11
-20.541516628775355
 21
97.22742547947817
 31
0.0
  0
LINE
  5
3D3
330
17
100
AcDbEntity
  8
0
100
AcDbLine
 10
-20.541516628775355
 20
97.22742547947817
 30
0.0
 11
-20.5573412058012
 21
97.22523105532147
 31
0.0
  0
LINE
  5
3D4
330
17
100
AcDbEntity
  8
0
100
AcDbLine
 10
-20.5573412058012
 20
97.22523105532147
 30
0.0
 11
-20.573156892094516
 21
97.2229734454132
 31
0.0
  0
LINE
  5
3D5
330
17
100
AcDbEntity
  8
0
100
AcDbLine
 10
-20.573156892094516
 20
97.2229734454132
 30
0.0
 11
-20.588963435362746
 21
97.22065268576685
 31
0.0
  0
LINE
  5
3D6
330
17
100
AcDbEntity
  8
0
100
AcDbLine
 10
-20.588963435362746
 20
97.22065268576685
 30
0.0
 11
-20.604760583459182
 21
97.21826881340328
 31
0.0
  0
LINE
  5
3D7
330
17
100
AcDbEntity
  8
0
100
AcDbLine
 10
-20.604760583459182
 20
97.21826881340328
 30
0.0
 11
-20.620548084386993
 21
97.21582186635014
 31
0.0
  0
LINE
  5
3D8
330
17
100
AcDbEntity
  8
0
100
AcDbLine
 10
-20.620548084386993
 20
97.21582186635014
 30
0.0
 11
-20.636325686303238
 21
97.21331188364124
 31
0.0
  0
LINE
  5
3D9
330
17
100
AcDbEntity
  8
0
100
AcDbLine
 10
-20.636325686303238
 20
97.21331188364124
 30
0.0
 11
-20.65209313752289
 21
97.21073890531594
 31
0.0
  0
LINE
  5
3DA
330
17
100
AcDbEntity
  8
0
100
AcDbLine
 10
-20.65209313752289
 20
97.21073890531594
 30
0.0
 11
-20.667850186522838
 21
97.20810297241852
 31
0.0
  0
LINE
  5
3DB
330
17
100
AcDbEntity
  8
0
100
AcDbLine
 10
-20.667850186522838
 20
97.20810297241852
 30
0.0
 11
-20.68359658194591
 21
97.20540412699746
 31
0.0
  0
LINE
  5
3DC
330
17
100
AcDbEntity
  8
0
100
AcDbLine
 10
-20.68359658194591
 20
97.20540412699746
 30
0.0
 11
-20.69933207260489
 21
97.20264241210492
 31
0.0
  0
LINE
  5
3DD
330
17
100
AcDbEntity
  8
0
100
AcDbLine
 10
-20.69933207260489
 20
97.20264241210492
 30
0.0
 11
-20.7150564074865
 21
97.19981787179589
 31
0.0
  0
LINE
  5
3DE
330
17
100
AcDbEntity
  8
0
100
AcDbLine
 10
-20.7150564074865
 20
97.19981787179589
 30
0.0
 11
-20.730769335755436
 21
97.19693055112754
 31
0.0
  0
LINE
  5
3DF
330
17
100
AcDbEntity
  8
0
100
AcDbLine
 10
-20.730769335755436
 20
97.19693055112754
 30
0.0
 11
-20.746470606758336
 21
97.19398049615855
 31
0.0
  0
LINE
  5
3E0
330
17
100
AcDbEntity
  8
0
100
AcDbLine
 10
-20.746470606758336
 20
97.19398049615855
 30
0.0
 11
-20.762159970027806
 21
97.19096775394836
 31
0.0
  0
LINE
  5
3E1
330
17
100
AcDbEntity
  8
0
100
AcDbLine
 10
-20.762159970027806
 20
97.19096775394836
 30
0.0
 11
-20.7778371752864
 21
97.18789237255633
 31
0.0
  0
LINE
  5
3E2
330
17
100
AcDbEntity
  8
0
100
AcDbLine
 10
-20.7778371752864
 20
97.18789237255633
 30
0.0
 11
-20.793501972450624
 21
97.18475440104113
 31
0.0
  0
LINE
  5
3E3
330
17
100
AcDbEntity
  8
0
100
AcDbLine
 10
-20.793501972450624
 20
97.18475440104113
 30
0.0
 11
-20.80915411163491
 21
97.18155388945979
 31
0.0
  0
LINE
  5
3E4
330
17
100
AcDbEntity
  8
0
100
AcDbLine
 10
-20.80915411163491
 20
97.18155388945979
 30
0.0
 11
-20.824793343155616
 21
97.17829088886705
 31
0.0
  0
LINE
  5
3E5
330
17
100
AcDbEntity
  8
0
100
AcDbLine
 10
-20.824793343155616
 20
97.17829088886705
 30
0.0
 11
-20.840419417535
 21
97.17496545131442
 31
0.0
  0
LINE
  5
3E6
330
17
100
AcDbEntity
  8
0
100
AcDbLine
 10
-20.840419417535
 20
97.17496545131442
 30
0.0
 11
-20.856032085505205
 21
97.17157762984944
 31
0.0
  0
LINE
  5
3E7
330
17
100
AcDbEntity
  8
0
100
AcDbLine
 10
-20.856032085505205
 20
97.17157762984944
 30
0.0
 11
-20.871631098012237
 21
97.16812747851479
 31
0.0
  0
LINE
  5
3E8
330
17
100
AcDbEntity
  8
0
100
AcDbLine
 10
-20.871631098012237
 20
97.16812747851479
 30
0.0
 11
-20.88721620621993
 21
97.16461505234744
 31
0.0
  0
LINE
  5
3E9
330
17
100
AcDbEntity
  8
0
100
AcDbLine
 10
-20.88721620621993
 20
97.16461505234744
 30
0.0
 11
-20.90278716151392
 21
97.1610404073778
 31
0.0
  0
LINE
  5
3EA
330
17
100
AcDbEntity
  8
0
100
AcDbLine
 10
-20.90278716151392
 20
97.1610404073778
 30
0.0
 11
-20.918343715505618
 21
97.15740360062874
 31
0.0
  0
LINE
  5
3EB
330
17
100
AcDbEntity
  8
0
100
AcDbLine
 10
-20.918343715505618
 20
97.15740360062874
 30
0.0
 11
-20.93388562003615
 21
97.15370469011478
 31
0.0
  0
LINE
  5
3EC
330
17
100
AcDbEntity
  8
0
100
AcDbLine
 10
-20.93388562003615
 20
97.15370469011478
 30
0.0
 11
-20.949412627180347
 21
97.1499437348411
 31
0.0
  0
LINE
  5
3ED
330
17
100
AcDbEntity
  8
0
100
AcDbLine
 10
-20.949412627180347
 20
97.1499437348411
 30
0.0
 11
-20.964924489250677
 21
97.14612079480266
 31
0.0
  0
LINE
  5
3EE
330
17
100
AcDbEntity
  8
0
100
AcDbLine
 10
-20.964924489250677
 20
97.14612079480266
 30
0.0
 11
-20.9804209588012
 21
97.14223593098315
 31
0.0
  0
LINE
  5
3EF
330
17
100
AcDbEntity
  8
0
100
AcDbLine
 10
-20.9804209588012
 20
97.14223593098315
 30
0.0
 11
-20.995901788631528
 21
97.1382892053541
 31
0.0
  0
LINE
  5
3F0
330
17
100
AcDbEntity
  8
0
100
AcDbLine
 10
-20.995901788631528
 20
97.1382892053541
 30
0.0
 11
-21.011366731790748
 21
97.13428068087387
 31
0.0
  0
LINE
  5
3F1
330
17
100
AcDbEntity
  8
0
100
AcDbLine
 10
-21.011366731790748
 20
97.13428068087387
 30
0.0
 11
-21.026815541581374
 21
97.13021042148661
 31
0.0
  0
LINE
  5
3F2
330
17
100
AcDbEntity
  8
0
100
AcDbLine
 10
-21.026815541581374
 20
97.13021042148661
 30
0.0
 11
-21.04224797156328
 21
97.1260784921213
 31
0.0
  0
LINE
  5
3F3
330
17
100
AcDbEntity
  8
0
100
AcDbLine
 10
-21.04224797156328
 20
97.1260784921213
 30
0.0
 11
-21.057663775557646
 21
97.12188495869066
 31
0.0
  0
LINE
  5
3F4
330
17
100
AcDbEntity
  8
0
100
AcDbLine
 10
-21.057663775557646
 20
97.12188495869066
 30
0.0
 11
-21.073062707650845
 21
97.11762988809012
 31
0.0
  0
LINE
  5
3F5
330
17
100
AcDbEntity
  8
0
100
AcDbLine
 10
-21.073062707650845
 20
97.11762988809012
 30
0.0
 11
-21.088444522198408
 21
97.11331334819677
 31
0.0
  0
LINE
  5
3F6
330
17
100
AcDbEntity
  8
0
100
AcDbLine
 10
-21.088444522198408
 20
97.11331334819677
 30
0.0
 11
-21.103808973828926
 21
97.10893540786826
 31
0.0
  0
LINE
  5
3F7
330
17
100
AcDbEntity
  8
0
100
AcDbLine
 10
-21.103808973828926
 20
97.10893540786826
 30
0.0
 11
-21.119155817447957
 21
97.10449613694169
 31
0.0
  0
LINE
  5
3F8
330
17
100
AcDbEntity
  8
0
100
AcDbLine
 10
-21.119155817447957
 20
97.10449613694169
 30
0.0
 11
-21.134484808241947
 21
97.09999560623251
 31
0.0
  0
LINE
  5
3F9
330
17
100
AcDbEntity
  8
0
100
AcDbLine
 10
-21.134484808241947
 20
97.09999560623251
 30
0.0
 11
-21.14979570168213
 21
97.09543388753339
 31
0.0
  0
LINE
  5
3FA
330
17
100
AcDbEntity
  8
0
100
AcDbLine
 10
-21.14979570168213
 20
97.09543388753339
 30
0.0
 11
-21.16508825352843
 21
97.0908110536131
 31
0.0
  0
LINE
  5
3FB
330
17
100
AcDbEntity
  8
0
100
AcDbLine
 10
-21.16508825352843
 20
97.0908110536131
 30
0.0
 11
-21.18036221983336
 21
97.08612717821525
 31
0.0
  0
LINE
  5
3FC
330
17
100
AcDbEntity
  8
0
100
AcDbLine
 10
-21.18036221983336
 20
97.08612717821525
 30
0.0
 11
-21.195617356945903
 21
97.08138233605729
 31
0.0
  0
LINE
  5
3FD
330
17
100
AcDbEntity
  8
0
100
AcDbLine
 10
-21.195617356945903
 20
97.08138233605729
 30
0.0
 11
-21.210853421515413
 21
97.07657660282912
 31
0.0
  0
LINE
  5
3FE
330
17
100
AcDbEntity
  8
0
100
AcDbLine
 10
-21.210853421515413
 20
97.07657660282912
 30
0.0
 11
-21.226070170495486
 21
97.07171005519206
 31
0.0
  0
LINE
  5
3FF
330
17
100
AcDbEntity
  8
0
100
AcDbLine
 10
-21.226070170495486
 20
97.07171005519206
 30
0.0
 11
-21.24126736114784
 21
97.06678277077745
 31
0.0
  0
LINE
  5
400
330
17
100
AcDbEntity
  8
0
100
AcDbLine
 10
-21.24126736114784
 20
97.06678277077745
 30
0.0
 11
-21.256444751046203
 21
97.06179482818558
 31
0.0
  0
LINE
  5
401
330
17
100
AcDbEntity
  8
0
100
AcDbLine
 10
-21.256444751046203
 20
97.06179482818558
 30
0.0
 11
-21.27160209808014
 21
97.05674630698437
 31
0.0
  0
LINE
  5
402
330
17
100
AcDbEntity
  8
0
100
AcDbLine
 10
-21.27160209808014
 20
97.05674630698437
 30
0.0
 11
-21.286739160458964
 21
97.05163728770802
 31
0.0
  0
LINE
  5
403
330
17
100
AcDbEntity
  8
0
100
AcDbLine
 10
-21.286739160458964
 20
97.05163728770802
 30
0.0
 11
-21.301855696715556
 21
97.04646785185585
 31
0.0
  0
LINE
  5
404
330
17
100
AcDbEntity
  8
0
100
AcDbLine
 10
-21.301855696715556
 20
97.04646785185585
 30
0.0
 11
-21.316951465710236
 21
97.04123808189094
 31
0.0
  0
LINE
  5
405
330
17
100
AcDbEntity
  8
0
100
AcDbLine
 10
-21.316951465710236
 20
97.04123808189094
 30
0.0
 11
-21.3320262266346
 21
97.03594806123883
 31
0.0
  0
LINE
  5
406
330
17
100
AcDbEntity
  8
0
100
AcDbLine
 10
-21.3320262266346
 20
97.03594806123883
 30
0.0
 11
-21.347079739015374
 21
97.03059787428617
 31
0.0
  0
LINE
  5
407
330
17
100
AcDbEntity
  8
0
100
AcDbLine
 10
-21.347079739015374
 20
97.03059787428617
 30
0.0
 11
-21.36211176271823
 21
97.02518760637939
 31
0.0
  0
LINE
  5
408
330
17
100
AcDbEntity
  8
0
100
AcDbLine
 10
-21.36211176271823
 20
97.02518760637939
 30
0.0
 11
-21.37712205795164
 21
97.01971734382332
 31
0.0
  0
LINE
  5
409
330
17
100
AcDbEntity
  8
0
100
AcDbLine
 10
-21.37712205795164
 20
97.01971734382332
 30
0.0
 11
-21.392110385270687
 21
97.01418717387983
 31
0.0
  0
LINE
  5
40A
330
17
100
AcDbEntity
  8
0
100
AcDbLine
 10
-21.392110385270687
 20
97.01418717387983
 30
0.0
 11
-21.40707650558088
 21
97.00859718476649
 31
0.0
  0
LINE
  5
40B
330
17
100
AcDbEntity
  8
0
100
AcDbLine
 10
-21.40707650558088
 20
97.00859718476649
 30
0.0
 11
-21.422020180141974
 21
97.00294746565503
 31
0.0
  0
LINE
  5
40C
330
17
100
AcDbEntity
  8
0
100
AcDbLine
 10
-21.422020180141974
 20
97.00294746565503
 30
0.0
 11
-21.4369411705718
 21
96.99723810667003
 31
0.0
  0
LINE
  5
40D
330
17
100
AcDbEntity
  8
0
100
AcDbLine
 10
-21.4369411705718
 20
96.99723810667003
 30
0.0
 11
-21.451839238850024
 21
96.99146919888744
 31
0.0
  0
LINE
  5
40E
330
17
100
AcDbEntity
  8
0
100
AcDbLine
 10
-21.451839238850024
 20
96.99146919888744
 30
0.0
 11
-21.466714147321976
 21
96.98564083433317
 31
0.0
  0
LINE
  5
40F
330
17
100
AcDbEntity
  8
0
100
AcDbLine
 10
-21.466714147321976
 20
96.98564083433317
 30
0.0
 11
-21.481565658702433
 21
96.97975310598153
 31
0.0
  0
LINE
  5
410
330
17
100
AcDbEntity
  8
0
100
AcDbLine
 10
-21.481565658702433
 20
96.97975310598153
 30
0.0
 11
-21.496393536079403
 21
96.97380610775384
 31
0.0
  0
LINE
  5
411
330
17
100
AcDbEntity
  8
0
100
AcDbLine
 10
-21.496393536079403
 20
96.97380610775384
 30
0.0
 11
-21.51119754291791
 21
96.96779993451692
 31
0.0
  0
LINE
  5
412
330
17
100
AcDbEntity
  8
0
100
AcDbLine
 10
-21.51119754291791
 20
96.96779993451692
 30
0.0
 11
-21.525977443063745
 21
96.96173468208148
 31
0.0
  0
LINE
  5
413
330
17
100
AcDbEntity
  8
0
100
AcDbLine
 10
-21.525977443063745
 20
96.96173468208148
 30
0.0
 11
-21.54073300074727
 21
96.95561044720073
 31
0.0
  0
LINE
  5
414
330
17
100
AcDbEntity
  8
0
100
AcDbLine
 10
-16.00000000000006
 20
93.2642500177102
 30
0.0
 11
-16.00050348930456
 21
93.32771387304943
 31
0.0
  0
LINE
  5
415
330
17
100
AcDbEntity
  8
0
100
AcDbLine
 10
-16.00050348930456
 20
93.32771387304943
 30
0.0
 11
-16.00201383046732
 21
93.39116175170247
 31
0.0
  0
LINE
  5
416
330
17
100
AcDbEntity
  8
0
100
AcDbLine
 10
-16.00201383046732
 20
93.39116175170247
 30
0.0
 11
-16.00453064326803
 21
93.45457768100516
 31
0.0
  0
LINE
  5
417
330
17
100
AcDbEntity
  8
0
100
AcDbLine
 10
-16.00453064326803
 20
93.45457768100516
 30
0.0
 11
-16.00805329411252
 21
93.51794569633645
 31
0.0
  0
LINE
  5
418
330
17
100
AcDbEntity
  8
0
100
AcDbLine
 10
-16.00805329411252
 20
93.51794569633645
 30
0.0
 11
-16.01258089619229
 21
93.58124984513735
 31
0.0
  0
LINE
  5
419
330
17
100
AcDbEntity
  8
0
100
AcDbLine
 10
-16.01258089619229
 20
93.58124984513735
 30
0.0
 11
-16.01811230970772
 21
93.64447419092693
 31
0.0
  0
LINE
  5
41A
330
17
100
AcDbEntity
  8
0
100
AcDbLine
 10
-16.01811230970772
 20
93.64447419092693
 30
0.0
 11
-16.024646142155046
 21
93.70760281731424
 31
0.0
  0
LINE
  5
41B
330
17
100
AcDbEntity
  8
0
100
AcDbLine
 10
-16.024646142155046
 20
93.70760281731424
 30
0.0
 11
-16.03218074867688
 21
93.7706198320052
 31
0.0
  0
LINE
  5
41C
330
17
100
AcDbEntity
  8
0
100
AcDbLine
 10
-16.03218074867688
 20
93.7706198320052
 30
0.0
 11
-16.04071423247633
 21
93.83350937080334
 31
0.0
  0
LINE
  5
41D
330
17
100
AcDbEntity
  8
0
100
AcDbLine
 10
-16.04071423247633
 20
93.83350937080334
 30
0.0
 11
-16.050244445294485
 21
93.8962556016036
 31
0.0
  0
LINE
  5
41E
330
17
100
AcDbEntity
  8
0
100
AcDbLine
 10
-16.050244445294485
 20
93.8962556016036
 30
0.0
 11
-16.060768987951228
 21
93.95884272837792
 31
0.0
  0
LINE
  5
41F
330
17
100
AcDbEntity
  8
0
100
AcDbLine
 10
-16.060768987951228
 20
93.95884272837792
 30
0.0
 11
-16.072285210949232
 21
94.02125499515184
 31
0.0
  0
LINE
  5
420
330
17
100
AcDbEntity
  8
0
100
AcDbLine
 10
-16.072285210949232
 20
94.02125499515184
 30
0.0
 11
-16.084790215140945
 21
94.08347668997096
 31
0.0
  0
LINE
  5
421
330
17
100
AcDbEntity
  8
0
100
AcDbLine
 10
-16.084790215140945
 20
94.08347668997096
 30
0.0
 11
-16.098280852458434
 21
94.14549214885636
 31
0.0
  0
LINE
  5
422
330
17
100
AcDbEntity
  8
0
100
AcDbLine
 10
-16.098280852458434
 20
94.14549214885636
 30
0.0
 11
-16.112753726705893
 21
94.2072857597479
 31
0.0
  0
LINE
  5
423
330
17
100
AcDbEntity
  8
0
100
AcDbLine
 10
-16.112753726705893
 20
94.2072857597479
 30
0.0
 11
-16.128205194414637
 21
94.26884196643451
 31
0.0
  0
LINE
  5
424
330
17
100
AcDbEntity
  8
0
100
AcDbLine
 10
-16.128205194414637
 20
94.26884196643451
 30
0.0
 11
-16.144631365760294
 21
94.33014527247033
 31
0.0
  0
LINE
  5
425
330
17
100
AcDbEntity
  8
0
100
AcDbLine
 10
-16.144631365760294
 20
94.33014527247033
 30
0.0
 11
-16.16202810554207
 21
94.39118024507592
 31
0.0
  0
LINE
  5
426
330
17
100
AcDbEntity
  8
0
100
AcDbLine
 10
-16.16202810554207
 20
94.39118024507592
 30
0.0
 11
-16.180391034223764
 21
94.45193151902329
 31
0.0
  0
LINE
  5
427
330
17
100
AcDbEntity
  8
0
100
AcDbLine
 10
-16.180391034223764
 20
94.45193151902329
 30
0.0
 11
-16.19971552903628
 21
94.51238380050414
 31
0.0
  0
LINE
  5
428
330
17
100
AcDbEntity
  8
0
100
AcDbLine
 10
-16.19971552903628
 20
94.51238380050414
 30
0.0
 11
-16.219996725141385
 21
94.57252187097988
 31
0.0
  0
LINE
  5
429
330
17
100
AcDbEntity
  8
0
100
AcDbLine
 10
-16.219996725141385
 20
94.57252187097988
 30
0.0
 11
-16.241229516856425
 21
94.63233059101287
 31
0.0
  0
LINE
  5
42A
330
17
100
AcDbEntity
  8
0
100
AcDbLine
 10
-16.241229516856425
 20
94.63233059101287
 30
0.0
 11
-16.263408558939634
 21
94.69179490407768
 31
0.0
  0
LINE
  5
42B
330
17
100
AcDbEntity
  8
0
100
AcDbLine
 10
-16.263408558939634
 20
94.69179490407768
 30
0.0
 11
-16.28652826793577
 21
94.75089984035151
 31
0.0
  0
LINE
  5
42C
330
17
100
AcDbEntity
  8
0
100
AcDbLine
 10
-16.28652826793577
 20
94.75089984035151
 30
0.0
 11
-16.310582823581736
 21
94.80963052048271
 31
0.0
  0
LINE
  5
42D
330
17
100
AcDbEntity
  8
0
100
AcDbLine
 10
-16.310582823581736
 20
94.80963052048271
 30
0.0
 11
-16.335566170271782
 21
94.86797215933665
 31
0.0
  0
LINE
  5
42E
330
17
100
AcDbEntity
  8
0
100
AcDbLine
 10
-16.335566170271782
 20
94.86797215933665
 30
0.0
 11
-16.36147201858199
 21
94.92591006971774
 31
0.0
  0
LINE
  5
42F
330
17
100
AcDbEntity
  8
0
100
AcDbLine
 10
-16.36147201858199
 20
94.92591006971774
 30
0.0
 11
-16.388293846853575
 21
94.98342966606688
 31
0.0
  0
LINE
  5
430
330
17
100
AcDbEntity
  8
0
100
AcDbLine
 10
-16.388293846853575
 20
94.98342966606688
 30
0.0
 11
-16.416024902834717
 21
95.04051646813329
 31
0.0
  0
LINE
  5
431
330
17
100
AcDbEntity
  8
0
100
AcDbLine
 10
-16.416024902834717
 20
95.04051646813329
 30
0.0
 11
-16.444658205380367
 21
95.09715610461984
 31
0.0
  0
LINE
  5
432
330
17
100
AcDbEntity
  8
0
100
AcDbLine
 10
-16.444658205380367
 20
95.09715610461984
 30
0.0
 11
-16.474186546209733
 21
95.15333431680092
 31
0.0
  0
LINE
  5
433
330
17
100
AcDbEntity
  8
0
100
AcDbLine
 10
-16.474186546209733
 20
95.15333431680092
 30
0.0
 11
-16.50460249172092
 21
95.20903696211207
 31
0.0
  0
LINE
  5
434
330
17
100
AcDbEntity
  8
0
100
AcDbLine
 10
-16.50460249172092
 20
95.20903696211207
 30
0.0
 11
-16.535898384862303
 21
95.2642500177102
 31
0.0
  0
LINE
  5
435
330
17
100
AcDbEntity
  8
0
100
AcDbLine
 10
-16.535898384862303
 20
95.2642500177102
 30
0.0
 11
-16.568066347060153
 21
95.31895958400382
 31
0.0
  0
LINE
  5
436
330
17
100
AcDbEntity
  8
0
100
AcDbLine
 10
-16.568066347060153
 20
95.31895958400382
 30
0.0
 11
-16.601098280202002
 21
95.37315188815221
 31
0.0
  0
LINE
  5
437
330
17
100
AcDbEntity
  8
0
100
AcDbLine
 10
-16.601098280202002
 20
95.37315188815221
 30
0.0
 11
-16.634985868675336
 21
95.42681328753258
 31
0.0
  0
LINE
  5
438
330
17
100
AcDbEntity
  8
0
100
AcDbLine
 10
-16.634985868675336
 20
95.42681328753258
 30
0.0
 11
-16.669720581460975
 21
95.47993027317463
 31
0.0
  0
LINE
  5
439
330
17
100
AcDbEntity
  8
0
100
AcDbLine
 10
-16.669720581460975
 20
95.47993027317463
 30
0.0
 11
-16.70529367428073
 21
95.53248947316128
 31
0.0
  0
LINE
  5
43A
330
17
100
AcDbEntity
  8
0
100
AcDbLine
 10
-16.70529367428073
 20
95.53248947316128
 30
0.0
 11
-16.741696191798717
 21
95.58447765599499
 31
0.0
  0
LINE
  5
43B
330
17
100
AcDbEntity
  8
0
100
AcDbLine
 10
-16.741696191798717
 20
95.58447765599499
 30
0.0
 11
-16.778918969875825
 21
95.63588173392876
 31
0.0
  0
LINE
  5
43C
330
17
100
AcDbEntity
  8
0
100
AcDbLine
 10
-16.778918969875825
 20
95.63588173392876
 30
0.0
 11
-16.81695263787673
 21
95.68668876626086
 31
0.0
  0
LINE
  5
43D
330
17
100
AcDbEntity
  8
0
100
AcDbLine
 10
-16.81695263787673
 20
95.68668876626086
 30
0.0
 11
-16.85578762102891
 21
95.73688596259262
 31
0.0
  0
LINE
  5
43E
330
17
100
AcDbEntity
  8
0
100
AcDbLine
 10
-16.85578762102891
 20
95.73688596259262
 30
0.0
 11
-16.895414142833033
 21
95.78646068604829
 31
0.0
  0
LINE
  5
43F
330
17
100
AcDbEntity
  8
0
100
AcDbLine
 10
-16.895414142833033
 20
95.78646068604829
 30
0.0
 11
-16.93582222752415
 21
95.83540045645636
 31
0.0
  0
LINE
  5
440
330
17
100
AcDbEntity
  8
0
100
AcDbLine
 10
-16.93582222752415
 20
95.83540045645636
 30
0.0
 11
-16.977001702583028
 21
95.88369295349133
 31
0.0
  0
LINE
  5
441
330
17
100
AcDbEntity
  8
0
100
AcDbLine
 10
-16.977001702583028
 20
95.88369295349133
 30
0.0
 11
-17.01894220129704
 21
95.93132601977537
 31
0.0
  0
LINE
  5
442
330
17
100
AcDbEntity
  8
0
100
AcDbLine
 10
-17.01894220129704
 20
95.93132601977537
 30
0.0
 11
-17.061633165369926
 21
95.97828766393873
 31
0.0
  0
LINE
  5
443
330
17
100
AcDbEntity
  8
0
100
AcDbLine
 10
-17.061633165369926
 20
95.97828766393873
 30
0.0
 11
-17.10506384757978
 21
96.02456606363864
 31
0.0
  0
LINE
  5
444
330
17
100
AcDbEntity
  8
0
100
AcDbLine
 10
-17.10506384757978
 20
96.02456606363864
 30
0.0
 11
-17.14922331448461
 21
96.07014956853548
 31
0.0
  0
LINE
  5
445
330
17
100
AcDbEntity
  8
0
100
AcDbLine
 10
-17.14922331448461
 20
96.07014956853548
 30
0.0
 11
-17.194100449174776
 21
96.11502670322565
 31
0.0
  0
LINE
  5
446
330
17
100
AcDbEntity
  8
0
100
AcDbLine
 10
-17.194100449174776
 20
96.11502670322565
 30
0.0
 11
-17.239683954071612
 21
96.15918617013048
 31
0.0
  0
LINE
  5
447
330
17
100
AcDbEntity
  8
0
100
AcDbLine
 10
-17.239683954071612
 20
96.15918617013048
 30
0.0
 11
-17.28596235377153
 21
96.20261685234033
 31
0.0
  0
LINE
  5
448
330
17
100
AcDbEntity
  8
0
100
AcDbLine
 10
-17.28596235377153
 20
96.20261685234033
 30
0.0
 11
-17.332923997934895
 21
96.24530781641322
 31
0.0
  0
LINE
  5
449
330
17
100
AcDbEntity
  8
0
100
AcDbLine
 10
-17.332923997934895
 20
96.24530781641322
 30
0.0
 11
-17.38055706421892
 21
96.28724831512723
 31
0.0
  0
LINE
  5
44A
330
17
100
AcDbEntity
  8
0
100
AcDbLine
 10
-17.38055706421892
 20
96.28724831512723
 30
0.0
 11
-17.4288495612539
 21
96.32842779018611
 31
0.0
  0
LINE
  5
44B
330
17
100
AcDbEntity
  8
0
100
AcDbLine
 10
-17.4288495612539
 20
96.32842779018611
 30
0.0
 11
-17.47778933166197
 21
96.36883587487722
 31
0.0
  0
LINE
  5
44C
330
17
100
AcDbEntity
  8
0
100
AcDbLine
 10
-17.47778933166197
 20
96.36883587487722
 30
0.0
 11
-17.52736405511764
 21
96.40846239668134
 31
0.0
  0
LINE
  5
44D
330
17
100
AcDbEntity
  8
0
100
AcDbLine
 10
-17.52736405511764
 20
96.40846239668134
 30
0.0
 11
-17.577561251449392
 21
96.44729737983353
 31
0.0
  0
LINE
  5
44E
330
17
100
AcDbEntity
  8
0
100
AcDbLine
 10
-17.577561251449392
 20
96.44729737983353
 30
0.0
 11
-17.628368283781498
 21
96.48533104783444
 31
0.0
  0
LINE
  5
44F
330
17
100
AcDbEntity
  8
0
100
AcDbLine
 10
-17.628368283781498
 20
96.48533104783444
 30
0.0
 11
-17.67977236171527
 21
96.52255382591154
 31
0.0
  0
LINE
  5
450
330
17
100
AcDbEntity
  8
0
100
AcDbLine
 10
-17.67977236171527
 20
96.52255382591154
 30
0.0
 11
-17.731760544548976
 21
96.55895634342953
 31
0.0
  0
LINE
  5
451
330
17
100
AcDbEntity
  8
0
100
AcDbLine
 10
-17.731760544548976
 20
96.55895634342953
 30
0.0
 11
-17.78431974453562
 21
96.59452943624927
 31
0.0
  0
LINE
  5
452
330
17
100
AcDbEntity
  8
0
100
AcDbLine
 10
-17.78431974453562
 20
96.59452943624927
 30
0.0
 11
-17.837436730177668
 21
96.62926414903492
 31
0.0
  0
LINE
  5
453
330
17
100
AcDbEntity
  8
0
100
AcDbLine
 10
-17.837436730177668
 20
96.62926414903492
 30
0.0
 11
-17.89109812955805
 21
96.66315173750826
 31
0.0
  0
LINE
  5
454
330
17
100
AcDbEntity
  8
0
100
AcDbLine
 10
-17.89109812955805
 20
96.66315173750826
 30
0.0
 11
-17.945290433706436
 21
96.6961836706501
 31
0.0
  0
LINE
  5
455
330
17
100
AcDbEntity
  8
0
100
AcDbLine
 10
-17.945290433706436
 20
96.6961836706501
 30
0.0
 11
-18.00000000000006
 21
96.72835163284795
 31
0.0
  0
LINE
  5
456
330
17
100
AcDbEntity
  8
0
100
AcDbLine
 10
-18.00000000000006
 20
96.72835163284795
 30
0.0
 11
-18.055213055598184
 21
96.75964752598934
 31
0.0
  0
LINE
  5
457
330
17
100
AcDbEntity
  8
0
100
AcDbLine
 10
-18.055213055598184
 20
96.75964752598934
 30
0.0
 11
-18.11091570090933
 21
96.79006347150053
 31
0.0
  0
LINE
  5
458
330
17
100
AcDbEntity
  8
0
100
AcDbLine
 10
-18.11091570090933
 20
96.79006347150053
 30
0.0
 11
-18.16709391309042
 21
96.81959181232989
 31
0.0
  0
LINE
  5
459
330
17
100
AcDbEntity
  8
0
100
AcDbLine
 10
-18.16709391309042
 20
96.81959181232989
 30
0.0
 11
-18.223733549576963
 21
96.84822511487553
 31
0.0
  0
LINE
  5
45A
330
17
100
AcDbEntity
  8
0
100
AcDbLine
 10
-18.223733549576963
 20
96.84822511487553
 30
0.0
 11
-18.280820351643374
 21
96.87595617085668
 31
0.0
  0
LINE
  5
45B
330
17
100
AcDbEntity
  8
0
100
AcDbLine
 10
-18.280820351643374
 20
96.87595617085668
 30
0.0
 11
-18.338339947992516
 21
96.90277799912828
 31
0.0
  0
LINE
  5
45C
330
17
100
AcDbEntity
  8
0
100
AcDbLine
 10
-18.338339947992516
 20
96.90277799912828
 30
0.0
 11
-18.396277858373605
 21
96.92868384743848
 31
0.0
  0
LINE
  5
45D
330
17
100
AcDbEntity
  8
0
100
AcDbLine
 10
-18.396277858373605
 20
96.92868384743848
 30
0.0
 11
-18.454619497227547
 21
96.95366719412853
 31
0.0
  0
LINE
  5
45E
330
17
100
AcDbEntity
  8
0
100
AcDbLine
 10
-18.454619497227547
 20
96.95366719412853
 30
0.0
 11
-18.51335017735875
 21
96.97772174977449
 31
0.0
  0
LINE
  5
45F
330
17
100
AcDbEntity
  8
0
100
AcDbLine
 10
-18.51335017735875
 20
96.97772174977449
 30
0.0
 11
-18.57245511363257
 21
97.00084145877062
 31
0.0
  0
LINE
  5
460
330
17
100
AcDbEntity
  8
0
100
AcDbLine
 10
-18.57245511363257
 20
97.00084145877062
 30
0.0
 11
-18.631919426697383
 21
97.02302050085383
 31
0.0
  0
LINE
  5
461
330
17
100
AcDbEntity
  8
0
100
AcDbLine
 10
-18.631919426697383
 20
97.02302050085383
 30
0.0
 11
-18.691728146730373
 21
97.04425329256887
 31
0.0
  0
LINE
  5
462
330
17
100
AcDbEntity
  8
0
100
AcDbLine
 10
-18.691728146730373
 20
97.04425329256887
 30
0.0
 11
-18.751866217206114
 21
97.06453448867398
 31
0.0
  0
LINE
  5
463
330
17
100
AcDbEntity
  8
0
100
AcDbLine
 10
-18.751866217206114
 20
97.06453448867398
 30
0.0
 11
-18.81231849868696
 21
97.0838589834865
 31
0.0
  0
LINE
  5
464
330
17
100
AcDbEntity
  8
0
100
AcDbLine
 10
-18.81231849868696
 20
97.0838589834865
 30
0.0
 11
-18.87306977263434
 21
97.10222191216819
 31
0.0
  0
LINE
  5
465
330
17
100
AcDbEntity
  8
0
100
AcDbLine
 10
-18.87306977263434
 20
97.10222191216819
 30
0.0
 11
-18.93410474523992
 21
97.11961865194996
 31
0.0
  0
LINE
  5
466
330
17
100
AcDbEntity
  8
0
100
AcDbLine
 10
-18.93410474523992
 20
97.11961865194996
 30
0.0
 11
-18.995408051275742
 21
97.13604482329562
 31
0.0
  0
LINE
  5
467
330
17
100
AcDbEntity
  8
0
100
AcDbLine
 10
-18.995408051275742
 20
97.13604482329562
 30
0.0
 11
-19.056964257962353
 21
97.15149629100436
 31
0.0
  0
LINE
  5
468
330
17
100
AcDbEntity
  8
0
100
AcDbLine
 10
-19.056964257962353
 20
97.15149629100436
 30
0.0
 11
-19.118757868853898
 21
97.16596916525182
 31
0.0
  0
LINE
  5
469
330
17
100
AcDbEntity
  8
0
100
AcDbLine
 10
-19.118757868853898
 20
97.16596916525182
 30
0.0
 11
-19.1807733277393
 21
97.17945980256931
 31
0.0
  0
LINE
  5
46A
330
17
100
AcDbEntity
  8
0
100
AcDbLine
 10
-19.1807733277393
 20
97.17945980256931
 30
0.0
 11
-19.242995022558418
 21
97.19196480676102
 31
0.0
  0
LINE
  5
46B
330
17
100
AcDbEntity
  8
0
100
AcDbLine
 10
-19.242995022558418
 20
97.19196480676102
 30
0.0
 11
-19.30540728933234
 21
97.20348102975903
 31
0.0
  0
LINE
  5
46C
330
17
100
AcDbEntity
  8
0
100
AcDbLine
 10
-19.30540728933234
 20
97.20348102975903
 30
0.0
 11
-19.367994416106658
 21
97.21400557241577
 31
0.0
  0
LINE
  5
46D
330
17
100
AcDbEntity
  8
0
100
AcDbLine
 10
-19.367994416106658
 20
97.21400557241577
 30
0.0
 11
-19.43074064690692
 21
97.22353578523392
 31
0.0
  0
LINE
  5
46E
330
17
100
AcDbEntity
  8
0
100
AcDbLine
 10
-19.43074064690692
 20
97.22353578523392
 30
0.0
 11
-19.49363018570506
 21
97.23206926903337
 31
0.0
  0
LINE
  5
46F
330
17
100
AcDbEntity
  8
0
100
AcDbLine
 10
-19.49363018570506
 20
97.23206926903337
 30
0.0
 11
-19.556647200396014
 21
97.23960387555522
 31
0.0
  0
LINE
  5
470
330
17
100
AcDbEntity
  8
0
100
AcDbLine
 10
-19.556647200396014
 20
97.23960387555522
 30
0.0
 11
-19.619775826783332
 21
97.24613770800254
 31
0.0
  0
LINE
  5
471
330
17
100
AcDbEntity
  8
0
100
AcDbLine
 10
-19.619775826783332
 20
97.24613770800254
 30
0.0
 11
-19.683000172572907
 21
97.25166912151796
 31
0.0
  0
LINE
  5
472
330
17
100
AcDbEntity
  8
0
100
AcDbLine
 10
-19.683000172572907
 20
97.25166912151796
 30
0.0
 11
-19.746304321373803
 21
97.25619672359774
 31
0.0
  0
LINE
  5
473
330
17
100
AcDbEntity
  8
0
100
AcDbLine
 10
-19.746304321373803
 20
97.25619672359774
 30
0.0
 11
-19.80967233670509
 21
97.25971937444223
 31
0.0
  0
LINE
  5
474
330
17
100
AcDbEntity
  8
0
100
AcDbLine
 10
-19.80967233670509
 20
97.25971937444223
 30
0.0
 11
-19.87308826600779
 21
97.26223618724293
 31
0.0
  0
LINE
  5
475
330
17
100
AcDbEntity
  8
0
100
AcDbLine
 10
-19.87308826600779
 20
97.26223618724293
 30
0.0
 11
-19.936536144660828
 21
97.26374652840569
 31
0.0
  0
LINE
  5
476
330
17
100
AcDbEntity
  8
0
100
AcDbLine
 10
-19.936536144660828
 20
97.26374652840569
 30
0.0
 11
-20.00000000000006
 21
97.2642500177102
 31
0.0
  0
ENDSEC
  0
SECTION
  2
OBJECTS
  0
DICTIONARY
  5
A
330
0
100
AcDbDictionary
280
0
281
1
  3
ACAD_COLOR
350
B
  3
ACAD_GROUP
350
C
  3
ACAD_LAYOUT
350
D
  3
ACAD_MATERIAL
350
E
  3
ACAD_MLEADERSTYLE
350
F
  3
ACAD_MLINESTYLE
350
10
  3
ACAD_PLOTSETTINGS
350
11
  3
ACAD_PLOTSTYLENAME
350
12
  3
ACAD_SCALELIST
350
14
  3
ACAD_TABLESTYLE
350
15
  3
ACAD_VISUALSTYLE
350
16
  3
EZDXF_META
350
2D
  0
DICTIONARY
  5
B
330
A
100
AcDbDictionary
280
0
281
1
  0
DICTIONARY
  5
C
330
A
100
AcDbDictionary
280
0
281
1
  0
DICTIONARY
  5
D
330
A
100
AcDbDictionary
280
0
281
1
  3
Model
350
1A
  3
Layout1
350
1E
  0
DICTIONARY
  5
E
330
A
100
AcDbDictionary
280
0
281
1
  3
ByBlock
350
1F
  3
ByLayer
350
20
  3
Global
350
21
  0
DICTIONARY
  5
F
330
A
100
AcDbDictionary
280
0
281
1
  3
Standard
350
2C
  0
DICTIONARY
  5
10
330
A
100
AcDbDictionary
280
0
281
1
  3
Standard
350
22
  0
DICTIONARY
  5
11
330
A
100
AcDbDictionary
280
0
281
1
  0
ACDBDICTIONARYWDFLT
  5
12
330
A
100
AcDbDictionary
280
0
281
1
  3
Normal
350
13
100
AcDbDictionaryWithDefault
340
13
  0
ACDBPLACEHOLDER
  5
13
330
12
  0
DICTIONARY
  5
14
330
A
100
AcDbDictionary
280
0
281
1
  0
DICTIONARY
  5
15
330
A
100
AcDbDictionary
280
0
281
1
  0
DICTIONARY
  5
16
330
A
100
AcDbDictionary
280
0
281
1
  0
LAYOUT
  5
1A
330
D
100
AcDbPlotSettings
  1

  2
Adobe PDF
  4
A3
  6

 40
7.5
 41
20.0
 42
7.5
 43
20.0
 44
420.0
 45
297.0
 46
0.0
 47
0.0
 48
0.0
 49
0.0
140
0.0
141
0.0
142
1.0
143
1.0
 70
1024
 72
1
 73
0
 74
5
  7

 75
16
 76
0
 77
2
 78
300
147
1.0
148
0.0
149
0.0
100
AcDbLayout
  1
Model
 70
1
 71
0
 10
0.0
 20
0.0
 11
420.0
 21
297.0
 12
0.0
 22
0.0
 32
0.0
 14
1e+20
 24
1e+20
 34
1e+20
 15
-1e+20
 25
-1e+20
 35
-1e+20
146
0.0
 13
0.0
 23
0.0
 33
0.0
 16
1.0
 26
0.0
 36
0.0
 17
0.0
 27
1.0
 37
0.0
 76
1
330
17
  0
LAYOUT
  5
1E
330
D
100
AcDbPlotSettings
  1

  2
Adobe PDF
  4
A3
  6

 40
7.5
 41
20.0
 42
7.5
 43
20.0
 44
420.0
 45
297.0
 46
0.0
 47
0.0
 48
0.0
 49
0.0
140
0.0
141
0.0
142
1.0
143
1.0
 70
0
 72
1
 73
0
 74
5
  7

 75
16
 76
0
 77
2
 78
300
147
1.0
148
0.0
149
0.0
100
AcDbLayout
  1
Layout1
 70
1
 71
1
 10
0.0
 20
0.0
 11
420.0
 21
297.0
 12
0.0
 22
0.0
 32
0.0
 14
1e+20
 24
1e+20
 34
1e+20
 15
-1e+20
 25
-1e+20
 35
-1e+20
146
0.0
 13
0.0
 23
0.0
 33
0.0
 16
1.0
 26
0.0
 36
0.0
 17
0.0
 27
1.0
 37
0.0
 76
1
330
1B
  0
MATERIAL
  5
1F
102
{ACAD_REACTORS
330
E
102
}
330
E
100
AcDbMaterial
  1
ByBlock
  2

 70
0
 40
1.0
 71
1
 41
1.0
 91
-1023410177
 42
1.0
 72
1
  3

 73
1
 74
1
 75
1
 44
0.5
 73
0
 45
1.0
 46
1.0
 77
1
  4

 78
1
 79
1
170
1
 48
1.0
171
1
  6

172
1
173
1
174
1
140
1.0
141
1.0
175
1
  7

176
1
177
1
178
1
143
1.0
179
1
  8

270
1
271
1
272
1
145
1.0
146
1.0
273
1
  9

274
1
275
1
276
1
 42
1.0
 72
1
  3

 73
1
 74
1
 75
1
 94
63
  0
MATERIAL
  5
20
102
{ACAD_REACTORS
330
E
102
}
330
E
100
AcDbMaterial
  1
ByLayer
  2

 70
0
 40
1.0
 71
1
 41
1.0
 91
-1023410177
 42
1.0
 72
1
  3

 73
1
 74
1
 75
1
 44
0.5
 73
0
 45
1.0
 46
1.0
 77
1
  4

 78
1
 79
1
170
1
 48
1.0
171
1
  6

172
1
173
1
174
1
140
1.0
141
1.0
175
1
  7

176
1
177
1
178
1
143
1.0
179
1
  8

270
1
271
1
272
1
145
1.0
146
1.0
273
1
  9

274
1
275
1
276
1
 42
1.0
 72
1
  3

 73
1
 74
1
 75
1
 94
63
  0
MATERIAL
  5
21
102
{ACAD_REACTORS
330
E
102
}
330
E
100
AcDbMaterial
  1
Global
  2

 70
0
 40
1.0
 71
1
 41
1.0
 91
-1023410177
 42
1.0
 72
1
  3

 73
1
 74
1
 75
1
 44
0.5
 73
0
 45
1.0
 46
1.0
 77
1
  4

 78
1
 79
1
170
1
 48
1.0
171
1
  6

172
1
173
1
174
1
140
1.0
141
1.0
175
1
  7

176
1
177
1
178
1
143
1.0
179
1
  8

270
1
271
1
272
1
145
1.0
146
1.0
273
1
  9

274
1
275
1
276
1
 42
1.0
 72
1
  3

 73
1
 74
1
 75
1
 94
63
  0
MLINESTYLE
  5
22
102
{ACAD_REACTORS
330
10
102
}
330
10
100
AcDbMlineStyle
  2
Standard
 70
0
  3

 62
256
 51
90.0
 52
90.0
 71
2
 49
0.5
 62
256
  6
BYLAYER
 49
-0.5
 62
256
  6
BYLAYER
  0
MLEADERSTYLE
  5
2C
102
{ACAD_REACTORS
330
F
102
}
330
F
100
AcDbMLeaderStyle
179
2
170
2
171
1
172
0
 90
2
 40
0.0
 41
0.0
173
1
 91
-1056964608
 92
-2
290
1
 42
2.0
291
1
 43
8.0
  3
Standard
 44
4.0
300

342
29
174
1
175
1
176
0
178
1
 93
-1056964608
 45
4.0
292
0
297
0
 46
4.0
 94
-1056964608
 47
1.0
 49
1.0
140
1.0
294
1
141
0.0
177
0
142
1.0
295
0
296
0
143
3.75
271
0
272
9
273
9
  0
DICTIONARY
  5
2D
330
A
100
AcDbDictionary
281
1
  3
CREATED_BY_EZDXF
350
2E
  3
WRITTEN_BY_EZDXF
350
479
  0
DICTIONARYVAR
  5
2E
330
2D
100
DictionaryVariables
280
0
  1
1.0.2 @ 2023-11-27T08:45:38.150669+00:00
  0
DICTIONARYVAR
  5
479
330
2D
100
DictionaryVariables
280
0
  1
1.0.2 @ 2023-11-27T08:45:38.181578+00:00
  0
ENDSEC
  0
EOF
