  0
SECTION
  2
HEADER
  9
$ACADVER
  1
AC1027
  9
$ACADMAINTVER
 70
105
  9
$DWGCODEPAGE
  3
ANSI_1252
  9
$LASTSAVEDBY
  1
ezdxf
  9
$REQUIREDVERSIONS
160
0
  9
$INSBASE
 10
0.0
 20
0.0
 30
0.0
  9
$EXTMIN
 10
1e+20
 20
1e+20
 30
1e+20
  9
$EXTMAX
 10
-1e+20
 20
-1e+20
 30
-1e+20
  9
$LIMMIN
 10
0.0
 20
0.0
  9
$LIMMAX
 10
420.0
 20
297.0
  9
$ORTHOMODE
 70
0
  9
$REGENMODE
 70
1
  9
$FILLMODE
 70
1
  9
$QTEXTMODE
 70
0
  9
$MIRRTEXT
 70
1
  9
$LTSCALE
 40
1.0
  9
$ATTMODE
 70
1
  9
$TEXTSIZE
 40
2.5
  9
$TRACEWID
 40
1.0
  9
$TEXTSTYLE
  7
Standard
  9
$CLAYER
  8
0
  9
$CELTYPE
  6
ByLayer
  9
$CECOLOR
 62
256
  9
$CELTSCALE
 40
1.0
  9
$DISPSILH
 70
0
  9
$DIMSCALE
 40
1.0
  9
$DIMASZ
 40
2.5
  9
$DIMEXO
 40
0.625
  9
$DIMDLI
 40
3.75
  9
$DIMRND
 40
0.0
  9
$DIMDLE
 40
0.0
  9
$DIMEXE
 40
1.25
  9
$DIMTP
 40
0.0
  9
$DIMTM
 40
0.0
  9
$DIMTXT
 40
2.5
  9
$DIMCEN
 40
2.5
  9
$DIMTSZ
 40
0.0
  9
$DIMTOL
 70
0
  9
$DIMLIM
 70
0
  9
$DIMTIH
 70
0
  9
$DIMTOH
 70
0
  9
$DIMSE1
 70
0
  9
$DIMSE2
 70
0
  9
$DIMTAD
 70
1
  9
$DIMZIN
 70
8
  9
$DIMBLK
  1

  9
$DIMASO
 70
1
  9
$DIMSHO
 70
1
  9
$DIMPOST
  1

  9
$DIMAPOST
  1

  9
$DIMALT
 70
0
  9
$DIMALTD
 70
3
  9
$DIMALTF
 40
0.03937007874
  9
$DIMLFAC
 40
1.0
  9
$DIMTOFL
 70
1
  9
$DIMTVP
 40
0.0
  9
$DIMTIX
 70
0
  9
$DIMSOXD
 70
0
  9
$DIMSAH
 70
0
  9
$DIMBLK1
  1

  9
$DIMBLK2
  1

  9
$DIMSTYLE
  2
ISO-25
  9
$DIMCLRD
 70
0
  9
$DIMCLRE
 70
0
  9
$DIMCLRT
 70
0
  9
$DIMTFAC
 40
1.0
  9
$DIMGAP
 40
0.625
  9
$DIMJUST
 70
0
  9
$DIMSD1
 70
0
  9
$DIMSD2
 70
0
  9
$DIMTOLJ
 70
0
  9
$DIMTZIN
 70
8
  9
$DIMALTZ
 70
0
  9
$DIMALTTZ
 70
0
  9
$DIMUPT
 70
0
  9
$DIMDEC
 70
2
  9
$DIMTDEC
 70
2
  9
$DIMALTU
 70
2
  9
$DIMALTTD
 70
3
  9
$DIMTXSTY
  7
Standard
  9
$DIMAUNIT
 70
0
  9
$DIMADEC
 70
0
  9
$DIMALTRND
 40
0.0
  9
$DIMAZIN
 70
0
  9
$DIMDSEP
 70
44
  9
$DIMATFIT
 70
3
  9
$DIMFRAC
 70
0
  9
$DIMLDRBLK
  1

  9
$DIMLUNIT
 70
2
  9
$DIMLWD
 70
-2
  9
$DIMLWE
 70
-2
  9
$DIMTMOVE
 70
0
  9
$DIMFXL
 40
1.0
  9
$DIMFXLON
 70
0
  9
$DIMJOGANG
 40
0.785398163397
  9
$DIMTFILL
 70
0
  9
$DIMTFILLCLR
 70
0
  9
$DIMARCSYM
 70
0
  9
$DIMLTYPE
  6

  9
$DIMLTEX1
  6

  9
$DIMLTEX2
  6

  9
$DIMTXTDIRECTION
 70
0
  9
$LUNITS
 70
2
  9
$LUPREC
 70
4
  9
$SKETCHINC
 40
1.0
  9
$FILLETRAD
 40
10.0
  9
$AUNITS
 70
0
  9
$AUPREC
 70
2
  9
$MENU
  1
.
  9
$ELEVATION
 40
0.0
  9
$PELEVATION
 40
0.0
  9
$THICKNESS
 40
0.0
  9
$LIMCHECK
 70
0
  9
$CHAMFERA
 40
0.0
  9
$CHAMFERB
 40
0.0
  9
$CHAMFERC
 40
0.0
  9
$CHAMFERD
 40
0.0
  9
$SKPOLY
 70
0
  9
$TDCREATE
 40
2460276.0316435187
  9
$TDUCREATE
 40
2458532.153996898
  9
$TDUPDATE
 40
2460276.0316435187
  9
$TDUUPDATE
 40
2458532.1544311
  9
$TDINDWG
 40
0.0
  9
$TDUSRTIMER
 40
0.0
  9
$USRTIMER
 70
1
  9
$ANGBASE
 50
0.0
  9
$ANGDIR
 70
0
  9
$PDMODE
 70
0
  9
$PDSIZE
 40
0.0
  9
$PLINEWID
 40
0.0
  9
$SPLFRAME
 70
0
  9
$SPLINETYPE
 70
6
  9
$SPLINESEGS
 70
8
  9
$HANDSEED
  5
FC
  9
$SURFTAB1
 70
6
  9
$SURFTAB2
 70
6
  9
$SURFTYPE
 70
6
  9
$SURFU
 70
6
  9
$SURFV
 70
6
  9
$UCSBASE
  2

  9
$UCSNAME
  2

  9
$UCSORG
 10
0.0
 20
0.0
 30
0.0
  9
$UCSXDIR
 10
1.0
 20
0.0
 30
0.0
  9
$UCSYDIR
 10
0.0
 20
1.0
 30
0.0
  9
$UCSORTHOREF
  2

  9
$UCSORTHOVIEW
 70
0
  9
$UCSORGTOP
 10
0.0
 20
0.0
 30
0.0
  9
$UCSORGBOTTOM
 10
0.0
 20
0.0
 30
0.0
  9
$UCSORGLEFT
 10
0.0
 20
0.0
 30
0.0
  9
$UCSORGRIGHT
 10
0.0
 20
0.0
 30
0.0
  9
$UCSORGFRONT
 10
0.0
 20
0.0
 30
0.0
  9
$UCSORGBACK
 10
0.0
 20
0.0
 30
0.0
  9
$PUCSBASE
  2

  9
$PUCSNAME
  2

  9
$PUCSORG
 10
0.0
 20
0.0
 30
0.0
  9
$PUCSXDIR
 10
1.0
 20
0.0
 30
0.0
  9
$PUCSYDIR
 10
0.0
 20
1.0
 30
0.0
  9
$PUCSORTHOREF
  2

  9
$PUCSORTHOVIEW
 70
0
  9
$PUCSORGTOP
 10
0.0
 20
0.0
 30
0.0
  9
$PUCSORGBOTTOM
 10
0.0
 20
0.0
 30
0.0
  9
$PUCSORGLEFT
 10
0.0
 20
0.0
 30
0.0
  9
$PUCSORGRIGHT
 10
0.0
 20
0.0
 30
0.0
  9
$PUCSORGFRONT
 10
0.0
 20
0.0
 30
0.0
  9
$PUCSORGBACK
 10
0.0
 20
0.0
 30
0.0
  9
$USERI1
 70
0
  9
$USERI2
 70
0
  9
$USERI3
 70
0
  9
$USERI4
 70
0
  9
$USERI5
 70
0
  9
$USERR1
 40
0.0
  9
$USERR2
 40
0.0
  9
$USERR3
 40
0.0
  9
$USERR4
 40
0.0
  9
$USERR5
 40
0.0
  9
$WORLDVIEW
 70
1
  9
$SHADEDGE
 70
3
  9
$SHADEDIF
 70
70
  9
$TILEMODE
 70
1
  9
$MAXACTVP
 70
64
  9
$PINSBASE
 10
0.0
 20
0.0
 30
0.0
  9
$PLIMCHECK
 70
0
  9
$PEXTMIN
 10
1e+20
 20
1e+20
 30
1e+20
  9
$PEXTMAX
 10
-1e+20
 20
-1e+20
 30
-1e+20
  9
$PLIMMIN
 10
0.0
 20
0.0
  9
$PLIMMAX
 10
420.0
 20
297.0
  9
$UNITMODE
 70
0
  9
$VISRETAIN
 70
1
  9
$PLINEGEN
 70
0
  9
$PSLTSCALE
 70
1
  9
$TREEDEPTH
 70
3020
  9
$CMLSTYLE
  2
Standard
  9
$CMLJUST
 70
0
  9
$CMLSCALE
 40
20.0
  9
$PROXYGRAPHICS
 70
1
  9
$MEASUREMENT
 70
1
  9
$CELWEIGHT
370
-1
  9
$ENDCAPS
280
0
  9
$JOINSTYLE
280
0
  9
$LWDISPLAY
290
0
  9
$INSUNITS
 70
6
  9
$HYPERLINKBASE
  1

  9
$STYLESHEET
  1

  9
$XEDIT
290
1
  9
$CEPSNTYPE
380
0
  9
$PSTYLEMODE
290
1
  9
$FINGERPRINTGUID
  2
{1C5D7CB9-A537-472F-9E5C-3732E0E72E75}
  9
$VERSIONGUID
  2
{D2CDC318-C64B-4062-A0AB-E71B690214BD}
  9
$EXTNAMES
290
1
  9
$PSVPSCALE
 40
0.0
  9
$OLESTARTUP
290
0
  9
$SORTENTS
280
127
  9
$INDEXCTL
280
0
  9
$HIDETEXT
280
1
  9
$XCLIPFRAME
280
0
  9
$HALOGAP
280
0
  9
$OBSCOLOR
 70
257
  9
$OBSLTYPE
280
0
  9
$INTERSECTIONDISPLAY
280
0
  9
$INTERSECTIONCOLOR
 70
257
  9
$DIMASSOC
280
2
  9
$PROJECTNAME
  1

  9
$CAMERADISPLAY
290
0
  9
$LENSLENGTH
 40
50.0
  9
$CAMERAHEIGHT
 40
0.0
  9
$STEPSPERSEC
 40
24.0
  9
$STEPSIZE
 40
100.0
  9
$3DDWFPREC
 40
2.0
  9
$PSOLWIDTH
 40
0.005
  9
$PSOLHEIGHT
 40
0.08
  9
$LOFTANG1
 40
1.570796326795
  9
$LOFTANG2
 40
1.570796326795
  9
$LOFTMAG1
 40
0.0
  9
$LOFTMAG2
 40
0.0
  9
$LOFTPARAM
 70
7
  9
$LOFTNORMALS
280
1
  9
$LATITUDE
 40
37.795
  9
$LONGITUDE
 40
-122.394
  9
$NORTHDIRECTION
 40
0.0
  9
$TIMEZONE
 70
-8000
  9
$LIGHTGLYPHDISPLAY
280
1
  9
$TILEMODELIGHTSYNCH
280
1
  9
$CMATERIAL
347
20
  9
$SOLIDHIST
280
0
  9
$SHOWHIST
280
1
  9
$DWFFRAME
280
2
  9
$DGNFRAME
280
2
  9
$REALWORLDSCALE
290
1
  9
$INTERFERECOLOR
 62
256
  9
$CSHADOW
280
0
  9
$SHADOWPLANELOCATION
 40
0.0
  0
ENDSEC
  0
SECTION
  2
CLASSES
  0
CLASS
  1
ACDBDICTIONARYWDFLT
  2
AcDbDictionaryWithDefault
  3
ObjectDBX Classes
 90
0
 91
0
280
0
281
0
  0
CLASS
  1
SUN
  2
AcDbSun
  3
SCENEOE
 90
1153
 91
0
280
0
281
0
  0
CLASS
  1
VISUALSTYLE
  2
AcDbVisualStyle
  3
ObjectDBX Classes
 90
4095
 91
0
280
0
281
0
  0
CLASS
  1
MATERIAL
  2
AcDbMaterial
  3
ObjectDBX Classes
 90
1153
 91
0
280
0
281
0
  0
CLASS
  1
SCALE
  2
AcDbScale
  3
ObjectDBX Classes
 90
1153
 91
0
280
0
281
0
  0
CLASS
  1
TABLESTYLE
  2
AcDbTableStyle
  3
ObjectDBX Classes
 90
4095
 91
0
280
0
281
0
  0
CLASS
  1
MLEADERSTYLE
  2
AcDbMLeaderStyle
  3
ACDB_MLEADERSTYLE_CLASS
 90
4095
 91
0
280
0
281
0
  0
CLASS
  1
DICTIONARYVAR
  2
AcDbDictionaryVar
  3
ObjectDBX Classes
 90
0
 91
0
280
0
281
0
  0
CLASS
  1
CELLSTYLEMAP
  2
AcDbCellStyleMap
  3
ObjectDBX Classes
 90
1152
 91
0
280
0
281
0
  0
CLASS
  1
MENTALRAYRENDERSETTINGS
  2
AcDbMentalRayRenderSettings
  3
SCENEOE
 90
1024
 91
0
280
0
281
0
  0
CLASS
  1
ACDBDETAILVIEWSTYLE
  2
AcDbDetailViewStyle
  3
ObjectDBX Classes
 90
1025
 91
0
280
0
281
0
  0
CLASS
  1
ACDBSECTIONVIEWSTYLE
  2
AcDbSectionViewStyle
  3
ObjectDBX Classes
 90
1025
 91
0
280
0
281
0
  0
CLASS
  1
RASTERVARIABLES
  2
AcDbRasterVariables
  3
ISM
 90
0
 91
0
280
0
281
0
  0
CLASS
  1
ACDBPLACEHOLDER
  2
AcDbPlaceHolder
  3
ObjectDBX Classes
 90
0
 91
0
280
0
281
0
  0
CLASS
  1
LAYOUT
  2
AcDbLayout
  3
ObjectDBX Classes
 90
0
 91
0
280
0
281
0
  0
ENDSEC
  0
SECTION
  2
TABLES
  0
TABLE
  2
VPORT
  5
8
330
0
100
AcDbSymbolTable
 70
1
  0
VPORT
  5
23
330
8
100
AcDbSymbolTableRecord
100
AcDbViewportTableRecord
  2
*Active
 70
0
 10
0.0
 20
0.0
 11
1.0
 21
1.0
 12
0.0
 22
0.0
 13
0.0
 23
0.0
 14
0.5
 24
0.5
 15
0.5
 25
0.5
 16
0.0
 26
0.0
 36
1.0
 17
0.0
 27
0.0
 37
0.0
 40
1000.0
 41
1.34
 42
50.0
 43
0.0
 44
0.0
 50
0.0
 51
0.0
 71
0
 72
1000
 73
1
 74
3
 75
0
 76
0
 77
0
 78
0
281
0
 65
0
146
0.0
  0
ENDTAB
  0
TABLE
  2
LTYPE
  5
2
330
0
100
AcDbSymbolTable
 70
3
  0
LTYPE
  5
24
330
2
100
AcDbSymbolTableRecord
100
AcDbLinetypeTableRecord
  2
ByBlock
 70
0
  3

 72
65
 73
0
 40
0.0
  0
LTYPE
  5
25
330
2
100
AcDbSymbolTableRecord
100
AcDbLinetypeTableRecord
  2
ByLayer
 70
0
  3

 72
65
 73
0
 40
0.0
  0
LTYPE
  5
26
330
2
100
AcDbSymbolTableRecord
100
AcDbLinetypeTableRecord
  2
Continuous
 70
0
  3

 72
65
 73
0
 40
0.0
  0
ENDTAB
  0
TABLE
  2
LAYER
  5
1
330
0
100
AcDbSymbolTable
 70
2
  0
LAYER
  5
27
330
1
100
AcDbSymbolTableRecord
100
AcDbLayerTableRecord
  2
0
 70
0
 62
7
  6
Continuous
370
-3
390
13
347
21
  0
LAYER
  5
28
330
1
100
AcDbSymbolTableRecord
100
AcDbLayerTableRecord
  2
Defpoints
 70
0
 62
7
  6
Continuous
290
0
370
-3
390
13
347
21
  0
ENDTAB
  0
TABLE
  2
STYLE
  5
5
330
0
100
AcDbSymbolTable
 70
1
  0
STYLE
  5
29
330
5
100
AcDbSymbolTableRecord
100
AcDbTextStyleTableRecord
  2
Standard
 70
0
 40
0.0
 41
1.0
 50
0.0
 71
0
 42
2.5
  3
txt
  4

  0
ENDTAB
  0
TABLE
  2
VIEW
  5
7
330
0
100
AcDbSymbolTable
 70
0
  0
ENDTAB
  0
TABLE
  2
UCS
  5
6
330
0
100
AcDbSymbolTable
 70
0
  0
ENDTAB
  0
TABLE
  2
APPID
  5
3
330
0
100
AcDbSymbolTable
 70
3
  0
APPID
  5
2A
330
3
100
AcDbSymbolTableRecord
100
AcDbRegAppTableRecord
  2
ACAD
 70
0
  0
APPID
  5
F9
330
3
100
AcDbSymbolTableRecord
100
AcDbRegAppTableRecord
  2
HATCHBACKGROUNDCOLOR
 70
0
  0
APPID
  5
FA
330
3
100
AcDbSymbolTableRecord
100
AcDbRegAppTableRecord
  2
EZDXF
 70
0
  0
ENDTAB
  0
TABLE
  2
DIMSTYLE
  5
4
330
0
100
AcDbSymbolTable
 70
1
100
AcDbDimStyleTable
  0
DIMSTYLE
105
2B
330
4
100
AcDbSymbolTableRecord
100
AcDbDimStyleTableRecord
  2
Standard
 70
0
 40
1.0
 41
2.5
 42
0.625
 43
3.75
 44
1.25
 45
0.0
 46
0.0
 47
0.0
 48
0.0
 49
2.5
140
2.5
141
2.5
142
0.0
143
0.03937007874
144
1.0
145
0.0
146
1.0
147
0.625
148
0.0
 69
0
 70
0
 71
0
 72
0
 73
0
 74
0
 75
0
 76
0
 77
1
 78
8
 79
3
170
0
171
3
172
1
173
0
174
0
175
0
176
0
177
0
178
0
179
2
271
2
272
2
273
2
274
3
275
0
276
0
277
2
278
44
279
0
280
0
281
0
282
0
283
0
284
8
285
0
286
0
288
0
289
3
290
0
371
-2
372
-2
  0
ENDTAB
  0
TABLE
  2
BLOCK_RECORD
  5
9
330
0
100
AcDbSymbolTable
 70
2
  0
BLOCK_RECORD
  5
17
330
9
100
AcDbSymbolTableRecord
100
AcDbBlockTableRecord
  2
*Model_Space
340
1A
 70
0
280
1
281
0
  0
BLOCK_RECORD
  5
1B
330
9
100
AcDbSymbolTableRecord
100
AcDbBlockTableRecord
  2
*Paper_Space
340
1E
 70
0
280
1
281
0
  0
ENDTAB
  0
ENDSEC
  0
SECTION
  2
BLOCKS
  0
BLOCK
  5
18
330
17
100
AcDbEntity
  8
0
100
AcDbBlockBegin
  2
*Model_Space
 70
0
 10
0.0
 20
0.0
 30
0.0
  3
*Model_Space
  1

  0
ENDBLK
  5
19
330
17
100
AcDbEntity
  8
0
100
AcDbBlockEnd
  0
BLOCK
  5
1C
330
1B
100
AcDbEntity
  8
0
100
AcDbBlockBegin
  2
*Paper_Space
 70
0
 10
0.0
 20
0.0
 30
0.0
  3
*Paper_Space
  1

  0
ENDBLK
  5
1D
330
1B
100
AcDbEntity
  8
0
100
AcDbBlockEnd
  0
ENDSEC
  0
SECTION
  2
ENTITIES
  0
LINE
  5
2F
330
17
100
AcDbEntity
  8
0
100
AcDbLine
 10
-49.30563675973893
 20
3.0000000000000924
 30
0.0
 11
-49.010283558081994
 21
3.505385932527311
 31
0.0
  0
LINE
  5
30
330
17
100
AcDbEntity
  8
0
100
AcDbLine
 10
-49.010283558081994
 20
3.505385932527311
 30
0.0
 11
-48.71145698506909
 21
4.008725910858836
 31
0.0
  0
LINE
  5
31
330
17
100
AcDbEntity
  8
0
100
AcDbLine
 10
-48.71145698506909
 20
4.008725910858836
 30
0.0
 11
-48.40917121266749
 21
4.509996063899067
 31
0.0
  0
LINE
  5
32
330
17
100
AcDbEntity
  8
0
100
AcDbLine
 10
-48.40917121266749
 20
4.509996063899067
 30
0.0
 11
-48.103440576898336
 21
5.009172618714693
 31
0.0
  0
LINE
  5
33
330
17
100
AcDbEntity
  8
0
100
AcDbLine
 10
-48.103440576898336
 20
5.009172618714693
 30
0.0
 11
-47.79427957715676
 21
5.506231901662112
 31
0.0
  0
LINE
  5
34
330
17
100
AcDbEntity
  8
0
100
AcDbLine
 10
-47.79427957715676
 20
5.506231901662112
 30
0.0
 11
-47.48170287552425
 21
6.001150339510161
 31
0.0
  0
LINE
  5
35
330
17
100
AcDbEntity
  8
0
100
AcDbLine
 10
-47.48170287552425
 20
6.001150339510161
 30
0.0
 11
-47.16572529607329
 21
6.493904460558099
 31
0.0
  0
LINE
  5
36
330
17
100
AcDbEntity
  8
0
100
AcDbLine
 10
-47.16572529607329
 20
6.493904460558099
 30
0.0
 11
-46.84636182416433
 21
6.98447089574875
 31
0.0
  0
LINE
  5
37
330
17
100
AcDbEntity
  8
0
100
AcDbLine
 10
-46.84636182416433
 20
6.98447089574875
 30
0.0
 11
-46.52362760573513
 21
7.472826379776826
 31
0.0
  0
LINE
  5
38
330
17
100
AcDbEntity
  8
0
100
AcDbLine
 10
-46.52362760573513
 20
7.472826379776826
 30
0.0
 11
-46.19753794658236
 21
7.9589477521922305
 31
0.0
  0
LINE
  5
39
330
17
100
AcDbEntity
  8
0
100
AcDbLine
 10
-46.19753794658236
 20
7.9589477521922305
 30
0.0
 11
-45.86810831163581
 21
8.442811958498496
 31
0.0
  0
LINE
  5
3A
330
17
100
AcDbEntity
  8
0
100
AcDbLine
 10
-45.86810831163581
 20
8.442811958498496
 30
0.0
 11
-45.535354324224926
 21
8.924396051246148
 31
0.0
  0
LINE
  5
3B
330
17
100
AcDbEntity
  8
0
100
AcDbLine
 10
-45.535354324224926
 20
8.924396051246148
 30
0.0
 11
-45.19929176533792
 21
9.403677191120991
 31
0.0
  0
LINE
  5
3C
330
17
100
AcDbEntity
  8
0
100
AcDbLine
 10
-45.19929176533792
 20
9.403677191120991
 30
0.0
 11
-44.85993657287321
 21
9.880632648027245
 31
0.0
  0
LINE
  5
3D
330
17
100
AcDbEntity
  8
0
100
AcDbLine
 10
-44.85993657287321
 20
9.880632648027245
 30
0.0
 11
-44.517304840883725
 21
10.355239802165585
 31
0.0
  0
LINE
  5
3E
330
17
100
AcDbEntity
  8
0
100
AcDbLine
 10
-44.517304840883725
 20
10.355239802165585
 30
0.0
 11
-44.171412818813536
 21
10.82747614510587
 31
0.0
  0
LINE
  5
3F
330
17
100
AcDbEntity
  8
0
100
AcDbLine
 10
-44.171412818813536
 20
10.82747614510587
 30
0.0
 11
-43.82227691072731
 21
11.297319280854516
 31
0.0
  0
LINE
  5
40
330
17
100
AcDbEntity
  8
0
100
AcDbLine
 10
-43.82227691072731
 20
11.297319280854516
 30
0.0
 11
-43.469913674532094
 21
11.764746926916935
 31
0.0
  0
LINE
  5
41
330
17
100
AcDbEntity
  8
0
100
AcDbLine
 10
-43.469913674532094
 20
11.764746926916935
 30
0.0
 11
-43.114339821192445
 21
12.229736915353882
 31
0.0
  0
LINE
  5
42
330
17
100
AcDbEntity
  8
0
100
AcDbLine
 10
-43.114339821192445
 20
12.229736915353882
 30
0.0
 11
-42.75557221393758
 21
12.692267193833075
 31
0.0
  0
LINE
  5
43
330
17
100
AcDbEntity
  8
0
100
AcDbLine
 10
-42.75557221393758
 20
12.692267193833075
 30
0.0
 11
-42.39362786746179
 21
13.152315826674887
 31
0.0
  0
LINE
  5
44
330
17
100
AcDbEntity
  8
0
100
AcDbLine
 10
-42.39362786746179
 20
13.152315826674887
 30
0.0
 11
-42.02852394711748
 21
13.60986099589276
 31
0.0
  0
LINE
  5
45
330
17
100
AcDbEntity
  8
0
100
AcDbLine
 10
-42.02852394711748
 20
13.60986099589276
 30
0.0
 11
-41.660277768101
 21
14.064881002227843
 31
0.0
  0
LINE
  5
46
330
17
100
AcDbEntity
  8
0
100
AcDbLine
 10
-41.660277768101
 20
14.064881002227843
 30
0.0
 11
-41.28890679463166
 21
14.517354266178152
 31
0.0
  0
LINE
  5
47
330
17
100
AcDbEntity
  8
0
100
AcDbLine
 10
-41.28890679463166
 20
14.517354266178152
 30
0.0
 11
-40.91442863912329
 21
14.967259329021921
 31
0.0
  0
LINE
  5
48
330
17
100
AcDbEntity
  8
0
100
AcDbLine
 10
-40.91442863912329
 20
14.967259329021921
 30
0.0
 11
-40.53686106134907
 21
15.414574853835369
 31
0.0
  0
LINE
  5
49
330
17
100
AcDbEntity
  8
0
100
AcDbLine
 10
-40.53686106134907
 20
15.414574853835369
 30
0.0
 11
-40.15622196759925
 21
15.85927962650453
 31
0.0
  0
LINE
  5
4A
330
17
100
AcDbEntity
  8
0
100
AcDbLine
 10
-40.15622196759925
 20
15.85927962650453
 30
0.0
 11
-39.77252940983193
 21
16.301352556731402
 31
0.0
  0
LINE
  5
4B
330
17
100
AcDbEntity
  8
0
100
AcDbLine
 10
-39.77252940983193
 20
16.301352556731402
 30
0.0
 11
-39.38580158481692
 21
16.740772679034166
 31
0.0
  0
LINE
  5
4C
330
17
100
AcDbEntity
  8
0
100
AcDbLine
 10
-39.38580158481692
 20
16.740772679034166
 30
0.0
 11
-38.99605683327276
 21
17.177519153741393
 31
0.0
  0
LINE
  5
4D
330
17
100
AcDbEntity
  8
0
100
AcDbLine
 10
-38.99605683327276
 20
17.177519153741393
 30
0.0
 11
-38.60331363899695
 21
17.61157126798051
 31
0.0
  0
LINE
  5
4E
330
17
100
AcDbEntity
  8
0
100
AcDbLine
 10
-38.60331363899695
 20
17.61157126798051
 30
0.0
 11
-38.20759062798929
 21
18.042908436659992
 31
0.0
  0
LINE
  5
4F
330
17
100
AcDbEntity
  8
0
100
AcDbLine
 10
-38.20759062798929
 20
18.042908436659992
 30
0.0
 11
-37.80890656756853
 21
18.471510203445703
 31
0.0
  0
LINE
  5
50
330
17
100
AcDbEntity
  8
0
100
AcDbLine
 10
-37.80890656756853
 20
18.471510203445703
 30
0.0
 11
-37.40728036548239
 21
18.89735624173099
 31
0.0
  0
LINE
  5
51
330
17
100
AcDbEntity
  8
0
100
AcDbLine
 10
-37.40728036548239
 20
18.89735624173099
 30
0.0
 11
-37.002731069010785
 21
19.320426355600716
 31
0.0
  0
LINE
  5
52
330
17
100
AcDbEntity
  8
0
100
AcDbLine
 10
-37.002731069010785
 20
19.320426355600716
 30
0.0
 11
-36.59527786406255
 21
19.74070048078905
 31
0.0
  0
LINE
  5
53
330
17
100
AcDbEntity
  8
0
100
AcDbLine
 10
-36.59527786406255
 20
19.74070048078905
 30
0.0
 11
-36.18494007426547
 21
20.158158685631
 31
0.0
  0
LINE
  5
54
330
17
100
AcDbEntity
  8
0
100
AcDbLine
 10
-36.18494007426547
 20
20.158158685631
 30
0.0
 11
-35.77173716004996
 21
20.572781172007716
 31
0.0
  0
LINE
  5
55
330
17
100
AcDbEntity
  8
0
100
AcDbLine
 10
-35.77173716004996
 20
20.572781172007716
 30
0.0
 11
-35.355688717726025
 21
20.984548276285423
 31
0.0
  0
LINE
  5
56
330
17
100
AcDbEntity
  8
0
100
AcDbLine
 10
-35.355688717726025
 20
20.984548276285423
 30
0.0
 11
-34.936814478554
 21
21.393440470247917
 31
0.0
  0
LINE
  5
57
330
17
100
AcDbEntity
  8
0
100
AcDbLine
 10
-34.936814478554
 20
21.393440470247917
 30
0.0
 11
-34.515134307808694
 21
21.799438362022777
 31
0.0
  0
LINE
  5
58
330
17
100
AcDbEntity
  8
0
100
AcDbLine
 10
-34.515134307808694
 20
21.799438362022777
 30
0.0
 11
-34.09066820383737
 21
22.202522697000973
 31
0.0
  0
LINE
  5
59
330
17
100
AcDbEntity
  8
0
100
AcDbLine
 10
-34.09066820383737
 20
22.202522697000973
 30
0.0
 11
-33.66343629711123
 21
22.602674358750065
 31
0.0
  0
LINE
  5
5A
330
17
100
AcDbEntity
  8
0
100
AcDbLine
 10
-33.66343629711123
 20
22.602674358750065
 30
0.0
 11
-33.233458849270775
 21
22.99987436992079
 31
0.0
  0
LINE
  5
5B
330
17
100
AcDbEntity
  8
0
100
AcDbLine
 10
-33.233458849270775
 20
22.99987436992079
 30
0.0
 11
-32.80075625216486
 21
23.394103893147054
 31
0.0
  0
LINE
  5
5C
330
17
100
AcDbEntity
  8
0
100
AcDbLine
 10
-32.80075625216486
 20
23.394103893147054
 30
0.0
 11
-32.36534902688361
 21
23.78534423193932
 31
0.0
  0
LINE
  5
5D
330
17
100
AcDbEntity
  8
0
100
AcDbLine
 10
-32.36534902688361
 20
23.78534423193932
 30
0.0
 11
-31.927257822785204
 21
24.173576831571317
 31
0.0
  0
LINE
  5
5E
330
17
100
AcDbEntity
  8
0
100
AcDbLine
 10
-31.927257822785204
 20
24.173576831571317
 30
0.0
 11
-31.486503416516566
 21
24.55878327995996
 31
0.0
  0
LINE
  5
5F
330
17
100
AcDbEntity
  8
0
100
AcDbLine
 10
-31.486503416516566
 20
24.55878327995996
 30
0.0
 11
-31.043106711028013
 21
24.940945308538566
 31
0.0
  0
LINE
  5
60
330
17
100
AcDbEntity
  8
0
100
AcDbLine
 10
-31.043106711028013
 20
24.940945308538566
 30
0.0
 11
-30.59708873458197
 21
25.320044793123266
 31
0.0
  0
LINE
  5
61
330
17
100
AcDbEntity
  8
0
100
AcDbLine
 10
-30.59708873458197
 20
25.320044793123266
 30
0.0
 11
-30.14847063975569
 21
25.69606375477249
 31
0.0
  0
LINE
  5
62
330
17
100
AcDbEntity
  8
0
100
AcDbLine
 10
-30.14847063975569
 20
25.69606375477249
 30
0.0
 11
-29.697273702437908
 21
26.068984360639824
 31
0.0
  0
LINE
  5
63
330
17
100
AcDbEntity
  8
0
100
AcDbLine
 10
-29.697273702437908
 20
26.068984360639824
 30
0.0
 11
-29.243519320820116
 21
26.43878892481944
 31
0.0
  0
LINE
  5
64
330
17
100
AcDbEntity
  8
0
100
AcDbLine
 10
-29.243519320820116
 20
26.43878892481944
 30
0.0
 11
-28.787229014381584
 21
26.80545990918504
 31
0.0
  0
LINE
  5
65
330
17
100
AcDbEntity
  8
0
100
AcDbLine
 10
-28.787229014381584
 20
26.80545990918504
 30
0.0
 11
-28.328424422868796
 21
27.16897992422161
 31
0.0
  0
LINE
  5
66
330
17
100
AcDbEntity
  8
0
100
AcDbLine
 10
-28.328424422868796
 20
27.16897992422161
 30
0.0
 11
-27.86712730526916
 21
27.529331729850064
 31
0.0
  0
LINE
  5
67
330
17
100
AcDbEntity
  8
0
100
AcDbLine
 10
-27.86712730526916
 20
27.529331729850064
 30
0.0
 11
-27.403359538779153
 21
27.886498236244897
 31
0.0
  0
LINE
  5
68
330
17
100
AcDbEntity
  8
0
100
AcDbLine
 10
-27.403359538779153
 20
27.886498236244897
 30
0.0
 11
-26.937143117766734
 21
28.240462504644647
 31
0.0
  0
LINE
  5
69
330
17
100
AcDbEntity
  8
0
100
AcDbLine
 10
-26.937143117766734
 20
28.240462504644647
 30
0.0
 11
-26.468500152728236
 21
28.59120774815529
 31
0.0
  0
LINE
  5
6A
330
17
100
AcDbEntity
  8
0
100
AcDbLine
 10
-26.468500152728236
 20
28.59120774815529
 30
0.0
 11
-25.997452869239826
 21
28.938717332546283
 31
0.0
  0
LINE
  5
6B
330
17
100
AcDbEntity
  8
0
100
AcDbLine
 10
-25.997452869239826
 20
28.938717332546283
 30
0.0
 11
-25.524023606903395
 21
29.282974777039477
 31
0.0
  0
LINE
  5
6C
330
17
100
AcDbEntity
  8
0
100
AcDbLine
 10
-25.524023606903395
 20
29.282974777039477
 30
0.0
 11
-25.04823481828711
 21
29.623963755090763
 31
0.0
  0
LINE
  5
6D
330
17
100
AcDbEntity
  8
0
100
AcDbLine
 10
-25.04823481828711
 20
29.623963755090763
 30
0.0
 11
-24.57010906786061
 21
29.961668095164306
 31
0.0
  0
LINE
  5
6E
330
17
100
AcDbEntity
  8
0
100
AcDbLine
 10
-24.57010906786061
 20
29.961668095164306
 30
0.0
 11
-24.089669030924856
 21
30.296071781499528
 31
0.0
  0
LINE
  5
6F
330
17
100
AcDbEntity
  8
0
100
AcDbLine
 10
-24.089669030924856
 20
30.296071781499528
 30
0.0
 11
-23.60693749253677
 21
30.627158954870644
 31
0.0
  0
LINE
  5
70
330
17
100
AcDbEntity
  8
0
100
AcDbLine
 10
-23.60693749253677
 20
30.627158954870644
 30
0.0
 11
-23.121937346428584
 21
30.95491391333878
 31
0.0
  0
LINE
  5
71
330
17
100
AcDbEntity
  8
0
100
AcDbLine
 10
-23.121937346428584
 20
30.95491391333878
 30
0.0
 11
-22.63469159392218
 21
31.27932111299669
 31
0.0
  0
LINE
  5
72
330
17
100
AcDbEntity
  8
0
100
AcDbLine
 10
-22.63469159392218
 20
31.27932111299669
 30
0.0
 11
-22.145223342838197
 21
31.60036516870587
 31
0.0
  0
LINE
  5
73
330
17
100
AcDbEntity
  8
0
100
AcDbLine
 10
-22.145223342838197
 20
31.60036516870587
 30
0.0
 11
-21.653555806400124
 21
31.918030854826235
 31
0.0
  0
LINE
  5
74
330
17
100
AcDbEntity
  8
0
100
AcDbLine
 10
-21.653555806400124
 20
31.918030854826235
 30
0.0
 11
-21.15971230213344
 21
32.23230310593825
 31
0.0
  0
LINE
  5
75
330
17
100
AcDbEntity
  8
0
100
AcDbLine
 10
-21.15971230213344
 20
32.23230310593825
 30
0.0
 11
-20.663716250759723
 21
32.5431670175573
 31
0.0
  0
LINE
  5
76
330
17
100
AcDbEntity
  8
0
100
AcDbLine
 10
-20.663716250759723
 20
32.5431670175573
 30
0.0
 11
-20.165591175085968
 21
32.85060784684064
 31
0.0
  0
LINE
  5
77
330
17
100
AcDbEntity
  8
0
100
AcDbLine
 10
-20.165591175085968
 20
32.85060784684064
 30
0.0
 11
-19.66536069888898
 21
33.154611013286534
 31
0.0
  0
LINE
  5
78
330
17
100
AcDbEntity
  8
0
100
AcDbLine
 10
-19.66536069888898
 20
33.154611013286534
 30
0.0
 11
-19.16304854579496
 21
33.455162099425756
 31
0.0
  0
LINE
  5
79
330
17
100
AcDbEntity
  8
0
100
AcDbLine
 10
-19.16304854579496
 20
33.455162099425756
 30
0.0
 11
-18.658678538154522
 21
33.75224685150537
 31
0.0
  0
LINE
  5
7A
330
17
100
AcDbEntity
  8
0
100
AcDbLine
 10
-18.658678538154522
 20
33.75224685150537
 30
0.0
 11
-18.152274595912797
 21
34.045851180164625
 31
0.0
  0
LINE
  5
7B
330
17
100
AcDbEntity
  8
0
100
AcDbLine
 10
-18.152274595912797
 20
34.045851180164625
 30
0.0
 11
-17.64386073547507
 21
34.33596116110325
 31
0.0
  0
LINE
  5
7C
330
17
100
AcDbEntity
  8
0
100
AcDbLine
 10
-17.64386073547507
 20
34.33596116110325
 30
0.0
 11
-17.133461068567772
 21
34.6225630357418
 31
0.0
  0
LINE
  5
7D
330
17
100
AcDbEntity
  8
0
100
AcDbLine
 10
-17.133461068567772
 20
34.6225630357418
 30
0.0
 11
-16.621099801095003
 21
34.90564321187413
 31
0.0
  0
LINE
  5
7E
330
17
100
AcDbEntity
  8
0
100
AcDbLine
 10
-16.621099801095003
 20
34.90564321187413
 30
0.0
 11
-16.106801231990534
 21
35.18518826431201
 31
0.0
  0
LINE
  5
7F
330
17
100
AcDbEntity
  8
0
100
AcDbLine
 10
-16.106801231990534
 20
35.18518826431201
 30
0.0
 11
-15.590589752065409
 21
35.461184935521864
 31
0.0
  0
LINE
  5
80
330
17
100
AcDbEntity
  8
0
100
AcDbLine
 10
-15.590589752065409
 20
35.461184935521864
 30
0.0
 11
-15.072489842851287
 21
35.73362013625344
 31
0.0
  0
LINE
  5
81
330
17
100
AcDbEntity
  8
0
100
AcDbLine
 10
-15.072489842851287
 20
35.73362013625344
 30
0.0
 11
-14.552526075439086
 21
36.00248094616074
 31
0.0
  0
LINE
  5
82
330
17
100
AcDbEntity
  8
0
100
AcDbLine
 10
-14.552526075439086
 20
36.00248094616074
 30
0.0
 11
-14.030723109314362
 21
36.26775461441442
 31
0.0
  0
LINE
  5
83
330
17
100
AcDbEntity
  8
0
100
AcDbLine
 10
-14.030723109314362
 20
36.26775461441442
 30
0.0
 11
-13.507105691186947
 21
36.52942856030699
 31
0.0
  0
LINE
  5
84
330
17
100
AcDbEntity
  8
0
100
AcDbLine
 10
-13.507105691186947
 20
36.52942856030699
 30
0.0
 11
-12.981698653818011
 21
36.78749037384903
 31
0.0
  0
LINE
  5
85
330
17
100
AcDbEntity
  8
0
100
AcDbLine
 10
-12.981698653818011
 20
36.78749037384903
 30
0.0
 11
-12.454526914842088
 21
37.041927816358005
 31
0.0
  0
LINE
  5
86
330
17
100
AcDbEntity
  8
0
100
AcDbLine
 10
-12.454526914842088
 20
37.041927816358005
 30
0.0
 11
-11.925615475585328
 21
37.29272882103853
 31
0.0
  0
LINE
  5
87
330
17
100
AcDbEntity
  8
0
100
AcDbLine
 10
-11.925615475585328
 20
37.29272882103853
 30
0.0
 11
-11.394989419879895
 21
37.53988149355474
 31
0.0
  0
LINE
  5
88
330
17
100
AcDbEntity
  8
0
100
AcDbLine
 10
-11.394989419879895
 20
37.53988149355474
 30
0.0
 11
-10.862673912874289
 21
37.783374112594366
 31
0.0
  0
LINE
  5
89
330
17
100
AcDbEntity
  8
0
100
AcDbLine
 10
-10.862673912874289
 20
37.783374112594366
 30
0.0
 11
-10.328694199839891
 21
38.02319513042456
 31
0.0
  0
LINE
  5
8A
330
17
100
AcDbEntity
  8
0
100
AcDbLine
 10
-10.328694199839891
 20
38.02319513042456
 30
0.0
 11
-9.793075604973719
 21
38.259333173439664
 31
0.0
  0
LINE
  5
8B
330
17
100
AcDbEntity
  8
0
100
AcDbLine
 10
-9.793075604973719
 20
38.259333173439664
 30
0.0
 11
-9.2558435301974
 21
38.4917770427005
 31
0.0
  0
LINE
  5
8C
330
17
100
AcDbEntity
  8
0
100
AcDbLine
 10
-9.2558435301974
 20
38.4917770427005
 30
0.0
 11
-8.717023453952482
 21
38.72051571446551
 31
0.0
  0
LINE
  5
8D
330
17
100
AcDbEntity
  8
0
100
AcDbLine
 10
-8.717023453952482
 20
38.72051571446551
 30
0.0
 11
-8.176640929992086
 21
38.94553834071363
 31
0.0
  0
LINE
  5
8E
330
17
100
AcDbEntity
  8
0
100
AcDbLine
 10
-8.176640929992086
 20
38.94553834071363
 30
0.0
 11
-7.634721586169044
 21
39.166834249658685
 31
0.0
  0
LINE
  5
8F
330
17
100
AcDbEntity
  8
0
100
AcDbLine
 10
-7.634721586169044
 20
39.166834249658685
 30
0.0
 11
-7.091291123220473
 21
39.384392946255524
 31
0.0
  0
LINE
  5
90
330
17
100
AcDbEntity
  8
0
100
AcDbLine
 10
-7.091291123220473
 20
39.384392946255524
 30
0.0
 11
-6.546375313548908
 21
39.59820411269775
 31
0.0
  0
LINE
  5
91
330
17
100
AcDbEntity
  8
0
100
AcDbLine
 10
-6.546375313548908
 20
39.59820411269775
 30
0.0
 11
-6.0000000000000115
 21
39.80825760890708
 31
0.0
  0
LINE
  5
92
330
17
100
AcDbEntity
  8
0
100
AcDbLine
 10
-5.99999999999999
 20
39.8082576089071
 30
0.0
 11
-5.99999999999999
 21
-39.8082576089068
 31
0.0
  0
LINE
  5
93
330
17
100
AcDbEntity
  8
0
100
AcDbLine
 10
-49.3056367597389
 20
-2.9999999999997584
 30
0.0
 11
-49.01028355808195
 21
-3.505385932526977
 31
0.0
  0
LINE
  5
94
330
17
100
AcDbEntity
  8
0
100
AcDbLine
 10
-49.01028355808195
 20
-3.505385932526977
 30
0.0
 11
-48.71145698506905
 21
-4.0087259108584945
 31
0.0
  0
LINE
  5
95
330
17
100
AcDbEntity
  8
0
100
AcDbLine
 10
-48.71145698506905
 20
-4.0087259108584945
 30
0.0
 11
-48.40917121266746
 21
-4.509996063898733
 31
0.0
  0
LINE
  5
96
330
17
100
AcDbEntity
  8
0
100
AcDbLine
 10
-48.40917121266746
 20
-4.509996063898733
 30
0.0
 11
-48.103440576898294
 21
-5.009172618714352
 31
0.0
  0
LINE
  5
97
330
17
100
AcDbEntity
  8
0
100
AcDbLine
 10
-48.103440576898294
 20
-5.009172618714352
 30
0.0
 11
-47.794279577156715
 21
-5.506231901661778
 31
0.0
  0
LINE
  5
98
330
17
100
AcDbEntity
  8
0
100
AcDbLine
 10
-47.794279577156715
 20
-5.506231901661778
 30
0.0
 11
-47.481702875524206
 21
-6.00115033950982
 31
0.0
  0
LINE
  5
99
330
17
100
AcDbEntity
  8
0
100
AcDbLine
 10
-47.481702875524206
 20
-6.00115033950982
 30
0.0
 11
-47.16572529607325
 21
-6.493904460557751
 31
0.0
  0
LINE
  5
9A
330
17
100
AcDbEntity
  8
0
100
AcDbLine
 10
-47.16572529607325
 20
-6.493904460557751
 30
0.0
 11
-46.846361824164305
 21
-6.984470895748416
 31
0.0
  0
LINE
  5
9B
330
17
100
AcDbEntity
  8
0
100
AcDbLine
 10
-46.846361824164305
 20
-6.984470895748416
 30
0.0
 11
-46.523627605735086
 21
-7.4728263797764924
 31
0.0
  0
LINE
  5
9C
330
17
100
AcDbEntity
  8
0
100
AcDbLine
 10
-46.523627605735086
 20
-7.4728263797764924
 30
0.0
 11
-46.197537946582315
 21
-7.9589477521918965
 31
0.0
  0
LINE
  5
9D
330
17
100
AcDbEntity
  8
0
100
AcDbLine
 10
-46.197537946582315
 20
-7.9589477521918965
 30
0.0
 11
-45.868108311635766
 21
-8.442811958498169
 31
0.0
  0
LINE
  5
9E
330
17
100
AcDbEntity
  8
0
100
AcDbLine
 10
-45.868108311635766
 20
-8.442811958498169
 30
0.0
 11
-45.5353543242249
 21
-8.924396051245814
 31
0.0
  0
LINE
  5
9F
330
17
100
AcDbEntity
  8
0
100
AcDbLine
 10
-45.5353543242249
 20
-8.924396051245814
 30
0.0
 11
-45.19929176533792
 21
-9.403677191120593
 31
0.0
  0
LINE
  5
A0
330
17
100
AcDbEntity
  8
0
100
AcDbLine
 10
-45.19929176533792
 20
-9.403677191120593
 30
0.0
 11
-44.85993657287321
 21
-9.880632648026847
 31
0.0
  0
LINE
  5
A1
330
17
100
AcDbEntity
  8
0
100
AcDbLine
 10
-44.85993657287321
 20
-9.880632648026847
 30
0.0
 11
-44.517304840883725
 21
-10.355239802165187
 31
0.0
  0
LINE
  5
A2
330
17
100
AcDbEntity
  8
0
100
AcDbLine
 10
-44.517304840883725
 20
-10.355239802165187
 30
0.0
 11
-44.171412818813536
 21
-10.827476145105472
 31
0.0
  0
LINE
  5
A3
330
17
100
AcDbEntity
  8
0
100
AcDbLine
 10
-44.171412818813536
 20
-10.827476145105472
 30
0.0
 11
-43.822276910727254
 21
-11.297319280854175
 31
0.0
  0
LINE
  5
A4
330
17
100
AcDbEntity
  8
0
100
AcDbLine
 10
-43.822276910727254
 20
-11.297319280854175
 30
0.0
 11
-43.46991367453205
 21
-11.764746926916594
 31
0.0
  0
LINE
  5
A5
330
17
100
AcDbEntity
  8
0
100
AcDbLine
 10
-43.46991367453205
 20
-11.764746926916594
 30
0.0
 11
-43.11433982119239
 21
-12.229736915353548
 31
0.0
  0
LINE
  5
A6
330
17
100
AcDbEntity
  8
0
100
AcDbLine
 10
-43.11433982119239
 20
-12.229736915353548
 30
0.0
 11
-42.755572213937526
 21
-12.692267193832734
 31
0.0
  0
LINE
  5
A7
330
17
100
AcDbEntity
  8
0
100
AcDbLine
 10
-42.755572213937526
 20
-12.692267193832734
 30
0.0
 11
-42.393627867461745
 21
-13.152315826674545
 31
0.0
  0
LINE
  5
A8
330
17
100
AcDbEntity
  8
0
100
AcDbLine
 10
-42.393627867461745
 20
-13.152315826674545
 30
0.0
 11
-42.02852394711742
 21
-13.609860995892426
 31
0.0
  0
LINE
  5
A9
330
17
100
AcDbEntity
  8
0
100
AcDbLine
 10
-42.02852394711742
 20
-13.609860995892426
 30
0.0
 11
-41.660277768100954
 21
-14.064881002227516
 31
0.0
  0
LINE
  5
AA
330
17
100
AcDbEntity
  8
0
100
AcDbLine
 10
-41.660277768100954
 20
-14.064881002227516
 30
0.0
 11
-41.2889067946316
 21
-14.517354266177811
 31
0.0
  0
LINE
  5
AB
330
17
100
AcDbEntity
  8
0
100
AcDbLine
 10
-41.2889067946316
 20
-14.517354266177811
 30
0.0
 11
-40.914428639123244
 21
-14.96725932902158
 31
0.0
  0
LINE
  5
AC
330
17
100
AcDbEntity
  8
0
100
AcDbLine
 10
-40.914428639123244
 20
-14.96725932902158
 30
0.0
 11
-40.536861061349015
 21
-15.414574853835028
 31
0.0
  0
LINE
  5
AD
330
17
100
AcDbEntity
  8
0
100
AcDbLine
 10
-40.536861061349015
 20
-15.414574853835028
 30
0.0
 11
-40.15622196759921
 21
-15.85927962650419
 31
0.0
  0
LINE
  5
AE
330
17
100
AcDbEntity
  8
0
100
AcDbLine
 10
-40.15622196759921
 20
-15.85927962650419
 30
0.0
 11
-39.772529409831876
 21
-16.30135255673106
 31
0.0
  0
LINE
  5
AF
330
17
100
AcDbEntity
  8
0
100
AcDbLine
 10
-39.772529409831876
 20
-16.30135255673106
 30
0.0
 11
-39.38580158481686
 21
-16.740772679033817
 31
0.0
  0
LINE
  5
B0
330
17
100
AcDbEntity
  8
0
100
AcDbLine
 10
-39.38580158481686
 20
-16.740772679033817
 30
0.0
 11
-38.99605683327271
 21
-17.17751915374106
 31
0.0
  0
LINE
  5
B1
330
17
100
AcDbEntity
  8
0
100
AcDbLine
 10
-38.99605683327271
 20
-17.17751915374106
 30
0.0
 11
-38.603313638996894
 21
-17.611571267980167
 31
0.0
  0
LINE
  5
B2
330
17
100
AcDbEntity
  8
0
100
AcDbLine
 10
-38.603313638996894
 20
-17.611571267980167
 30
0.0
 11
-38.207590627989234
 21
-18.04290843665965
 31
0.0
  0
LINE
  5
B3
330
17
100
AcDbEntity
  8
0
100
AcDbLine
 10
-38.207590627989234
 20
-18.04290843665965
 30
0.0
 11
-37.80890656756848
 21
-18.471510203445355
 31
0.0
  0
LINE
  5
B4
330
17
100
AcDbEntity
  8
0
100
AcDbLine
 10
-37.80890656756848
 20
-18.471510203445355
 30
0.0
 11
-37.407280365482336
 21
-18.897356241730648
 31
0.0
  0
LINE
  5
B5
330
17
100
AcDbEntity
  8
0
100
AcDbLine
 10
-37.407280365482336
 20
-18.897356241730648
 30
0.0
 11
-37.002731069010736
 21
-19.320426355600375
 31
0.0
  0
LINE
  5
B6
330
17
100
AcDbEntity
  8
0
100
AcDbLine
 10
-37.002731069010736
 20
-19.320426355600375
 30
0.0
 11
-36.595277864062496
 21
-19.74070048078871
 31
0.0
  0
LINE
  5
B7
330
17
100
AcDbEntity
  8
0
100
AcDbLine
 10
-36.595277864062496
 20
-19.74070048078871
 30
0.0
 11
-36.18494007426543
 21
-20.158158685630653
 31
0.0
  0
LINE
  5
B8
330
17
100
AcDbEntity
  8
0
100
AcDbLine
 10
-36.18494007426543
 20
-20.158158685630653
 30
0.0
 11
-35.77173716004996
 21
-20.572781172007318
 31
0.0
  0
LINE
  5
B9
330
17
100
AcDbEntity
  8
0
100
AcDbLine
 10
-35.77173716004996
 20
-20.572781172007318
 30
0.0
 11
-35.355688717726025
 21
-20.984548276285025
 31
0.0
  0
LINE
  5
BA
330
17
100
AcDbEntity
  8
0
100
AcDbLine
 10
-35.355688717726025
 20
-20.984548276285025
 30
0.0
 11
-34.936814478554
 21
-21.39344047024752
 31
0.0
  0
LINE
  5
BB
330
17
100
AcDbEntity
  8
0
100
AcDbLine
 10
-34.936814478554
 20
-21.39344047024752
 30
0.0
 11
-34.515134307808694
 21
-21.79943836202238
 31
0.0
  0
LINE
  5
BC
330
17
100
AcDbEntity
  8
0
100
AcDbLine
 10
-34.515134307808694
 20
-21.79943836202238
 30
0.0
 11
-34.09066820383737
 21
-22.202522697000575
 31
0.0
  0
LINE
  5
BD
330
17
100
AcDbEntity
  8
0
100
AcDbLine
 10
-34.09066820383737
 20
-22.202522697000575
 30
0.0
 11
-33.66343629711123
 21
-22.602674358749667
 31
0.0
  0
LINE
  5
BE
330
17
100
AcDbEntity
  8
0
100
AcDbLine
 10
-33.66343629711123
 20
-22.602674358749667
 30
0.0
 11
-33.233458849270775
 21
-22.99987436992039
 31
0.0
  0
LINE
  5
BF
330
17
100
AcDbEntity
  8
0
100
AcDbLine
 10
-33.233458849270775
 20
-22.99987436992039
 30
0.0
 11
-32.80075625216486
 21
-23.394103893146657
 31
0.0
  0
LINE
  5
C0
330
17
100
AcDbEntity
  8
0
100
AcDbLine
 10
-32.80075625216486
 20
-23.394103893146657
 30
0.0
 11
-32.36534902688361
 21
-23.78534423193892
 31
0.0
  0
LINE
  5
C1
330
17
100
AcDbEntity
  8
0
100
AcDbLine
 10
-32.36534902688361
 20
-23.78534423193892
 30
0.0
 11
-31.927257822785204
 21
-24.17357683157092
 31
0.0
  0
LINE
  5
C2
330
17
100
AcDbEntity
  8
0
100
AcDbLine
 10
-31.927257822785204
 20
-24.17357683157092
 30
0.0
 11
-31.486503416516566
 21
-24.558783279959563
 31
0.0
  0
LINE
  5
C3
330
17
100
AcDbEntity
  8
0
100
AcDbLine
 10
-31.486503416516566
 20
-24.558783279959563
 30
0.0
 11
-31.043106711028013
 21
-24.94094530853817
 31
0.0
  0
LINE
  5
C4
330
17
100
AcDbEntity
  8
0
100
AcDbLine
 10
-31.043106711028013
 20
-24.94094530853817
 30
0.0
 11
-30.59708873458197
 21
-25.320044793122868
 31
0.0
  0
LINE
  5
C5
330
17
100
AcDbEntity
  8
0
100
AcDbLine
 10
-30.59708873458197
 20
-25.320044793122868
 30
0.0
 11
-30.148470639755633
 21
-25.696063754772133
 31
0.0
  0
LINE
  5
C6
330
17
100
AcDbEntity
  8
0
100
AcDbLine
 10
-30.148470639755633
 20
-25.696063754772133
 30
0.0
 11
-29.69727370243785
 21
-26.06898436063947
 31
0.0
  0
LINE
  5
C7
330
17
100
AcDbEntity
  8
0
100
AcDbLine
 10
-29.69727370243785
 20
-26.06898436063947
 30
0.0
 11
-29.24351932082006
 21
-26.438788924819086
 31
0.0
  0
LINE
  5
C8
330
17
100
AcDbEntity
  8
0
100
AcDbLine
 10
-29.24351932082006
 20
-26.438788924819086
 30
0.0
 11
-28.787229014381527
 21
-26.805459909184684
 31
0.0
  0
LINE
  5
C9
330
17
100
AcDbEntity
  8
0
100
AcDbLine
 10
-28.787229014381527
 20
-26.805459909184684
 30
0.0
 11
-28.328424422868725
 21
-27.16897992422127
 31
0.0
  0
LINE
  5
CA
330
17
100
AcDbEntity
  8
0
100
AcDbLine
 10
-28.328424422868725
 20
-27.16897992422127
 30
0.0
 11
-27.867127305269104
 21
-27.52933172984971
 31
0.0
  0
LINE
  5
CB
330
17
100
AcDbEntity
  8
0
100
AcDbLine
 10
-27.867127305269104
 20
-27.52933172984971
 30
0.0
 11
-27.403359538779096
 21
-27.886498236244528
 31
0.0
  0
LINE
  5
CC
330
17
100
AcDbEntity
  8
0
100
AcDbLine
 10
-27.403359538779096
 20
-27.886498236244528
 30
0.0
 11
-26.937143117766677
 21
-28.24046250464429
 31
0.0
  0
LINE
  5
CD
330
17
100
AcDbEntity
  8
0
100
AcDbLine
 10
-26.937143117766677
 20
-28.24046250464429
 30
0.0
 11
-26.46850015272818
 21
-28.591207748154936
 31
0.0
  0
LINE
  5
CE
330
17
100
AcDbEntity
  8
0
100
AcDbLine
 10
-26.46850015272818
 20
-28.591207748154936
 30
0.0
 11
-25.99745286923977
 21
-28.938717332545927
 31
0.0
  0
LINE
  5
CF
330
17
100
AcDbEntity
  8
0
100
AcDbLine
 10
-25.99745286923977
 20
-28.938717332545927
 30
0.0
 11
-25.524023606903395
 21
-29.28297477703908
 31
0.0
  0
LINE
  5
D0
330
17
100
AcDbEntity
  8
0
100
AcDbLine
 10
-25.524023606903395
 20
-29.28297477703908
 30
0.0
 11
-25.048234818287046
 21
-29.623963755090422
 31
0.0
  0
LINE
  5
D1
330
17
100
AcDbEntity
  8
0
100
AcDbLine
 10
-25.048234818287046
 20
-29.623963755090422
 30
0.0
 11
-24.57010906786061
 21
-29.96166809516391
 31
0.0
  0
LINE
  5
D2
330
17
100
AcDbEntity
  8
0
100
AcDbLine
 10
-24.57010906786061
 20
-29.96166809516391
 30
0.0
 11
-24.089669030924856
 21
-30.29607178149913
 31
0.0
  0
LINE
  5
D3
330
17
100
AcDbEntity
  8
0
100
AcDbLine
 10
-24.089669030924856
 20
-30.29607178149913
 30
0.0
 11
-23.60693749253677
 21
-30.627158954870247
 31
0.0
  0
LINE
  5
D4
330
17
100
AcDbEntity
  8
0
100
AcDbLine
 10
-23.60693749253677
 20
-30.627158954870247
 30
0.0
 11
-23.121937346428584
 21
-30.95491391333838
 31
0.0
  0
LINE
  5
D5
330
17
100
AcDbEntity
  8
0
100
AcDbLine
 10
-23.121937346428584
 20
-30.95491391333838
 30
0.0
 11
-22.63469159392218
 21
-31.279321112996293
 31
0.0
  0
LINE
  5
D6
330
17
100
AcDbEntity
  8
0
100
AcDbLine
 10
-22.63469159392218
 20
-31.279321112996293
 30
0.0
 11
-22.145223342838197
 21
-31.600365168705473
 31
0.0
  0
LINE
  5
D7
330
17
100
AcDbEntity
  8
0
100
AcDbLine
 10
-22.145223342838197
 20
-31.600365168705473
 30
0.0
 11
-21.653555806400124
 21
-31.918030854825837
 31
0.0
  0
LINE
  5
D8
330
17
100
AcDbEntity
  8
0
100
AcDbLine
 10
-21.653555806400124
 20
-31.918030854825837
 30
0.0
 11
-21.15971230213344
 21
-32.23230310593785
 31
0.0
  0
LINE
  5
D9
330
17
100
AcDbEntity
  8
0
100
AcDbLine
 10
-21.15971230213344
 20
-32.23230310593785
 30
0.0
 11
-20.663716250759723
 21
-32.543167017556904
 31
0.0
  0
LINE
  5
DA
330
17
100
AcDbEntity
  8
0
100
AcDbLine
 10
-20.663716250759723
 20
-32.543167017556904
 30
0.0
 11
-20.165591175085968
 21
-32.85060784684024
 31
0.0
  0
LINE
  5
DB
330
17
100
AcDbEntity
  8
0
100
AcDbLine
 10
-20.165591175085968
 20
-32.85060784684024
 30
0.0
 11
-19.66536069888898
 21
-33.154611013286136
 31
0.0
  0
LINE
  5
DC
330
17
100
AcDbEntity
  8
0
100
AcDbLine
 10
-19.66536069888898
 20
-33.154611013286136
 30
0.0
 11
-19.16304854579496
 21
-33.45516209942536
 31
0.0
  0
LINE
  5
DD
330
17
100
AcDbEntity
  8
0
100
AcDbLine
 10
-19.16304854579496
 20
-33.45516209942536
 30
0.0
 11
-18.658678538154522
 21
-33.75224685150497
 31
0.0
  0
LINE
  5
DE
330
17
100
AcDbEntity
  8
0
100
AcDbLine
 10
-18.658678538154522
 20
-33.75224685150497
 30
0.0
 11
-18.152274595912797
 21
-34.04585118016423
 31
0.0
  0
LINE
  5
DF
330
17
100
AcDbEntity
  8
0
100
AcDbLine
 10
-18.152274595912797
 20
-34.04585118016423
 30
0.0
 11
-17.64386073547507
 21
-34.33596116110285
 31
0.0
  0
LINE
  5
E0
330
17
100
AcDbEntity
  8
0
100
AcDbLine
 10
-17.64386073547507
 20
-34.33596116110285
 30
0.0
 11
-17.133461068567772
 21
-34.6225630357414
 31
0.0
  0
LINE
  5
E1
330
17
100
AcDbEntity
  8
0
100
AcDbLine
 10
-17.133461068567772
 20
-34.6225630357414
 30
0.0
 11
-16.621099801095003
 21
-34.90564321187373
 31
0.0
  0
LINE
  5
E2
330
17
100
AcDbEntity
  8
0
100
AcDbLine
 10
-16.621099801095003
 20
-34.90564321187373
 30
0.0
 11
-16.106801231990534
 21
-35.18518826431161
 31
0.0
  0
LINE
  5
E3
330
17
100
AcDbEntity
  8
0
100
AcDbLine
 10
-16.106801231990534
 20
-35.18518826431161
 30
0.0
 11
-15.590589752065409
 21
-35.461184935521466
 31
0.0
  0
LINE
  5
E4
330
17
100
AcDbEntity
  8
0
100
AcDbLine
 10
-15.590589752065409
 20
-35.461184935521466
 30
0.0
 11
-15.072489842851223
 21
-35.73362013625307
 31
0.0
  0
LINE
  5
E5
330
17
100
AcDbEntity
  8
0
100
AcDbLine
 10
-15.072489842851223
 20
-35.73362013625307
 30
0.0
 11
-14.552526075439086
 21
-36.00248094616034
 31
0.0
  0
LINE
  5
E6
330
17
100
AcDbEntity
  8
0
100
AcDbLine
 10
-14.552526075439086
 20
-36.00248094616034
 30
0.0
 11
-14.030723109314298
 21
-36.26775461441405
 31
0.0
  0
LINE
  5
E7
330
17
100
AcDbEntity
  8
0
100
AcDbLine
 10
-14.030723109314298
 20
-36.26775461441405
 30
0.0
 11
-13.507105691186876
 21
-36.52942856030662
 31
0.0
  0
LINE
  5
E8
330
17
100
AcDbEntity
  8
0
100
AcDbLine
 10
-13.507105691186876
 20
-36.52942856030662
 30
0.0
 11
-12.981698653818011
 21
-36.787490373848634
 31
0.0
  0
LINE
  5
E9
330
17
100
AcDbEntity
  8
0
100
AcDbLine
 10
-12.981698653818011
 20
-36.787490373848634
 30
0.0
 11
-12.454526914842017
 21
-37.041927816357635
 31
0.0
  0
LINE
  5
EA
330
17
100
AcDbEntity
  8
0
100
AcDbLine
 10
-12.454526914842017
 20
-37.041927816357635
 30
0.0
 11
-11.925615475585328
 21
-37.29272882103813
 31
0.0
  0
LINE
  5
EB
330
17
100
AcDbEntity
  8
0
100
AcDbLine
 10
-11.925615475585328
 20
-37.29272882103813
 30
0.0
 11
-11.394989419879895
 21
-37.53988149355434
 31
0.0
  0
LINE
  5
EC
330
17
100
AcDbEntity
  8
0
100
AcDbLine
 10
-11.394989419879895
 20
-37.53988149355434
 30
0.0
 11
-10.862673912874289
 21
-37.78337411259397
 31
0.0
  0
LINE
  5
ED
330
17
100
AcDbEntity
  8
0
100
AcDbLine
 10
-10.862673912874289
 20
-37.78337411259397
 30
0.0
 11
-10.328694199839891
 21
-38.02319513042416
 31
0.0
  0
LINE
  5
EE
330
17
100
AcDbEntity
  8
0
100
AcDbLine
 10
-10.328694199839891
 20
-38.02319513042416
 30
0.0
 11
-9.793075604973719
 21
-38.259333173439266
 31
0.0
  0
LINE
  5
EF
330
17
100
AcDbEntity
  8
0
100
AcDbLine
 10
-9.793075604973719
 20
-38.259333173439266
 30
0.0
 11
-9.2558435301974
 21
-38.4917770427001
 31
0.0
  0
LINE
  5
F0
330
17
100
AcDbEntity
  8
0
100
AcDbLine
 10
-9.2558435301974
 20
-38.4917770427001
 30
0.0
 11
-8.717023453952482
 21
-38.720515714465115
 31
0.0
  0
LINE
  5
F1
330
17
100
AcDbEntity
  8
0
100
AcDbLine
 10
-8.717023453952482
 20
-38.720515714465115
 30
0.0
 11
-8.176640929992086
 21
-38.945538340713235
 31
0.0
  0
LINE
  5
F2
330
17
100
AcDbEntity
  8
0
100
AcDbLine
 10
-8.176640929992086
 20
-38.945538340713235
 30
0.0
 11
-7.634721586169044
 21
-39.16683424965829
 31
0.0
  0
LINE
  5
F3
330
17
100
AcDbEntity
  8
0
100
AcDbLine
 10
-7.634721586169044
 20
-39.16683424965829
 30
0.0
 11
-7.091291123220473
 21
-39.384392946255126
 31
0.0
  0
LINE
  5
F4
330
17
100
AcDbEntity
  8
0
100
AcDbLine
 10
-7.091291123220473
 20
-39.384392946255126
 30
0.0
 11
-6.546375313548908
 21
-39.59820411269735
 31
0.0
  0
LINE
  5
F5
330
17
100
AcDbEntity
  8
0
100
AcDbLine
 10
-6.546375313548908
 20
-39.59820411269735
 30
0.0
 11
-6.0000000000000115
 21
-39.80825760890668
 31
0.0
  0
LINE
  5
F6
330
17
100
AcDbEntity
  8
0
100
AcDbLine
 10
-22.79977128364689
 20
-2.99999999999982
 30
0.0
 11
-49.305636759738995
 21
-2.99999999999982
 31
0.0
  0
LINE
  5
F7
330
17
100
AcDbEntity
  8
0
100
AcDbLine
 10
-22.79977128364689
 20
-2.99999999999982
 30
0.0
 11
-22.79977128364689
 21
3.00000000000018
 31
0.0
  0
LINE
  5
F8
330
17
100
AcDbEntity
  8
0
100
AcDbLine
 10
-22.79977128364689
 20
3.00000000000018
 30
0.0
 11
-49.305636759739095
 21
3.00000000000018
 31
0.0
  0
ENDSEC
  0
SECTION
  2
OBJECTS
  0
DICTIONARY
  5
A
330
0
100
AcDbDictionary
280
0
281
1
  3
ACAD_COLOR
350
B
  3
ACAD_GROUP
350
C
  3
ACAD_LAYOUT
350
D
  3
ACAD_MATERIAL
350
E
  3
ACAD_MLEADERSTYLE
350
F
  3
ACAD_MLINESTYLE
350
10
  3
ACAD_PLOTSETTINGS
350
11
  3
ACAD_PLOTSTYLENAME
350
12
  3
ACAD_SCALELIST
350
14
  3
ACAD_TABLESTYLE
350
15
  3
ACAD_VISUALSTYLE
350
16
  3
EZDXF_META
350
2D
  0
DICTIONARY
  5
B
330
A
100
AcDbDictionary
280
0
281
1
  0
DICTIONARY
  5
C
330
A
100
AcDbDictionary
280
0
281
1
  0
DICTIONARY
  5
D
330
A
100
AcDbDictionary
280
0
281
1
  3
Model
350
1A
  3
Layout1
350
1E
  0
DICTIONARY
  5
E
330
A
100
AcDbDictionary
280
0
281
1
  3
ByBlock
350
1F
  3
ByLayer
350
20
  3
Global
350
21
  0
DICTIONARY
  5
F
330
A
100
AcDbDictionary
280
0
281
1
  3
Standard
350
2C
  0
DICTIONARY
  5
10
330
A
100
AcDbDictionary
280
0
281
1
  3
Standard
350
22
  0
DICTIONARY
  5
11
330
A
100
AcDbDictionary
280
0
281
1
  0
ACDBDICTIONARYWDFLT
  5
12
330
A
100
AcDbDictionary
280
0
281
1
  3
Normal
350
13
100
AcDbDictionaryWithDefault
340
13
  0
ACDBPLACEHOLDER
  5
13
330
12
  0
DICTIONARY
  5
14
330
A
100
AcDbDictionary
280
0
281
1
  0
DICTIONARY
  5
15
330
A
100
AcDbDictionary
280
0
281
1
  0
DICTIONARY
  5
16
330
A
100
AcDbDictionary
280
0
281
1
  0
LAYOUT
  5
1A
330
D
100
AcDbPlotSettings
  1

  2
Adobe PDF
  4
A3
  6

 40
7.5
 41
20.0
 42
7.5
 43
20.0
 44
420.0
 45
297.0
 46
0.0
 47
0.0
 48
0.0
 49
0.0
140
0.0
141
0.0
142
1.0
143
1.0
 70
1024
 72
1
 73
0
 74
5
  7

 75
16
 76
0
 77
2
 78
300
147
1.0
148
0.0
149
0.0
100
AcDbLayout
  1
Model
 70
1
 71
0
 10
0.0
 20
0.0
 11
420.0
 21
297.0
 12
0.0
 22
0.0
 32
0.0
 14
1e+20
 24
1e+20
 34
1e+20
 15
-1e+20
 25
-1e+20
 35
-1e+20
146
0.0
 13
0.0
 23
0.0
 33
0.0
 16
1.0
 26
0.0
 36
0.0
 17
0.0
 27
1.0
 37
0.0
 76
1
330
17
  0
LAYOUT
  5
1E
330
D
100
AcDbPlotSettings
  1

  2
Adobe PDF
  4
A3
  6

 40
7.5
 41
20.0
 42
7.5
 43
20.0
 44
420.0
 45
297.0
 46
0.0
 47
0.0
 48
0.0
 49
0.0
140
0.0
141
0.0
142
1.0
143
1.0
 70
0
 72
1
 73
0
 74
5
  7

 75
16
 76
0
 77
2
 78
300
147
1.0
148
0.0
149
0.0
100
AcDbLayout
  1
Layout1
 70
1
 71
1
 10
0.0
 20
0.0
 11
420.0
 21
297.0
 12
0.0
 22
0.0
 32
0.0
 14
1e+20
 24
1e+20
 34
1e+20
 15
-1e+20
 25
-1e+20
 35
-1e+20
146
0.0
 13
0.0
 23
0.0
 33
0.0
 16
1.0
 26
0.0
 36
0.0
 17
0.0
 27
1.0
 37
0.0
 76
1
330
1B
  0
MATERIAL
  5
1F
102
{ACAD_REACTORS
330
E
102
}
330
E
100
AcDbMaterial
  1
ByBlock
  2

 70
0
 40
1.0
 71
1
 41
1.0
 91
-1023410177
 42
1.0
 72
1
  3

 73
1
 74
1
 75
1
 44
0.5
 73
0
 45
1.0
 46
1.0
 77
1
  4

 78
1
 79
1
170
1
 48
1.0
171
1
  6

172
1
173
1
174
1
140
1.0
141
1.0
175
1
  7

176
1
177
1
178
1
143
1.0
179
1
  8

270
1
271
1
272
1
145
1.0
146
1.0
273
1
  9

274
1
275
1
276
1
 42
1.0
 72
1
  3

 73
1
 74
1
 75
1
 94
63
  0
MATERIAL
  5
20
102
{ACAD_REACTORS
330
E
102
}
330
E
100
AcDbMaterial
  1
ByLayer
  2

 70
0
 40
1.0
 71
1
 41
1.0
 91
-1023410177
 42
1.0
 72
1
  3

 73
1
 74
1
 75
1
 44
0.5
 73
0
 45
1.0
 46
1.0
 77
1
  4

 78
1
 79
1
170
1
 48
1.0
171
1
  6

172
1
173
1
174
1
140
1.0
141
1.0
175
1
  7

176
1
177
1
178
1
143
1.0
179
1
  8

270
1
271
1
272
1
145
1.0
146
1.0
273
1
  9

274
1
275
1
276
1
 42
1.0
 72
1
  3

 73
1
 74
1
 75
1
 94
63
  0
MATERIAL
  5
21
102
{ACAD_REACTORS
330
E
102
}
330
E
100
AcDbMaterial
  1
Global
  2

 70
0
 40
1.0
 71
1
 41
1.0
 91
-1023410177
 42
1.0
 72
1
  3

 73
1
 74
1
 75
1
 44
0.5
 73
0
 45
1.0
 46
1.0
 77
1
  4

 78
1
 79
1
170
1
 48
1.0
171
1
  6

172
1
173
1
174
1
140
1.0
141
1.0
175
1
  7

176
1
177
1
178
1
143
1.0
179
1
  8

270
1
271
1
272
1
145
1.0
146
1.0
273
1
  9

274
1
275
1
276
1
 42
1.0
 72
1
  3

 73
1
 74
1
 75
1
 94
63
  0
MLINESTYLE
  5
22
102
{ACAD_REACTORS
330
10
102
}
330
10
100
AcDbMlineStyle
  2
Standard
 70
0
  3

 62
256
 51
90.0
 52
90.0
 71
2
 49
0.5
 62
256
  6
BYLAYER
 49
-0.5
 62
256
  6
BYLAYER
  0
MLEADERSTYLE
  5
2C
102
{ACAD_REACTORS
330
F
102
}
330
F
100
AcDbMLeaderStyle
179
2
170
2
171
1
172
0
 90
2
 40
0.0
 41
0.0
173
1
 91
-1056964608
 92
-2
290
1
 42
2.0
291
1
 43
8.0
  3
Standard
 44
4.0
300

342
29
174
1
175
1
176
0
178
1
 93
-1056964608
 45
4.0
292
0
297
0
 46
4.0
 94
-1056964608
 47
1.0
 49
1.0
140
1.0
294
1
141
0.0
177
0
142
1.0
295
0
296
0
143
3.75
271
0
272
9
273
9
  0
DICTIONARY
  5
2D
330
A
100
AcDbDictionary
281
1
  3
CREATED_BY_EZDXF
350
2E
  3
WRITTEN_BY_EZDXF
350
FB
  0
DICTIONARYVAR
  5
2E
330
2D
100
DictionaryVariables
280
0
  1
1.0.2 @ 2023-11-27T08:45:34.359561+00:00
  0
DICTIONARYVAR
  5
FB
330
2D
100
DictionaryVariables
280
0
  1
1.0.2 @ 2023-11-27T08:45:34.365836+00:00
  0
ENDSEC
  0
EOF
