  0
SECTION
  2
HEADER
  9
$ACADVER
  1
AC1027
  9
$ACADMAINTVER
 70
105
  9
$DWGCODEPAGE
  3
ANSI_1252
  9
$LASTSAVEDBY
  1
ezdxf
  9
$REQUIREDVERSIONS
160
0
  9
$INSBASE
 10
0.0
 20
0.0
 30
0.0
  9
$EXTMIN
 10
1e+20
 20
1e+20
 30
1e+20
  9
$EXTMAX
 10
-1e+20
 20
-1e+20
 30
-1e+20
  9
$LIMMIN
 10
0.0
 20
0.0
  9
$LIMMAX
 10
420.0
 20
297.0
  9
$ORTHOMODE
 70
0
  9
$REGENMODE
 70
1
  9
$FILLMODE
 70
1
  9
$QTEXTMODE
 70
0
  9
$MIRRTEXT
 70
1
  9
$LTSCALE
 40
1.0
  9
$ATTMODE
 70
1
  9
$TEXTSIZE
 40
2.5
  9
$TRACEWID
 40
1.0
  9
$TEXTSTYLE
  7
Standard
  9
$CLAYER
  8
0
  9
$CELTYPE
  6
ByLayer
  9
$CECOLOR
 62
256
  9
$CELTSCALE
 40
1.0
  9
$DISPSILH
 70
0
  9
$DIMSCALE
 40
1.0
  9
$DIMASZ
 40
2.5
  9
$DIMEXO
 40
0.625
  9
$DIMDLI
 40
3.75
  9
$DIMRND
 40
0.0
  9
$DIMDLE
 40
0.0
  9
$DIMEXE
 40
1.25
  9
$DIMTP
 40
0.0
  9
$DIMTM
 40
0.0
  9
$DIMTXT
 40
2.5
  9
$DIMCEN
 40
2.5
  9
$DIMTSZ
 40
0.0
  9
$DIMTOL
 70
0
  9
$DIMLIM
 70
0
  9
$DIMTIH
 70
0
  9
$DIMTOH
 70
0
  9
$DIMSE1
 70
0
  9
$DIMSE2
 70
0
  9
$DIMTAD
 70
1
  9
$DIMZIN
 70
8
  9
$DIMBLK
  1

  9
$DIMASO
 70
1
  9
$DIMSHO
 70
1
  9
$DIMPOST
  1

  9
$DIMAPOST
  1

  9
$DIMALT
 70
0
  9
$DIMALTD
 70
3
  9
$DIMALTF
 40
0.03937007874
  9
$DIMLFAC
 40
1.0
  9
$DIMTOFL
 70
1
  9
$DIMTVP
 40
0.0
  9
$DIMTIX
 70
0
  9
$DIMSOXD
 70
0
  9
$DIMSAH
 70
0
  9
$DIMBLK1
  1

  9
$DIMBLK2
  1

  9
$DIMSTYLE
  2
ISO-25
  9
$DIMCLRD
 70
0
  9
$DIMCLRE
 70
0
  9
$DIMCLRT
 70
0
  9
$DIMTFAC
 40
1.0
  9
$DIMGAP
 40
0.625
  9
$DIMJUST
 70
0
  9
$DIMSD1
 70
0
  9
$DIMSD2
 70
0
  9
$DIMTOLJ
 70
0
  9
$DIMTZIN
 70
8
  9
$DIMALTZ
 70
0
  9
$DIMALTTZ
 70
0
  9
$DIMUPT
 70
0
  9
$DIMDEC
 70
2
  9
$DIMTDEC
 70
2
  9
$DIMALTU
 70
2
  9
$DIMALTTD
 70
3
  9
$DIMTXSTY
  7
Standard
  9
$DIMAUNIT
 70
0
  9
$DIMADEC
 70
0
  9
$DIMALTRND
 40
0.0
  9
$DIMAZIN
 70
0
  9
$DIMDSEP
 70
44
  9
$DIMATFIT
 70
3
  9
$DIMFRAC
 70
0
  9
$DIMLDRBLK
  1

  9
$DIMLUNIT
 70
2
  9
$DIMLWD
 70
-2
  9
$DIMLWE
 70
-2
  9
$DIMTMOVE
 70
0
  9
$DIMFXL
 40
1.0
  9
$DIMFXLON
 70
0
  9
$DIMJOGANG
 40
0.785398163397
  9
$DIMTFILL
 70
0
  9
$DIMTFILLCLR
 70
0
  9
$DIMARCSYM
 70
0
  9
$DIMLTYPE
  6

  9
$DIMLTEX1
  6

  9
$DIMLTEX2
  6

  9
$DIMTXTDIRECTION
 70
0
  9
$LUNITS
 70
2
  9
$LUPREC
 70
4
  9
$SKETCHINC
 40
1.0
  9
$FILLETRAD
 40
10.0
  9
$AUNITS
 70
0
  9
$AUPREC
 70
2
  9
$MENU
  1
.
  9
$ELEVATION
 40
0.0
  9
$PELEVATION
 40
0.0
  9
$THICKNESS
 40
0.0
  9
$LIMCHECK
 70
0
  9
$CHAMFERA
 40
0.0
  9
$CHAMFERB
 40
0.0
  9
$CHAMFERC
 40
0.0
  9
$CHAMFERD
 40
0.0
  9
$SKPOLY
 70
0
  9
$TDCREATE
 40
2460276.0316898148
  9
$TDUCREATE
 40
2458532.153996898
  9
$TDUPDATE
 40
2460276.0316898148
  9
$TDUUPDATE
 40
2458532.1544311
  9
$TDINDWG
 40
0.0
  9
$TDUSRTIMER
 40
0.0
  9
$USRTIMER
 70
1
  9
$ANGBASE
 50
0.0
  9
$ANGDIR
 70
0
  9
$PDMODE
 70
0
  9
$PDSIZE
 40
0.0
  9
$PLINEWID
 40
0.0
  9
$SPLFRAME
 70
0
  9
$SPLINETYPE
 70
6
  9
$SPLINESEGS
 70
8
  9
$HANDSEED
  5
3B2
  9
$SURFTAB1
 70
6
  9
$SURFTAB2
 70
6
  9
$SURFTYPE
 70
6
  9
$SURFU
 70
6
  9
$SURFV
 70
6
  9
$UCSBASE
  2

  9
$UCSNAME
  2

  9
$UCSORG
 10
0.0
 20
0.0
 30
0.0
  9
$UCSXDIR
 10
1.0
 20
0.0
 30
0.0
  9
$UCSYDIR
 10
0.0
 20
1.0
 30
0.0
  9
$UCSORTHOREF
  2

  9
$UCSORTHOVIEW
 70
0
  9
$UCSORGTOP
 10
0.0
 20
0.0
 30
0.0
  9
$UCSORGBOTTOM
 10
0.0
 20
0.0
 30
0.0
  9
$UCSORGLEFT
 10
0.0
 20
0.0
 30
0.0
  9
$UCSORGRIGHT
 10
0.0
 20
0.0
 30
0.0
  9
$UCSORGFRONT
 10
0.0
 20
0.0
 30
0.0
  9
$UCSORGBACK
 10
0.0
 20
0.0
 30
0.0
  9
$PUCSBASE
  2

  9
$PUCSNAME
  2

  9
$PUCSORG
 10
0.0
 20
0.0
 30
0.0
  9
$PUCSXDIR
 10
1.0
 20
0.0
 30
0.0
  9
$PUCSYDIR
 10
0.0
 20
1.0
 30
0.0
  9
$PUCSORTHOREF
  2

  9
$PUCSORTHOVIEW
 70
0
  9
$PUCSORGTOP
 10
0.0
 20
0.0
 30
0.0
  9
$PUCSORGBOTTOM
 10
0.0
 20
0.0
 30
0.0
  9
$PUCSORGLEFT
 10
0.0
 20
0.0
 30
0.0
  9
$PUCSORGRIGHT
 10
0.0
 20
0.0
 30
0.0
  9
$PUCSORGFRONT
 10
0.0
 20
0.0
 30
0.0
  9
$PUCSORGBACK
 10
0.0
 20
0.0
 30
0.0
  9
$USERI1
 70
0
  9
$USERI2
 70
0
  9
$USERI3
 70
0
  9
$USERI4
 70
0
  9
$USERI5
 70
0
  9
$USERR1
 40
0.0
  9
$USERR2
 40
0.0
  9
$USERR3
 40
0.0
  9
$USERR4
 40
0.0
  9
$USERR5
 40
0.0
  9
$WORLDVIEW
 70
1
  9
$SHADEDGE
 70
3
  9
$SHADEDIF
 70
70
  9
$TILEMODE
 70
1
  9
$MAXACTVP
 70
64
  9
$PINSBASE
 10
0.0
 20
0.0
 30
0.0
  9
$PLIMCHECK
 70
0
  9
$PEXTMIN
 10
1e+20
 20
1e+20
 30
1e+20
  9
$PEXTMAX
 10
-1e+20
 20
-1e+20
 30
-1e+20
  9
$PLIMMIN
 10
0.0
 20
0.0
  9
$PLIMMAX
 10
420.0
 20
297.0
  9
$UNITMODE
 70
0
  9
$VISRETAIN
 70
1
  9
$PLINEGEN
 70
0
  9
$PSLTSCALE
 70
1
  9
$TREEDEPTH
 70
3020
  9
$CMLSTYLE
  2
Standard
  9
$CMLJUST
 70
0
  9
$CMLSCALE
 40
20.0
  9
$PROXYGRAPHICS
 70
1
  9
$MEASUREMENT
 70
1
  9
$CELWEIGHT
370
-1
  9
$ENDCAPS
280
0
  9
$JOINSTYLE
280
0
  9
$LWDISPLAY
290
0
  9
$INSUNITS
 70
6
  9
$HYPERLINKBASE
  1

  9
$STYLESHEET
  1

  9
$XEDIT
290
1
  9
$CEPSNTYPE
380
0
  9
$PSTYLEMODE
290
1
  9
$FINGERPRINTGUID
  2
{4BE5862C-47C2-4F76-9A66-D803C26030B4}
  9
$VERSIONGUID
  2
{5D8B6D79-6E08-438C-938F-89AAB93C52F9}
  9
$EXTNAMES
290
1
  9
$PSVPSCALE
 40
0.0
  9
$OLESTARTUP
290
0
  9
$SORTENTS
280
127
  9
$INDEXCTL
280
0
  9
$HIDETEXT
280
1
  9
$XCLIPFRAME
280
0
  9
$HALOGAP
280
0
  9
$OBSCOLOR
 70
257
  9
$OBSLTYPE
280
0
  9
$INTERSECTIONDISPLAY
280
0
  9
$INTERSECTIONCOLOR
 70
257
  9
$DIMASSOC
280
2
  9
$PROJECTNAME
  1

  9
$CAMERADISPLAY
290
0
  9
$LENSLENGTH
 40
50.0
  9
$CAMERAHEIGHT
 40
0.0
  9
$STEPSPERSEC
 40
24.0
  9
$STEPSIZE
 40
100.0
  9
$3DDWFPREC
 40
2.0
  9
$PSOLWIDTH
 40
0.005
  9
$PSOLHEIGHT
 40
0.08
  9
$LOFTANG1
 40
1.570796326795
  9
$LOFTANG2
 40
1.570796326795
  9
$LOFTMAG1
 40
0.0
  9
$LOFTMAG2
 40
0.0
  9
$LOFTPARAM
 70
7
  9
$LOFTNORMALS
280
1
  9
$LATITUDE
 40
37.795
  9
$LONGITUDE
 40
-122.394
  9
$NORTHDIRECTION
 40
0.0
  9
$TIMEZONE
 70
-8000
  9
$LIGHTGLYPHDISPLAY
280
1
  9
$TILEMODELIGHTSYNCH
280
1
  9
$CMATERIAL
347
20
  9
$SOLIDHIST
280
0
  9
$SHOWHIST
280
1
  9
$DWFFRAME
280
2
  9
$DGNFRAME
280
2
  9
$REALWORLDSCALE
290
1
  9
$INTERFERECOLOR
 62
256
  9
$CSHADOW
280
0
  9
$SHADOWPLANELOCATION
 40
0.0
  0
ENDSEC
  0
SECTION
  2
CLASSES
  0
CLASS
  1
ACDBDICTIONARYWDFLT
  2
AcDbDictionaryWithDefault
  3
ObjectDBX Classes
 90
0
 91
0
280
0
281
0
  0
CLASS
  1
SUN
  2
AcDbSun
  3
SCENEOE
 90
1153
 91
0
280
0
281
0
  0
CLASS
  1
VISUALSTYLE
  2
AcDbVisualStyle
  3
ObjectDBX Classes
 90
4095
 91
0
280
0
281
0
  0
CLASS
  1
MATERIAL
  2
AcDbMaterial
  3
ObjectDBX Classes
 90
1153
 91
0
280
0
281
0
  0
CLASS
  1
SCALE
  2
AcDbScale
  3
ObjectDBX Classes
 90
1153
 91
0
280
0
281
0
  0
CLASS
  1
TABLESTYLE
  2
AcDbTableStyle
  3
ObjectDBX Classes
 90
4095
 91
0
280
0
281
0
  0
CLASS
  1
MLEADERSTYLE
  2
AcDbMLeaderStyle
  3
ACDB_MLEADERSTYLE_CLASS
 90
4095
 91
0
280
0
281
0
  0
CLASS
  1
DICTIONARYVAR
  2
AcDbDictionaryVar
  3
ObjectDBX Classes
 90
0
 91
0
280
0
281
0
  0
CLASS
  1
CELLSTYLEMAP
  2
AcDbCellStyleMap
  3
ObjectDBX Classes
 90
1152
 91
0
280
0
281
0
  0
CLASS
  1
MENTALRAYRENDERSETTINGS
  2
AcDbMentalRayRenderSettings
  3
SCENEOE
 90
1024
 91
0
280
0
281
0
  0
CLASS
  1
ACDBDETAILVIEWSTYLE
  2
AcDbDetailViewStyle
  3
ObjectDBX Classes
 90
1025
 91
0
280
0
281
0
  0
CLASS
  1
ACDBSECTIONVIEWSTYLE
  2
AcDbSectionViewStyle
  3
ObjectDBX Classes
 90
1025
 91
0
280
0
281
0
  0
CLASS
  1
RASTERVARIABLES
  2
AcDbRasterVariables
  3
ISM
 90
0
 91
0
280
0
281
0
  0
CLASS
  1
ACDBPLACEHOLDER
  2
AcDbPlaceHolder
  3
ObjectDBX Classes
 90
0
 91
0
280
0
281
0
  0
CLASS
  1
LAYOUT
  2
AcDbLayout
  3
ObjectDBX Classes
 90
0
 91
0
280
0
281
0
  0
ENDSEC
  0
SECTION
  2
TABLES
  0
TABLE
  2
VPORT
  5
8
330
0
100
AcDbSymbolTable
 70
1
  0
VPORT
  5
23
330
8
100
AcDbSymbolTableRecord
100
AcDbViewportTableRecord
  2
*Active
 70
0
 10
0.0
 20
0.0
 11
1.0
 21
1.0
 12
0.0
 22
0.0
 13
0.0
 23
0.0
 14
0.5
 24
0.5
 15
0.5
 25
0.5
 16
0.0
 26
0.0
 36
1.0
 17
0.0
 27
0.0
 37
0.0
 40
1000.0
 41
1.34
 42
50.0
 43
0.0
 44
0.0
 50
0.0
 51
0.0
 71
0
 72
1000
 73
1
 74
3
 75
0
 76
0
 77
0
 78
0
281
0
 65
0
146
0.0
  0
ENDTAB
  0
TABLE
  2
LTYPE
  5
2
330
0
100
AcDbSymbolTable
 70
3
  0
LTYPE
  5
24
330
2
100
AcDbSymbolTableRecord
100
AcDbLinetypeTableRecord
  2
ByBlock
 70
0
  3

 72
65
 73
0
 40
0.0
  0
LTYPE
  5
25
330
2
100
AcDbSymbolTableRecord
100
AcDbLinetypeTableRecord
  2
ByLayer
 70
0
  3

 72
65
 73
0
 40
0.0
  0
LTYPE
  5
26
330
2
100
AcDbSymbolTableRecord
100
AcDbLinetypeTableRecord
  2
Continuous
 70
0
  3

 72
65
 73
0
 40
0.0
  0
ENDTAB
  0
TABLE
  2
LAYER
  5
1
330
0
100
AcDbSymbolTable
 70
2
  0
LAYER
  5
27
330
1
100
AcDbSymbolTableRecord
100
AcDbLayerTableRecord
  2
0
 70
0
 62
7
  6
Continuous
370
-3
390
13
347
21
  0
LAYER
  5
28
330
1
100
AcDbSymbolTableRecord
100
AcDbLayerTableRecord
  2
Defpoints
 70
0
 62
7
  6
Continuous
290
0
370
-3
390
13
347
21
  0
ENDTAB
  0
TABLE
  2
STYLE
  5
5
330
0
100
AcDbSymbolTable
 70
1
  0
STYLE
  5
29
330
5
100
AcDbSymbolTableRecord
100
AcDbTextStyleTableRecord
  2
Standard
 70
0
 40
0.0
 41
1.0
 50
0.0
 71
0
 42
2.5
  3
txt
  4

  0
ENDTAB
  0
TABLE
  2
VIEW
  5
7
330
0
100
AcDbSymbolTable
 70
0
  0
ENDTAB
  0
TABLE
  2
UCS
  5
6
330
0
100
AcDbSymbolTable
 70
0
  0
ENDTAB
  0
TABLE
  2
APPID
  5
3
330
0
100
AcDbSymbolTable
 70
3
  0
APPID
  5
2A
330
3
100
AcDbSymbolTableRecord
100
AcDbRegAppTableRecord
  2
ACAD
 70
0
  0
APPID
  5
3AF
330
3
100
AcDbSymbolTableRecord
100
AcDbRegAppTableRecord
  2
HATCHBACKGROUNDCOLOR
 70
0
  0
APPID
  5
3B0
330
3
100
AcDbSymbolTableRecord
100
AcDbRegAppTableRecord
  2
EZDXF
 70
0
  0
ENDTAB
  0
TABLE
  2
DIMSTYLE
  5
4
330
0
100
AcDbSymbolTable
 70
1
100
AcDbDimStyleTable
  0
DIMSTYLE
105
2B
330
4
100
AcDbSymbolTableRecord
100
AcDbDimStyleTableRecord
  2
Standard
 70
0
 40
1.0
 41
2.5
 42
0.625
 43
3.75
 44
1.25
 45
0.0
 46
0.0
 47
0.0
 48
0.0
 49
2.5
140
2.5
141
2.5
142
0.0
143
0.03937007874
144
1.0
145
0.0
146
1.0
147
0.625
148
0.0
 69
0
 70
0
 71
0
 72
0
 73
0
 74
0
 75
0
 76
0
 77
1
 78
8
 79
3
170
0
171
3
172
1
173
0
174
0
175
0
176
0
177
0
178
0
179
2
271
2
272
2
273
2
274
3
275
0
276
0
277
2
278
44
279
0
280
0
281
0
282
0
283
0
284
8
285
0
286
0
288
0
289
3
290
0
371
-2
372
-2
  0
ENDTAB
  0
TABLE
  2
BLOCK_RECORD
  5
9
330
0
100
AcDbSymbolTable
 70
2
  0
BLOCK_RECORD
  5
17
330
9
100
AcDbSymbolTableRecord
100
AcDbBlockTableRecord
  2
*Model_Space
340
1A
 70
0
280
1
281
0
  0
BLOCK_RECORD
  5
1B
330
9
100
AcDbSymbolTableRecord
100
AcDbBlockTableRecord
  2
*Paper_Space
340
1E
 70
0
280
1
281
0
  0
ENDTAB
  0
ENDSEC
  0
SECTION
  2
BLOCKS
  0
BLOCK
  5
18
330
17
100
AcDbEntity
  8
0
100
AcDbBlockBegin
  2
*Model_Space
 70
0
 10
0.0
 20
0.0
 30
0.0
  3
*Model_Space
  1

  0
ENDBLK
  5
19
330
17
100
AcDbEntity
  8
0
100
AcDbBlockEnd
  0
BLOCK
  5
1C
330
1B
100
AcDbEntity
  8
0
100
AcDbBlockBegin
  2
*Paper_Space
 70
0
 10
0.0
 20
0.0
 30
0.0
  3
*Paper_Space
  1

  0
ENDBLK
  5
1D
330
1B
100
AcDbEntity
  8
0
100
AcDbBlockEnd
  0
ENDSEC
  0
SECTION
  2
ENTITIES
  0
LINE
  5
2F
330
17
100
AcDbEntity
  8
0
100
AcDbLine
 10
-142.55101295182095
 20
3.00000000000018
 30
0.0
 11
-171.97479442690096
 21
3.00000000000018
 31
0.0
  0
LINE
  5
30
330
17
100
AcDbEntity
  8
0
100
AcDbLine
 10
-6.00000000000022
 20
133.72950548413576
 30
0.0
 11
-8.212793941156038
 21
133.38287256964844
 31
0.0
  0
LINE
  5
31
330
17
100
AcDbEntity
  8
0
100
AcDbLine
 10
-8.212793941156038
 20
133.38287256964844
 30
0.0
 11
-10.422918543305688
 21
133.01899472908823
 31
0.0
  0
LINE
  5
32
330
17
100
AcDbEntity
  8
0
100
AcDbLine
 10
-10.422918543305688
 20
133.01899472908823
 30
0.0
 11
-12.630224031659592
 21
132.63791178144226
 31
0.0
  0
LINE
  5
33
330
17
100
AcDbEntity
  8
0
100
AcDbLine
 10
-12.630224031659592
 20
132.63791178144226
 30
0.0
 11
-14.83456063142817
 21
132.2396635456975
 31
0.0
  0
LINE
  5
34
330
17
100
AcDbEntity
  8
0
100
AcDbLine
 10
-14.83456063142817
 20
132.2396635456975
 30
0.0
 11
-17.03577856782184
 21
131.82428984084106
 31
0.0
  0
LINE
  5
35
330
17
100
AcDbEntity
  8
0
100
AcDbLine
 10
-17.03577856782184
 20
131.82428984084106
 30
0.0
 11
-19.23372806605102
 21
131.39183048586
 31
0.0
  0
LINE
  5
36
330
17
100
AcDbEntity
  8
0
100
AcDbLine
 10
-19.23372806605102
 20
131.39183048586
 30
0.0
 11
-21.42825935132613
 21
130.94232529974138
 31
0.0
  0
LINE
  5
37
330
17
100
AcDbEntity
  8
0
100
AcDbLine
 10
-21.42825935132613
 20
130.94232529974138
 30
0.0
 11
-23.619222648857594
 21
130.47581410147225
 31
0.0
  0
LINE
  5
38
330
17
100
AcDbEntity
  8
0
100
AcDbLine
 10
-23.619222648857594
 20
130.47581410147225
 30
0.0
 11
-25.80646818385582
 21
129.9923367100397
 31
0.0
  0
LINE
  5
39
330
17
100
AcDbEntity
  8
0
100
AcDbLine
 10
-25.80646818385582
 20
129.9923367100397
 30
0.0
 11
-27.989846181531238
 21
129.49193294443074
 31
0.0
  0
LINE
  5
3A
330
17
100
AcDbEntity
  8
0
100
AcDbLine
 10
-27.989846181531238
 20
129.49193294443074
 30
0.0
 11
-30.16920686709426
 21
128.97464262363246
 31
0.0
  0
LINE
  5
3B
330
17
100
AcDbEntity
  8
0
100
AcDbLine
 10
-30.16920686709426
 20
128.97464262363246
 30
0.0
 11
-32.344400465755314
 21
128.44050556663194
 31
0.0
  0
LINE
  5
3C
330
17
100
AcDbEntity
  8
0
100
AcDbLine
 10
-32.344400465755314
 20
128.44050556663194
 30
0.0
 11
-34.51527720272481
 21
127.8895615924162
 31
0.0
  0
LINE
  5
3D
330
17
100
AcDbEntity
  8
0
100
AcDbLine
 10
-34.51527720272481
 20
127.8895615924162
 30
0.0
 11
-36.68168730321316
 21
127.32185051997234
 31
0.0
  0
LINE
  5
3E
330
17
100
AcDbEntity
  8
0
100
AcDbLine
 10
-36.68168730321316
 20
127.32185051997234
 30
0.0
 11
-38.84348099243081
 21
126.73741216828739
 31
0.0
  0
LINE
  5
3F
330
17
100
AcDbEntity
  8
0
100
AcDbLine
 10
-38.84348099243081
 20
126.73741216828739
 30
0.0
 11
-41.000508772132974
 21
126.13628589956205
 31
0.0
  0
LINE
  5
40
330
17
100
AcDbEntity
  8
0
100
AcDbLine
 10
-41.000508772132974
 20
126.13628589956205
 30
0.0
 11
-43.15264150565296
 21
125.51847744350384
 31
0.0
  0
LINE
  5
41
330
17
100
AcDbEntity
  8
0
100
AcDbLine
 10
-43.15264150565296
 20
125.51847744350384
 30
0.0
 11
-45.299783998871234
 21
124.88393646479037
 31
0.0
  0
LINE
  5
42
330
17
100
AcDbEntity
  8
0
100
AcDbLine
 10
-45.299783998871234
 20
124.88393646479037
 30
0.0
 11
-47.441844274788444
 21
124.23260731418043
 31
0.0
  0
LINE
  5
43
330
17
100
AcDbEntity
  8
0
100
AcDbLine
 10
-47.441844274788444
 20
124.23260731418043
 30
0.0
 11
-49.57873035640524
 21
123.56443434243279
 31
0.0
  0
LINE
  5
44
330
17
100
AcDbEntity
  8
0
100
AcDbLine
 10
-49.57873035640524
 20
123.56443434243279
 30
0.0
 11
-51.71034346369953
 21
122.87942190804576
 31
0.0
  0
LINE
  5
45
330
17
100
AcDbEntity
  8
0
100
AcDbLine
 10
-51.71034346369953
 20
122.87942190804576
 30
0.0
 11
-53.83655558173832
 21
122.17783224325882
 31
0.0
  0
LINE
  5
46
330
17
100
AcDbEntity
  8
0
100
AcDbLine
 10
-53.83655558173832
 20
122.17783224325882
 30
0.0
 11
-55.95723084412201
 21
121.45999683610835
 31
0.0
  0
LINE
  5
47
330
17
100
AcDbEntity
  8
0
100
AcDbLine
 10
-55.95723084412201
 20
121.45999683610835
 30
0.0
 11
-58.07223338435124
 21
120.72624717551075
 31
0.0
  0
LINE
  5
48
330
17
100
AcDbEntity
  8
0
100
AcDbLine
 10
-58.07223338435124
 20
120.72624717551075
 30
0.0
 11
-60.181427335926685
 21
119.97691475038246
 31
0.0
  0
LINE
  5
49
330
17
100
AcDbEntity
  8
0
100
AcDbLine
 10
-60.181427335926685
 20
119.97691475038246
 30
0.0
 11
-62.284674321614794
 21
119.21221335881982
 31
0.0
  0
LINE
  5
4A
330
17
100
AcDbEntity
  8
0
100
AcDbLine
 10
-62.284674321614794
 20
119.21221335881982
 30
0.0
 11
-64.38181226266998
 21
118.43124578906318
 31
0.0
  0
LINE
  5
4B
330
17
100
AcDbEntity
  8
0
100
AcDbLine
 10
-64.38181226266998
 20
118.43124578906318
 30
0.0
 11
-66.47266604590911
 21
117.63250383928123
 31
0.0
  0
LINE
  5
4C
330
17
100
AcDbEntity
  8
0
100
AcDbLine
 10
-66.47266604590911
 20
117.63250383928123
 30
0.0
 11
-68.55706042300288
 21
116.81447297265831
 31
0.0
  0
LINE
  5
4D
330
17
100
AcDbEntity
  8
0
100
AcDbLine
 10
-68.55706042300288
 20
116.81447297265831
 30
0.0
 11
-70.63445994435317
 21
115.97520570670424
 31
0.0
  0
LINE
  5
4E
330
17
100
AcDbEntity
  8
0
100
AcDbLine
 10
-70.63445994435317
 20
115.97520570670424
 30
0.0
 11
-72.70163879525322
 21
115.10952086144506
 31
0.0
  0
LINE
  5
4F
330
17
100
AcDbEntity
  8
0
100
AcDbLine
 10
-72.70163879525322
 20
115.10952086144506
 30
0.0
 11
-74.75415418664224
 21
114.21077450863734
 31
0.0
  0
LINE
  5
50
330
17
100
AcDbEntity
  8
0
100
AcDbLine
 10
-74.75415418664224
 20
114.21077450863734
 30
0.0
 11
-76.78755734609268
 21
113.27231552830088
 31
0.0
  0
LINE
  5
51
330
17
100
AcDbEntity
  8
0
100
AcDbLine
 10
-76.78755734609268
 20
113.27231552830088
 30
0.0
 11
-78.79739950117705
 21
112.28749280045544
 31
0.0
  0
LINE
  5
52
330
17
100
AcDbEntity
  8
0
100
AcDbLine
 10
-78.79739950117705
 20
112.28749280045544
 30
0.0
 11
-80.77923187946786
 21
111.24965520512079
 31
0.0
  0
LINE
  5
53
330
17
100
AcDbEntity
  8
0
100
AcDbLine
 10
-80.77923187946786
 20
111.24965520512079
 30
0.0
 11
-82.72865146163933
 21
110.15229024868961
 31
0.0
  0
LINE
  5
54
330
17
100
AcDbEntity
  8
0
100
AcDbLine
 10
-82.72865146163933
 20
110.15229024868961
 30
0.0
 11
-84.642611598223
 21
108.99299507441559
 31
0.0
  0
LINE
  5
55
330
17
100
AcDbEntity
  8
0
100
AcDbLine
 10
-84.642611598223
 20
108.99299507441559
 30
0.0
 11
-86.51961610559123
 21
107.77406454980336
 31
0.0
  0
LINE
  5
56
330
17
100
AcDbEntity
  8
0
100
AcDbLine
 10
-86.51961610559123
 20
107.77406454980336
 30
0.0
 11
-88.35825359021537
 21
106.49805044611742
 31
0.0
  0
LINE
  5
57
330
17
100
AcDbEntity
  8
0
100
AcDbLine
 10
-88.35825359021537
 20
106.49805044611742
 30
0.0
 11
-90.15711265856677
 21
105.16750453462227
 31
0.0
  0
LINE
  5
58
330
17
100
AcDbEntity
  8
0
100
AcDbLine
 10
-90.15711265856677
 20
105.16750453462227
 30
0.0
 11
-91.91525425169065
 21
103.78521105626918
 31
0.0
  0
LINE
  5
59
330
17
100
AcDbEntity
  8
0
100
AcDbLine
 10
-91.91525425169065
 20
103.78521105626918
 30
0.0
 11
-93.63412829710438
 21
102.35513004342432
 31
0.0
  0
LINE
  5
5A
330
17
100
AcDbEntity
  8
0
100
AcDbLine
 10
-93.63412829710438
 20
102.35513004342432
 30
0.0
 11
-95.31593825380497
 21
100.88159239528581
 31
0.0
  0
LINE
  5
5B
330
17
100
AcDbEntity
  8
0
100
AcDbLine
 10
-95.31593825380497
 20
100.88159239528581
 30
0.0
 11
-96.96288786606952
 21
99.36892915145854
 31
0.0
  0
LINE
  5
5C
330
17
100
AcDbEntity
  8
0
100
AcDbLine
 10
-96.96288786606952
 20
99.36892915145854
 30
0.0
 11
-98.57718087817523
 21
97.82147135154747
 31
0.0
  0
LINE
  5
5D
330
17
100
AcDbEntity
  8
0
100
AcDbLine
 10
-98.57718087817523
 20
97.82147135154747
 30
0.0
 11
-100.1610210343992
 21
96.2435500351575
 31
0.0
  0
LINE
  5
5E
330
17
100
AcDbEntity
  8
0
100
AcDbLine
 10
-100.1610210343992
 20
96.2435500351575
 30
0.0
 11
-101.7166864695508
 21
94.63939755107485
 31
0.0
  0
LINE
  5
5F
330
17
100
AcDbEntity
  8
0
100
AcDbLine
 10
-101.7166864695508
 20
94.63939755107485
 30
0.0
 11
-103.24707935385905
 21
93.01241836630267
 31
0.0
  0
LINE
  5
60
330
17
100
AcDbEntity
  8
0
100
AcDbLine
 10
-103.24707935385905
 20
93.01241836630267
 30
0.0
 11
-104.75541349827684
 21
91.365603507084
 31
0.0
  0
LINE
  5
61
330
17
100
AcDbEntity
  8
0
100
AcDbLine
 10
-104.75541349827684
 20
91.365603507084
 30
0.0
 11
-106.24490501422967
 21
89.70194094772083
 31
0.0
  0
LINE
  5
62
330
17
100
AcDbEntity
  8
0
100
AcDbLine
 10
-106.24490501422967
 20
89.70194094772083
 30
0.0
 11
-107.71877001314303
 21
88.02441866251512
 31
0.0
  0
LINE
  5
63
330
17
100
AcDbEntity
  8
0
100
AcDbLine
 10
-107.71877001314303
 20
88.02441866251512
 30
0.0
 11
-109.18022460644241
 21
86.33602462576881
 31
0.0
  0
LINE
  5
64
330
17
100
AcDbEntity
  8
0
100
AcDbLine
 10
-109.18022460644241
 20
86.33602462576881
 30
0.0
 11
-110.63248490555328
 21
84.63974681178394
 31
0.0
  0
LINE
  5
65
330
17
100
AcDbEntity
  8
0
100
AcDbLine
 10
-110.63248490555328
 20
84.63974681178394
 30
0.0
 11
-112.07848305600909
 21
82.93831924496054
 31
0.0
  0
LINE
  5
66
330
17
100
AcDbEntity
  8
0
100
AcDbLine
 10
-112.07848305600909
 20
82.93831924496054
 30
0.0
 11
-113.51840537478091
 21
81.23202036290641
 31
0.0
  0
LINE
  5
67
330
17
100
AcDbEntity
  8
0
100
AcDbLine
 10
-113.51840537478091
 20
81.23202036290641
 30
0.0
 11
-114.95089902998718
 21
79.5197521467217
 31
0.0
  0
LINE
  5
68
330
17
100
AcDbEntity
  8
0
100
AcDbLine
 10
-114.95089902998718
 20
79.5197521467217
 30
0.0
 11
-116.37459421140001
 21
77.80040139381885
 31
0.0
  0
LINE
  5
69
330
17
100
AcDbEntity
  8
0
100
AcDbLine
 10
-116.37459421140001
 20
77.80040139381885
 30
0.0
 11
-117.78812110879144
 21
76.07285490161034
 31
0.0
  0
LINE
  5
6A
330
17
100
AcDbEntity
  8
0
100
AcDbLine
 10
-117.78812110879144
 20
76.07285490161034
 30
0.0
 11
-119.19013559956602
 21
74.3360224325723
 31
0.0
  0
LINE
  5
6B
330
17
100
AcDbEntity
  8
0
100
AcDbLine
 10
-119.19013559956602
 20
74.3360224325723
 30
0.0
 11
-120.58005862885472
 21
72.58949772926567
 31
0.0
  0
LINE
  5
6C
330
17
100
AcDbEntity
  8
0
100
AcDbLine
 10
-120.58005862885472
 20
72.58949772926567
 30
0.0
 11
-121.95818771989973
 21
70.83365820601058
 31
0.0
  0
LINE
  5
6D
330
17
100
AcDbEntity
  8
0
100
AcDbLine
 10
-121.95818771989973
 20
70.83365820601058
 30
0.0
 11
-123.32486851515921
 21
69.06892429630577
 31
0.0
  0
LINE
  5
6E
330
17
100
AcDbEntity
  8
0
100
AcDbLine
 10
-123.32486851515921
 20
69.06892429630577
 30
0.0
 11
-124.68044665709121
 21
67.29571643365017
 31
0.0
  0
LINE
  5
6F
330
17
100
AcDbEntity
  8
0
100
AcDbLine
 10
-124.68044665709121
 20
67.29571643365017
 30
0.0
 11
-126.02521423379783
 21
65.51440671583111
 31
0.0
  0
LINE
  5
70
330
17
100
AcDbEntity
  8
0
100
AcDbLine
 10
-126.02521423379783
 20
65.51440671583111
 30
0.0
 11
-127.35917663476425
 21
63.72510847958165
 31
0.0
  0
LINE
  5
71
330
17
100
AcDbEntity
  8
0
100
AcDbLine
 10
-127.35917663476425
 20
63.72510847958165
 30
0.0
 11
-128.68224371076482
 21
61.927848832765484
 31
0.0
  0
LINE
  5
72
330
17
100
AcDbEntity
  8
0
100
AcDbLine
 10
-128.68224371076482
 20
61.927848832765484
 30
0.0
 11
-129.99432524703727
 21
60.12265482409596
 31
0.0
  0
LINE
  5
73
330
17
100
AcDbEntity
  8
0
100
AcDbLine
 10
-129.99432524703727
 20
60.12265482409596
 30
0.0
 11
-131.29533102881928
 21
58.30955350228649
 31
0.0
  0
LINE
  5
74
330
17
100
AcDbEntity
  8
0
100
AcDbLine
 10
-131.29533102881928
 20
58.30955350228649
 30
0.0
 11
-132.58517076587793
 21
56.48857188161307
 31
0.0
  0
LINE
  5
75
330
17
100
AcDbEntity
  8
0
100
AcDbLine
 10
-132.58517076587793
 20
56.48857188161307
 30
0.0
 11
-133.86369408423874
 21
54.659709560073
 31
0.0
  0
LINE
  5
76
330
17
100
AcDbEntity
  8
0
100
AcDbLine
 10
-133.86369408423874
 20
54.659709560073
 30
0.0
 11
-135.13058254042997
 21
52.8228894453632
 31
0.0
  0
LINE
  5
77
330
17
100
AcDbEntity
  8
0
100
AcDbLine
 10
-135.13058254042997
 20
52.8228894453632
 30
0.0
 11
-136.38548852851292
 21
50.97802113831421
 31
0.0
  0
LINE
  5
78
330
17
100
AcDbEntity
  8
0
100
AcDbLine
 10
-136.38548852851292
 20
50.97802113831421
 30
0.0
 11
-137.6280661125244
 21
49.1250151274031
 31
0.0
  0
LINE
  5
79
330
17
100
AcDbEntity
  8
0
100
AcDbLine
 10
-137.6280661125244
 20
49.1250151274031
 30
0.0
 11
-138.85828730244268
 21
47.26395089977323
 31
0.0
  0
LINE
  5
7A
330
17
100
AcDbEntity
  8
0
100
AcDbLine
 10
-138.85828730244268
 20
47.26395089977323
 30
0.0
 11
-140.0768165341814
 21
45.39527598959843
 31
0.0
  0
LINE
  5
7B
330
17
100
AcDbEntity
  8
0
100
AcDbLine
 10
-140.0768165341814
 20
45.39527598959843
 30
0.0
 11
-141.28440936103425
 21
43.5194863629199
 31
0.0
  0
LINE
  5
7C
330
17
100
AcDbEntity
  8
0
100
AcDbLine
 10
-141.28440936103425
 20
43.5194863629199
 30
0.0
 11
-142.48182133629484
 21
41.63707798577881
 31
0.0
  0
LINE
  5
7D
330
17
100
AcDbEntity
  8
0
100
AcDbLine
 10
-142.48182133629484
 20
41.63707798577881
 30
0.0
 11
-143.6698080132568
 21
39.748546824216405
 31
0.0
  0
LINE
  5
7E
330
17
100
AcDbEntity
  8
0
100
AcDbLine
 10
-143.6698080132568
 20
39.748546824216405
 30
0.0
 11
-144.84901400035736
 21
37.854330882991576
 31
0.0
  0
LINE
  5
7F
330
17
100
AcDbEntity
  8
0
100
AcDbLine
 10
-144.84901400035736
 20
37.854330882991576
 30
0.0
 11
-146.0179217397402
 21
35.953738579292775
 31
0.0
  0
LINE
  5
80
330
17
100
AcDbEntity
  8
0
100
AcDbLine
 10
-146.0179217397402
 20
35.953738579292775
 30
0.0
 11
-147.17304805593972
 21
34.04505142630628
 31
0.0
  0
LINE
  5
81
330
17
100
AcDbEntity
  8
0
100
AcDbLine
 10
-147.17304805593972
 20
34.04505142630628
 30
0.0
 11
-148.31083825033122
 21
32.126513571141764
 31
0.0
  0
LINE
  5
82
330
17
100
AcDbEntity
  8
0
100
AcDbLine
 10
-148.31083825033122
 20
32.126513571141764
 30
0.0
 11
-149.42773762428996
 21
30.196369160908855
 31
0.0
  0
LINE
  5
83
330
17
100
AcDbEntity
  8
0
100
AcDbLine
 10
-149.42773762428996
 20
30.196369160908855
 30
0.0
 11
-150.52098420637498
 21
28.253275361581455
 31
0.0
  0
LINE
  5
84
330
17
100
AcDbEntity
  8
0
100
AcDbLine
 10
-150.52098420637498
 20
28.253275361581455
 30
0.0
 11
-151.60054761188275
 21
26.30252262433396
 31
0.0
  0
LINE
  5
85
330
17
100
AcDbEntity
  8
0
100
AcDbLine
 10
-151.60054761188275
 20
26.30252262433396
 30
0.0
 11
-152.68666321317886
 21
24.3547499633941
 31
0.0
  0
LINE
  5
86
330
17
100
AcDbEntity
  8
0
100
AcDbLine
 10
-152.68666321317886
 20
24.3547499633941
 30
0.0
 11
-153.79985876848568
 21
22.420748728972423
 31
0.0
  0
LINE
  5
87
330
17
100
AcDbEntity
  8
0
100
AcDbLine
 10
-153.79985876848568
 20
22.420748728972423
 30
0.0
 11
-154.96111617230363
 21
20.512870904856136
 31
0.0
  0
LINE
  5
88
330
17
100
AcDbEntity
  8
0
100
AcDbLine
 10
-154.96111617230363
 20
20.512870904856136
 30
0.0
 11
-156.19351776259666
 21
18.650686622235508
 31
0.0
  0
LINE
  5
89
330
17
100
AcDbEntity
  8
0
100
AcDbLine
 10
-156.19351776259666
 20
18.650686622235508
 30
0.0
 11
-157.5207527162485
 21
16.855851406575383
 31
0.0
  0
LINE
  5
8A
330
17
100
AcDbEntity
  8
0
100
AcDbLine
 10
-157.5207527162485
 20
16.855851406575383
 30
0.0
 11
-158.96413590180038
 21
15.149967084010557
 31
0.0
  0
LINE
  5
8B
330
17
100
AcDbEntity
  8
0
100
AcDbLine
 10
-158.96413590180038
 20
15.149967084010557
 30
0.0
 11
-160.5283366093042
 21
13.554257586079718
 31
0.0
  0
LINE
  5
8C
330
17
100
AcDbEntity
  8
0
100
AcDbLine
 10
-160.5283366093042
 20
13.554257586079718
 30
0.0
 11
-162.2063583381892
 21
12.082065075233988
 31
0.0
  0
LINE
  5
8D
330
17
100
AcDbEntity
  8
0
100
AcDbLine
 10
-162.2063583381892
 20
12.082065075233988
 30
0.0
 11
-163.96317729165105
 21
10.699162242527516
 31
0.0
  0
LINE
  5
8E
330
17
100
AcDbEntity
  8
0
100
AcDbLine
 10
-163.96317729165105
 20
10.699162242527516
 30
0.0
 11
-165.75309356635998
 21
9.353196267068444
 31
0.0
  0
LINE
  5
8F
330
17
100
AcDbEntity
  8
0
100
AcDbLine
 10
-165.75309356635998
 20
9.353196267068444
 30
0.0
 11
-167.52353009993521
 21
7.98403272316651
 31
0.0
  0
LINE
  5
90
330
17
100
AcDbEntity
  8
0
100
AcDbLine
 10
-167.52353009993521
 20
7.98403272316651
 30
0.0
 11
-169.20516890598978
 21
6.512623375348518
 31
0.0
  0
LINE
  5
91
330
17
100
AcDbEntity
  8
0
100
AcDbLine
 10
-169.20516890598978
 20
6.512623375348518
 30
0.0
 11
-170.724408359039
 21
4.859952926510636
 31
0.0
  0
LINE
  5
92
330
17
100
AcDbEntity
  8
0
100
AcDbLine
 10
-170.724408359039
 20
4.859952926510636
 30
0.0
 11
-171.97479442690087
 21
3.000000000000118
 31
0.0
  0
LINE
  5
93
330
17
100
AcDbEntity
  8
0
100
AcDbLine
 10
-5.99999999999995
 20
133.729505484136
 30
0.0
 11
-5.99999999999995
 21
-133.729505484136
 31
0.0
  0
LINE
  5
94
330
17
100
AcDbEntity
  8
0
100
AcDbLine
 10
-6.000000000000228
 20
-133.72950548413573
 30
0.0
 11
-8.212793941156052
 21
-133.38287256964844
 31
0.0
  0
LINE
  5
95
330
17
100
AcDbEntity
  8
0
100
AcDbLine
 10
-8.212793941156052
 20
-133.38287256964844
 30
0.0
 11
-10.422918543305707
 21
-133.01899472908826
 31
0.0
  0
LINE
  5
96
330
17
100
AcDbEntity
  8
0
100
AcDbLine
 10
-10.422918543305707
 20
-133.01899472908826
 30
0.0
 11
-12.630224031659612
 21
-132.63791178144226
 31
0.0
  0
LINE
  5
97
330
17
100
AcDbEntity
  8
0
100
AcDbLine
 10
-12.630224031659612
 20
-132.63791178144226
 30
0.0
 11
-14.834560631428186
 21
-132.2396635456975
 31
0.0
  0
LINE
  5
98
330
17
100
AcDbEntity
  8
0
100
AcDbLine
 10
-14.834560631428186
 20
-132.2396635456975
 30
0.0
 11
-17.03577856782185
 21
-131.8242898408411
 31
0.0
  0
LINE
  5
99
330
17
100
AcDbEntity
  8
0
100
AcDbLine
 10
-17.03577856782185
 20
-131.8242898408411
 30
0.0
 11
-19.233728066051025
 21
-131.39183048586003
 31
0.0
  0
LINE
  5
9A
330
17
100
AcDbEntity
  8
0
100
AcDbLine
 10
-19.233728066051025
 20
-131.39183048586003
 30
0.0
 11
-21.428259351326126
 21
-130.9423252997414
 31
0.0
  0
LINE
  5
9B
330
17
100
AcDbEntity
  8
0
100
AcDbLine
 10
-21.428259351326126
 20
-130.9423252997414
 30
0.0
 11
-23.619222648857576
 21
-130.47581410147228
 31
0.0
  0
LINE
  5
9C
330
17
100
AcDbEntity
  8
0
100
AcDbLine
 10
-23.619222648857576
 20
-130.47581410147228
 30
0.0
 11
-25.806468183855802
 21
-129.99233671003972
 31
0.0
  0
LINE
  5
9D
330
17
100
AcDbEntity
  8
0
100
AcDbLine
 10
-25.806468183855802
 20
-129.99233671003972
 30
0.0
 11
-27.989846181531206
 21
-129.49193294443077
 31
0.0
  0
LINE
  5
9E
330
17
100
AcDbEntity
  8
0
100
AcDbLine
 10
-27.989846181531206
 20
-129.49193294443077
 30
0.0
 11
-30.169206867094225
 21
-128.9746426236325
 31
0.0
  0
LINE
  5
9F
330
17
100
AcDbEntity
  8
0
100
AcDbLine
 10
-30.169206867094225
 20
-128.9746426236325
 30
0.0
 11
-32.34440046575527
 21
-128.44050556663197
 31
0.0
  0
LINE
  5
A0
330
17
100
AcDbEntity
  8
0
100
AcDbLine
 10
-32.34440046575527
 20
-128.44050556663197
 30
0.0
 11
-34.51527720272476
 21
-127.88956159241623
 31
0.0
  0
LINE
  5
A1
330
17
100
AcDbEntity
  8
0
100
AcDbLine
 10
-34.51527720272476
 20
-127.88956159241623
 30
0.0
 11
-36.68168730321311
 21
-127.32185051997237
 31
0.0
  0
LINE
  5
A2
330
17
100
AcDbEntity
  8
0
100
AcDbLine
 10
-36.68168730321311
 20
-127.32185051997237
 30
0.0
 11
-38.84348099243075
 21
-126.73741216828743
 31
0.0
  0
LINE
  5
A3
330
17
100
AcDbEntity
  8
0
100
AcDbLine
 10
-38.84348099243075
 20
-126.73741216828743
 30
0.0
 11
-41.00050877213293
 21
-126.13628589956208
 31
0.0
  0
LINE
  5
A4
330
17
100
AcDbEntity
  8
0
100
AcDbLine
 10
-41.00050877213293
 20
-126.13628589956208
 30
0.0
 11
-43.15264150565292
 21
-125.51847744350387
 31
0.0
  0
LINE
  5
A5
330
17
100
AcDbEntity
  8
0
100
AcDbLine
 10
-43.15264150565292
 20
-125.51847744350387
 30
0.0
 11
-45.299783998871206
 21
-124.8839364647904
 31
0.0
  0
LINE
  5
A6
330
17
100
AcDbEntity
  8
0
100
AcDbLine
 10
-45.299783998871206
 20
-124.8839364647904
 30
0.0
 11
-47.44184427478841
 21
-124.23260731418046
 31
0.0
  0
LINE
  5
A7
330
17
100
AcDbEntity
  8
0
100
AcDbLine
 10
-47.44184427478841
 20
-124.23260731418046
 30
0.0
 11
-49.57873035640519
 21
-123.56443434243282
 31
0.0
  0
LINE
  5
A8
330
17
100
AcDbEntity
  8
0
100
AcDbLine
 10
-49.57873035640519
 20
-123.56443434243282
 30
0.0
 11
-51.71034346369946
 21
-122.87942190804579
 31
0.0
  0
LINE
  5
A9
330
17
100
AcDbEntity
  8
0
100
AcDbLine
 10
-51.71034346369946
 20
-122.87942190804579
 30
0.0
 11
-53.8365555817382
 21
-122.17783224325885
 31
0.0
  0
LINE
  5
AA
330
17
100
AcDbEntity
  8
0
100
AcDbLine
 10
-53.8365555817382
 20
-122.17783224325885
 30
0.0
 11
-55.95723084412186
 21
-121.45999683610837
 31
0.0
  0
LINE
  5
AB
330
17
100
AcDbEntity
  8
0
100
AcDbLine
 10
-55.95723084412186
 20
-121.45999683610837
 30
0.0
 11
-58.072233384351065
 21
-120.72624717551078
 31
0.0
  0
LINE
  5
AC
330
17
100
AcDbEntity
  8
0
100
AcDbLine
 10
-58.072233384351065
 20
-120.72624717551078
 30
0.0
 11
-60.1814273359265
 21
-119.9769147503825
 31
0.0
  0
LINE
  5
AD
330
17
100
AcDbEntity
  8
0
100
AcDbLine
 10
-60.1814273359265
 20
-119.9769147503825
 30
0.0
 11
-62.284674321614645
 21
-119.21221335881985
 31
0.0
  0
LINE
  5
AE
330
17
100
AcDbEntity
  8
0
100
AcDbLine
 10
-62.284674321614645
 20
-119.21221335881985
 30
0.0
 11
-64.38181226266987
 21
-118.43124578906321
 31
0.0
  0
LINE
  5
AF
330
17
100
AcDbEntity
  8
0
100
AcDbLine
 10
-64.38181226266987
 20
-118.43124578906321
 30
0.0
 11
-66.47266604590907
 21
-117.63250383928126
 31
0.0
  0
LINE
  5
B0
330
17
100
AcDbEntity
  8
0
100
AcDbLine
 10
-66.47266604590907
 20
-117.63250383928126
 30
0.0
 11
-68.55706042300288
 21
-116.81447297265834
 31
0.0
  0
LINE
  5
B1
330
17
100
AcDbEntity
  8
0
100
AcDbLine
 10
-68.55706042300288
 20
-116.81447297265834
 30
0.0
 11
-70.63445994435318
 21
-115.97520570670427
 31
0.0
  0
LINE
  5
B2
330
17
100
AcDbEntity
  8
0
100
AcDbLine
 10
-70.63445994435318
 20
-115.97520570670427
 30
0.0
 11
-72.70163879525326
 21
-115.10952086144509
 31
0.0
  0
LINE
  5
B3
330
17
100
AcDbEntity
  8
0
100
AcDbLine
 10
-72.70163879525326
 20
-115.10952086144509
 30
0.0
 11
-74.75415418664225
 21
-114.21077450863739
 31
0.0
  0
LINE
  5
B4
330
17
100
AcDbEntity
  8
0
100
AcDbLine
 10
-74.75415418664225
 20
-114.21077450863739
 30
0.0
 11
-76.78755734609268
 21
-113.27231552830092
 31
0.0
  0
LINE
  5
B5
330
17
100
AcDbEntity
  8
0
100
AcDbLine
 10
-76.78755734609268
 20
-113.27231552830092
 30
0.0
 11
-78.79739950117704
 21
-112.28749280045548
 31
0.0
  0
LINE
  5
B6
330
17
100
AcDbEntity
  8
0
100
AcDbLine
 10
-78.79739950117704
 20
-112.28749280045548
 30
0.0
 11
-80.77923187946783
 21
-111.24965520512083
 31
0.0
  0
LINE
  5
B7
330
17
100
AcDbEntity
  8
0
100
AcDbLine
 10
-80.77923187946783
 20
-111.24965520512083
 30
0.0
 11
-82.7286514616393
 21
-110.15229024868964
 31
0.0
  0
LINE
  5
B8
330
17
100
AcDbEntity
  8
0
100
AcDbLine
 10
-82.7286514616393
 20
-110.15229024868964
 30
0.0
 11
-84.64261159822297
 21
-108.99299507441563
 31
0.0
  0
LINE
  5
B9
330
17
100
AcDbEntity
  8
0
100
AcDbLine
 10
-84.64261159822297
 20
-108.99299507441563
 30
0.0
 11
-86.51961610559123
 21
-107.7740645498034
 31
0.0
  0
LINE
  5
BA
330
17
100
AcDbEntity
  8
0
100
AcDbLine
 10
-86.51961610559123
 20
-107.7740645498034
 30
0.0
 11
-88.35825359021541
 21
-106.49805044611745
 31
0.0
  0
LINE
  5
BB
330
17
100
AcDbEntity
  8
0
100
AcDbLine
 10
-88.35825359021541
 20
-106.49805044611745
 30
0.0
 11
-90.15711265856687
 21
-105.16750453462228
 31
0.0
  0
LINE
  5
BC
330
17
100
AcDbEntity
  8
0
100
AcDbLine
 10
-90.15711265856687
 20
-105.16750453462228
 30
0.0
 11
-91.91525425169084
 21
-103.78521105626918
 31
0.0
  0
LINE
  5
BD
330
17
100
AcDbEntity
  8
0
100
AcDbLine
 10
-91.91525425169084
 20
-103.78521105626918
 30
0.0
 11
-93.63412829710468
 21
-102.35513004342428
 31
0.0
  0
LINE
  5
BE
330
17
100
AcDbEntity
  8
0
100
AcDbLine
 10
-93.63412829710468
 20
-102.35513004342428
 30
0.0
 11
-95.31593825380537
 21
-100.88159239528572
 31
0.0
  0
LINE
  5
BF
330
17
100
AcDbEntity
  8
0
100
AcDbLine
 10
-95.31593825380537
 20
-100.88159239528572
 30
0.0
 11
-96.96288786607002
 21
-99.36892915145843
 31
0.0
  0
LINE
  5
C0
330
17
100
AcDbEntity
  8
0
100
AcDbLine
 10
-96.96288786607002
 20
-99.36892915145843
 30
0.0
 11
-98.5771808781758
 21
-97.82147135154732
 31
0.0
  0
LINE
  5
C1
330
17
100
AcDbEntity
  8
0
100
AcDbLine
 10
-98.5771808781758
 20
-97.82147135154732
 30
0.0
 11
-100.1610210343998
 21
-96.24355003515731
 31
0.0
  0
LINE
  5
C2
330
17
100
AcDbEntity
  8
0
100
AcDbLine
 10
-100.1610210343998
 20
-96.24355003515731
 30
0.0
 11
-101.7166864695514
 21
-94.63939755107467
 31
0.0
  0
LINE
  5
C3
330
17
100
AcDbEntity
  8
0
100
AcDbLine
 10
-101.7166864695514
 20
-94.63939755107467
 30
0.0
 11
-103.2470793538596
 21
-93.01241836630247
 31
0.0
  0
LINE
  5
C4
330
17
100
AcDbEntity
  8
0
100
AcDbLine
 10
-103.2470793538596
 20
-93.01241836630247
 30
0.0
 11
-104.75541349827732
 21
-91.36560350708379
 31
0.0
  0
LINE
  5
C5
330
17
100
AcDbEntity
  8
0
100
AcDbLine
 10
-104.75541349827732
 20
-91.36560350708379
 30
0.0
 11
-106.24490501423007
 21
-89.7019409477206
 31
0.0
  0
LINE
  5
C6
330
17
100
AcDbEntity
  8
0
100
AcDbLine
 10
-106.24490501423007
 20
-89.7019409477206
 30
0.0
 11
-107.71877001314331
 21
-88.02441866251489
 31
0.0
  0
LINE
  5
C7
330
17
100
AcDbEntity
  8
0
100
AcDbLine
 10
-107.71877001314331
 20
-88.02441866251489
 30
0.0
 11
-109.1802246064426
 21
-86.33602462576859
 31
0.0
  0
LINE
  5
C8
330
17
100
AcDbEntity
  8
0
100
AcDbLine
 10
-109.1802246064426
 20
-86.33602462576859
 30
0.0
 11
-110.63248490555337
 21
-84.63974681178372
 31
0.0
  0
LINE
  5
C9
330
17
100
AcDbEntity
  8
0
100
AcDbLine
 10
-110.63248490555337
 20
-84.63974681178372
 30
0.0
 11
-112.0784830560091
 21
-82.93831924496031
 31
0.0
  0
LINE
  5
CA
330
17
100
AcDbEntity
  8
0
100
AcDbLine
 10
-112.0784830560091
 20
-82.93831924496031
 30
0.0
 11
-113.5184053747809
 21
-81.2320203629062
 31
0.0
  0
LINE
  5
CB
330
17
100
AcDbEntity
  8
0
100
AcDbLine
 10
-113.5184053747809
 20
-81.2320203629062
 30
0.0
 11
-114.95089902998714
 21
-79.51975214672149
 31
0.0
  0
LINE
  5
CC
330
17
100
AcDbEntity
  8
0
100
AcDbLine
 10
-114.95089902998714
 20
-79.51975214672149
 30
0.0
 11
-116.37459421139995
 21
-77.80040139381862
 31
0.0
  0
LINE
  5
CD
330
17
100
AcDbEntity
  8
0
100
AcDbLine
 10
-116.37459421139995
 20
-77.80040139381862
 30
0.0
 11
-117.78812110879139
 21
-76.07285490161013
 31
0.0
  0
LINE
  5
CE
330
17
100
AcDbEntity
  8
0
100
AcDbLine
 10
-117.78812110879139
 20
-76.07285490161013
 30
0.0
 11
-119.19013559956596
 21
-74.33602243257211
 31
0.0
  0
LINE
  5
CF
330
17
100
AcDbEntity
  8
0
100
AcDbLine
 10
-119.19013559956596
 20
-74.33602243257211
 30
0.0
 11
-120.58005862885464
 21
-72.58949772926547
 31
0.0
  0
LINE
  5
D0
330
17
100
AcDbEntity
  8
0
100
AcDbLine
 10
-120.58005862885464
 20
-72.58949772926547
 30
0.0
 11
-121.95818771989967
 21
-70.83365820601036
 31
0.0
  0
LINE
  5
D1
330
17
100
AcDbEntity
  8
0
100
AcDbLine
 10
-121.95818771989967
 20
-70.83365820601036
 30
0.0
 11
-123.32486851515915
 21
-69.06892429630555
 31
0.0
  0
LINE
  5
D2
330
17
100
AcDbEntity
  8
0
100
AcDbLine
 10
-123.32486851515915
 20
-69.06892429630555
 30
0.0
 11
-124.68044665709117
 21
-67.29571643364996
 31
0.0
  0
LINE
  5
D3
330
17
100
AcDbEntity
  8
0
100
AcDbLine
 10
-124.68044665709117
 20
-67.29571643364996
 30
0.0
 11
-126.02521423379777
 21
-65.51440671583092
 31
0.0
  0
LINE
  5
D4
330
17
100
AcDbEntity
  8
0
100
AcDbLine
 10
-126.02521423379777
 20
-65.51440671583092
 30
0.0
 11
-127.3591766347642
 21
-63.72510847958147
 31
0.0
  0
LINE
  5
D5
330
17
100
AcDbEntity
  8
0
100
AcDbLine
 10
-127.3591766347642
 20
-63.72510847958147
 30
0.0
 11
-128.6822437107648
 21
-61.92784883276532
 31
0.0
  0
LINE
  5
D6
330
17
100
AcDbEntity
  8
0
100
AcDbLine
 10
-128.6822437107648
 20
-61.92784883276532
 30
0.0
 11
-129.99432524703727
 21
-60.122654824095804
 31
0.0
  0
LINE
  5
D7
330
17
100
AcDbEntity
  8
0
100
AcDbLine
 10
-129.99432524703727
 20
-60.122654824095804
 30
0.0
 11
-131.29533102881933
 21
-58.309553502286334
 31
0.0
  0
LINE
  5
D8
330
17
100
AcDbEntity
  8
0
100
AcDbLine
 10
-131.29533102881933
 20
-58.309553502286334
 30
0.0
 11
-132.58517076587808
 21
-56.4885718816129
 31
0.0
  0
LINE
  5
D9
330
17
100
AcDbEntity
  8
0
100
AcDbLine
 10
-132.58517076587808
 20
-56.4885718816129
 30
0.0
 11
-133.86369408423903
 21
-54.65970956007283
 31
0.0
  0
LINE
  5
DA
330
17
100
AcDbEntity
  8
0
100
AcDbLine
 10
-133.86369408423903
 20
-54.65970956007283
 30
0.0
 11
-135.13058254043037
 21
-52.82288944536302
 31
0.0
  0
LINE
  5
DB
330
17
100
AcDbEntity
  8
0
100
AcDbLine
 10
-135.13058254043037
 20
-52.82288944536302
 30
0.0
 11
-136.3854885285135
 21
-50.97802113831399
 31
0.0
  0
LINE
  5
DC
330
17
100
AcDbEntity
  8
0
100
AcDbLine
 10
-136.3854885285135
 20
-50.97802113831399
 30
0.0
 11
-137.62806611252503
 21
-49.12501512740288
 31
0.0
  0
LINE
  5
DD
330
17
100
AcDbEntity
  8
0
100
AcDbLine
 10
-137.62806611252503
 20
-49.12501512740288
 30
0.0
 11
-138.85828730244327
 21
-47.26395089977299
 31
0.0
  0
LINE
  5
DE
330
17
100
AcDbEntity
  8
0
100
AcDbLine
 10
-138.85828730244327
 20
-47.26395089977299
 30
0.0
 11
-140.07681653418192
 21
-45.3952759895982
 31
0.0
  0
LINE
  5
DF
330
17
100
AcDbEntity
  8
0
100
AcDbLine
 10
-140.07681653418192
 20
-45.3952759895982
 30
0.0
 11
-141.28440936103468
 21
-43.51948636291966
 31
0.0
  0
LINE
  5
E0
330
17
100
AcDbEntity
  8
0
100
AcDbLine
 10
-141.28440936103468
 20
-43.51948636291966
 30
0.0
 11
-142.4818213362952
 21
-41.63707798577857
 31
0.0
  0
LINE
  5
E1
330
17
100
AcDbEntity
  8
0
100
AcDbLine
 10
-142.4818213362952
 20
-41.63707798577857
 30
0.0
 11
-143.66980801325712
 21
-39.74854682421616
 31
0.0
  0
LINE
  5
E2
330
17
100
AcDbEntity
  8
0
100
AcDbLine
 10
-143.66980801325712
 20
-39.74854682421616
 30
0.0
 11
-144.8490140003577
 21
-37.85433088299136
 31
0.0
  0
LINE
  5
E3
330
17
100
AcDbEntity
  8
0
100
AcDbLine
 10
-144.8490140003577
 20
-37.85433088299136
 30
0.0
 11
-146.0179217397406
 21
-35.95373857929256
 31
0.0
  0
LINE
  5
E4
330
17
100
AcDbEntity
  8
0
100
AcDbLine
 10
-146.0179217397406
 20
-35.95373857929256
 30
0.0
 11
-147.17304805594023
 21
-34.04505142630607
 31
0.0
  0
LINE
  5
E5
330
17
100
AcDbEntity
  8
0
100
AcDbLine
 10
-147.17304805594023
 20
-34.04505142630607
 30
0.0
 11
-148.3108382503318
 21
-32.12651357114155
 31
0.0
  0
LINE
  5
E6
330
17
100
AcDbEntity
  8
0
100
AcDbLine
 10
-148.3108382503318
 20
-32.12651357114155
 30
0.0
 11
-149.4277376242906
 21
-30.19636916090861
 31
0.0
  0
LINE
  5
E7
330
17
100
AcDbEntity
  8
0
100
AcDbLine
 10
-149.4277376242906
 20
-30.19636916090861
 30
0.0
 11
-150.52098420637552
 21
-28.25327536158119
 31
0.0
  0
LINE
  5
E8
330
17
100
AcDbEntity
  8
0
100
AcDbLine
 10
-150.52098420637552
 20
-28.25327536158119
 30
0.0
 11
-151.60054761188317
 21
-26.30252262433368
 31
0.0
  0
LINE
  5
E9
330
17
100
AcDbEntity
  8
0
100
AcDbLine
 10
-151.60054761188317
 20
-26.30252262433368
 30
0.0
 11
-152.68666321317912
 21
-24.354749963393804
 31
0.0
  0
LINE
  5
EA
330
17
100
AcDbEntity
  8
0
100
AcDbLine
 10
-152.68666321317912
 20
-24.354749963393804
 30
0.0
 11
-153.7998587684858
 21
-22.42074872897213
 31
0.0
  0
LINE
  5
EB
330
17
100
AcDbEntity
  8
0
100
AcDbLine
 10
-153.7998587684858
 20
-22.42074872897213
 30
0.0
 11
-154.96111617230363
 21
-20.51287090485585
 31
0.0
  0
LINE
  5
EC
330
17
100
AcDbEntity
  8
0
100
AcDbLine
 10
-154.96111617230363
 20
-20.51287090485585
 30
0.0
 11
-156.19351776259663
 21
-18.650686622235245
 31
0.0
  0
LINE
  5
ED
330
17
100
AcDbEntity
  8
0
100
AcDbLine
 10
-156.19351776259663
 20
-18.650686622235245
 30
0.0
 11
-157.52075271624844
 21
-16.855851406575155
 31
0.0
  0
LINE
  5
EE
330
17
100
AcDbEntity
  8
0
100
AcDbLine
 10
-157.52075271624844
 20
-16.855851406575155
 30
0.0
 11
-158.96413590180032
 21
-15.149967084010358
 31
0.0
  0
LINE
  5
EF
330
17
100
AcDbEntity
  8
0
100
AcDbLine
 10
-158.96413590180032
 20
-15.149967084010358
 30
0.0
 11
-160.52833660930415
 21
-13.554257586079542
 31
0.0
  0
LINE
  5
F0
330
17
100
AcDbEntity
  8
0
100
AcDbLine
 10
-160.52833660930415
 20
-13.554257586079542
 30
0.0
 11
-162.20635833818912
 21
-12.082065075233842
 31
0.0
  0
LINE
  5
F1
330
17
100
AcDbEntity
  8
0
100
AcDbLine
 10
-162.20635833818912
 20
-12.082065075233842
 30
0.0
 11
-163.963177291651
 21
-10.699162242527345
 31
0.0
  0
LINE
  5
F2
330
17
100
AcDbEntity
  8
0
100
AcDbLine
 10
-163.963177291651
 20
-10.699162242527345
 30
0.0
 11
-165.75309356635992
 21
-9.353196267068252
 31
0.0
  0
LINE
  5
F3
330
17
100
AcDbEntity
  8
0
100
AcDbLine
 10
-165.75309356635992
 20
-9.353196267068252
 30
0.0
 11
-167.52353009993516
 21
-7.98403272316629
 31
0.0
  0
LINE
  5
F4
330
17
100
AcDbEntity
  8
0
100
AcDbLine
 10
-167.52353009993516
 20
-7.98403272316629
 30
0.0
 11
-169.20516890598972
 21
-6.512623375348268
 31
0.0
  0
LINE
  5
F5
330
17
100
AcDbEntity
  8
0
100
AcDbLine
 10
-169.20516890598972
 20
-6.512623375348268
 30
0.0
 11
-170.72440835903893
 21
-4.859952926510355
 31
0.0
  0
LINE
  5
F6
330
17
100
AcDbEntity
  8
0
100
AcDbLine
 10
-170.72440835903893
 20
-4.859952926510355
 30
0.0
 11
-171.97479442690081
 21
-2.999999999999786
 31
0.0
  0
LINE
  5
F7
330
17
100
AcDbEntity
  8
0
100
AcDbLine
 10
-142.55101295182095
 20
-2.99999999999982
 30
0.0
 11
-171.97479442690096
 21
-2.99999999999982
 31
0.0
  0
LINE
  5
F8
330
17
100
AcDbEntity
  8
0
100
AcDbLine
 10
-142.55101295182095
 20
-2.99999999999982
 30
0.0
 11
-142.55101295182095
 21
3.00000000000018
 31
0.0
  0
LINE
  5
F9
330
17
100
AcDbEntity
  8
0
100
AcDbLine
 10
-19.99999999999995
 20
115.818659254827
 30
0.0
 11
-20.008695857384765
 21
115.81864980257387
 31
0.0
  0
LINE
  5
FA
330
17
100
AcDbEntity
  8
0
100
AcDbLine
 10
-20.008695857384765
 20
115.81864980257387
 30
0.0
 11
-20.017391673671856
 21
115.81862144585916
 31
0.0
  0
LINE
  5
FB
330
17
100
AcDbEntity
  8
0
100
AcDbLine
 10
-20.017391673671856
 20
115.81862144585916
 30
0.0
 11
-20.026087407763697
 21
115.81857418481691
 31
0.0
  0
LINE
  5
FC
330
17
100
AcDbEntity
  8
0
100
AcDbLine
 10
-20.026087407763697
 20
115.81857418481691
 30
0.0
 11
-20.03478301856315
 21
115.81850801967045
 31
0.0
  0
LINE
  5
FD
330
17
100
AcDbEntity
  8
0
100
AcDbLine
 10
-20.03478301856315
 20
115.81850801967045
 30
0.0
 11
-20.043478464973653
 21
115.81842295073248
 31
0.0
  0
LINE
  5
FE
330
17
100
AcDbEntity
  8
0
100
AcDbLine
 10
-20.043478464973653
 20
115.81842295073248
 30
0.0
 11
-20.052173705899428
 21
115.81831897840507
 31
0.0
  0
LINE
  5
FF
330
17
100
AcDbEntity
  8
0
100
AcDbLine
 10
-20.052173705899428
 20
115.81831897840507
 30
0.0
 11
-20.060868700245663
 21
115.81819610317962
 31
0.0
  0
LINE
  5
100
330
17
100
AcDbEntity
  8
0
100
AcDbLine
 10
-20.060868700245663
 20
115.81819610317962
 30
0.0
 11
-20.06956340691872
 21
115.81805432563681
 31
0.0
  0
LINE
  5
101
330
17
100
AcDbEntity
  8
0
100
AcDbLine
 10
-20.06956340691872
 20
115.81805432563681
 30
0.0
 11
-20.07825778482631
 21
115.81789364644673
 31
0.0
  0
LINE
  5
102
330
17
100
AcDbEntity
  8
0
100
AcDbLine
 10
-20.07825778482631
 20
115.81789364644673
 30
0.0
 11
-20.086951792877706
 21
115.81771406636877
 31
0.0
  0
LINE
  5
103
330
17
100
AcDbEntity
  8
0
100
AcDbLine
 10
-20.086951792877706
 20
115.81771406636877
 30
0.0
 11
-20.095645389983922
 21
115.81751558625162
 31
0.0
  0
LINE
  5
104
330
17
100
AcDbEntity
  8
0
100
AcDbLine
 10
-20.095645389983922
 20
115.81751558625162
 30
0.0
 11
-20.104338535057924
 21
115.81729820703336
 31
0.0
  0
LINE
  5
105
330
17
100
AcDbEntity
  8
0
100
AcDbLine
 10
-20.104338535057924
 20
115.81729820703336
 30
0.0
 11
-20.113031187014798
 21
115.81706192974131
 31
0.0
  0
LINE
  5
106
330
17
100
AcDbEntity
  8
0
100
AcDbLine
 10
-20.113031187014798
 20
115.81706192974131
 30
0.0
 11
-20.12172330477198
 21
115.8168067554922
 31
0.0
  0
LINE
  5
107
330
17
100
AcDbEntity
  8
0
100
AcDbLine
 10
-20.12172330477198
 20
115.8168067554922
 30
0.0
 11
-20.13041484724942
 21
115.81653268549196
 31
0.0
  0
LINE
  5
108
330
17
100
AcDbEntity
  8
0
100
AcDbLine
 10
-20.13041484724942
 20
115.81653268549196
 30
0.0
 11
-20.13910577336978
 21
115.81623972103593
 31
0.0
  0
LINE
  5
109
330
17
100
AcDbEntity
  8
0
100
AcDbLine
 10
-20.13910577336978
 20
115.81623972103593
 30
0.0
 11
-20.14779604205866
 21
115.81592786350865
 31
0.0
  0
LINE
  5
10A
330
17
100
AcDbEntity
  8
0
100
AcDbLine
 10
-20.14779604205866
 20
115.81592786350865
 30
0.0
 11
-20.15648561224473
 21
115.81559711438403
 31
0.0
  0
LINE
  5
10B
330
17
100
AcDbEntity
  8
0
100
AcDbLine
 10
-20.15648561224473
 20
115.81559711438403
 30
0.0
 11
-20.165174442859996
 21
115.81524747522522
 31
0.0
  0
LINE
  5
10C
330
17
100
AcDbEntity
  8
0
100
AcDbLine
 10
-20.165174442859996
 20
115.81524747522522
 30
0.0
 11
-20.173862492839937
 21
115.81487894768468
 31
0.0
  0
LINE
  5
10D
330
17
100
AcDbEntity
  8
0
100
AcDbLine
 10
-20.173862492839937
 20
115.81487894768468
 30
0.0
 11
-20.182549721123735
 21
115.81449153350407
 31
0.0
  0
LINE
  5
10E
330
17
100
AcDbEntity
  8
0
100
AcDbLine
 10
-20.182549721123735
 20
115.81449153350407
 30
0.0
 11
-20.191236086654445
 21
115.81408523451441
 31
0.0
  0
LINE
  5
10F
330
17
100
AcDbEntity
  8
0
100
AcDbLine
 10
-20.191236086654445
 20
115.81408523451441
 30
0.0
 11
-20.199921548379205
 21
115.81366005263588
 31
0.0
  0
LINE
  5
110
330
17
100
AcDbEntity
  8
0
100
AcDbLine
 10
-20.199921548379205
 20
115.81366005263588
 30
0.0
 11
-20.208606065249427
 21
115.81321598987797
 31
0.0
  0
LINE
  5
111
330
17
100
AcDbEntity
  8
0
100
AcDbLine
 10
-20.208606065249427
 20
115.81321598987797
 30
0.0
 11
-20.217289596220983
 21
115.81275304833937
 31
0.0
  0
LINE
  5
112
330
17
100
AcDbEntity
  8
0
100
AcDbLine
 10
-20.217289596220983
 20
115.81275304833937
 30
0.0
 11
-20.225972100254406
 21
115.812271230208
 31
0.0
  0
LINE
  5
113
330
17
100
AcDbEntity
  8
0
100
AcDbLine
 10
-20.225972100254406
 20
115.812271230208
 30
0.0
 11
-20.234653536315086
 21
115.81177053776099
 31
0.0
  0
LINE
  5
114
330
17
100
AcDbEntity
  8
0
100
AcDbLine
 10
-20.234653536315086
 20
115.81177053776099
 30
0.0
 11
-20.243333863373454
 21
115.81125097336468
 31
0.0
  0
LINE
  5
115
330
17
100
AcDbEntity
  8
0
100
AcDbLine
 10
-20.243333863373454
 20
115.81125097336468
 30
0.0
 11
-20.252013040405185
 21
115.8107125394746
 31
0.0
  0
LINE
  5
116
330
17
100
AcDbEntity
  8
0
100
AcDbLine
 10
-20.252013040405185
 20
115.8107125394746
 30
0.0
 11
-20.26069102639139
 21
115.81015523863545
 31
0.0
  0
LINE
  5
117
330
17
100
AcDbEntity
  8
0
100
AcDbLine
 10
-20.26069102639139
 20
115.81015523863545
 30
0.0
 11
-20.269367780318813
 21
115.8095790734811
 31
0.0
  0
LINE
  5
118
330
17
100
AcDbEntity
  8
0
100
AcDbLine
 10
-20.269367780318813
 20
115.8095790734811
 30
0.0
 11
-20.278043261180017
 21
115.8089840467346
 31
0.0
  0
LINE
  5
119
330
17
100
AcDbEntity
  8
0
100
AcDbLine
 10
-20.278043261180017
 20
115.8089840467346
 30
0.0
 11
-20.286717427973574
 21
115.80837016120809
 31
0.0
  0
LINE
  5
11A
330
17
100
AcDbEntity
  8
0
100
AcDbLine
 10
-20.286717427973574
 20
115.80837016120809
 30
0.0
 11
-20.29539023970428
 21
115.80773741980289
 31
0.0
  0
LINE
  5
11B
330
17
100
AcDbEntity
  8
0
100
AcDbLine
 10
-20.29539023970428
 20
115.80773741980289
 30
0.0
 11
-20.30406165538333
 21
115.80708582550942
 31
0.0
  0
LINE
  5
11C
330
17
100
AcDbEntity
  8
0
100
AcDbLine
 10
-20.30406165538333
 20
115.80708582550942
 30
0.0
 11
-20.31273163402851
 21
115.80641538140719
 31
0.0
  0
LINE
  5
11D
330
17
100
AcDbEntity
  8
0
100
AcDbLine
 10
-20.31273163402851
 20
115.80641538140719
 30
0.0
 11
-20.321400134664408
 21
115.8057260906648
 31
0.0
  0
LINE
  5
11E
330
17
100
AcDbEntity
  8
0
100
AcDbLine
 10
-20.321400134664408
 20
115.8057260906648
 30
0.0
 11
-20.330067116322596
 21
115.80501795653993
 31
0.0
  0
LINE
  5
11F
330
17
100
AcDbEntity
  8
0
100
AcDbLine
 10
-20.330067116322596
 20
115.80501795653993
 30
0.0
 11
-20.338732538041818
 21
115.80429098237931
 31
0.0
  0
LINE
  5
120
330
17
100
AcDbEntity
  8
0
100
AcDbLine
 10
-20.338732538041818
 20
115.80429098237931
 30
0.0
 11
-20.347396358868192
 21
115.80354517161874
 31
0.0
  0
LINE
  5
121
330
17
100
AcDbEntity
  8
0
100
AcDbLine
 10
-20.347396358868192
 20
115.80354517161874
 30
0.0
 11
-20.356058537855407
 21
115.80278052778296
 31
0.0
  0
LINE
  5
122
330
17
100
AcDbEntity
  8
0
100
AcDbLine
 10
-20.356058537855407
 20
115.80278052778296
 30
0.0
 11
-20.36471903406491
 21
115.80199705448581
 31
0.0
  0
LINE
  5
123
330
17
100
AcDbEntity
  8
0
100
AcDbLine
 10
-20.36471903406491
 20
115.80199705448581
 30
0.0
 11
-20.373377806566094
 21
115.80119475543007
 31
0.0
  0
LINE
  5
124
330
17
100
AcDbEntity
  8
0
100
AcDbLine
 10
-20.373377806566094
 20
115.80119475543007
 30
0.0
 11
-20.382034814436512
 21
115.80037363440753
 31
0.0
  0
LINE
  5
125
330
17
100
AcDbEntity
  8
0
100
AcDbLine
 10
-20.382034814436512
 20
115.80037363440753
 30
0.0
 11
-20.390690016762044
 21
115.79953369529889
 31
0.0
  0
LINE
  5
126
330
17
100
AcDbEntity
  8
0
100
AcDbLine
 10
-20.390690016762044
 20
115.79953369529889
 30
0.0
 11
-20.39934337263711
 21
115.79867494207382
 31
0.0
  0
LINE
  5
127
330
17
100
AcDbEntity
  8
0
100
AcDbLine
 10
-20.39934337263711
 20
115.79867494207382
 30
0.0
 11
-20.407994841164854
 21
115.79779737879088
 31
0.0
  0
LINE
  5
128
330
17
100
AcDbEntity
  8
0
100
AcDbLine
 10
-20.407994841164854
 20
115.79779737879088
 30
0.0
 11
-20.416644381457346
 21
115.79690100959756
 31
0.0
  0
LINE
  5
129
330
17
100
AcDbEntity
  8
0
100
AcDbLine
 10
-20.416644381457346
 20
115.79690100959756
 30
0.0
 11
-20.425291952635757
 21
115.79598583873022
 31
0.0
  0
LINE
  5
12A
330
17
100
AcDbEntity
  8
0
100
AcDbLine
 10
-20.425291952635757
 20
115.79598583873022
 30
0.0
 11
-20.433937513830575
 21
115.79505187051404
 31
0.0
  0
LINE
  5
12B
330
17
100
AcDbEntity
  8
0
100
AcDbLine
 10
-20.433937513830575
 20
115.79505187051404
 30
0.0
 11
-20.44258102418178
 21
115.79409910936312
 31
0.0
  0
LINE
  5
12C
330
17
100
AcDbEntity
  8
0
100
AcDbLine
 10
-20.44258102418178
 20
115.79409910936312
 30
0.0
 11
-20.45122244283905
 21
115.79312755978029
 31
0.0
  0
LINE
  5
12D
330
17
100
AcDbEntity
  8
0
100
AcDbLine
 10
-20.45122244283905
 20
115.79312755978029
 30
0.0
 11
-20.45986172896195
 21
115.79213722635724
 31
0.0
  0
LINE
  5
12E
330
17
100
AcDbEntity
  8
0
100
AcDbLine
 10
-20.45986172896195
 20
115.79213722635724
 30
0.0
 11
-20.468498841720116
 21
115.79112811377439
 31
0.0
  0
LINE
  5
12F
330
17
100
AcDbEntity
  8
0
100
AcDbLine
 10
-20.468498841720116
 20
115.79112811377439
 30
0.0
 11
-20.47713374029346
 21
115.79010022680096
 31
0.0
  0
LINE
  5
130
330
17
100
AcDbEntity
  8
0
100
AcDbLine
 10
-20.47713374029346
 20
115.79010022680096
 30
0.0
 11
-20.485766383872363
 21
115.78905357029485
 31
0.0
  0
LINE
  5
131
330
17
100
AcDbEntity
  8
0
100
AcDbLine
 10
-20.485766383872363
 20
115.78905357029485
 30
0.0
 11
-20.494396731657854
 21
115.78798814920272
 31
0.0
  0
LINE
  5
132
330
17
100
AcDbEntity
  8
0
100
AcDbLine
 10
-20.494396731657854
 20
115.78798814920272
 30
0.0
 11
-20.50302474286182
 21
115.78690396855986
 31
0.0
  0
LINE
  5
133
330
17
100
AcDbEntity
  8
0
100
AcDbLine
 10
-20.50302474286182
 20
115.78690396855986
 30
0.0
 11
-20.511650376707188
 21
115.78580103349024
 31
0.0
  0
LINE
  5
134
330
17
100
AcDbEntity
  8
0
100
AcDbLine
 10
-20.511650376707188
 20
115.78580103349024
 30
0.0
 11
-20.52027359242812
 21
115.78467934920648
 31
0.0
  0
LINE
  5
135
330
17
100
AcDbEntity
  8
0
100
AcDbLine
 10
-20.52027359242812
 20
115.78467934920648
 30
0.0
 11
-20.528894349270207
 21
115.78353892100982
 31
0.0
  0
LINE
  5
136
330
17
100
AcDbEntity
  8
0
100
AcDbLine
 10
-20.528894349270207
 20
115.78353892100982
 30
0.0
 11
-20.53751260649066
 21
115.78237975429005
 31
0.0
  0
LINE
  5
137
330
17
100
AcDbEntity
  8
0
100
AcDbLine
 10
-20.53751260649066
 20
115.78237975429005
 30
0.0
 11
-20.546128323358506
 21
115.78120185452552
 31
0.0
  0
LINE
  5
138
330
17
100
AcDbEntity
  8
0
100
AcDbLine
 10
-20.546128323358506
 20
115.78120185452552
 30
0.0
 11
-20.554741459154776
 21
115.78000522728317
 31
0.0
  0
LINE
  5
139
330
17
100
AcDbEntity
  8
0
100
AcDbLine
 10
-20.554741459154776
 20
115.78000522728317
 30
0.0
 11
-20.5633519731727
 21
115.7787898782184
 31
0.0
  0
LINE
  5
13A
330
17
100
AcDbEntity
  8
0
100
AcDbLine
 10
-20.5633519731727
 20
115.7787898782184
 30
0.0
 11
-20.5719598247179
 21
115.7775558130751
 31
0.0
  0
LINE
  5
13B
330
17
100
AcDbEntity
  8
0
100
AcDbLine
 10
-20.5719598247179
 20
115.7775558130751
 30
0.0
 11
-20.58056497310858
 21
115.77630303768561
 31
0.0
  0
LINE
  5
13C
330
17
100
AcDbEntity
  8
0
100
AcDbLine
 10
-20.58056497310858
 20
115.77630303768561
 30
0.0
 11
-20.589167377675718
 21
115.7750315579707
 31
0.0
  0
LINE
  5
13D
330
17
100
AcDbEntity
  8
0
100
AcDbLine
 10
-20.589167377675718
 20
115.7750315579707
 30
0.0
 11
-20.597766997763266
 21
115.77374137993958
 31
0.0
  0
LINE
  5
13E
330
17
100
AcDbEntity
  8
0
100
AcDbLine
 10
-20.597766997763266
 20
115.77374137993958
 30
0.0
 11
-20.606363792728324
 21
115.77243250968975
 31
0.0
  0
LINE
  5
13F
330
17
100
AcDbEntity
  8
0
100
AcDbLine
 10
-20.606363792728324
 20
115.77243250968975
 30
0.0
 11
-20.614957721941355
 21
115.77110495340713
 31
0.0
  0
LINE
  5
140
330
17
100
AcDbEntity
  8
0
100
AcDbLine
 10
-20.614957721941355
 20
115.77110495340713
 30
0.0
 11
-20.623548744786365
 21
115.7697587173659
 31
0.0
  0
LINE
  5
141
330
17
100
AcDbEntity
  8
0
100
AcDbLine
 10
-20.623548744786365
 20
115.7697587173659
 30
0.0
 11
-20.632136820661085
 21
115.76839380792856
 31
0.0
  0
LINE
  5
142
330
17
100
AcDbEntity
  8
0
100
AcDbLine
 10
-20.632136820661085
 20
115.76839380792856
 30
0.0
 11
-20.640721908977188
 21
115.76701023154583
 31
0.0
  0
LINE
  5
143
330
17
100
AcDbEntity
  8
0
100
AcDbLine
 10
-20.640721908977188
 20
115.76701023154583
 30
0.0
 11
-20.649303969160457
 21
115.76560799475666
 31
0.0
  0
LINE
  5
144
330
17
100
AcDbEntity
  8
0
100
AcDbLine
 10
-20.649303969160457
 20
115.76560799475666
 30
0.0
 11
-20.65788296065099
 21
115.76418710418822
 31
0.0
  0
LINE
  5
145
330
17
100
AcDbEntity
  8
0
100
AcDbLine
 10
-20.65788296065099
 20
115.76418710418822
 30
0.0
 11
-20.666458842903385
 21
115.7627475665558
 31
0.0
  0
LINE
  5
146
330
17
100
AcDbEntity
  8
0
100
AcDbLine
 10
-20.666458842903385
 20
115.7627475665558
 30
0.0
 11
-20.675031575386942
 21
115.76128938866286
 31
0.0
  0
LINE
  5
147
330
17
100
AcDbEntity
  8
0
100
AcDbLine
 10
-20.675031575386942
 20
115.76128938866286
 30
0.0
 11
-20.68360111758584
 21
115.75981257740091
 31
0.0
  0
LINE
  5
148
330
17
100
AcDbEntity
  8
0
100
AcDbLine
 10
-20.68360111758584
 20
115.75981257740091
 30
0.0
 11
-20.69216742899934
 21
115.75831713974954
 31
0.0
  0
LINE
  5
149
330
17
100
AcDbEntity
  8
0
100
AcDbLine
 10
-20.69216742899934
 20
115.75831713974954
 30
0.0
 11
-20.700730469141966
 21
115.7568030827764
 31
0.0
  0
LINE
  5
14A
330
17
100
AcDbEntity
  8
0
100
AcDbLine
 10
-20.700730469141966
 20
115.7568030827764
 30
0.0
 11
-20.70929019754371
 21
115.75527041363712
 31
0.0
  0
LINE
  5
14B
330
17
100
AcDbEntity
  8
0
100
AcDbLine
 10
-20.70929019754371
 20
115.75527041363712
 30
0.0
 11
-20.717846573750208
 21
115.75371913957527
 31
0.0
  0
LINE
  5
14C
330
17
100
AcDbEntity
  8
0
100
AcDbLine
 10
-20.717846573750208
 20
115.75371913957527
 30
0.0
 11
-20.72639955732295
 21
115.75214926792236
 31
0.0
  0
LINE
  5
14D
330
17
100
AcDbEntity
  8
0
100
AcDbLine
 10
-20.72639955732295
 20
115.75214926792236
 30
0.0
 11
-20.734949107839444
 21
115.75056080609782
 31
0.0
  0
LINE
  5
14E
330
17
100
AcDbEntity
  8
0
100
AcDbLine
 10
-20.734949107839444
 20
115.75056080609782
 30
0.0
 11
-20.74349518489344
 21
115.74895376160893
 31
0.0
  0
LINE
  5
14F
330
17
100
AcDbEntity
  8
0
100
AcDbLine
 10
-20.74349518489344
 20
115.74895376160893
 30
0.0
 11
-20.75203774809509
 21
115.74732814205076
 31
0.0
  0
LINE
  5
150
330
17
100
AcDbEntity
  8
0
100
AcDbLine
 10
-20.75203774809509
 20
115.74732814205076
 30
0.0
 11
-20.760576757071167
 21
115.7456839551062
 31
0.0
  0
LINE
  5
151
330
17
100
AcDbEntity
  8
0
100
AcDbLine
 10
-20.760576757071167
 20
115.7456839551062
 30
0.0
 11
-20.769112171465228
 21
115.74402120854592
 31
0.0
  0
LINE
  5
152
330
17
100
AcDbEntity
  8
0
100
AcDbLine
 10
-20.769112171465228
 20
115.74402120854592
 30
0.0
 11
-20.777643950937826
 21
115.74233991022821
 31
0.0
  0
LINE
  5
153
330
17
100
AcDbEntity
  8
0
100
AcDbLine
 10
-20.777643950937826
 20
115.74233991022821
 30
0.0
 11
-20.78617205516669
 21
115.74064006809915
 31
0.0
  0
LINE
  5
154
330
17
100
AcDbEntity
  8
0
100
AcDbLine
 10
-20.78617205516669
 20
115.74064006809915
 30
0.0
 11
-20.794696443846924
 21
115.73892169019238
 31
0.0
  0
LINE
  5
155
330
17
100
AcDbEntity
  8
0
100
AcDbLine
 10
-20.794696443846924
 20
115.73892169019238
 30
0.0
 11
-20.803217076691187
 21
115.73718478462919
 31
0.0
  0
LINE
  5
156
330
17
100
AcDbEntity
  8
0
100
AcDbLine
 10
-20.803217076691187
 20
115.73718478462919
 30
0.0
 11
-20.811733913429883
 21
115.73542935961841
 31
0.0
  0
LINE
  5
157
330
17
100
AcDbEntity
  8
0
100
AcDbLine
 10
-20.811733913429883
 20
115.73542935961841
 30
0.0
 11
-20.82024691381137
 21
115.7336554234564
 31
0.0
  0
LINE
  5
158
330
17
100
AcDbEntity
  8
0
100
AcDbLine
 10
-20.82024691381137
 20
115.7336554234564
 30
0.0
 11
-20.828756037602133
 21
115.73186298452698
 31
0.0
  0
LINE
  5
159
330
17
100
AcDbEntity
  8
0
100
AcDbLine
 10
-20.828756037602133
 20
115.73186298452698
 30
0.0
 11
-20.83726124458697
 21
115.7300520513015
 31
0.0
  0
LINE
  5
15A
330
17
100
AcDbEntity
  8
0
100
AcDbLine
 10
-20.83726124458697
 20
115.7300520513015
 30
0.0
 11
-20.8457624945692
 21
115.72822263233861
 31
0.0
  0
LINE
  5
15B
330
17
100
AcDbEntity
  8
0
100
AcDbLine
 10
-20.8457624945692
 20
115.72822263233861
 30
0.0
 11
-20.854259747370836
 21
115.7263747362844
 31
0.0
  0
LINE
  5
15C
330
17
100
AcDbEntity
  8
0
100
AcDbLine
 10
-20.854259747370687
 20
115.7263747362837
 30
0.0
 11
-21.96195335590576
 21
115.48181942012816
 31
0.0
  0
LINE
  5
15D
330
17
100
AcDbEntity
  8
0
100
AcDbLine
 10
-21.96195335590576
 20
115.48181942012816
 30
0.0
 11
-23.06862111300017
 21
115.23268074676622
 31
0.0
  0
LINE
  5
15E
330
17
100
AcDbEntity
  8
0
100
AcDbLine
 10
-23.06862111300017
 20
115.23268074676622
 30
0.0
 11
-24.174239692625704
 21
114.97896468533665
 31
0.0
  0
LINE
  5
15F
330
17
100
AcDbEntity
  8
0
100
AcDbLine
 10
-24.174239692625704
 20
114.97896468533665
 30
0.0
 11
-25.278751051673595
 21
114.72068669188356
 31
0.0
  0
LINE
  5
160
330
17
100
AcDbEntity
  8
0
100
AcDbLine
 10
-25.278751051673595
 20
114.72068669188356
 30
0.0
 11
-26.382008189985207
 21
114.45788603028083
 31
0.0
  0
LINE
  5
161
330
17
100
AcDbEntity
  8
0
100
AcDbLine
 10
-26.382008189985207
 20
114.45788603028083
 30
0.0
 11
-27.483997537835684
 21
114.19056488318111
 31
0.0
  0
LINE
  5
162
330
17
100
AcDbEntity
  8
0
100
AcDbLine
 10
-27.483997537835684
 20
114.19056488318111
 30
0.0
 11
-28.58471940441291
 21
113.91872161265847
 31
0.0
  0
LINE
  5
163
330
17
100
AcDbEntity
  8
0
100
AcDbLine
 10
-28.58471940441291
 20
113.91872161265847
 30
0.0
 11
-29.684174098904787
 21
113.64235458078703
 31
0.0
  0
LINE
  5
164
330
17
100
AcDbEntity
  8
0
100
AcDbLine
 10
-29.684174098904787
 20
113.64235458078703
 30
0.0
 11
-30.782361930499206
 21
113.36146214964084
 31
0.0
  0
LINE
  5
165
330
17
100
AcDbEntity
  8
0
100
AcDbLine
 10
-30.782361930499206
 20
113.36146214964084
 30
0.0
 11
-31.879283208384063
 21
113.07604268129401
 31
0.0
  0
LINE
  5
166
330
17
100
AcDbEntity
  8
0
100
AcDbLine
 10
-31.879283208384063
 20
113.07604268129401
 30
0.0
 11
-32.974938241747246
 21
112.7860945378206
 31
0.0
  0
LINE
  5
167
330
17
100
AcDbEntity
  8
0
100
AcDbLine
 10
-32.974938241747246
 20
112.7860945378206
 30
0.0
 11
-34.069327339776656
 21
112.4916160812947
 31
0.0
  0
LINE
  5
168
330
17
100
AcDbEntity
  8
0
100
AcDbLine
 10
-34.069327339776656
 20
112.4916160812947
 30
0.0
 11
-35.16245081166019
 21
112.1926056737904
 31
0.0
  0
LINE
  5
169
330
17
100
AcDbEntity
  8
0
100
AcDbLine
 10
-35.16245081166019
 20
112.1926056737904
 30
0.0
 11
-36.25430896658575
 21
111.88906167738179
 31
0.0
  0
LINE
  5
16A
330
17
100
AcDbEntity
  8
0
100
AcDbLine
 10
-36.25430896658575
 20
111.88906167738179
 30
0.0
 11
-37.344902113741206
 21
111.58098245414293
 31
0.0
  0
LINE
  5
16B
330
17
100
AcDbEntity
  8
0
100
AcDbLine
 10
-37.344902113741206
 20
111.58098245414293
 30
0.0
 11
-38.43423056231446
 21
111.26836636614793
 31
0.0
  0
LINE
  5
16C
330
17
100
AcDbEntity
  8
0
100
AcDbLine
 10
-38.43423056231446
 20
111.26836636614793
 30
0.0
 11
-39.52229462149343
 21
110.95121177547085
 31
0.0
  0
LINE
  5
16D
330
17
100
AcDbEntity
  8
0
100
AcDbLine
 10
-39.52229462149343
 20
110.95121177547085
 30
0.0
 11
-40.60909460046599
 21
110.62951704418579
 31
0.0
  0
LINE
  5
16E
330
17
100
AcDbEntity
  8
0
100
AcDbLine
 10
-40.60909460046599
 20
110.62951704418579
 30
0.0
 11
-41.69463080842002
 21
110.30328053436683
 31
0.0
  0
LINE
  5
16F
330
17
100
AcDbEntity
  8
0
100
AcDbLine
 10
-41.69463080842002
 20
110.30328053436683
 30
0.0
 11
-42.778903554543454
 21
109.97250060808807
 31
0.0
  0
LINE
  5
170
330
17
100
AcDbEntity
  8
0
100
AcDbLine
 10
-42.778903554543454
 20
109.97250060808807
 30
0.0
 11
-43.86191314802416
 21
109.63717562742356
 31
0.0
  0
LINE
  5
171
330
17
100
AcDbEntity
  8
0
100
AcDbLine
 10
-43.86191314802416
 20
109.63717562742356
 30
0.0
 11
-44.94365989805002
 21
109.2973039544474
 31
0.0
  0
LINE
  5
172
330
17
100
AcDbEntity
  8
0
100
AcDbLine
 10
-44.94365989805002
 20
109.2973039544474
 30
0.0
 11
-46.024144113808966
 21
108.95288395123367
 31
0.0
  0
LINE
  5
173
330
17
100
AcDbEntity
  8
0
100
AcDbLine
 10
-46.024144113808966
 20
108.95288395123367
 30
0.0
 11
-47.10336610448887
 21
108.60391397985647
 31
0.0
  0
LINE
  5
174
330
17
100
AcDbEntity
  8
0
100
AcDbLine
 10
-47.10336610448887
 20
108.60391397985647
 30
0.0
 11
-48.181326179277626
 21
108.25039240238986
 31
0.0
  0
LINE
  5
175
330
17
100
AcDbEntity
  8
0
100
AcDbLine
 10
-48.181326179277626
 20
108.25039240238986
 30
0.0
 11
-49.25802464736313
 21
107.89231758090796
 31
0.0
  0
LINE
  5
176
330
17
100
AcDbEntity
  8
0
100
AcDbLine
 10
-49.25802464736313
 20
107.89231758090796
 30
0.0
 11
-50.33346181793328
 21
107.5296878774848
 31
0.0
  0
LINE
  5
177
330
17
100
AcDbEntity
  8
0
100
AcDbLine
 10
-50.33346181793328
 20
107.5296878774848
 30
0.0
 11
-51.40778874214115
 21
107.16261696987858
 31
0.0
  0
LINE
  5
178
330
17
100
AcDbEntity
  8
0
100
AcDbLine
 10
-51.40778874214115
 20
107.16261696987858
 30
0.0
 11
-52.48108548649586
 21
106.79134288940772
 31
0.0
  0
LINE
  5
179
330
17
100
AcDbEntity
  8
0
100
AcDbLine
 10
-52.48108548649586
 20
106.79134288940772
 30
0.0
 11
-53.55297144588249
 21
106.41589586075877
 31
0.0
  0
LINE
  5
17A
330
17
100
AcDbEntity
  8
0
100
AcDbLine
 10
-53.55297144588249
 20
106.41589586075877
 30
0.0
 11
-54.62305612619612
 21
106.03630038110634
 31
0.0
  0
LINE
  5
17B
330
17
100
AcDbEntity
  8
0
100
AcDbLine
 10
-54.62305612619612
 20
106.03630038110634
 30
0.0
 11
-55.690949033331826
 21
105.65258094762505
 31
0.0
  0
LINE
  5
17C
330
17
100
AcDbEntity
  8
0
100
AcDbLine
 10
-55.690949033331826
 20
105.65258094762505
 30
0.0
 11
-56.756259673184665
 21
105.2647620574895
 31
0.0
  0
LINE
  5
17D
330
17
100
AcDbEntity
  8
0
100
AcDbLine
 10
-56.756259673184665
 20
105.2647620574895
 30
0.0
 11
-57.81859755164975
 21
104.87286820787429
 31
0.0
  0
LINE
  5
17E
330
17
100
AcDbEntity
  8
0
100
AcDbLine
 10
-57.81859755164975
 20
104.87286820787429
 30
0.0
 11
-58.87757217462213
 21
104.47692389595403
 31
0.0
  0
LINE
  5
17F
330
17
100
AcDbEntity
  8
0
100
AcDbLine
 10
-58.87757217462213
 20
104.47692389595403
 30
0.0
 11
-59.93279304799689
 21
104.07695361890333
 31
0.0
  0
LINE
  5
180
330
17
100
AcDbEntity
  8
0
100
AcDbLine
 10
-59.93279304799689
 20
104.07695361890333
 30
0.0
 11
-60.98386967766909
 21
103.6729818738968
 31
0.0
  0
LINE
  5
181
330
17
100
AcDbEntity
  8
0
100
AcDbLine
 10
-60.98386967766909
 20
103.6729818738968
 30
0.0
 11
-62.03041156953382
 21
103.26503315810906
 31
0.0
  0
LINE
  5
182
330
17
100
AcDbEntity
  8
0
100
AcDbLine
 10
-62.03041156953382
 20
103.26503315810906
 30
0.0
 11
-63.072028229486136
 21
102.85313196871469
 31
0.0
  0
LINE
  5
183
330
17
100
AcDbEntity
  8
0
100
AcDbLine
 10
-63.072028229486136
 20
102.85313196871469
 30
0.0
 11
-64.10473553803965
 21
102.43856571415886
 31
0.0
  0
LINE
  5
184
330
17
100
AcDbEntity
  8
0
100
AcDbLine
 10
-64.10473553803965
 20
102.43856571415886
 30
0.0
 11
-65.12280391429894
 21
102.02278916212812
 31
0.0
  0
LINE
  5
185
330
17
100
AcDbEntity
  8
0
100
AcDbLine
 10
-65.12280391429894
 20
102.02278916212812
 30
0.0
 11
-66.12519393142487
 21
101.60532591228626
 31
0.0
  0
LINE
  5
186
330
17
100
AcDbEntity
  8
0
100
AcDbLine
 10
-66.12519393142487
 20
101.60532591228626
 30
0.0
 11
-67.11089647439087
 21
101.18568803175867
 31
0.0
  0
LINE
  5
187
330
17
100
AcDbEntity
  8
0
100
AcDbLine
 10
-67.11089647439087
 20
101.18568803175867
 30
0.0
 11
-68.07890242817031
 21
100.76338758767079
 31
0.0
  0
LINE
  5
188
330
17
100
AcDbEntity
  8
0
100
AcDbLine
 10
-68.07890242817031
 20
100.76338758767079
 30
0.0
 11
-69.02820267773662
 21
100.337936647148
 31
0.0
  0
LINE
  5
189
330
17
100
AcDbEntity
  8
0
100
AcDbLine
 10
-69.02820267773662
 20
100.337936647148
 30
0.0
 11
-69.95823083868729
 21
99.90871474439174
 31
0.0
  0
LINE
  5
18A
330
17
100
AcDbEntity
  8
0
100
AcDbLine
 10
-69.95823083868729
 20
99.90871474439174
 30
0.0
 11
-70.86890682363521
 21
99.4751010505211
 31
0.0
  0
LINE
  5
18B
330
17
100
AcDbEntity
  8
0
100
AcDbLine
 10
-70.86890682363521
 20
99.4751010505211
 30
0.0
 11
-71.75987573317443
 21
99.03663750659824
 31
0.0
  0
LINE
  5
18C
330
17
100
AcDbEntity
  8
0
100
AcDbLine
 10
-71.75987573317443
 20
99.03663750659824
 30
0.0
 11
-72.63078220516127
 21
98.5928662396538
 31
0.0
  0
LINE
  5
18D
330
17
100
AcDbEntity
  8
0
100
AcDbLine
 10
-72.63078220516127
 20
98.5928662396538
 30
0.0
 11
-73.48127087745216
 21
98.1433293767184
 31
0.0
  0
LINE
  5
18E
330
17
100
AcDbEntity
  8
0
100
AcDbLine
 10
-73.48127087745216
 20
98.1433293767184
 30
0.0
 11
-74.31098765613658
 21
97.6875683442319
 31
0.0
  0
LINE
  5
18F
330
17
100
AcDbEntity
  8
0
100
AcDbLine
 10
-74.31098765613658
 20
97.6875683442319
 30
0.0
 11
-75.12632955009532
 21
97.2215172089269
 31
0.0
  0
LINE
  5
190
330
17
100
AcDbEntity
  8
0
100
AcDbLine
 10
-75.12632955009532
 20
97.2215172089269
 30
0.0
 11
-75.93387316276349
 21
96.74148555526091
 31
0.0
  0
LINE
  5
191
330
17
100
AcDbEntity
  8
0
100
AcDbLine
 10
-75.93387316276349
 20
96.74148555526091
 30
0.0
 11
-76.73406897511623
 21
96.24728251337848
 31
0.0
  0
LINE
  5
192
330
17
100
AcDbEntity
  8
0
100
AcDbLine
 10
-76.73406897511623
 20
96.24728251337848
 30
0.0
 11
-77.52736746812873
 21
95.7387172134241
 31
0.0
  0
LINE
  5
193
330
17
100
AcDbEntity
  8
0
100
AcDbLine
 10
-77.52736746812873
 20
95.7387172134241
 30
0.0
 11
-78.3142191227762
 21
95.21559878554226
 31
0.0
  0
LINE
  5
194
330
17
100
AcDbEntity
  8
0
100
AcDbLine
 10
-78.3142191227762
 20
95.21559878554226
 30
0.0
 11
-79.09507442003375
 21
94.67773635987751
 31
0.0
  0
LINE
  5
195
330
17
100
AcDbEntity
  8
0
100
AcDbLine
 10
-79.09507442003375
 20
94.67773635987751
 30
0.0
 11
-79.87038384087661
 21
94.12493906657434
 31
0.0
  0
LINE
  5
196
330
17
100
AcDbEntity
  8
0
100
AcDbLine
 10
-79.87038384087661
 20
94.12493906657434
 30
0.0
 11
-80.64059786627993
 21
93.55701603577728
 31
0.0
  0
LINE
  5
197
330
17
100
AcDbEntity
  8
0
100
AcDbLine
 10
-80.64059786627993
 20
93.55701603577728
 30
0.0
 11
-81.40616697721893
 21
92.9737763976308
 31
0.0
  0
LINE
  5
198
330
17
100
AcDbEntity
  8
0
100
AcDbLine
 10
-81.40616697721893
 20
92.9737763976308
 30
0.0
 11
-82.16754165466871
 21
92.37502928227944
 31
0.0
  0
LINE
  5
199
330
17
100
AcDbEntity
  8
0
100
AcDbLine
 10
-82.16754165466871
 20
92.37502928227944
 30
0.0
 11
-82.92517237960452
 21
91.7605838198677
 31
0.0
  0
LINE
  5
19A
330
17
100
AcDbEntity
  8
0
100
AcDbLine
 10
-82.92517237960452
 20
91.7605838198677
 30
0.0
 11
-83.67951502741181
 21
91.13024689537652
 31
0.0
  0
LINE
  5
19B
330
17
100
AcDbEntity
  8
0
100
AcDbLine
 10
-83.67951502741181
 20
91.13024689537652
 30
0.0
 11
-84.43146225322084
 21
90.4837510358611
 31
0.0
  0
LINE
  5
19C
330
17
100
AcDbEntity
  8
0
100
AcDbLine
 10
-84.43146225322084
 20
90.4837510358611
 30
0.0
 11
-85.18152728033323
 21
89.821331281478
 31
0.0
  0
LINE
  5
19D
330
17
100
AcDbEntity
  8
0
100
AcDbLine
 10
-85.18152728033323
 20
89.821331281478
 30
0.0
 11
-85.92985128157511
 21
89.14344571541935
 31
0.0
  0
LINE
  5
19E
330
17
100
AcDbEntity
  8
0
100
AcDbLine
 10
-85.92985128157511
 20
89.14344571541935
 30
0.0
 11
-86.67657542977265
 21
88.45055242087729
 31
0.0
  0
LINE
  5
19F
330
17
100
AcDbEntity
  8
0
100
AcDbLine
 10
-86.67657542977265
 20
88.45055242087729
 30
0.0
 11
-87.42184089775195
 21
87.74310948104404
 31
0.0
  0
LINE
  5
1A0
330
17
100
AcDbEntity
  8
0
100
AcDbLine
 10
-87.42184089775195
 20
87.74310948104404
 30
0.0
 11
-88.16578885833917
 21
87.02157497911173
 31
0.0
  0
LINE
  5
1A1
330
17
100
AcDbEntity
  8
0
100
AcDbLine
 10
-88.16578885833917
 20
87.02157497911173
 30
0.0
 11
-88.90856048436041
 21
86.28640699827257
 31
0.0
  0
LINE
  5
1A2
330
17
100
AcDbEntity
  8
0
100
AcDbLine
 10
-88.90856048436041
 20
86.28640699827257
 30
0.0
 11
-89.65029694864182
 21
85.5380636217187
 31
0.0
  0
LINE
  5
1A3
330
17
100
AcDbEntity
  8
0
100
AcDbLine
 10
-89.65029694864182
 20
85.5380636217187
 30
0.0
 11
-90.39113942400955
 21
84.77700293264228
 31
0.0
  0
LINE
  5
1A4
330
17
100
AcDbEntity
  8
0
100
AcDbLine
 10
-90.39113942400955
 20
84.77700293264228
 30
0.0
 11
-91.13122908328971
 21
84.0036830142355
 31
0.0
  0
LINE
  5
1A5
330
17
100
AcDbEntity
  8
0
100
AcDbLine
 10
-91.13122908328971
 20
84.0036830142355
 30
0.0
 11
-91.87070709930845
 21
83.21856194969052
 31
0.0
  0
LINE
  5
1A6
330
17
100
AcDbEntity
  8
0
100
AcDbLine
 10
-91.87070709930845
 20
83.21856194969052
 30
0.0
 11
-92.60977362660299
 21
82.42204020451109
 31
0.0
  0
LINE
  5
1A7
330
17
100
AcDbEntity
  8
0
100
AcDbLine
 10
-92.60977362660299
 20
82.42204020451109
 30
0.0
 11
-93.35022385889096
 21
81.61301139886015
 31
0.0
  0
LINE
  5
1A8
330
17
100
AcDbEntity
  8
0
100
AcDbLine
 10
-93.35022385889096
 20
81.61301139886015
 30
0.0
 11
-94.09266980428842
 21
80.79166148872147
 31
0.0
  0
LINE
  5
1A9
330
17
100
AcDbEntity
  8
0
100
AcDbLine
 10
-94.09266980428842
 20
80.79166148872147
 30
0.0
 11
-94.8368713596502
 21
79.95903050268454
 31
0.0
  0
LINE
  5
1AA
330
17
100
AcDbEntity
  8
0
100
AcDbLine
 10
-94.8368713596502
 20
79.95903050268454
 30
0.0
 11
-95.58258842183109
 21
79.1161584693388
 31
0.0
  0
LINE
  5
1AB
330
17
100
AcDbEntity
  8
0
100
AcDbLine
 10
-95.58258842183109
 20
79.1161584693388
 30
0.0
 11
-96.32958088768584
 21
78.26408541727375
 31
0.0
  0
LINE
  5
1AC
330
17
100
AcDbEntity
  8
0
100
AcDbLine
 10
-96.32958088768584
 20
78.26408541727375
 30
0.0
 11
-97.07760865406927
 21
77.40385137507886
 31
0.0
  0
LINE
  5
1AD
330
17
100
AcDbEntity
  8
0
100
AcDbLine
 10
-97.07760865406927
 20
77.40385137507886
 30
0.0
 11
-97.82643161783614
 21
76.53649637134363
 31
0.0
  0
LINE
  5
1AE
330
17
100
AcDbEntity
  8
0
100
AcDbLine
 10
-97.82643161783614
 20
76.53649637134363
 30
0.0
 11
-98.57580967584123
 21
75.66306043465751
 31
0.0
  0
LINE
  5
1AF
330
17
100
AcDbEntity
  8
0
100
AcDbLine
 10
-98.57580967584123
 20
75.66306043465751
 30
0.0
 11
-99.32550272493935
 21
74.78458359360998
 31
0.0
  0
LINE
  5
1B0
330
17
100
AcDbEntity
  8
0
100
AcDbLine
 10
-99.32550272493935
 20
74.78458359360998
 30
0.0
 11
-100.07527066198527
 21
73.90210587679053
 31
0.0
  0
LINE
  5
1B1
330
17
100
AcDbEntity
  8
0
100
AcDbLine
 10
-100.07527066198527
 20
73.90210587679053
 30
0.0
 11
-100.82487338383379
 21
73.01666731278863
 31
0.0
  0
LINE
  5
1B2
330
17
100
AcDbEntity
  8
0
100
AcDbLine
 10
-100.82487338383379
 20
73.01666731278863
 30
0.0
 11
-101.57384788064816
 21
72.12945565611176
 31
0.0
  0
LINE
  5
1B3
330
17
100
AcDbEntity
  8
0
100
AcDbLine
 10
-101.57384788064816
 20
72.12945565611176
 30
0.0
 11
-102.3187961174884
 21
71.24325077548444
 31
0.0
  0
LINE
  5
1B4
330
17
100
AcDbEntity
  8
0
100
AcDbLine
 10
-102.3187961174884
 20
71.24325077548444
 30
0.0
 11
-103.05879893681828
 21
70.35840837702764
 31
0.0
  0
LINE
  5
1B5
330
17
100
AcDbEntity
  8
0
100
AcDbLine
 10
-103.05879893681828
 20
70.35840837702764
 30
0.0
 11
-103.79406329526786
 21
69.47444050034888
 31
0.0
  0
LINE
  5
1B6
330
17
100
AcDbEntity
  8
0
100
AcDbLine
 10
-103.79406329526786
 20
69.47444050034888
 30
0.0
 11
-104.52479614946732
 21
68.59085918505556
 31
0.0
  0
LINE
  5
1B7
330
17
100
AcDbEntity
  8
0
100
AcDbLine
 10
-104.52479614946732
 20
68.59085918505556
 30
0.0
 11
-105.25120445604682
 21
67.70717647075512
 31
0.0
  0
LINE
  5
1B8
330
17
100
AcDbEntity
  8
0
100
AcDbLine
 10
-105.25120445604682
 20
67.70717647075512
 30
0.0
 11
-105.97349517163649
 21
66.82290439705503
 31
0.0
  0
LINE
  5
1B9
330
17
100
AcDbEntity
  8
0
100
AcDbLine
 10
-105.97349517163649
 20
66.82290439705503
 30
0.0
 11
-106.69187525286645
 21
65.93755500356272
 31
0.0
  0
LINE
  5
1BA
330
17
100
AcDbEntity
  8
0
100
AcDbLine
 10
-106.69187525286645
 20
65.93755500356272
 30
0.0
 11
-107.4065516563669
 21
65.05064032988564
 31
0.0
  0
LINE
  5
1BB
330
17
100
AcDbEntity
  8
0
100
AcDbLine
 10
-107.4065516563669
 20
65.05064032988564
 30
0.0
 11
-108.11773133876792
 21
64.16167241563124
 31
0.0
  0
LINE
  5
1BC
330
17
100
AcDbEntity
  8
0
100
AcDbLine
 10
-108.11773133876792
 20
64.16167241563124
 30
0.0
 11
-108.8256212566997
 21
63.27016330040698
 31
0.0
  0
LINE
  5
1BD
330
17
100
AcDbEntity
  8
0
100
AcDbLine
 10
-108.8256212566997
 20
63.27016330040698
 30
0.0
 11
-109.53042836679239
 21
62.37562502382026
 31
0.0
  0
LINE
  5
1BE
330
17
100
AcDbEntity
  8
0
100
AcDbLine
 10
-109.53042836679239
 20
62.37562502382026
 30
0.0
 11
-110.23238743948318
 21
61.47762908808856
 31
0.0
  0
LINE
  5
1BF
330
17
100
AcDbEntity
  8
0
100
AcDbLine
 10
-110.23238743948312
 20
61.47762908808865
 30
0.0
 11
-111.0471217084255
 21
60.416981016663534
 31
0.0
  0
LINE
  5
1C0
330
17
100
AcDbEntity
  8
0
100
AcDbLine
 10
-111.0471217084255
 20
60.416981016663534
 30
0.0
 11
-111.84760523629171
 21
59.345536952784585
 31
0.0
  0
LINE
  5
1C1
330
17
100
AcDbEntity
  8
0
100
AcDbLine
 10
-111.84760523629171
 20
59.345536952784585
 30
0.0
 11
-112.6336949835923
 21
58.26348835424765
 31
0.0
  0
LINE
  5
1C2
330
17
100
AcDbEntity
  8
0
100
AcDbLine
 10
-112.6336949835923
 20
58.26348835424765
 30
0.0
 11
-113.40525048288183
 21
57.171028573787645
 31
0.0
  0
LINE
  5
1C3
330
17
100
AcDbEntity
  8
0
100
AcDbLine
 10
-113.40525048288183
 20
57.171028573787645
 30
0.0
 11
-114.16213386385951
 21
56.068352824527395
 31
0.0
  0
LINE
  5
1C4
330
17
100
AcDbEntity
  8
0
100
AcDbLine
 10
-114.16213386385951
 20
56.068352824527395
 30
0.0
 11
-114.90420987800522
 21
54.95565814509542
 31
0.0
  0
LINE
  5
1C5
330
17
100
AcDbEntity
  8
0
100
AcDbLine
 10
-114.90420987800522
 20
54.95565814509542
 30
0.0
 11
-115.63134592274744
 21
53.833143364416145
 31
0.0
  0
LINE
  5
1C6
330
17
100
AcDbEntity
  8
0
100
AcDbLine
 10
-115.63134592274744
 20
53.833143364416145
 30
0.0
 11
-116.34341206515802
 21
52.701009066181555
 31
0.0
  0
LINE
  5
1C7
330
17
100
AcDbEntity
  8
0
100
AcDbLine
 10
-116.34341206515802
 20
52.701009066181555
 30
0.0
 11
-117.04028106517023
 21
51.55945755300799
 31
0.0
  0
LINE
  5
1C8
330
17
100
AcDbEntity
  8
0
100
AcDbLine
 10
-117.04028106517023
 20
51.55945755300799
 30
0.0
 11
-117.72182839831518
 21
50.40869281028704
 31
0.0
  0
LINE
  5
1C9
330
17
100
AcDbEntity
  8
0
100
AcDbLine
 10
-117.72182839831518
 20
50.40869281028704
 30
0.0
 11
-118.38793227797373
 21
49.248920469734514
 31
0.0
  0
LINE
  5
1CA
330
17
100
AcDbEntity
  8
0
100
AcDbLine
 10
-118.38793227797373
 20
49.248920469734514
 30
0.0
 11
-119.03847367713814
 21
48.08034777264639
 31
0.0
  0
LINE
  5
1CB
330
17
100
AcDbEntity
  8
0
100
AcDbLine
 10
-119.03847367713814
 20
48.08034777264639
 30
0.0
 11
-119.67333634968173
 21
46.90318353286603
 31
0.0
  0
LINE
  5
1CC
330
17
100
AcDbEntity
  8
0
100
AcDbLine
 10
-119.67333634968173
 20
46.90318353286603
 30
0.0
 11
-120.29240685113061
 21
45.71763809947147
 31
0.0
  0
LINE
  5
1CD
330
17
100
AcDbEntity
  8
0
100
AcDbLine
 10
-120.29240685113061
 20
45.71763809947147
 30
0.0
 11
-120.89557455893541
 21
44.52392331918763
 31
0.0
  0
LINE
  5
1CE
330
17
100
AcDbEntity
  8
0
100
AcDbLine
 10
-120.89557455893541
 20
44.52392331918763
 30
0.0
 11
-121.48273169223873
 21
43.32225249853087
 31
0.0
  0
LINE
  5
1CF
330
17
100
AcDbEntity
  8
0
100
AcDbLine
 10
-121.48273169223873
 20
43.32225249853087
 30
0.0
 11
-122.05377333113427
 21
42.112840365693565
 31
0.0
  0
LINE
  5
1D0
330
17
100
AcDbEntity
  8
0
100
AcDbLine
 10
-122.05377333113427
 20
42.112840365693565
 30
0.0
 11
-122.60859743541556
 21
40.89590303217334
 31
0.0
  0
LINE
  5
1D1
330
17
100
AcDbEntity
  8
0
100
AcDbLine
 10
-122.60859743541556
 20
40.89590303217334
 30
0.0
 11
-123.14710486280921
 21
39.671657954156494
 31
0.0
  0
LINE
  5
1D2
330
17
100
AcDbEntity
  8
0
100
AcDbLine
 10
-123.14710486280921
 20
39.671657954156494
 30
0.0
 11
-123.66919938669119
 21
38.44032389365978
 31
0.0
  0
LINE
  5
1D3
330
17
100
AcDbEntity
  8
0
100
AcDbLine
 10
-123.66919938669119
 20
38.44032389365978
 30
0.0
 11
-124.17478771328135
 21
37.20212087944024
 31
0.0
  0
LINE
  5
1D4
330
17
100
AcDbEntity
  8
0
100
AcDbLine
 10
-124.17478771328135
 20
37.20212087944024
 30
0.0
 11
-124.66377949831448
 21
35.957270167677194
 31
0.0
  0
LINE
  5
1D5
330
17
100
AcDbEntity
  8
0
100
AcDbLine
 10
-124.66377949831448
 20
35.957270167677194
 30
0.0
 11
-125.13608736318386
 21
34.70599420243646
 31
0.0
  0
LINE
  5
1D6
330
17
100
AcDbEntity
  8
0
100
AcDbLine
 10
-125.13608736318386
 20
34.70599420243646
 30
0.0
 11
-125.59162691055525
 21
33.44851657592078
 31
0.0
  0
LINE
  5
1D7
330
17
100
AcDbEntity
  8
0
100
AcDbLine
 10
-125.59162691055525
 20
33.44851657592078
 30
0.0
 11
-126.03031673944767
 21
32.18506198851649
 31
0.0
  0
LINE
  5
1D8
330
17
100
AcDbEntity
  8
0
100
AcDbLine
 10
-126.03031673944767
 20
32.18506198851649
 30
0.0
 11
-126.45207845977947
 21
30.91585620864089
 31
0.0
  0
LINE
  5
1D9
330
17
100
AcDbEntity
  8
0
100
AcDbLine
 10
-126.45207845977947
 20
30.91585620864089
 30
0.0
 11
-126.8568367063755
 21
29.641126032400006
 31
0.0
  0
LINE
  5
1DA
330
17
100
AcDbEntity
  8
0
100
AcDbLine
 10
-126.8568367063755
 20
29.641126032400006
 30
0.0
 11
-127.24451915243463
 21
28.361099243061417
 31
0.0
  0
LINE
  5
1DB
330
17
100
AcDbEntity
  8
0
100
AcDbLine
 10
-127.24451915243463
 20
28.361099243061417
 30
0.0
 11
-127.61505652245359
 21
27.07600457035203
 31
0.0
  0
LINE
  5
1DC
330
17
100
AcDbEntity
  8
0
100
AcDbLine
 10
-127.61505652245359
 20
27.07600457035203
 30
0.0
 11
-127.96838260460615
 21
25.786071649585384
 31
0.0
  0
LINE
  5
1DD
330
17
100
AcDbEntity
  8
0
100
AcDbLine
 10
-127.96838260460615
 20
25.786071649585384
 30
0.0
 11
-128.30443426257443
 21
24.491530980628397
 31
0.0
  0
LINE
  5
1DE
330
17
100
AcDbEntity
  8
0
100
AcDbLine
 10
-128.30443426257443
 20
24.491530980628397
 30
0.0
 11
-128.62315144683095
 21
23.192613886712774
 31
0.0
  0
LINE
  5
1DF
330
17
100
AcDbEntity
  8
0
100
AcDbLine
 10
-128.62315144683095
 20
23.192613886712774
 30
0.0
 11
-128.92447720536887
 21
21.889552473099283
 31
0.0
  0
LINE
  5
1E0
330
17
100
AcDbEntity
  8
0
100
AcDbLine
 10
-128.92447720536887
 20
21.889552473099283
 30
0.0
 11
-129.20835769387884
 21
20.58257958560316
 31
0.0
  0
LINE
  5
1E1
330
17
100
AcDbEntity
  8
0
100
AcDbLine
 10
-129.20835769387884
 20
20.58257958560316
 30
0.0
 11
-129.47474218537053
 21
19.271928768985873
 31
0.0
  0
LINE
  5
1E2
330
17
100
AcDbEntity
  8
0
100
AcDbLine
 10
-129.47474218537053
 20
19.271928768985873
 30
0.0
 11
-129.7235830792371
 21
17.9578342252234
 31
0.0
  0
LINE
  5
1E3
330
17
100
AcDbEntity
  8
0
100
AcDbLine
 10
-129.7235830792371
 20
17.9578342252234
 30
0.0
 11
-129.95483590976102
 21
16.640530771655648
 31
0.0
  0
LINE
  5
1E4
330
17
100
AcDbEntity
  8
0
100
AcDbLine
 10
-129.95483590976102
 20
16.640530771655648
 30
0.0
 11
-130.16845935405965
 21
15.32025379902733
 31
0.0
  0
LINE
  5
1E5
330
17
100
AcDbEntity
  8
0
100
AcDbLine
 10
-130.16845935405965
 20
15.32025379902733
 30
0.0
 11
-130.36441523946945
 21
13.997239229424974
 31
0.0
  0
LINE
  5
1E6
330
17
100
AcDbEntity
  8
0
100
AcDbLine
 10
-130.36441523946945
 20
13.997239229424974
 30
0.0
 11
-130.54266855036687
 21
12.671723474120375
 31
0.0
  0
LINE
  5
1E7
330
17
100
AcDbEntity
  8
0
100
AcDbLine
 10
-130.54266855036687
 20
12.671723474120375
 30
0.0
 11
-130.70318743442556
 21
11.343943391325258
 31
0.0
  0
LINE
  5
1E8
330
17
100
AcDbEntity
  8
0
100
AcDbLine
 10
-130.70318743442556
 20
11.343943391325258
 30
0.0
 11
-130.8459432083079
 21
10.014136243867453
 31
0.0
  0
LINE
  5
1E9
330
17
100
AcDbEntity
  8
0
100
AcDbLine
 10
-130.8459432083079
 20
10.014136243867453
 30
0.0
 11
-130.97091036279065
 21
8.682539656793377
 31
0.0
  0
LINE
  5
1EA
330
17
100
AcDbEntity
  8
0
100
AcDbLine
 10
-130.97091036279065
 20
8.682539656793377
 30
0.0
 11
-131.07806656732313
 21
7.3493915749071075
 31
0.0
  0
LINE
  5
1EB
330
17
100
AcDbEntity
  8
0
100
AcDbLine
 10
-131.07806656732313
 20
7.3493915749071075
 30
0.0
 11
-131.16739267401752
 21
6.0149302202514425
 31
0.0
  0
LINE
  5
1EC
330
17
100
AcDbEntity
  8
0
100
AcDbLine
 10
-131.16739267401752
 20
6.0149302202514425
 30
0.0
 11
-131.2388727210704
 21
4.6793940495394075
 31
0.0
  0
LINE
  5
1ED
330
17
100
AcDbEntity
  8
0
100
AcDbLine
 10
-131.2388727210704
 20
4.6793940495394075
 30
0.0
 11
-131.292493935615
 21
3.3430217115447256
 31
0.0
  0
LINE
  5
1EE
330
17
100
AcDbEntity
  8
0
100
AcDbLine
 10
-131.292493935615
 20
3.3430217115447256
 30
0.0
 11
-131.32824673600365
 21
2.006052004456634
 31
0.0
  0
LINE
  5
1EF
330
17
100
AcDbEntity
  8
0
100
AcDbLine
 10
-131.32824673600365
 20
2.006052004456634
 30
0.0
 11
-131.3461247335198
 21
0.6687238332094182
 31
0.0
  0
LINE
  5
1F0
330
17
100
AcDbEntity
  8
0
100
AcDbLine
 10
-131.3461247335198
 20
0.6687238332094182
 30
0.0
 11
-131.3461247335198
 21
-0.6687238332085421
 31
0.0
  0
LINE
  5
1F1
330
17
100
AcDbEntity
  8
0
100
AcDbLine
 10
-131.3461247335198
 20
-0.6687238332085421
 30
0.0
 11
-131.32824673600365
 21
-2.006052004455758
 31
0.0
  0
LINE
  5
1F2
330
17
100
AcDbEntity
  8
0
100
AcDbLine
 10
-131.32824673600365
 20
-2.006052004455758
 30
0.0
 11
-131.292493935615
 21
-3.3430217115438503
 31
0.0
  0
LINE
  5
1F3
330
17
100
AcDbEntity
  8
0
100
AcDbLine
 10
-131.292493935615
 20
-3.3430217115438503
 30
0.0
 11
-131.2388727210704
 21
-4.679394049538533
 31
0.0
  0
LINE
  5
1F4
330
17
100
AcDbEntity
  8
0
100
AcDbLine
 10
-131.2388727210704
 20
-4.679394049538533
 30
0.0
 11
-131.16739267401752
 21
-6.014930220250568
 31
0.0
  0
LINE
  5
1F5
330
17
100
AcDbEntity
  8
0
100
AcDbLine
 10
-131.16739267401752
 20
-6.014930220250568
 30
0.0
 11
-131.07806656732313
 21
-7.349391574906233
 31
0.0
  0
LINE
  5
1F6
330
17
100
AcDbEntity
  8
0
100
AcDbLine
 10
-131.07806656732313
 20
-7.349391574906233
 30
0.0
 11
-130.97091036279065
 21
-8.682539656792502
 31
0.0
  0
LINE
  5
1F7
330
17
100
AcDbEntity
  8
0
100
AcDbLine
 10
-130.97091036279065
 20
-8.682539656792502
 30
0.0
 11
-130.8459432083079
 21
-10.014136243866579
 31
0.0
  0
LINE
  5
1F8
330
17
100
AcDbEntity
  8
0
100
AcDbLine
 10
-130.8459432083079
 20
-10.014136243866579
 30
0.0
 11
-130.70318743442556
 21
-11.343943391324384
 31
0.0
  0
LINE
  5
1F9
330
17
100
AcDbEntity
  8
0
100
AcDbLine
 10
-130.70318743442556
 20
-11.343943391324384
 30
0.0
 11
-130.5426685503669
 21
-12.671723474119412
 31
0.0
  0
LINE
  5
1FA
330
17
100
AcDbEntity
  8
0
100
AcDbLine
 10
-130.5426685503669
 20
-12.671723474119412
 30
0.0
 11
-130.36441523946945
 21
-13.997239229424096
 31
0.0
  0
LINE
  5
1FB
330
17
100
AcDbEntity
  8
0
100
AcDbLine
 10
-130.36441523946945
 20
-13.997239229424096
 30
0.0
 11
-130.16845935405965
 21
-15.320253799026453
 31
0.0
  0
LINE
  5
1FC
330
17
100
AcDbEntity
  8
0
100
AcDbLine
 10
-130.16845935405965
 20
-15.320253799026453
 30
0.0
 11
-129.95483590976102
 21
-16.64053077165477
 31
0.0
  0
LINE
  5
1FD
330
17
100
AcDbEntity
  8
0
100
AcDbLine
 10
-129.95483590976102
 20
-16.64053077165477
 30
0.0
 11
-129.7235830792371
 21
-17.957834225222523
 31
0.0
  0
LINE
  5
1FE
330
17
100
AcDbEntity
  8
0
100
AcDbLine
 10
-129.7235830792371
 20
-17.957834225222523
 30
0.0
 11
-129.47474218537053
 21
-19.271928768984996
 31
0.0
  0
LINE
  5
1FF
330
17
100
AcDbEntity
  8
0
100
AcDbLine
 10
-129.47474218537053
 20
-19.271928768984996
 30
0.0
 11
-129.20835769387884
 21
-20.582579585602282
 31
0.0
  0
LINE
  5
200
330
17
100
AcDbEntity
  8
0
100
AcDbLine
 10
-129.20835769387884
 20
-20.582579585602282
 30
0.0
 11
-128.9244772053689
 21
-21.889552473098405
 31
0.0
  0
LINE
  5
201
330
17
100
AcDbEntity
  8
0
100
AcDbLine
 10
-128.9244772053689
 20
-21.889552473098405
 30
0.0
 11
-128.62315144683097
 21
-23.1926138867119
 31
0.0
  0
LINE
  5
202
330
17
100
AcDbEntity
  8
0
100
AcDbLine
 10
-128.62315144683097
 20
-23.1926138867119
 30
0.0
 11
-128.30443426257443
 21
-24.491530980627523
 31
0.0
  0
LINE
  5
203
330
17
100
AcDbEntity
  8
0
100
AcDbLine
 10
-128.30443426257443
 20
-24.491530980627523
 30
0.0
 11
-127.96838260460615
 21
-25.78607164958451
 31
0.0
  0
LINE
  5
204
330
17
100
AcDbEntity
  8
0
100
AcDbLine
 10
-127.96838260460615
 20
-25.78607164958451
 30
0.0
 11
-127.61505652245359
 21
-27.07600457035116
 31
0.0
  0
LINE
  5
205
330
17
100
AcDbEntity
  8
0
100
AcDbLine
 10
-127.61505652245359
 20
-27.07600457035116
 30
0.0
 11
-127.24451915243463
 21
-28.361099243060547
 31
0.0
  0
LINE
  5
206
330
17
100
AcDbEntity
  8
0
100
AcDbLine
 10
-127.24451915243463
 20
-28.361099243060547
 30
0.0
 11
-126.8568367063755
 21
-29.641126032399136
 31
0.0
  0
LINE
  5
207
330
17
100
AcDbEntity
  8
0
100
AcDbLine
 10
-126.8568367063755
 20
-29.641126032399136
 30
0.0
 11
-126.4520784597795
 21
-30.91585620864002
 31
0.0
  0
LINE
  5
208
330
17
100
AcDbEntity
  8
0
100
AcDbLine
 10
-126.4520784597795
 20
-30.91585620864002
 30
0.0
 11
-126.0303167394477
 21
-32.18506198851562
 31
0.0
  0
LINE
  5
209
330
17
100
AcDbEntity
  8
0
100
AcDbLine
 10
-126.0303167394477
 20
-32.18506198851562
 30
0.0
 11
-125.59162691055525
 21
-33.4485165759199
 31
0.0
  0
LINE
  5
20A
330
17
100
AcDbEntity
  8
0
100
AcDbLine
 10
-125.59162691055525
 20
-33.4485165759199
 30
0.0
 11
-125.13608736318392
 21
-34.705994202435505
 31
0.0
  0
LINE
  5
20B
330
17
100
AcDbEntity
  8
0
100
AcDbLine
 10
-125.13608736318392
 20
-34.705994202435505
 30
0.0
 11
-124.66377949831448
 21
-35.95727016767633
 31
0.0
  0
LINE
  5
20C
330
17
100
AcDbEntity
  8
0
100
AcDbLine
 10
-124.66377949831448
 20
-35.95727016767633
 30
0.0
 11
-124.17478771328135
 21
-37.20212087943936
 31
0.0
  0
LINE
  5
20D
330
17
100
AcDbEntity
  8
0
100
AcDbLine
 10
-124.17478771328135
 20
-37.20212087943936
 30
0.0
 11
-123.66919938669119
 21
-38.44032389365892
 31
0.0
  0
LINE
  5
20E
330
17
100
AcDbEntity
  8
0
100
AcDbLine
 10
-123.66919938669119
 20
-38.44032389365892
 30
0.0
 11
-123.14710486280921
 21
-39.67165795415562
 31
0.0
  0
LINE
  5
20F
330
17
100
AcDbEntity
  8
0
100
AcDbLine
 10
-123.14710486280921
 20
-39.67165795415562
 30
0.0
 11
-122.60859743541556
 21
-40.89590303217247
 31
0.0
  0
LINE
  5
210
330
17
100
AcDbEntity
  8
0
100
AcDbLine
 10
-122.60859743541556
 20
-40.89590303217247
 30
0.0
 11
-122.0537733311343
 21
-42.11284036569269
 31
0.0
  0
LINE
  5
211
330
17
100
AcDbEntity
  8
0
100
AcDbLine
 10
-122.0537733311343
 20
-42.11284036569269
 30
0.0
 11
-121.48273169223873
 21
-43.322252498530005
 31
0.0
  0
LINE
  5
212
330
17
100
AcDbEntity
  8
0
100
AcDbLine
 10
-121.48273169223873
 20
-43.322252498530005
 30
0.0
 11
-120.89557455893541
 21
-44.523923319186764
 31
0.0
  0
LINE
  5
213
330
17
100
AcDbEntity
  8
0
100
AcDbLine
 10
-120.89557455893541
 20
-44.523923319186764
 30
0.0
 11
-120.29240685113061
 21
-45.717638099470605
 31
0.0
  0
LINE
  5
214
330
17
100
AcDbEntity
  8
0
100
AcDbLine
 10
-120.29240685113061
 20
-45.717638099470605
 30
0.0
 11
-119.67333634968173
 21
-46.903183532865164
 31
0.0
  0
LINE
  5
215
330
17
100
AcDbEntity
  8
0
100
AcDbLine
 10
-119.67333634968173
 20
-46.903183532865164
 30
0.0
 11
-119.03847367713817
 21
-48.08034777264551
 31
0.0
  0
LINE
  5
216
330
17
100
AcDbEntity
  8
0
100
AcDbLine
 10
-119.03847367713817
 20
-48.08034777264551
 30
0.0
 11
-118.38793227797376
 21
-49.24892046973364
 31
0.0
  0
LINE
  5
217
330
17
100
AcDbEntity
  8
0
100
AcDbLine
 10
-118.38793227797376
 20
-49.24892046973364
 30
0.0
 11
-117.72182839831521
 21
-50.408692810286176
 31
0.0
  0
LINE
  5
218
330
17
100
AcDbEntity
  8
0
100
AcDbLine
 10
-117.72182839831521
 20
-50.408692810286176
 30
0.0
 11
-117.04028106517026
 21
-51.55945755300712
 31
0.0
  0
LINE
  5
219
330
17
100
AcDbEntity
  8
0
100
AcDbLine
 10
-117.04028106517026
 20
-51.55945755300712
 30
0.0
 11
-116.34341206515805
 21
-52.701009066180674
 31
0.0
  0
LINE
  5
21A
330
17
100
AcDbEntity
  8
0
100
AcDbLine
 10
-116.34341206515805
 20
-52.701009066180674
 30
0.0
 11
-115.63134592274747
 21
-53.83314336441528
 31
0.0
  0
LINE
  5
21B
330
17
100
AcDbEntity
  8
0
100
AcDbLine
 10
-115.63134592274747
 20
-53.83314336441528
 30
0.0
 11
-114.90420987800522
 21
-54.955658145094546
 31
0.0
  0
LINE
  5
21C
330
17
100
AcDbEntity
  8
0
100
AcDbLine
 10
-114.90420987800522
 20
-54.955658145094546
 30
0.0
 11
-114.16213386385954
 21
-56.06835282452653
 31
0.0
  0
LINE
  5
21D
330
17
100
AcDbEntity
  8
0
100
AcDbLine
 10
-114.16213386385954
 20
-56.06835282452653
 30
0.0
 11
-113.40525048288183
 21
-57.171028573786764
 31
0.0
  0
LINE
  5
21E
330
17
100
AcDbEntity
  8
0
100
AcDbLine
 10
-113.40525048288183
 20
-57.171028573786764
 30
0.0
 11
-112.63369498359228
 21
-58.26348835424685
 31
0.0
  0
LINE
  5
21F
330
17
100
AcDbEntity
  8
0
100
AcDbLine
 10
-112.63369498359228
 20
-58.26348835424685
 30
0.0
 11
-111.84760523629174
 21
-59.3455369527837
 31
0.0
  0
LINE
  5
220
330
17
100
AcDbEntity
  8
0
100
AcDbLine
 10
-111.84760523629174
 20
-59.3455369527837
 30
0.0
 11
-111.04712170842552
 21
-60.41698101666267
 31
0.0
  0
LINE
  5
221
330
17
100
AcDbEntity
  8
0
100
AcDbLine
 10
-111.04712170842552
 20
-60.41698101666267
 30
0.0
 11
-110.23238743948315
 21
-61.47762908808777
 31
0.0
  0
LINE
  5
222
330
17
100
AcDbEntity
  8
0
100
AcDbLine
 10
-20.854259747370712
 20
-115.72637473628282
 30
0.0
 11
-21.961953355905788
 21
-115.48181942012734
 31
0.0
  0
LINE
  5
223
330
17
100
AcDbEntity
  8
0
100
AcDbLine
 10
-21.961953355905788
 20
-115.48181942012734
 30
0.0
 11
-23.06862111300019
 21
-115.23268074676545
 31
0.0
  0
LINE
  5
224
330
17
100
AcDbEntity
  8
0
100
AcDbLine
 10
-23.06862111300019
 20
-115.23268074676545
 30
0.0
 11
-24.174239692625733
 21
-114.97896468533595
 31
0.0
  0
LINE
  5
225
330
17
100
AcDbEntity
  8
0
100
AcDbLine
 10
-24.174239692625733
 20
-114.97896468533595
 30
0.0
 11
-25.27875105167362
 21
-114.72068669188293
 31
0.0
  0
LINE
  5
226
330
17
100
AcDbEntity
  8
0
100
AcDbLine
 10
-25.27875105167362
 20
-114.72068669188293
 30
0.0
 11
-26.382008189985232
 21
-114.45788603028026
 31
0.0
  0
LINE
  5
227
330
17
100
AcDbEntity
  8
0
100
AcDbLine
 10
-26.382008189985232
 20
-114.45788603028026
 30
0.0
 11
-27.483997537835705
 21
-114.1905648831806
 31
0.0
  0
LINE
  5
228
330
17
100
AcDbEntity
  8
0
100
AcDbLine
 10
-27.483997537835705
 20
-114.1905648831806
 30
0.0
 11
-28.58471940441293
 21
-113.918721612658
 31
0.0
  0
LINE
  5
229
330
17
100
AcDbEntity
  8
0
100
AcDbLine
 10
-28.58471940441293
 20
-113.918721612658
 30
0.0
 11
-29.684174098904805
 21
-113.64235458078657
 31
0.0
  0
LINE
  5
22A
330
17
100
AcDbEntity
  8
0
100
AcDbLine
 10
-29.684174098904805
 20
-113.64235458078657
 30
0.0
 11
-30.78236193049922
 21
-113.3614621496404
 31
0.0
  0
LINE
  5
22B
330
17
100
AcDbEntity
  8
0
100
AcDbLine
 10
-30.78236193049922
 20
-113.3614621496404
 30
0.0
 11
-31.879283208384074
 21
-113.07604268129356
 31
0.0
  0
LINE
  5
22C
330
17
100
AcDbEntity
  8
0
100
AcDbLine
 10
-31.879283208384074
 20
-113.07604268129356
 30
0.0
 11
-32.97493824174727
 21
-112.78609453782013
 31
0.0
  0
LINE
  5
22D
330
17
100
AcDbEntity
  8
0
100
AcDbLine
 10
-32.97493824174727
 20
-112.78609453782013
 30
0.0
 11
-34.06932733977668
 21
-112.49161608129423
 31
0.0
  0
LINE
  5
22E
330
17
100
AcDbEntity
  8
0
100
AcDbLine
 10
-34.06932733977668
 20
-112.49161608129423
 30
0.0
 11
-35.16245081166021
 21
-112.1926056737899
 31
0.0
  0
LINE
  5
22F
330
17
100
AcDbEntity
  8
0
100
AcDbLine
 10
-35.16245081166021
 20
-112.1926056737899
 30
0.0
 11
-36.25430896658576
 21
-111.88906167738125
 31
0.0
  0
LINE
  5
230
330
17
100
AcDbEntity
  8
0
100
AcDbLine
 10
-36.25430896658576
 20
-111.88906167738125
 30
0.0
 11
-37.34490211374122
 21
-111.58098245414236
 31
0.0
  0
LINE
  5
231
330
17
100
AcDbEntity
  8
0
100
AcDbLine
 10
-37.34490211374122
 20
-111.58098245414236
 30
0.0
 11
-38.434230562314475
 21
-111.2683663661473
 31
0.0
  0
LINE
  5
232
330
17
100
AcDbEntity
  8
0
100
AcDbLine
 10
-38.434230562314475
 20
-111.2683663661473
 30
0.0
 11
-39.522294621493444
 21
-110.95121177547018
 31
0.0
  0
LINE
  5
233
330
17
100
AcDbEntity
  8
0
100
AcDbLine
 10
-39.522294621493444
 20
-110.95121177547018
 30
0.0
 11
-40.609094600465994
 21
-110.62951704418508
 31
0.0
  0
LINE
  5
234
330
17
100
AcDbEntity
  8
0
100
AcDbLine
 10
-40.609094600465994
 20
-110.62951704418508
 30
0.0
 11
-41.69463080842004
 21
-110.30328053436608
 31
0.0
  0
LINE
  5
235
330
17
100
AcDbEntity
  8
0
100
AcDbLine
 10
-41.69463080842004
 20
-110.30328053436608
 30
0.0
 11
-42.77890355454347
 21
-109.97250060808726
 31
0.0
  0
LINE
  5
236
330
17
100
AcDbEntity
  8
0
100
AcDbLine
 10
-42.77890355454347
 20
-109.97250060808726
 30
0.0
 11
-43.861913148024165
 21
-109.6371756274227
 31
0.0
  0
LINE
  5
237
330
17
100
AcDbEntity
  8
0
100
AcDbLine
 10
-43.861913148024165
 20
-109.6371756274227
 30
0.0
 11
-44.943659898050036
 21
-109.2973039544465
 31
0.0
  0
LINE
  5
238
330
17
100
AcDbEntity
  8
0
100
AcDbLine
 10
-44.943659898050036
 20
-109.2973039544465
 30
0.0
 11
-46.024144113808966
 21
-108.95288395123275
 31
0.0
  0
LINE
  5
239
330
17
100
AcDbEntity
  8
0
100
AcDbLine
 10
-46.024144113808966
 20
-108.95288395123275
 30
0.0
 11
-47.10336610448887
 21
-108.60391397985552
 31
0.0
  0
LINE
  5
23A
330
17
100
AcDbEntity
  8
0
100
AcDbLine
 10
-47.10336610448887
 20
-108.60391397985552
 30
0.0
 11
-48.181326179277626
 21
-108.2503924023889
 31
0.0
  0
LINE
  5
23B
330
17
100
AcDbEntity
  8
0
100
AcDbLine
 10
-48.181326179277626
 20
-108.2503924023889
 30
0.0
 11
-49.258024647363136
 21
-107.89231758090696
 31
0.0
  0
LINE
  5
23C
330
17
100
AcDbEntity
  8
0
100
AcDbLine
 10
-49.258024647363136
 20
-107.89231758090696
 30
0.0
 11
-50.33346181793328
 21
-107.52968787748381
 31
0.0
  0
LINE
  5
23D
330
17
100
AcDbEntity
  8
0
100
AcDbLine
 10
-50.33346181793328
 20
-107.52968787748381
 30
0.0
 11
-51.40778874214115
 21
-107.16261696987759
 31
0.0
  0
LINE
  5
23E
330
17
100
AcDbEntity
  8
0
100
AcDbLine
 10
-51.40778874214115
 20
-107.16261696987759
 30
0.0
 11
-52.48108548649585
 21
-106.79134288940674
 31
0.0
  0
LINE
  5
23F
330
17
100
AcDbEntity
  8
0
100
AcDbLine
 10
-52.48108548649585
 20
-106.79134288940674
 30
0.0
 11
-53.552971445882484
 21
-106.41589586075779
 31
0.0
  0
LINE
  5
240
330
17
100
AcDbEntity
  8
0
100
AcDbLine
 10
-53.552971445882484
 20
-106.41589586075779
 30
0.0
 11
-54.62305612619612
 21
-106.03630038110535
 31
0.0
  0
LINE
  5
241
330
17
100
AcDbEntity
  8
0
100
AcDbLine
 10
-54.62305612619612
 20
-106.03630038110535
 30
0.0
 11
-55.690949033331826
 21
-105.65258094762406
 31
0.0
  0
LINE
  5
242
330
17
100
AcDbEntity
  8
0
100
AcDbLine
 10
-55.690949033331826
 20
-105.65258094762406
 30
0.0
 11
-56.756259673184665
 21
-105.26476205748851
 31
0.0
  0
LINE
  5
243
330
17
100
AcDbEntity
  8
0
100
AcDbLine
 10
-56.756259673184665
 20
-105.26476205748851
 30
0.0
 11
-57.81859755164975
 21
-104.8728682078733
 31
0.0
  0
LINE
  5
244
330
17
100
AcDbEntity
  8
0
100
AcDbLine
 10
-57.81859755164975
 20
-104.8728682078733
 30
0.0
 11
-58.877572174622124
 21
-104.47692389595304
 31
0.0
  0
LINE
  5
245
330
17
100
AcDbEntity
  8
0
100
AcDbLine
 10
-58.877572174622124
 20
-104.47692389595304
 30
0.0
 11
-59.932793047996874
 21
-104.07695361890234
 31
0.0
  0
LINE
  5
246
330
17
100
AcDbEntity
  8
0
100
AcDbLine
 10
-59.932793047996874
 20
-104.07695361890234
 30
0.0
 11
-60.983869677669084
 21
-103.67298187389581
 31
0.0
  0
LINE
  5
247
330
17
100
AcDbEntity
  8
0
100
AcDbLine
 10
-60.983869677669084
 20
-103.67298187389581
 30
0.0
 11
-62.030411569533804
 21
-103.26503315810807
 31
0.0
  0
LINE
  5
248
330
17
100
AcDbEntity
  8
0
100
AcDbLine
 10
-62.030411569533804
 20
-103.26503315810807
 30
0.0
 11
-63.072028229486136
 21
-102.8531319687137
 31
0.0
  0
LINE
  5
249
330
17
100
AcDbEntity
  8
0
100
AcDbLine
 10
-63.072028229486136
 20
-102.8531319687137
 30
0.0
 11
-64.10473553803963
 21
-102.43856571415792
 31
0.0
  0
LINE
  5
24A
330
17
100
AcDbEntity
  8
0
100
AcDbLine
 10
-64.10473553803963
 20
-102.43856571415792
 30
0.0
 11
-65.12280391429893
 21
-102.02278916212735
 31
0.0
  0
LINE
  5
24B
330
17
100
AcDbEntity
  8
0
100
AcDbLine
 10
-65.12280391429893
 20
-102.02278916212735
 30
0.0
 11
-66.12519393142487
 21
-101.60532591228569
 31
0.0
  0
LINE
  5
24C
330
17
100
AcDbEntity
  8
0
100
AcDbLine
 10
-66.12519393142487
 20
-101.60532591228569
 30
0.0
 11
-67.11089647439086
 21
-101.18568803175827
 31
0.0
  0
LINE
  5
24D
330
17
100
AcDbEntity
  8
0
100
AcDbLine
 10
-67.11089647439086
 20
-101.18568803175827
 30
0.0
 11
-68.0789024281703
 21
-100.76338758767046
 31
0.0
  0
LINE
  5
24E
330
17
100
AcDbEntity
  8
0
100
AcDbLine
 10
-68.0789024281703
 20
-100.76338758767046
 30
0.0
 11
-69.0282026777366
 21
-100.33793664714757
 31
0.0
  0
LINE
  5
24F
330
17
100
AcDbEntity
  8
0
100
AcDbLine
 10
-69.0282026777366
 20
-100.33793664714757
 30
0.0
 11
-69.95823083868727
 21
-99.90871474439112
 31
0.0
  0
LINE
  5
250
330
17
100
AcDbEntity
  8
0
100
AcDbLine
 10
-69.95823083868727
 20
-99.90871474439112
 30
0.0
 11
-70.8689068236352
 21
-99.47510105052035
 31
0.0
  0
LINE
  5
251
330
17
100
AcDbEntity
  8
0
100
AcDbLine
 10
-70.8689068236352
 20
-99.47510105052035
 30
0.0
 11
-71.75987573317441
 21
-99.03663750659742
 31
0.0
  0
LINE
  5
252
330
17
100
AcDbEntity
  8
0
100
AcDbLine
 10
-71.75987573317441
 20
-99.03663750659742
 30
0.0
 11
-72.63078220516127
 21
-98.59286623965292
 31
0.0
  0
LINE
  5
253
330
17
100
AcDbEntity
  8
0
100
AcDbLine
 10
-72.63078220516127
 20
-98.59286623965292
 30
0.0
 11
-73.48127087745215
 21
-98.1433293767175
 31
0.0
  0
LINE
  5
254
330
17
100
AcDbEntity
  8
0
100
AcDbLine
 10
-73.48127087745215
 20
-98.1433293767175
 30
0.0
 11
-74.31098765613656
 21
-97.687568344231
 31
0.0
  0
LINE
  5
255
330
17
100
AcDbEntity
  8
0
100
AcDbLine
 10
-74.31098765613656
 20
-97.687568344231
 30
0.0
 11
-75.1263295500953
 21
-97.22151720892597
 31
0.0
  0
LINE
  5
256
330
17
100
AcDbEntity
  8
0
100
AcDbLine
 10
-75.1263295500953
 20
-97.22151720892597
 30
0.0
 11
-75.93387316276346
 21
-96.74148555525998
 31
0.0
  0
LINE
  5
257
330
17
100
AcDbEntity
  8
0
100
AcDbLine
 10
-75.93387316276346
 20
-96.74148555525998
 30
0.0
 11
-76.73406897511622
 21
-96.24728251337754
 31
0.0
  0
LINE
  5
258
330
17
100
AcDbEntity
  8
0
100
AcDbLine
 10
-76.73406897511622
 20
-96.24728251337754
 30
0.0
 11
-77.52736746812873
 21
-95.73871721342316
 31
0.0
  0
LINE
  5
259
330
17
100
AcDbEntity
  8
0
100
AcDbLine
 10
-77.52736746812873
 20
-95.73871721342316
 30
0.0
 11
-78.31421912277617
 21
-95.21559878554133
 31
0.0
  0
LINE
  5
25A
330
17
100
AcDbEntity
  8
0
100
AcDbLine
 10
-78.31421912277617
 20
-95.21559878554133
 30
0.0
 11
-79.09507442003374
 21
-94.67773635987659
 31
0.0
  0
LINE
  5
25B
330
17
100
AcDbEntity
  8
0
100
AcDbLine
 10
-79.09507442003374
 20
-94.67773635987659
 30
0.0
 11
-79.8703838408766
 21
-94.12493906657342
 31
0.0
  0
LINE
  5
25C
330
17
100
AcDbEntity
  8
0
100
AcDbLine
 10
-79.8703838408766
 20
-94.12493906657342
 30
0.0
 11
-80.64059786627993
 21
-93.55701603577636
 31
0.0
  0
LINE
  5
25D
330
17
100
AcDbEntity
  8
0
100
AcDbLine
 10
-80.64059786627993
 20
-93.55701603577636
 30
0.0
 11
-81.4061669772189
 21
-92.97377639762988
 31
0.0
  0
LINE
  5
25E
330
17
100
AcDbEntity
  8
0
100
AcDbLine
 10
-81.4061669772189
 20
-92.97377639762988
 30
0.0
 11
-82.1675416546687
 21
-92.37502928227853
 31
0.0
  0
LINE
  5
25F
330
17
100
AcDbEntity
  8
0
100
AcDbLine
 10
-82.1675416546687
 20
-92.37502928227853
 30
0.0
 11
-82.92517237960449
 21
-91.7605838198668
 31
0.0
  0
LINE
  5
260
330
17
100
AcDbEntity
  8
0
100
AcDbLine
 10
-82.92517237960449
 20
-91.7605838198668
 30
0.0
 11
-83.6795150274118
 21
-91.13024689537558
 31
0.0
  0
LINE
  5
261
330
17
100
AcDbEntity
  8
0
100
AcDbLine
 10
-83.6795150274118
 20
-91.13024689537558
 30
0.0
 11
-84.43146225322081
 21
-90.48375103586018
 31
0.0
  0
LINE
  5
262
330
17
100
AcDbEntity
  8
0
100
AcDbLine
 10
-84.43146225322081
 20
-90.48375103586018
 30
0.0
 11
-85.1815272803332
 21
-89.82133128147706
 31
0.0
  0
LINE
  5
263
330
17
100
AcDbEntity
  8
0
100
AcDbLine
 10
-85.1815272803332
 20
-89.82133128147706
 30
0.0
 11
-85.92985128157508
 21
-89.1434457154184
 31
0.0
  0
LINE
  5
264
330
17
100
AcDbEntity
  8
0
100
AcDbLine
 10
-85.92985128157508
 20
-89.1434457154184
 30
0.0
 11
-86.67657542977263
 21
-88.45055242087633
 31
0.0
  0
LINE
  5
265
330
17
100
AcDbEntity
  8
0
100
AcDbLine
 10
-86.67657542977263
 20
-88.45055242087633
 30
0.0
 11
-87.42184089775192
 21
-87.74310948104309
 31
0.0
  0
LINE
  5
266
330
17
100
AcDbEntity
  8
0
100
AcDbLine
 10
-87.42184089775192
 20
-87.74310948104309
 30
0.0
 11
-88.16578885833913
 21
-87.02157497911078
 31
0.0
  0
LINE
  5
267
330
17
100
AcDbEntity
  8
0
100
AcDbLine
 10
-88.16578885833913
 20
-87.02157497911078
 30
0.0
 11
-88.90856048436038
 21
-86.28640699827162
 31
0.0
  0
LINE
  5
268
330
17
100
AcDbEntity
  8
0
100
AcDbLine
 10
-88.90856048436038
 20
-86.28640699827162
 30
0.0
 11
-89.65029694864178
 21
-85.53806362171775
 31
0.0
  0
LINE
  5
269
330
17
100
AcDbEntity
  8
0
100
AcDbLine
 10
-89.65029694864178
 20
-85.53806362171775
 30
0.0
 11
-90.39113942400952
 21
-84.77700293264134
 31
0.0
  0
LINE
  5
26A
330
17
100
AcDbEntity
  8
0
100
AcDbLine
 10
-90.39113942400952
 20
-84.77700293264134
 30
0.0
 11
-91.13122908328968
 21
-84.00368301423457
 31
0.0
  0
LINE
  5
26B
330
17
100
AcDbEntity
  8
0
100
AcDbLine
 10
-91.13122908328968
 20
-84.00368301423457
 30
0.0
 11
-91.87070709930843
 21
-83.21856194968959
 31
0.0
  0
LINE
  5
26C
330
17
100
AcDbEntity
  8
0
100
AcDbLine
 10
-91.87070709930843
 20
-83.21856194968959
 30
0.0
 11
-92.60977362660297
 21
-82.42204020451015
 31
0.0
  0
LINE
  5
26D
330
17
100
AcDbEntity
  8
0
100
AcDbLine
 10
-92.60977362660297
 20
-82.42204020451015
 30
0.0
 11
-93.35022385889093
 21
-81.61301139885923
 31
0.0
  0
LINE
  5
26E
330
17
100
AcDbEntity
  8
0
100
AcDbLine
 10
-93.35022385889093
 20
-81.61301139885923
 30
0.0
 11
-94.0926698042884
 21
-80.79166148872056
 31
0.0
  0
LINE
  5
26F
330
17
100
AcDbEntity
  8
0
100
AcDbLine
 10
-94.0926698042884
 20
-80.79166148872056
 30
0.0
 11
-94.83687135965017
 21
-79.95903050268363
 31
0.0
  0
LINE
  5
270
330
17
100
AcDbEntity
  8
0
100
AcDbLine
 10
-94.83687135965017
 20
-79.95903050268363
 30
0.0
 11
-95.58258842183106
 21
-79.1161584693379
 31
0.0
  0
LINE
  5
271
330
17
100
AcDbEntity
  8
0
100
AcDbLine
 10
-95.58258842183106
 20
-79.1161584693379
 30
0.0
 11
-96.32958088768581
 21
-78.26408541727287
 31
0.0
  0
LINE
  5
272
330
17
100
AcDbEntity
  8
0
100
AcDbLine
 10
-96.32958088768581
 20
-78.26408541727287
 30
0.0
 11
-97.07760865406924
 21
-77.40385137507798
 31
0.0
  0
LINE
  5
273
330
17
100
AcDbEntity
  8
0
100
AcDbLine
 10
-97.07760865406924
 20
-77.40385137507798
 30
0.0
 11
-97.8264316178361
 21
-76.53649637134274
 31
0.0
  0
LINE
  5
274
330
17
100
AcDbEntity
  8
0
100
AcDbLine
 10
-97.8264316178361
 20
-76.53649637134274
 30
0.0
 11
-98.5758096758412
 21
-75.66306043465663
 31
0.0
  0
LINE
  5
275
330
17
100
AcDbEntity
  8
0
100
AcDbLine
 10
-98.5758096758412
 20
-75.66306043465663
 30
0.0
 11
-99.32550272493933
 21
-74.78458359360909
 31
0.0
  0
LINE
  5
276
330
17
100
AcDbEntity
  8
0
100
AcDbLine
 10
-99.32550272493933
 20
-74.78458359360909
 30
0.0
 11
-100.07527066198524
 21
-73.90210587678963
 31
0.0
  0
LINE
  5
277
330
17
100
AcDbEntity
  8
0
100
AcDbLine
 10
-100.07527066198524
 20
-73.90210587678963
 30
0.0
 11
-100.82487338383375
 21
-73.01666731278773
 31
0.0
  0
LINE
  5
278
330
17
100
AcDbEntity
  8
0
100
AcDbLine
 10
-100.82487338383375
 20
-73.01666731278773
 30
0.0
 11
-101.5738478806481
 21
-72.12945565611086
 31
0.0
  0
LINE
  5
279
330
17
100
AcDbEntity
  8
0
100
AcDbLine
 10
-101.5738478806481
 20
-72.12945565611086
 30
0.0
 11
-102.31879611748836
 21
-71.24325077548353
 31
0.0
  0
LINE
  5
27A
330
17
100
AcDbEntity
  8
0
100
AcDbLine
 10
-102.31879611748836
 20
-71.24325077548353
 30
0.0
 11
-103.05879893681822
 21
-70.35840837702673
 31
0.0
  0
LINE
  5
27B
330
17
100
AcDbEntity
  8
0
100
AcDbLine
 10
-103.05879893681822
 20
-70.35840837702673
 30
0.0
 11
-103.7940632952678
 21
-69.47444050034797
 31
0.0
  0
LINE
  5
27C
330
17
100
AcDbEntity
  8
0
100
AcDbLine
 10
-103.7940632952678
 20
-69.47444050034797
 30
0.0
 11
-104.52479614946729
 21
-68.59085918505464
 31
0.0
  0
LINE
  5
27D
330
17
100
AcDbEntity
  8
0
100
AcDbLine
 10
-104.52479614946729
 20
-68.59085918505464
 30
0.0
 11
-105.25120445604678
 21
-67.70717647075422
 31
0.0
  0
LINE
  5
27E
330
17
100
AcDbEntity
  8
0
100
AcDbLine
 10
-105.25120445604678
 20
-67.70717647075422
 30
0.0
 11
-105.97349517163644
 21
-66.82290439705412
 31
0.0
  0
LINE
  5
27F
330
17
100
AcDbEntity
  8
0
100
AcDbLine
 10
-105.97349517163644
 20
-66.82290439705412
 30
0.0
 11
-106.69187525286642
 21
-65.93755500356183
 31
0.0
  0
LINE
  5
280
330
17
100
AcDbEntity
  8
0
100
AcDbLine
 10
-106.69187525286642
 20
-65.93755500356183
 30
0.0
 11
-107.40655165636684
 21
-65.05064032988477
 31
0.0
  0
LINE
  5
281
330
17
100
AcDbEntity
  8
0
100
AcDbLine
 10
-107.40655165636684
 20
-65.05064032988477
 30
0.0
 11
-108.11773133876788
 21
-64.16167241563039
 31
0.0
  0
LINE
  5
282
330
17
100
AcDbEntity
  8
0
100
AcDbLine
 10
-108.11773133876788
 20
-64.16167241563039
 30
0.0
 11
-108.82562125669968
 21
-63.27016330040611
 31
0.0
  0
LINE
  5
283
330
17
100
AcDbEntity
  8
0
100
AcDbLine
 10
-108.82562125669968
 20
-63.27016330040611
 30
0.0
 11
-109.53042836679235
 21
-62.375625023819424
 31
0.0
  0
LINE
  5
284
330
17
100
AcDbEntity
  8
0
100
AcDbLine
 10
-109.53042836679235
 20
-62.375625023819424
 30
0.0
 11
-110.23238743948313
 21
-61.477629088087724
 31
0.0
  0
LINE
  5
285
330
17
100
AcDbEntity
  8
0
100
AcDbLine
 10
-20.85425974737084
 20
-115.7263747362834
 30
0.0
 11
-20.8457624945692
 21
-115.72822263233762
 31
0.0
  0
LINE
  5
286
330
17
100
AcDbEntity
  8
0
100
AcDbLine
 10
-20.8457624945692
 20
-115.72822263233762
 30
0.0
 11
-20.83726124458697
 21
-115.7300520513005
 31
0.0
  0
LINE
  5
287
330
17
100
AcDbEntity
  8
0
100
AcDbLine
 10
-20.83726124458697
 20
-115.7300520513005
 30
0.0
 11
-20.828756037602133
 21
-115.73186298452599
 31
0.0
  0
LINE
  5
288
330
17
100
AcDbEntity
  8
0
100
AcDbLine
 10
-20.828756037602133
 20
-115.73186298452599
 30
0.0
 11
-20.820246913811374
 21
-115.7336554234554
 31
0.0
  0
LINE
  5
289
330
17
100
AcDbEntity
  8
0
100
AcDbLine
 10
-20.820246913811374
 20
-115.7336554234554
 30
0.0
 11
-20.811733913429883
 21
-115.73542935961741
 31
0.0
  0
LINE
  5
28A
330
17
100
AcDbEntity
  8
0
100
AcDbLine
 10
-20.811733913429883
 20
-115.73542935961741
 30
0.0
 11
-20.803217076691187
 21
-115.7371847846282
 31
0.0
  0
LINE
  5
28B
330
17
100
AcDbEntity
  8
0
100
AcDbLine
 10
-20.803217076691187
 20
-115.7371847846282
 30
0.0
 11
-20.794696443846924
 21
-115.73892169019139
 31
0.0
  0
LINE
  5
28C
330
17
100
AcDbEntity
  8
0
100
AcDbLine
 10
-20.794696443846924
 20
-115.73892169019139
 30
0.0
 11
-20.786172055166695
 21
-115.74064006809816
 31
0.0
  0
LINE
  5
28D
330
17
100
AcDbEntity
  8
0
100
AcDbLine
 10
-20.786172055166695
 20
-115.74064006809816
 30
0.0
 11
-20.77764395093783
 21
-115.74233991022722
 31
0.0
  0
LINE
  5
28E
330
17
100
AcDbEntity
  8
0
100
AcDbLine
 10
-20.77764395093783
 20
-115.74233991022722
 30
0.0
 11
-20.76911217146523
 21
-115.74402120854492
 31
0.0
  0
LINE
  5
28F
330
17
100
AcDbEntity
  8
0
100
AcDbLine
 10
-20.76911217146523
 20
-115.74402120854492
 30
0.0
 11
-20.76057675707117
 21
-115.7456839551052
 31
0.0
  0
LINE
  5
290
330
17
100
AcDbEntity
  8
0
100
AcDbLine
 10
-20.76057675707117
 20
-115.7456839551052
 30
0.0
 11
-20.75203774809509
 21
-115.74732814204977
 31
0.0
  0
LINE
  5
291
330
17
100
AcDbEntity
  8
0
100
AcDbLine
 10
-20.75203774809509
 20
-115.74732814204977
 30
0.0
 11
-20.74349518489344
 21
-115.74895376160794
 31
0.0
  0
LINE
  5
292
330
17
100
AcDbEntity
  8
0
100
AcDbLine
 10
-20.74349518489344
 20
-115.74895376160794
 30
0.0
 11
-20.734949107839444
 21
-115.75056080609683
 31
0.0
  0
LINE
  5
293
330
17
100
AcDbEntity
  8
0
100
AcDbLine
 10
-20.734949107839444
 20
-115.75056080609683
 30
0.0
 11
-20.72639955732295
 21
-115.75214926792137
 31
0.0
  0
LINE
  5
294
330
17
100
AcDbEntity
  8
0
100
AcDbLine
 10
-20.72639955732295
 20
-115.75214926792137
 30
0.0
 11
-20.717846573750208
 21
-115.75371913957427
 31
0.0
  0
LINE
  5
295
330
17
100
AcDbEntity
  8
0
100
AcDbLine
 10
-20.717846573750208
 20
-115.75371913957427
 30
0.0
 11
-20.709290197543712
 21
-115.75527041363613
 31
0.0
  0
LINE
  5
296
330
17
100
AcDbEntity
  8
0
100
AcDbLine
 10
-20.709290197543712
 20
-115.75527041363613
 30
0.0
 11
-20.700730469141966
 21
-115.7568030827754
 31
0.0
  0
LINE
  5
297
330
17
100
AcDbEntity
  8
0
100
AcDbLine
 10
-20.700730469141966
 20
-115.7568030827754
 30
0.0
 11
-20.692167428999344
 21
-115.75831713974854
 31
0.0
  0
LINE
  5
298
330
17
100
AcDbEntity
  8
0
100
AcDbLine
 10
-20.692167428999344
 20
-115.75831713974854
 30
0.0
 11
-20.683601117585845
 21
-115.75981257739991
 31
0.0
  0
LINE
  5
299
330
17
100
AcDbEntity
  8
0
100
AcDbLine
 10
-20.683601117585845
 20
-115.75981257739991
 30
0.0
 11
-20.675031575386946
 21
-115.76128938866187
 31
0.0
  0
LINE
  5
29A
330
17
100
AcDbEntity
  8
0
100
AcDbLine
 10
-20.675031575386946
 20
-115.76128938866187
 30
0.0
 11
-20.66645884290339
 21
-115.76274756655481
 31
0.0
  0
LINE
  5
29B
330
17
100
AcDbEntity
  8
0
100
AcDbLine
 10
-20.66645884290339
 20
-115.76274756655481
 30
0.0
 11
-20.657882960650987
 21
-115.76418710418723
 31
0.0
  0
LINE
  5
29C
330
17
100
AcDbEntity
  8
0
100
AcDbLine
 10
-20.657882960650987
 20
-115.76418710418723
 30
0.0
 11
-20.649303969160457
 21
-115.76560799475567
 31
0.0
  0
LINE
  5
29D
330
17
100
AcDbEntity
  8
0
100
AcDbLine
 10
-20.649303969160457
 20
-115.76560799475567
 30
0.0
 11
-20.640721908977188
 21
-115.76701023154483
 31
0.0
  0
LINE
  5
29E
330
17
100
AcDbEntity
  8
0
100
AcDbLine
 10
-20.640721908977188
 20
-115.76701023154483
 30
0.0
 11
-20.63213682066109
 21
-115.76839380792757
 31
0.0
  0
LINE
  5
29F
330
17
100
AcDbEntity
  8
0
100
AcDbLine
 10
-20.63213682066109
 20
-115.76839380792757
 30
0.0
 11
-20.623548744786365
 21
-115.76975871736491
 31
0.0
  0
LINE
  5
2A0
330
17
100
AcDbEntity
  8
0
100
AcDbLine
 10
-20.623548744786365
 20
-115.76975871736491
 30
0.0
 11
-20.61495772194136
 21
-115.77110495340614
 31
0.0
  0
LINE
  5
2A1
330
17
100
AcDbEntity
  8
0
100
AcDbLine
 10
-20.61495772194136
 20
-115.77110495340614
 30
0.0
 11
-20.606363792728324
 21
-115.77243250968876
 31
0.0
  0
LINE
  5
2A2
330
17
100
AcDbEntity
  8
0
100
AcDbLine
 10
-20.606363792728324
 20
-115.77243250968876
 30
0.0
 11
-20.59776699776327
 21
-115.77374137993858
 31
0.0
  0
LINE
  5
2A3
330
17
100
AcDbEntity
  8
0
100
AcDbLine
 10
-20.59776699776327
 20
-115.77374137993858
 30
0.0
 11
-20.58916737767572
 21
-115.77503155796971
 31
0.0
  0
LINE
  5
2A4
330
17
100
AcDbEntity
  8
0
100
AcDbLine
 10
-20.58916737767572
 20
-115.77503155796971
 30
0.0
 11
-20.580564973108583
 21
-115.77630303768461
 31
0.0
  0
LINE
  5
2A5
330
17
100
AcDbEntity
  8
0
100
AcDbLine
 10
-20.580564973108583
 20
-115.77630303768461
 30
0.0
 11
-20.5719598247179
 21
-115.7775558130741
 31
0.0
  0
LINE
  5
2A6
330
17
100
AcDbEntity
  8
0
100
AcDbLine
 10
-20.5719598247179
 20
-115.7775558130741
 30
0.0
 11
-20.5633519731727
 21
-115.77878987821741
 31
0.0
  0
LINE
  5
2A7
330
17
100
AcDbEntity
  8
0
100
AcDbLine
 10
-20.5633519731727
 20
-115.77878987821741
 30
0.0
 11
-20.554741459154776
 21
-115.78000522728217
 31
0.0
  0
LINE
  5
2A8
330
17
100
AcDbEntity
  8
0
100
AcDbLine
 10
-20.554741459154776
 20
-115.78000522728217
 30
0.0
 11
-20.546128323358506
 21
-115.78120185452453
 31
0.0
  0
LINE
  5
2A9
330
17
100
AcDbEntity
  8
0
100
AcDbLine
 10
-20.546128323358506
 20
-115.78120185452453
 30
0.0
 11
-20.53751260649066
 21
-115.78237975428905
 31
0.0
  0
LINE
  5
2AA
330
17
100
AcDbEntity
  8
0
100
AcDbLine
 10
-20.53751260649066
 20
-115.78237975428905
 30
0.0
 11
-20.528894349270207
 21
-115.78353892100883
 31
0.0
  0
LINE
  5
2AB
330
17
100
AcDbEntity
  8
0
100
AcDbLine
 10
-20.528894349270207
 20
-115.78353892100883
 30
0.0
 11
-20.520273592428122
 21
-115.78467934920549
 31
0.0
  0
LINE
  5
2AC
330
17
100
AcDbEntity
  8
0
100
AcDbLine
 10
-20.520273592428122
 20
-115.78467934920549
 30
0.0
 11
-20.51165037670719
 21
-115.78580103348924
 31
0.0
  0
LINE
  5
2AD
330
17
100
AcDbEntity
  8
0
100
AcDbLine
 10
-20.51165037670719
 20
-115.78580103348924
 30
0.0
 11
-20.503024742861825
 21
-115.78690396855886
 31
0.0
  0
LINE
  5
2AE
330
17
100
AcDbEntity
  8
0
100
AcDbLine
 10
-20.503024742861825
 20
-115.78690396855886
 30
0.0
 11
-20.494396731657858
 21
-115.78798814920172
 31
0.0
  0
LINE
  5
2AF
330
17
100
AcDbEntity
  8
0
100
AcDbLine
 10
-20.494396731657858
 20
-115.78798814920172
 30
0.0
 11
-20.485766383872367
 21
-115.78905357029386
 31
0.0
  0
LINE
  5
2B0
330
17
100
AcDbEntity
  8
0
100
AcDbLine
 10
-20.485766383872367
 20
-115.78905357029386
 30
0.0
 11
-20.477133740293464
 21
-115.79010022679996
 31
0.0
  0
LINE
  5
2B1
330
17
100
AcDbEntity
  8
0
100
AcDbLine
 10
-20.477133740293464
 20
-115.79010022679996
 30
0.0
 11
-20.468498841720116
 21
-115.7911281137734
 31
0.0
  0
LINE
  5
2B2
330
17
100
AcDbEntity
  8
0
100
AcDbLine
 10
-20.468498841720116
 20
-115.7911281137734
 30
0.0
 11
-20.45986172896195
 21
-115.79213722635625
 31
0.0
  0
LINE
  5
2B3
330
17
100
AcDbEntity
  8
0
100
AcDbLine
 10
-20.45986172896195
 20
-115.79213722635625
 30
0.0
 11
-20.45122244283905
 21
-115.7931275597793
 31
0.0
  0
LINE
  5
2B4
330
17
100
AcDbEntity
  8
0
100
AcDbLine
 10
-20.45122244283905
 20
-115.7931275597793
 30
0.0
 11
-20.44258102418178
 21
-115.79409910936212
 31
0.0
  0
LINE
  5
2B5
330
17
100
AcDbEntity
  8
0
100
AcDbLine
 10
-20.44258102418178
 20
-115.79409910936212
 30
0.0
 11
-20.43393751383057
 21
-115.79505187051305
 31
0.0
  0
LINE
  5
2B6
330
17
100
AcDbEntity
  8
0
100
AcDbLine
 10
-20.43393751383057
 20
-115.79505187051305
 30
0.0
 11
-20.425291952635757
 21
-115.79598583872922
 31
0.0
  0
LINE
  5
2B7
330
17
100
AcDbEntity
  8
0
100
AcDbLine
 10
-20.425291952635757
 20
-115.79598583872922
 30
0.0
 11
-20.416644381457346
 21
-115.79690100959657
 31
0.0
  0
LINE
  5
2B8
330
17
100
AcDbEntity
  8
0
100
AcDbLine
 10
-20.416644381457346
 20
-115.79690100959657
 30
0.0
 11
-20.407994841164857
 21
-115.79779737878988
 31
0.0
  0
LINE
  5
2B9
330
17
100
AcDbEntity
  8
0
100
AcDbLine
 10
-20.407994841164857
 20
-115.79779737878988
 30
0.0
 11
-20.399343372637112
 21
-115.79867494207282
 31
0.0
  0
LINE
  5
2BA
330
17
100
AcDbEntity
  8
0
100
AcDbLine
 10
-20.399343372637112
 20
-115.79867494207282
 30
0.0
 11
-20.390690016762047
 21
-115.7995336952979
 31
0.0
  0
LINE
  5
2BB
330
17
100
AcDbEntity
  8
0
100
AcDbLine
 10
-20.390690016762047
 20
-115.7995336952979
 30
0.0
 11
-20.382034814436512
 21
-115.80037363440654
 31
0.0
  0
LINE
  5
2BC
330
17
100
AcDbEntity
  8
0
100
AcDbLine
 10
-20.382034814436512
 20
-115.80037363440654
 30
0.0
 11
-20.373377806566094
 21
-115.80119475542908
 31
0.0
  0
LINE
  5
2BD
330
17
100
AcDbEntity
  8
0
100
AcDbLine
 10
-20.373377806566094
 20
-115.80119475542908
 30
0.0
 11
-20.36471903406491
 21
-115.80199705448481
 31
0.0
  0
LINE
  5
2BE
330
17
100
AcDbEntity
  8
0
100
AcDbLine
 10
-20.36471903406491
 20
-115.80199705448481
 30
0.0
 11
-20.356058537855407
 21
-115.80278052778196
 31
0.0
  0
LINE
  5
2BF
330
17
100
AcDbEntity
  8
0
100
AcDbLine
 10
-20.356058537855407
 20
-115.80278052778196
 30
0.0
 11
-20.347396358868192
 21
-115.80354517161774
 31
0.0
  0
LINE
  5
2C0
330
17
100
AcDbEntity
  8
0
100
AcDbLine
 10
-20.347396358868192
 20
-115.80354517161774
 30
0.0
 11
-20.338732538041818
 21
-115.80429098237832
 31
0.0
  0
LINE
  5
2C1
330
17
100
AcDbEntity
  8
0
100
AcDbLine
 10
-20.338732538041818
 20
-115.80429098237832
 30
0.0
 11
-20.3300671163226
 21
-115.80501795653893
 31
0.0
  0
LINE
  5
2C2
330
17
100
AcDbEntity
  8
0
100
AcDbLine
 10
-20.3300671163226
 20
-115.80501795653893
 30
0.0
 11
-20.32140013466441
 21
-115.80572609066381
 31
0.0
  0
LINE
  5
2C3
330
17
100
AcDbEntity
  8
0
100
AcDbLine
 10
-20.32140013466441
 20
-115.80572609066381
 30
0.0
 11
-20.312731634028513
 21
-115.8064153814062
 31
0.0
  0
LINE
  5
2C4
330
17
100
AcDbEntity
  8
0
100
AcDbLine
 10
-20.312731634028513
 20
-115.8064153814062
 30
0.0
 11
-20.30406165538333
 21
-115.80708582550842
 31
0.0
  0
LINE
  5
2C5
330
17
100
AcDbEntity
  8
0
100
AcDbLine
 10
-20.30406165538333
 20
-115.80708582550842
 30
0.0
 11
-20.295390239704282
 21
-115.8077374198019
 31
0.0
  0
LINE
  5
2C6
330
17
100
AcDbEntity
  8
0
100
AcDbLine
 10
-20.295390239704282
 20
-115.8077374198019
 30
0.0
 11
-20.286717427973574
 21
-115.8083701612071
 31
0.0
  0
LINE
  5
2C7
330
17
100
AcDbEntity
  8
0
100
AcDbLine
 10
-20.286717427973574
 20
-115.8083701612071
 30
0.0
 11
-20.278043261180017
 21
-115.8089840467336
 31
0.0
  0
LINE
  5
2C8
330
17
100
AcDbEntity
  8
0
100
AcDbLine
 10
-20.278043261180017
 20
-115.8089840467336
 30
0.0
 11
-20.269367780318817
 21
-115.80957907348011
 31
0.0
  0
LINE
  5
2C9
330
17
100
AcDbEntity
  8
0
100
AcDbLine
 10
-20.269367780318817
 20
-115.80957907348011
 30
0.0
 11
-20.26069102639139
 21
-115.81015523863445
 31
0.0
  0
LINE
  5
2CA
330
17
100
AcDbEntity
  8
0
100
AcDbLine
 10
-20.26069102639139
 20
-115.81015523863445
 30
0.0
 11
-20.252013040405185
 21
-115.8107125394736
 31
0.0
  0
LINE
  5
2CB
330
17
100
AcDbEntity
  8
0
100
AcDbLine
 10
-20.252013040405185
 20
-115.8107125394736
 30
0.0
 11
-20.243333863373454
 21
-115.81125097336368
 31
0.0
  0
LINE
  5
2CC
330
17
100
AcDbEntity
  8
0
100
AcDbLine
 10
-20.243333863373454
 20
-115.81125097336368
 30
0.0
 11
-20.234653536315086
 21
-115.81177053776
 31
0.0
  0
LINE
  5
2CD
330
17
100
AcDbEntity
  8
0
100
AcDbLine
 10
-20.234653536315086
 20
-115.81177053776
 30
0.0
 11
-20.22597210025441
 21
-115.812271230207
 31
0.0
  0
LINE
  5
2CE
330
17
100
AcDbEntity
  8
0
100
AcDbLine
 10
-20.22597210025441
 20
-115.812271230207
 30
0.0
 11
-20.217289596220986
 21
-115.81275304833838
 31
0.0
  0
LINE
  5
2CF
330
17
100
AcDbEntity
  8
0
100
AcDbLine
 10
-20.217289596220986
 20
-115.81275304833838
 30
0.0
 11
-20.20860606524943
 21
-115.81321598987698
 31
0.0
  0
LINE
  5
2D0
330
17
100
AcDbEntity
  8
0
100
AcDbLine
 10
-20.20860606524943
 20
-115.81321598987698
 30
0.0
 11
-20.19992154837921
 21
-115.81366005263489
 31
0.0
  0
LINE
  5
2D1
330
17
100
AcDbEntity
  8
0
100
AcDbLine
 10
-20.19992154837921
 20
-115.81366005263489
 30
0.0
 11
-20.191236086654445
 21
-115.81408523451341
 31
0.0
  0
LINE
  5
2D2
330
17
100
AcDbEntity
  8
0
100
AcDbLine
 10
-20.191236086654445
 20
-115.81408523451341
 30
0.0
 11
-20.182549721123735
 21
-115.81449153350307
 31
0.0
  0
LINE
  5
2D3
330
17
100
AcDbEntity
  8
0
100
AcDbLine
 10
-20.182549721123735
 20
-115.81449153350307
 30
0.0
 11
-20.173862492839937
 21
-115.81487894768367
 31
0.0
  0
LINE
  5
2D4
330
17
100
AcDbEntity
  8
0
100
AcDbLine
 10
-20.173862492839937
 20
-115.81487894768367
 30
0.0
 11
-20.165174442859993
 21
-115.81524747522423
 31
0.0
  0
LINE
  5
2D5
330
17
100
AcDbEntity
  8
0
100
AcDbLine
 10
-20.165174442859993
 20
-115.81524747522423
 30
0.0
 11
-20.156485612244733
 21
-115.81559711438304
 31
0.0
  0
LINE
  5
2D6
330
17
100
AcDbEntity
  8
0
100
AcDbLine
 10
-20.156485612244733
 20
-115.81559711438304
 30
0.0
 11
-20.14779604205866
 21
-115.81592786350765
 31
0.0
  0
LINE
  5
2D7
330
17
100
AcDbEntity
  8
0
100
AcDbLine
 10
-20.14779604205866
 20
-115.81592786350765
 30
0.0
 11
-20.139105773369785
 21
-115.81623972103493
 31
0.0
  0
LINE
  5
2D8
330
17
100
AcDbEntity
  8
0
100
AcDbLine
 10
-20.139105773369785
 20
-115.81623972103493
 30
0.0
 11
-20.13041484724942
 21
-115.81653268549097
 31
0.0
  0
LINE
  5
2D9
330
17
100
AcDbEntity
  8
0
100
AcDbLine
 10
-20.13041484724942
 20
-115.81653268549097
 30
0.0
 11
-20.121723304771983
 21
-115.8168067554912
 31
0.0
  0
LINE
  5
2DA
330
17
100
AcDbEntity
  8
0
100
AcDbLine
 10
-20.121723304771983
 20
-115.8168067554912
 30
0.0
 11
-20.1130311870148
 21
-115.81706192974032
 31
0.0
  0
LINE
  5
2DB
330
17
100
AcDbEntity
  8
0
100
AcDbLine
 10
-20.1130311870148
 20
-115.81706192974032
 30
0.0
 11
-20.104338535057927
 21
-115.81729820703237
 31
0.0
  0
LINE
  5
2DC
330
17
100
AcDbEntity
  8
0
100
AcDbLine
 10
-20.104338535057927
 20
-115.81729820703237
 30
0.0
 11
-20.095645389983925
 21
-115.81751558625062
 31
0.0
  0
LINE
  5
2DD
330
17
100
AcDbEntity
  8
0
100
AcDbLine
 10
-20.095645389983925
 20
-115.81751558625062
 30
0.0
 11
-20.086951792877706
 21
-115.81771406636777
 31
0.0
  0
LINE
  5
2DE
330
17
100
AcDbEntity
  8
0
100
AcDbLine
 10
-20.086951792877706
 20
-115.81771406636777
 30
0.0
 11
-20.078257784826313
 21
-115.81789364644574
 31
0.0
  0
LINE
  5
2DF
330
17
100
AcDbEntity
  8
0
100
AcDbLine
 10
-20.078257784826313
 20
-115.81789364644574
 30
0.0
 11
-20.06956340691872
 21
-115.81805432563581
 31
0.0
  0
LINE
  5
2E0
330
17
100
AcDbEntity
  8
0
100
AcDbLine
 10
-20.06956340691872
 20
-115.81805432563581
 30
0.0
 11
-20.060868700245667
 21
-115.81819610317862
 31
0.0
  0
LINE
  5
2E1
330
17
100
AcDbEntity
  8
0
100
AcDbLine
 10
-20.060868700245667
 20
-115.81819610317862
 30
0.0
 11
-20.052173705899428
 21
-115.81831897840408
 31
0.0
  0
LINE
  5
2E2
330
17
100
AcDbEntity
  8
0
100
AcDbLine
 10
-20.052173705899428
 20
-115.81831897840408
 30
0.0
 11
-20.043478464973653
 21
-115.81842295073149
 31
0.0
  0
LINE
  5
2E3
330
17
100
AcDbEntity
  8
0
100
AcDbLine
 10
-20.043478464973653
 20
-115.81842295073149
 30
0.0
 11
-20.03478301856315
 21
-115.81850801966945
 31
0.0
  0
LINE
  5
2E4
330
17
100
AcDbEntity
  8
0
100
AcDbLine
 10
-20.03478301856315
 20
-115.81850801966945
 30
0.0
 11
-20.0260874077637
 21
-115.81857418481592
 31
0.0
  0
LINE
  5
2E5
330
17
100
AcDbEntity
  8
0
100
AcDbLine
 10
-20.0260874077637
 20
-115.81857418481592
 30
0.0
 11
-20.01739167367186
 21
-115.81862144585817
 31
0.0
  0
LINE
  5
2E6
330
17
100
AcDbEntity
  8
0
100
AcDbLine
 10
-20.01739167367186
 20
-115.81862144585817
 30
0.0
 11
-20.00869585738477
 21
-115.81864980257288
 31
0.0
  0
LINE
  5
2E7
330
17
100
AcDbEntity
  8
0
100
AcDbLine
 10
-20.00869585738477
 20
-115.81864980257288
 30
0.0
 11
-19.99999999999995
 21
-115.818659254826
 31
0.0
  0
LINE
  5
2E8
330
17
100
AcDbEntity
  8
0
100
AcDbLine
 10
-19.99999999999995
 20
-115.818659254826
 30
0.0
 11
-19.936536144660717
 21
-115.8181557655215
 31
0.0
  0
LINE
  5
2E9
330
17
100
AcDbEntity
  8
0
100
AcDbLine
 10
-19.936536144660717
 20
-115.8181557655215
 30
0.0
 11
-19.87308826600768
 21
-115.81664542435874
 31
0.0
  0
LINE
  5
2EA
330
17
100
AcDbEntity
  8
0
100
AcDbLine
 10
-19.87308826600768
 20
-115.81664542435874
 30
0.0
 11
-19.80967233670498
 21
-115.81412861155803
 31
0.0
  0
LINE
  5
2EB
330
17
100
AcDbEntity
  8
0
100
AcDbLine
 10
-19.80967233670498
 20
-115.81412861155803
 30
0.0
 11
-19.746304321373692
 21
-115.81060596071354
 31
0.0
  0
LINE
  5
2EC
330
17
100
AcDbEntity
  8
0
100
AcDbLine
 10
-19.746304321373692
 20
-115.81060596071354
 30
0.0
 11
-19.683000172572797
 21
-115.80607835863377
 31
0.0
  0
LINE
  5
2ED
330
17
100
AcDbEntity
  8
0
100
AcDbLine
 10
-19.683000172572797
 20
-115.80607835863377
 30
0.0
 11
-19.61977582678322
 21
-115.80054694511834
 31
0.0
  0
LINE
  5
2EE
330
17
100
AcDbEntity
  8
0
100
AcDbLine
 10
-19.61977582678322
 20
-115.80054694511834
 30
0.0
 11
-19.556647200395908
 21
-115.79401311267102
 31
0.0
  0
LINE
  5
2EF
330
17
100
AcDbEntity
  8
0
100
AcDbLine
 10
-19.556647200395908
 20
-115.79401311267102
 30
0.0
 11
-19.49363018570495
 21
-115.78647850614918
 31
0.0
  0
LINE
  5
2F0
330
17
100
AcDbEntity
  8
0
100
AcDbLine
 10
-19.49363018570495
 20
-115.78647850614918
 30
0.0
 11
-19.43074064690681
 21
-115.77794502234973
 31
0.0
  0
LINE
  5
2F1
330
17
100
AcDbEntity
  8
0
100
AcDbLine
 10
-19.43074064690681
 20
-115.77794502234973
 30
0.0
 11
-19.36799441610655
 21
-115.76841480953158
 31
0.0
  0
LINE
  5
2F2
330
17
100
AcDbEntity
  8
0
100
AcDbLine
 10
-19.36799441610655
 20
-115.76841480953158
 30
0.0
 11
-19.30540728933223
 21
-115.75789026687484
 31
0.0
  0
LINE
  5
2F3
330
17
100
AcDbEntity
  8
0
100
AcDbLine
 10
-19.30540728933223
 20
-115.75789026687484
 30
0.0
 11
-19.24299502255831
 21
-115.74637404387683
 31
0.0
  0
LINE
  5
2F4
330
17
100
AcDbEntity
  8
0
100
AcDbLine
 10
-19.24299502255831
 20
-115.74637404387683
 30
0.0
 11
-19.18077332773919
 21
-115.73386903968512
 31
0.0
  0
LINE
  5
2F5
330
17
100
AcDbEntity
  8
0
100
AcDbLine
 10
-19.18077332773919
 20
-115.73386903968512
 30
0.0
 11
-19.118757868853788
 21
-115.72037840236763
 31
0.0
  0
LINE
  5
2F6
330
17
100
AcDbEntity
  8
0
100
AcDbLine
 10
-19.118757868853788
 20
-115.72037840236763
 30
0.0
 11
-19.056964257962242
 21
-115.70590552812017
 31
0.0
  0
LINE
  5
2F7
330
17
100
AcDbEntity
  8
0
100
AcDbLine
 10
-19.056964257962242
 20
-115.70590552812017
 30
0.0
 11
-18.995408051275632
 21
-115.69045406041143
 31
0.0
  0
LINE
  5
2F8
330
17
100
AcDbEntity
  8
0
100
AcDbLine
 10
-18.995408051275632
 20
-115.69045406041143
 30
0.0
 11
-18.93410474523981
 21
-115.67402788906577
 31
0.0
  0
LINE
  5
2F9
330
17
100
AcDbEntity
  8
0
100
AcDbLine
 10
-18.93410474523981
 20
-115.67402788906577
 30
0.0
 11
-18.87306977263423
 21
-115.656631149284
 31
0.0
  0
LINE
  5
2FA
330
17
100
AcDbEntity
  8
0
100
AcDbLine
 10
-18.87306977263423
 20
-115.656631149284
 30
0.0
 11
-18.81231849868685
 21
-115.6382682206023
 31
0.0
  0
LINE
  5
2FB
330
17
100
AcDbEntity
  8
0
100
AcDbLine
 10
-18.81231849868685
 20
-115.6382682206023
 30
0.0
 11
-18.751866217206
 21
-115.61894372578979
 31
0.0
  0
LINE
  5
2FC
330
17
100
AcDbEntity
  8
0
100
AcDbLine
 10
-18.751866217206
 20
-115.61894372578979
 30
0.0
 11
-18.691728146730263
 21
-115.59866252968467
 31
0.0
  0
LINE
  5
2FD
330
17
100
AcDbEntity
  8
0
100
AcDbLine
 10
-18.691728146730263
 20
-115.59866252968467
 30
0.0
 11
-18.631919426697277
 21
-115.57742973796964
 31
0.0
  0
LINE
  5
2FE
330
17
100
AcDbEntity
  8
0
100
AcDbLine
 10
-18.631919426697277
 20
-115.57742973796964
 30
0.0
 11
-18.57245511363246
 21
-115.55525069588643
 31
0.0
  0
LINE
  5
2FF
330
17
100
AcDbEntity
  8
0
100
AcDbLine
 10
-18.57245511363246
 20
-115.55525069588643
 30
0.0
 11
-18.51335017735864
 21
-115.5321309868903
 31
0.0
  0
LINE
  5
300
330
17
100
AcDbEntity
  8
0
100
AcDbLine
 10
-18.51335017735864
 20
-115.5321309868903
 30
0.0
 11
-18.454619497227437
 21
-115.50807643124433
 31
0.0
  0
LINE
  5
301
330
17
100
AcDbEntity
  8
0
100
AcDbLine
 10
-18.454619497227437
 20
-115.50807643124433
 30
0.0
 11
-18.396277858373494
 21
-115.48309308455428
 31
0.0
  0
LINE
  5
302
330
17
100
AcDbEntity
  8
0
100
AcDbLine
 10
-18.396277858373494
 20
-115.48309308455428
 30
0.0
 11
-18.338339947992406
 21
-115.45718723624408
 31
0.0
  0
LINE
  5
303
330
17
100
AcDbEntity
  8
0
100
AcDbLine
 10
-18.338339947992406
 20
-115.45718723624408
 30
0.0
 11
-18.280820351643264
 21
-115.43036540797249
 31
0.0
  0
LINE
  5
304
330
17
100
AcDbEntity
  8
0
100
AcDbLine
 10
-18.280820351643264
 20
-115.43036540797249
 30
0.0
 11
-18.223733549576853
 21
-115.40263435199135
 31
0.0
  0
LINE
  5
305
330
17
100
AcDbEntity
  8
0
100
AcDbLine
 10
-18.223733549576853
 20
-115.40263435199135
 30
0.0
 11
-18.16709391309031
 21
-115.3740010494457
 31
0.0
  0
LINE
  5
306
330
17
100
AcDbEntity
  8
0
100
AcDbLine
 10
-18.16709391309031
 20
-115.3740010494457
 30
0.0
 11
-18.11091570090922
 21
-115.34447270861634
 31
0.0
  0
LINE
  5
307
330
17
100
AcDbEntity
  8
0
100
AcDbLine
 10
-18.11091570090922
 20
-115.34447270861634
 30
0.0
 11
-18.055213055598074
 21
-115.31405676310514
 31
0.0
  0
LINE
  5
308
330
17
100
AcDbEntity
  8
0
100
AcDbLine
 10
-18.055213055598074
 20
-115.31405676310514
 30
0.0
 11
-17.99999999999995
 21
-115.28276086996375
 31
0.0
  0
LINE
  5
309
330
17
100
AcDbEntity
  8
0
100
AcDbLine
 10
-17.99999999999995
 20
-115.28276086996375
 30
0.0
 11
-17.945290433706326
 21
-115.2505929077659
 31
0.0
  0
LINE
  5
30A
330
17
100
AcDbEntity
  8
0
100
AcDbLine
 10
-17.945290433706326
 20
-115.2505929077659
 30
0.0
 11
-17.89109812955794
 21
-115.21756097462406
 31
0.0
  0
LINE
  5
30B
330
17
100
AcDbEntity
  8
0
100
AcDbLine
 10
-17.89109812955794
 20
-115.21756097462406
 30
0.0
 11
-17.83743673017756
 21
-115.18367338615073
 31
0.0
  0
LINE
  5
30C
330
17
100
AcDbEntity
  8
0
100
AcDbLine
 10
-17.83743673017756
 20
-115.18367338615073
 30
0.0
 11
-17.78431974453551
 21
-115.14893867336508
 31
0.0
  0
LINE
  5
30D
330
17
100
AcDbEntity
  8
0
100
AcDbLine
 10
-17.78431974453551
 20
-115.14893867336508
 30
0.0
 11
-17.731760544548866
 21
-115.11336558054533
 31
0.0
  0
LINE
  5
30E
330
17
100
AcDbEntity
  8
0
100
AcDbLine
 10
-17.731760544548866
 20
-115.11336558054533
 30
0.0
 11
-17.67977236171516
 21
-115.07696306302735
 31
0.0
  0
LINE
  5
30F
330
17
100
AcDbEntity
  8
0
100
AcDbLine
 10
-17.67977236171516
 20
-115.07696306302735
 30
0.0
 11
-17.628368283781388
 21
-115.03974028495024
 31
0.0
  0
LINE
  5
310
330
17
100
AcDbEntity
  8
0
100
AcDbLine
 10
-17.628368283781388
 20
-115.03974028495024
 30
0.0
 11
-17.577561251449282
 21
-115.00170661694933
 31
0.0
  0
LINE
  5
311
330
17
100
AcDbEntity
  8
0
100
AcDbLine
 10
-17.577561251449282
 20
-115.00170661694933
 30
0.0
 11
-17.52736405511753
 21
-114.96287163379715
 31
0.0
  0
LINE
  5
312
330
17
100
AcDbEntity
  8
0
100
AcDbLine
 10
-17.52736405511753
 20
-114.96287163379715
 30
0.0
 11
-17.47778933166186
 21
-114.92324511199303
 31
0.0
  0
LINE
  5
313
330
17
100
AcDbEntity
  8
0
100
AcDbLine
 10
-17.47778933166186
 20
-114.92324511199303
 30
0.0
 11
-17.42884956125379
 21
-114.88283702730192
 31
0.0
  0
LINE
  5
314
330
17
100
AcDbEntity
  8
0
100
AcDbLine
 10
-17.42884956125379
 20
-114.88283702730192
 30
0.0
 11
-17.38055706421881
 21
-114.84165755224303
 31
0.0
  0
LINE
  5
315
330
17
100
AcDbEntity
  8
0
100
AcDbLine
 10
-17.38055706421881
 20
-114.84165755224303
 30
0.0
 11
-17.332923997934785
 21
-114.79971705352902
 31
0.0
  0
LINE
  5
316
330
17
100
AcDbEntity
  8
0
100
AcDbLine
 10
-17.332923997934785
 20
-114.79971705352902
 30
0.0
 11
-17.28596235377142
 21
-114.75702608945613
 31
0.0
  0
LINE
  5
317
330
17
100
AcDbEntity
  8
0
100
AcDbLine
 10
-17.28596235377142
 20
-114.75702608945613
 30
0.0
 11
-17.239683954071502
 21
-114.71359540724629
 31
0.0
  0
LINE
  5
318
330
17
100
AcDbEntity
  8
0
100
AcDbLine
 10
-17.239683954071502
 20
-114.71359540724629
 30
0.0
 11
-17.194100449174666
 21
-114.66943594034146
 31
0.0
  0
LINE
  5
319
330
17
100
AcDbEntity
  8
0
100
AcDbLine
 10
-17.194100449174666
 20
-114.66943594034146
 30
0.0
 11
-17.149223314484498
 21
-114.62455880565129
 31
0.0
  0
LINE
  5
31A
330
17
100
AcDbEntity
  8
0
100
AcDbLine
 10
-17.149223314484498
 20
-114.62455880565129
 30
0.0
 11
-17.10506384757967
 21
-114.57897530075445
 31
0.0
  0
LINE
  5
31B
330
17
100
AcDbEntity
  8
0
100
AcDbLine
 10
-17.10506384757967
 20
-114.57897530075445
 30
0.0
 11
-17.061633165369816
 21
-114.53269690105454
 31
0.0
  0
LINE
  5
31C
330
17
100
AcDbEntity
  8
0
100
AcDbLine
 10
-17.061633165369816
 20
-114.53269690105454
 30
0.0
 11
-17.01894220129693
 21
-114.48573525689118
 31
0.0
  0
LINE
  5
31D
330
17
100
AcDbEntity
  8
0
100
AcDbLine
 10
-17.01894220129693
 20
-114.48573525689118
 30
0.0
 11
-16.977001702582918
 21
-114.43810219060714
 31
0.0
  0
LINE
  5
31E
330
17
100
AcDbEntity
  8
0
100
AcDbLine
 10
-16.977001702582918
 20
-114.43810219060714
 30
0.0
 11
-16.93582222752404
 21
-114.38980969357216
 31
0.0
  0
LINE
  5
31F
330
17
100
AcDbEntity
  8
0
100
AcDbLine
 10
-16.93582222752404
 20
-114.38980969357216
 30
0.0
 11
-16.895414142832923
 21
-114.34086992316409
 31
0.0
  0
LINE
  5
320
330
17
100
AcDbEntity
  8
0
100
AcDbLine
 10
-16.895414142832923
 20
-114.34086992316409
 30
0.0
 11
-16.8557876210288
 21
-114.29129519970843
 31
0.0
  0
LINE
  5
321
330
17
100
AcDbEntity
  8
0
100
AcDbLine
 10
-16.8557876210288
 20
-114.29129519970843
 30
0.0
 11
-16.81695263787662
 21
-114.24109800337666
 31
0.0
  0
LINE
  5
322
330
17
100
AcDbEntity
  8
0
100
AcDbLine
 10
-16.81695263787662
 20
-114.24109800337666
 30
0.0
 11
-16.778918969875715
 21
-114.19029097104456
 31
0.0
  0
LINE
  5
323
330
17
100
AcDbEntity
  8
0
100
AcDbLine
 10
-16.778918969875715
 20
-114.19029097104456
 30
0.0
 11
-16.741696191798606
 21
-114.1388868931108
 31
0.0
  0
LINE
  5
324
330
17
100
AcDbEntity
  8
0
100
AcDbLine
 10
-16.741696191798606
 20
-114.1388868931108
 30
0.0
 11
-16.705293674280618
 21
-114.08689871027708
 31
0.0
  0
LINE
  5
325
330
17
100
AcDbEntity
  8
0
100
AcDbLine
 10
-16.705293674280618
 20
-114.08689871027708
 30
0.0
 11
-16.669720581460865
 21
-114.03433951029044
 31
0.0
  0
LINE
  5
326
330
17
100
AcDbEntity
  8
0
100
AcDbLine
 10
-16.669720581460865
 20
-114.03433951029044
 30
0.0
 11
-16.634985868675226
 21
-113.98122252464839
 31
0.0
  0
LINE
  5
327
330
17
100
AcDbEntity
  8
0
100
AcDbLine
 10
-16.634985868675226
 20
-113.98122252464839
 30
0.0
 11
-16.601098280201892
 21
-113.92756112526801
 31
0.0
  0
LINE
  5
328
330
17
100
AcDbEntity
  8
0
100
AcDbLine
 10
-16.601098280201892
 20
-113.92756112526801
 30
0.0
 11
-16.568066347060043
 21
-113.87336882111963
 31
0.0
  0
LINE
  5
329
330
17
100
AcDbEntity
  8
0
100
AcDbLine
 10
-16.568066347060043
 20
-113.87336882111963
 30
0.0
 11
-16.535898384862197
 21
-113.818659254826
 31
0.0
  0
LINE
  5
32A
330
17
100
AcDbEntity
  8
0
100
AcDbLine
 10
-16.535898384862197
 20
-113.818659254826
 30
0.0
 11
-16.50460249172081
 21
-113.76344619922787
 31
0.0
  0
LINE
  5
32B
330
17
100
AcDbEntity
  8
0
100
AcDbLine
 10
-16.50460249172081
 20
-113.76344619922787
 30
0.0
 11
-16.474186546209623
 21
-113.70774355391673
 31
0.0
  0
LINE
  5
32C
330
17
100
AcDbEntity
  8
0
100
AcDbLine
 10
-16.474186546209623
 20
-113.70774355391673
 30
0.0
 11
-16.444658205380257
 21
-113.65156534173565
 31
0.0
  0
LINE
  5
32D
330
17
100
AcDbEntity
  8
0
100
AcDbLine
 10
-16.444658205380257
 20
-113.65156534173565
 30
0.0
 11
-16.416024902834607
 21
-113.5949257052491
 31
0.0
  0
LINE
  5
32E
330
17
100
AcDbEntity
  8
0
100
AcDbLine
 10
-16.416024902834607
 20
-113.5949257052491
 30
0.0
 11
-16.388293846853465
 21
-113.53783890318269
 31
0.0
  0
LINE
  5
32F
330
17
100
AcDbEntity
  8
0
100
AcDbLine
 10
-16.388293846853465
 20
-113.53783890318269
 30
0.0
 11
-16.36147201858188
 21
-113.48031930683355
 31
0.0
  0
LINE
  5
330
330
17
100
AcDbEntity
  8
0
100
AcDbLine
 10
-16.36147201858188
 20
-113.48031930683355
 30
0.0
 11
-16.335566170271672
 21
-113.42238139645245
 31
0.0
  0
LINE
  5
331
330
17
100
AcDbEntity
  8
0
100
AcDbLine
 10
-16.335566170271672
 20
-113.42238139645245
 30
0.0
 11
-16.310582823581626
 21
-113.36403975759852
 31
0.0
  0
LINE
  5
332
330
17
100
AcDbEntity
  8
0
100
AcDbLine
 10
-16.310582823581626
 20
-113.36403975759852
 30
0.0
 11
-16.286528267935658
 21
-113.30530907746731
 31
0.0
  0
LINE
  5
333
330
17
100
AcDbEntity
  8
0
100
AcDbLine
 10
-16.286528267935658
 20
-113.30530907746731
 30
0.0
 11
-16.263408558939524
 21
-113.24620414119349
 31
0.0
  0
LINE
  5
334
330
17
100
AcDbEntity
  8
0
100
AcDbLine
 10
-16.263408558939524
 20
-113.24620414119349
 30
0.0
 11
-16.24122951685632
 21
-113.18673982812868
 31
0.0
  0
LINE
  5
335
330
17
100
AcDbEntity
  8
0
100
AcDbLine
 10
-16.24122951685632
 20
-113.18673982812868
 30
0.0
 11
-16.219996725141275
 21
-113.12693110809569
 31
0.0
  0
LINE
  5
336
330
17
100
AcDbEntity
  8
0
100
AcDbLine
 10
-16.219996725141275
 20
-113.12693110809569
 30
0.0
 11
-16.19971552903617
 21
-113.06679303761995
 31
0.0
  0
LINE
  5
337
330
17
100
AcDbEntity
  8
0
100
AcDbLine
 10
-16.19971552903617
 20
-113.06679303761995
 30
0.0
 11
-16.180391034223653
 21
-113.0063407561391
 31
0.0
  0
LINE
  5
338
330
17
100
AcDbEntity
  8
0
100
AcDbLine
 10
-16.180391034223653
 20
-113.0063407561391
 30
0.0
 11
-16.16202810554196
 21
-112.94558948219172
 31
0.0
  0
LINE
  5
339
330
17
100
AcDbEntity
  8
0
100
AcDbLine
 10
-16.16202810554196
 20
-112.94558948219172
 30
0.0
 11
-16.144631365760183
 21
-112.88455450958614
 31
0.0
  0
LINE
  5
33A
330
17
100
AcDbEntity
  8
0
100
AcDbLine
 10
-16.144631365760183
 20
-112.88455450958614
 30
0.0
 11
-16.128205194414527
 21
-112.82325120355031
 31
0.0
  0
LINE
  5
33B
330
17
100
AcDbEntity
  8
0
100
AcDbLine
 10
-16.128205194414527
 20
-112.82325120355031
 30
0.0
 11
-16.112753726705783
 21
-112.76169499686371
 31
0.0
  0
LINE
  5
33C
330
17
100
AcDbEntity
  8
0
100
AcDbLine
 10
-16.112753726705783
 20
-112.76169499686371
 30
0.0
 11
-16.098280852458323
 21
-112.69990138597217
 31
0.0
  0
LINE
  5
33D
330
17
100
AcDbEntity
  8
0
100
AcDbLine
 10
-16.098280852458323
 20
-112.69990138597217
 30
0.0
 11
-16.084790215140835
 21
-112.63788592708677
 31
0.0
  0
LINE
  5
33E
330
17
100
AcDbEntity
  8
0
100
AcDbLine
 10
-16.084790215140835
 20
-112.63788592708677
 30
0.0
 11
-16.072285210949122
 21
-112.57566423226764
 31
0.0
  0
LINE
  5
33F
330
17
100
AcDbEntity
  8
0
100
AcDbLine
 10
-16.072285210949122
 20
-112.57566423226764
 30
0.0
 11
-16.060768987951118
 21
-112.51325196549372
 31
0.0
  0
LINE
  5
340
330
17
100
AcDbEntity
  8
0
100
AcDbLine
 10
-16.060768987951118
 20
-112.51325196549372
 30
0.0
 11
-16.050244445294375
 21
-112.4506648387194
 31
0.0
  0
LINE
  5
341
330
17
100
AcDbEntity
  8
0
100
AcDbLine
 10
-16.050244445294375
 20
-112.4506648387194
 30
0.0
 11
-16.04071423247622
 21
-112.38791860791915
 31
0.0
  0
LINE
  5
342
330
17
100
AcDbEntity
  8
0
100
AcDbLine
 10
-16.04071423247622
 20
-112.38791860791915
 30
0.0
 11
-16.03218074867677
 21
-112.325029069121
 31
0.0
  0
LINE
  5
343
330
17
100
AcDbEntity
  8
0
100
AcDbLine
 10
-16.03218074867677
 20
-112.325029069121
 30
0.0
 11
-16.024646142154936
 21
-112.26201205443004
 31
0.0
  0
LINE
  5
344
330
17
100
AcDbEntity
  8
0
100
AcDbLine
 10
-16.024646142154936
 20
-112.26201205443004
 30
0.0
 11
-16.01811230970761
 21
-112.19888342804273
 31
0.0
  0
LINE
  5
345
330
17
100
AcDbEntity
  8
0
100
AcDbLine
 10
-16.01811230970761
 20
-112.19888342804273
 30
0.0
 11
-16.01258089619218
 21
-112.13565908225316
 31
0.0
  0
LINE
  5
346
330
17
100
AcDbEntity
  8
0
100
AcDbLine
 10
-16.01258089619218
 20
-112.13565908225316
 30
0.0
 11
-16.00805329411241
 21
-112.07235493345226
 31
0.0
  0
LINE
  5
347
330
17
100
AcDbEntity
  8
0
100
AcDbLine
 10
-16.00805329411241
 20
-112.07235493345226
 30
0.0
 11
-16.00453064326792
 21
-112.00898691812097
 31
0.0
  0
LINE
  5
348
330
17
100
AcDbEntity
  8
0
100
AcDbLine
 10
-16.00453064326792
 20
-112.00898691812097
 30
0.0
 11
-16.00201383046721
 21
-111.94557098881828
 31
0.0
  0
LINE
  5
349
330
17
100
AcDbEntity
  8
0
100
AcDbLine
 10
-16.00201383046721
 20
-111.94557098881828
 30
0.0
 11
-16.00050348930445
 21
-111.88212311016524
 31
0.0
  0
LINE
  5
34A
330
17
100
AcDbEntity
  8
0
100
AcDbLine
 10
-16.00050348930445
 20
-111.88212311016524
 30
0.0
 11
-15.99999999999995
 21
-111.818659254826
 31
0.0
  0
LINE
  5
34B
330
17
100
AcDbEntity
  8
0
100
AcDbLine
 10
-15.99999999999995
 20
111.818659254827
 30
0.0
 11
-15.99999999999995
 21
-111.818659254826
 31
0.0
  0
LINE
  5
34C
330
17
100
AcDbEntity
  8
0
100
AcDbLine
 10
-15.99999999999995
 20
111.818659254827
 30
0.0
 11
-16.00050348930445
 21
111.88212311016623
 31
0.0
  0
LINE
  5
34D
330
17
100
AcDbEntity
  8
0
100
AcDbLine
 10
-16.00050348930445
 20
111.88212311016623
 30
0.0
 11
-16.00201383046721
 21
111.94557098881927
 31
0.0
  0
LINE
  5
34E
330
17
100
AcDbEntity
  8
0
100
AcDbLine
 10
-16.00201383046721
 20
111.94557098881927
 30
0.0
 11
-16.00453064326792
 21
112.00898691812196
 31
0.0
  0
LINE
  5
34F
330
17
100
AcDbEntity
  8
0
100
AcDbLine
 10
-16.00453064326792
 20
112.00898691812196
 30
0.0
 11
-16.00805329411241
 21
112.07235493345325
 31
0.0
  0
LINE
  5
350
330
17
100
AcDbEntity
  8
0
100
AcDbLine
 10
-16.00805329411241
 20
112.07235493345325
 30
0.0
 11
-16.01258089619218
 21
112.13565908225415
 31
0.0
  0
LINE
  5
351
330
17
100
AcDbEntity
  8
0
100
AcDbLine
 10
-16.01258089619218
 20
112.13565908225415
 30
0.0
 11
-16.01811230970761
 21
112.19888342804373
 31
0.0
  0
LINE
  5
352
330
17
100
AcDbEntity
  8
0
100
AcDbLine
 10
-16.01811230970761
 20
112.19888342804373
 30
0.0
 11
-16.024646142154936
 21
112.26201205443104
 31
0.0
  0
LINE
  5
353
330
17
100
AcDbEntity
  8
0
100
AcDbLine
 10
-16.024646142154936
 20
112.26201205443104
 30
0.0
 11
-16.03218074867677
 21
112.325029069122
 31
0.0
  0
LINE
  5
354
330
17
100
AcDbEntity
  8
0
100
AcDbLine
 10
-16.03218074867677
 20
112.325029069122
 30
0.0
 11
-16.04071423247622
 21
112.38791860792014
 31
0.0
  0
LINE
  5
355
330
17
100
AcDbEntity
  8
0
100
AcDbLine
 10
-16.04071423247622
 20
112.38791860792014
 30
0.0
 11
-16.050244445294375
 21
112.4506648387204
 31
0.0
  0
LINE
  5
356
330
17
100
AcDbEntity
  8
0
100
AcDbLine
 10
-16.050244445294375
 20
112.4506648387204
 30
0.0
 11
-16.060768987951118
 21
112.51325196549472
 31
0.0
  0
LINE
  5
357
330
17
100
AcDbEntity
  8
0
100
AcDbLine
 10
-16.060768987951118
 20
112.51325196549472
 30
0.0
 11
-16.072285210949122
 21
112.57566423226864
 31
0.0
  0
LINE
  5
358
330
17
100
AcDbEntity
  8
0
100
AcDbLine
 10
-16.072285210949122
 20
112.57566423226864
 30
0.0
 11
-16.084790215140835
 21
112.63788592708777
 31
0.0
  0
LINE
  5
359
330
17
100
AcDbEntity
  8
0
100
AcDbLine
 10
-16.084790215140835
 20
112.63788592708777
 30
0.0
 11
-16.098280852458323
 21
112.69990138597316
 31
0.0
  0
LINE
  5
35A
330
17
100
AcDbEntity
  8
0
100
AcDbLine
 10
-16.098280852458323
 20
112.69990138597316
 30
0.0
 11
-16.112753726705783
 21
112.7616949968647
 31
0.0
  0
LINE
  5
35B
330
17
100
AcDbEntity
  8
0
100
AcDbLine
 10
-16.112753726705783
 20
112.7616949968647
 30
0.0
 11
-16.128205194414527
 21
112.82325120355131
 31
0.0
  0
LINE
  5
35C
330
17
100
AcDbEntity
  8
0
100
AcDbLine
 10
-16.128205194414527
 20
112.82325120355131
 30
0.0
 11
-16.144631365760183
 21
112.88455450958713
 31
0.0
  0
LINE
  5
35D
330
17
100
AcDbEntity
  8
0
100
AcDbLine
 10
-16.144631365760183
 20
112.88455450958713
 30
0.0
 11
-16.16202810554196
 21
112.94558948219272
 31
0.0
  0
LINE
  5
35E
330
17
100
AcDbEntity
  8
0
100
AcDbLine
 10
-16.16202810554196
 20
112.94558948219272
 30
0.0
 11
-16.180391034223653
 21
113.00634075614009
 31
0.0
  0
LINE
  5
35F
330
17
100
AcDbEntity
  8
0
100
AcDbLine
 10
-16.180391034223653
 20
113.00634075614009
 30
0.0
 11
-16.19971552903617
 21
113.06679303762094
 31
0.0
  0
LINE
  5
360
330
17
100
AcDbEntity
  8
0
100
AcDbLine
 10
-16.19971552903617
 20
113.06679303762094
 30
0.0
 11
-16.219996725141275
 21
113.12693110809668
 31
0.0
  0
LINE
  5
361
330
17
100
AcDbEntity
  8
0
100
AcDbLine
 10
-16.219996725141275
 20
113.12693110809668
 30
0.0
 11
-16.241229516856315
 21
113.18673982812967
 31
0.0
  0
LINE
  5
362
330
17
100
AcDbEntity
  8
0
100
AcDbLine
 10
-16.241229516856315
 20
113.18673982812967
 30
0.0
 11
-16.263408558939524
 21
113.24620414119448
 31
0.0
  0
LINE
  5
363
330
17
100
AcDbEntity
  8
0
100
AcDbLine
 10
-16.263408558939524
 20
113.24620414119448
 30
0.0
 11
-16.286528267935658
 21
113.30530907746831
 31
0.0
  0
LINE
  5
364
330
17
100
AcDbEntity
  8
0
100
AcDbLine
 10
-16.286528267935658
 20
113.30530907746831
 30
0.0
 11
-16.310582823581626
 21
113.36403975759951
 31
0.0
  0
LINE
  5
365
330
17
100
AcDbEntity
  8
0
100
AcDbLine
 10
-16.310582823581626
 20
113.36403975759951
 30
0.0
 11
-16.335566170271672
 21
113.42238139645345
 31
0.0
  0
LINE
  5
366
330
17
100
AcDbEntity
  8
0
100
AcDbLine
 10
-16.335566170271672
 20
113.42238139645345
 30
0.0
 11
-16.36147201858188
 21
113.48031930683455
 31
0.0
  0
LINE
  5
367
330
17
100
AcDbEntity
  8
0
100
AcDbLine
 10
-16.36147201858188
 20
113.48031930683455
 30
0.0
 11
-16.388293846853465
 21
113.53783890318368
 31
0.0
  0
LINE
  5
368
330
17
100
AcDbEntity
  8
0
100
AcDbLine
 10
-16.388293846853465
 20
113.53783890318368
 30
0.0
 11
-16.416024902834607
 21
113.59492570525009
 31
0.0
  0
LINE
  5
369
330
17
100
AcDbEntity
  8
0
100
AcDbLine
 10
-16.416024902834607
 20
113.59492570525009
 30
0.0
 11
-16.444658205380257
 21
113.65156534173664
 31
0.0
  0
LINE
  5
36A
330
17
100
AcDbEntity
  8
0
100
AcDbLine
 10
-16.444658205380257
 20
113.65156534173664
 30
0.0
 11
-16.474186546209623
 21
113.70774355391772
 31
0.0
  0
LINE
  5
36B
330
17
100
AcDbEntity
  8
0
100
AcDbLine
 10
-16.474186546209623
 20
113.70774355391772
 30
0.0
 11
-16.50460249172081
 21
113.76344619922887
 31
0.0
  0
LINE
  5
36C
330
17
100
AcDbEntity
  8
0
100
AcDbLine
 10
-16.50460249172081
 20
113.76344619922887
 30
0.0
 11
-16.535898384862193
 21
113.818659254827
 31
0.0
  0
LINE
  5
36D
330
17
100
AcDbEntity
  8
0
100
AcDbLine
 10
-16.535898384862193
 20
113.818659254827
 30
0.0
 11
-16.568066347060043
 21
113.87336882112062
 31
0.0
  0
LINE
  5
36E
330
17
100
AcDbEntity
  8
0
100
AcDbLine
 10
-16.568066347060043
 20
113.87336882112062
 30
0.0
 11
-16.601098280201892
 21
113.92756112526901
 31
0.0
  0
LINE
  5
36F
330
17
100
AcDbEntity
  8
0
100
AcDbLine
 10
-16.601098280201892
 20
113.92756112526901
 30
0.0
 11
-16.634985868675226
 21
113.98122252464938
 31
0.0
  0
LINE
  5
370
330
17
100
AcDbEntity
  8
0
100
AcDbLine
 10
-16.634985868675226
 20
113.98122252464938
 30
0.0
 11
-16.669720581460865
 21
114.03433951029143
 31
0.0
  0
LINE
  5
371
330
17
100
AcDbEntity
  8
0
100
AcDbLine
 10
-16.669720581460865
 20
114.03433951029143
 30
0.0
 11
-16.705293674280618
 21
114.08689871027808
 31
0.0
  0
LINE
  5
372
330
17
100
AcDbEntity
  8
0
100
AcDbLine
 10
-16.705293674280618
 20
114.08689871027808
 30
0.0
 11
-16.741696191798606
 21
114.13888689311179
 31
0.0
  0
LINE
  5
373
330
17
100
AcDbEntity
  8
0
100
AcDbLine
 10
-16.741696191798606
 20
114.13888689311179
 30
0.0
 11
-16.778918969875715
 21
114.19029097104556
 31
0.0
  0
LINE
  5
374
330
17
100
AcDbEntity
  8
0
100
AcDbLine
 10
-16.778918969875715
 20
114.19029097104556
 30
0.0
 11
-16.81695263787662
 21
114.24109800337766
 31
0.0
  0
LINE
  5
375
330
17
100
AcDbEntity
  8
0
100
AcDbLine
 10
-16.81695263787662
 20
114.24109800337766
 30
0.0
 11
-16.8557876210288
 21
114.29129519970942
 31
0.0
  0
LINE
  5
376
330
17
100
AcDbEntity
  8
0
100
AcDbLine
 10
-16.8557876210288
 20
114.29129519970942
 30
0.0
 11
-16.895414142832923
 21
114.34086992316509
 31
0.0
  0
LINE
  5
377
330
17
100
AcDbEntity
  8
0
100
AcDbLine
 10
-16.895414142832923
 20
114.34086992316509
 30
0.0
 11
-16.93582222752404
 21
114.38980969357316
 31
0.0
  0
LINE
  5
378
330
17
100
AcDbEntity
  8
0
100
AcDbLine
 10
-16.93582222752404
 20
114.38980969357316
 30
0.0
 11
-16.977001702582918
 21
114.43810219060813
 31
0.0
  0
LINE
  5
379
330
17
100
AcDbEntity
  8
0
100
AcDbLine
 10
-16.977001702582918
 20
114.43810219060813
 30
0.0
 11
-17.01894220129693
 21
114.48573525689217
 31
0.0
  0
LINE
  5
37A
330
17
100
AcDbEntity
  8
0
100
AcDbLine
 10
-17.01894220129693
 20
114.48573525689217
 30
0.0
 11
-17.061633165369816
 21
114.53269690105553
 31
0.0
  0
LINE
  5
37B
330
17
100
AcDbEntity
  8
0
100
AcDbLine
 10
-17.061633165369816
 20
114.53269690105553
 30
0.0
 11
-17.105063847579668
 21
114.57897530075545
 31
0.0
  0
LINE
  5
37C
330
17
100
AcDbEntity
  8
0
100
AcDbLine
 10
-17.105063847579668
 20
114.57897530075545
 30
0.0
 11
-17.149223314484498
 21
114.62455880565228
 31
0.0
  0
LINE
  5
37D
330
17
100
AcDbEntity
  8
0
100
AcDbLine
 10
-17.149223314484498
 20
114.62455880565228
 30
0.0
 11
-17.194100449174666
 21
114.66943594034245
 31
0.0
  0
LINE
  5
37E
330
17
100
AcDbEntity
  8
0
100
AcDbLine
 10
-17.194100449174666
 20
114.66943594034245
 30
0.0
 11
-17.239683954071502
 21
114.71359540724728
 31
0.0
  0
LINE
  5
37F
330
17
100
AcDbEntity
  8
0
100
AcDbLine
 10
-17.239683954071502
 20
114.71359540724728
 30
0.0
 11
-17.28596235377142
 21
114.75702608945713
 31
0.0
  0
LINE
  5
380
330
17
100
AcDbEntity
  8
0
100
AcDbLine
 10
-17.28596235377142
 20
114.75702608945713
 30
0.0
 11
-17.332923997934785
 21
114.79971705353002
 31
0.0
  0
LINE
  5
381
330
17
100
AcDbEntity
  8
0
100
AcDbLine
 10
-17.332923997934785
 20
114.79971705353002
 30
0.0
 11
-17.38055706421881
 21
114.84165755224403
 31
0.0
  0
LINE
  5
382
330
17
100
AcDbEntity
  8
0
100
AcDbLine
 10
-17.38055706421881
 20
114.84165755224403
 30
0.0
 11
-17.42884956125379
 21
114.88283702730291
 31
0.0
  0
LINE
  5
383
330
17
100
AcDbEntity
  8
0
100
AcDbLine
 10
-17.42884956125379
 20
114.88283702730291
 30
0.0
 11
-17.47778933166186
 21
114.92324511199402
 31
0.0
  0
LINE
  5
384
330
17
100
AcDbEntity
  8
0
100
AcDbLine
 10
-17.47778933166186
 20
114.92324511199402
 30
0.0
 11
-17.52736405511753
 21
114.96287163379814
 31
0.0
  0
LINE
  5
385
330
17
100
AcDbEntity
  8
0
100
AcDbLine
 10
-17.52736405511753
 20
114.96287163379814
 30
0.0
 11
-17.577561251449282
 21
115.00170661695033
 31
0.0
  0
LINE
  5
386
330
17
100
AcDbEntity
  8
0
100
AcDbLine
 10
-17.577561251449282
 20
115.00170661695033
 30
0.0
 11
-17.628368283781388
 21
115.03974028495124
 31
0.0
  0
LINE
  5
387
330
17
100
AcDbEntity
  8
0
100
AcDbLine
 10
-17.628368283781388
 20
115.03974028495124
 30
0.0
 11
-17.67977236171516
 21
115.07696306302834
 31
0.0
  0
LINE
  5
388
330
17
100
AcDbEntity
  8
0
100
AcDbLine
 10
-17.67977236171516
 20
115.07696306302834
 30
0.0
 11
-17.731760544548866
 21
115.11336558054633
 31
0.0
  0
LINE
  5
389
330
17
100
AcDbEntity
  8
0
100
AcDbLine
 10
-17.731760544548866
 20
115.11336558054633
 30
0.0
 11
-17.78431974453551
 21
115.14893867336608
 31
0.0
  0
LINE
  5
38A
330
17
100
AcDbEntity
  8
0
100
AcDbLine
 10
-17.78431974453551
 20
115.14893867336608
 30
0.0
 11
-17.837436730177558
 21
115.18367338615172
 31
0.0
  0
LINE
  5
38B
330
17
100
AcDbEntity
  8
0
100
AcDbLine
 10
-17.837436730177558
 20
115.18367338615172
 30
0.0
 11
-17.89109812955794
 21
115.21756097462506
 31
0.0
  0
LINE
  5
38C
330
17
100
AcDbEntity
  8
0
100
AcDbLine
 10
-17.89109812955794
 20
115.21756097462506
 30
0.0
 11
-17.945290433706326
 21
115.2505929077669
 31
0.0
  0
LINE
  5
38D
330
17
100
AcDbEntity
  8
0
100
AcDbLine
 10
-17.945290433706326
 20
115.2505929077669
 30
0.0
 11
-17.99999999999995
 21
115.28276086996475
 31
0.0
  0
LINE
  5
38E
330
17
100
AcDbEntity
  8
0
100
AcDbLine
 10
-17.99999999999995
 20
115.28276086996475
 30
0.0
 11
-18.055213055598074
 21
115.31405676310614
 31
0.0
  0
LINE
  5
38F
330
17
100
AcDbEntity
  8
0
100
AcDbLine
 10
-18.055213055598074
 20
115.31405676310614
 30
0.0
 11
-18.11091570090922
 21
115.34447270861733
 31
0.0
  0
LINE
  5
390
330
17
100
AcDbEntity
  8
0
100
AcDbLine
 10
-18.11091570090922
 20
115.34447270861733
 30
0.0
 11
-18.16709391309031
 21
115.37400104944669
 31
0.0
  0
LINE
  5
391
330
17
100
AcDbEntity
  8
0
100
AcDbLine
 10
-18.16709391309031
 20
115.37400104944669
 30
0.0
 11
-18.223733549576853
 21
115.40263435199233
 31
0.0
  0
LINE
  5
392
330
17
100
AcDbEntity
  8
0
100
AcDbLine
 10
-18.223733549576853
 20
115.40263435199233
 30
0.0
 11
-18.280820351643264
 21
115.43036540797348
 31
0.0
  0
LINE
  5
393
330
17
100
AcDbEntity
  8
0
100
AcDbLine
 10
-18.280820351643264
 20
115.43036540797348
 30
0.0
 11
-18.338339947992406
 21
115.45718723624508
 31
0.0
  0
LINE
  5
394
330
17
100
AcDbEntity
  8
0
100
AcDbLine
 10
-18.338339947992406
 20
115.45718723624508
 30
0.0
 11
-18.396277858373494
 21
115.48309308455528
 31
0.0
  0
LINE
  5
395
330
17
100
AcDbEntity
  8
0
100
AcDbLine
 10
-18.396277858373494
 20
115.48309308455528
 30
0.0
 11
-18.454619497227437
 21
115.50807643124533
 31
0.0
  0
LINE
  5
396
330
17
100
AcDbEntity
  8
0
100
AcDbLine
 10
-18.454619497227437
 20
115.50807643124533
 30
0.0
 11
-18.51335017735864
 21
115.53213098689129
 31
0.0
  0
LINE
  5
397
330
17
100
AcDbEntity
  8
0
100
AcDbLine
 10
-18.51335017735864
 20
115.53213098689129
 30
0.0
 11
-18.57245511363246
 21
115.55525069588742
 31
0.0
  0
LINE
  5
398
330
17
100
AcDbEntity
  8
0
100
AcDbLine
 10
-18.57245511363246
 20
115.55525069588742
 30
0.0
 11
-18.631919426697273
 21
115.57742973797063
 31
0.0
  0
LINE
  5
399
330
17
100
AcDbEntity
  8
0
100
AcDbLine
 10
-18.631919426697273
 20
115.57742973797063
 30
0.0
 11
-18.691728146730263
 21
115.59866252968567
 31
0.0
  0
LINE
  5
39A
330
17
100
AcDbEntity
  8
0
100
AcDbLine
 10
-18.691728146730263
 20
115.59866252968567
 30
0.0
 11
-18.751866217206004
 21
115.61894372579079
 31
0.0
  0
LINE
  5
39B
330
17
100
AcDbEntity
  8
0
100
AcDbLine
 10
-18.751866217206004
 20
115.61894372579079
 30
0.0
 11
-18.81231849868685
 21
115.6382682206033
 31
0.0
  0
LINE
  5
39C
330
17
100
AcDbEntity
  8
0
100
AcDbLine
 10
-18.81231849868685
 20
115.6382682206033
 30
0.0
 11
-18.87306977263423
 21
115.65663114928499
 31
0.0
  0
LINE
  5
39D
330
17
100
AcDbEntity
  8
0
100
AcDbLine
 10
-18.87306977263423
 20
115.65663114928499
 30
0.0
 11
-18.93410474523981
 21
115.67402788906676
 31
0.0
  0
LINE
  5
39E
330
17
100
AcDbEntity
  8
0
100
AcDbLine
 10
-18.93410474523981
 20
115.67402788906676
 30
0.0
 11
-18.995408051275632
 21
115.69045406041242
 31
0.0
  0
LINE
  5
39F
330
17
100
AcDbEntity
  8
0
100
AcDbLine
 10
-18.995408051275632
 20
115.69045406041242
 30
0.0
 11
-19.056964257962242
 21
115.70590552812116
 31
0.0
  0
LINE
  5
3A0
330
17
100
AcDbEntity
  8
0
100
AcDbLine
 10
-19.056964257962242
 20
115.70590552812116
 30
0.0
 11
-19.118757868853788
 21
115.72037840236862
 31
0.0
  0
LINE
  5
3A1
330
17
100
AcDbEntity
  8
0
100
AcDbLine
 10
-19.118757868853788
 20
115.72037840236862
 30
0.0
 11
-19.18077332773919
 21
115.73386903968611
 31
0.0
  0
LINE
  5
3A2
330
17
100
AcDbEntity
  8
0
100
AcDbLine
 10
-19.18077332773919
 20
115.73386903968611
 30
0.0
 11
-19.242995022558308
 21
115.74637404387782
 31
0.0
  0
LINE
  5
3A3
330
17
100
AcDbEntity
  8
0
100
AcDbLine
 10
-19.242995022558308
 20
115.74637404387782
 30
0.0
 11
-19.30540728933223
 21
115.75789026687583
 31
0.0
  0
LINE
  5
3A4
330
17
100
AcDbEntity
  8
0
100
AcDbLine
 10
-19.30540728933223
 20
115.75789026687583
 30
0.0
 11
-19.367994416106548
 21
115.76841480953257
 31
0.0
  0
LINE
  5
3A5
330
17
100
AcDbEntity
  8
0
100
AcDbLine
 10
-19.367994416106548
 20
115.76841480953257
 30
0.0
 11
-19.43074064690681
 21
115.77794502235072
 31
0.0
  0
LINE
  5
3A6
330
17
100
AcDbEntity
  8
0
100
AcDbLine
 10
-19.43074064690681
 20
115.77794502235072
 30
0.0
 11
-19.49363018570495
 21
115.78647850615017
 31
0.0
  0
LINE
  5
3A7
330
17
100
AcDbEntity
  8
0
100
AcDbLine
 10
-19.49363018570495
 20
115.78647850615017
 30
0.0
 11
-19.556647200395904
 21
115.79401311267202
 31
0.0
  0
LINE
  5
3A8
330
17
100
AcDbEntity
  8
0
100
AcDbLine
 10
-19.556647200395904
 20
115.79401311267202
 30
0.0
 11
-19.619775826783222
 21
115.80054694511934
 31
0.0
  0
LINE
  5
3A9
330
17
100
AcDbEntity
  8
0
100
AcDbLine
 10
-19.619775826783222
 20
115.80054694511934
 30
0.0
 11
-19.683000172572797
 21
115.80607835863476
 31
0.0
  0
LINE
  5
3AA
330
17
100
AcDbEntity
  8
0
100
AcDbLine
 10
-19.683000172572797
 20
115.80607835863476
 30
0.0
 11
-19.746304321373692
 21
115.81060596071454
 31
0.0
  0
LINE
  5
3AB
330
17
100
AcDbEntity
  8
0
100
AcDbLine
 10
-19.746304321373692
 20
115.81060596071454
 30
0.0
 11
-19.80967233670498
 21
115.81412861155903
 31
0.0
  0
LINE
  5
3AC
330
17
100
AcDbEntity
  8
0
100
AcDbLine
 10
-19.80967233670498
 20
115.81412861155903
 30
0.0
 11
-19.87308826600768
 21
115.81664542435973
 31
0.0
  0
LINE
  5
3AD
330
17
100
AcDbEntity
  8
0
100
AcDbLine
 10
-19.87308826600768
 20
115.81664542435973
 30
0.0
 11
-19.936536144660717
 21
115.81815576552249
 31
0.0
  0
LINE
  5
3AE
330
17
100
AcDbEntity
  8
0
100
AcDbLine
 10
-19.936536144660717
 20
115.81815576552249
 30
0.0
 11
-19.99999999999995
 21
115.818659254827
 31
0.0
  0
ENDSEC
  0
SECTION
  2
OBJECTS
  0
DICTIONARY
  5
A
330
0
100
AcDbDictionary
280
0
281
1
  3
ACAD_COLOR
350
B
  3
ACAD_GROUP
350
C
  3
ACAD_LAYOUT
350
D
  3
ACAD_MATERIAL
350
E
  3
ACAD_MLEADERSTYLE
350
F
  3
ACAD_MLINESTYLE
350
10
  3
ACAD_PLOTSETTINGS
350
11
  3
ACAD_PLOTSTYLENAME
350
12
  3
ACAD_SCALELIST
350
14
  3
ACAD_TABLESTYLE
350
15
  3
ACAD_VISUALSTYLE
350
16
  3
EZDXF_META
350
2D
  0
DICTIONARY
  5
B
330
A
100
AcDbDictionary
280
0
281
1
  0
DICTIONARY
  5
C
330
A
100
AcDbDictionary
280
0
281
1
  0
DICTIONARY
  5
D
330
A
100
AcDbDictionary
280
0
281
1
  3
Model
350
1A
  3
Layout1
350
1E
  0
DICTIONARY
  5
E
330
A
100
AcDbDictionary
280
0
281
1
  3
ByBlock
350
1F
  3
ByLayer
350
20
  3
Global
350
21
  0
DICTIONARY
  5
F
330
A
100
AcDbDictionary
280
0
281
1
  3
Standard
350
2C
  0
DICTIONARY
  5
10
330
A
100
AcDbDictionary
280
0
281
1
  3
Standard
350
22
  0
DICTIONARY
  5
11
330
A
100
AcDbDictionary
280
0
281
1
  0
ACDBDICTIONARYWDFLT
  5
12
330
A
100
AcDbDictionary
280
0
281
1
  3
Normal
350
13
100
AcDbDictionaryWithDefault
340
13
  0
ACDBPLACEHOLDER
  5
13
330
12
  0
DICTIONARY
  5
14
330
A
100
AcDbDictionary
280
0
281
1
  0
DICTIONARY
  5
15
330
A
100
AcDbDictionary
280
0
281
1
  0
DICTIONARY
  5
16
330
A
100
AcDbDictionary
280
0
281
1
  0
LAYOUT
  5
1A
330
D
100
AcDbPlotSettings
  1

  2
Adobe PDF
  4
A3
  6

 40
7.5
 41
20.0
 42
7.5
 43
20.0
 44
420.0
 45
297.0
 46
0.0
 47
0.0
 48
0.0
 49
0.0
140
0.0
141
0.0
142
1.0
143
1.0
 70
1024
 72
1
 73
0
 74
5
  7

 75
16
 76
0
 77
2
 78
300
147
1.0
148
0.0
149
0.0
100
AcDbLayout
  1
Model
 70
1
 71
0
 10
0.0
 20
0.0
 11
420.0
 21
297.0
 12
0.0
 22
0.0
 32
0.0
 14
1e+20
 24
1e+20
 34
1e+20
 15
-1e+20
 25
-1e+20
 35
-1e+20
146
0.0
 13
0.0
 23
0.0
 33
0.0
 16
1.0
 26
0.0
 36
0.0
 17
0.0
 27
1.0
 37
0.0
 76
1
330
17
  0
LAYOUT
  5
1E
330
D
100
AcDbPlotSettings
  1

  2
Adobe PDF
  4
A3
  6

 40
7.5
 41
20.0
 42
7.5
 43
20.0
 44
420.0
 45
297.0
 46
0.0
 47
0.0
 48
0.0
 49
0.0
140
0.0
141
0.0
142
1.0
143
1.0
 70
0
 72
1
 73
0
 74
5
  7

 75
16
 76
0
 77
2
 78
300
147
1.0
148
0.0
149
0.0
100
AcDbLayout
  1
Layout1
 70
1
 71
1
 10
0.0
 20
0.0
 11
420.0
 21
297.0
 12
0.0
 22
0.0
 32
0.0
 14
1e+20
 24
1e+20
 34
1e+20
 15
-1e+20
 25
-1e+20
 35
-1e+20
146
0.0
 13
0.0
 23
0.0
 33
0.0
 16
1.0
 26
0.0
 36
0.0
 17
0.0
 27
1.0
 37
0.0
 76
1
330
1B
  0
MATERIAL
  5
1F
102
{ACAD_REACTORS
330
E
102
}
330
E
100
AcDbMaterial
  1
ByBlock
  2

 70
0
 40
1.0
 71
1
 41
1.0
 91
-1023410177
 42
1.0
 72
1
  3

 73
1
 74
1
 75
1
 44
0.5
 73
0
 45
1.0
 46
1.0
 77
1
  4

 78
1
 79
1
170
1
 48
1.0
171
1
  6

172
1
173
1
174
1
140
1.0
141
1.0
175
1
  7

176
1
177
1
178
1
143
1.0
179
1
  8

270
1
271
1
272
1
145
1.0
146
1.0
273
1
  9

274
1
275
1
276
1
 42
1.0
 72
1
  3

 73
1
 74
1
 75
1
 94
63
  0
MATERIAL
  5
20
102
{ACAD_REACTORS
330
E
102
}
330
E
100
AcDbMaterial
  1
ByLayer
  2

 70
0
 40
1.0
 71
1
 41
1.0
 91
-1023410177
 42
1.0
 72
1
  3

 73
1
 74
1
 75
1
 44
0.5
 73
0
 45
1.0
 46
1.0
 77
1
  4

 78
1
 79
1
170
1
 48
1.0
171
1
  6

172
1
173
1
174
1
140
1.0
141
1.0
175
1
  7

176
1
177
1
178
1
143
1.0
179
1
  8

270
1
271
1
272
1
145
1.0
146
1.0
273
1
  9

274
1
275
1
276
1
 42
1.0
 72
1
  3

 73
1
 74
1
 75
1
 94
63
  0
MATERIAL
  5
21
102
{ACAD_REACTORS
330
E
102
}
330
E
100
AcDbMaterial
  1
Global
  2

 70
0
 40
1.0
 71
1
 41
1.0
 91
-1023410177
 42
1.0
 72
1
  3

 73
1
 74
1
 75
1
 44
0.5
 73
0
 45
1.0
 46
1.0
 77
1
  4

 78
1
 79
1
170
1
 48
1.0
171
1
  6

172
1
173
1
174
1
140
1.0
141
1.0
175
1
  7

176
1
177
1
178
1
143
1.0
179
1
  8

270
1
271
1
272
1
145
1.0
146
1.0
273
1
  9

274
1
275
1
276
1
 42
1.0
 72
1
  3

 73
1
 74
1
 75
1
 94
63
  0
MLINESTYLE
  5
22
102
{ACAD_REACTORS
330
10
102
}
330
10
100
AcDbMlineStyle
  2
Standard
 70
0
  3

 62
256
 51
90.0
 52
90.0
 71
2
 49
0.5
 62
256
  6
BYLAYER
 49
-0.5
 62
256
  6
BYLAYER
  0
MLEADERSTYLE
  5
2C
102
{ACAD_REACTORS
330
F
102
}
330
F
100
AcDbMLeaderStyle
179
2
170
2
171
1
172
0
 90
2
 40
0.0
 41
0.0
173
1
 91
-1056964608
 92
-2
290
1
 42
2.0
291
1
 43
8.0
  3
Standard
 44
4.0
300

342
29
174
1
175
1
176
0
178
1
 93
-1056964608
 45
4.0
292
0
297
0
 46
4.0
 94
-1056964608
 47
1.0
 49
1.0
140
1.0
294
1
141
0.0
177
0
142
1.0
295
0
296
0
143
3.75
271
0
272
9
273
9
  0
DICTIONARY
  5
2D
330
A
100
AcDbDictionary
281
1
  3
CREATED_BY_EZDXF
350
2E
  3
WRITTEN_BY_EZDXF
350
3B1
  0
DICTIONARYVAR
  5
2E
330
2D
100
DictionaryVariables
280
0
  1
1.0.2 @ 2023-11-27T08:45:38.321869+00:00
  0
DICTIONARYVAR
  5
3B1
330
2D
100
DictionaryVariables
280
0
  1
1.0.2 @ 2023-11-27T08:45:38.346859+00:00
  0
ENDSEC
  0
EOF
