  0
SECTION
  2
HEADER
  9
$ACADVER
  1
AC1027
  9
$ACADMAINTVER
 70
105
  9
$DWGCODEPAGE
  3
ANSI_1252
  9
$LASTSAVEDBY
  1
ezdxf
  9
$REQUIREDVERSIONS
160
0
  9
$INSBASE
 10
0.0
 20
0.0
 30
0.0
  9
$EXTMIN
 10
1e+20
 20
1e+20
 30
1e+20
  9
$EXTMAX
 10
-1e+20
 20
-1e+20
 30
-1e+20
  9
$LIMMIN
 10
0.0
 20
0.0
  9
$LIMMAX
 10
420.0
 20
297.0
  9
$ORTHOMODE
 70
0
  9
$REGENMODE
 70
1
  9
$FILLMODE
 70
1
  9
$QTEXTMODE
 70
0
  9
$MIRRTEXT
 70
1
  9
$LTSCALE
 40
1.0
  9
$ATTMODE
 70
1
  9
$TEXTSIZE
 40
2.5
  9
$TRACEWID
 40
1.0
  9
$TEXTSTYLE
  7
Standard
  9
$CLAYER
  8
0
  9
$CELTYPE
  6
ByLayer
  9
$CECOLOR
 62
256
  9
$CELTSCALE
 40
1.0
  9
$DISPSILH
 70
0
  9
$DIMSCALE
 40
1.0
  9
$DIMASZ
 40
2.5
  9
$DIMEXO
 40
0.625
  9
$DIMDLI
 40
3.75
  9
$DIMRND
 40
0.0
  9
$DIMDLE
 40
0.0
  9
$DIMEXE
 40
1.25
  9
$DIMTP
 40
0.0
  9
$DIMTM
 40
0.0
  9
$DIMTXT
 40
2.5
  9
$DIMCEN
 40
2.5
  9
$DIMTSZ
 40
0.0
  9
$DIMTOL
 70
0
  9
$DIMLIM
 70
0
  9
$DIMTIH
 70
0
  9
$DIMTOH
 70
0
  9
$DIMSE1
 70
0
  9
$DIMSE2
 70
0
  9
$DIMTAD
 70
1
  9
$DIMZIN
 70
8
  9
$DIMBLK
  1

  9
$DIMASO
 70
1
  9
$DIMSHO
 70
1
  9
$DIMPOST
  1

  9
$DIMAPOST
  1

  9
$DIMALT
 70
0
  9
$DIMALTD
 70
3
  9
$DIMALTF
 40
0.03937007874
  9
$DIMLFAC
 40
1.0
  9
$DIMTOFL
 70
1
  9
$DIMTVP
 40
0.0
  9
$DIMTIX
 70
0
  9
$DIMSOXD
 70
0
  9
$DIMSAH
 70
0
  9
$DIMBLK1
  1

  9
$DIMBLK2
  1

  9
$DIMSTYLE
  2
ISO-25
  9
$DIMCLRD
 70
0
  9
$DIMCLRE
 70
0
  9
$DIMCLRT
 70
0
  9
$DIMTFAC
 40
1.0
  9
$DIMGAP
 40
0.625
  9
$DIMJUST
 70
0
  9
$DIMSD1
 70
0
  9
$DIMSD2
 70
0
  9
$DIMTOLJ
 70
0
  9
$DIMTZIN
 70
8
  9
$DIMALTZ
 70
0
  9
$DIMALTTZ
 70
0
  9
$DIMUPT
 70
0
  9
$DIMDEC
 70
2
  9
$DIMTDEC
 70
2
  9
$DIMALTU
 70
2
  9
$DIMALTTD
 70
3
  9
$DIMTXSTY
  7
Standard
  9
$DIMAUNIT
 70
0
  9
$DIMADEC
 70
0
  9
$DIMALTRND
 40
0.0
  9
$DIMAZIN
 70
0
  9
$DIMDSEP
 70
44
  9
$DIMATFIT
 70
3
  9
$DIMFRAC
 70
0
  9
$DIMLDRBLK
  1

  9
$DIMLUNIT
 70
2
  9
$DIMLWD
 70
-2
  9
$DIMLWE
 70
-2
  9
$DIMTMOVE
 70
0
  9
$DIMFXL
 40
1.0
  9
$DIMFXLON
 70
0
  9
$DIMJOGANG
 40
0.785398163397
  9
$DIMTFILL
 70
0
  9
$DIMTFILLCLR
 70
0
  9
$DIMARCSYM
 70
0
  9
$DIMLTYPE
  6

  9
$DIMLTEX1
  6

  9
$DIMLTEX2
  6

  9
$DIMTXTDIRECTION
 70
0
  9
$LUNITS
 70
2
  9
$LUPREC
 70
4
  9
$SKETCHINC
 40
1.0
  9
$FILLETRAD
 40
10.0
  9
$AUNITS
 70
0
  9
$AUPREC
 70
2
  9
$MENU
  1
.
  9
$ELEVATION
 40
0.0
  9
$PELEVATION
 40
0.0
  9
$THICKNESS
 40
0.0
  9
$LIMCHECK
 70
0
  9
$CHAMFERA
 40
0.0
  9
$CHAMFERB
 40
0.0
  9
$CHAMFERC
 40
0.0
  9
$CHAMFERD
 40
0.0
  9
$SKPOLY
 70
0
  9
$TDCREATE
 40
2460276.0316898148
  9
$TDUCREATE
 40
2458532.153996898
  9
$TDUPDATE
 40
2460276.0316898148
  9
$TDUUPDATE
 40
2458532.1544311
  9
$TDINDWG
 40
0.0
  9
$TDUSRTIMER
 40
0.0
  9
$USRTIMER
 70
1
  9
$ANGBASE
 50
0.0
  9
$ANGDIR
 70
0
  9
$PDMODE
 70
0
  9
$PDSIZE
 40
0.0
  9
$PLINEWID
 40
0.0
  9
$SPLFRAME
 70
0
  9
$SPLINETYPE
 70
6
  9
$SPLINESEGS
 70
8
  9
$HANDSEED
  5
3B8
  9
$SURFTAB1
 70
6
  9
$SURFTAB2
 70
6
  9
$SURFTYPE
 70
6
  9
$SURFU
 70
6
  9
$SURFV
 70
6
  9
$UCSBASE
  2

  9
$UCSNAME
  2

  9
$UCSORG
 10
0.0
 20
0.0
 30
0.0
  9
$UCSXDIR
 10
1.0
 20
0.0
 30
0.0
  9
$UCSYDIR
 10
0.0
 20
1.0
 30
0.0
  9
$UCSORTHOREF
  2

  9
$UCSORTHOVIEW
 70
0
  9
$UCSORGTOP
 10
0.0
 20
0.0
 30
0.0
  9
$UCSORGBOTTOM
 10
0.0
 20
0.0
 30
0.0
  9
$UCSORGLEFT
 10
0.0
 20
0.0
 30
0.0
  9
$UCSORGRIGHT
 10
0.0
 20
0.0
 30
0.0
  9
$UCSORGFRONT
 10
0.0
 20
0.0
 30
0.0
  9
$UCSORGBACK
 10
0.0
 20
0.0
 30
0.0
  9
$PUCSBASE
  2

  9
$PUCSNAME
  2

  9
$PUCSORG
 10
0.0
 20
0.0
 30
0.0
  9
$PUCSXDIR
 10
1.0
 20
0.0
 30
0.0
  9
$PUCSYDIR
 10
0.0
 20
1.0
 30
0.0
  9
$PUCSORTHOREF
  2

  9
$PUCSORTHOVIEW
 70
0
  9
$PUCSORGTOP
 10
0.0
 20
0.0
 30
0.0
  9
$PUCSORGBOTTOM
 10
0.0
 20
0.0
 30
0.0
  9
$PUCSORGLEFT
 10
0.0
 20
0.0
 30
0.0
  9
$PUCSORGRIGHT
 10
0.0
 20
0.0
 30
0.0
  9
$PUCSORGFRONT
 10
0.0
 20
0.0
 30
0.0
  9
$PUCSORGBACK
 10
0.0
 20
0.0
 30
0.0
  9
$USERI1
 70
0
  9
$USERI2
 70
0
  9
$USERI3
 70
0
  9
$USERI4
 70
0
  9
$USERI5
 70
0
  9
$USERR1
 40
0.0
  9
$USERR2
 40
0.0
  9
$USERR3
 40
0.0
  9
$USERR4
 40
0.0
  9
$USERR5
 40
0.0
  9
$WORLDVIEW
 70
1
  9
$SHADEDGE
 70
3
  9
$SHADEDIF
 70
70
  9
$TILEMODE
 70
1
  9
$MAXACTVP
 70
64
  9
$PINSBASE
 10
0.0
 20
0.0
 30
0.0
  9
$PLIMCHECK
 70
0
  9
$PEXTMIN
 10
1e+20
 20
1e+20
 30
1e+20
  9
$PEXTMAX
 10
-1e+20
 20
-1e+20
 30
-1e+20
  9
$PLIMMIN
 10
0.0
 20
0.0
  9
$PLIMMAX
 10
420.0
 20
297.0
  9
$UNITMODE
 70
0
  9
$VISRETAIN
 70
1
  9
$PLINEGEN
 70
0
  9
$PSLTSCALE
 70
1
  9
$TREEDEPTH
 70
3020
  9
$CMLSTYLE
  2
Standard
  9
$CMLJUST
 70
0
  9
$CMLSCALE
 40
20.0
  9
$PROXYGRAPHICS
 70
1
  9
$MEASUREMENT
 70
1
  9
$CELWEIGHT
370
-1
  9
$ENDCAPS
280
0
  9
$JOINSTYLE
280
0
  9
$LWDISPLAY
290
0
  9
$INSUNITS
 70
6
  9
$HYPERLINKBASE
  1

  9
$STYLESHEET
  1

  9
$XEDIT
290
1
  9
$CEPSNTYPE
380
0
  9
$PSTYLEMODE
290
1
  9
$FINGERPRINTGUID
  2
{CCF71CFA-6EC8-4EC6-8377-99D3FC3BEDC8}
  9
$VERSIONGUID
  2
{51073DB6-FAE5-425D-BB21-C23CA3B23C87}
  9
$EXTNAMES
290
1
  9
$PSVPSCALE
 40
0.0
  9
$OLESTARTUP
290
0
  9
$SORTENTS
280
127
  9
$INDEXCTL
280
0
  9
$HIDETEXT
280
1
  9
$XCLIPFRAME
280
0
  9
$HALOGAP
280
0
  9
$OBSCOLOR
 70
257
  9
$OBSLTYPE
280
0
  9
$INTERSECTIONDISPLAY
280
0
  9
$INTERSECTIONCOLOR
 70
257
  9
$DIMASSOC
280
2
  9
$PROJECTNAME
  1

  9
$CAMERADISPLAY
290
0
  9
$LENSLENGTH
 40
50.0
  9
$CAMERAHEIGHT
 40
0.0
  9
$STEPSPERSEC
 40
24.0
  9
$STEPSIZE
 40
100.0
  9
$3DDWFPREC
 40
2.0
  9
$PSOLWIDTH
 40
0.005
  9
$PSOLHEIGHT
 40
0.08
  9
$LOFTANG1
 40
1.570796326795
  9
$LOFTANG2
 40
1.570796326795
  9
$LOFTMAG1
 40
0.0
  9
$LOFTMAG2
 40
0.0
  9
$LOFTPARAM
 70
7
  9
$LOFTNORMALS
280
1
  9
$LATITUDE
 40
37.795
  9
$LONGITUDE
 40
-122.394
  9
$NORTHDIRECTION
 40
0.0
  9
$TIMEZONE
 70
-8000
  9
$LIGHTGLYPHDISPLAY
280
1
  9
$TILEMODELIGHTSYNCH
280
1
  9
$CMATERIAL
347
20
  9
$SOLIDHIST
280
0
  9
$SHOWHIST
280
1
  9
$DWFFRAME
280
2
  9
$DGNFRAME
280
2
  9
$REALWORLDSCALE
290
1
  9
$INTERFERECOLOR
 62
256
  9
$CSHADOW
280
0
  9
$SHADOWPLANELOCATION
 40
0.0
  0
ENDSEC
  0
SECTION
  2
CLASSES
  0
CLASS
  1
ACDBDICTIONARYWDFLT
  2
AcDbDictionaryWithDefault
  3
ObjectDBX Classes
 90
0
 91
0
280
0
281
0
  0
CLASS
  1
SUN
  2
AcDbSun
  3
SCENEOE
 90
1153
 91
0
280
0
281
0
  0
CLASS
  1
VISUALSTYLE
  2
AcDbVisualStyle
  3
ObjectDBX Classes
 90
4095
 91
0
280
0
281
0
  0
CLASS
  1
MATERIAL
  2
AcDbMaterial
  3
ObjectDBX Classes
 90
1153
 91
0
280
0
281
0
  0
CLASS
  1
SCALE
  2
AcDbScale
  3
ObjectDBX Classes
 90
1153
 91
0
280
0
281
0
  0
CLASS
  1
TABLESTYLE
  2
AcDbTableStyle
  3
ObjectDBX Classes
 90
4095
 91
0
280
0
281
0
  0
CLASS
  1
MLEADERSTYLE
  2
AcDbMLeaderStyle
  3
ACDB_MLEADERSTYLE_CLASS
 90
4095
 91
0
280
0
281
0
  0
CLASS
  1
DICTIONARYVAR
  2
AcDbDictionaryVar
  3
ObjectDBX Classes
 90
0
 91
0
280
0
281
0
  0
CLASS
  1
CELLSTYLEMAP
  2
AcDbCellStyleMap
  3
ObjectDBX Classes
 90
1152
 91
0
280
0
281
0
  0
CLASS
  1
MENTALRAYRENDERSETTINGS
  2
AcDbMentalRayRenderSettings
  3
SCENEOE
 90
1024
 91
0
280
0
281
0
  0
CLASS
  1
ACDBDETAILVIEWSTYLE
  2
AcDbDetailViewStyle
  3
ObjectDBX Classes
 90
1025
 91
0
280
0
281
0
  0
CLASS
  1
ACDBSECTIONVIEWSTYLE
  2
AcDbSectionViewStyle
  3
ObjectDBX Classes
 90
1025
 91
0
280
0
281
0
  0
CLASS
  1
RASTERVARIABLES
  2
AcDbRasterVariables
  3
ISM
 90
0
 91
0
280
0
281
0
  0
CLASS
  1
ACDBPLACEHOLDER
  2
AcDbPlaceHolder
  3
ObjectDBX Classes
 90
0
 91
0
280
0
281
0
  0
CLASS
  1
LAYOUT
  2
AcDbLayout
  3
ObjectDBX Classes
 90
0
 91
0
280
0
281
0
  0
ENDSEC
  0
SECTION
  2
TABLES
  0
TABLE
  2
VPORT
  5
8
330
0
100
AcDbSymbolTable
 70
1
  0
VPORT
  5
23
330
8
100
AcDbSymbolTableRecord
100
AcDbViewportTableRecord
  2
*Active
 70
0
 10
0.0
 20
0.0
 11
1.0
 21
1.0
 12
0.0
 22
0.0
 13
0.0
 23
0.0
 14
0.5
 24
0.5
 15
0.5
 25
0.5
 16
0.0
 26
0.0
 36
1.0
 17
0.0
 27
0.0
 37
0.0
 40
1000.0
 41
1.34
 42
50.0
 43
0.0
 44
0.0
 50
0.0
 51
0.0
 71
0
 72
1000
 73
1
 74
3
 75
0
 76
0
 77
0
 78
0
281
0
 65
0
146
0.0
  0
ENDTAB
  0
TABLE
  2
LTYPE
  5
2
330
0
100
AcDbSymbolTable
 70
3
  0
LTYPE
  5
24
330
2
100
AcDbSymbolTableRecord
100
AcDbLinetypeTableRecord
  2
ByBlock
 70
0
  3

 72
65
 73
0
 40
0.0
  0
LTYPE
  5
25
330
2
100
AcDbSymbolTableRecord
100
AcDbLinetypeTableRecord
  2
ByLayer
 70
0
  3

 72
65
 73
0
 40
0.0
  0
LTYPE
  5
26
330
2
100
AcDbSymbolTableRecord
100
AcDbLinetypeTableRecord
  2
Continuous
 70
0
  3

 72
65
 73
0
 40
0.0
  0
ENDTAB
  0
TABLE
  2
LAYER
  5
1
330
0
100
AcDbSymbolTable
 70
2
  0
LAYER
  5
27
330
1
100
AcDbSymbolTableRecord
100
AcDbLayerTableRecord
  2
0
 70
0
 62
7
  6
Continuous
370
-3
390
13
347
21
  0
LAYER
  5
28
330
1
100
AcDbSymbolTableRecord
100
AcDbLayerTableRecord
  2
Defpoints
 70
0
 62
7
  6
Continuous
290
0
370
-3
390
13
347
21
  0
ENDTAB
  0
TABLE
  2
STYLE
  5
5
330
0
100
AcDbSymbolTable
 70
1
  0
STYLE
  5
29
330
5
100
AcDbSymbolTableRecord
100
AcDbTextStyleTableRecord
  2
Standard
 70
0
 40
0.0
 41
1.0
 50
0.0
 71
0
 42
2.5
  3
txt
  4

  0
ENDTAB
  0
TABLE
  2
VIEW
  5
7
330
0
100
AcDbSymbolTable
 70
0
  0
ENDTAB
  0
TABLE
  2
UCS
  5
6
330
0
100
AcDbSymbolTable
 70
0
  0
ENDTAB
  0
TABLE
  2
APPID
  5
3
330
0
100
AcDbSymbolTable
 70
3
  0
APPID
  5
2A
330
3
100
AcDbSymbolTableRecord
100
AcDbRegAppTableRecord
  2
ACAD
 70
0
  0
APPID
  5
3B5
330
3
100
AcDbSymbolTableRecord
100
AcDbRegAppTableRecord
  2
HATCHBACKGROUNDCOLOR
 70
0
  0
APPID
  5
3B6
330
3
100
AcDbSymbolTableRecord
100
AcDbRegAppTableRecord
  2
EZDXF
 70
0
  0
ENDTAB
  0
TABLE
  2
DIMSTYLE
  5
4
330
0
100
AcDbSymbolTable
 70
1
100
AcDbDimStyleTable
  0
DIMSTYLE
105
2B
330
4
100
AcDbSymbolTableRecord
100
AcDbDimStyleTableRecord
  2
Standard
 70
0
 40
1.0
 41
2.5
 42
0.625
 43
3.75
 44
1.25
 45
0.0
 46
0.0
 47
0.0
 48
0.0
 49
2.5
140
2.5
141
2.5
142
0.0
143
0.03937007874
144
1.0
145
0.0
146
1.0
147
0.625
148
0.0
 69
0
 70
0
 71
0
 72
0
 73
0
 74
0
 75
0
 76
0
 77
1
 78
8
 79
3
170
0
171
3
172
1
173
0
174
0
175
0
176
0
177
0
178
0
179
2
271
2
272
2
273
2
274
3
275
0
276
0
277
2
278
44
279
0
280
0
281
0
282
0
283
0
284
8
285
0
286
0
288
0
289
3
290
0
371
-2
372
-2
  0
ENDTAB
  0
TABLE
  2
BLOCK_RECORD
  5
9
330
0
100
AcDbSymbolTable
 70
2
  0
BLOCK_RECORD
  5
17
330
9
100
AcDbSymbolTableRecord
100
AcDbBlockTableRecord
  2
*Model_Space
340
1A
 70
0
280
1
281
0
  0
BLOCK_RECORD
  5
1B
330
9
100
AcDbSymbolTableRecord
100
AcDbBlockTableRecord
  2
*Paper_Space
340
1E
 70
0
280
1
281
0
  0
ENDTAB
  0
ENDSEC
  0
SECTION
  2
BLOCKS
  0
BLOCK
  5
18
330
17
100
AcDbEntity
  8
0
100
AcDbBlockBegin
  2
*Model_Space
 70
0
 10
0.0
 20
0.0
 30
0.0
  3
*Model_Space
  1

  0
ENDBLK
  5
19
330
17
100
AcDbEntity
  8
0
100
AcDbBlockEnd
  0
BLOCK
  5
1C
330
1B
100
AcDbEntity
  8
0
100
AcDbBlockBegin
  2
*Paper_Space
 70
0
 10
0.0
 20
0.0
 30
0.0
  3
*Paper_Space
  1

  0
ENDBLK
  5
1D
330
1B
100
AcDbEntity
  8
0
100
AcDbBlockEnd
  0
ENDSEC
  0
SECTION
  2
ENTITIES
  0
LINE
  5
2F
330
17
100
AcDbEntity
  8
0
100
AcDbLine
 10
-61.34402019973783
 20
-42.447093180125904
 30
0.0
 11
-60.99189318243623
 21
-42.81043006990275
 31
0.0
  0
LINE
  5
30
330
17
100
AcDbEntity
  8
0
100
AcDbLine
 10
-60.99189318243623
 20
-42.81043006990275
 30
0.0
 11
-60.63874623451562
 21
-43.172775712846956
 31
0.0
  0
LINE
  5
31
330
17
100
AcDbEntity
  8
0
100
AcDbLine
 10
-60.63874623451562
 20
-43.172775712846956
 30
0.0
 11
-60.28458214635043
 21
-43.534127245901075
 31
0.0
  0
LINE
  5
32
330
17
100
AcDbEntity
  8
0
100
AcDbLine
 10
-60.28458214635043
 20
-43.534127245901075
 30
0.0
 11
-59.9294037163522
 21
-43.8944818138622
 31
0.0
  0
LINE
  5
33
330
17
100
AcDbEntity
  8
0
100
AcDbLine
 10
-59.9294037163522
 20
-43.8944818138622
 30
0.0
 11
-59.57321375094739
 21
-44.25383656940497
 31
0.0
  0
LINE
  5
34
330
17
100
AcDbEntity
  8
0
100
AcDbLine
 10
-59.57321375094739
 20
-44.25383656940497
 30
0.0
 11
-59.21601506455458
 21
-44.61218867310426
 31
0.0
  0
LINE
  5
35
330
17
100
AcDbEntity
  8
0
100
AcDbLine
 10
-59.21601506455458
 20
-44.61218867310426
 30
0.0
 11
-58.85781047956317
 21
-44.96953529345703
 31
0.0
  0
LINE
  5
36
330
17
100
AcDbEntity
  8
0
100
AcDbLine
 10
-58.85781047956317
 20
-44.96953529345703
 30
0.0
 11
-58.49860282631052
 21
-45.325873606905105
 31
0.0
  0
LINE
  5
37
330
17
100
AcDbEntity
  8
0
100
AcDbLine
 10
-58.49860282631052
 20
-45.325873606905105
 30
0.0
 11
-58.138394943059424
 21
-45.68120079785764
 31
0.0
  0
LINE
  5
38
330
17
100
AcDbEntity
  8
0
100
AcDbLine
 10
-58.138394943059424
 20
-45.68120079785764
 30
0.0
 11
-57.77718967597626
 21
-46.03551405871282
 31
0.0
  0
LINE
  5
39
330
17
100
AcDbEntity
  8
0
100
AcDbLine
 10
-57.77718967597626
 20
-46.03551405871282
 30
0.0
 11
-57.41498987910819
 21
-46.38881058988035
 31
0.0
  0
LINE
  5
3A
330
17
100
AcDbEntity
  8
0
100
AcDbLine
 10
-57.41498987910819
 20
-46.38881058988035
 30
0.0
 11
-57.05179841436028
 21
-46.74108759980395
 31
0.0
  0
LINE
  5
3B
330
17
100
AcDbEntity
  8
0
100
AcDbLine
 10
-57.05179841436028
 20
-46.74108759980395
 30
0.0
 11
-56.687618151473515
 21
-47.09234230498264
 31
0.0
  0
LINE
  5
3C
330
17
100
AcDbEntity
  8
0
100
AcDbLine
 10
-56.687618151473515
 20
-47.09234230498264
 30
0.0
 11
-56.322451968001886
 21
-47.442571929993235
 31
0.0
  0
LINE
  5
3D
330
17
100
AcDbEntity
  8
0
100
AcDbLine
 10
-56.322451968001886
 20
-47.442571929993235
 30
0.0
 11
-55.95630274928921
 21
-47.79177370751238
 31
0.0
  0
LINE
  5
3E
330
17
100
AcDbEntity
  8
0
100
AcDbLine
 10
-55.95630274928921
 20
-47.79177370751238
 30
0.0
 11
-55.58917338844702
 21
-48.13994487833797
 31
0.0
  0
LINE
  5
3F
330
17
100
AcDbEntity
  8
0
100
AcDbLine
 10
-55.58917338844702
 20
-48.13994487833797
 30
0.0
 11
-55.22106678633149
 21
-48.487082691411146
 31
0.0
  0
LINE
  5
40
330
17
100
AcDbEntity
  8
0
100
AcDbLine
 10
-55.22106678633149
 20
-48.487082691411146
 30
0.0
 11
-54.85198585152001
 21
-48.83318440383847
 31
0.0
  0
LINE
  5
41
330
17
100
AcDbEntity
  8
0
100
AcDbLine
 10
-54.85198585152001
 20
-48.83318440383847
 30
0.0
 11
-54.481933500288974
 21
-49.17824728091283
 31
0.0
  0
LINE
  5
42
330
17
100
AcDbEntity
  8
0
100
AcDbLine
 10
-54.481933500288974
 20
-49.17824728091283
 30
0.0
 11
-54.11091265659037
 21
-49.52226859613539
 31
0.0
  0
LINE
  5
43
330
17
100
AcDbEntity
  8
0
100
AcDbLine
 10
-54.11091265659037
 20
-49.52226859613539
 30
0.0
 11
-53.738926252028364
 21
-49.865245631237556
 31
0.0
  0
LINE
  5
44
330
17
100
AcDbEntity
  8
0
100
AcDbLine
 10
-53.738926252028364
 20
-49.865245631237556
 30
0.0
 11
-53.3659772258368
 21
-50.20717567620174
 31
0.0
  0
LINE
  5
45
330
17
100
AcDbEntity
  8
0
100
AcDbLine
 10
-53.3659772258368
 20
-50.20717567620174
 30
0.0
 11
-52.99206852485561
 21
-50.548056029283046
 31
0.0
  0
LINE
  5
46
330
17
100
AcDbEntity
  8
0
100
AcDbLine
 10
-52.99206852485561
 20
-50.548056029283046
 30
0.0
 11
-52.61720310350721
 21
-50.88788399703104
 31
0.0
  0
LINE
  5
47
330
17
100
AcDbEntity
  8
0
100
AcDbLine
 10
-52.61720310350721
 20
-50.88788399703104
 30
0.0
 11
-52.24138392377385
 21
-51.226656894310324
 31
0.0
  0
LINE
  5
48
330
17
100
AcDbEntity
  8
0
100
AcDbLine
 10
-52.24138392377385
 20
-51.226656894310324
 30
0.0
 11
-51.86461395517391
 21
-51.56437204432213
 31
0.0
  0
LINE
  5
49
330
17
100
AcDbEntity
  8
0
100
AcDbLine
 10
-51.86461395517391
 20
-51.56437204432213
 30
0.0
 11
-51.48689617473795
 21
-51.90102677862565
 31
0.0
  0
LINE
  5
4A
330
17
100
AcDbEntity
  8
0
100
AcDbLine
 10
-51.48689617473795
 20
-51.90102677862565
 30
0.0
 11
-51.108233566986044
 21
-52.2366184371587
 31
0.0
  0
LINE
  5
4B
330
17
100
AcDbEntity
  8
0
100
AcDbLine
 10
-51.108233566986044
 20
-52.2366184371587
 30
0.0
 11
-50.728629123903715
 21
-52.57114436825886
 31
0.0
  0
LINE
  5
4C
330
17
100
AcDbEntity
  8
0
100
AcDbLine
 10
-50.728629123903715
 20
-52.57114436825886
 30
0.0
 11
-50.348085844918046
 21
-52.9046019286849
 31
0.0
  0
LINE
  5
4D
330
17
100
AcDbEntity
  8
0
100
AcDbLine
 10
-50.348085844918046
 20
-52.9046019286849
 30
0.0
 11
-49.966606736874596
 21
-53.236988483636864
 31
0.0
  0
LINE
  5
4E
330
17
100
AcDbEntity
  8
0
100
AcDbLine
 10
-49.966606736874596
 20
-53.236988483636864
 30
0.0
 11
-49.58419481401343
 21
-53.568301406777366
 31
0.0
  0
LINE
  5
4F
330
17
100
AcDbEntity
  8
0
100
AcDbLine
 10
-49.58419481401343
 20
-53.568301406777366
 30
0.0
 11
-49.20085309794476
 21
-53.89853808025258
 31
0.0
  0
LINE
  5
50
330
17
100
AcDbEntity
  8
0
100
AcDbLine
 10
-49.20085309794476
 20
-53.89853808025258
 30
0.0
 11
-48.81658461762591
 21
-54.227695894712255
 31
0.0
  0
LINE
  5
51
330
17
100
AcDbEntity
  8
0
100
AcDbLine
 10
-48.81658461762591
 20
-54.227695894712255
 30
0.0
 11
-48.431392409336965
 21
-54.555772249330786
 31
0.0
  0
LINE
  5
52
330
17
100
AcDbEntity
  8
0
100
AcDbLine
 10
-48.431392409336965
 20
-54.555772249330786
 30
0.0
 11
-48.04527951665648
 21
-54.88276455182786
 31
0.0
  0
LINE
  5
53
330
17
100
AcDbEntity
  8
0
100
AcDbLine
 10
-48.04527951665648
 20
-54.88276455182786
 30
0.0
 11
-47.65824899043808
 21
-55.208670218488564
 31
0.0
  0
LINE
  5
54
330
17
100
AcDbEntity
  8
0
100
AcDbLine
 10
-47.65824899043808
 20
-55.208670218488564
 30
0.0
 11
-47.27030388878609
 21
-55.53348667418395
 31
0.0
  0
LINE
  5
55
330
17
100
AcDbEntity
  8
0
100
AcDbLine
 10
-47.27030388878609
 20
-55.53348667418395
 30
0.0
 11
-46.88144727703087
 21
-55.85721135239167
 31
0.0
  0
LINE
  5
56
330
17
100
AcDbEntity
  8
0
100
AcDbLine
 10
-46.88144727703087
 20
-55.85721135239167
 30
0.0
 11
-46.49168222770544
 21
-56.179841695215785
 31
0.0
  0
LINE
  5
57
330
17
100
AcDbEntity
  8
0
100
AcDbLine
 10
-46.49168222770544
 20
-56.179841695215785
 30
0.0
 11
-46.10101182052084
 21
-56.50137515340715
 31
0.0
  0
LINE
  5
58
330
17
100
AcDbEntity
  8
0
100
AcDbLine
 10
-46.10101182052084
 20
-56.50137515340715
 30
0.0
 11
-45.709439142341296
 21
-56.8218091863839
 31
0.0
  0
LINE
  5
59
330
17
100
AcDbEntity
  8
0
100
AcDbLine
 10
-45.709439142341296
 20
-56.8218091863839
 30
0.0
 11
-45.316967287160736
 21
-57.14114126225097
 31
0.0
  0
LINE
  5
5A
330
17
100
AcDbEntity
  8
0
100
AcDbLine
 10
-45.316967287160736
 20
-57.14114126225097
 30
0.0
 11
-44.92359935607783
 21
-57.45936885782028
 31
0.0
  0
LINE
  5
5B
330
17
100
AcDbEntity
  8
0
100
AcDbLine
 10
-44.92359935607783
 20
-57.45936885782028
 30
0.0
 11
-44.52933845727124
 21
-57.77648945863119
 31
0.0
  0
LINE
  5
5C
330
17
100
AcDbEntity
  8
0
100
AcDbLine
 10
-44.52933845727124
 20
-57.77648945863119
 30
0.0
 11
-44.13418770597569
 21
-58.09250055896949
 31
0.0
  0
LINE
  5
5D
330
17
100
AcDbEntity
  8
0
100
AcDbLine
 10
-44.13418770597569
 20
-58.09250055896949
 30
0.0
 11
-43.73815022445709
 21
-58.40739966188768
 31
0.0
  0
LINE
  5
5E
330
17
100
AcDbEntity
  8
0
100
AcDbLine
 10
-43.73815022445709
 20
-58.40739966188768
 30
0.0
 11
-43.341229141987384
 21
-58.721184279225
 31
0.0
  0
LINE
  5
5F
330
17
100
AcDbEntity
  8
0
100
AcDbLine
 10
-43.341229141987384
 20
-58.721184279225
 30
0.0
 11
-42.94342759482066
 21
-59.03385193162639
 31
0.0
  0
LINE
  5
60
330
17
100
AcDbEntity
  8
0
100
AcDbLine
 10
-42.94342759482066
 20
-59.03385193162639
 30
0.0
 11
-42.544748726167924
 21
-59.34540014856246
 31
0.0
  0
LINE
  5
61
330
17
100
AcDbEntity
  8
0
100
AcDbLine
 10
-42.544748726167924
 20
-59.34540014856246
 30
0.0
 11
-42.145195686171945
 21
-59.65582646834933
 31
0.0
  0
LINE
  5
62
330
17
100
AcDbEntity
  8
0
100
AcDbLine
 10
-42.145195686171945
 20
-59.65582646834933
 30
0.0
 11
-41.74477163188308
 21
-59.96512843816738
 31
0.0
  0
LINE
  5
63
330
17
100
AcDbEntity
  8
0
100
AcDbLine
 10
-41.74477163188308
 20
-59.96512843816738
 30
0.0
 11
-41.343479727234
 21
-60.273303614081
 31
0.0
  0
LINE
  5
64
330
17
100
AcDbEntity
  8
0
100
AcDbLine
 10
-41.343479727234
 20
-60.273303614081
 30
0.0
 11
-40.94132314301423
 21
-60.58034956105821
 31
0.0
  0
LINE
  5
65
330
17
100
AcDbEntity
  8
0
100
AcDbLine
 10
-40.94132314301423
 20
-60.58034956105821
 30
0.0
 11
-40.53830505684594
 21
-60.88626385298927
 31
0.0
  0
LINE
  5
66
330
17
100
AcDbEntity
  8
0
100
AcDbLine
 10
-40.53830505684594
 20
-60.88626385298927
 30
0.0
 11
-40.134428653158366
 21
-61.19104407270619
 31
0.0
  0
LINE
  5
67
330
17
100
AcDbEntity
  8
0
100
AcDbLine
 10
-40.134428653158366
 20
-61.19104407270619
 30
0.0
 11
-39.729697123162396
 21
-61.494687812002056
 31
0.0
  0
LINE
  5
68
330
17
100
AcDbEntity
  8
0
100
AcDbLine
 10
-39.729697123162396
 20
-61.494687812002056
 30
0.0
 11
-39.324113664826
 21
-61.79719267164948
 31
0.0
  0
LINE
  5
69
330
17
100
AcDbEntity
  8
0
100
AcDbLine
 10
-39.324113664826
 20
-61.79719267164948
 30
0.0
 11
-38.91768148284859
 21
-62.09855626142
 31
0.0
  0
LINE
  5
6A
330
17
100
AcDbEntity
  8
0
100
AcDbLine
 10
-38.91768148284859
 20
-62.09855626142
 30
0.0
 11
-38.51040378863539
 21
-62.398776200103
 31
0.0
  0
LINE
  5
6B
330
17
100
AcDbEntity
  8
0
100
AcDbLine
 10
-38.51040378863539
 20
-62.398776200103
 30
0.0
 11
-38.102283800272815
 21
-62.69785011552422
 31
0.0
  0
LINE
  5
6C
330
17
100
AcDbEntity
  8
0
100
AcDbLine
 10
-38.102283800272815
 20
-62.69785011552422
 30
0.0
 11
-37.69332474250251
 21
-62.99577564456449
 31
0.0
  0
LINE
  5
6D
330
17
100
AcDbEntity
  8
0
100
AcDbLine
 10
-37.69332474250251
 20
-62.99577564456449
 30
0.0
 11
-37.28352984669576
 21
-63.29255043317896
 31
0.0
  0
LINE
  5
6E
330
17
100
AcDbEntity
  8
0
100
AcDbLine
 10
-37.28352984669576
 20
-63.29255043317896
 30
0.0
 11
-36.87290235082844
 21
-63.588172136415025
 31
0.0
  0
LINE
  5
6F
330
17
100
AcDbEntity
  8
0
100
AcDbLine
 10
-36.87290235082844
 20
-63.588172136415025
 30
0.0
 11
-36.46144549945525
 21
-63.88263841843103
 31
0.0
  0
LINE
  5
70
330
17
100
AcDbEntity
  8
0
100
AcDbLine
 10
-36.46144549945525
 20
-63.88263841843103
 30
0.0
 11
-36.04916254368359
 21
-64.17594695251525
 31
0.0
  0
LINE
  5
71
330
17
100
AcDbEntity
  8
0
100
AcDbLine
 10
-36.04916254368359
 20
-64.17594695251525
 30
0.0
 11
-35.63605674114868
 21
-64.46809542110346
 31
0.0
  0
LINE
  5
72
330
17
100
AcDbEntity
  8
0
100
AcDbLine
 10
-35.63605674114868
 20
-64.46809542110346
 30
0.0
 11
-35.22213135598746
 21
-64.75908151579772
 31
0.0
  0
LINE
  5
73
330
17
100
AcDbEntity
  8
0
100
AcDbLine
 10
-35.22213135598746
 20
-64.75908151579772
 30
0.0
 11
-34.8073896588123
 21
-65.04890293738471
 31
0.0
  0
LINE
  5
74
330
17
100
AcDbEntity
  8
0
100
AcDbLine
 10
-34.8073896588123
 20
-65.04890293738471
 30
0.0
 11
-34.39183492668606
 21
-65.33755739585355
 31
0.0
  0
LINE
  5
75
330
17
100
AcDbEntity
  8
0
100
AcDbLine
 10
-34.39183492668606
 20
-65.33755739585355
 30
0.0
 11
-33.97547044309579
 21
-65.62504261041404
 31
0.0
  0
LINE
  5
76
330
17
100
AcDbEntity
  8
0
100
AcDbLine
 10
-33.97547044309579
 20
-65.62504261041404
 30
0.0
 11
-33.55829949792631
 21
-65.91135630951494
 31
0.0
  0
LINE
  5
77
330
17
100
AcDbEntity
  8
0
100
AcDbLine
 10
-33.55829949792631
 20
-65.91135630951494
 30
0.0
 11
-33.14032538743507
 21
-66.19649623086146
 31
0.0
  0
LINE
  5
78
330
17
100
AcDbEntity
  8
0
100
AcDbLine
 10
-33.14032538743507
 20
-66.19649623086146
 30
0.0
 11
-32.72155141422567
 21
-66.48046012143332
 31
0.0
  0
LINE
  5
79
330
17
100
AcDbEntity
  8
0
100
AcDbLine
 10
-32.72155141422567
 20
-66.48046012143332
 30
0.0
 11
-32.30198088722145
 21
-66.76324573750288
 31
0.0
  0
LINE
  5
7A
330
17
100
AcDbEntity
  8
0
100
AcDbLine
 10
-32.30198088722145
 20
-66.76324573750288
 30
0.0
 11
-31.881617121640062
 21
-67.04485084465237
 31
0.0
  0
LINE
  5
7B
330
17
100
AcDbEntity
  8
0
100
AcDbLine
 10
-31.881617121640062
 20
-67.04485084465237
 30
0.0
 11
-31.460463438966826
 21
-67.32527321779166
 31
0.0
  0
LINE
  5
7C
330
17
100
AcDbEntity
  8
0
100
AcDbLine
 10
-31.460463438966826
 20
-67.32527321779166
 30
0.0
 11
-31.03852316692827
 21
-67.60451064117628
 31
0.0
  0
LINE
  5
7D
330
17
100
AcDbEntity
  8
0
100
AcDbLine
 10
-31.03852316692827
 20
-67.60451064117628
 30
0.0
 11
-30.61579963946646
 21
-67.88256090842425
 31
0.0
  0
LINE
  5
7E
330
17
100
AcDbEntity
  8
0
100
AcDbLine
 10
-30.61579963946646
 20
-67.88256090842425
 30
0.0
 11
-30.192296196712306
 21
-68.15942182253396
 31
0.0
  0
LINE
  5
7F
330
17
100
AcDbEntity
  8
0
100
AcDbLine
 10
-30.192296196712306
 20
-68.15942182253396
 30
0.0
 11
-29.768016184958796
 21
-68.43509119590156
 31
0.0
  0
LINE
  5
80
330
17
100
AcDbEntity
  8
0
100
AcDbLine
 10
-29.768016184958796
 20
-68.43509119590156
 30
0.0
 11
-29.34296295663536
 21
-68.70956685033794
 31
0.0
  0
LINE
  5
81
330
17
100
AcDbEntity
  8
0
100
AcDbLine
 10
-29.34296295663536
 20
-68.70956685033794
 30
0.0
 11
-28.917139870280977
 21
-68.98284661708605
 31
0.0
  0
LINE
  5
82
330
17
100
AcDbEntity
  8
0
100
AcDbLine
 10
-28.917139870280977
 20
-68.98284661708605
 30
0.0
 11
-28.490550290517163
 21
-69.2549283368384
 31
0.0
  0
LINE
  5
83
330
17
100
AcDbEntity
  8
0
100
AcDbLine
 10
-28.490550290517163
 20
-69.2549283368384
 30
0.0
 11
-28.06319758802232
 21
-69.52580985975347
 31
0.0
  0
LINE
  5
84
330
17
100
AcDbEntity
  8
0
100
AcDbLine
 10
-28.06319758802232
 20
-69.52580985975347
 30
0.0
 11
-27.635085139504568
 21
-69.7954890454731
 31
0.0
  0
LINE
  5
85
330
17
100
AcDbEntity
  8
0
100
AcDbLine
 10
-27.635085139504568
 20
-69.7954890454731
 30
0.0
 11
-27.206216327674767
 21
-70.06396376313968
 31
0.0
  0
LINE
  5
86
330
17
100
AcDbEntity
  8
0
100
AcDbLine
 10
-27.206216327674767
 20
-70.06396376313968
 30
0.0
 11
-26.776594541220504
 21
-70.3312318914122
 31
0.0
  0
LINE
  5
87
330
17
100
AcDbEntity
  8
0
100
AcDbLine
 10
-26.776594541220504
 20
-70.3312318914122
 30
0.0
 11
-26.34622317477904
 21
-70.59729131848367
 31
0.0
  0
LINE
  5
88
330
17
100
AcDbEntity
  8
0
100
AcDbLine
 10
-26.34622317477904
 20
-70.59729131848367
 30
0.0
 11
-25.915105628909913
 21
-70.86213994209767
 31
0.0
  0
LINE
  5
89
330
17
100
AcDbEntity
  8
0
100
AcDbLine
 10
-25.915105628909913
 20
-70.86213994209767
 30
0.0
 11
-25.483245310069037
 21
-71.12577566956476
 31
0.0
  0
LINE
  5
8A
330
17
100
AcDbEntity
  8
0
100
AcDbLine
 10
-25.483245310069037
 20
-71.12577566956476
 30
0.0
 11
-25.050645630581272
 21
-71.38819641777907
 31
0.0
  0
LINE
  5
8B
330
17
100
AcDbEntity
  8
0
100
AcDbLine
 10
-25.050645630581272
 20
-71.38819641777907
 30
0.0
 11
-24.617310008613117
 21
-71.64940011323516
 31
0.0
  0
LINE
  5
8C
330
17
100
AcDbEntity
  8
0
100
AcDbLine
 10
-24.617310008613117
 20
-71.64940011323516
 30
0.0
 11
-24.183241868146496
 21
-71.90938469204379
 31
0.0
  0
LINE
  5
8D
330
17
100
AcDbEntity
  8
0
100
AcDbLine
 10
-24.183241868146496
 20
-71.90938469204379
 30
0.0
 11
-23.74844463895127
 21
-72.16814809994845
 31
0.0
  0
LINE
  5
8E
330
17
100
AcDbEntity
  8
0
100
AcDbLine
 10
-23.74844463895127
 20
-72.16814809994845
 30
0.0
 11
-23.31292175655777
 21
-72.425688292342
 31
0.0
  0
LINE
  5
8F
330
17
100
AcDbEntity
  8
0
100
AcDbLine
 10
-23.31292175655777
 20
-72.425688292342
 30
0.0
 11
-22.87667666223048
 21
-72.68200323428222
 31
0.0
  0
LINE
  5
90
330
17
100
AcDbEntity
  8
0
100
AcDbLine
 10
-22.87667666223048
 20
-72.68200323428222
 30
0.0
 11
-22.439712802940335
 21
-72.93709090050807
 31
0.0
  0
LINE
  5
91
330
17
100
AcDbEntity
  8
0
100
AcDbLine
 10
-22.439712802940335
 20
-72.93709090050807
 30
0.0
 11
-22.00203363133724
 21
-73.1909492754561
 31
0.0
  0
LINE
  5
92
330
17
100
AcDbEntity
  8
0
100
AcDbLine
 10
-61.34402019973753
 20
42.4470931801262
 30
0.0
 11
-61.99755556770517
 21
41.76026568223538
 31
0.0
  0
LINE
  5
93
330
17
100
AcDbEntity
  8
0
100
AcDbLine
 10
-61.99755556770517
 20
41.76026568223538
 30
0.0
 11
-62.64035188311976
 21
41.06337732250121
 31
0.0
  0
LINE
  5
94
330
17
100
AcDbEntity
  8
0
100
AcDbLine
 10
-62.64035188311976
 20
41.06337732250121
 30
0.0
 11
-63.272254283821894
 21
40.35659599491077
 31
0.0
  0
LINE
  5
95
330
17
100
AcDbEntity
  8
0
100
AcDbLine
 10
-63.272254283821894
 20
40.35659599491077
 30
0.0
 11
-63.89311053220841
 21
39.64009197685994
 31
0.0
  0
LINE
  5
96
330
17
100
AcDbEntity
  8
0
100
AcDbLine
 10
-63.89311053220841
 20
39.64009197685994
 30
0.0
 11
-64.50277105190963
 21
38.91403788813015
 31
0.0
  0
LINE
  5
97
330
17
100
AcDbEntity
  8
0
100
AcDbLine
 10
-64.50277105190963
 20
38.91403788813015
 30
0.0
 11
-65.10108896382503
 21
38.17860864930107
 31
0.0
  0
LINE
  5
98
330
17
100
AcDbEntity
  8
0
100
AcDbLine
 10
-65.10108896382503
 20
38.17860864930107
 30
0.0
 11
-65.6879201215094
 21
37.43398143960857
 31
0.0
  0
LINE
  5
99
330
17
100
AcDbEntity
  8
0
100
AcDbLine
 10
-65.6879201215094
 20
37.43398143960857
 30
0.0
 11
-66.26312314590042
 21
36.680335654259146
 31
0.0
  0
LINE
  5
9A
330
17
100
AcDbEntity
  8
0
100
AcDbLine
 10
-66.26312314590042
 20
36.680335654259146
 30
0.0
 11
-66.82655945937978
 21
35.91785286120975
 31
0.0
  0
LINE
  5
9B
330
17
100
AcDbEntity
  8
0
100
AcDbLine
 10
-66.82655945937978
 20
35.91785286120975
 30
0.0
 11
-67.37809331915906
 21
35.146716757424834
 31
0.0
  0
LINE
  5
9C
330
17
100
AcDbEntity
  8
0
100
AcDbLine
 10
-67.37809331915906
 20
35.146716757424834
 30
0.0
 11
-67.91759184998291
 21
34.36711312462004
 31
0.0
  0
LINE
  5
9D
330
17
100
AcDbEntity
  8
0
100
AcDbLine
 10
-67.91759184998291
 20
34.36711312462004
 30
0.0
 11
-68.44492507614135
 21
33.57922978450366
 31
0.0
  0
LINE
  5
9E
330
17
100
AcDbEntity
  8
0
100
AcDbLine
 10
-68.44492507614135
 20
33.57922978450366
 30
0.0
 11
-68.95996595278326
 21
32.78325655352699
 31
0.0
  0
LINE
  5
9F
330
17
100
AcDbEntity
  8
0
100
AcDbLine
 10
-68.95996595278326
 20
32.78325655352699
 30
0.0
 11
-69.4625903965242
 21
31.979385197153515
 31
0.0
  0
LINE
  5
A0
330
17
100
AcDbEntity
  8
0
100
AcDbLine
 10
-69.4625903965242
 20
31.979385197153515
 30
0.0
 11
-69.95267731534031
 21
31.167809383659204
 31
0.0
  0
LINE
  5
A1
330
17
100
AcDbEntity
  8
0
100
AcDbLine
 10
-69.95267731534031
 20
31.167809383659204
 30
0.0
 11
-70.4301086377418
 21
30.34872463747387
 31
0.0
  0
LINE
  5
A2
330
17
100
AcDbEntity
  8
0
100
AcDbLine
 10
-70.4301086377418
 20
30.34872463747387
 30
0.0
 11
-70.89476934121879
 21
29.522328292075436
 31
0.0
  0
LINE
  5
A3
330
17
100
AcDbEntity
  8
0
100
AcDbLine
 10
-70.89476934121879
 20
29.522328292075436
 30
0.0
 11
-71.34654747995229
 21
28.688819442448683
 31
0.0
  0
LINE
  5
A4
330
17
100
AcDbEntity
  8
0
100
AcDbLine
 10
-71.34654747995229
 20
28.688819442448683
 30
0.0
 11
-71.78533421178423
 21
27.848398897119285
 31
0.0
  0
LINE
  5
A5
330
17
100
AcDbEntity
  8
0
100
AcDbLine
 10
-71.78533421178423
 20
27.848398897119285
 30
0.0
 11
-72.2110238244397
 21
27.00126912977497
 31
0.0
  0
LINE
  5
A6
330
17
100
AcDbEntity
  8
0
100
AcDbLine
 10
-72.2110238244397
 20
27.00126912977497
 30
0.0
 11
-72.623513760995
 21
26.147634230485973
 31
0.0
  0
LINE
  5
A7
330
17
100
AcDbEntity
  8
0
100
AcDbLine
 10
-72.623513760995
 20
26.147634230485973
 30
0.0
 11
-73.02270464458564
 21
25.287699856535415
 31
0.0
  0
LINE
  5
A8
330
17
100
AcDbEntity
  8
0
100
AcDbLine
 10
-73.02270464458564
 20
25.287699856535415
 30
0.0
 11
-73.40850030234819
 21
24.42167318287277
 31
0.0
  0
LINE
  5
A9
330
17
100
AcDbEntity
  8
0
100
AcDbLine
 10
-73.40850030234819
 20
24.42167318287277
 30
0.0
 11
-73.7808077885901
 21
23.54976285220124
 31
0.0
  0
LINE
  5
AA
330
17
100
AcDbEntity
  8
0
100
AcDbLine
 10
-73.7808077885901
 20
23.54976285220124
 30
0.0
 11
-74.13953740718233
 21
22.672178924711513
 31
0.0
  0
LINE
  5
AB
330
17
100
AcDbEntity
  8
0
100
AcDbLine
 10
-74.13953740718233
 20
22.672178924711513
 30
0.0
 11
-74.48460273316866
 21
21.78913282747453
 31
0.0
  0
LINE
  5
AC
330
17
100
AcDbEntity
  8
0
100
AcDbLine
 10
-74.48460273316866
 20
21.78913282747453
 30
0.0
 11
-74.81592063358731
 21
20.900837303504158
 31
0.0
  0
LINE
  5
AD
330
17
100
AcDbEntity
  8
0
100
AcDbLine
 10
-74.81592063358731
 20
20.900837303504158
 30
0.0
 11
-75.1334112874992
 21
20.007506360503626
 31
0.0
  0
LINE
  5
AE
330
17
100
AcDbEntity
  8
0
100
AcDbLine
 10
-75.1334112874992
 20
20.007506360503626
 30
0.0
 11
-75.43699820521842
 21
19.109355219306742
 31
0.0
  0
LINE
  5
AF
330
17
100
AcDbEntity
  8
0
100
AcDbLine
 10
-75.43699820521842
 20
19.109355219306742
 30
0.0
 11
-75.72660824674007
 21
18.20660026202684
 31
0.0
  0
LINE
  5
B0
330
17
100
AcDbEntity
  8
0
100
AcDbLine
 10
-75.72660824674007
 20
18.20660026202684
 30
0.0
 11
-76.00217163936114
 21
17.29945897992642
 31
0.0
  0
LINE
  5
B1
330
17
100
AcDbEntity
  8
0
100
AcDbLine
 10
-76.00217163936114
 20
17.29945897992642
 30
0.0
 11
-76.26362199449
 21
16.388149921019124
 31
0.0
  0
LINE
  5
B2
330
17
100
AcDbEntity
  8
0
100
AcDbLine
 10
-76.26362199449
 20
16.388149921019124
 30
0.0
 11
-76.5108963236409
 21
15.472892637417086
 31
0.0
  0
LINE
  5
B3
330
17
100
AcDbEntity
  8
0
100
AcDbLine
 10
-76.5108963236409
 20
15.472892637417086
 30
0.0
 11
-76.74393505360896
 21
14.553907632436923
 31
0.0
  0
LINE
  5
B4
330
17
100
AcDbEntity
  8
0
100
AcDbLine
 10
-76.74393505360896
 20
14.553907632436923
 30
0.0
 11
-76.96268204082259
 21
13.631416307475773
 31
0.0
  0
LINE
  5
B5
330
17
100
AcDbEntity
  8
0
100
AcDbLine
 10
-76.96268204082259
 20
13.631416307475773
 30
0.0
 11
-77.16708458486951
 21
12.705640908671796
 31
0.0
  0
LINE
  5
B6
330
17
100
AcDbEntity
  8
0
100
AcDbLine
 10
-77.16708458486951
 20
12.705640908671796
 30
0.0
 11
-77.35709344119343
 21
11.776804473360338
 31
0.0
  0
LINE
  5
B7
330
17
100
AcDbEntity
  8
0
100
AcDbLine
 10
-77.35709344119343
 20
11.776804473360338
 30
0.0
 11
-77.53266283295785
 21
10.845130776340245
 31
0.0
  0
LINE
  5
B8
330
17
100
AcDbEntity
  8
0
100
AcDbLine
 10
-77.53266283295785
 20
10.845130776340245
 30
0.0
 11
-77.69375046207475
 21
9.910844275962006
 31
0.0
  0
LINE
  5
B9
330
17
100
AcDbEntity
  8
0
100
AcDbLine
 10
-77.69375046207475
 20
9.910844275962006
 30
0.0
 11
-77.84031751939492
 21
8.9741700600512
 31
0.0
  0
LINE
  5
BA
330
17
100
AcDbEntity
  8
0
100
AcDbLine
 10
-77.84031751939492
 20
8.9741700600512
 30
0.0
 11
-77.97232869405792
 21
8.035333791680772
 31
0.0
  0
LINE
  5
BB
330
17
100
AcDbEntity
  8
0
100
AcDbLine
 10
-77.97232869405792
 20
8.035333791680772
 30
0.0
 11
-78.08975218199906
 21
7.094561654804231
 31
0.0
  0
LINE
  5
BC
330
17
100
AcDbEntity
  8
0
100
AcDbLine
 10
-78.08975218199906
 20
7.094561654804231
 30
0.0
 11
-78.19255969361173
 21
6.152080299763384
 31
0.0
  0
LINE
  5
BD
330
17
100
AcDbEntity
  8
0
100
AcDbLine
 10
-78.19255969361173
 20
6.152080299763384
 30
0.0
 11
-78.28072646056279
 21
5.208116788684215
 31
0.0
  0
LINE
  5
BE
330
17
100
AcDbEntity
  8
0
100
AcDbLine
 10
-78.28072646056279
 20
5.208116788684215
 30
0.0
 11
-78.35423124175989
 21
4.262898540772769
 31
0.0
  0
LINE
  5
BF
330
17
100
AcDbEntity
  8
0
100
AcDbLine
 10
-78.35423124175989
 20
4.262898540772769
 30
0.0
 11
-78.41305632846874
 21
3.316653277525807
 31
0.0
  0
LINE
  5
C0
330
17
100
AcDbEntity
  8
0
100
AcDbLine
 10
-78.41305632846874
 20
3.316653277525807
 30
0.0
 11
-78.45718754857954
 21
2.3696089678680967
 31
0.0
  0
LINE
  5
C1
330
17
100
AcDbEntity
  8
0
100
AcDbLine
 10
-78.45718754857954
 20
2.3696089678680967
 30
0.0
 11
-78.48661427002132
 21
1.4219937732301013
 31
0.0
  0
LINE
  5
C2
330
17
100
AcDbEntity
  8
0
100
AcDbLine
 10
-78.48661427002132
 20
1.4219937732301013
 30
0.0
 11
-78.5013294033234
 21
0.47403599257981455
 31
0.0
  0
LINE
  5
C3
330
17
100
AcDbEntity
  8
0
100
AcDbLine
 10
-78.5013294033234
 20
0.47403599257981455
 30
0.0
 11
-78.5013294033234
 21
-0.47403599257933904
 31
0.0
  0
LINE
  5
C4
330
17
100
AcDbEntity
  8
0
100
AcDbLine
 10
-78.5013294033234
 20
-0.47403599257933904
 30
0.0
 11
-78.48661427002132
 21
-1.4219937732296801
 31
0.0
  0
LINE
  5
C5
330
17
100
AcDbEntity
  8
0
100
AcDbLine
 10
-78.48661427002132
 20
-1.4219937732296801
 30
0.0
 11
-78.45718754857955
 21
-2.3696089678676215
 31
0.0
  0
LINE
  5
C6
330
17
100
AcDbEntity
  8
0
100
AcDbLine
 10
-78.45718754857955
 20
-2.3696089678676215
 30
0.0
 11
-78.41305632846874
 21
-3.316653277525386
 31
0.0
  0
LINE
  5
C7
330
17
100
AcDbEntity
  8
0
100
AcDbLine
 10
-78.41305632846874
 20
-3.316653277525386
 30
0.0
 11
-78.35423124175989
 21
-4.262898540772295
 31
0.0
  0
LINE
  5
C8
330
17
100
AcDbEntity
  8
0
100
AcDbLine
 10
-78.35423124175989
 20
-4.262898540772295
 30
0.0
 11
-78.28072646056279
 21
-5.208116788683742
 31
0.0
  0
LINE
  5
C9
330
17
100
AcDbEntity
  8
0
100
AcDbLine
 10
-78.28072646056279
 20
-5.208116788683742
 30
0.0
 11
-78.19255969361173
 21
-6.152080299762964
 31
0.0
  0
LINE
  5
CA
330
17
100
AcDbEntity
  8
0
100
AcDbLine
 10
-78.19255969361173
 20
-6.152080299762964
 30
0.0
 11
-78.08975218199907
 21
-7.0945616548037576
 31
0.0
  0
LINE
  5
CB
330
17
100
AcDbEntity
  8
0
100
AcDbLine
 10
-78.08975218199907
 20
-7.0945616548037576
 30
0.0
 11
-77.97232869405792
 21
-8.03533379168035
 31
0.0
  0
LINE
  5
CC
330
17
100
AcDbEntity
  8
0
100
AcDbLine
 10
-77.97232869405792
 20
-8.03533379168035
 30
0.0
 11
-77.84031751939494
 21
-8.974170060050726
 31
0.0
  0
LINE
  5
CD
330
17
100
AcDbEntity
  8
0
100
AcDbLine
 10
-77.84031751939494
 20
-8.974170060050726
 30
0.0
 11
-77.69375046207475
 21
-9.910844275961532
 31
0.0
  0
LINE
  5
CE
330
17
100
AcDbEntity
  8
0
100
AcDbLine
 10
-77.69375046207475
 20
-9.910844275961532
 30
0.0
 11
-77.53266283295787
 21
-10.845130776339824
 31
0.0
  0
LINE
  5
CF
330
17
100
AcDbEntity
  8
0
100
AcDbLine
 10
-77.53266283295787
 20
-10.845130776339824
 30
0.0
 11
-77.35709344119344
 21
-11.776804473359864
 31
0.0
  0
LINE
  5
D0
330
17
100
AcDbEntity
  8
0
100
AcDbLine
 10
-77.35709344119344
 20
-11.776804473359864
 30
0.0
 11
-77.16708458486954
 21
-12.705640908671322
 31
0.0
  0
LINE
  5
D1
330
17
100
AcDbEntity
  8
0
100
AcDbLine
 10
-77.16708458486954
 20
-12.705640908671322
 30
0.0
 11
-76.9626820408226
 21
-13.631416307475352
 31
0.0
  0
LINE
  5
D2
330
17
100
AcDbEntity
  8
0
100
AcDbLine
 10
-76.9626820408226
 20
-13.631416307475352
 30
0.0
 11
-76.743935053609
 21
-14.55390763243645
 31
0.0
  0
LINE
  5
D3
330
17
100
AcDbEntity
  8
0
100
AcDbLine
 10
-76.743935053609
 20
-14.55390763243645
 30
0.0
 11
-76.51089632364092
 21
-15.472892637416667
 31
0.0
  0
LINE
  5
D4
330
17
100
AcDbEntity
  8
0
100
AcDbLine
 10
-76.51089632364092
 20
-15.472892637416667
 30
0.0
 11
-76.26362199449001
 21
-16.38814992101871
 31
0.0
  0
LINE
  5
D5
330
17
100
AcDbEntity
  8
0
100
AcDbLine
 10
-76.26362199449001
 20
-16.38814992101871
 30
0.0
 11
-76.00217163936114
 21
-17.299458979926005
 31
0.0
  0
LINE
  5
D6
330
17
100
AcDbEntity
  8
0
100
AcDbLine
 10
-76.00217163936114
 20
-17.299458979926005
 30
0.0
 11
-75.72660824674008
 21
-18.20660026202642
 31
0.0
  0
LINE
  5
D7
330
17
100
AcDbEntity
  8
0
100
AcDbLine
 10
-75.72660824674008
 20
-18.20660026202642
 30
0.0
 11
-75.43699820521843
 21
-19.109355219306277
 31
0.0
  0
LINE
  5
D8
330
17
100
AcDbEntity
  8
0
100
AcDbLine
 10
-75.43699820521843
 20
-19.109355219306277
 30
0.0
 11
-75.13341128749921
 21
-20.00750636050321
 31
0.0
  0
LINE
  5
D9
330
17
100
AcDbEntity
  8
0
100
AcDbLine
 10
-75.13341128749921
 20
-20.00750636050321
 30
0.0
 11
-74.81592063358733
 21
-20.90083730350369
 31
0.0
  0
LINE
  5
DA
330
17
100
AcDbEntity
  8
0
100
AcDbLine
 10
-74.81592063358733
 20
-20.90083730350369
 30
0.0
 11
-74.48460273316869
 21
-21.789132827474063
 31
0.0
  0
LINE
  5
DB
330
17
100
AcDbEntity
  8
0
100
AcDbLine
 10
-74.48460273316869
 20
-21.789132827474063
 30
0.0
 11
-74.13953740718235
 21
-22.672178924711098
 31
0.0
  0
LINE
  5
DC
330
17
100
AcDbEntity
  8
0
100
AcDbLine
 10
-74.13953740718235
 20
-22.672178924711098
 30
0.0
 11
-73.78080778859014
 21
-23.54976285220077
 31
0.0
  0
LINE
  5
DD
330
17
100
AcDbEntity
  8
0
100
AcDbLine
 10
-73.78080778859014
 20
-23.54976285220077
 30
0.0
 11
-73.40850030234819
 21
-24.421673182872354
 31
0.0
  0
LINE
  5
DE
330
17
100
AcDbEntity
  8
0
100
AcDbLine
 10
-73.40850030234819
 20
-24.421673182872354
 30
0.0
 11
-73.02270464458564
 21
-25.287699856535
 31
0.0
  0
LINE
  5
DF
330
17
100
AcDbEntity
  8
0
100
AcDbLine
 10
-73.02270464458564
 20
-25.287699856535
 30
0.0
 11
-72.62351376099502
 21
-26.147634230485508
 31
0.0
  0
LINE
  5
E0
330
17
100
AcDbEntity
  8
0
100
AcDbLine
 10
-72.62351376099502
 20
-26.147634230485508
 30
0.0
 11
-72.21102382443972
 21
-27.001269129774553
 31
0.0
  0
LINE
  5
E1
330
17
100
AcDbEntity
  8
0
100
AcDbLine
 10
-72.21102382443972
 20
-27.001269129774553
 30
0.0
 11
-71.78533421178426
 21
-27.848398897118823
 31
0.0
  0
LINE
  5
E2
330
17
100
AcDbEntity
  8
0
100
AcDbLine
 10
-71.78533421178426
 20
-27.848398897118823
 30
0.0
 11
-71.3465474799523
 21
-28.688819442448267
 31
0.0
  0
LINE
  5
E3
330
17
100
AcDbEntity
  8
0
100
AcDbLine
 10
-71.3465474799523
 20
-28.688819442448267
 30
0.0
 11
-70.89476934121882
 21
-29.522328292074967
 31
0.0
  0
LINE
  5
E4
330
17
100
AcDbEntity
  8
0
100
AcDbLine
 10
-70.89476934121882
 20
-29.522328292074967
 30
0.0
 11
-70.43010863774184
 21
-30.348724637473403
 31
0.0
  0
LINE
  5
E5
330
17
100
AcDbEntity
  8
0
100
AcDbLine
 10
-70.43010863774184
 20
-30.348724637473403
 30
0.0
 11
-69.95267731534034
 21
-31.167809383658778
 31
0.0
  0
LINE
  5
E6
330
17
100
AcDbEntity
  8
0
100
AcDbLine
 10
-69.95267731534034
 20
-31.167809383658778
 30
0.0
 11
-69.46259039652425
 21
-31.979385197153043
 31
0.0
  0
LINE
  5
E7
330
17
100
AcDbEntity
  8
0
100
AcDbLine
 10
-69.46259039652425
 20
-31.979385197153043
 30
0.0
 11
-68.9599659527833
 21
-32.78325655352652
 31
0.0
  0
LINE
  5
E8
330
17
100
AcDbEntity
  8
0
100
AcDbLine
 10
-68.9599659527833
 20
-32.78325655352652
 30
0.0
 11
-68.44492507614137
 21
-33.579229784503234
 31
0.0
  0
LINE
  5
E9
330
17
100
AcDbEntity
  8
0
100
AcDbLine
 10
-68.44492507614137
 20
-33.579229784503234
 30
0.0
 11
-67.91759184998295
 21
-34.36711312461957
 31
0.0
  0
LINE
  5
EA
330
17
100
AcDbEntity
  8
0
100
AcDbLine
 10
-67.91759184998295
 20
-34.36711312461957
 30
0.0
 11
-67.37809331915908
 21
-35.146716757424414
 31
0.0
  0
LINE
  5
EB
330
17
100
AcDbEntity
  8
0
100
AcDbLine
 10
-67.37809331915908
 20
-35.146716757424414
 30
0.0
 11
-66.8265594593798
 21
-35.91785286120933
 31
0.0
  0
LINE
  5
EC
330
17
100
AcDbEntity
  8
0
100
AcDbLine
 10
-66.8265594593798
 20
-35.91785286120933
 30
0.0
 11
-66.26312314590047
 21
-36.680335654258684
 31
0.0
  0
LINE
  5
ED
330
17
100
AcDbEntity
  8
0
100
AcDbLine
 10
-66.26312314590047
 20
-36.680335654258684
 30
0.0
 11
-65.68792012150942
 21
-37.43398143960815
 31
0.0
  0
LINE
  5
EE
330
17
100
AcDbEntity
  8
0
100
AcDbLine
 10
-65.68792012150942
 20
-37.43398143960815
 30
0.0
 11
-65.10108896382505
 21
-38.17860864930065
 31
0.0
  0
LINE
  5
EF
330
17
100
AcDbEntity
  8
0
100
AcDbLine
 10
-65.10108896382505
 20
-38.17860864930065
 30
0.0
 11
-64.50277105190966
 21
-38.914037888129734
 31
0.0
  0
LINE
  5
F0
330
17
100
AcDbEntity
  8
0
100
AcDbLine
 10
-64.50277105190966
 20
-38.914037888129734
 30
0.0
 11
-63.89311053220847
 21
-39.64009197685948
 31
0.0
  0
LINE
  5
F1
330
17
100
AcDbEntity
  8
0
100
AcDbLine
 10
-63.89311053220847
 20
-39.64009197685948
 30
0.0
 11
-63.27225428382193
 21
-40.35659599491033
 31
0.0
  0
LINE
  5
F2
330
17
100
AcDbEntity
  8
0
100
AcDbLine
 10
-63.27225428382193
 20
-40.35659599491033
 30
0.0
 11
-62.6403518831198
 21
-41.06337732250077
 31
0.0
  0
LINE
  5
F3
330
17
100
AcDbEntity
  8
0
100
AcDbLine
 10
-62.6403518831198
 20
-41.06337732250077
 30
0.0
 11
-61.99755556770522
 21
-41.76026568223492
 31
0.0
  0
LINE
  5
F4
330
17
100
AcDbEntity
  8
0
100
AcDbLine
 10
-61.99755556770522
 20
-41.76026568223492
 30
0.0
 11
-61.344020199737564
 21
-42.44709318012576
 31
0.0
  0
LINE
  5
F5
330
17
100
AcDbEntity
  8
0
100
AcDbLine
 10
-61.34402019973777
 20
42.44709318012637
 30
0.0
 11
-60.9918931824362
 21
42.81043006990318
 31
0.0
  0
LINE
  5
F6
330
17
100
AcDbEntity
  8
0
100
AcDbLine
 10
-60.9918931824362
 20
42.81043006990318
 30
0.0
 11
-60.63874623451548
 21
43.172775712847496
 31
0.0
  0
LINE
  5
F7
330
17
100
AcDbEntity
  8
0
100
AcDbLine
 10
-60.63874623451548
 20
43.172775712847496
 30
0.0
 11
-60.284582146350346
 21
43.534127245901544
 31
0.0
  0
LINE
  5
F8
330
17
100
AcDbEntity
  8
0
100
AcDbLine
 10
-60.284582146350346
 20
43.534127245901544
 30
0.0
 11
-59.9294037163522
 21
43.894481813862626
 31
0.0
  0
LINE
  5
F9
330
17
100
AcDbEntity
  8
0
100
AcDbLine
 10
-59.9294037163522
 20
43.894481813862626
 30
0.0
 11
-59.57321375094726
 21
44.25383656940548
 31
0.0
  0
LINE
  5
FA
330
17
100
AcDbEntity
  8
0
100
AcDbLine
 10
-59.57321375094726
 20
44.25383656940548
 30
0.0
 11
-59.2160150645545
 21
44.61218867310471
 31
0.0
  0
LINE
  5
FB
330
17
100
AcDbEntity
  8
0
100
AcDbLine
 10
-59.2160150645545
 20
44.61218867310471
 30
0.0
 11
-58.85781047956314
 21
44.96953529345747
 31
0.0
  0
LINE
  5
FC
330
17
100
AcDbEntity
  8
0
100
AcDbLine
 10
-58.85781047956314
 20
44.96953529345747
 30
0.0
 11
-58.498602826310375
 21
45.325873606905645
 31
0.0
  0
LINE
  5
FD
330
17
100
AcDbEntity
  8
0
100
AcDbLine
 10
-58.498602826310375
 20
45.325873606905645
 30
0.0
 11
-58.13839494305935
 21
45.681200797858125
 31
0.0
  0
LINE
  5
FE
330
17
100
AcDbEntity
  8
0
100
AcDbLine
 10
-58.13839494305935
 20
45.681200797858125
 30
0.0
 11
-57.777189675976246
 21
46.03551405871322
 31
0.0
  0
LINE
  5
FF
330
17
100
AcDbEntity
  8
0
100
AcDbLine
 10
-57.777189675976246
 20
46.03551405871322
 30
0.0
 11
-57.41498987910808
 21
46.38881058988089
 31
0.0
  0
LINE
  5
100
330
17
100
AcDbEntity
  8
0
100
AcDbLine
 10
-57.41498987910808
 20
46.38881058988089
 30
0.0
 11
-57.05179841436019
 21
46.7410875998044
 31
0.0
  0
LINE
  5
101
330
17
100
AcDbEntity
  8
0
100
AcDbLine
 10
-57.05179841436019
 20
46.7410875998044
 30
0.0
 11
-56.687618151473515
 21
47.09234230498306
 31
0.0
  0
LINE
  5
102
330
17
100
AcDbEntity
  8
0
100
AcDbLine
 10
-56.687618151473515
 20
47.09234230498306
 30
0.0
 11
-56.32245196800176
 21
47.44257192999375
 31
0.0
  0
LINE
  5
103
330
17
100
AcDbEntity
  8
0
100
AcDbLine
 10
-56.32245196800176
 20
47.44257192999375
 30
0.0
 11
-55.95630274928912
 21
47.79177370751286
 31
0.0
  0
LINE
  5
104
330
17
100
AcDbEntity
  8
0
100
AcDbLine
 10
-55.95630274928912
 20
47.79177370751286
 30
0.0
 11
-55.58917338844702
 21
48.13994487833837
 31
0.0
  0
LINE
  5
105
330
17
100
AcDbEntity
  8
0
100
AcDbLine
 10
-55.58917338844702
 20
48.13994487833837
 30
0.0
 11
-55.22106678633136
 21
48.487082691411686
 31
0.0
  0
LINE
  5
106
330
17
100
AcDbEntity
  8
0
100
AcDbLine
 10
-55.22106678633136
 20
48.487082691411686
 30
0.0
 11
-54.85198585151993
 21
48.833184403838956
 31
0.0
  0
LINE
  5
107
330
17
100
AcDbEntity
  8
0
100
AcDbLine
 10
-54.85198585151993
 20
48.833184403838956
 30
0.0
 11
-54.48193350028889
 21
49.17824728091328
 31
0.0
  0
LINE
  5
108
330
17
100
AcDbEntity
  8
0
100
AcDbLine
 10
-54.48193350028889
 20
49.17824728091328
 30
0.0
 11
-54.11091265659023
 21
49.52226859613593
 31
0.0
  0
LINE
  5
109
330
17
100
AcDbEntity
  8
0
100
AcDbLine
 10
-54.11091265659023
 20
49.52226859613593
 30
0.0
 11
-53.73892625202829
 21
49.86524563123804
 31
0.0
  0
LINE
  5
10A
330
17
100
AcDbEntity
  8
0
100
AcDbLine
 10
-53.73892625202829
 20
49.86524563123804
 30
0.0
 11
-53.365977225836716
 21
50.2071756762022
 31
0.0
  0
LINE
  5
10B
330
17
100
AcDbEntity
  8
0
100
AcDbLine
 10
-53.365977225836716
 20
50.2071756762022
 30
0.0
 11
-52.99206852485547
 21
50.548056029283586
 31
0.0
  0
LINE
  5
10C
330
17
100
AcDbEntity
  8
0
100
AcDbLine
 10
-52.99206852485547
 20
50.548056029283586
 30
0.0
 11
-52.61720310350712
 21
50.88788399703152
 31
0.0
  0
LINE
  5
10D
330
17
100
AcDbEntity
  8
0
100
AcDbLine
 10
-52.61720310350712
 20
50.88788399703152
 30
0.0
 11
-52.24138392377378
 21
51.22665689431081
 31
0.0
  0
LINE
  5
10E
330
17
100
AcDbEntity
  8
0
100
AcDbLine
 10
-52.24138392377378
 20
51.22665689431081
 30
0.0
 11
-51.864613955173795
 21
51.56437204432264
 31
0.0
  0
LINE
  5
10F
330
17
100
AcDbEntity
  8
0
100
AcDbLine
 10
-51.864613955173795
 20
51.56437204432264
 30
0.0
 11
-51.48689617473789
 21
51.901026778626104
 31
0.0
  0
LINE
  5
110
330
17
100
AcDbEntity
  8
0
100
AcDbLine
 10
-51.48689617473789
 20
51.901026778626104
 30
0.0
 11
-51.10823356698596
 21
52.23661843715915
 31
0.0
  0
LINE
  5
111
330
17
100
AcDbEntity
  8
0
100
AcDbLine
 10
-51.10823356698596
 20
52.23661843715915
 30
0.0
 11
-50.72862912390357
 21
52.57114436825937
 31
0.0
  0
LINE
  5
112
330
17
100
AcDbEntity
  8
0
100
AcDbLine
 10
-50.72862912390357
 20
52.57114436825937
 30
0.0
 11
-50.34808584491796
 21
52.90460192868535
 31
0.0
  0
LINE
  5
113
330
17
100
AcDbEntity
  8
0
100
AcDbLine
 10
-50.34808584491796
 20
52.90460192868535
 30
0.0
 11
-49.96660673687454
 21
53.23698848363732
 31
0.0
  0
LINE
  5
114
330
17
100
AcDbEntity
  8
0
100
AcDbLine
 10
-49.96660673687454
 20
53.23698848363732
 30
0.0
 11
-49.58419481401329
 21
53.56830140677788
 31
0.0
  0
LINE
  5
115
330
17
100
AcDbEntity
  8
0
100
AcDbLine
 10
-49.58419481401329
 20
53.56830140677788
 30
0.0
 11
-49.2008530979447
 21
53.89853808025303
 31
0.0
  0
LINE
  5
116
330
17
100
AcDbEntity
  8
0
100
AcDbLine
 10
-49.2008530979447
 20
53.89853808025303
 30
0.0
 11
-48.81658461762582
 21
54.22769589471271
 31
0.0
  0
LINE
  5
117
330
17
100
AcDbEntity
  8
0
100
AcDbLine
 10
-48.81658461762582
 20
54.22769589471271
 30
0.0
 11
-48.43139240933684
 21
54.5557722493313
 31
0.0
  0
LINE
  5
118
330
17
100
AcDbEntity
  8
0
100
AcDbLine
 10
-48.43139240933684
 20
54.5557722493313
 30
0.0
 11
-48.04527951665639
 21
54.882764551828316
 31
0.0
  0
LINE
  5
119
330
17
100
AcDbEntity
  8
0
100
AcDbLine
 10
-48.04527951665639
 20
54.882764551828316
 30
0.0
 11
-47.658248990438
 21
55.20867021848905
 31
0.0
  0
LINE
  5
11A
330
17
100
AcDbEntity
  8
0
100
AcDbLine
 10
-47.658248990438
 20
55.20867021848905
 30
0.0
 11
-47.270303888785946
 21
55.53348667418446
 31
0.0
  0
LINE
  5
11B
330
17
100
AcDbEntity
  8
0
100
AcDbLine
 10
-47.270303888785946
 20
55.53348667418446
 30
0.0
 11
-46.88144727703079
 21
55.857211352392156
 31
0.0
  0
LINE
  5
11C
330
17
100
AcDbEntity
  8
0
100
AcDbLine
 10
-46.88144727703079
 20
55.857211352392156
 30
0.0
 11
-46.49168222770537
 21
56.17984169521624
 31
0.0
  0
LINE
  5
11D
330
17
100
AcDbEntity
  8
0
100
AcDbLine
 10
-46.49168222770537
 20
56.17984169521624
 30
0.0
 11
-46.1010118205207
 21
56.501375153407636
 31
0.0
  0
LINE
  5
11E
330
17
100
AcDbEntity
  8
0
100
AcDbLine
 10
-46.1010118205207
 20
56.501375153407636
 30
0.0
 11
-45.70943914234121
 21
56.82180918638433
 31
0.0
  0
LINE
  5
11F
330
17
100
AcDbEntity
  8
0
100
AcDbLine
 10
-45.70943914234121
 20
56.82180918638433
 30
0.0
 11
-45.31696728716065
 21
57.14114126225142
 31
0.0
  0
LINE
  5
120
330
17
100
AcDbEntity
  8
0
100
AcDbLine
 10
-45.31696728716065
 20
57.14114126225142
 30
0.0
 11
-44.92359935607767
 21
57.45936885782079
 31
0.0
  0
LINE
  5
121
330
17
100
AcDbEntity
  8
0
100
AcDbLine
 10
-44.92359935607767
 20
57.45936885782079
 30
0.0
 11
-44.52933845727115
 21
57.776489458631644
 31
0.0
  0
LINE
  5
122
330
17
100
AcDbEntity
  8
0
100
AcDbLine
 10
-44.52933845727115
 20
57.776489458631644
 30
0.0
 11
-44.134187705975606
 21
58.092500558969945
 31
0.0
  0
LINE
  5
123
330
17
100
AcDbEntity
  8
0
100
AcDbLine
 10
-44.134187705975606
 20
58.092500558969945
 30
0.0
 11
-43.738150224456945
 21
58.407399661888164
 31
0.0
  0
LINE
  5
124
330
17
100
AcDbEntity
  8
0
100
AcDbLine
 10
-43.738150224456945
 20
58.407399661888164
 30
0.0
 11
-43.341229141987256
 21
58.72118427922548
 31
0.0
  0
LINE
  5
125
330
17
100
AcDbEntity
  8
0
100
AcDbLine
 10
-43.341229141987256
 20
58.72118427922548
 30
0.0
 11
-42.94342759482059
 21
59.03385193162684
 31
0.0
  0
LINE
  5
126
330
17
100
AcDbEntity
  8
0
100
AcDbLine
 10
-42.94342759482059
 20
59.03385193162684
 30
0.0
 11
-42.54474872616778
 21
59.34540014856297
 31
0.0
  0
LINE
  5
127
330
17
100
AcDbEntity
  8
0
100
AcDbLine
 10
-42.54474872616778
 20
59.34540014856297
 30
0.0
 11
-42.1451956861718
 21
59.655826468349844
 31
0.0
  0
LINE
  5
128
330
17
100
AcDbEntity
  8
0
100
AcDbLine
 10
-42.1451956861718
 20
59.655826468349844
 30
0.0
 11
-41.744771631883
 21
59.96512843816784
 31
0.0
  0
LINE
  5
129
330
17
100
AcDbEntity
  8
0
100
AcDbLine
 10
-41.744771631883
 20
59.96512843816784
 30
0.0
 11
-41.343479727233856
 21
60.27330361408151
 31
0.0
  0
LINE
  5
12A
330
17
100
AcDbEntity
  8
0
100
AcDbLine
 10
-41.343479727233856
 20
60.27330361408151
 30
0.0
 11
-40.94132314301409
 21
60.580349561058725
 31
0.0
  0
LINE
  5
12B
330
17
100
AcDbEntity
  8
0
100
AcDbLine
 10
-40.94132314301409
 20
60.580349561058725
 30
0.0
 11
-40.53830505684584
 21
60.88626385298973
 31
0.0
  0
LINE
  5
12C
330
17
100
AcDbEntity
  8
0
100
AcDbLine
 10
-40.53830505684584
 20
60.88626385298973
 30
0.0
 11
-40.134428653158224
 21
61.191044072706674
 31
0.0
  0
LINE
  5
12D
330
17
100
AcDbEntity
  8
0
100
AcDbLine
 10
-40.134428653158224
 20
61.191044072706674
 30
0.0
 11
-39.72969712316225
 21
61.49468781200254
 31
0.0
  0
LINE
  5
12E
330
17
100
AcDbEntity
  8
0
100
AcDbLine
 10
-39.72969712316225
 20
61.49468781200254
 30
0.0
 11
-39.324113664825916
 21
61.79719267164994
 31
0.0
  0
LINE
  5
12F
330
17
100
AcDbEntity
  8
0
100
AcDbLine
 10
-39.324113664825916
 20
61.79719267164994
 30
0.0
 11
-38.91768148284845
 21
62.098556261420484
 31
0.0
  0
LINE
  5
130
330
17
100
AcDbEntity
  8
0
100
AcDbLine
 10
-38.91768148284845
 20
62.098556261420484
 30
0.0
 11
-38.51040378863526
 21
62.39877620010351
 31
0.0
  0
LINE
  5
131
330
17
100
AcDbEntity
  8
0
100
AcDbLine
 10
-38.51040378863526
 20
62.39877620010351
 30
0.0
 11
-38.10228380027273
 21
62.697850115524645
 31
0.0
  0
LINE
  5
132
330
17
100
AcDbEntity
  8
0
100
AcDbLine
 10
-38.10228380027273
 20
62.697850115524645
 30
0.0
 11
-37.69332474250237
 21
62.99577564456497
 31
0.0
  0
LINE
  5
133
330
17
100
AcDbEntity
  8
0
100
AcDbLine
 10
-37.69332474250237
 20
62.99577564456497
 30
0.0
 11
-37.283529846695615
 21
63.29255043317947
 31
0.0
  0
LINE
  5
134
330
17
100
AcDbEntity
  8
0
100
AcDbLine
 10
-37.283529846695615
 20
63.29255043317947
 30
0.0
 11
-36.872902350828355
 21
63.58817213641545
 31
0.0
  0
LINE
  5
135
330
17
100
AcDbEntity
  8
0
100
AcDbLine
 10
-36.872902350828355
 20
63.58817213641545
 30
0.0
 11
-36.46144549945511
 21
63.88263841843154
 31
0.0
  0
LINE
  5
136
330
17
100
AcDbEntity
  8
0
100
AcDbLine
 10
-36.46144549945511
 20
63.88263841843154
 30
0.0
 11
-36.04916254368345
 21
64.17594695251573
 31
0.0
  0
LINE
  5
137
330
17
100
AcDbEntity
  8
0
100
AcDbLine
 10
-36.04916254368345
 20
64.17594695251573
 30
0.0
 11
-35.63605674114861
 21
64.46809542110391
 31
0.0
  0
LINE
  5
138
330
17
100
AcDbEntity
  8
0
100
AcDbLine
 10
-35.63605674114861
 20
64.46809542110391
 30
0.0
 11
-35.2221313559873
 21
64.7590815157982
 31
0.0
  0
LINE
  5
139
330
17
100
AcDbEntity
  8
0
100
AcDbLine
 10
-35.2221313559873
 20
64.7590815157982
 30
0.0
 11
-34.80738965881214
 21
65.04890293738522
 31
0.0
  0
LINE
  5
13A
330
17
100
AcDbEntity
  8
0
100
AcDbLine
 10
-34.80738965881214
 20
65.04890293738522
 30
0.0
 11
-34.39183492668599
 21
65.337557395854
 31
0.0
  0
LINE
  5
13B
330
17
100
AcDbEntity
  8
0
100
AcDbLine
 10
-34.39183492668599
 20
65.337557395854
 30
0.0
 11
-33.975470443095645
 21
65.62504261041455
 31
0.0
  0
LINE
  5
13C
330
17
100
AcDbEntity
  8
0
100
AcDbLine
 10
-33.975470443095645
 20
65.62504261041455
 30
0.0
 11
-33.55829949792614
 21
65.91135630951545
 31
0.0
  0
LINE
  5
13D
330
17
100
AcDbEntity
  8
0
100
AcDbLine
 10
-33.55829949792614
 20
65.91135630951545
 30
0.0
 11
-33.140325387434984
 21
66.19649623086191
 31
0.0
  0
LINE
  5
13E
330
17
100
AcDbEntity
  8
0
100
AcDbLine
 10
-33.140325387434984
 20
66.19649623086191
 30
0.0
 11
-32.721551414225516
 21
66.48046012143381
 31
0.0
  0
LINE
  5
13F
330
17
100
AcDbEntity
  8
0
100
AcDbLine
 10
-32.721551414225516
 20
66.48046012143381
 30
0.0
 11
-32.301980887221305
 21
66.7632457375034
 31
0.0
  0
LINE
  5
140
330
17
100
AcDbEntity
  8
0
100
AcDbLine
 10
-32.301980887221305
 20
66.7632457375034
 30
0.0
 11
-31.881617121639977
 21
67.04485084465283
 31
0.0
  0
LINE
  5
141
330
17
100
AcDbEntity
  8
0
100
AcDbLine
 10
-31.881617121639977
 20
67.04485084465283
 30
0.0
 11
-31.460463438966684
 21
67.32527321779217
 31
0.0
  0
LINE
  5
142
330
17
100
AcDbEntity
  8
0
100
AcDbLine
 10
-31.460463438966684
 20
67.32527321779217
 30
0.0
 11
-31.03852316692813
 21
67.60451064117676
 31
0.0
  0
LINE
  5
143
330
17
100
AcDbEntity
  8
0
100
AcDbLine
 10
-31.03852316692813
 20
67.60451064117676
 30
0.0
 11
-30.61579963946636
 21
67.88256090842471
 31
0.0
  0
LINE
  5
144
330
17
100
AcDbEntity
  8
0
100
AcDbLine
 10
-30.61579963946636
 20
67.88256090842471
 30
0.0
 11
-30.192296196712135
 21
68.15942182253444
 31
0.0
  0
LINE
  5
145
330
17
100
AcDbEntity
  8
0
100
AcDbLine
 10
-30.192296196712135
 20
68.15942182253444
 30
0.0
 11
-29.76801618495864
 21
68.43509119590207
 31
0.0
  0
LINE
  5
146
330
17
100
AcDbEntity
  8
0
100
AcDbLine
 10
-29.76801618495864
 20
68.43509119590207
 30
0.0
 11
-29.342962956635276
 21
68.70956685033839
 31
0.0
  0
LINE
  5
147
330
17
100
AcDbEntity
  8
0
100
AcDbLine
 10
-29.342962956635276
 20
68.70956685033839
 30
0.0
 11
-28.91713987028082
 21
68.98284661708657
 31
0.0
  0
LINE
  5
148
330
17
100
AcDbEntity
  8
0
100
AcDbLine
 10
-28.91713987028082
 20
68.98284661708657
 30
0.0
 11
-28.490550290517007
 21
69.25492833683886
 31
0.0
  0
LINE
  5
149
330
17
100
AcDbEntity
  8
0
100
AcDbLine
 10
-28.490550290517007
 20
69.25492833683886
 30
0.0
 11
-28.063197588022234
 21
69.52580985975389
 31
0.0
  0
LINE
  5
14A
330
17
100
AcDbEntity
  8
0
100
AcDbLine
 10
-28.063197588022234
 20
69.52580985975389
 30
0.0
 11
-27.635085139504355
 21
69.79548904547364
 31
0.0
  0
LINE
  5
14B
330
17
100
AcDbEntity
  8
0
100
AcDbLine
 10
-27.635085139504355
 20
69.79548904547364
 30
0.0
 11
-27.206216327674596
 21
70.06396376314017
 31
0.0
  0
LINE
  5
14C
330
17
100
AcDbEntity
  8
0
100
AcDbLine
 10
-27.206216327674596
 20
70.06396376314017
 30
0.0
 11
-26.77659454122042
 21
70.33123189141266
 31
0.0
  0
LINE
  5
14D
330
17
100
AcDbEntity
  8
0
100
AcDbLine
 10
-26.77659454122042
 20
70.33123189141266
 30
0.0
 11
-26.346223174778828
 21
70.59729131848421
 31
0.0
  0
LINE
  5
14E
330
17
100
AcDbEntity
  8
0
100
AcDbLine
 10
-26.346223174778828
 20
70.59729131848421
 30
0.0
 11
-25.915105628909757
 21
70.86213994209818
 31
0.0
  0
LINE
  5
14F
330
17
100
AcDbEntity
  8
0
100
AcDbLine
 10
-25.915105628909757
 20
70.86213994209818
 30
0.0
 11
-25.483245310068966
 21
71.12577566956521
 31
0.0
  0
LINE
  5
150
330
17
100
AcDbEntity
  8
0
100
AcDbLine
 10
-25.483245310068966
 20
71.12577566956521
 30
0.0
 11
-25.05064563058106
 21
71.38819641777961
 31
0.0
  0
LINE
  5
151
330
17
100
AcDbEntity
  8
0
100
AcDbLine
 10
-25.05064563058106
 20
71.38819641777961
 30
0.0
 11
-24.617310008612975
 21
71.64940011323567
 31
0.0
  0
LINE
  5
152
330
17
100
AcDbEntity
  8
0
100
AcDbLine
 10
-24.617310008612975
 20
71.64940011323567
 30
0.0
 11
-24.183241868146396
 21
71.90938469204424
 31
0.0
  0
LINE
  5
153
330
17
100
AcDbEntity
  8
0
100
AcDbLine
 10
-24.183241868146396
 20
71.90938469204424
 30
0.0
 11
-23.748444638951057
 21
72.16814809994897
 31
0.0
  0
LINE
  5
154
330
17
100
AcDbEntity
  8
0
100
AcDbLine
 10
-23.748444638951057
 20
72.16814809994897
 30
0.0
 11
-23.312921756557614
 21
72.42568829234249
 31
0.0
  0
LINE
  5
155
330
17
100
AcDbEntity
  8
0
100
AcDbLine
 10
-23.312921756557614
 20
72.42568829234249
 30
0.0
 11
-22.87667666223038
 21
72.68200323428265
 31
0.0
  0
LINE
  5
156
330
17
100
AcDbEntity
  8
0
100
AcDbLine
 10
-22.87667666223038
 20
72.68200323428265
 30
0.0
 11
-22.43971280294012
 21
72.93709090050861
 31
0.0
  0
LINE
  5
157
330
17
100
AcDbEntity
  8
0
100
AcDbLine
 10
-22.43971280294012
 20
72.93709090050861
 30
0.0
 11
-22.00203363133707
 21
73.19094927545662
 31
0.0
  0
LINE
  5
158
330
17
100
AcDbEntity
  8
0
100
AcDbLine
 10
-19.99999999999997
 20
73.7280225740957
 30
0.0
 11
-20.02117913069492
 21
73.7279665042556
 31
0.0
  0
LINE
  5
159
330
17
100
AcDbEntity
  8
0
100
AcDbLine
 10
-20.02117913069492
 20
73.7279665042556
 30
0.0
 11
-20.042357667634636
 21
73.72779829630721
 31
0.0
  0
LINE
  5
15A
330
17
100
AcDbEntity
  8
0
100
AcDbLine
 10
-20.042357667634636
 20
73.72779829630721
 30
0.0
 11
-20.063535017080525
 21
73.72751795496622
 31
0.0
  0
LINE
  5
15B
330
17
100
AcDbEntity
  8
0
100
AcDbLine
 10
-20.063535017080525
 20
73.72751795496622
 30
0.0
 11
-20.08471058532729
 21
73.72712548809199
 31
0.0
  0
LINE
  5
15C
330
17
100
AcDbEntity
  8
0
100
AcDbLine
 10
-20.08471058532729
 20
73.72712548809199
 30
0.0
 11
-20.10588377871957
 21
73.72662090668727
 31
0.0
  0
LINE
  5
15D
330
17
100
AcDbEntity
  8
0
100
AcDbLine
 10
-20.10588377871957
 20
73.72662090668727
 30
0.0
 11
-20.127054003668572
 21
73.72600422489799
 31
0.0
  0
LINE
  5
15E
330
17
100
AcDbEntity
  8
0
100
AcDbLine
 10
-20.127054003668572
 20
73.72600422489799
 30
0.0
 11
-20.148220666668745
 21
73.72527546001277
 31
0.0
  0
LINE
  5
15F
330
17
100
AcDbEntity
  8
0
100
AcDbLine
 10
-20.148220666668745
 20
73.72527546001277
 30
0.0
 11
-20.169383174314376
 21
73.72443463246246
 31
0.0
  0
LINE
  5
160
330
17
100
AcDbEntity
  8
0
100
AcDbLine
 10
-20.169383174314376
 20
73.72443463246246
 30
0.0
 11
-20.190540933316257
 21
73.7234817658196
 31
0.0
  0
LINE
  5
161
330
17
100
AcDbEntity
  8
0
100
AcDbLine
 10
-20.190540933316257
 20
73.7234817658196
 30
0.0
 11
-20.211693350518306
 21
73.72241688679773
 31
0.0
  0
LINE
  5
162
330
17
100
AcDbEntity
  8
0
100
AcDbLine
 10
-20.211693350518306
 20
73.72241688679773
 30
0.0
 11
-20.2328398329142
 21
73.72124002525067
 31
0.0
  0
LINE
  5
163
330
17
100
AcDbEntity
  8
0
100
AcDbLine
 10
-20.2328398329142
 20
73.72124002525067
 30
0.0
 11
-20.25397978766399
 21
73.71995121417159
 31
0.0
  0
LINE
  5
164
330
17
100
AcDbEntity
  8
0
100
AcDbLine
 10
-20.25397978766399
 20
73.71995121417159
 30
0.0
 11
-20.27511262211074
 21
73.71855048969225
 31
0.0
  0
LINE
  5
165
330
17
100
AcDbEntity
  8
0
100
AcDbLine
 10
-20.27511262211074
 20
73.71855048969225
 30
0.0
 11
-20.296237743797125
 21
73.71703789108183
 31
0.0
  0
LINE
  5
166
330
17
100
AcDbEntity
  8
0
100
AcDbLine
 10
-20.296237743797125
 20
73.71703789108183
 30
0.0
 11
-20.317354560482045
 21
73.71541346074592
 31
0.0
  0
LINE
  5
167
330
17
100
AcDbEntity
  8
0
100
AcDbLine
 10
-20.317354560482045
 20
73.71541346074592
 30
0.0
 11
-20.338462480157233
 21
73.7136772442253
 31
0.0
  0
LINE
  5
168
330
17
100
AcDbEntity
  8
0
100
AcDbLine
 10
-20.338462480157233
 20
73.7136772442253
 30
0.0
 11
-20.359560911063852
 21
73.71182929019463
 31
0.0
  0
LINE
  5
169
330
17
100
AcDbEntity
  8
0
100
AcDbLine
 10
-20.359560911063852
 20
73.71182929019463
 30
0.0
 11
-20.380649261709074
 21
73.70986965046119
 31
0.0
  0
LINE
  5
16A
330
17
100
AcDbEntity
  8
0
100
AcDbLine
 10
-20.380649261709074
 20
73.70986965046119
 30
0.0
 11
-20.401726940882675
 21
73.7077983799633
 31
0.0
  0
LINE
  5
16B
330
17
100
AcDbEntity
  8
0
100
AcDbLine
 10
-20.401726940882675
 20
73.7077983799633
 30
0.0
 11
-20.42279335767361
 21
73.70561553676886
 31
0.0
  0
LINE
  5
16C
330
17
100
AcDbEntity
  8
0
100
AcDbLine
 10
-20.42279335767361
 20
73.70561553676886
 30
0.0
 11
-20.44384792148656
 21
73.70332118207374
 31
0.0
  0
LINE
  5
16D
330
17
100
AcDbEntity
  8
0
100
AcDbLine
 10
-20.44384792148656
 20
73.70332118207374
 30
0.0
 11
-20.46489004205852
 21
73.70091538019994
 31
0.0
  0
LINE
  5
16E
330
17
100
AcDbEntity
  8
0
100
AcDbLine
 10
-20.46489004205852
 20
73.70091538019994
 30
0.0
 11
-20.485919129475317
 21
73.69839819859396
 31
0.0
  0
LINE
  5
16F
330
17
100
AcDbEntity
  8
0
100
AcDbLine
 10
-20.485919129475317
 20
73.69839819859396
 30
0.0
 11
-20.506934594188166
 21
73.69576970782478
 31
0.0
  0
LINE
  5
170
330
17
100
AcDbEntity
  8
0
100
AcDbLine
 10
-20.506934594188166
 20
73.69576970782478
 30
0.0
 11
-20.527935847030196
 21
73.69302998158192
 31
0.0
  0
LINE
  5
171
330
17
100
AcDbEntity
  8
0
100
AcDbLine
 10
-20.527935847030196
 20
73.69302998158192
 30
0.0
 11
-20.548922299232967
 21
73.69017909667338
 31
0.0
  0
LINE
  5
172
330
17
100
AcDbEntity
  8
0
100
AcDbLine
 10
-20.548922299232967
 20
73.69017909667338
 30
0.0
 11
-20.569893362442958
 21
73.6872171330235
 31
0.0
  0
LINE
  5
173
330
17
100
AcDbEntity
  8
0
100
AcDbLine
 10
-20.569893362442958
 20
73.6872171330235
 30
0.0
 11
-20.5908484487381
 21
73.68414417367069
 31
0.0
  0
LINE
  5
174
330
17
100
AcDbEntity
  8
0
100
AcDbLine
 10
-20.5908484487381
 20
73.68414417367069
 30
0.0
 11
-20.611786970644218
 21
73.68096030476512
 31
0.0
  0
LINE
  5
175
330
17
100
AcDbEntity
  8
0
100
AcDbLine
 10
-20.611786970644218
 20
73.68096030476512
 30
0.0
 11
-20.632708341151524
 21
73.67766561556633
 31
0.0
  0
LINE
  5
176
330
17
100
AcDbEntity
  8
0
100
AcDbLine
 10
-20.632708341151524
 20
73.67766561556633
 30
0.0
 11
-20.65361197373107
 21
73.6742601984406
 31
0.0
  0
LINE
  5
177
330
17
100
AcDbEntity
  8
0
100
AcDbLine
 10
-20.65361197373107
 20
73.6742601984406
 30
0.0
 11
-20.674497282351187
 21
73.6707441488586
 31
0.0
  0
LINE
  5
178
330
17
100
AcDbEntity
  8
0
100
AcDbLine
 10
-20.674497282351187
 20
73.6707441488586
 30
0.0
 11
-20.695363681493923
 21
73.66711756539246
 31
0.0
  0
LINE
  5
179
330
17
100
AcDbEntity
  8
0
100
AcDbLine
 10
-20.695363681493923
 20
73.66711756539246
 30
0.0
 11
-20.71621058617144
 21
73.66338054971315
 31
0.0
  0
LINE
  5
17A
330
17
100
AcDbEntity
  8
0
100
AcDbLine
 10
-20.71621058617144
 20
73.66338054971315
 30
0.0
 11
-20.73703741194243
 21
73.65953320658764
 31
0.0
  0
LINE
  5
17B
330
17
100
AcDbEntity
  8
0
100
AcDbLine
 10
-20.73703741194243
 20
73.65953320658764
 30
0.0
 11
-20.757843574928504
 21
73.65557564387586
 31
0.0
  0
LINE
  5
17C
330
17
100
AcDbEntity
  8
0
100
AcDbLine
 10
-20.757843574928504
 20
73.65557564387586
 30
0.0
 11
-20.778628491830545
 21
73.65150797252777
 31
0.0
  0
LINE
  5
17D
330
17
100
AcDbEntity
  8
0
100
AcDbLine
 10
-20.778628491830545
 20
73.65150797252777
 30
0.0
 11
-20.799391579945066
 21
73.64733030658022
 31
0.0
  0
LINE
  5
17E
330
17
100
AcDbEntity
  8
0
100
AcDbLine
 10
-20.799391579945066
 20
73.64733030658022
 30
0.0
 11
-20.820132257180553
 21
73.64304276315372
 31
0.0
  0
LINE
  5
17F
330
17
100
AcDbEntity
  8
0
100
AcDbLine
 10
-20.820132257180553
 20
73.64304276315372
 30
0.0
 11
-20.84084994207378
 21
73.63864546244923
 31
0.0
  0
LINE
  5
180
330
17
100
AcDbEntity
  8
0
100
AcDbLine
 10
-20.84084994207378
 20
73.63864546244923
 30
0.0
 11
-20.861544053806107
 21
73.63413852774471
 31
0.0
  0
LINE
  5
181
330
17
100
AcDbEntity
  8
0
100
AcDbLine
 10
-20.861544053806107
 20
73.63413852774471
 30
0.0
 11
-20.882214012219762
 21
73.62952208539173
 31
0.0
  0
LINE
  5
182
330
17
100
AcDbEntity
  8
0
100
AcDbLine
 10
-20.882214012219762
 20
73.62952208539173
 30
0.0
 11
-20.902859237834118
 21
73.62479626481185
 31
0.0
  0
LINE
  5
183
330
17
100
AcDbEntity
  8
0
100
AcDbLine
 10
-20.902859237834118
 20
73.62479626481185
 30
0.0
 11
-20.923479151861923
 21
73.6199611984931
 31
0.0
  0
LINE
  5
184
330
17
100
AcDbEntity
  8
0
100
AcDbLine
 10
-20.923479151861923
 20
73.6199611984931
 30
0.0
 11
-20.944073176225537
 21
73.61501702198618
 31
0.0
  0
LINE
  5
185
330
17
100
AcDbEntity
  8
0
100
AcDbLine
 10
-20.944073176225537
 20
73.61501702198618
 30
0.0
 11
-20.964640733573134
 21
73.60996387390067
 31
0.0
  0
LINE
  5
186
330
17
100
AcDbEntity
  8
0
100
AcDbLine
 10
-20.964640733573134
 20
73.60996387390067
 30
0.0
 11
-20.985181247294886
 21
73.60480189590118
 31
0.0
  0
LINE
  5
187
330
17
100
AcDbEntity
  8
0
100
AcDbLine
 10
-20.985181247294886
 20
73.60480189590118
 30
0.0
 11
-21.00569414153913
 21
73.59953123270333
 31
0.0
  0
LINE
  5
188
330
17
100
AcDbEntity
  8
0
100
AcDbLine
 10
-21.00569414153913
 20
73.59953123270333
 30
0.0
 11
-21.026178841228525
 21
73.59415203206977
 31
0.0
  0
LINE
  5
189
330
17
100
AcDbEntity
  8
0
100
AcDbLine
 10
-21.026178841228525
 20
73.59415203206977
 30
0.0
 11
-21.046634772076146
 21
73.58866444480594
 31
0.0
  0
LINE
  5
18A
330
17
100
AcDbEntity
  8
0
100
AcDbLine
 10
-21.046634772076146
 20
73.58866444480594
 30
0.0
 11
-21.06706136060161
 21
73.58306862475592
 31
0.0
  0
LINE
  5
18B
330
17
100
AcDbEntity
  8
0
100
AcDbLine
 10
-21.06706136060161
 20
73.58306862475592
 30
0.0
 11
-21.08745803414714
 21
73.57736472879809
 31
0.0
  0
LINE
  5
18C
330
17
100
AcDbEntity
  8
0
100
AcDbLine
 10
-21.08745803414714
 20
73.57736472879809
 30
0.0
 11
-21.107824220893622
 21
73.57155291684069
 31
0.0
  0
LINE
  5
18D
330
17
100
AcDbEntity
  8
0
100
AcDbLine
 10
-21.107824220893622
 20
73.57155291684069
 30
0.0
 11
-21.12815934987664
 21
73.56563335181741
 31
0.0
  0
LINE
  5
18E
330
17
100
AcDbEntity
  8
0
100
AcDbLine
 10
-21.12815934987664
 20
73.56563335181741
 30
0.0
 11
-21.14846285100248
 21
73.5596061996828
 31
0.0
  0
LINE
  5
18F
330
17
100
AcDbEntity
  8
0
100
AcDbLine
 10
-21.14846285100248
 20
73.5596061996828
 30
0.0
 11
-21.16873415506411
 21
73.55347162940758
 31
0.0
  0
LINE
  5
190
330
17
100
AcDbEntity
  8
0
100
AcDbLine
 10
-21.16873415506411
 20
73.55347162940758
 30
0.0
 11
-21.188972693757144
 21
73.54722981297392
 31
0.0
  0
LINE
  5
191
330
17
100
AcDbEntity
  8
0
100
AcDbLine
 10
-21.188972693757144
 20
73.54722981297392
 30
0.0
 11
-21.209177899695764
 21
73.54088092537067
 31
0.0
  0
LINE
  5
192
330
17
100
AcDbEntity
  8
0
100
AcDbLine
 10
-21.209177899695764
 20
73.54088092537067
 30
0.0
 11
-21.229349206428637
 21
73.53442514458837
 31
0.0
  0
LINE
  5
193
330
17
100
AcDbEntity
  8
0
100
AcDbLine
 10
-21.229349206428637
 20
73.53442514458837
 30
0.0
 11
-21.24948604845479
 21
73.52786265161433
 31
0.0
  0
LINE
  5
194
330
17
100
AcDbEntity
  8
0
100
AcDbLine
 10
-21.24948604845479
 20
73.52786265161433
 30
0.0
 11
-21.269587861239476
 21
73.5211936304275
 31
0.0
  0
LINE
  5
195
330
17
100
AcDbEntity
  8
0
100
AcDbLine
 10
-21.269587861239476
 20
73.5211936304275
 30
0.0
 11
-21.28965408122997
 21
73.51441826799338
 31
0.0
  0
LINE
  5
196
330
17
100
AcDbEntity
  8
0
100
AcDbLine
 10
-21.28965408122997
 20
73.51441826799338
 30
0.0
 11
-21.309684145871405
 21
73.50753675425868
 31
0.0
  0
LINE
  5
197
330
17
100
AcDbEntity
  8
0
100
AcDbLine
 10
-21.309684145871405
 20
73.50753675425868
 30
0.0
 11
-21.329677493622516
 21
73.50054928214611
 31
0.0
  0
LINE
  5
198
330
17
100
AcDbEntity
  8
0
100
AcDbLine
 10
-21.329677493622516
 20
73.50054928214611
 30
0.0
 11
-21.3496335639714
 21
73.4934560475489
 31
0.0
  0
LINE
  5
199
330
17
100
AcDbEntity
  8
0
100
AcDbLine
 10
-21.3496335639714
 20
73.4934560475489
 30
0.0
 11
-21.36955179745122
 21
73.48625724932529
 31
0.0
  0
LINE
  5
19A
330
17
100
AcDbEntity
  8
0
100
AcDbLine
 10
-21.36955179745122
 20
73.48625724932529
 30
0.0
 11
-21.38943163565589
 21
73.47895308929303
 31
0.0
  0
LINE
  5
19B
330
17
100
AcDbEntity
  8
0
100
AcDbLine
 10
-21.38943163565589
 20
73.47895308929303
 30
0.0
 11
-21.409272521255737
 21
73.47154377222367
 31
0.0
  0
LINE
  5
19C
330
17
100
AcDbEntity
  8
0
100
AcDbLine
 10
-21.409272521255737
 20
73.47154377222367
 30
0.0
 11
-21.429073898013126
 21
73.46402950583679
 31
0.0
  0
LINE
  5
19D
330
17
100
AcDbEntity
  8
0
100
AcDbLine
 10
-21.429073898013126
 20
73.46402950583679
 30
0.0
 11
-21.44883521079803
 21
73.45641050079429
 31
0.0
  0
LINE
  5
19E
330
17
100
AcDbEntity
  8
0
100
AcDbLine
 10
-21.44883521079803
 20
73.45641050079429
 30
0.0
 11
-21.468555905603637
 21
73.44868697069433
 31
0.0
  0
LINE
  5
19F
330
17
100
AcDbEntity
  8
0
100
AcDbLine
 10
-21.468555905603637
 20
73.44868697069433
 30
0.0
 11
-21.488235429561836
 21
73.44085913206547
 31
0.0
  0
LINE
  5
1A0
330
17
100
AcDbEntity
  8
0
100
AcDbLine
 10
-21.488235429561836
 20
73.44085913206547
 30
0.0
 11
-21.50787323095875
 21
73.43292720436055
 31
0.0
  0
LINE
  5
1A1
330
17
100
AcDbEntity
  8
0
100
AcDbLine
 10
-21.50787323095875
 20
73.43292720436055
 30
0.0
 11
-21.52746875925019
 21
73.42489140995053
 31
0.0
  0
LINE
  5
1A2
330
17
100
AcDbEntity
  8
0
100
AcDbLine
 10
-21.52746875925019
 20
73.42489140995053
 30
0.0
 11
-21.54702146507708
 21
73.41675197411824
 31
0.0
  0
LINE
  5
1A3
330
17
100
AcDbEntity
  8
0
100
AcDbLine
 10
-21.54702146507708
 20
73.41675197411824
 30
0.0
 11
-21.56653080028088
 21
73.40850912505215
 31
0.0
  0
LINE
  5
1A4
330
17
100
AcDbEntity
  8
0
100
AcDbLine
 10
-21.56653080028088
 20
73.40850912505215
 30
0.0
 11
-21.58599621791894
 21
73.40016309383984
 31
0.0
  0
LINE
  5
1A5
330
17
100
AcDbEntity
  8
0
100
AcDbLine
 10
-21.58599621791894
 20
73.40016309383984
 30
0.0
 11
-21.605417172279825
 21
73.39171411446165
 31
0.0
  0
LINE
  5
1A6
330
17
100
AcDbEntity
  8
0
100
AcDbLine
 10
-21.605417172279825
 20
73.39171411446165
 30
0.0
 11
-21.624793118898637
 21
73.38316242378403
 31
0.0
  0
LINE
  5
1A7
330
17
100
AcDbEntity
  8
0
100
AcDbLine
 10
-21.624793118898637
 20
73.38316242378403
 30
0.0
 11
-21.644123514572257
 21
73.37450826155293
 31
0.0
  0
LINE
  5
1A8
330
17
100
AcDbEntity
  8
0
100
AcDbLine
 10
-21.644123514572257
 20
73.37450826155293
 30
0.0
 11
-21.663407817374598
 21
73.36575187038714
 31
0.0
  0
LINE
  5
1A9
330
17
100
AcDbEntity
  8
0
100
AcDbLine
 10
-21.663407817374598
 20
73.36575187038714
 30
0.0
 11
-21.682645486671763
 21
73.35689349577135
 31
0.0
  0
LINE
  5
1AA
330
17
100
AcDbEntity
  8
0
100
AcDbLine
 10
-21.682645486671763
 20
73.35689349577135
 30
0.0
 11
-21.701835983137233
 21
73.34793338604939
 31
0.0
  0
LINE
  5
1AB
330
17
100
AcDbEntity
  8
0
100
AcDbLine
 10
-21.701835983137233
 20
73.34793338604939
 30
0.0
 11
-21.72097876876698
 21
73.33887179241724
 31
0.0
  0
LINE
  5
1AC
330
17
100
AcDbEntity
  8
0
100
AcDbLine
 10
-21.72097876876698
 20
73.33887179241724
 30
0.0
 11
-21.74007330689453
 21
73.32970896891592
 31
0.0
  0
LINE
  5
1AD
330
17
100
AcDbEntity
  8
0
100
AcDbLine
 10
-21.74007330689453
 20
73.32970896891592
 30
0.0
 11
-21.75911906220604
 21
73.32044517242447
 31
0.0
  0
LINE
  5
1AE
330
17
100
AcDbEntity
  8
0
100
AcDbLine
 10
-21.75911906220604
 20
73.32044517242447
 30
0.0
 11
-21.77811550075528
 21
73.3110806626527
 31
0.0
  0
LINE
  5
1AF
330
17
100
AcDbEntity
  8
0
100
AcDbLine
 10
-21.77811550075528
 20
73.3110806626527
 30
0.0
 11
-21.797062089978613
 21
73.30161570213387
 31
0.0
  0
LINE
  5
1B0
330
17
100
AcDbEntity
  8
0
100
AcDbLine
 10
-21.797062089978613
 20
73.30161570213387
 30
0.0
 11
-21.815958298709926
 21
73.2920505562174
 31
0.0
  0
LINE
  5
1B1
330
17
100
AcDbEntity
  8
0
100
AcDbLine
 10
-21.815958298709926
 20
73.2920505562174
 30
0.0
 11
-21.83480359719552
 21
73.28238549306138
 31
0.0
  0
LINE
  5
1B2
330
17
100
AcDbEntity
  8
0
100
AcDbLine
 10
-21.83480359719552
 20
73.28238549306138
 30
0.0
 11
-21.853597457108958
 21
73.27262078362511
 31
0.0
  0
LINE
  5
1B3
330
17
100
AcDbEntity
  8
0
100
AcDbLine
 10
-21.853597457108958
 20
73.27262078362511
 30
0.0
 11
-21.872339351565873
 21
73.26275670166142
 31
0.0
  0
LINE
  5
1B4
330
17
100
AcDbEntity
  8
0
100
AcDbLine
 10
-21.872339351565873
 20
73.26275670166142
 30
0.0
 11
-21.891028755138763
 21
73.25279352370906
 31
0.0
  0
LINE
  5
1B5
330
17
100
AcDbEntity
  8
0
100
AcDbLine
 10
-21.891028755138763
 20
73.25279352370906
 30
0.0
 11
-21.90966514387169
 21
73.24273152908492
 31
0.0
  0
LINE
  5
1B6
330
17
100
AcDbEntity
  8
0
100
AcDbLine
 10
-21.90966514387169
 20
73.24273152908492
 30
0.0
 11
-21.928247995294978
 21
73.23257099987623
 31
0.0
  0
LINE
  5
1B7
330
17
100
AcDbEntity
  8
0
100
AcDbLine
 10
-21.928247995294978
 20
73.23257099987623
 30
0.0
 11
-21.946776788439884
 21
73.22231222093261
 31
0.0
  0
LINE
  5
1B8
330
17
100
AcDbEntity
  8
0
100
AcDbLine
 10
-21.946776788439884
 20
73.22231222093261
 30
0.0
 11
-21.965251003853165
 21
73.2119554798581
 31
0.0
  0
LINE
  5
1B9
330
17
100
AcDbEntity
  8
0
100
AcDbLine
 10
-21.965251003853165
 20
73.2119554798581
 30
0.0
 11
-21.983670123611674
 21
73.20150106700311
 31
0.0
  0
LINE
  5
1BA
330
17
100
AcDbEntity
  8
0
100
AcDbLine
 10
-21.983670123611674
 20
73.20150106700311
 30
0.0
 11
-22.002033631336857
 21
73.19094927545628
 31
0.0
  0
LINE
  5
1BB
330
17
100
AcDbEntity
  8
0
100
AcDbLine
 10
-15.999999999999972
 20
69.7280225740957
 30
0.0
 11
-16.00050348930447
 21
69.79148642943494
 31
0.0
  0
LINE
  5
1BC
330
17
100
AcDbEntity
  8
0
100
AcDbLine
 10
-16.00050348930447
 20
69.79148642943494
 30
0.0
 11
-16.00201383046723
 21
69.85493430808798
 31
0.0
  0
LINE
  5
1BD
330
17
100
AcDbEntity
  8
0
100
AcDbLine
 10
-16.00201383046723
 20
69.85493430808798
 30
0.0
 11
-16.00453064326794
 21
69.91835023739067
 31
0.0
  0
LINE
  5
1BE
330
17
100
AcDbEntity
  8
0
100
AcDbLine
 10
-16.00453064326794
 20
69.91835023739067
 30
0.0
 11
-16.008053294112432
 21
69.98171825272196
 31
0.0
  0
LINE
  5
1BF
330
17
100
AcDbEntity
  8
0
100
AcDbLine
 10
-16.008053294112432
 20
69.98171825272196
 30
0.0
 11
-16.0125808961922
 21
70.04502240152286
 31
0.0
  0
LINE
  5
1C0
330
17
100
AcDbEntity
  8
0
100
AcDbLine
 10
-16.0125808961922
 20
70.04502240152286
 30
0.0
 11
-16.018112309707632
 21
70.10824674731244
 31
0.0
  0
LINE
  5
1C1
330
17
100
AcDbEntity
  8
0
100
AcDbLine
 10
-16.018112309707632
 20
70.10824674731244
 30
0.0
 11
-16.024646142154957
 21
70.17137537369975
 31
0.0
  0
LINE
  5
1C2
330
17
100
AcDbEntity
  8
0
100
AcDbLine
 10
-16.024646142154957
 20
70.17137537369975
 30
0.0
 11
-16.03218074867679
 21
70.2343923883907
 31
0.0
  0
LINE
  5
1C3
330
17
100
AcDbEntity
  8
0
100
AcDbLine
 10
-16.03218074867679
 20
70.2343923883907
 30
0.0
 11
-16.04071423247624
 21
70.29728192718885
 31
0.0
  0
LINE
  5
1C4
330
17
100
AcDbEntity
  8
0
100
AcDbLine
 10
-16.04071423247624
 20
70.29728192718885
 30
0.0
 11
-16.050244445294396
 21
70.3600281579891
 31
0.0
  0
LINE
  5
1C5
330
17
100
AcDbEntity
  8
0
100
AcDbLine
 10
-16.050244445294396
 20
70.3600281579891
 30
0.0
 11
-16.06076898795114
 21
70.42261528476342
 31
0.0
  0
LINE
  5
1C6
330
17
100
AcDbEntity
  8
0
100
AcDbLine
 10
-16.06076898795114
 20
70.42261528476342
 30
0.0
 11
-16.072285210949143
 21
70.48502755153734
 31
0.0
  0
LINE
  5
1C7
330
17
100
AcDbEntity
  8
0
100
AcDbLine
 10
-16.072285210949143
 20
70.48502755153734
 30
0.0
 11
-16.084790215140856
 21
70.54724924635647
 31
0.0
  0
LINE
  5
1C8
330
17
100
AcDbEntity
  8
0
100
AcDbLine
 10
-16.084790215140856
 20
70.54724924635647
 30
0.0
 11
-16.098280852458345
 21
70.60926470524187
 31
0.0
  0
LINE
  5
1C9
330
17
100
AcDbEntity
  8
0
100
AcDbLine
 10
-16.098280852458345
 20
70.60926470524187
 30
0.0
 11
-16.112753726705805
 21
70.67105831613341
 31
0.0
  0
LINE
  5
1CA
330
17
100
AcDbEntity
  8
0
100
AcDbLine
 10
-16.112753726705805
 20
70.67105831613341
 30
0.0
 11
-16.128205194414548
 21
70.73261452282001
 31
0.0
  0
LINE
  5
1CB
330
17
100
AcDbEntity
  8
0
100
AcDbLine
 10
-16.128205194414548
 20
70.73261452282001
 30
0.0
 11
-16.144631365760205
 21
70.79391782885584
 31
0.0
  0
LINE
  5
1CC
330
17
100
AcDbEntity
  8
0
100
AcDbLine
 10
-16.144631365760205
 20
70.79391782885584
 30
0.0
 11
-16.16202810554198
 21
70.85495280146142
 31
0.0
  0
LINE
  5
1CD
330
17
100
AcDbEntity
  8
0
100
AcDbLine
 10
-16.16202810554198
 20
70.85495280146142
 30
0.0
 11
-16.180391034223675
 21
70.9157040754088
 31
0.0
  0
LINE
  5
1CE
330
17
100
AcDbEntity
  8
0
100
AcDbLine
 10
-16.180391034223675
 20
70.9157040754088
 30
0.0
 11
-16.19971552903619
 21
70.97615635688965
 31
0.0
  0
LINE
  5
1CF
330
17
100
AcDbEntity
  8
0
100
AcDbLine
 10
-16.19971552903619
 20
70.97615635688965
 30
0.0
 11
-16.219996725141296
 21
71.03629442736539
 31
0.0
  0
LINE
  5
1D0
330
17
100
AcDbEntity
  8
0
100
AcDbLine
 10
-16.219996725141296
 20
71.03629442736539
 30
0.0
 11
-16.241229516856336
 21
71.09610314739838
 31
0.0
  0
LINE
  5
1D1
330
17
100
AcDbEntity
  8
0
100
AcDbLine
 10
-16.241229516856336
 20
71.09610314739838
 30
0.0
 11
-16.263408558939545
 21
71.15556746046319
 31
0.0
  0
LINE
  5
1D2
330
17
100
AcDbEntity
  8
0
100
AcDbLine
 10
-16.263408558939545
 20
71.15556746046319
 30
0.0
 11
-16.28652826793568
 21
71.21467239673701
 31
0.0
  0
LINE
  5
1D3
330
17
100
AcDbEntity
  8
0
100
AcDbLine
 10
-16.28652826793568
 20
71.21467239673701
 30
0.0
 11
-16.310582823581647
 21
71.27340307686822
 31
0.0
  0
LINE
  5
1D4
330
17
100
AcDbEntity
  8
0
100
AcDbLine
 10
-16.310582823581647
 20
71.27340307686822
 30
0.0
 11
-16.335566170271694
 21
71.33174471572215
 31
0.0
  0
LINE
  5
1D5
330
17
100
AcDbEntity
  8
0
100
AcDbLine
 10
-16.335566170271694
 20
71.33174471572215
 30
0.0
 11
-16.3614720185819
 21
71.38968262610325
 31
0.0
  0
LINE
  5
1D6
330
17
100
AcDbEntity
  8
0
100
AcDbLine
 10
-16.3614720185819
 20
71.38968262610325
 30
0.0
 11
-16.388293846853486
 21
71.44720222245239
 31
0.0
  0
LINE
  5
1D7
330
17
100
AcDbEntity
  8
0
100
AcDbLine
 10
-16.388293846853486
 20
71.44720222245239
 30
0.0
 11
-16.41602490283463
 21
71.5042890245188
 31
0.0
  0
LINE
  5
1D8
330
17
100
AcDbEntity
  8
0
100
AcDbLine
 10
-16.41602490283463
 20
71.5042890245188
 30
0.0
 11
-16.44465820538028
 21
71.56092866100535
 31
0.0
  0
LINE
  5
1D9
330
17
100
AcDbEntity
  8
0
100
AcDbLine
 10
-16.44465820538028
 20
71.56092866100535
 30
0.0
 11
-16.474186546209644
 21
71.61710687318643
 31
0.0
  0
LINE
  5
1DA
330
17
100
AcDbEntity
  8
0
100
AcDbLine
 10
-16.474186546209644
 20
71.61710687318643
 30
0.0
 11
-16.50460249172083
 21
71.67280951849757
 31
0.0
  0
LINE
  5
1DB
330
17
100
AcDbEntity
  8
0
100
AcDbLine
 10
-16.50460249172083
 20
71.67280951849757
 30
0.0
 11
-16.535898384862215
 21
71.7280225740957
 31
0.0
  0
LINE
  5
1DC
330
17
100
AcDbEntity
  8
0
100
AcDbLine
 10
-16.535898384862215
 20
71.7280225740957
 30
0.0
 11
-16.568066347060064
 21
71.78273214038933
 31
0.0
  0
LINE
  5
1DD
330
17
100
AcDbEntity
  8
0
100
AcDbLine
 10
-16.568066347060064
 20
71.78273214038933
 30
0.0
 11
-16.601098280201914
 21
71.83692444453771
 31
0.0
  0
LINE
  5
1DE
330
17
100
AcDbEntity
  8
0
100
AcDbLine
 10
-16.601098280201914
 20
71.83692444453771
 30
0.0
 11
-16.634985868675248
 21
71.89058584391809
 31
0.0
  0
LINE
  5
1DF
330
17
100
AcDbEntity
  8
0
100
AcDbLine
 10
-16.634985868675248
 20
71.89058584391809
 30
0.0
 11
-16.669720581460886
 21
71.94370282956014
 31
0.0
  0
LINE
  5
1E0
330
17
100
AcDbEntity
  8
0
100
AcDbLine
 10
-16.669720581460886
 20
71.94370282956014
 30
0.0
 11
-16.70529367428064
 21
71.99626202954678
 31
0.0
  0
LINE
  5
1E1
330
17
100
AcDbEntity
  8
0
100
AcDbLine
 10
-16.70529367428064
 20
71.99626202954678
 30
0.0
 11
-16.741696191798628
 21
72.0482502123805
 31
0.0
  0
LINE
  5
1E2
330
17
100
AcDbEntity
  8
0
100
AcDbLine
 10
-16.741696191798628
 20
72.0482502123805
 30
0.0
 11
-16.778918969875736
 21
72.09965429031426
 31
0.0
  0
LINE
  5
1E3
330
17
100
AcDbEntity
  8
0
100
AcDbLine
 10
-16.778918969875736
 20
72.09965429031426
 30
0.0
 11
-16.816952637876643
 21
72.15046132264636
 31
0.0
  0
LINE
  5
1E4
330
17
100
AcDbEntity
  8
0
100
AcDbLine
 10
-16.816952637876643
 20
72.15046132264636
 30
0.0
 11
-16.85578762102882
 21
72.20065851897813
 31
0.0
  0
LINE
  5
1E5
330
17
100
AcDbEntity
  8
0
100
AcDbLine
 10
-16.85578762102882
 20
72.20065851897813
 30
0.0
 11
-16.895414142832944
 21
72.2502332424338
 31
0.0
  0
LINE
  5
1E6
330
17
100
AcDbEntity
  8
0
100
AcDbLine
 10
-16.895414142832944
 20
72.2502332424338
 30
0.0
 11
-16.93582222752406
 21
72.29917301284186
 31
0.0
  0
LINE
  5
1E7
330
17
100
AcDbEntity
  8
0
100
AcDbLine
 10
-16.93582222752406
 20
72.29917301284186
 30
0.0
 11
-16.97700170258294
 21
72.34746550987684
 31
0.0
  0
LINE
  5
1E8
330
17
100
AcDbEntity
  8
0
100
AcDbLine
 10
-16.97700170258294
 20
72.34746550987684
 30
0.0
 11
-17.01894220129695
 21
72.39509857616088
 31
0.0
  0
LINE
  5
1E9
330
17
100
AcDbEntity
  8
0
100
AcDbLine
 10
-17.01894220129695
 20
72.39509857616088
 30
0.0
 11
-17.061633165369837
 21
72.44206022032424
 31
0.0
  0
LINE
  5
1EA
330
17
100
AcDbEntity
  8
0
100
AcDbLine
 10
-17.061633165369837
 20
72.44206022032424
 30
0.0
 11
-17.10506384757969
 21
72.48833862002415
 31
0.0
  0
LINE
  5
1EB
330
17
100
AcDbEntity
  8
0
100
AcDbLine
 10
-17.10506384757969
 20
72.48833862002415
 30
0.0
 11
-17.14922331448452
 21
72.53392212492099
 31
0.0
  0
LINE
  5
1EC
330
17
100
AcDbEntity
  8
0
100
AcDbLine
 10
-17.14922331448452
 20
72.53392212492099
 30
0.0
 11
-17.194100449174687
 21
72.57879925961116
 31
0.0
  0
LINE
  5
1ED
330
17
100
AcDbEntity
  8
0
100
AcDbLine
 10
-17.194100449174687
 20
72.57879925961116
 30
0.0
 11
-17.239683954071523
 21
72.62295872651599
 31
0.0
  0
LINE
  5
1EE
330
17
100
AcDbEntity
  8
0
100
AcDbLine
 10
-17.239683954071523
 20
72.62295872651599
 30
0.0
 11
-17.285962353771442
 21
72.66638940872583
 31
0.0
  0
LINE
  5
1EF
330
17
100
AcDbEntity
  8
0
100
AcDbLine
 10
-17.285962353771442
 20
72.66638940872583
 30
0.0
 11
-17.332923997934806
 21
72.70908037279872
 31
0.0
  0
LINE
  5
1F0
330
17
100
AcDbEntity
  8
0
100
AcDbLine
 10
-17.332923997934806
 20
72.70908037279872
 30
0.0
 11
-17.38055706421883
 21
72.75102087151274
 31
0.0
  0
LINE
  5
1F1
330
17
100
AcDbEntity
  8
0
100
AcDbLine
 10
-17.38055706421883
 20
72.75102087151274
 30
0.0
 11
-17.428849561253813
 21
72.79220034657162
 31
0.0
  0
LINE
  5
1F2
330
17
100
AcDbEntity
  8
0
100
AcDbLine
 10
-17.428849561253813
 20
72.79220034657162
 30
0.0
 11
-17.47778933166188
 21
72.83260843126273
 31
0.0
  0
LINE
  5
1F3
330
17
100
AcDbEntity
  8
0
100
AcDbLine
 10
-17.47778933166188
 20
72.83260843126273
 30
0.0
 11
-17.527364055117552
 21
72.87223495306685
 31
0.0
  0
LINE
  5
1F4
330
17
100
AcDbEntity
  8
0
100
AcDbLine
 10
-17.527364055117552
 20
72.87223495306685
 30
0.0
 11
-17.577561251449303
 21
72.91106993621904
 31
0.0
  0
LINE
  5
1F5
330
17
100
AcDbEntity
  8
0
100
AcDbLine
 10
-17.577561251449303
 20
72.91106993621904
 30
0.0
 11
-17.62836828378141
 21
72.94910360421994
 31
0.0
  0
LINE
  5
1F6
330
17
100
AcDbEntity
  8
0
100
AcDbLine
 10
-17.62836828378141
 20
72.94910360421994
 30
0.0
 11
-17.67977236171518
 21
72.98632638229705
 31
0.0
  0
LINE
  5
1F7
330
17
100
AcDbEntity
  8
0
100
AcDbLine
 10
-17.67977236171518
 20
72.98632638229705
 30
0.0
 11
-17.731760544548887
 21
73.02272889981504
 31
0.0
  0
LINE
  5
1F8
330
17
100
AcDbEntity
  8
0
100
AcDbLine
 10
-17.731760544548887
 20
73.02272889981504
 30
0.0
 11
-17.78431974453553
 21
73.0583019926348
 31
0.0
  0
LINE
  5
1F9
330
17
100
AcDbEntity
  8
0
100
AcDbLine
 10
-17.78431974453553
 20
73.0583019926348
 30
0.0
 11
-17.83743673017758
 21
73.09303670542043
 31
0.0
  0
LINE
  5
1FA
330
17
100
AcDbEntity
  8
0
100
AcDbLine
 10
-17.83743673017758
 20
73.09303670542043
 30
0.0
 11
-17.89109812955796
 21
73.12692429389377
 31
0.0
  0
LINE
  5
1FB
330
17
100
AcDbEntity
  8
0
100
AcDbLine
 10
-17.89109812955796
 20
73.12692429389377
 30
0.0
 11
-17.945290433706347
 21
73.15995622703561
 31
0.0
  0
LINE
  5
1FC
330
17
100
AcDbEntity
  8
0
100
AcDbLine
 10
-17.945290433706347
 20
73.15995622703561
 30
0.0
 11
-17.99999999999997
 21
73.19212418923345
 31
0.0
  0
LINE
  5
1FD
330
17
100
AcDbEntity
  8
0
100
AcDbLine
 10
-17.99999999999997
 20
73.19212418923345
 30
0.0
 11
-18.055213055598095
 21
73.22342008237484
 31
0.0
  0
LINE
  5
1FE
330
17
100
AcDbEntity
  8
0
100
AcDbLine
 10
-18.055213055598095
 20
73.22342008237484
 30
0.0
 11
-18.110915700909242
 21
73.25383602788604
 31
0.0
  0
LINE
  5
1FF
330
17
100
AcDbEntity
  8
0
100
AcDbLine
 10
-18.110915700909242
 20
73.25383602788604
 30
0.0
 11
-18.16709391309033
 21
73.2833643687154
 31
0.0
  0
LINE
  5
200
330
17
100
AcDbEntity
  8
0
100
AcDbLine
 10
-18.16709391309033
 20
73.2833643687154
 30
0.0
 11
-18.223733549576874
 21
73.31199767126105
 31
0.0
  0
LINE
  5
201
330
17
100
AcDbEntity
  8
0
100
AcDbLine
 10
-18.223733549576874
 20
73.31199767126105
 30
0.0
 11
-18.280820351643285
 21
73.33972872724219
 31
0.0
  0
LINE
  5
202
330
17
100
AcDbEntity
  8
0
100
AcDbLine
 10
-18.280820351643285
 20
73.33972872724219
 30
0.0
 11
-18.338339947992427
 21
73.36655055551378
 31
0.0
  0
LINE
  5
203
330
17
100
AcDbEntity
  8
0
100
AcDbLine
 10
-18.338339947992427
 20
73.36655055551378
 30
0.0
 11
-18.396277858373516
 21
73.39245640382399
 31
0.0
  0
LINE
  5
204
330
17
100
AcDbEntity
  8
0
100
AcDbLine
 10
-18.396277858373516
 20
73.39245640382399
 30
0.0
 11
-18.45461949722746
 21
73.41743975051403
 31
0.0
  0
LINE
  5
205
330
17
100
AcDbEntity
  8
0
100
AcDbLine
 10
-18.45461949722746
 20
73.41743975051403
 30
0.0
 11
-18.51335017735866
 21
73.44149430616
 31
0.0
  0
LINE
  5
206
330
17
100
AcDbEntity
  8
0
100
AcDbLine
 10
-18.51335017735866
 20
73.44149430616
 30
0.0
 11
-18.572455113632483
 21
73.46461401515613
 31
0.0
  0
LINE
  5
207
330
17
100
AcDbEntity
  8
0
100
AcDbLine
 10
-18.572455113632483
 20
73.46461401515613
 30
0.0
 11
-18.631919426697294
 21
73.48679305723934
 31
0.0
  0
LINE
  5
208
330
17
100
AcDbEntity
  8
0
100
AcDbLine
 10
-18.631919426697294
 20
73.48679305723934
 30
0.0
 11
-18.691728146730284
 21
73.50802584895438
 31
0.0
  0
LINE
  5
209
330
17
100
AcDbEntity
  8
0
100
AcDbLine
 10
-18.691728146730284
 20
73.50802584895438
 30
0.0
 11
-18.751866217206025
 21
73.52830704505949
 31
0.0
  0
LINE
  5
20A
330
17
100
AcDbEntity
  8
0
100
AcDbLine
 10
-18.751866217206025
 20
73.52830704505949
 30
0.0
 11
-18.81231849868687
 21
73.547631539872
 31
0.0
  0
LINE
  5
20B
330
17
100
AcDbEntity
  8
0
100
AcDbLine
 10
-18.81231849868687
 20
73.547631539872
 30
0.0
 11
-18.873069772634253
 21
73.5659944685537
 31
0.0
  0
LINE
  5
20C
330
17
100
AcDbEntity
  8
0
100
AcDbLine
 10
-18.873069772634253
 20
73.5659944685537
 30
0.0
 11
-18.934104745239832
 21
73.58339120833547
 31
0.0
  0
LINE
  5
20D
330
17
100
AcDbEntity
  8
0
100
AcDbLine
 10
-18.934104745239832
 20
73.58339120833547
 30
0.0
 11
-18.995408051275653
 21
73.59981737968113
 31
0.0
  0
LINE
  5
20E
330
17
100
AcDbEntity
  8
0
100
AcDbLine
 10
-18.995408051275653
 20
73.59981737968113
 30
0.0
 11
-19.056964257962264
 21
73.61526884738987
 31
0.0
  0
LINE
  5
20F
330
17
100
AcDbEntity
  8
0
100
AcDbLine
 10
-19.056964257962264
 20
73.61526884738987
 30
0.0
 11
-19.11875786885381
 21
73.62974172163733
 31
0.0
  0
LINE
  5
210
330
17
100
AcDbEntity
  8
0
100
AcDbLine
 10
-19.11875786885381
 20
73.62974172163733
 30
0.0
 11
-19.18077332773921
 21
73.64323235895482
 31
0.0
  0
LINE
  5
211
330
17
100
AcDbEntity
  8
0
100
AcDbLine
 10
-19.18077332773921
 20
73.64323235895482
 30
0.0
 11
-19.24299502255833
 21
73.65573736314653
 31
0.0
  0
LINE
  5
212
330
17
100
AcDbEntity
  8
0
100
AcDbLine
 10
-19.24299502255833
 20
73.65573736314653
 30
0.0
 11
-19.30540728933225
 21
73.66725358614454
 31
0.0
  0
LINE
  5
213
330
17
100
AcDbEntity
  8
0
100
AcDbLine
 10
-19.30540728933225
 20
73.66725358614454
 30
0.0
 11
-19.36799441610657
 21
73.67777812880128
 31
0.0
  0
LINE
  5
214
330
17
100
AcDbEntity
  8
0
100
AcDbLine
 10
-19.36799441610657
 20
73.67777812880128
 30
0.0
 11
-19.43074064690683
 21
73.68730834161943
 31
0.0
  0
LINE
  5
215
330
17
100
AcDbEntity
  8
0
100
AcDbLine
 10
-19.43074064690683
 20
73.68730834161943
 30
0.0
 11
-19.493630185704973
 21
73.69584182541888
 31
0.0
  0
LINE
  5
216
330
17
100
AcDbEntity
  8
0
100
AcDbLine
 10
-19.493630185704973
 20
73.69584182541888
 30
0.0
 11
-19.556647200395926
 21
73.70337643194073
 31
0.0
  0
LINE
  5
217
330
17
100
AcDbEntity
  8
0
100
AcDbLine
 10
-19.556647200395926
 20
73.70337643194073
 30
0.0
 11
-19.619775826783243
 21
73.70991026438804
 31
0.0
  0
LINE
  5
218
330
17
100
AcDbEntity
  8
0
100
AcDbLine
 10
-19.619775826783243
 20
73.70991026438804
 30
0.0
 11
-19.683000172572818
 21
73.71544167790347
 31
0.0
  0
LINE
  5
219
330
17
100
AcDbEntity
  8
0
100
AcDbLine
 10
-19.683000172572818
 20
73.71544167790347
 30
0.0
 11
-19.746304321373714
 21
73.71996927998325
 31
0.0
  0
LINE
  5
21A
330
17
100
AcDbEntity
  8
0
100
AcDbLine
 10
-19.746304321373714
 20
73.71996927998325
 30
0.0
 11
-19.809672336705002
 21
73.72349193082773
 31
0.0
  0
LINE
  5
21B
330
17
100
AcDbEntity
  8
0
100
AcDbLine
 10
-19.809672336705002
 20
73.72349193082773
 30
0.0
 11
-19.873088266007702
 21
73.72600874362844
 31
0.0
  0
LINE
  5
21C
330
17
100
AcDbEntity
  8
0
100
AcDbLine
 10
-19.873088266007702
 20
73.72600874362844
 30
0.0
 11
-19.93653614466074
 21
73.7275190847912
 31
0.0
  0
LINE
  5
21D
330
17
100
AcDbEntity
  8
0
100
AcDbLine
 10
-19.93653614466074
 20
73.7275190847912
 30
0.0
 11
-19.99999999999997
 21
73.7280225740957
 31
0.0
  0
LINE
  5
21E
330
17
100
AcDbEntity
  8
0
100
AcDbLine
 10
-15.999999999999972
 20
3.0000000000001705
 30
0.0
 11
-15.999999999999972
 21
69.7280225740957
 31
0.0
  0
LINE
  5
21F
330
17
100
AcDbEntity
  8
0
100
AcDbLine
 10
-5.999999999999991
 20
3.00000000000017
 30
0.0
 11
-15.999999999999972
 21
3.00000000000017
 31
0.0
  0
LINE
  5
220
330
17
100
AcDbEntity
  8
0
100
AcDbLine
 10
-5.999999999999971
 20
96.9556441395064
 30
0.0
 11
-5.999999999999971
 21
3.00000000000017
 31
0.0
  0
LINE
  5
221
330
17
100
AcDbEntity
  8
0
100
AcDbLine
 10
-6.000000000000001
 20
97.7359340850124
 30
0.0
 11
-6.000000000000001
 21
96.9556441395064
 31
0.0
  0
LINE
  5
222
330
17
100
AcDbEntity
  8
0
100
AcDbLine
 10
-107.09802419314195
 20
3.000000000000071
 30
0.0
 11
-106.46496316598271
 21
4.283044503305177
 31
0.0
  0
LINE
  5
223
330
17
100
AcDbEntity
  8
0
100
AcDbLine
 10
-106.46496316598271
 20
4.283044503305177
 30
0.0
 11
-105.82250548888041
 21
5.561409707267316
 31
0.0
  0
LINE
  5
224
330
17
100
AcDbEntity
  8
0
100
AcDbLine
 10
-105.82250548888041
 20
5.561409707267316
 30
0.0
 11
-105.17068574674593
 21
6.835026794673539
 31
0.0
  0
LINE
  5
225
330
17
100
AcDbEntity
  8
0
100
AcDbLine
 10
-105.17068574674593
 20
6.835026794673539
 30
0.0
 11
-104.50953902847118
 21
8.10382720391189
 31
0.0
  0
LINE
  5
226
330
17
100
AcDbEntity
  8
0
100
AcDbLine
 10
-104.50953902847118
 20
8.10382720391189
 30
0.0
 11
-103.83910092503936
 21
9.367742632663393
 31
0.0
  0
LINE
  5
227
330
17
100
AcDbEntity
  8
0
100
AcDbLine
 10
-103.83910092503936
 20
9.367742632663393
 30
0.0
 11
-103.15940752760963
 21
10.626705041577722
 31
0.0
  0
LINE
  5
228
330
17
100
AcDbEntity
  8
0
100
AcDbLine
 10
-103.15940752760963
 20
10.626705041577722
 30
0.0
 11
-102.47049542557386
 21
11.880646657937078
 31
0.0
  0
LINE
  5
229
330
17
100
AcDbEntity
  8
0
100
AcDbLine
 10
-102.47049542557386
 20
11.880646657937078
 30
0.0
 11
-101.7724017045872
 21
13.129499979303475
 31
0.0
  0
LINE
  5
22A
330
17
100
AcDbEntity
  8
0
100
AcDbLine
 10
-101.7724017045872
 20
13.129499979303475
 30
0.0
 11
-101.06516394457137
 21
14.373197777153578
 31
0.0
  0
LINE
  5
22B
330
17
100
AcDbEntity
  8
0
100
AcDbLine
 10
-101.06516394457137
 20
14.373197777153578
 30
0.0
 11
-100.34882021769212
 21
15.611673100496603
 31
0.0
  0
LINE
  5
22C
330
17
100
AcDbEntity
  8
0
100
AcDbLine
 10
-100.34882021769212
 20
15.611673100496603
 30
0.0
 11
-99.62340908630915
 21
16.844859279479735
 31
0.0
  0
LINE
  5
22D
330
17
100
AcDbEntity
  8
0
100
AcDbLine
 10
-99.62340908630915
 20
16.844859279479735
 30
0.0
 11
-98.88896960090077
 21
18.072689928975834
 31
0.0
  0
LINE
  5
22E
330
17
100
AcDbEntity
  8
0
100
AcDbLine
 10
-98.88896960090077
 20
18.072689928975834
 30
0.0
 11
-98.14554129796122
 21
19.295098952158227
 31
0.0
  0
LINE
  5
22F
330
17
100
AcDbEntity
  8
0
100
AcDbLine
 10
-98.14554129796122
 20
19.295098952158227
 30
0.0
 11
-97.3931641978728
 21
20.512020544057847
 31
0.0
  0
LINE
  5
230
330
17
100
AcDbEntity
  8
0
100
AcDbLine
 10
-97.3931641978728
 20
20.512020544057847
 30
0.0
 11
-96.63187880275109
 21
21.72338919510659
 31
0.0
  0
LINE
  5
231
330
17
100
AcDbEntity
  8
0
100
AcDbLine
 10
-96.63187880275109
 20
21.72338919510659
 30
0.0
 11
-95.86172609426492
 21
22.929139694662908
 31
0.0
  0
LINE
  5
232
330
17
100
AcDbEntity
  8
0
100
AcDbLine
 10
-95.86172609426492
 20
22.929139694662908
 30
0.0
 11
-95.08274753142999
 21
24.129207134523256
 31
0.0
  0
LINE
  5
233
330
17
100
AcDbEntity
  8
0
100
AcDbLine
 10
-95.08274753142999
 20
24.129207134523256
 30
0.0
 11
-94.29498504837738
 21
25.32352691241512
 31
0.0
  0
LINE
  5
234
330
17
100
AcDbEntity
  8
0
100
AcDbLine
 10
-94.29498504837738
 20
25.32352691241512
 30
0.0
 11
-93.49848105209563
 21
26.512034735475865
 31
0.0
  0
LINE
  5
235
330
17
100
AcDbEntity
  8
0
100
AcDbLine
 10
-93.49848105209563
 20
26.512034735475865
 30
0.0
 11
-92.69327842014854
 21
27.69466662371258
 31
0.0
  0
LINE
  5
236
330
17
100
AcDbEntity
  8
0
100
AcDbLine
 10
-92.69327842014854
 20
27.69466662371258
 30
0.0
 11
-91.87942049836624
 21
28.87135891344748
 31
0.0
  0
LINE
  5
237
330
17
100
AcDbEntity
  8
0
100
AcDbLine
 10
-91.87942049836624
 20
28.87135891344748
 30
0.0
 11
-91.05695109851254
 21
30.04204826074387
 31
0.0
  0
LINE
  5
238
330
17
100
AcDbEntity
  8
0
100
AcDbLine
 10
-91.05695109851254
 20
30.04204826074387
 30
0.0
 11
-90.22591449592574
 21
31.20667164481715
 31
0.0
  0
LINE
  5
239
330
17
100
AcDbEntity
  8
0
100
AcDbLine
 10
-90.22591449592574
 20
31.20667164481715
 30
0.0
 11
-89.38635542713581
 21
32.365166371426426
 31
0.0
  0
LINE
  5
23A
330
17
100
AcDbEntity
  8
0
100
AcDbLine
 10
-89.38635542713581
 20
32.365166371426426
 30
0.0
 11
-88.53831908745553
 21
33.517470076250376
 31
0.0
  0
LINE
  5
23B
330
17
100
AcDbEntity
  8
0
100
AcDbLine
 10
-88.53831908745553
 20
33.517470076250376
 30
0.0
 11
-87.68185112854826
 21
34.66352072824358
 31
0.0
  0
LINE
  5
23C
330
17
100
AcDbEntity
  8
0
100
AcDbLine
 10
-87.68185112854826
 20
34.66352072824358
 30
0.0
 11
-86.8169976559694
 21
35.80325663297667
 31
0.0
  0
LINE
  5
23D
330
17
100
AcDbEntity
  8
0
100
AcDbLine
 10
-86.8169976559694
 20
35.80325663297667
 30
0.0
 11
-85.9438052266857
 21
36.936616435956466
 31
0.0
  0
LINE
  5
23E
330
17
100
AcDbEntity
  8
0
100
AcDbLine
 10
-85.9438052266857
 20
36.936616435956466
 30
0.0
 11
-85.06232084656762
 21
38.063539125930035
 31
0.0
  0
LINE
  5
23F
330
17
100
AcDbEntity
  8
0
100
AcDbLine
 10
-85.06232084656762
 20
38.063539125930035
 30
0.0
 11
-84.1725919678602
 21
39.18396403816776
 31
0.0
  0
LINE
  5
240
330
17
100
AcDbEntity
  8
0
100
AcDbLine
 10
-84.1725919678602
 20
39.18396403816776
 30
0.0
 11
-83.27466648662747
 21
40.297830857730276
 31
0.0
  0
LINE
  5
241
330
17
100
AcDbEntity
  8
0
100
AcDbLine
 10
-83.27466648662747
 20
40.297830857730276
 30
0.0
 11
-82.36859274017507
 21
41.40507962271427
 31
0.0
  0
LINE
  5
242
330
17
100
AcDbEntity
  8
0
100
AcDbLine
 10
-82.36859274017507
 20
41.40507962271427
 30
0.0
 11
-81.45441950444726
 21
42.505650727481395
 31
0.0
  0
LINE
  5
243
330
17
100
AcDbEntity
  8
0
100
AcDbLine
 10
-81.45441950444726
 20
42.505650727481395
 30
0.0
 11
-80.53219599140209
 21
43.59948492586592
 31
0.0
  0
LINE
  5
244
330
17
100
AcDbEntity
  8
0
100
AcDbLine
 10
-80.53219599140209
 20
43.59948492586592
 30
0.0
 11
-79.60197184636132
 21
44.68652333436516
 31
0.0
  0
LINE
  5
245
330
17
100
AcDbEntity
  8
0
100
AcDbLine
 10
-79.60197184636132
 20
44.68652333436516
 30
0.0
 11
-78.6637971453388
 21
45.76670743530819
 31
0.0
  0
LINE
  5
246
330
17
100
AcDbEntity
  8
0
100
AcDbLine
 10
-78.6637971453388
 20
45.76670743530819
 30
0.0
 11
-77.71772239234377
 21
46.839979080007126
 31
0.0
  0
LINE
  5
247
330
17
100
AcDbEntity
  8
0
100
AcDbLine
 10
-77.71772239234377
 20
46.839979080007126
 30
0.0
 11
-76.76379851666323
 21
47.90628049188628
 31
0.0
  0
LINE
  5
248
330
17
100
AcDbEntity
  8
0
100
AcDbLine
 10
-76.76379851666323
 20
47.90628049188628
 30
0.0
 11
-75.80207687011921
 21
48.965554269593454
 31
0.0
  0
LINE
  5
249
330
17
100
AcDbEntity
  8
0
100
AcDbLine
 10
-75.80207687011921
 20
48.965554269593454
 30
0.0
 11
-74.8326092243054
 21
50.017743390088995
 31
0.0
  0
LINE
  5
24A
330
17
100
AcDbEntity
  8
0
100
AcDbLine
 10
-74.8326092243054
 20
50.017743390088995
 30
0.0
 11
-73.85544776779923
 21
51.062791211716345
 31
0.0
  0
LINE
  5
24B
330
17
100
AcDbEntity
  8
0
100
AcDbLine
 10
-73.85544776779923
 20
51.062791211716345
 30
0.0
 11
-72.87064510335333
 21
52.10064147725042
 31
0.0
  0
LINE
  5
24C
330
17
100
AcDbEntity
  8
0
100
AcDbLine
 10
-72.87064510335333
 20
52.10064147725042
 30
0.0
 11
-71.87825424506289
 21
53.131238316926826
 31
0.0
  0
LINE
  5
24D
330
17
100
AcDbEntity
  8
0
100
AcDbLine
 10
-71.87825424506289
 20
53.131238316926826
 30
0.0
 11
-70.87832861551288
 21
54.154526251448615
 31
0.0
  0
LINE
  5
24E
330
17
100
AcDbEntity
  8
0
100
AcDbLine
 10
-70.87832861551288
 20
54.154526251448615
 30
0.0
 11
-69.87092204290093
 21
55.170450194973725
 31
0.0
  0
LINE
  5
24F
330
17
100
AcDbEntity
  8
0
100
AcDbLine
 10
-69.87092204290093
 20
55.170450194973725
 30
0.0
 11
-68.85608875814094
 21
56.1789554580795
 31
0.0
  0
LINE
  5
250
330
17
100
AcDbEntity
  8
0
100
AcDbLine
 10
-68.85608875814094
 20
56.1789554580795
 30
0.0
 11
-67.83388339194249
 21
57.179987750707724
 31
0.0
  0
LINE
  5
251
330
17
100
AcDbEntity
  8
0
100
AcDbLine
 10
-67.83388339194249
 20
57.179987750707724
 30
0.0
 11
-66.80436097187106
 21
58.173493185085974
 31
0.0
  0
LINE
  5
252
330
17
100
AcDbEntity
  8
0
100
AcDbLine
 10
-66.80436097187106
 20
58.173493185085974
 30
0.0
 11
-65.76757691938477
 21
59.15941827862984
 31
0.0
  0
LINE
  5
253
330
17
100
AcDbEntity
  8
0
100
AcDbLine
 10
-65.76757691938477
 20
59.15941827862984
 30
0.0
 11
-64.72358704685189
 21
60.137709956820785
 31
0.0
  0
LINE
  5
254
330
17
100
AcDbEntity
  8
0
100
AcDbLine
 10
-64.72358704685189
 20
60.137709956820785
 30
0.0
 11
-63.6724475545453
 21
61.108315556064284
 31
0.0
  0
LINE
  5
255
330
17
100
AcDbEntity
  8
0
100
AcDbLine
 10
-63.6724475545453
 20
61.108315556064284
 30
0.0
 11
-62.61421502761826
 21
62.07118282652395
 31
0.0
  0
LINE
  5
256
330
17
100
AcDbEntity
  8
0
100
AcDbLine
 10
-62.61421502761826
 20
62.07118282652395
 30
0.0
 11
-61.54894643305704
 21
63.026259934935084
 31
0.0
  0
LINE
  5
257
330
17
100
AcDbEntity
  8
0
100
AcDbLine
 10
-61.54894643305704
 20
63.026259934935084
 30
0.0
 11
-60.476699116615606
 21
63.97349546739416
 31
0.0
  0
LINE
  5
258
330
17
100
AcDbEntity
  8
0
100
AcDbLine
 10
-60.476699116615606
 20
63.97349546739416
 30
0.0
 11
-59.39753079972722
 21
64.91283843212732
 31
0.0
  0
LINE
  5
259
330
17
100
AcDbEntity
  8
0
100
AcDbLine
 10
-59.39753079972722
 20
64.91283843212732
 30
0.0
 11
-58.31149957639846
 21
65.84423826223461
 31
0.0
  0
LINE
  5
25A
330
17
100
AcDbEntity
  8
0
100
AcDbLine
 10
-58.31149957639846
 20
65.84423826223461
 30
0.0
 11
-57.218663910080664
 21
66.7676448184129
 31
0.0
  0
LINE
  5
25B
330
17
100
AcDbEntity
  8
0
100
AcDbLine
 10
-57.218663910080664
 20
66.7676448184129
 30
0.0
 11
-56.11908263052388
 21
67.68300839165424
 31
0.0
  0
LINE
  5
25C
330
17
100
AcDbEntity
  8
0
100
AcDbLine
 10
-56.11908263052388
 20
67.68300839165424
 30
0.0
 11
-55.012814930608855
 21
68.59027970592253
 31
0.0
  0
LINE
  5
25D
330
17
100
AcDbEntity
  8
0
100
AcDbLine
 10
-55.012814930608855
 20
68.59027970592253
 30
0.0
 11
-53.8999203631616
 21
69.48940992080536
 31
0.0
  0
LINE
  5
25E
330
17
100
AcDbEntity
  8
0
100
AcDbLine
 10
-53.8999203631616
 20
69.48940992080536
 30
0.0
 11
-52.78045883774638
 21
70.38035063414402
 31
0.0
  0
LINE
  5
25F
330
17
100
AcDbEntity
  8
0
100
AcDbLine
 10
-52.78045883774638
 20
70.38035063414402
 30
0.0
 11
-51.65449061744188
 21
71.2630538846383
 31
0.0
  0
LINE
  5
260
330
17
100
AcDbEntity
  8
0
100
AcDbLine
 10
-51.65449061744188
 20
71.2630538846383
 30
0.0
 11
-50.52207631559594
 21
72.13747215442923
 31
0.0
  0
LINE
  5
261
330
17
100
AcDbEntity
  8
0
100
AcDbLine
 10
-50.52207631559594
 20
72.13747215442923
 30
0.0
 11
-49.383276892563686
 21
73.00355837165607
 31
0.0
  0
LINE
  5
262
330
17
100
AcDbEntity
  8
0
100
AcDbLine
 10
-49.383276892563686
 20
73.00355837165607
 30
0.0
 11
-48.238153652424856
 21
73.8612659129913
 31
0.0
  0
LINE
  5
263
330
17
100
AcDbEntity
  8
0
100
AcDbLine
 10
-48.238153652424856
 20
73.8612659129913
 30
0.0
 11
-47.086768239684716
 21
74.71054860614952
 31
0.0
  0
LINE
  5
264
330
17
100
AcDbEntity
  8
0
100
AcDbLine
 10
-47.086768239684716
 20
74.71054860614952
 30
0.0
 11
-45.92918263595449
 21
75.55136073237385
 31
0.0
  0
LINE
  5
265
330
17
100
AcDbEntity
  8
0
100
AcDbLine
 10
-45.92918263595449
 20
75.55136073237385
 30
0.0
 11
-44.76545915661595
 21
76.38365702889637
 31
0.0
  0
LINE
  5
266
330
17
100
AcDbEntity
  8
0
100
AcDbLine
 10
-44.76545915661595
 20
76.38365702889637
 30
0.0
 11
-43.595660447465605
 21
77.20739269137526
 31
0.0
  0
LINE
  5
267
330
17
100
AcDbEntity
  8
0
100
AcDbLine
 10
-43.595660447465605
 20
77.20739269137526
 30
0.0
 11
-42.41984948134359
 21
78.02252337630624
 31
0.0
  0
LINE
  5
268
330
17
100
AcDbEntity
  8
0
100
AcDbLine
 10
-42.41984948134359
 20
78.02252337630624
 30
0.0
 11
-41.23808955474239
 21
78.8290052034102
 31
0.0
  0
LINE
  5
269
330
17
100
AcDbEntity
  8
0
100
AcDbLine
 10
-41.23808955474239
 20
78.8290052034102
 30
0.0
 11
-40.05044428440084
 21
79.62679475799474
 31
0.0
  0
LINE
  5
26A
330
17
100
AcDbEntity
  8
0
100
AcDbLine
 10
-40.05044428440084
 20
79.62679475799474
 30
0.0
 11
-38.85697760387809
 21
80.41584909329201
 31
0.0
  0
LINE
  5
26B
330
17
100
AcDbEntity
  8
0
100
AcDbLine
 10
-38.85697760387809
 20
80.41584909329201
 30
0.0
 11
-37.657753760113295
 21
81.19612573276983
 31
0.0
  0
LINE
  5
26C
330
17
100
AcDbEntity
  8
0
100
AcDbLine
 10
-37.657753760113295
 20
81.19612573276983
 30
0.0
 11
-36.45283730996569
 21
81.96758267241917
 31
0.0
  0
LINE
  5
26D
330
17
100
AcDbEntity
  8
0
100
AcDbLine
 10
-36.45283730996569
 20
81.96758267241917
 30
0.0
 11
-35.242293116740726
 21
82.73017838301438
 31
0.0
  0
LINE
  5
26E
330
17
100
AcDbEntity
  8
0
100
AcDbLine
 10
-35.242293116740726
 20
82.73017838301438
 30
0.0
 11
-34.02618634669703
 21
83.4838718123497
 31
0.0
  0
LINE
  5
26F
330
17
100
AcDbEntity
  8
0
100
AcDbLine
 10
-34.02618634669703
 20
83.4838718123497
 30
0.0
 11
-32.80458246553957
 21
84.22862238744843
 31
0.0
  0
LINE
  5
270
330
17
100
AcDbEntity
  8
0
100
AcDbLine
 10
-32.80458246553957
 20
84.22862238744843
 30
0.0
 11
-31.577547234894283
 21
84.96439001674769
 31
0.0
  0
LINE
  5
271
330
17
100
AcDbEntity
  8
0
100
AcDbLine
 10
-31.577547234894283
 20
84.96439001674769
 30
0.0
 11
-30.345146708769292
 21
85.69113509225609
 31
0.0
  0
LINE
  5
272
330
17
100
AcDbEntity
  8
0
100
AcDbLine
 10
-30.345146708769292
 20
85.69113509225609
 30
0.0
 11
-29.107447229997703
 21
86.40881849168643
 31
0.0
  0
LINE
  5
273
330
17
100
AcDbEntity
  8
0
100
AcDbLine
 10
-29.107447229997703
 20
86.40881849168643
 30
0.0
 11
-27.864515426667523
 21
87.11740158056121
 31
0.0
  0
LINE
  5
274
330
17
100
AcDbEntity
  8
0
100
AcDbLine
 10
-27.864515426667523
 20
87.11740158056121
 30
0.0
 11
-26.616418208533773
 21
87.81684621429294
 31
0.0
  0
LINE
  5
275
330
17
100
AcDbEntity
  8
0
100
AcDbLine
 10
-26.616418208533773
 20
87.81684621429294
 30
0.0
 11
-25.363222763417625
 21
88.50711474023701
 31
0.0
  0
LINE
  5
276
330
17
100
AcDbEntity
  8
0
100
AcDbLine
 10
-25.363222763417625
 20
88.50711474023701
 30
0.0
 11
-24.104996553588506
 21
89.18816999971925
 31
0.0
  0
LINE
  5
277
330
17
100
AcDbEntity
  8
0
100
AcDbLine
 10
-24.104996553588506
 20
89.18816999971925
 30
0.0
 11
-22.84180731213341
 21
89.85997533003562
 31
0.0
  0
LINE
  5
278
330
17
100
AcDbEntity
  8
0
100
AcDbLine
 10
-22.84180731213341
 20
89.85997533003562
 30
0.0
 11
-21.573723039310252
 21
90.52249456642609
 31
0.0
  0
LINE
  5
279
330
17
100
AcDbEntity
  8
0
100
AcDbLine
 10
-21.573723039310252
 20
90.52249456642609
 30
0.0
 11
-20.300811998886957
 21
91.1756920440218
 31
0.0
  0
LINE
  5
27A
330
17
100
AcDbEntity
  8
0
100
AcDbLine
 10
-20.300811998886957
 20
91.1756920440218
 30
0.0
 11
-19.023142714466985
 21
91.81953259976451
 31
0.0
  0
LINE
  5
27B
330
17
100
AcDbEntity
  8
0
100
AcDbLine
 10
-19.023142714466985
 20
91.81953259976451
 30
0.0
 11
-17.740783965800986
 21
92.45398157429962
 31
0.0
  0
LINE
  5
27C
330
17
100
AcDbEntity
  8
0
100
AcDbLine
 10
-17.740783965800986
 20
92.45398157429962
 30
0.0
 11
-16.45380478508318
 21
93.07900481384219
 31
0.0
  0
LINE
  5
27D
330
17
100
AcDbEntity
  8
0
100
AcDbLine
 10
-16.45380478508318
 20
93.07900481384219
 30
0.0
 11
-15.162274453236464
 21
93.69456867201517
 31
0.0
  0
LINE
  5
27E
330
17
100
AcDbEntity
  8
0
100
AcDbLine
 10
-15.162274453236464
 20
93.69456867201517
 30
0.0
 11
-13.866262496181562
 21
94.30064001166097
 31
0.0
  0
LINE
  5
27F
330
17
100
AcDbEntity
  8
0
100
AcDbLine
 10
-13.866262496181562
 20
94.30064001166097
 30
0.0
 11
-12.565838681095443
 21
94.89718620662516
 31
0.0
  0
LINE
  5
280
330
17
100
AcDbEntity
  8
0
100
AcDbLine
 10
-12.565838681095443
 20
94.89718620662516
 30
0.0
 11
-11.261073012655075
 21
95.48417514351262
 31
0.0
  0
LINE
  5
281
330
17
100
AcDbEntity
  8
0
100
AcDbLine
 10
-11.261073012655075
 20
95.48417514351262
 30
0.0
 11
-9.952035729268701
 21
96.06157522341674
 31
0.0
  0
LINE
  5
282
330
17
100
AcDbEntity
  8
0
100
AcDbLine
 10
-9.952035729268701
 20
96.06157522341674
 30
0.0
 11
-8.638797299294922
 21
96.62935536362012
 31
0.0
  0
LINE
  5
283
330
17
100
AcDbEntity
  8
0
100
AcDbLine
 10
-8.638797299294922
 20
96.62935536362012
 30
0.0
 11
-7.321428417249677
 21
97.18748499926782
 31
0.0
  0
LINE
  5
284
330
17
100
AcDbEntity
  8
0
100
AcDbLine
 10
-7.321428417249677
 20
97.18748499926782
 30
0.0
 11
-6.000000000000212
 21
97.73593408501272
 31
0.0
  0
LINE
  5
285
330
17
100
AcDbEntity
  8
0
100
AcDbLine
 10
-79.89386454629657
 20
3.00000000000018
 30
0.0
 11
-107.09802419314197
 21
3.00000000000018
 31
0.0
  0
LINE
  5
286
330
17
100
AcDbEntity
  8
0
100
AcDbLine
 10
-79.89386454629657
 20
3.00000000000018
 30
0.0
 11
-79.89386454629657
 21
-2.99999999999982
 31
0.0
  0
LINE
  5
287
330
17
100
AcDbEntity
  8
0
100
AcDbLine
 10
-79.89386454629657
 20
-2.99999999999982
 30
0.0
 11
-107.09802419314197
 21
-2.99999999999982
 31
0.0
  0
LINE
  5
288
330
17
100
AcDbEntity
  8
0
100
AcDbLine
 10
-107.09802419314195
 20
-2.999999999999673
 30
0.0
 11
-106.46496316598271
 21
-4.2830445033047795
 31
0.0
  0
LINE
  5
289
330
17
100
AcDbEntity
  8
0
100
AcDbLine
 10
-106.46496316598271
 20
-4.2830445033047795
 30
0.0
 11
-105.82250548888041
 21
-5.561409707266918
 31
0.0
  0
LINE
  5
28A
330
17
100
AcDbEntity
  8
0
100
AcDbLine
 10
-105.82250548888041
 20
-5.561409707266918
 30
0.0
 11
-105.17068574674593
 21
-6.835026794673141
 31
0.0
  0
LINE
  5
28B
330
17
100
AcDbEntity
  8
0
100
AcDbLine
 10
-105.17068574674593
 20
-6.835026794673141
 30
0.0
 11
-104.50953902847118
 21
-8.103827203911493
 31
0.0
  0
LINE
  5
28C
330
17
100
AcDbEntity
  8
0
100
AcDbLine
 10
-104.50953902847118
 20
-8.103827203911493
 30
0.0
 11
-103.83910092503936
 21
-9.367742632662996
 31
0.0
  0
LINE
  5
28D
330
17
100
AcDbEntity
  8
0
100
AcDbLine
 10
-103.83910092503936
 20
-9.367742632662996
 30
0.0
 11
-103.15940752760963
 21
-10.626705041577324
 31
0.0
  0
LINE
  5
28E
330
17
100
AcDbEntity
  8
0
100
AcDbLine
 10
-103.15940752760963
 20
-10.626705041577324
 30
0.0
 11
-102.47049542557386
 21
-11.88064665793668
 31
0.0
  0
LINE
  5
28F
330
17
100
AcDbEntity
  8
0
100
AcDbLine
 10
-102.47049542557386
 20
-11.88064665793668
 30
0.0
 11
-101.7724017045872
 21
-13.129499979303077
 31
0.0
  0
LINE
  5
290
330
17
100
AcDbEntity
  8
0
100
AcDbLine
 10
-101.7724017045872
 20
-13.129499979303077
 30
0.0
 11
-101.06516394457137
 21
-14.37319777715318
 31
0.0
  0
LINE
  5
291
330
17
100
AcDbEntity
  8
0
100
AcDbLine
 10
-101.06516394457137
 20
-14.37319777715318
 30
0.0
 11
-100.34882021769212
 21
-15.611673100496205
 31
0.0
  0
LINE
  5
292
330
17
100
AcDbEntity
  8
0
100
AcDbLine
 10
-100.34882021769212
 20
-15.611673100496205
 30
0.0
 11
-99.62340908630915
 21
-16.844859279479337
 31
0.0
  0
LINE
  5
293
330
17
100
AcDbEntity
  8
0
100
AcDbLine
 10
-99.62340908630915
 20
-16.844859279479337
 30
0.0
 11
-98.88896960090077
 21
-18.072689928975436
 31
0.0
  0
LINE
  5
294
330
17
100
AcDbEntity
  8
0
100
AcDbLine
 10
-98.88896960090077
 20
-18.072689928975436
 30
0.0
 11
-98.14554129796122
 21
-19.29509895215783
 31
0.0
  0
LINE
  5
295
330
17
100
AcDbEntity
  8
0
100
AcDbLine
 10
-98.14554129796122
 20
-19.29509895215783
 30
0.0
 11
-97.3931641978728
 21
-20.51202054405745
 31
0.0
  0
LINE
  5
296
330
17
100
AcDbEntity
  8
0
100
AcDbLine
 10
-97.3931641978728
 20
-20.51202054405745
 30
0.0
 11
-96.63187880275109
 21
-21.723389195106193
 31
0.0
  0
LINE
  5
297
330
17
100
AcDbEntity
  8
0
100
AcDbLine
 10
-96.63187880275109
 20
-21.723389195106193
 30
0.0
 11
-95.86172609426492
 21
-22.92913969466251
 31
0.0
  0
LINE
  5
298
330
17
100
AcDbEntity
  8
0
100
AcDbLine
 10
-95.86172609426492
 20
-22.92913969466251
 30
0.0
 11
-95.08274753142999
 21
-24.129207134522858
 31
0.0
  0
LINE
  5
299
330
17
100
AcDbEntity
  8
0
100
AcDbLine
 10
-95.08274753142999
 20
-24.129207134522858
 30
0.0
 11
-94.29498504837738
 21
-25.32352691241472
 31
0.0
  0
LINE
  5
29A
330
17
100
AcDbEntity
  8
0
100
AcDbLine
 10
-94.29498504837738
 20
-25.32352691241472
 30
0.0
 11
-93.49848105209563
 21
-26.512034735475467
 31
0.0
  0
LINE
  5
29B
330
17
100
AcDbEntity
  8
0
100
AcDbLine
 10
-93.49848105209563
 20
-26.512034735475467
 30
0.0
 11
-92.69327842014854
 21
-27.69466662371218
 31
0.0
  0
LINE
  5
29C
330
17
100
AcDbEntity
  8
0
100
AcDbLine
 10
-92.69327842014854
 20
-27.69466662371218
 30
0.0
 11
-91.87942049836624
 21
-28.871358913447082
 31
0.0
  0
LINE
  5
29D
330
17
100
AcDbEntity
  8
0
100
AcDbLine
 10
-91.87942049836624
 20
-28.871358913447082
 30
0.0
 11
-91.05695109851254
 21
-30.04204826074347
 31
0.0
  0
LINE
  5
29E
330
17
100
AcDbEntity
  8
0
100
AcDbLine
 10
-91.05695109851254
 20
-30.04204826074347
 30
0.0
 11
-90.22591449592574
 21
-31.20667164481675
 31
0.0
  0
LINE
  5
29F
330
17
100
AcDbEntity
  8
0
100
AcDbLine
 10
-90.22591449592574
 20
-31.20667164481675
 30
0.0
 11
-89.38635542713581
 21
-32.36516637142603
 31
0.0
  0
LINE
  5
2A0
330
17
100
AcDbEntity
  8
0
100
AcDbLine
 10
-89.38635542713581
 20
-32.36516637142603
 30
0.0
 11
-88.53831908745553
 21
-33.51747007624998
 31
0.0
  0
LINE
  5
2A1
330
17
100
AcDbEntity
  8
0
100
AcDbLine
 10
-88.53831908745553
 20
-33.51747007624998
 30
0.0
 11
-87.68185112854826
 21
-34.663520728243185
 31
0.0
  0
LINE
  5
2A2
330
17
100
AcDbEntity
  8
0
100
AcDbLine
 10
-87.68185112854826
 20
-34.663520728243185
 30
0.0
 11
-86.8169976559694
 21
-35.80325663297627
 31
0.0
  0
LINE
  5
2A3
330
17
100
AcDbEntity
  8
0
100
AcDbLine
 10
-86.8169976559694
 20
-35.80325663297627
 30
0.0
 11
-85.9438052266857
 21
-36.93661643595607
 31
0.0
  0
LINE
  5
2A4
330
17
100
AcDbEntity
  8
0
100
AcDbLine
 10
-85.9438052266857
 20
-36.93661643595607
 30
0.0
 11
-85.06232084656762
 21
-38.06353912592964
 31
0.0
  0
LINE
  5
2A5
330
17
100
AcDbEntity
  8
0
100
AcDbLine
 10
-85.06232084656762
 20
-38.06353912592964
 30
0.0
 11
-84.1725919678602
 21
-39.18396403816736
 31
0.0
  0
LINE
  5
2A6
330
17
100
AcDbEntity
  8
0
100
AcDbLine
 10
-84.1725919678602
 20
-39.18396403816736
 30
0.0
 11
-83.27466648662747
 21
-40.29783085772988
 31
0.0
  0
LINE
  5
2A7
330
17
100
AcDbEntity
  8
0
100
AcDbLine
 10
-83.27466648662747
 20
-40.29783085772988
 30
0.0
 11
-82.36859274017507
 21
-41.40507962271387
 31
0.0
  0
LINE
  5
2A8
330
17
100
AcDbEntity
  8
0
100
AcDbLine
 10
-82.36859274017507
 20
-41.40507962271387
 30
0.0
 11
-81.45441950444726
 21
-42.505650727481
 31
0.0
  0
LINE
  5
2A9
330
17
100
AcDbEntity
  8
0
100
AcDbLine
 10
-81.45441950444726
 20
-42.505650727481
 30
0.0
 11
-80.53219599140209
 21
-43.599484925865525
 31
0.0
  0
LINE
  5
2AA
330
17
100
AcDbEntity
  8
0
100
AcDbLine
 10
-80.53219599140209
 20
-43.599484925865525
 30
0.0
 11
-79.60197184636132
 21
-44.686523334364765
 31
0.0
  0
LINE
  5
2AB
330
17
100
AcDbEntity
  8
0
100
AcDbLine
 10
-79.60197184636132
 20
-44.686523334364765
 30
0.0
 11
-78.6637971453388
 21
-45.766707435307794
 31
0.0
  0
LINE
  5
2AC
330
17
100
AcDbEntity
  8
0
100
AcDbLine
 10
-78.6637971453388
 20
-45.766707435307794
 30
0.0
 11
-77.71772239234377
 21
-46.83997908000673
 31
0.0
  0
LINE
  5
2AD
330
17
100
AcDbEntity
  8
0
100
AcDbLine
 10
-77.71772239234377
 20
-46.83997908000673
 30
0.0
 11
-76.76379851666323
 21
-47.90628049188588
 31
0.0
  0
LINE
  5
2AE
330
17
100
AcDbEntity
  8
0
100
AcDbLine
 10
-76.76379851666323
 20
-47.90628049188588
 30
0.0
 11
-75.80207687011921
 21
-48.965554269593056
 31
0.0
  0
LINE
  5
2AF
330
17
100
AcDbEntity
  8
0
100
AcDbLine
 10
-75.80207687011921
 20
-48.965554269593056
 30
0.0
 11
-74.8326092243054
 21
-50.0177433900886
 31
0.0
  0
LINE
  5
2B0
330
17
100
AcDbEntity
  8
0
100
AcDbLine
 10
-74.8326092243054
 20
-50.0177433900886
 30
0.0
 11
-73.85544776779923
 21
-51.06279121171595
 31
0.0
  0
LINE
  5
2B1
330
17
100
AcDbEntity
  8
0
100
AcDbLine
 10
-73.85544776779923
 20
-51.06279121171595
 30
0.0
 11
-72.87064510335333
 21
-52.10064147725002
 31
0.0
  0
LINE
  5
2B2
330
17
100
AcDbEntity
  8
0
100
AcDbLine
 10
-72.87064510335333
 20
-52.10064147725002
 30
0.0
 11
-71.87825424506289
 21
-53.13123831692643
 31
0.0
  0
LINE
  5
2B3
330
17
100
AcDbEntity
  8
0
100
AcDbLine
 10
-71.87825424506289
 20
-53.13123831692643
 30
0.0
 11
-70.87832861551288
 21
-54.15452625144822
 31
0.0
  0
LINE
  5
2B4
330
17
100
AcDbEntity
  8
0
100
AcDbLine
 10
-70.87832861551288
 20
-54.15452625144822
 30
0.0
 11
-69.87092204290093
 21
-55.17045019497333
 31
0.0
  0
LINE
  5
2B5
330
17
100
AcDbEntity
  8
0
100
AcDbLine
 10
-69.87092204290093
 20
-55.17045019497333
 30
0.0
 11
-68.85608875814094
 21
-56.1789554580791
 31
0.0
  0
LINE
  5
2B6
330
17
100
AcDbEntity
  8
0
100
AcDbLine
 10
-68.85608875814094
 20
-56.1789554580791
 30
0.0
 11
-67.83388339194249
 21
-57.179987750707326
 31
0.0
  0
LINE
  5
2B7
330
17
100
AcDbEntity
  8
0
100
AcDbLine
 10
-67.83388339194249
 20
-57.179987750707326
 30
0.0
 11
-66.80436097187106
 21
-58.173493185085576
 31
0.0
  0
LINE
  5
2B8
330
17
100
AcDbEntity
  8
0
100
AcDbLine
 10
-66.80436097187106
 20
-58.173493185085576
 30
0.0
 11
-65.76757691938477
 21
-59.159418278629445
 31
0.0
  0
LINE
  5
2B9
330
17
100
AcDbEntity
  8
0
100
AcDbLine
 10
-65.76757691938477
 20
-59.159418278629445
 30
0.0
 11
-64.72358704685189
 21
-60.13770995682039
 31
0.0
  0
LINE
  5
2BA
330
17
100
AcDbEntity
  8
0
100
AcDbLine
 10
-64.72358704685189
 20
-60.13770995682039
 30
0.0
 11
-63.6724475545453
 21
-61.108315556063886
 31
0.0
  0
LINE
  5
2BB
330
17
100
AcDbEntity
  8
0
100
AcDbLine
 10
-63.6724475545453
 20
-61.108315556063886
 30
0.0
 11
-62.61421502761826
 21
-62.071182826523554
 31
0.0
  0
LINE
  5
2BC
330
17
100
AcDbEntity
  8
0
100
AcDbLine
 10
-62.61421502761826
 20
-62.071182826523554
 30
0.0
 11
-61.54894643305704
 21
-63.026259934934686
 31
0.0
  0
LINE
  5
2BD
330
17
100
AcDbEntity
  8
0
100
AcDbLine
 10
-61.54894643305704
 20
-63.026259934934686
 30
0.0
 11
-60.476699116615606
 21
-63.97349546739376
 31
0.0
  0
LINE
  5
2BE
330
17
100
AcDbEntity
  8
0
100
AcDbLine
 10
-60.476699116615606
 20
-63.97349546739376
 30
0.0
 11
-59.39753079972722
 21
-64.91283843212692
 31
0.0
  0
LINE
  5
2BF
330
17
100
AcDbEntity
  8
0
100
AcDbLine
 10
-59.39753079972722
 20
-64.91283843212692
 30
0.0
 11
-58.31149957639846
 21
-65.84423826223421
 31
0.0
  0
LINE
  5
2C0
330
17
100
AcDbEntity
  8
0
100
AcDbLine
 10
-58.31149957639846
 20
-65.84423826223421
 30
0.0
 11
-57.218663910080664
 21
-66.7676448184125
 31
0.0
  0
LINE
  5
2C1
330
17
100
AcDbEntity
  8
0
100
AcDbLine
 10
-57.218663910080664
 20
-66.7676448184125
 30
0.0
 11
-56.11908263052388
 21
-67.68300839165384
 31
0.0
  0
LINE
  5
2C2
330
17
100
AcDbEntity
  8
0
100
AcDbLine
 10
-56.11908263052388
 20
-67.68300839165384
 30
0.0
 11
-55.012814930608855
 21
-68.59027970592213
 31
0.0
  0
LINE
  5
2C3
330
17
100
AcDbEntity
  8
0
100
AcDbLine
 10
-55.012814930608855
 20
-68.59027970592213
 30
0.0
 11
-53.8999203631616
 21
-69.48940992080496
 31
0.0
  0
LINE
  5
2C4
330
17
100
AcDbEntity
  8
0
100
AcDbLine
 10
-53.8999203631616
 20
-69.48940992080496
 30
0.0
 11
-52.78045883774638
 21
-70.38035063414362
 31
0.0
  0
LINE
  5
2C5
330
17
100
AcDbEntity
  8
0
100
AcDbLine
 10
-52.78045883774638
 20
-70.38035063414362
 30
0.0
 11
-51.65449061744188
 21
-71.2630538846379
 31
0.0
  0
LINE
  5
2C6
330
17
100
AcDbEntity
  8
0
100
AcDbLine
 10
-51.65449061744188
 20
-71.2630538846379
 30
0.0
 11
-50.52207631559594
 21
-72.13747215442883
 31
0.0
  0
LINE
  5
2C7
330
17
100
AcDbEntity
  8
0
100
AcDbLine
 10
-50.52207631559594
 20
-72.13747215442883
 30
0.0
 11
-49.383276892563686
 21
-73.00355837165567
 31
0.0
  0
LINE
  5
2C8
330
17
100
AcDbEntity
  8
0
100
AcDbLine
 10
-49.383276892563686
 20
-73.00355837165567
 30
0.0
 11
-48.238153652424856
 21
-73.8612659129909
 31
0.0
  0
LINE
  5
2C9
330
17
100
AcDbEntity
  8
0
100
AcDbLine
 10
-48.238153652424856
 20
-73.8612659129909
 30
0.0
 11
-47.086768239684716
 21
-74.71054860614912
 31
0.0
  0
LINE
  5
2CA
330
17
100
AcDbEntity
  8
0
100
AcDbLine
 10
-47.086768239684716
 20
-74.71054860614912
 30
0.0
 11
-45.92918263595449
 21
-75.55136073237345
 31
0.0
  0
LINE
  5
2CB
330
17
100
AcDbEntity
  8
0
100
AcDbLine
 10
-45.92918263595449
 20
-75.55136073237345
 30
0.0
 11
-44.76545915661595
 21
-76.38365702889597
 31
0.0
  0
LINE
  5
2CC
330
17
100
AcDbEntity
  8
0
100
AcDbLine
 10
-44.76545915661595
 20
-76.38365702889597
 30
0.0
 11
-43.595660447465605
 21
-77.20739269137486
 31
0.0
  0
LINE
  5
2CD
330
17
100
AcDbEntity
  8
0
100
AcDbLine
 10
-43.595660447465605
 20
-77.20739269137486
 30
0.0
 11
-42.41984948134359
 21
-78.02252337630584
 31
0.0
  0
LINE
  5
2CE
330
17
100
AcDbEntity
  8
0
100
AcDbLine
 10
-42.41984948134359
 20
-78.02252337630584
 30
0.0
 11
-41.23808955474239
 21
-78.8290052034098
 31
0.0
  0
LINE
  5
2CF
330
17
100
AcDbEntity
  8
0
100
AcDbLine
 10
-41.23808955474239
 20
-78.8290052034098
 30
0.0
 11
-40.05044428440084
 21
-79.62679475799435
 31
0.0
  0
LINE
  5
2D0
330
17
100
AcDbEntity
  8
0
100
AcDbLine
 10
-40.05044428440084
 20
-79.62679475799435
 30
0.0
 11
-38.85697760387809
 21
-80.41584909329161
 31
0.0
  0
LINE
  5
2D1
330
17
100
AcDbEntity
  8
0
100
AcDbLine
 10
-38.85697760387809
 20
-80.41584909329161
 30
0.0
 11
-37.657753760113295
 21
-81.19612573276943
 31
0.0
  0
LINE
  5
2D2
330
17
100
AcDbEntity
  8
0
100
AcDbLine
 10
-37.657753760113295
 20
-81.19612573276943
 30
0.0
 11
-36.45283730996569
 21
-81.96758267241877
 31
0.0
  0
LINE
  5
2D3
330
17
100
AcDbEntity
  8
0
100
AcDbLine
 10
-36.45283730996569
 20
-81.96758267241877
 30
0.0
 11
-35.242293116740726
 21
-82.73017838301398
 31
0.0
  0
LINE
  5
2D4
330
17
100
AcDbEntity
  8
0
100
AcDbLine
 10
-35.242293116740726
 20
-82.73017838301398
 30
0.0
 11
-34.02618634669703
 21
-83.4838718123493
 31
0.0
  0
LINE
  5
2D5
330
17
100
AcDbEntity
  8
0
100
AcDbLine
 10
-34.02618634669703
 20
-83.4838718123493
 30
0.0
 11
-32.80458246553957
 21
-84.22862238744803
 31
0.0
  0
LINE
  5
2D6
330
17
100
AcDbEntity
  8
0
100
AcDbLine
 10
-32.80458246553957
 20
-84.22862238744803
 30
0.0
 11
-31.577547234894283
 21
-84.96439001674729
 31
0.0
  0
LINE
  5
2D7
330
17
100
AcDbEntity
  8
0
100
AcDbLine
 10
-31.577547234894283
 20
-84.96439001674729
 30
0.0
 11
-30.345146708769292
 21
-85.69113509225569
 31
0.0
  0
LINE
  5
2D8
330
17
100
AcDbEntity
  8
0
100
AcDbLine
 10
-30.345146708769292
 20
-85.69113509225569
 30
0.0
 11
-29.107447229997703
 21
-86.40881849168603
 31
0.0
  0
LINE
  5
2D9
330
17
100
AcDbEntity
  8
0
100
AcDbLine
 10
-29.107447229997703
 20
-86.40881849168603
 30
0.0
 11
-27.864515426667523
 21
-87.11740158056081
 31
0.0
  0
LINE
  5
2DA
330
17
100
AcDbEntity
  8
0
100
AcDbLine
 10
-27.864515426667523
 20
-87.11740158056081
 30
0.0
 11
-26.616418208533773
 21
-87.81684621429254
 31
0.0
  0
LINE
  5
2DB
330
17
100
AcDbEntity
  8
0
100
AcDbLine
 10
-26.616418208533773
 20
-87.81684621429254
 30
0.0
 11
-25.363222763417625
 21
-88.50711474023662
 31
0.0
  0
LINE
  5
2DC
330
17
100
AcDbEntity
  8
0
100
AcDbLine
 10
-25.363222763417625
 20
-88.50711474023662
 30
0.0
 11
-24.104996553588506
 21
-89.18816999971885
 31
0.0
  0
LINE
  5
2DD
330
17
100
AcDbEntity
  8
0
100
AcDbLine
 10
-24.104996553588506
 20
-89.18816999971885
 30
0.0
 11
-22.84180731213341
 21
-89.85997533003523
 31
0.0
  0
LINE
  5
2DE
330
17
100
AcDbEntity
  8
0
100
AcDbLine
 10
-22.84180731213341
 20
-89.85997533003523
 30
0.0
 11
-21.573723039310252
 21
-90.52249456642569
 31
0.0
  0
LINE
  5
2DF
330
17
100
AcDbEntity
  8
0
100
AcDbLine
 10
-21.573723039310252
 20
-90.52249456642569
 30
0.0
 11
-20.300811998886957
 21
-91.1756920440214
 31
0.0
  0
LINE
  5
2E0
330
17
100
AcDbEntity
  8
0
100
AcDbLine
 10
-20.300811998886957
 20
-91.1756920440214
 30
0.0
 11
-19.023142714466985
 21
-91.81953259976412
 31
0.0
  0
LINE
  5
2E1
330
17
100
AcDbEntity
  8
0
100
AcDbLine
 10
-19.023142714466985
 20
-91.81953259976412
 30
0.0
 11
-17.740783965800986
 21
-92.45398157429922
 31
0.0
  0
LINE
  5
2E2
330
17
100
AcDbEntity
  8
0
100
AcDbLine
 10
-17.740783965800986
 20
-92.45398157429922
 30
0.0
 11
-16.45380478508318
 21
-93.07900481384179
 31
0.0
  0
LINE
  5
2E3
330
17
100
AcDbEntity
  8
0
100
AcDbLine
 10
-16.45380478508318
 20
-93.07900481384179
 30
0.0
 11
-15.162274453236464
 21
-93.69456867201477
 31
0.0
  0
LINE
  5
2E4
330
17
100
AcDbEntity
  8
0
100
AcDbLine
 10
-15.162274453236464
 20
-93.69456867201477
 30
0.0
 11
-13.866262496181562
 21
-94.30064001166058
 31
0.0
  0
LINE
  5
2E5
330
17
100
AcDbEntity
  8
0
100
AcDbLine
 10
-13.866262496181562
 20
-94.30064001166058
 30
0.0
 11
-12.565838681095443
 21
-94.89718620662477
 31
0.0
  0
LINE
  5
2E6
330
17
100
AcDbEntity
  8
0
100
AcDbLine
 10
-12.565838681095443
 20
-94.89718620662477
 30
0.0
 11
-11.261073012655075
 21
-95.48417514351222
 31
0.0
  0
LINE
  5
2E7
330
17
100
AcDbEntity
  8
0
100
AcDbLine
 10
-11.261073012655075
 20
-95.48417514351222
 30
0.0
 11
-9.952035729268701
 21
-96.06157522341634
 31
0.0
  0
LINE
  5
2E8
330
17
100
AcDbEntity
  8
0
100
AcDbLine
 10
-9.952035729268701
 20
-96.06157522341634
 30
0.0
 11
-8.638797299294922
 21
-96.62935536361972
 31
0.0
  0
LINE
  5
2E9
330
17
100
AcDbEntity
  8
0
100
AcDbLine
 10
-8.638797299294922
 20
-96.62935536361972
 30
0.0
 11
-7.321428417249677
 21
-97.18748499926743
 31
0.0
  0
LINE
  5
2EA
330
17
100
AcDbEntity
  8
0
100
AcDbLine
 10
-7.321428417249677
 20
-97.18748499926743
 30
0.0
 11
-6.000000000000212
 21
-97.73593408501232
 31
0.0
  0
LINE
  5
2EB
330
17
100
AcDbEntity
  8
0
100
AcDbLine
 10
-6.000000000000001
 20
-96.9556441395061
 30
0.0
 11
-6.000000000000001
 21
-97.735934085012
 31
0.0
  0
LINE
  5
2EC
330
17
100
AcDbEntity
  8
0
100
AcDbLine
 10
-5.999999999999971
 20
-2.99999999999983
 30
0.0
 11
-5.999999999999971
 21
-96.9556441395061
 31
0.0
  0
LINE
  5
2ED
330
17
100
AcDbEntity
  8
0
100
AcDbLine
 10
-5.999999999999991
 20
-2.99999999999983
 30
0.0
 11
-15.999999999999972
 21
-2.99999999999983
 31
0.0
  0
LINE
  5
2EE
330
17
100
AcDbEntity
  8
0
100
AcDbLine
 10
-15.999999999999972
 20
-69.7280225740953
 30
0.0
 11
-15.999999999999972
 21
-2.9999999999998295
 31
0.0
  0
LINE
  5
2EF
330
17
100
AcDbEntity
  8
0
100
AcDbLine
 10
-19.99999999999997
 20
-73.7280225740953
 30
0.0
 11
-19.93653614466074
 21
-73.7275190847908
 31
0.0
  0
LINE
  5
2F0
330
17
100
AcDbEntity
  8
0
100
AcDbLine
 10
-19.93653614466074
 20
-73.7275190847908
 30
0.0
 11
-19.873088266007702
 21
-73.72600874362804
 31
0.0
  0
LINE
  5
2F1
330
17
100
AcDbEntity
  8
0
100
AcDbLine
 10
-19.873088266007702
 20
-73.72600874362804
 30
0.0
 11
-19.809672336705002
 21
-73.72349193082734
 31
0.0
  0
LINE
  5
2F2
330
17
100
AcDbEntity
  8
0
100
AcDbLine
 10
-19.809672336705002
 20
-73.72349193082734
 30
0.0
 11
-19.746304321373714
 21
-73.71996927998285
 31
0.0
  0
LINE
  5
2F3
330
17
100
AcDbEntity
  8
0
100
AcDbLine
 10
-19.746304321373714
 20
-73.71996927998285
 30
0.0
 11
-19.683000172572818
 21
-73.71544167790307
 31
0.0
  0
LINE
  5
2F4
330
17
100
AcDbEntity
  8
0
100
AcDbLine
 10
-19.683000172572818
 20
-73.71544167790307
 30
0.0
 11
-19.61977582678324
 21
-73.70991026438764
 31
0.0
  0
LINE
  5
2F5
330
17
100
AcDbEntity
  8
0
100
AcDbLine
 10
-19.61977582678324
 20
-73.70991026438764
 30
0.0
 11
-19.55664720039593
 21
-73.70337643194033
 31
0.0
  0
LINE
  5
2F6
330
17
100
AcDbEntity
  8
0
100
AcDbLine
 10
-19.55664720039593
 20
-73.70337643194033
 30
0.0
 11
-19.493630185704973
 21
-73.69584182541848
 31
0.0
  0
LINE
  5
2F7
330
17
100
AcDbEntity
  8
0
100
AcDbLine
 10
-19.493630185704973
 20
-73.69584182541848
 30
0.0
 11
-19.43074064690683
 21
-73.68730834161903
 31
0.0
  0
LINE
  5
2F8
330
17
100
AcDbEntity
  8
0
100
AcDbLine
 10
-19.43074064690683
 20
-73.68730834161903
 30
0.0
 11
-19.367994416106573
 21
-73.67777812880088
 31
0.0
  0
LINE
  5
2F9
330
17
100
AcDbEntity
  8
0
100
AcDbLine
 10
-19.367994416106573
 20
-73.67777812880088
 30
0.0
 11
-19.30540728933225
 21
-73.66725358614414
 31
0.0
  0
LINE
  5
2FA
330
17
100
AcDbEntity
  8
0
100
AcDbLine
 10
-19.30540728933225
 20
-73.66725358614414
 30
0.0
 11
-19.242995022558333
 21
-73.65573736314613
 31
0.0
  0
LINE
  5
2FB
330
17
100
AcDbEntity
  8
0
100
AcDbLine
 10
-19.242995022558333
 20
-73.65573736314613
 30
0.0
 11
-19.18077332773921
 21
-73.64323235895442
 31
0.0
  0
LINE
  5
2FC
330
17
100
AcDbEntity
  8
0
100
AcDbLine
 10
-19.18077332773921
 20
-73.64323235895442
 30
0.0
 11
-19.11875786885381
 21
-73.62974172163693
 31
0.0
  0
LINE
  5
2FD
330
17
100
AcDbEntity
  8
0
100
AcDbLine
 10
-19.11875786885381
 20
-73.62974172163693
 30
0.0
 11
-19.056964257962264
 21
-73.61526884738947
 31
0.0
  0
LINE
  5
2FE
330
17
100
AcDbEntity
  8
0
100
AcDbLine
 10
-19.056964257962264
 20
-73.61526884738947
 30
0.0
 11
-18.995408051275653
 21
-73.59981737968073
 31
0.0
  0
LINE
  5
2FF
330
17
100
AcDbEntity
  8
0
100
AcDbLine
 10
-18.995408051275653
 20
-73.59981737968073
 30
0.0
 11
-18.934104745239832
 21
-73.58339120833507
 31
0.0
  0
LINE
  5
300
330
17
100
AcDbEntity
  8
0
100
AcDbLine
 10
-18.934104745239832
 20
-73.58339120833507
 30
0.0
 11
-18.873069772634253
 21
-73.5659944685533
 31
0.0
  0
LINE
  5
301
330
17
100
AcDbEntity
  8
0
100
AcDbLine
 10
-18.873069772634253
 20
-73.5659944685533
 30
0.0
 11
-18.81231849868687
 21
-73.5476315398716
 31
0.0
  0
LINE
  5
302
330
17
100
AcDbEntity
  8
0
100
AcDbLine
 10
-18.81231849868687
 20
-73.5476315398716
 30
0.0
 11
-18.75186621720602
 21
-73.52830704505908
 31
0.0
  0
LINE
  5
303
330
17
100
AcDbEntity
  8
0
100
AcDbLine
 10
-18.75186621720602
 20
-73.52830704505908
 30
0.0
 11
-18.691728146730284
 21
-73.50802584895398
 31
0.0
  0
LINE
  5
304
330
17
100
AcDbEntity
  8
0
100
AcDbLine
 10
-18.691728146730284
 20
-73.50802584895398
 30
0.0
 11
-18.631919426697298
 21
-73.48679305723894
 31
0.0
  0
LINE
  5
305
330
17
100
AcDbEntity
  8
0
100
AcDbLine
 10
-18.631919426697298
 20
-73.48679305723894
 30
0.0
 11
-18.572455113632483
 21
-73.46461401515573
 31
0.0
  0
LINE
  5
306
330
17
100
AcDbEntity
  8
0
100
AcDbLine
 10
-18.572455113632483
 20
-73.46461401515573
 30
0.0
 11
-18.51335017735866
 21
-73.4414943061596
 31
0.0
  0
LINE
  5
307
330
17
100
AcDbEntity
  8
0
100
AcDbLine
 10
-18.51335017735866
 20
-73.4414943061596
 30
0.0
 11
-18.45461949722746
 21
-73.41743975051364
 31
0.0
  0
LINE
  5
308
330
17
100
AcDbEntity
  8
0
100
AcDbLine
 10
-18.45461949722746
 20
-73.41743975051364
 30
0.0
 11
-18.396277858373516
 21
-73.39245640382359
 31
0.0
  0
LINE
  5
309
330
17
100
AcDbEntity
  8
0
100
AcDbLine
 10
-18.396277858373516
 20
-73.39245640382359
 30
0.0
 11
-18.338339947992427
 21
-73.36655055551338
 31
0.0
  0
LINE
  5
30A
330
17
100
AcDbEntity
  8
0
100
AcDbLine
 10
-18.338339947992427
 20
-73.36655055551338
 30
0.0
 11
-18.280820351643285
 21
-73.33972872724179
 31
0.0
  0
LINE
  5
30B
330
17
100
AcDbEntity
  8
0
100
AcDbLine
 10
-18.280820351643285
 20
-73.33972872724179
 30
0.0
 11
-18.223733549576874
 21
-73.31199767126066
 31
0.0
  0
LINE
  5
30C
330
17
100
AcDbEntity
  8
0
100
AcDbLine
 10
-18.223733549576874
 20
-73.31199767126066
 30
0.0
 11
-18.16709391309033
 21
-73.283364368715
 31
0.0
  0
LINE
  5
30D
330
17
100
AcDbEntity
  8
0
100
AcDbLine
 10
-18.16709391309033
 20
-73.283364368715
 30
0.0
 11
-18.110915700909242
 21
-73.25383602788564
 31
0.0
  0
LINE
  5
30E
330
17
100
AcDbEntity
  8
0
100
AcDbLine
 10
-18.110915700909242
 20
-73.25383602788564
 30
0.0
 11
-18.055213055598095
 21
-73.22342008237445
 31
0.0
  0
LINE
  5
30F
330
17
100
AcDbEntity
  8
0
100
AcDbLine
 10
-18.055213055598095
 20
-73.22342008237445
 30
0.0
 11
-17.99999999999997
 21
-73.19212418923306
 31
0.0
  0
LINE
  5
310
330
17
100
AcDbEntity
  8
0
100
AcDbLine
 10
-17.99999999999997
 20
-73.19212418923306
 30
0.0
 11
-17.945290433706347
 21
-73.15995622703521
 31
0.0
  0
LINE
  5
311
330
17
100
AcDbEntity
  8
0
100
AcDbLine
 10
-17.945290433706347
 20
-73.15995622703521
 30
0.0
 11
-17.89109812955796
 21
-73.12692429389337
 31
0.0
  0
LINE
  5
312
330
17
100
AcDbEntity
  8
0
100
AcDbLine
 10
-17.89109812955796
 20
-73.12692429389337
 30
0.0
 11
-17.837436730177583
 21
-73.09303670542003
 31
0.0
  0
LINE
  5
313
330
17
100
AcDbEntity
  8
0
100
AcDbLine
 10
-17.837436730177583
 20
-73.09303670542003
 30
0.0
 11
-17.78431974453553
 21
-73.0583019926344
 31
0.0
  0
LINE
  5
314
330
17
100
AcDbEntity
  8
0
100
AcDbLine
 10
-17.78431974453553
 20
-73.0583019926344
 30
0.0
 11
-17.731760544548887
 21
-73.02272889981464
 31
0.0
  0
LINE
  5
315
330
17
100
AcDbEntity
  8
0
100
AcDbLine
 10
-17.731760544548887
 20
-73.02272889981464
 30
0.0
 11
-17.67977236171518
 21
-72.98632638229665
 31
0.0
  0
LINE
  5
316
330
17
100
AcDbEntity
  8
0
100
AcDbLine
 10
-17.67977236171518
 20
-72.98632638229665
 30
0.0
 11
-17.62836828378141
 21
-72.94910360421954
 31
0.0
  0
LINE
  5
317
330
17
100
AcDbEntity
  8
0
100
AcDbLine
 10
-17.62836828378141
 20
-72.94910360421954
 30
0.0
 11
-17.577561251449303
 21
-72.91106993621864
 31
0.0
  0
LINE
  5
318
330
17
100
AcDbEntity
  8
0
100
AcDbLine
 10
-17.577561251449303
 20
-72.91106993621864
 30
0.0
 11
-17.527364055117552
 21
-72.87223495306645
 31
0.0
  0
LINE
  5
319
330
17
100
AcDbEntity
  8
0
100
AcDbLine
 10
-17.527364055117552
 20
-72.87223495306645
 30
0.0
 11
-17.47778933166188
 21
-72.83260843126233
 31
0.0
  0
LINE
  5
31A
330
17
100
AcDbEntity
  8
0
100
AcDbLine
 10
-17.47778933166188
 20
-72.83260843126233
 30
0.0
 11
-17.428849561253813
 21
-72.79220034657122
 31
0.0
  0
LINE
  5
31B
330
17
100
AcDbEntity
  8
0
100
AcDbLine
 10
-17.428849561253813
 20
-72.79220034657122
 30
0.0
 11
-17.38055706421883
 21
-72.75102087151234
 31
0.0
  0
LINE
  5
31C
330
17
100
AcDbEntity
  8
0
100
AcDbLine
 10
-17.38055706421883
 20
-72.75102087151234
 30
0.0
 11
-17.332923997934806
 21
-72.70908037279833
 31
0.0
  0
LINE
  5
31D
330
17
100
AcDbEntity
  8
0
100
AcDbLine
 10
-17.332923997934806
 20
-72.70908037279833
 30
0.0
 11
-17.285962353771442
 21
-72.66638940872544
 31
0.0
  0
LINE
  5
31E
330
17
100
AcDbEntity
  8
0
100
AcDbLine
 10
-17.285962353771442
 20
-72.66638940872544
 30
0.0
 11
-17.239683954071523
 21
-72.62295872651559
 31
0.0
  0
LINE
  5
31F
330
17
100
AcDbEntity
  8
0
100
AcDbLine
 10
-17.239683954071523
 20
-72.62295872651559
 30
0.0
 11
-17.194100449174687
 21
-72.57879925961076
 31
0.0
  0
LINE
  5
320
330
17
100
AcDbEntity
  8
0
100
AcDbLine
 10
-17.194100449174687
 20
-72.57879925961076
 30
0.0
 11
-17.14922331448452
 21
-72.5339221249206
 31
0.0
  0
LINE
  5
321
330
17
100
AcDbEntity
  8
0
100
AcDbLine
 10
-17.14922331448452
 20
-72.5339221249206
 30
0.0
 11
-17.105063847579693
 21
-72.48833862002375
 31
0.0
  0
LINE
  5
322
330
17
100
AcDbEntity
  8
0
100
AcDbLine
 10
-17.105063847579693
 20
-72.48833862002375
 30
0.0
 11
-17.061633165369837
 21
-72.44206022032384
 31
0.0
  0
LINE
  5
323
330
17
100
AcDbEntity
  8
0
100
AcDbLine
 10
-17.061633165369837
 20
-72.44206022032384
 30
0.0
 11
-17.01894220129695
 21
-72.39509857616048
 31
0.0
  0
LINE
  5
324
330
17
100
AcDbEntity
  8
0
100
AcDbLine
 10
-17.01894220129695
 20
-72.39509857616048
 30
0.0
 11
-16.97700170258294
 21
-72.34746550987644
 31
0.0
  0
LINE
  5
325
330
17
100
AcDbEntity
  8
0
100
AcDbLine
 10
-16.97700170258294
 20
-72.34746550987644
 30
0.0
 11
-16.93582222752406
 21
-72.29917301284146
 31
0.0
  0
LINE
  5
326
330
17
100
AcDbEntity
  8
0
100
AcDbLine
 10
-16.93582222752406
 20
-72.29917301284146
 30
0.0
 11
-16.895414142832944
 21
-72.2502332424334
 31
0.0
  0
LINE
  5
327
330
17
100
AcDbEntity
  8
0
100
AcDbLine
 10
-16.895414142832944
 20
-72.2502332424334
 30
0.0
 11
-16.85578762102882
 21
-72.20065851897773
 31
0.0
  0
LINE
  5
328
330
17
100
AcDbEntity
  8
0
100
AcDbLine
 10
-16.85578762102882
 20
-72.20065851897773
 30
0.0
 11
-16.816952637876643
 21
-72.15046132264597
 31
0.0
  0
LINE
  5
329
330
17
100
AcDbEntity
  8
0
100
AcDbLine
 10
-16.816952637876643
 20
-72.15046132264597
 30
0.0
 11
-16.778918969875736
 21
-72.09965429031386
 31
0.0
  0
LINE
  5
32A
330
17
100
AcDbEntity
  8
0
100
AcDbLine
 10
-16.778918969875736
 20
-72.09965429031386
 30
0.0
 11
-16.741696191798628
 21
-72.0482502123801
 31
0.0
  0
LINE
  5
32B
330
17
100
AcDbEntity
  8
0
100
AcDbLine
 10
-16.741696191798628
 20
-72.0482502123801
 30
0.0
 11
-16.70529367428064
 21
-71.99626202954639
 31
0.0
  0
LINE
  5
32C
330
17
100
AcDbEntity
  8
0
100
AcDbLine
 10
-16.70529367428064
 20
-71.99626202954639
 30
0.0
 11
-16.669720581460886
 21
-71.94370282955974
 31
0.0
  0
LINE
  5
32D
330
17
100
AcDbEntity
  8
0
100
AcDbLine
 10
-16.669720581460886
 20
-71.94370282955974
 30
0.0
 11
-16.634985868675248
 21
-71.89058584391769
 31
0.0
  0
LINE
  5
32E
330
17
100
AcDbEntity
  8
0
100
AcDbLine
 10
-16.634985868675248
 20
-71.89058584391769
 30
0.0
 11
-16.601098280201914
 21
-71.83692444453732
 31
0.0
  0
LINE
  5
32F
330
17
100
AcDbEntity
  8
0
100
AcDbLine
 10
-16.601098280201914
 20
-71.83692444453732
 30
0.0
 11
-16.568066347060064
 21
-71.78273214038893
 31
0.0
  0
LINE
  5
330
330
17
100
AcDbEntity
  8
0
100
AcDbLine
 10
-16.568066347060064
 20
-71.78273214038893
 30
0.0
 11
-16.535898384862218
 21
-71.7280225740953
 31
0.0
  0
LINE
  5
331
330
17
100
AcDbEntity
  8
0
100
AcDbLine
 10
-16.535898384862218
 20
-71.7280225740953
 30
0.0
 11
-16.50460249172083
 21
-71.67280951849717
 31
0.0
  0
LINE
  5
332
330
17
100
AcDbEntity
  8
0
100
AcDbLine
 10
-16.50460249172083
 20
-71.67280951849717
 30
0.0
 11
-16.474186546209644
 21
-71.61710687318603
 31
0.0
  0
LINE
  5
333
330
17
100
AcDbEntity
  8
0
100
AcDbLine
 10
-16.474186546209644
 20
-71.61710687318603
 30
0.0
 11
-16.44465820538028
 21
-71.56092866100495
 31
0.0
  0
LINE
  5
334
330
17
100
AcDbEntity
  8
0
100
AcDbLine
 10
-16.44465820538028
 20
-71.56092866100495
 30
0.0
 11
-16.41602490283463
 21
-71.5042890245184
 31
0.0
  0
LINE
  5
335
330
17
100
AcDbEntity
  8
0
100
AcDbLine
 10
-16.41602490283463
 20
-71.5042890245184
 30
0.0
 11
-16.388293846853486
 21
-71.44720222245199
 31
0.0
  0
LINE
  5
336
330
17
100
AcDbEntity
  8
0
100
AcDbLine
 10
-16.388293846853486
 20
-71.44720222245199
 30
0.0
 11
-16.3614720185819
 21
-71.38968262610285
 31
0.0
  0
LINE
  5
337
330
17
100
AcDbEntity
  8
0
100
AcDbLine
 10
-16.3614720185819
 20
-71.38968262610285
 30
0.0
 11
-16.335566170271694
 21
-71.33174471572175
 31
0.0
  0
LINE
  5
338
330
17
100
AcDbEntity
  8
0
100
AcDbLine
 10
-16.335566170271694
 20
-71.33174471572175
 30
0.0
 11
-16.310582823581647
 21
-71.27340307686782
 31
0.0
  0
LINE
  5
339
330
17
100
AcDbEntity
  8
0
100
AcDbLine
 10
-16.310582823581647
 20
-71.27340307686782
 30
0.0
 11
-16.28652826793568
 21
-71.21467239673662
 31
0.0
  0
LINE
  5
33A
330
17
100
AcDbEntity
  8
0
100
AcDbLine
 10
-16.28652826793568
 20
-71.21467239673662
 30
0.0
 11
-16.263408558939545
 21
-71.15556746046279
 31
0.0
  0
LINE
  5
33B
330
17
100
AcDbEntity
  8
0
100
AcDbLine
 10
-16.263408558939545
 20
-71.15556746046279
 30
0.0
 11
-16.24122951685634
 21
-71.09610314739798
 31
0.0
  0
LINE
  5
33C
330
17
100
AcDbEntity
  8
0
100
AcDbLine
 10
-16.24122951685634
 20
-71.09610314739798
 30
0.0
 11
-16.219996725141296
 21
-71.036294427365
 31
0.0
  0
LINE
  5
33D
330
17
100
AcDbEntity
  8
0
100
AcDbLine
 10
-16.219996725141296
 20
-71.036294427365
 30
0.0
 11
-16.19971552903619
 21
-70.97615635688925
 31
0.0
  0
LINE
  5
33E
330
17
100
AcDbEntity
  8
0
100
AcDbLine
 10
-16.19971552903619
 20
-70.97615635688925
 30
0.0
 11
-16.180391034223675
 21
-70.9157040754084
 31
0.0
  0
LINE
  5
33F
330
17
100
AcDbEntity
  8
0
100
AcDbLine
 10
-16.180391034223675
 20
-70.9157040754084
 30
0.0
 11
-16.16202810554198
 21
-70.85495280146102
 31
0.0
  0
LINE
  5
340
330
17
100
AcDbEntity
  8
0
100
AcDbLine
 10
-16.16202810554198
 20
-70.85495280146102
 30
0.0
 11
-16.144631365760205
 21
-70.79391782885544
 31
0.0
  0
LINE
  5
341
330
17
100
AcDbEntity
  8
0
100
AcDbLine
 10
-16.144631365760205
 20
-70.79391782885544
 30
0.0
 11
-16.128205194414548
 21
-70.73261452281962
 31
0.0
  0
LINE
  5
342
330
17
100
AcDbEntity
  8
0
100
AcDbLine
 10
-16.128205194414548
 20
-70.73261452281962
 30
0.0
 11
-16.112753726705805
 21
-70.67105831613301
 31
0.0
  0
LINE
  5
343
330
17
100
AcDbEntity
  8
0
100
AcDbLine
 10
-16.112753726705805
 20
-70.67105831613301
 30
0.0
 11
-16.098280852458345
 21
-70.60926470524147
 31
0.0
  0
LINE
  5
344
330
17
100
AcDbEntity
  8
0
100
AcDbLine
 10
-16.098280852458345
 20
-70.60926470524147
 30
0.0
 11
-16.084790215140856
 21
-70.54724924635607
 31
0.0
  0
LINE
  5
345
330
17
100
AcDbEntity
  8
0
100
AcDbLine
 10
-16.084790215140856
 20
-70.54724924635607
 30
0.0
 11
-16.072285210949143
 21
-70.48502755153694
 31
0.0
  0
LINE
  5
346
330
17
100
AcDbEntity
  8
0
100
AcDbLine
 10
-16.072285210949143
 20
-70.48502755153694
 30
0.0
 11
-16.06076898795114
 21
-70.42261528476303
 31
0.0
  0
LINE
  5
347
330
17
100
AcDbEntity
  8
0
100
AcDbLine
 10
-16.06076898795114
 20
-70.42261528476303
 30
0.0
 11
-16.050244445294396
 21
-70.36002815798871
 31
0.0
  0
LINE
  5
348
330
17
100
AcDbEntity
  8
0
100
AcDbLine
 10
-16.050244445294396
 20
-70.36002815798871
 30
0.0
 11
-16.04071423247624
 21
-70.29728192718845
 31
0.0
  0
LINE
  5
349
330
17
100
AcDbEntity
  8
0
100
AcDbLine
 10
-16.04071423247624
 20
-70.29728192718845
 30
0.0
 11
-16.03218074867679
 21
-70.2343923883903
 31
0.0
  0
LINE
  5
34A
330
17
100
AcDbEntity
  8
0
100
AcDbLine
 10
-16.03218074867679
 20
-70.2343923883903
 30
0.0
 11
-16.024646142154957
 21
-70.17137537369935
 31
0.0
  0
LINE
  5
34B
330
17
100
AcDbEntity
  8
0
100
AcDbLine
 10
-16.024646142154957
 20
-70.17137537369935
 30
0.0
 11
-16.018112309707632
 21
-70.10824674731204
 31
0.0
  0
LINE
  5
34C
330
17
100
AcDbEntity
  8
0
100
AcDbLine
 10
-16.018112309707632
 20
-70.10824674731204
 30
0.0
 11
-16.0125808961922
 21
-70.04502240152246
 31
0.0
  0
LINE
  5
34D
330
17
100
AcDbEntity
  8
0
100
AcDbLine
 10
-16.0125808961922
 20
-70.04502240152246
 30
0.0
 11
-16.008053294112432
 21
-69.98171825272156
 31
0.0
  0
LINE
  5
34E
330
17
100
AcDbEntity
  8
0
100
AcDbLine
 10
-16.008053294112432
 20
-69.98171825272156
 30
0.0
 11
-16.00453064326794
 21
-69.91835023739027
 31
0.0
  0
LINE
  5
34F
330
17
100
AcDbEntity
  8
0
100
AcDbLine
 10
-16.00453064326794
 20
-69.91835023739027
 30
0.0
 11
-16.00201383046723
 21
-69.85493430808758
 31
0.0
  0
LINE
  5
350
330
17
100
AcDbEntity
  8
0
100
AcDbLine
 10
-16.00201383046723
 20
-69.85493430808758
 30
0.0
 11
-16.00050348930447
 21
-69.79148642943454
 31
0.0
  0
LINE
  5
351
330
17
100
AcDbEntity
  8
0
100
AcDbLine
 10
-16.00050348930447
 20
-69.79148642943454
 30
0.0
 11
-15.999999999999972
 21
-69.7280225740953
 31
0.0
  0
LINE
  5
352
330
17
100
AcDbEntity
  8
0
100
AcDbLine
 10
-22.002033631336932
 20
-73.19094927545584
 30
0.0
 11
-21.983670123611745
 21
-73.20150106700268
 31
0.0
  0
LINE
  5
353
330
17
100
AcDbEntity
  8
0
100
AcDbLine
 10
-21.983670123611745
 20
-73.20150106700268
 30
0.0
 11
-21.96525100385324
 21
-73.21195547985766
 31
0.0
  0
LINE
  5
354
330
17
100
AcDbEntity
  8
0
100
AcDbLine
 10
-21.96525100385324
 20
-73.21195547985766
 30
0.0
 11
-21.946776788439955
 21
-73.22231222093217
 31
0.0
  0
LINE
  5
355
330
17
100
AcDbEntity
  8
0
100
AcDbLine
 10
-21.946776788439955
 20
-73.22231222093217
 30
0.0
 11
-21.928247995295052
 21
-73.23257099987579
 31
0.0
  0
LINE
  5
356
330
17
100
AcDbEntity
  8
0
100
AcDbLine
 10
-21.928247995295052
 20
-73.23257099987579
 30
0.0
 11
-21.90966514387176
 21
-73.2427315290845
 31
0.0
  0
LINE
  5
357
330
17
100
AcDbEntity
  8
0
100
AcDbLine
 10
-21.90966514387176
 20
-73.2427315290845
 30
0.0
 11
-21.891028755138837
 21
-73.25279352370862
 31
0.0
  0
LINE
  5
358
330
17
100
AcDbEntity
  8
0
100
AcDbLine
 10
-21.891028755138837
 20
-73.25279352370862
 30
0.0
 11
-21.872339351565948
 21
-73.26275670166099
 31
0.0
  0
LINE
  5
359
330
17
100
AcDbEntity
  8
0
100
AcDbLine
 10
-21.872339351565948
 20
-73.26275670166099
 30
0.0
 11
-21.853597457109025
 21
-73.27262078362467
 31
0.0
  0
LINE
  5
35A
330
17
100
AcDbEntity
  8
0
100
AcDbLine
 10
-21.853597457109025
 20
-73.27262078362467
 30
0.0
 11
-21.83480359719559
 21
-73.28238549306096
 31
0.0
  0
LINE
  5
35B
330
17
100
AcDbEntity
  8
0
100
AcDbLine
 10
-21.83480359719559
 20
-73.28238549306096
 30
0.0
 11
-21.815958298709997
 21
-73.29205055621696
 31
0.0
  0
LINE
  5
35C
330
17
100
AcDbEntity
  8
0
100
AcDbLine
 10
-21.815958298709997
 20
-73.29205055621696
 30
0.0
 11
-21.79706208997868
 21
-73.30161570213343
 31
0.0
  0
LINE
  5
35D
330
17
100
AcDbEntity
  8
0
100
AcDbLine
 10
-21.79706208997868
 20
-73.30161570213343
 30
0.0
 11
-21.778115500755344
 21
-73.31108066265227
 31
0.0
  0
LINE
  5
35E
330
17
100
AcDbEntity
  8
0
100
AcDbLine
 10
-21.778115500755344
 20
-73.31108066265227
 30
0.0
 11
-21.759119062206107
 21
-73.32044517242404
 31
0.0
  0
LINE
  5
35F
330
17
100
AcDbEntity
  8
0
100
AcDbLine
 10
-21.759119062206107
 20
-73.32044517242404
 30
0.0
 11
-21.740073306894597
 21
-73.32970896891548
 31
0.0
  0
LINE
  5
360
330
17
100
AcDbEntity
  8
0
100
AcDbLine
 10
-21.740073306894597
 20
-73.32970896891548
 30
0.0
 11
-21.720978768767043
 21
-73.33887179241681
 31
0.0
  0
LINE
  5
361
330
17
100
AcDbEntity
  8
0
100
AcDbLine
 10
-21.720978768767043
 20
-73.33887179241681
 30
0.0
 11
-21.7018359831373
 21
-73.34793338604896
 31
0.0
  0
LINE
  5
362
330
17
100
AcDbEntity
  8
0
100
AcDbLine
 10
-21.7018359831373
 20
-73.34793338604896
 30
0.0
 11
-21.682645486671827
 21
-73.35689349577092
 31
0.0
  0
LINE
  5
363
330
17
100
AcDbEntity
  8
0
100
AcDbLine
 10
-21.682645486671827
 20
-73.35689349577092
 30
0.0
 11
-21.66340781737466
 21
-73.36575187038672
 31
0.0
  0
LINE
  5
364
330
17
100
AcDbEntity
  8
0
100
AcDbLine
 10
-21.66340781737466
 20
-73.36575187038672
 30
0.0
 11
-21.64412351457232
 21
-73.3745082615525
 31
0.0
  0
LINE
  5
365
330
17
100
AcDbEntity
  8
0
100
AcDbLine
 10
-21.64412351457232
 20
-73.3745082615525
 30
0.0
 11
-21.6247931188987
 21
-73.3831624237836
 31
0.0
  0
LINE
  5
366
330
17
100
AcDbEntity
  8
0
100
AcDbLine
 10
-21.6247931188987
 20
-73.3831624237836
 30
0.0
 11
-21.605417172279886
 21
-73.39171411446122
 31
0.0
  0
LINE
  5
367
330
17
100
AcDbEntity
  8
0
100
AcDbLine
 10
-21.605417172279886
 20
-73.39171411446122
 30
0.0
 11
-21.585996217919
 21
-73.40016309383941
 31
0.0
  0
LINE
  5
368
330
17
100
AcDbEntity
  8
0
100
AcDbLine
 10
-21.585996217919
 20
-73.40016309383941
 30
0.0
 11
-21.56653080028094
 21
-73.40850912505172
 31
0.0
  0
LINE
  5
369
330
17
100
AcDbEntity
  8
0
100
AcDbLine
 10
-21.56653080028094
 20
-73.40850912505172
 30
0.0
 11
-21.547021465077144
 21
-73.41675197411783
 31
0.0
  0
LINE
  5
36A
330
17
100
AcDbEntity
  8
0
100
AcDbLine
 10
-21.547021465077144
 20
-73.41675197411783
 30
0.0
 11
-21.52746875925025
 21
-73.4248914099501
 31
0.0
  0
LINE
  5
36B
330
17
100
AcDbEntity
  8
0
100
AcDbLine
 10
-21.52746875925025
 20
-73.4248914099501
 30
0.0
 11
-21.50787323095881
 21
-73.43292720436013
 31
0.0
  0
LINE
  5
36C
330
17
100
AcDbEntity
  8
0
100
AcDbLine
 10
-21.50787323095881
 20
-73.43292720436013
 30
0.0
 11
-21.488235429561897
 21
-73.44085913206506
 31
0.0
  0
LINE
  5
36D
330
17
100
AcDbEntity
  8
0
100
AcDbLine
 10
-21.488235429561897
 20
-73.44085913206506
 30
0.0
 11
-21.468555905603694
 21
-73.4486869706939
 31
0.0
  0
LINE
  5
36E
330
17
100
AcDbEntity
  8
0
100
AcDbLine
 10
-21.468555905603694
 20
-73.4486869706939
 30
0.0
 11
-21.448835210798087
 21
-73.45641050079387
 31
0.0
  0
LINE
  5
36F
330
17
100
AcDbEntity
  8
0
100
AcDbLine
 10
-21.448835210798087
 20
-73.45641050079387
 30
0.0
 11
-21.42907389801318
 21
-73.46402950583638
 31
0.0
  0
LINE
  5
370
330
17
100
AcDbEntity
  8
0
100
AcDbLine
 10
-21.42907389801318
 20
-73.46402950583638
 30
0.0
 11
-21.409272521255797
 21
-73.47154377222324
 31
0.0
  0
LINE
  5
371
330
17
100
AcDbEntity
  8
0
100
AcDbLine
 10
-21.409272521255797
 20
-73.47154377222324
 30
0.0
 11
-21.389431635655946
 21
-73.47895308929262
 31
0.0
  0
LINE
  5
372
330
17
100
AcDbEntity
  8
0
100
AcDbLine
 10
-21.389431635655946
 20
-73.47895308929262
 30
0.0
 11
-21.369551797451273
 21
-73.48625724932488
 31
0.0
  0
LINE
  5
373
330
17
100
AcDbEntity
  8
0
100
AcDbLine
 10
-21.369551797451273
 20
-73.48625724932488
 30
0.0
 11
-21.349633563971455
 21
-73.49345604754848
 31
0.0
  0
LINE
  5
374
330
17
100
AcDbEntity
  8
0
100
AcDbLine
 10
-21.349633563971455
 20
-73.49345604754848
 30
0.0
 11
-21.32967749362257
 21
-73.5005492821457
 31
0.0
  0
LINE
  5
375
330
17
100
AcDbEntity
  8
0
100
AcDbLine
 10
-21.32967749362257
 20
-73.5005492821457
 30
0.0
 11
-21.309684145871454
 21
-73.50753675425827
 31
0.0
  0
LINE
  5
376
330
17
100
AcDbEntity
  8
0
100
AcDbLine
 10
-21.309684145871454
 20
-73.50753675425827
 30
0.0
 11
-21.28965408123002
 21
-73.51441826799295
 31
0.0
  0
LINE
  5
377
330
17
100
AcDbEntity
  8
0
100
AcDbLine
 10
-21.28965408123002
 20
-73.51441826799295
 30
0.0
 11
-21.26958786123953
 21
-73.52119363042709
 31
0.0
  0
LINE
  5
378
330
17
100
AcDbEntity
  8
0
100
AcDbLine
 10
-21.26958786123953
 20
-73.52119363042709
 30
0.0
 11
-21.249486048454845
 21
-73.52786265161392
 31
0.0
  0
LINE
  5
379
330
17
100
AcDbEntity
  8
0
100
AcDbLine
 10
-21.249486048454845
 20
-73.52786265161392
 30
0.0
 11
-21.229349206428687
 21
-73.53442514458796
 31
0.0
  0
LINE
  5
37A
330
17
100
AcDbEntity
  8
0
100
AcDbLine
 10
-21.229349206428687
 20
-73.53442514458796
 30
0.0
 11
-21.209177899695813
 21
-73.54088092537026
 31
0.0
  0
LINE
  5
37B
330
17
100
AcDbEntity
  8
0
100
AcDbLine
 10
-21.209177899695813
 20
-73.54088092537026
 30
0.0
 11
-21.188972693757194
 21
-73.54722981297351
 31
0.0
  0
LINE
  5
37C
330
17
100
AcDbEntity
  8
0
100
AcDbLine
 10
-21.188972693757194
 20
-73.54722981297351
 30
0.0
 11
-21.168734155064158
 21
-73.55347162940717
 31
0.0
  0
LINE
  5
37D
330
17
100
AcDbEntity
  8
0
100
AcDbLine
 10
-21.168734155064158
 20
-73.55347162940717
 30
0.0
 11
-21.148462851002527
 21
-73.55960619968239
 31
0.0
  0
LINE
  5
37E
330
17
100
AcDbEntity
  8
0
100
AcDbLine
 10
-21.148462851002527
 20
-73.55960619968239
 30
0.0
 11
-21.12815934987669
 21
-73.565633351817
 31
0.0
  0
LINE
  5
37F
330
17
100
AcDbEntity
  8
0
100
AcDbLine
 10
-21.12815934987669
 20
-73.565633351817
 30
0.0
 11
-21.10782422089367
 21
-73.57155291684028
 31
0.0
  0
LINE
  5
380
330
17
100
AcDbEntity
  8
0
100
AcDbLine
 10
-21.10782422089367
 20
-73.57155291684028
 30
0.0
 11
-21.087458034147183
 21
-73.57736472879768
 31
0.0
  0
LINE
  5
381
330
17
100
AcDbEntity
  8
0
100
AcDbLine
 10
-21.087458034147183
 20
-73.57736472879768
 30
0.0
 11
-21.067061360601656
 21
-73.58306862475551
 31
0.0
  0
LINE
  5
382
330
17
100
AcDbEntity
  8
0
100
AcDbLine
 10
-21.067061360601656
 20
-73.58306862475551
 30
0.0
 11
-21.04663477207619
 21
-73.58866444480553
 31
0.0
  0
LINE
  5
383
330
17
100
AcDbEntity
  8
0
100
AcDbLine
 10
-21.04663477207619
 20
-73.58866444480553
 30
0.0
 11
-21.026178841228568
 21
-73.59415203206936
 31
0.0
  0
LINE
  5
384
330
17
100
AcDbEntity
  8
0
100
AcDbLine
 10
-21.026178841228568
 20
-73.59415203206936
 30
0.0
 11
-21.005694141539173
 21
-73.59953123270292
 31
0.0
  0
LINE
  5
385
330
17
100
AcDbEntity
  8
0
100
AcDbLine
 10
-21.005694141539173
 20
-73.59953123270292
 30
0.0
 11
-20.985181247294925
 21
-73.60480189590076
 31
0.0
  0
LINE
  5
386
330
17
100
AcDbEntity
  8
0
100
AcDbLine
 10
-20.985181247294925
 20
-73.60480189590076
 30
0.0
 11
-20.964640733573173
 21
-73.60996387390026
 31
0.0
  0
LINE
  5
387
330
17
100
AcDbEntity
  8
0
100
AcDbLine
 10
-20.964640733573173
 20
-73.60996387390026
 30
0.0
 11
-20.944073176225576
 21
-73.61501702198576
 31
0.0
  0
LINE
  5
388
330
17
100
AcDbEntity
  8
0
100
AcDbLine
 10
-20.944073176225576
 20
-73.61501702198576
 30
0.0
 11
-20.92347915186196
 21
-73.6199611984927
 31
0.0
  0
LINE
  5
389
330
17
100
AcDbEntity
  8
0
100
AcDbLine
 10
-20.92347915186196
 20
-73.6199611984927
 30
0.0
 11
-20.902859237834157
 21
-73.62479626481145
 31
0.0
  0
LINE
  5
38A
330
17
100
AcDbEntity
  8
0
100
AcDbLine
 10
-20.902859237834157
 20
-73.62479626481145
 30
0.0
 11
-20.882214012219798
 21
-73.62952208539132
 31
0.0
  0
LINE
  5
38B
330
17
100
AcDbEntity
  8
0
100
AcDbLine
 10
-20.882214012219798
 20
-73.62952208539132
 30
0.0
 11
-20.861544053806142
 21
-73.63413852774431
 31
0.0
  0
LINE
  5
38C
330
17
100
AcDbEntity
  8
0
100
AcDbLine
 10
-20.861544053806142
 20
-73.63413852774431
 30
0.0
 11
-20.840849942073817
 21
-73.63864546244882
 31
0.0
  0
LINE
  5
38D
330
17
100
AcDbEntity
  8
0
100
AcDbLine
 10
-20.840849942073817
 20
-73.63864546244882
 30
0.0
 11
-20.82013225718059
 21
-73.64304276315332
 31
0.0
  0
LINE
  5
38E
330
17
100
AcDbEntity
  8
0
100
AcDbLine
 10
-20.82013225718059
 20
-73.64304276315332
 30
0.0
 11
-20.799391579945098
 21
-73.64733030657982
 31
0.0
  0
LINE
  5
38F
330
17
100
AcDbEntity
  8
0
100
AcDbLine
 10
-20.799391579945098
 20
-73.64733030657982
 30
0.0
 11
-20.778628491830577
 21
-73.65150797252737
 31
0.0
  0
LINE
  5
390
330
17
100
AcDbEntity
  8
0
100
AcDbLine
 10
-20.778628491830577
 20
-73.65150797252737
 30
0.0
 11
-20.757843574928536
 21
-73.65557564387545
 31
0.0
  0
LINE
  5
391
330
17
100
AcDbEntity
  8
0
100
AcDbLine
 10
-20.757843574928536
 20
-73.65557564387545
 30
0.0
 11
-20.73703741194246
 21
-73.65953320658724
 31
0.0
  0
LINE
  5
392
330
17
100
AcDbEntity
  8
0
100
AcDbLine
 10
-20.73703741194246
 20
-73.65953320658724
 30
0.0
 11
-20.716210586171467
 21
-73.66338054971276
 31
0.0
  0
LINE
  5
393
330
17
100
AcDbEntity
  8
0
100
AcDbLine
 10
-20.716210586171467
 20
-73.66338054971276
 30
0.0
 11
-20.69536368149395
 21
-73.66711756539206
 31
0.0
  0
LINE
  5
394
330
17
100
AcDbEntity
  8
0
100
AcDbLine
 10
-20.69536368149395
 20
-73.66711756539206
 30
0.0
 11
-20.67449728235122
 21
-73.6707441488582
 31
0.0
  0
LINE
  5
395
330
17
100
AcDbEntity
  8
0
100
AcDbLine
 10
-20.67449728235122
 20
-73.6707441488582
 30
0.0
 11
-20.653611973731095
 21
-73.67426019844021
 31
0.0
  0
LINE
  5
396
330
17
100
AcDbEntity
  8
0
100
AcDbLine
 10
-20.653611973731095
 20
-73.67426019844021
 30
0.0
 11
-20.632708341151552
 21
-73.67766561556591
 31
0.0
  0
LINE
  5
397
330
17
100
AcDbEntity
  8
0
100
AcDbLine
 10
-20.632708341151552
 20
-73.67766561556591
 30
0.0
 11
-20.611786970644243
 21
-73.68096030476472
 31
0.0
  0
LINE
  5
398
330
17
100
AcDbEntity
  8
0
100
AcDbLine
 10
-20.611786970644243
 20
-73.68096030476472
 30
0.0
 11
-20.590848448738125
 21
-73.68414417367029
 31
0.0
  0
LINE
  5
399
330
17
100
AcDbEntity
  8
0
100
AcDbLine
 10
-20.590848448738125
 20
-73.68414417367029
 30
0.0
 11
-20.569893362442983
 21
-73.6872171330231
 31
0.0
  0
LINE
  5
39A
330
17
100
AcDbEntity
  8
0
100
AcDbLine
 10
-20.569893362442983
 20
-73.6872171330231
 30
0.0
 11
-20.54892229923299
 21
-73.69017909667298
 31
0.0
  0
LINE
  5
39B
330
17
100
AcDbEntity
  8
0
100
AcDbLine
 10
-20.54892229923299
 20
-73.69017909667298
 30
0.0
 11
-20.52793584703022
 21
-73.6930299815815
 31
0.0
  0
LINE
  5
39C
330
17
100
AcDbEntity
  8
0
100
AcDbLine
 10
-20.52793584703022
 20
-73.6930299815815
 30
0.0
 11
-20.506934594188188
 21
-73.69576970782437
 31
0.0
  0
LINE
  5
39D
330
17
100
AcDbEntity
  8
0
100
AcDbLine
 10
-20.506934594188188
 20
-73.69576970782437
 30
0.0
 11
-20.485919129475338
 21
-73.69839819859357
 31
0.0
  0
LINE
  5
39E
330
17
100
AcDbEntity
  8
0
100
AcDbLine
 10
-20.485919129475338
 20
-73.69839819859357
 30
0.0
 11
-20.464890042058542
 21
-73.70091538019955
 31
0.0
  0
LINE
  5
39F
330
17
100
AcDbEntity
  8
0
100
AcDbLine
 10
-20.464890042058542
 20
-73.70091538019955
 30
0.0
 11
-20.44384792148658
 21
-73.70332118207332
 31
0.0
  0
LINE
  5
3A0
330
17
100
AcDbEntity
  8
0
100
AcDbLine
 10
-20.44384792148658
 20
-73.70332118207332
 30
0.0
 11
-20.422793357673626
 21
-73.70561553676846
 31
0.0
  0
LINE
  5
3A1
330
17
100
AcDbEntity
  8
0
100
AcDbLine
 10
-20.422793357673626
 20
-73.70561553676846
 30
0.0
 11
-20.401726940882696
 21
-73.7077983799629
 31
0.0
  0
LINE
  5
3A2
330
17
100
AcDbEntity
  8
0
100
AcDbLine
 10
-20.401726940882696
 20
-73.7077983799629
 30
0.0
 11
-20.38064926170909
 21
-73.70986965046079
 31
0.0
  0
LINE
  5
3A3
330
17
100
AcDbEntity
  8
0
100
AcDbLine
 10
-20.38064926170909
 20
-73.70986965046079
 30
0.0
 11
-20.359560911063866
 21
-73.71182929019423
 31
0.0
  0
LINE
  5
3A4
330
17
100
AcDbEntity
  8
0
100
AcDbLine
 10
-20.359560911063866
 20
-73.71182929019423
 30
0.0
 11
-20.33846248015725
 21
-73.7136772442249
 31
0.0
  0
LINE
  5
3A5
330
17
100
AcDbEntity
  8
0
100
AcDbLine
 10
-20.33846248015725
 20
-73.7136772442249
 30
0.0
 11
-20.31735456048206
 21
-73.71541346074552
 31
0.0
  0
LINE
  5
3A6
330
17
100
AcDbEntity
  8
0
100
AcDbLine
 10
-20.31735456048206
 20
-73.71541346074552
 30
0.0
 11
-20.296237743797136
 21
-73.71703789108143
 31
0.0
  0
LINE
  5
3A7
330
17
100
AcDbEntity
  8
0
100
AcDbLine
 10
-20.296237743797136
 20
-73.71703789108143
 30
0.0
 11
-20.27511262211075
 21
-73.71855048969185
 31
0.0
  0
LINE
  5
3A8
330
17
100
AcDbEntity
  8
0
100
AcDbLine
 10
-20.27511262211075
 20
-73.71855048969185
 30
0.0
 11
-20.253979787664004
 21
-73.71995121417119
 31
0.0
  0
LINE
  5
3A9
330
17
100
AcDbEntity
  8
0
100
AcDbLine
 10
-20.253979787664004
 20
-73.71995121417119
 30
0.0
 11
-20.23283983291421
 21
-73.72124002525025
 31
0.0
  0
LINE
  5
3AA
330
17
100
AcDbEntity
  8
0
100
AcDbLine
 10
-20.23283983291421
 20
-73.72124002525025
 30
0.0
 11
-20.211693350518317
 21
-73.72241688679733
 31
0.0
  0
LINE
  5
3AB
330
17
100
AcDbEntity
  8
0
100
AcDbLine
 10
-20.211693350518317
 20
-73.72241688679733
 30
0.0
 11
-20.190540933316267
 21
-73.7234817658192
 31
0.0
  0
LINE
  5
3AC
330
17
100
AcDbEntity
  8
0
100
AcDbLine
 10
-20.190540933316267
 20
-73.7234817658192
 30
0.0
 11
-20.169383174314387
 21
-73.72443463246206
 31
0.0
  0
LINE
  5
3AD
330
17
100
AcDbEntity
  8
0
100
AcDbLine
 10
-20.169383174314387
 20
-73.72443463246206
 30
0.0
 11
-20.148220666668752
 21
-73.72527546001237
 31
0.0
  0
LINE
  5
3AE
330
17
100
AcDbEntity
  8
0
100
AcDbLine
 10
-20.148220666668752
 20
-73.72527546001237
 30
0.0
 11
-20.12705400366858
 21
-73.7260042248976
 31
0.0
  0
LINE
  5
3AF
330
17
100
AcDbEntity
  8
0
100
AcDbLine
 10
-20.12705400366858
 20
-73.7260042248976
 30
0.0
 11
-20.105883778719573
 21
-73.72662090668688
 31
0.0
  0
LINE
  5
3B0
330
17
100
AcDbEntity
  8
0
100
AcDbLine
 10
-20.105883778719573
 20
-73.72662090668688
 30
0.0
 11
-20.084710585327294
 21
-73.72712548809159
 31
0.0
  0
LINE
  5
3B1
330
17
100
AcDbEntity
  8
0
100
AcDbLine
 10
-20.084710585327294
 20
-73.72712548809159
 30
0.0
 11
-20.06353501708053
 21
-73.72751795496582
 31
0.0
  0
LINE
  5
3B2
330
17
100
AcDbEntity
  8
0
100
AcDbLine
 10
-20.06353501708053
 20
-73.72751795496582
 30
0.0
 11
-20.04235766763464
 21
-73.72779829630682
 31
0.0
  0
LINE
  5
3B3
330
17
100
AcDbEntity
  8
0
100
AcDbLine
 10
-20.04235766763464
 20
-73.72779829630682
 30
0.0
 11
-20.021179130694925
 21
-73.7279665042552
 31
0.0
  0
LINE
  5
3B4
330
17
100
AcDbEntity
  8
0
100
AcDbLine
 10
-20.021179130694925
 20
-73.7279665042552
 30
0.0
 11
-19.99999999999997
 21
-73.7280225740953
 31
0.0
  0
ENDSEC
  0
SECTION
  2
OBJECTS
  0
DICTIONARY
  5
A
330
0
100
AcDbDictionary
280
0
281
1
  3
ACAD_COLOR
350
B
  3
ACAD_GROUP
350
C
  3
ACAD_LAYOUT
350
D
  3
ACAD_MATERIAL
350
E
  3
ACAD_MLEADERSTYLE
350
F
  3
ACAD_MLINESTYLE
350
10
  3
ACAD_PLOTSETTINGS
350
11
  3
ACAD_PLOTSTYLENAME
350
12
  3
ACAD_SCALELIST
350
14
  3
ACAD_TABLESTYLE
350
15
  3
ACAD_VISUALSTYLE
350
16
  3
EZDXF_META
350
2D
  0
DICTIONARY
  5
B
330
A
100
AcDbDictionary
280
0
281
1
  0
DICTIONARY
  5
C
330
A
100
AcDbDictionary
280
0
281
1
  0
DICTIONARY
  5
D
330
A
100
AcDbDictionary
280
0
281
1
  3
Model
350
1A
  3
Layout1
350
1E
  0
DICTIONARY
  5
E
330
A
100
AcDbDictionary
280
0
281
1
  3
ByBlock
350
1F
  3
ByLayer
350
20
  3
Global
350
21
  0
DICTIONARY
  5
F
330
A
100
AcDbDictionary
280
0
281
1
  3
Standard
350
2C
  0
DICTIONARY
  5
10
330
A
100
AcDbDictionary
280
0
281
1
  3
Standard
350
22
  0
DICTIONARY
  5
11
330
A
100
AcDbDictionary
280
0
281
1
  0
ACDBDICTIONARYWDFLT
  5
12
330
A
100
AcDbDictionary
280
0
281
1
  3
Normal
350
13
100
AcDbDictionaryWithDefault
340
13
  0
ACDBPLACEHOLDER
  5
13
330
12
  0
DICTIONARY
  5
14
330
A
100
AcDbDictionary
280
0
281
1
  0
DICTIONARY
  5
15
330
A
100
AcDbDictionary
280
0
281
1
  0
DICTIONARY
  5
16
330
A
100
AcDbDictionary
280
0
281
1
  0
LAYOUT
  5
1A
330
D
100
AcDbPlotSettings
  1

  2
Adobe PDF
  4
A3
  6

 40
7.5
 41
20.0
 42
7.5
 43
20.0
 44
420.0
 45
297.0
 46
0.0
 47
0.0
 48
0.0
 49
0.0
140
0.0
141
0.0
142
1.0
143
1.0
 70
1024
 72
1
 73
0
 74
5
  7

 75
16
 76
0
 77
2
 78
300
147
1.0
148
0.0
149
0.0
100
AcDbLayout
  1
Model
 70
1
 71
0
 10
0.0
 20
0.0
 11
420.0
 21
297.0
 12
0.0
 22
0.0
 32
0.0
 14
1e+20
 24
1e+20
 34
1e+20
 15
-1e+20
 25
-1e+20
 35
-1e+20
146
0.0
 13
0.0
 23
0.0
 33
0.0
 16
1.0
 26
0.0
 36
0.0
 17
0.0
 27
1.0
 37
0.0
 76
1
330
17
  0
LAYOUT
  5
1E
330
D
100
AcDbPlotSettings
  1

  2
Adobe PDF
  4
A3
  6

 40
7.5
 41
20.0
 42
7.5
 43
20.0
 44
420.0
 45
297.0
 46
0.0
 47
0.0
 48
0.0
 49
0.0
140
0.0
141
0.0
142
1.0
143
1.0
 70
0
 72
1
 73
0
 74
5
  7

 75
16
 76
0
 77
2
 78
300
147
1.0
148
0.0
149
0.0
100
AcDbLayout
  1
Layout1
 70
1
 71
1
 10
0.0
 20
0.0
 11
420.0
 21
297.0
 12
0.0
 22
0.0
 32
0.0
 14
1e+20
 24
1e+20
 34
1e+20
 15
-1e+20
 25
-1e+20
 35
-1e+20
146
0.0
 13
0.0
 23
0.0
 33
0.0
 16
1.0
 26
0.0
 36
0.0
 17
0.0
 27
1.0
 37
0.0
 76
1
330
1B
  0
MATERIAL
  5
1F
102
{ACAD_REACTORS
330
E
102
}
330
E
100
AcDbMaterial
  1
ByBlock
  2

 70
0
 40
1.0
 71
1
 41
1.0
 91
-1023410177
 42
1.0
 72
1
  3

 73
1
 74
1
 75
1
 44
0.5
 73
0
 45
1.0
 46
1.0
 77
1
  4

 78
1
 79
1
170
1
 48
1.0
171
1
  6

172
1
173
1
174
1
140
1.0
141
1.0
175
1
  7

176
1
177
1
178
1
143
1.0
179
1
  8

270
1
271
1
272
1
145
1.0
146
1.0
273
1
  9

274
1
275
1
276
1
 42
1.0
 72
1
  3

 73
1
 74
1
 75
1
 94
63
  0
MATERIAL
  5
20
102
{ACAD_REACTORS
330
E
102
}
330
E
100
AcDbMaterial
  1
ByLayer
  2

 70
0
 40
1.0
 71
1
 41
1.0
 91
-1023410177
 42
1.0
 72
1
  3

 73
1
 74
1
 75
1
 44
0.5
 73
0
 45
1.0
 46
1.0
 77
1
  4

 78
1
 79
1
170
1
 48
1.0
171
1
  6

172
1
173
1
174
1
140
1.0
141
1.0
175
1
  7

176
1
177
1
178
1
143
1.0
179
1
  8

270
1
271
1
272
1
145
1.0
146
1.0
273
1
  9

274
1
275
1
276
1
 42
1.0
 72
1
  3

 73
1
 74
1
 75
1
 94
63
  0
MATERIAL
  5
21
102
{ACAD_REACTORS
330
E
102
}
330
E
100
AcDbMaterial
  1
Global
  2

 70
0
 40
1.0
 71
1
 41
1.0
 91
-1023410177
 42
1.0
 72
1
  3

 73
1
 74
1
 75
1
 44
0.5
 73
0
 45
1.0
 46
1.0
 77
1
  4

 78
1
 79
1
170
1
 48
1.0
171
1
  6

172
1
173
1
174
1
140
1.0
141
1.0
175
1
  7

176
1
177
1
178
1
143
1.0
179
1
  8

270
1
271
1
272
1
145
1.0
146
1.0
273
1
  9

274
1
275
1
276
1
 42
1.0
 72
1
  3

 73
1
 74
1
 75
1
 94
63
  0
MLINESTYLE
  5
22
102
{ACAD_REACTORS
330
10
102
}
330
10
100
AcDbMlineStyle
  2
Standard
 70
0
  3

 62
256
 51
90.0
 52
90.0
 71
2
 49
0.5
 62
256
  6
BYLAYER
 49
-0.5
 62
256
  6
BYLAYER
  0
MLEADERSTYLE
  5
2C
102
{ACAD_REACTORS
330
F
102
}
330
F
100
AcDbMLeaderStyle
179
2
170
2
171
1
172
0
 90
2
 40
0.0
 41
0.0
173
1
 91
-1056964608
 92
-2
290
1
 42
2.0
291
1
 43
8.0
  3
Standard
 44
4.0
300

342
29
174
1
175
1
176
0
178
1
 93
-1056964608
 45
4.0
292
0
297
0
 46
4.0
 94
-1056964608
 47
1.0
 49
1.0
140
1.0
294
1
141
0.0
177
0
142
1.0
295
0
296
0
143
3.75
271
0
272
9
273
9
  0
DICTIONARY
  5
2D
330
A
100
AcDbDictionary
281
1
  3
CREATED_BY_EZDXF
350
2E
  3
WRITTEN_BY_EZDXF
350
3B7
  0
DICTIONARYVAR
  5
2E
330
2D
100
DictionaryVariables
280
0
  1
1.0.2 @ 2023-11-27T08:45:38.084988+00:00
  0
DICTIONARYVAR
  5
3B7
330
2D
100
DictionaryVariables
280
0
  1
1.0.2 @ 2023-11-27T08:45:38.110226+00:00
  0
ENDSEC
  0
EOF
