  0
SECTION
  2
HEADER
  9
$ACADVER
  1
AC1027
  9
$ACADMAINTVER
 70
105
  9
$DWGCODEPAGE
  3
ANSI_1252
  9
$LASTSAVEDBY
  1
ezdxf
  9
$REQUIREDVERSIONS
160
0
  9
$INSBASE
 10
0.0
 20
0.0
 30
0.0
  9
$EXTMIN
 10
1e+20
 20
1e+20
 30
1e+20
  9
$EXTMAX
 10
-1e+20
 20
-1e+20
 30
-1e+20
  9
$LIMMIN
 10
0.0
 20
0.0
  9
$LIMMAX
 10
420.0
 20
297.0
  9
$ORTHOMODE
 70
0
  9
$REGENMODE
 70
1
  9
$FILLMODE
 70
1
  9
$QTEXTMODE
 70
0
  9
$MIRRTEXT
 70
1
  9
$LTSCALE
 40
1.0
  9
$ATTMODE
 70
1
  9
$TEXTSIZE
 40
2.5
  9
$TRACEWID
 40
1.0
  9
$TEXTSTYLE
  7
Standard
  9
$CLAYER
  8
0
  9
$CELTYPE
  6
ByLayer
  9
$CECOLOR
 62
256
  9
$CELTSCALE
 40
1.0
  9
$DISPSILH
 70
0
  9
$DIMSCALE
 40
1.0
  9
$DIMASZ
 40
2.5
  9
$DIMEXO
 40
0.625
  9
$DIMDLI
 40
3.75
  9
$DIMRND
 40
0.0
  9
$DIMDLE
 40
0.0
  9
$DIMEXE
 40
1.25
  9
$DIMTP
 40
0.0
  9
$DIMTM
 40
0.0
  9
$DIMTXT
 40
2.5
  9
$DIMCEN
 40
2.5
  9
$DIMTSZ
 40
0.0
  9
$DIMTOL
 70
0
  9
$DIMLIM
 70
0
  9
$DIMTIH
 70
0
  9
$DIMTOH
 70
0
  9
$DIMSE1
 70
0
  9
$DIMSE2
 70
0
  9
$DIMTAD
 70
1
  9
$DIMZIN
 70
8
  9
$DIMBLK
  1

  9
$DIMASO
 70
1
  9
$DIMSHO
 70
1
  9
$DIMPOST
  1

  9
$DIMAPOST
  1

  9
$DIMALT
 70
0
  9
$DIMALTD
 70
3
  9
$DIMALTF
 40
0.03937007874
  9
$DIMLFAC
 40
1.0
  9
$DIMTOFL
 70
1
  9
$DIMTVP
 40
0.0
  9
$DIMTIX
 70
0
  9
$DIMSOXD
 70
0
  9
$DIMSAH
 70
0
  9
$DIMBLK1
  1

  9
$DIMBLK2
  1

  9
$DIMSTYLE
  2
ISO-25
  9
$DIMCLRD
 70
0
  9
$DIMCLRE
 70
0
  9
$DIMCLRT
 70
0
  9
$DIMTFAC
 40
1.0
  9
$DIMGAP
 40
0.625
  9
$DIMJUST
 70
0
  9
$DIMSD1
 70
0
  9
$DIMSD2
 70
0
  9
$DIMTOLJ
 70
0
  9
$DIMTZIN
 70
8
  9
$DIMALTZ
 70
0
  9
$DIMALTTZ
 70
0
  9
$DIMUPT
 70
0
  9
$DIMDEC
 70
2
  9
$DIMTDEC
 70
2
  9
$DIMALTU
 70
2
  9
$DIMALTTD
 70
3
  9
$DIMTXSTY
  7
Standard
  9
$DIMAUNIT
 70
0
  9
$DIMADEC
 70
0
  9
$DIMALTRND
 40
0.0
  9
$DIMAZIN
 70
0
  9
$DIMDSEP
 70
44
  9
$DIMATFIT
 70
3
  9
$DIMFRAC
 70
0
  9
$DIMLDRBLK
  1

  9
$DIMLUNIT
 70
2
  9
$DIMLWD
 70
-2
  9
$DIMLWE
 70
-2
  9
$DIMTMOVE
 70
0
  9
$DIMFXL
 40
1.0
  9
$DIMFXLON
 70
0
  9
$DIMJOGANG
 40
0.785398163397
  9
$DIMTFILL
 70
0
  9
$DIMTFILLCLR
 70
0
  9
$DIMARCSYM
 70
0
  9
$DIMLTYPE
  6

  9
$DIMLTEX1
  6

  9
$DIMLTEX2
  6

  9
$DIMTXTDIRECTION
 70
0
  9
$LUNITS
 70
2
  9
$LUPREC
 70
4
  9
$SKETCHINC
 40
1.0
  9
$FILLETRAD
 40
10.0
  9
$AUNITS
 70
0
  9
$AUPREC
 70
2
  9
$MENU
  1
.
  9
$ELEVATION
 40
0.0
  9
$PELEVATION
 40
0.0
  9
$THICKNESS
 40
0.0
  9
$LIMCHECK
 70
0
  9
$CHAMFERA
 40
0.0
  9
$CHAMFERB
 40
0.0
  9
$CHAMFERC
 40
0.0
  9
$CHAMFERD
 40
0.0
  9
$SKPOLY
 70
0
  9
$TDCREATE
 40
2460276.0316898148
  9
$TDUCREATE
 40
2458532.153996898
  9
$TDUPDATE
 40
2460276.0316898148
  9
$TDUUPDATE
 40
2458532.1544311
  9
$TDINDWG
 40
0.0
  9
$TDUSRTIMER
 40
0.0
  9
$USRTIMER
 70
1
  9
$ANGBASE
 50
0.0
  9
$ANGDIR
 70
0
  9
$PDMODE
 70
0
  9
$PDSIZE
 40
0.0
  9
$PLINEWID
 40
0.0
  9
$SPLFRAME
 70
0
  9
$SPLINETYPE
 70
6
  9
$SPLINESEGS
 70
8
  9
$HANDSEED
  5
3B8
  9
$SURFTAB1
 70
6
  9
$SURFTAB2
 70
6
  9
$SURFTYPE
 70
6
  9
$SURFU
 70
6
  9
$SURFV
 70
6
  9
$UCSBASE
  2

  9
$UCSNAME
  2

  9
$UCSORG
 10
0.0
 20
0.0
 30
0.0
  9
$UCSXDIR
 10
1.0
 20
0.0
 30
0.0
  9
$UCSYDIR
 10
0.0
 20
1.0
 30
0.0
  9
$UCSORTHOREF
  2

  9
$UCSORTHOVIEW
 70
0
  9
$UCSORGTOP
 10
0.0
 20
0.0
 30
0.0
  9
$UCSORGBOTTOM
 10
0.0
 20
0.0
 30
0.0
  9
$UCSORGLEFT
 10
0.0
 20
0.0
 30
0.0
  9
$UCSORGRIGHT
 10
0.0
 20
0.0
 30
0.0
  9
$UCSORGFRONT
 10
0.0
 20
0.0
 30
0.0
  9
$UCSORGBACK
 10
0.0
 20
0.0
 30
0.0
  9
$PUCSBASE
  2

  9
$PUCSNAME
  2

  9
$PUCSORG
 10
0.0
 20
0.0
 30
0.0
  9
$PUCSXDIR
 10
1.0
 20
0.0
 30
0.0
  9
$PUCSYDIR
 10
0.0
 20
1.0
 30
0.0
  9
$PUCSORTHOREF
  2

  9
$PUCSORTHOVIEW
 70
0
  9
$PUCSORGTOP
 10
0.0
 20
0.0
 30
0.0
  9
$PUCSORGBOTTOM
 10
0.0
 20
0.0
 30
0.0
  9
$PUCSORGLEFT
 10
0.0
 20
0.0
 30
0.0
  9
$PUCSORGRIGHT
 10
0.0
 20
0.0
 30
0.0
  9
$PUCSORGFRONT
 10
0.0
 20
0.0
 30
0.0
  9
$PUCSORGBACK
 10
0.0
 20
0.0
 30
0.0
  9
$USERI1
 70
0
  9
$USERI2
 70
0
  9
$USERI3
 70
0
  9
$USERI4
 70
0
  9
$USERI5
 70
0
  9
$USERR1
 40
0.0
  9
$USERR2
 40
0.0
  9
$USERR3
 40
0.0
  9
$USERR4
 40
0.0
  9
$USERR5
 40
0.0
  9
$WORLDVIEW
 70
1
  9
$SHADEDGE
 70
3
  9
$SHADEDIF
 70
70
  9
$TILEMODE
 70
1
  9
$MAXACTVP
 70
64
  9
$PINSBASE
 10
0.0
 20
0.0
 30
0.0
  9
$PLIMCHECK
 70
0
  9
$PEXTMIN
 10
1e+20
 20
1e+20
 30
1e+20
  9
$PEXTMAX
 10
-1e+20
 20
-1e+20
 30
-1e+20
  9
$PLIMMIN
 10
0.0
 20
0.0
  9
$PLIMMAX
 10
420.0
 20
297.0
  9
$UNITMODE
 70
0
  9
$VISRETAIN
 70
1
  9
$PLINEGEN
 70
0
  9
$PSLTSCALE
 70
1
  9
$TREEDEPTH
 70
3020
  9
$CMLSTYLE
  2
Standard
  9
$CMLJUST
 70
0
  9
$CMLSCALE
 40
20.0
  9
$PROXYGRAPHICS
 70
1
  9
$MEASUREMENT
 70
1
  9
$CELWEIGHT
370
-1
  9
$ENDCAPS
280
0
  9
$JOINSTYLE
280
0
  9
$LWDISPLAY
290
0
  9
$INSUNITS
 70
6
  9
$HYPERLINKBASE
  1

  9
$STYLESHEET
  1

  9
$XEDIT
290
1
  9
$CEPSNTYPE
380
0
  9
$PSTYLEMODE
290
1
  9
$FINGERPRINTGUID
  2
{928A1B57-0620-4D5F-8FB2-76E2297B8E8B}
  9
$VERSIONGUID
  2
{A6A21FF9-0A1F-48BF-869A-8EAFBC6CD214}
  9
$EXTNAMES
290
1
  9
$PSVPSCALE
 40
0.0
  9
$OLESTARTUP
290
0
  9
$SORTENTS
280
127
  9
$INDEXCTL
280
0
  9
$HIDETEXT
280
1
  9
$XCLIPFRAME
280
0
  9
$HALOGAP
280
0
  9
$OBSCOLOR
 70
257
  9
$OBSLTYPE
280
0
  9
$INTERSECTIONDISPLAY
280
0
  9
$INTERSECTIONCOLOR
 70
257
  9
$DIMASSOC
280
2
  9
$PROJECTNAME
  1

  9
$CAMERADISPLAY
290
0
  9
$LENSLENGTH
 40
50.0
  9
$CAMERAHEIGHT
 40
0.0
  9
$STEPSPERSEC
 40
24.0
  9
$STEPSIZE
 40
100.0
  9
$3DDWFPREC
 40
2.0
  9
$PSOLWIDTH
 40
0.005
  9
$PSOLHEIGHT
 40
0.08
  9
$LOFTANG1
 40
1.570796326795
  9
$LOFTANG2
 40
1.570796326795
  9
$LOFTMAG1
 40
0.0
  9
$LOFTMAG2
 40
0.0
  9
$LOFTPARAM
 70
7
  9
$LOFTNORMALS
280
1
  9
$LATITUDE
 40
37.795
  9
$LONGITUDE
 40
-122.394
  9
$NORTHDIRECTION
 40
0.0
  9
$TIMEZONE
 70
-8000
  9
$LIGHTGLYPHDISPLAY
280
1
  9
$TILEMODELIGHTSYNCH
280
1
  9
$CMATERIAL
347
20
  9
$SOLIDHIST
280
0
  9
$SHOWHIST
280
1
  9
$DWFFRAME
280
2
  9
$DGNFRAME
280
2
  9
$REALWORLDSCALE
290
1
  9
$INTERFERECOLOR
 62
256
  9
$CSHADOW
280
0
  9
$SHADOWPLANELOCATION
 40
0.0
  0
ENDSEC
  0
SECTION
  2
CLASSES
  0
CLASS
  1
ACDBDICTIONARYWDFLT
  2
AcDbDictionaryWithDefault
  3
ObjectDBX Classes
 90
0
 91
0
280
0
281
0
  0
CLASS
  1
SUN
  2
AcDbSun
  3
SCENEOE
 90
1153
 91
0
280
0
281
0
  0
CLASS
  1
VISUALSTYLE
  2
AcDbVisualStyle
  3
ObjectDBX Classes
 90
4095
 91
0
280
0
281
0
  0
CLASS
  1
MATERIAL
  2
AcDbMaterial
  3
ObjectDBX Classes
 90
1153
 91
0
280
0
281
0
  0
CLASS
  1
SCALE
  2
AcDbScale
  3
ObjectDBX Classes
 90
1153
 91
0
280
0
281
0
  0
CLASS
  1
TABLESTYLE
  2
AcDbTableStyle
  3
ObjectDBX Classes
 90
4095
 91
0
280
0
281
0
  0
CLASS
  1
MLEADERSTYLE
  2
AcDbMLeaderStyle
  3
ACDB_MLEADERSTYLE_CLASS
 90
4095
 91
0
280
0
281
0
  0
CLASS
  1
DICTIONARYVAR
  2
AcDbDictionaryVar
  3
ObjectDBX Classes
 90
0
 91
0
280
0
281
0
  0
CLASS
  1
CELLSTYLEMAP
  2
AcDbCellStyleMap
  3
ObjectDBX Classes
 90
1152
 91
0
280
0
281
0
  0
CLASS
  1
MENTALRAYRENDERSETTINGS
  2
AcDbMentalRayRenderSettings
  3
SCENEOE
 90
1024
 91
0
280
0
281
0
  0
CLASS
  1
ACDBDETAILVIEWSTYLE
  2
AcDbDetailViewStyle
  3
ObjectDBX Classes
 90
1025
 91
0
280
0
281
0
  0
CLASS
  1
ACDBSECTIONVIEWSTYLE
  2
AcDbSectionViewStyle
  3
ObjectDBX Classes
 90
1025
 91
0
280
0
281
0
  0
CLASS
  1
RASTERVARIABLES
  2
AcDbRasterVariables
  3
ISM
 90
0
 91
0
280
0
281
0
  0
CLASS
  1
ACDBPLACEHOLDER
  2
AcDbPlaceHolder
  3
ObjectDBX Classes
 90
0
 91
0
280
0
281
0
  0
CLASS
  1
LAYOUT
  2
AcDbLayout
  3
ObjectDBX Classes
 90
0
 91
0
280
0
281
0
  0
ENDSEC
  0
SECTION
  2
TABLES
  0
TABLE
  2
VPORT
  5
8
330
0
100
AcDbSymbolTable
 70
1
  0
VPORT
  5
23
330
8
100
AcDbSymbolTableRecord
100
AcDbViewportTableRecord
  2
*Active
 70
0
 10
0.0
 20
0.0
 11
1.0
 21
1.0
 12
0.0
 22
0.0
 13
0.0
 23
0.0
 14
0.5
 24
0.5
 15
0.5
 25
0.5
 16
0.0
 26
0.0
 36
1.0
 17
0.0
 27
0.0
 37
0.0
 40
1000.0
 41
1.34
 42
50.0
 43
0.0
 44
0.0
 50
0.0
 51
0.0
 71
0
 72
1000
 73
1
 74
3
 75
0
 76
0
 77
0
 78
0
281
0
 65
0
146
0.0
  0
ENDTAB
  0
TABLE
  2
LTYPE
  5
2
330
0
100
AcDbSymbolTable
 70
3
  0
LTYPE
  5
24
330
2
100
AcDbSymbolTableRecord
100
AcDbLinetypeTableRecord
  2
ByBlock
 70
0
  3

 72
65
 73
0
 40
0.0
  0
LTYPE
  5
25
330
2
100
AcDbSymbolTableRecord
100
AcDbLinetypeTableRecord
  2
ByLayer
 70
0
  3

 72
65
 73
0
 40
0.0
  0
LTYPE
  5
26
330
2
100
AcDbSymbolTableRecord
100
AcDbLinetypeTableRecord
  2
Continuous
 70
0
  3

 72
65
 73
0
 40
0.0
  0
ENDTAB
  0
TABLE
  2
LAYER
  5
1
330
0
100
AcDbSymbolTable
 70
2
  0
LAYER
  5
27
330
1
100
AcDbSymbolTableRecord
100
AcDbLayerTableRecord
  2
0
 70
0
 62
7
  6
Continuous
370
-3
390
13
347
21
  0
LAYER
  5
28
330
1
100
AcDbSymbolTableRecord
100
AcDbLayerTableRecord
  2
Defpoints
 70
0
 62
7
  6
Continuous
290
0
370
-3
390
13
347
21
  0
ENDTAB
  0
TABLE
  2
STYLE
  5
5
330
0
100
AcDbSymbolTable
 70
1
  0
STYLE
  5
29
330
5
100
AcDbSymbolTableRecord
100
AcDbTextStyleTableRecord
  2
Standard
 70
0
 40
0.0
 41
1.0
 50
0.0
 71
0
 42
2.5
  3
txt
  4

  0
ENDTAB
  0
TABLE
  2
VIEW
  5
7
330
0
100
AcDbSymbolTable
 70
0
  0
ENDTAB
  0
TABLE
  2
UCS
  5
6
330
0
100
AcDbSymbolTable
 70
0
  0
ENDTAB
  0
TABLE
  2
APPID
  5
3
330
0
100
AcDbSymbolTable
 70
3
  0
APPID
  5
2A
330
3
100
AcDbSymbolTableRecord
100
AcDbRegAppTableRecord
  2
ACAD
 70
0
  0
APPID
  5
3B5
330
3
100
AcDbSymbolTableRecord
100
AcDbRegAppTableRecord
  2
HATCHBACKGROUNDCOLOR
 70
0
  0
APPID
  5
3B6
330
3
100
AcDbSymbolTableRecord
100
AcDbRegAppTableRecord
  2
EZDXF
 70
0
  0
ENDTAB
  0
TABLE
  2
DIMSTYLE
  5
4
330
0
100
AcDbSymbolTable
 70
1
100
AcDbDimStyleTable
  0
DIMSTYLE
105
2B
330
4
100
AcDbSymbolTableRecord
100
AcDbDimStyleTableRecord
  2
Standard
 70
0
 40
1.0
 41
2.5
 42
0.625
 43
3.75
 44
1.25
 45
0.0
 46
0.0
 47
0.0
 48
0.0
 49
2.5
140
2.5
141
2.5
142
0.0
143
0.03937007874
144
1.0
145
0.0
146
1.0
147
0.625
148
0.0
 69
0
 70
0
 71
0
 72
0
 73
0
 74
0
 75
0
 76
0
 77
1
 78
8
 79
3
170
0
171
3
172
1
173
0
174
0
175
0
176
0
177
0
178
0
179
2
271
2
272
2
273
2
274
3
275
0
276
0
277
2
278
44
279
0
280
0
281
0
282
0
283
0
284
8
285
0
286
0
288
0
289
3
290
0
371
-2
372
-2
  0
ENDTAB
  0
TABLE
  2
BLOCK_RECORD
  5
9
330
0
100
AcDbSymbolTable
 70
2
  0
BLOCK_RECORD
  5
17
330
9
100
AcDbSymbolTableRecord
100
AcDbBlockTableRecord
  2
*Model_Space
340
1A
 70
0
280
1
281
0
  0
BLOCK_RECORD
  5
1B
330
9
100
AcDbSymbolTableRecord
100
AcDbBlockTableRecord
  2
*Paper_Space
340
1E
 70
0
280
1
281
0
  0
ENDTAB
  0
ENDSEC
  0
SECTION
  2
BLOCKS
  0
BLOCK
  5
18
330
17
100
AcDbEntity
  8
0
100
AcDbBlockBegin
  2
*Model_Space
 70
0
 10
0.0
 20
0.0
 30
0.0
  3
*Model_Space
  1

  0
ENDBLK
  5
19
330
17
100
AcDbEntity
  8
0
100
AcDbBlockEnd
  0
BLOCK
  5
1C
330
1B
100
AcDbEntity
  8
0
100
AcDbBlockBegin
  2
*Paper_Space
 70
0
 10
0.0
 20
0.0
 30
0.0
  3
*Paper_Space
  1

  0
ENDBLK
  5
1D
330
1B
100
AcDbEntity
  8
0
100
AcDbBlockEnd
  0
ENDSEC
  0
SECTION
  2
ENTITIES
  0
LINE
  5
2F
330
17
100
AcDbEntity
  8
0
100
AcDbLine
 10
-15.99999999999993
 20
-2.9999999999998295
 30
0.0
 11
-15.99999999999993
 21
-131.21791338995
 31
0.0
  0
LINE
  5
30
330
17
100
AcDbEntity
  8
0
100
AcDbLine
 10
-19.769649683901626
 20
-135.21127522327708
 30
0.0
 11
-19.708641969494572
 21
-135.20728809008287
 31
0.0
  0
LINE
  5
31
330
17
100
AcDbEntity
  8
0
100
AcDbLine
 10
-19.708641969494572
 20
-135.20728809008287
 30
0.0
 11
-19.647702320665555
 21
-135.20236897950497
 31
0.0
  0
LINE
  5
32
330
17
100
AcDbEntity
  8
0
100
AcDbLine
 10
-19.647702320665555
 20
-135.20236897950497
 30
0.0
 11
-19.586844973824732
 21
-135.19651904072091
 31
0.0
  0
LINE
  5
33
330
17
100
AcDbEntity
  8
0
100
AcDbLine
 10
-19.586844973824732
 20
-135.19651904072091
 30
0.0
 11
-19.526084146155277
 21
-135.18973964036363
 31
0.0
  0
LINE
  5
34
330
17
100
AcDbEntity
  8
0
100
AcDbLine
 10
-19.526084146155277
 20
-135.18973964036363
 30
0.0
 11
-19.46543403229206
 21
-135.18203236220205
 31
0.0
  0
LINE
  5
35
330
17
100
AcDbEntity
  8
0
100
AcDbLine
 10
-19.46543403229206
 20
-135.18203236220205
 30
0.0
 11
-19.404908801005543
 21
-135.1733990067712
 31
0.0
  0
LINE
  5
36
330
17
100
AcDbEntity
  8
0
100
AcDbLine
 10
-19.404908801005543
 20
-135.1733990067712
 30
0.0
 11
-19.344522591891767
 21
-135.16384159095162
 31
0.0
  0
LINE
  5
37
330
17
100
AcDbEntity
  8
0
100
AcDbLine
 10
-19.344522591891767
 20
-135.16384159095162
 30
0.0
 11
-19.284289512069115
 21
-135.15336234749805
 31
0.0
  0
LINE
  5
38
330
17
100
AcDbEntity
  8
0
100
AcDbLine
 10
-19.284289512069115
 20
-135.15336234749805
 30
0.0
 11
-19.22422363288269
 21
-135.1419637245179
 31
0.0
  0
LINE
  5
39
330
17
100
AcDbEntity
  8
0
100
AcDbLine
 10
-19.22422363288269
 20
-135.1419637245179
 30
0.0
 11
-19.164338986617032
 21
-135.1296483848994
 31
0.0
  0
LINE
  5
3A
330
17
100
AcDbEntity
  8
0
100
AcDbLine
 10
-19.164338986617032
 20
-135.1296483848994
 30
0.0
 11
-19.104649563217972
 21
-135.11641920568945
 31
0.0
  0
LINE
  5
3B
330
17
100
AcDbEntity
  8
0
100
AcDbLine
 10
-19.104649563217972
 20
-135.11641920568945
 30
0.0
 11
-19.045169307024366
 21
-135.10227927742145
 31
0.0
  0
LINE
  5
3C
330
17
100
AcDbEntity
  8
0
100
AcDbLine
 10
-19.045169307024366
 20
-135.10227927742145
 30
0.0
 11
-18.9859121135105
 21
-135.08723190339336
 31
0.0
  0
LINE
  5
3D
330
17
100
AcDbEntity
  8
0
100
AcDbLine
 10
-18.9859121135105
 20
-135.08723190339336
 30
0.0
 11
-18.92689182603989
 21
-135.07128059889598
 31
0.0
  0
LINE
  5
3E
330
17
100
AcDbEntity
  8
0
100
AcDbLine
 10
-18.92689182603989
 20
-135.07128059889598
 30
0.0
 11
-18.86812223263126
 21
-135.05442909039184
 31
0.0
  0
LINE
  5
3F
330
17
100
AcDbEntity
  8
0
100
AcDbLine
 10
-18.86812223263126
 20
-135.05442909039184
 30
0.0
 11
-18.809617062737484
 21
-135.03668131464437
 31
0.0
  0
LINE
  5
40
330
17
100
AcDbEntity
  8
0
100
AcDbLine
 10
-18.809617062737484
 20
-135.03668131464437
 30
0.0
 11
-18.751389984038152
 21
-135.01804141779854
 31
0.0
  0
LINE
  5
41
330
17
100
AcDbEntity
  8
0
100
AcDbLine
 10
-18.751389984038152
 20
-135.01804141779854
 30
0.0
 11
-18.693454599246607
 21
-134.99851375441202
 31
0.0
  0
LINE
  5
42
330
17
100
AcDbEntity
  8
0
100
AcDbLine
 10
-18.693454599246607
 20
-134.99851375441202
 30
0.0
 11
-18.635824442932144
 21
-134.97810288643802
 31
0.0
  0
LINE
  5
43
330
17
100
AcDbEntity
  8
0
100
AcDbLine
 10
-18.635824442932144
 20
-134.97810288643802
 30
0.0
 11
-18.578512978358145
 21
-134.95681358215947
 31
0.0
  0
LINE
  5
44
330
17
100
AcDbEntity
  8
0
100
AcDbLine
 10
-18.578512978358145
 20
-134.95681358215947
 30
0.0
 11
-18.521533594336848
 21
-134.93465081507512
 31
0.0
  0
LINE
  5
45
330
17
100
AcDbEntity
  8
0
100
AcDbLine
 10
-18.521533594336848
 20
-134.93465081507512
 30
0.0
 11
-18.464899602101525
 21
-134.91161976273767
 31
0.0
  0
LINE
  5
46
330
17
100
AcDbEntity
  8
0
100
AcDbLine
 10
-18.464899602101525
 20
-134.91161976273767
 30
0.0
 11
-18.408624232196782
 21
-134.88772580554416
 31
0.0
  0
LINE
  5
47
330
17
100
AcDbEntity
  8
0
100
AcDbLine
 10
-18.408624232196782
 20
-134.88772580554416
 30
0.0
 11
-18.352720631387694
 21
-134.86297452547907
 31
0.0
  0
LINE
  5
48
330
17
100
AcDbEntity
  8
0
100
AcDbLine
 10
-18.352720631387694
 20
-134.86297452547907
 30
0.0
 11
-18.29720185958855
 21
-134.83737170481032
 31
0.0
  0
LINE
  5
49
330
17
100
AcDbEntity
  8
0
100
AcDbLine
 10
-18.29720185958855
 20
-134.83737170481032
 30
0.0
 11
-18.242080886811838
 21
-134.81092332473838
 31
0.0
  0
LINE
  5
4A
330
17
100
AcDbEntity
  8
0
100
AcDbLine
 10
-18.242080886811838
 20
-134.81092332473838
 30
0.0
 11
-18.18737059013826
 21
-134.78363556399898
 31
0.0
  0
LINE
  5
4B
330
17
100
AcDbEntity
  8
0
100
AcDbLine
 10
-18.18737059013826
 20
-134.78363556399898
 30
0.0
 11
-18.13308375070848
 21
-134.7555147974197
 31
0.0
  0
LINE
  5
4C
330
17
100
AcDbEntity
  8
0
100
AcDbLine
 10
-18.13308375070848
 20
-134.7555147974197
 30
0.0
 11
-18.07923305073722
 21
-134.7265675944307
 31
0.0
  0
LINE
  5
4D
330
17
100
AcDbEntity
  8
0
100
AcDbLine
 10
-18.07923305073722
 20
-134.7265675944307
 30
0.0
 11
-18.025831070550527
 21
-134.69680071752998
 31
0.0
  0
LINE
  5
4E
330
17
100
AcDbEntity
  8
0
100
AcDbLine
 10
-18.025831070550527
 20
-134.69680071752998
 30
0.0
 11
-17.97289028564683
 21
-134.66622112070365
 31
0.0
  0
LINE
  5
4F
330
17
100
AcDbEntity
  8
0
100
AcDbLine
 10
-17.97289028564683
 20
-134.66622112070365
 30
0.0
 11
-17.920423063782458
 21
-134.6348359478012
 31
0.0
  0
LINE
  5
50
330
17
100
AcDbEntity
  8
0
100
AcDbLine
 10
-17.920423063782458
 20
-134.6348359478012
 30
0.0
 11
-17.868441662082358
 21
-134.6026525308668
 31
0.0
  0
LINE
  5
51
330
17
100
AcDbEntity
  8
0
100
AcDbLine
 10
-17.868441662082358
 20
-134.6026525308668
 30
0.0
 11
-17.81695822417665
 21
-134.56967838842624
 31
0.0
  0
LINE
  5
52
330
17
100
AcDbEntity
  8
0
100
AcDbLine
 10
-17.81695822417665
 20
-134.56967838842624
 30
0.0
 11
-17.76598477736368
 21
-134.5359212237306
 31
0.0
  0
LINE
  5
53
330
17
100
AcDbEntity
  8
0
100
AcDbLine
 10
-17.76598477736368
 20
-134.5359212237306
 30
0.0
 11
-17.715533229800286
 21
-134.50138892295672
 31
0.0
  0
LINE
  5
54
330
17
100
AcDbEntity
  8
0
100
AcDbLine
 10
-17.715533229800286
 20
-134.50138892295672
 30
0.0
 11
-17.66561536771986
 21
-134.46608955336458
 31
0.0
  0
LINE
  5
55
330
17
100
AcDbEntity
  8
0
100
AcDbLine
 10
-17.66561536771986
 20
-134.46608955336458
 30
0.0
 11
-17.616242852678912
 21
-134.43003136141306
 31
0.0
  0
LINE
  5
56
330
17
100
AcDbEntity
  8
0
100
AcDbLine
 10
-17.616242852678912
 20
-134.43003136141306
 30
0.0
 11
-17.567427218832748
 21
-134.39322277083318
 31
0.0
  0
LINE
  5
57
330
17
100
AcDbEntity
  8
0
100
AcDbLine
 10
-17.567427218832748
 20
-134.39322277083318
 30
0.0
 11
-17.519179870240944
 21
-134.3556723806602
 31
0.0
  0
LINE
  5
58
330
17
100
AcDbEntity
  8
0
100
AcDbLine
 10
-17.519179870240944
 20
-134.3556723806602
 30
0.0
 11
-17.471512078203155
 21
-134.31738896322491
 31
0.0
  0
LINE
  5
59
330
17
100
AcDbEntity
  8
0
100
AcDbLine
 10
-17.471512078203155
 20
-134.31738896322491
 30
0.0
 11
-17.424434978626
 21
-134.2783814621042
 31
0.0
  0
LINE
  5
5A
330
17
100
AcDbEntity
  8
0
100
AcDbLine
 10
-17.424434978626
 20
-134.2783814621042
 30
0.0
 11
-17.377959569421527
 21
-134.23865899003158
 31
0.0
  0
LINE
  5
5B
330
17
100
AcDbEntity
  8
0
100
AcDbLine
 10
-17.377959569421527
 20
-134.23865899003158
 30
0.0
 11
-17.332096707937954
 21
-134.1982308267686
 31
0.0
  0
LINE
  5
5C
330
17
100
AcDbEntity
  8
0
100
AcDbLine
 10
-17.332096707937954
 20
-134.1982308267686
 30
0.0
 11
-17.286857108423213
 21
-134.1571064169366
 31
0.0
  0
LINE
  5
5D
330
17
100
AcDbEntity
  8
0
100
AcDbLine
 10
-17.286857108423213
 20
-134.1571064169366
 30
0.0
 11
-17.242251339521964
 21
-134.11529536781072
 31
0.0
  0
LINE
  5
5E
330
17
100
AcDbEntity
  8
0
100
AcDbLine
 10
-17.242251339521964
 20
-134.11529536781072
 30
0.0
 11
-17.198289821806576
 21
-134.07280744707504
 31
0.0
  0
LINE
  5
5F
330
17
100
AcDbEntity
  8
0
100
AcDbLine
 10
-17.198289821806576
 20
-134.07280744707504
 30
0.0
 11
-17.154982825342753
 21
-134.02965258054107
 31
0.0
  0
LINE
  5
60
330
17
100
AcDbEntity
  8
0
100
AcDbLine
 10
-17.154982825342753
 20
-134.02965258054107
 30
0.0
 11
-17.11234046729027
 21
-133.9858408498288
 31
0.0
  0
LINE
  5
61
330
17
100
AcDbEntity
  8
0
100
AcDbLine
 10
-17.11234046729027
 20
-133.9858408498288
 30
0.0
 11
-17.07037270953947
 21
-133.94138249001142
 31
0.0
  0
LINE
  5
62
330
17
100
AcDbEntity
  8
0
100
AcDbLine
 10
-17.07037270953947
 20
-133.94138249001142
 30
0.0
 11
-17.029089356384006
 21
-133.89628788722436
 31
0.0
  0
LINE
  5
63
330
17
100
AcDbEntity
  8
0
100
AcDbLine
 10
-17.029089356384006
 20
-133.89628788722436
 30
0.0
 11
-16.988500052230425
 21
-133.85056757623886
 31
0.0
  0
LINE
  5
64
330
17
100
AcDbEntity
  8
0
100
AcDbLine
 10
-16.988500052230425
 20
-133.85056757623886
 30
0.0
 11
-16.94861427934508
 21
-133.80423223800096
 31
0.0
  0
LINE
  5
65
330
17
100
AcDbEntity
  8
0
100
AcDbLine
 10
-16.94861427934508
 20
-133.80423223800096
 30
0.0
 11
-16.909441355638936
 21
-133.75729269713622
 31
0.0
  0
LINE
  5
66
330
17
100
AcDbEntity
  8
0
100
AcDbLine
 10
-16.909441355638936
 20
-133.75729269713622
 30
0.0
 11
-16.870990432490764
 21
-133.7097599194209
 31
0.0
  0
LINE
  5
67
330
17
100
AcDbEntity
  8
0
100
AcDbLine
 10
-16.870990432490764
 20
-133.7097599194209
 30
0.0
 11
-16.833270492609245
 21
-133.66164500922025
 31
0.0
  0
LINE
  5
68
330
17
100
AcDbEntity
  8
0
100
AcDbLine
 10
-16.833270492609245
 20
-133.66164500922025
 30
0.0
 11
-16.79629034793448
 21
-133.61295920689437
 31
0.0
  0
LINE
  5
69
330
17
100
AcDbEntity
  8
0
100
AcDbLine
 10
-16.79629034793448
 20
-133.61295920689437
 30
0.0
 11
-16.760058637579377
 21
-133.56371388617225
 31
0.0
  0
LINE
  5
6A
330
17
100
AcDbEntity
  8
0
100
AcDbLine
 10
-16.760058637579377
 20
-133.56371388617225
 30
0.0
 11
-16.72458382581144
 21
-133.5139205514947
 31
0.0
  0
LINE
  5
6B
330
17
100
AcDbEntity
  8
0
100
AcDbLine
 10
-16.72458382581144
 20
-133.5139205514947
 30
0.0
 11
-16.68987420007538
 21
-133.46359083532676
 31
0.0
  0
LINE
  5
6C
330
17
100
AcDbEntity
  8
0
100
AcDbLine
 10
-16.68987420007538
 20
-133.46359083532676
 30
0.0
 11
-16.65593786905704
 21
-133.4127364954402
 31
0.0
  0
LINE
  5
6D
330
17
100
AcDbEntity
  8
0
100
AcDbLine
 10
-16.65593786905704
 20
-133.4127364954402
 30
0.0
 11
-16.62278276078911
 21
-133.36136941216677
 31
0.0
  0
LINE
  5
6E
330
17
100
AcDbEntity
  8
0
100
AcDbLine
 10
-16.62278276078911
 20
-133.36136941216677
 30
0.0
 11
-16.590416620798987
 21
-133.30950158562254
 31
0.0
  0
LINE
  5
6F
330
17
100
AcDbEntity
  8
0
100
AcDbLine
 10
-16.590416620798987
 20
-133.30950158562254
 30
0.0
 11
-16.558847010299324
 21
-133.25714513290484
 31
0.0
  0
LINE
  5
70
330
17
100
AcDbEntity
  8
0
100
AcDbLine
 10
-16.558847010299324
 20
-133.25714513290484
 30
0.0
 11
-16.528081304421622
 21
-133.20431228526127
 31
0.0
  0
LINE
  5
71
330
17
100
AcDbEntity
  8
0
100
AcDbLine
 10
-16.528081304421622
 20
-133.20431228526127
 30
0.0
 11
-16.49812669049327
 21
-133.15101538523243
 31
0.0
  0
LINE
  5
72
330
17
100
AcDbEntity
  8
0
100
AcDbLine
 10
-16.49812669049327
 20
-133.15101538523243
 30
0.0
 11
-16.4689901663585
 21
-133.09726688376844
 31
0.0
  0
LINE
  5
73
330
17
100
AcDbEntity
  8
0
100
AcDbLine
 10
-16.4689901663585
 20
-133.09726688376844
 30
0.0
 11
-16.44067853874357
 21
-133.04307933732025
 31
0.0
  0
LINE
  5
74
330
17
100
AcDbEntity
  8
0
100
AcDbLine
 10
-16.44067853874357
 20
-133.04307933732025
 30
0.0
 11
-16.413198421666618
 21
-132.98846540490626
 31
0.0
  0
LINE
  5
75
330
17
100
AcDbEntity
  8
0
100
AcDbLine
 10
-16.413198421666618
 20
-132.98846540490626
 30
0.0
 11
-16.38655623489253
 21
-132.93343784515503
 31
0.0
  0
LINE
  5
76
330
17
100
AcDbEntity
  8
0
100
AcDbLine
 10
-16.38655623489253
 20
-132.93343784515503
 30
0.0
 11
-16.360758202433193
 21
-132.87800951332457
 31
0.0
  0
LINE
  5
77
330
17
100
AcDbEntity
  8
0
100
AcDbLine
 10
-16.360758202433193
 20
-132.87800951332457
 30
0.0
 11
-16.335810351093446
 21
-132.82219335829922
 31
0.0
  0
LINE
  5
78
330
17
100
AcDbEntity
  8
0
100
AcDbLine
 10
-16.335810351093446
 20
-132.82219335829922
 30
0.0
 11
-16.31171850906317
 21
-132.76600241956467
 31
0.0
  0
LINE
  5
79
330
17
100
AcDbEntity
  8
0
100
AcDbLine
 10
-16.31171850906317
 20
-132.76600241956467
 30
0.0
 11
-16.2884883045557
 21
-132.70944982416162
 31
0.0
  0
LINE
  5
7A
330
17
100
AcDbEntity
  8
0
100
AcDbLine
 10
-16.2884883045557
 20
-132.70944982416162
 30
0.0
 11
-16.26612516449301
 21
-132.65254878361912
 31
0.0
  0
LINE
  5
7B
330
17
100
AcDbEntity
  8
0
100
AcDbLine
 10
-16.26612516449301
 20
-132.65254878361912
 30
0.0
 11
-16.244634313237896
 21
-132.59531259086828
 31
0.0
  0
LINE
  5
7C
330
17
100
AcDbEntity
  8
0
100
AcDbLine
 10
-16.244634313237896
 20
-132.59531259086828
 30
0.0
 11
-16.224020771373493
 21
-132.5377546171367
 31
0.0
  0
LINE
  5
7D
330
17
100
AcDbEntity
  8
0
100
AcDbLine
 10
-16.224020771373493
 20
-132.5377546171367
 30
0.0
 11
-16.204289354530378
 21
-132.47988830882483
 31
0.0
  0
LINE
  5
7E
330
17
100
AcDbEntity
  8
0
100
AcDbLine
 10
-16.204289354530378
 20
-132.47988830882483
 30
0.0
 11
-16.18544467226159
 21
-132.42172718436467
 31
0.0
  0
LINE
  5
7F
330
17
100
AcDbEntity
  8
0
100
AcDbLine
 10
-16.18544467226159
 20
-132.42172718436467
 30
0.0
 11
-16.167491126965746
 21
-132.3632848310617
 31
0.0
  0
LINE
  5
80
330
17
100
AcDbEntity
  8
0
100
AcDbLine
 10
-16.167491126965746
 20
-132.3632848310617
 30
0.0
 11
-16.150432912858587
 21
-132.30457490192055
 31
0.0
  0
LINE
  5
81
330
17
100
AcDbEntity
  8
0
100
AcDbLine
 10
-16.150432912858587
 20
-132.30457490192055
 30
0.0
 11
-16.134274014993156
 21
-132.2456111124557
 31
0.0
  0
LINE
  5
82
330
17
100
AcDbEntity
  8
0
100
AcDbLine
 10
-16.134274014993156
 20
-132.2456111124557
 30
0.0
 11
-16.1190182083288
 21
-132.18640723748706
 31
0.0
  0
LINE
  5
83
330
17
100
AcDbEntity
  8
0
100
AcDbLine
 10
-16.1190182083288
 20
-132.18640723748706
 30
0.0
 11
-16.10466905684932
 21
-132.1269771079222
 31
0.0
  0
LINE
  5
84
330
17
100
AcDbEntity
  8
0
100
AcDbLine
 10
-16.10466905684932
 20
-132.1269771079222
 30
0.0
 11
-16.09122991273035
 21
-132.06733460752497
 31
0.0
  0
LINE
  5
85
330
17
100
AcDbEntity
  8
0
100
AcDbLine
 10
-16.09122991273035
 20
-132.06733460752497
 30
0.0
 11
-16.07870391555623
 21
-132.00749366967239
 31
0.0
  0
LINE
  5
86
330
17
100
AcDbEntity
  8
0
100
AcDbLine
 10
-16.07870391555623
 20
-132.00749366967239
 30
0.0
 11
-16.06709399158658
 21
-131.94746827409935
 31
0.0
  0
LINE
  5
87
330
17
100
AcDbEntity
  8
0
100
AcDbLine
 10
-16.06709399158658
 20
-131.94746827409935
 30
0.0
 11
-16.056402853072665
 21
-131.8872724436328
 31
0.0
  0
LINE
  5
88
330
17
100
AcDbEntity
  8
0
100
AcDbLine
 10
-16.056402853072665
 20
-131.8872724436328
 30
0.0
 11
-16.04663299762377
 21
-131.82692024091585
 31
0.0
  0
LINE
  5
89
330
17
100
AcDbEntity
  8
0
100
AcDbLine
 10
-16.04663299762377
 20
-131.82692024091585
 30
0.0
 11
-16.037786707623727
 21
-131.76642576512245
 31
0.0
  0
LINE
  5
8A
330
17
100
AcDbEntity
  8
0
100
AcDbLine
 10
-16.037786707623727
 20
-131.76642576512245
 30
0.0
 11
-16.02986604969772
 21
-131.70580314866373
 31
0.0
  0
LINE
  5
8B
330
17
100
AcDbEntity
  8
0
100
AcDbLine
 10
-16.02986604969772
 20
-131.70580314866373
 30
0.0
 11
-16.022872874229478
 21
-131.64506655388635
 31
0.0
  0
LINE
  5
8C
330
17
100
AcDbEntity
  8
0
100
AcDbLine
 10
-16.022872874229478
 20
-131.64506655388635
 30
0.0
 11
-16.01680881492901
 21
-131.584230169764
 31
0.0
  0
LINE
  5
8D
330
17
100
AcDbEntity
  8
0
100
AcDbLine
 10
-16.01680881492901
 20
-131.584230169764
 30
0.0
 11
-16.01167528845094
 21
-131.52330820858268
 31
0.0
  0
LINE
  5
8E
330
17
100
AcDbEntity
  8
0
100
AcDbLine
 10
-16.01167528845094
 20
-131.52330820858268
 30
0.0
 11
-16.007473494063568
 21
-131.4623149026204
 31
0.0
  0
LINE
  5
8F
330
17
100
AcDbEntity
  8
0
100
AcDbLine
 10
-16.007473494063568
 20
-131.4623149026204
 30
0.0
 11
-16.004204413368672
 21
-131.40126450082244
 31
0.0
  0
LINE
  5
90
330
17
100
AcDbEntity
  8
0
100
AcDbLine
 10
-16.004204413368672
 20
-131.40126450082244
 30
0.0
 11
-16.001868810072228
 21
-131.3401712654725
 31
0.0
  0
LINE
  5
91
330
17
100
AcDbEntity
  8
0
100
AcDbLine
 10
-16.001868810072228
 20
-131.3401712654725
 30
0.0
 11
-16.000467229805967
 21
-131.27904946886082
 31
0.0
  0
LINE
  5
92
330
17
100
AcDbEntity
  8
0
100
AcDbLine
 10
-16.000467229805967
 20
-131.27904946886082
 30
0.0
 11
-15.99999999999993
 21
-131.21791338995
 31
0.0
  0
LINE
  5
93
330
17
100
AcDbEntity
  8
0
100
AcDbLine
 10
-19.76964968390163
 20
-135.21127522327708
 30
0.0
 11
-22.009309869566522
 21
-135.33420734488945
 31
0.0
  0
LINE
  5
94
330
17
100
AcDbEntity
  8
0
100
AcDbLine
 10
-22.009309869566522
 20
-135.33420734488945
 30
0.0
 11
-24.250116369220382
 21
-135.44473326404082
 31
0.0
  0
LINE
  5
95
330
17
100
AcDbEntity
  8
0
100
AcDbLine
 10
-24.250116369220382
 20
-135.44473326404082
 30
0.0
 11
-26.49200400542062
 21
-135.54291738514206
 31
0.0
  0
LINE
  5
96
330
17
100
AcDbEntity
  8
0
100
AcDbLine
 10
-26.49200400542062
 20
-135.54291738514206
 30
0.0
 11
-28.735198281697706
 21
-135.6289822392521
 31
0.0
  0
LINE
  5
97
330
17
100
AcDbEntity
  8
0
100
AcDbLine
 10
-28.735198281697706
 20
-135.6289822392521
 30
0.0
 11
-30.97964261478343
 21
-135.7030515870978
 31
0.0
  0
LINE
  5
98
330
17
100
AcDbEntity
  8
0
100
AcDbLine
 10
-30.97964261478343
 20
-135.7030515870978
 30
0.0
 11
-33.22478668063521
 21
-135.7650102114538
 31
0.0
  0
LINE
  5
99
330
17
100
AcDbEntity
  8
0
100
AcDbLine
 10
-33.22478668063521
 20
-135.7650102114538
 30
0.0
 11
-35.47007986733048
 21
-135.8147427489142
 31
0.0
  0
LINE
  5
9A
330
17
100
AcDbEntity
  8
0
100
AcDbLine
 10
-35.47007986733048
 20
-135.8147427489142
 30
0.0
 11
-37.71497156294668
 21
-135.852133836073
 31
0.0
  0
LINE
  5
9B
330
17
100
AcDbEntity
  8
0
100
AcDbLine
 10
-37.71497156294668
 20
-135.852133836073
 30
0.0
 11
-39.958911155561196
 21
-135.8770681095243
 31
0.0
  0
LINE
  5
9C
330
17
100
AcDbEntity
  8
0
100
AcDbLine
 10
-39.958911155561196
 20
-135.8770681095243
 30
0.0
 11
-42.201348033251485
 21
-135.88943020586208
 31
0.0
  0
LINE
  5
9D
330
17
100
AcDbEntity
  8
0
100
AcDbLine
 10
-42.201348033251485
 20
-135.88943020586208
 30
0.0
 11
-44.44173158409495
 21
-135.88910476168047
 31
0.0
  0
LINE
  5
9E
330
17
100
AcDbEntity
  8
0
100
AcDbLine
 10
-44.44173158409495
 20
-135.88910476168047
 30
0.0
 11
-46.679337217576304
 21
-135.87593540509312
 31
0.0
  0
LINE
  5
9F
330
17
100
AcDbEntity
  8
0
100
AcDbLine
 10
-46.679337217576304
 20
-135.87593540509312
 30
0.0
 11
-48.912868165021365
 21
-135.84936553441872
 31
0.0
  0
LINE
  5
A0
330
17
100
AcDbEntity
  8
0
100
AcDbLine
 10
-48.912868165021365
 20
-135.84936553441872
 30
0.0
 11
-51.144255551538635
 21
-135.80908537407848
 31
0.0
  0
LINE
  5
A1
330
17
100
AcDbEntity
  8
0
100
AcDbLine
 10
-51.144255551538635
 20
-135.80908537407848
 30
0.0
 11
-53.376079599772154
 21
-135.75488539014913
 31
0.0
  0
LINE
  5
A2
330
17
100
AcDbEntity
  8
0
100
AcDbLine
 10
-53.376079599772154
 20
-135.75488539014913
 30
0.0
 11
-55.61093492282158
 21
-135.68655920509283
 31
0.0
  0
LINE
  5
A3
330
17
100
AcDbEntity
  8
0
100
AcDbLine
 10
-55.61093492282158
 20
-135.68655920509283
 30
0.0
 11
-57.85302358439768
 21
-135.6046740025621
 31
0.0
  0
LINE
  5
A4
330
17
100
AcDbEntity
  8
0
100
AcDbLine
 10
-57.85302358439768
 20
-135.6046740025621
 30
0.0
 11
-60.10421471371157
 21
-135.51070101512767
 31
0.0
  0
LINE
  5
A5
330
17
100
AcDbEntity
  8
0
100
AcDbLine
 10
-60.10421471371157
 20
-135.51070101512767
 30
0.0
 11
-62.36449011453876
 21
-135.40599274694898
 31
0.0
  0
LINE
  5
A6
330
17
100
AcDbEntity
  8
0
100
AcDbLine
 10
-62.36449011453876
 20
-135.40599274694898
 30
0.0
 11
-64.63383159065484
 21
-135.2919017021855
 31
0.0
  0
LINE
  5
A7
330
17
100
AcDbEntity
  8
0
100
AcDbLine
 10
-64.63383159065484
 20
-135.2919017021855
 30
0.0
 11
-66.91490492169947
 21
-135.16975230649743
 31
0.0
  0
LINE
  5
A8
330
17
100
AcDbEntity
  8
0
100
AcDbLine
 10
-66.91490492169947
 20
-135.16975230649743
 30
0.0
 11
-69.20031689247217
 21
-135.04111726563315
 31
0.0
  0
LINE
  5
A9
330
17
100
AcDbEntity
  8
0
100
AcDbLine
 10
-69.20031689247217
 20
-135.04111726563315
 30
0.0
 11
-71.4643389133342
 21
-134.90721664882213
 31
0.0
  0
LINE
  5
AA
330
17
100
AcDbEntity
  8
0
100
AcDbLine
 10
-71.4643389133342
 20
-134.90721664882213
 30
0.0
 11
-73.68736287289984
 21
-134.7642871720838
 31
0.0
  0
LINE
  5
AB
330
17
100
AcDbEntity
  8
0
100
AcDbLine
 10
-73.68736287289984
 20
-134.7642871720838
 30
0.0
 11
-75.8688500234111
 21
-134.60659687070822
 31
0.0
  0
LINE
  5
AC
330
17
100
AcDbEntity
  8
0
100
AcDbLine
 10
-75.8688500234111
 20
-134.60659687070822
 30
0.0
 11
-78.0111916972566
 21
-134.42856858573674
 31
0.0
  0
LINE
  5
AD
330
17
100
AcDbEntity
  8
0
100
AcDbLine
 10
-78.0111916972566
 20
-134.42856858573674
 30
0.0
 11
-80.10994693660338
 21
-134.22598467521794
 31
0.0
  0
LINE
  5
AE
330
17
100
AcDbEntity
  8
0
100
AcDbLine
 10
-80.10994693660338
 20
-134.22598467521794
 30
0.0
 11
-82.15969043823776
 21
-133.9947844189833
 31
0.0
  0
LINE
  5
AF
330
17
100
AcDbEntity
  8
0
100
AcDbLine
 10
-82.15969043823776
 20
-133.9947844189833
 30
0.0
 11
-84.15468094041364
 21
-133.73089911997727
 31
0.0
  0
LINE
  5
B0
330
17
100
AcDbEntity
  8
0
100
AcDbLine
 10
-84.15468094041364
 20
-133.73089911997727
 30
0.0
 11
-86.07979792929525
 21
-133.430198834594
 31
0.0
  0
LINE
  5
B1
330
17
100
AcDbEntity
  8
0
100
AcDbLine
 10
-86.07979792929525
 20
-133.430198834594
 30
0.0
 11
-87.92609801054402
 21
-133.08918372666662
 31
0.0
  0
LINE
  5
B2
330
17
100
AcDbEntity
  8
0
100
AcDbLine
 10
-87.92609801054402
 20
-133.08918372666662
 30
0.0
 11
-89.68958871356699
 21
-132.7045556259219
 31
0.0
  0
LINE
  5
B3
330
17
100
AcDbEntity
  8
0
100
AcDbLine
 10
-89.68958871356699
 20
-132.7045556259219
 30
0.0
 11
-91.36627756777114
 21
-132.2730163620865
 31
0.0
  0
LINE
  5
B4
330
17
100
AcDbEntity
  8
0
100
AcDbLine
 10
-91.36627756777114
 20
-132.2730163620865
 30
0.0
 11
-92.9761694106689
 21
-131.78470408418502
 31
0.0
  0
LINE
  5
B5
330
17
100
AcDbEntity
  8
0
100
AcDbLine
 10
-92.9761694106689
 20
-131.78470408418502
 30
0.0
 11
-94.5585843294665
 21
-131.2273735461378
 31
0.0
  0
LINE
  5
B6
330
17
100
AcDbEntity
  8
0
100
AcDbLine
 10
-94.5585843294665
 20
-131.2273735461378
 30
0.0
 11
-96.12540776216433
 21
-130.59814911264337
 31
0.0
  0
LINE
  5
B7
330
17
100
AcDbEntity
  8
0
100
AcDbLine
 10
-96.12540776216433
 20
-130.59814911264337
 30
0.0
 11
-97.68830849908836
 21
-129.89422093065494
 31
0.0
  0
LINE
  5
B8
330
17
100
AcDbEntity
  8
0
100
AcDbLine
 10
-97.68830849908836
 20
-129.89422093065494
 30
0.0
 11
-99.25453152426545
 21
-129.11442586069745
 31
0.0
  0
LINE
  5
B9
330
17
100
AcDbEntity
  8
0
100
AcDbLine
 10
-99.25453152426545
 20
-129.11442586069745
 30
0.0
 11
-100.80639510933881
 21
-128.26750774287743
 31
0.0
  0
LINE
  5
BA
330
17
100
AcDbEntity
  8
0
100
AcDbLine
 10
-100.80639510933881
 20
-128.26750774287743
 30
0.0
 11
-102.32668408885026
 21
-127.36281860313227
 31
0.0
  0
LINE
  5
BB
330
17
100
AcDbEntity
  8
0
100
AcDbLine
 10
-102.32668408885026
 20
-127.36281860313227
 30
0.0
 11
-103.79923315517662
 21
-126.40935545334187
 31
0.0
  0
LINE
  5
BC
330
17
100
AcDbEntity
  8
0
100
AcDbLine
 10
-103.79923315517662
 20
-126.40935545334187
 30
0.0
 11
-105.20730406794506
 21
-125.41674977932831
 31
0.0
  0
LINE
  5
BD
330
17
100
AcDbEntity
  8
0
100
AcDbLine
 10
-105.20730406794506
 20
-125.41674977932831
 30
0.0
 11
-106.53870054667645
 21
-124.39388758100472
 31
0.0
  0
LINE
  5
BE
330
17
100
AcDbEntity
  8
0
100
AcDbLine
 10
-106.53870054667645
 20
-124.39388758100472
 30
0.0
 11
-107.81282303765357
 21
-123.32399795401682
 31
0.0
  0
LINE
  5
BF
330
17
100
AcDbEntity
  8
0
100
AcDbLine
 10
-107.81282303765357
 20
-123.32399795401682
 30
0.0
 11
-109.05484879529553
 21
-122.18505019681103
 31
0.0
  0
LINE
  5
C0
330
17
100
AcDbEntity
  8
0
100
AcDbLine
 10
-109.05484879529553
 20
-122.18505019681103
 30
0.0
 11
-110.28995229009514
 21
-120.95501690826043
 31
0.0
  0
LINE
  5
C1
330
17
100
AcDbEntity
  8
0
100
AcDbLine
 10
-110.28995229009514
 20
-120.95501690826043
 30
0.0
 11
-111.53428984243277
 21
-119.62270759437222
 31
0.0
  0
LINE
  5
C2
330
17
100
AcDbEntity
  8
0
100
AcDbLine
 10
-111.53428984243277
 20
-119.62270759437222
 30
0.0
 11
-112.78772258351933
 21
-118.19680430196168
 31
0.0
  0
LINE
  5
C3
330
17
100
AcDbEntity
  8
0
100
AcDbLine
 10
-112.78772258351933
 20
-118.19680430196168
 30
0.0
 11
-114.05032490717947
 21
-116.685867943767
 31
0.0
  0
LINE
  5
C4
330
17
100
AcDbEntity
  8
0
100
AcDbLine
 10
-114.05032490717947
 20
-116.685867943767
 30
0.0
 11
-115.32217120723783
 21
-115.09845943252637
 31
0.0
  0
LINE
  5
C5
330
17
100
AcDbEntity
  8
0
100
AcDbLine
 10
-115.32217120723783
 20
-115.09845943252637
 30
0.0
 11
-116.60333587751909
 21
-113.44313968097792
 31
0.0
  0
LINE
  5
C6
330
17
100
AcDbEntity
  8
0
100
AcDbLine
 10
-116.60333587751909
 20
-113.44313968097792
 30
0.0
 11
-117.89389331184788
 21
-111.72846960185986
 31
0.0
  0
LINE
  5
C7
330
17
100
AcDbEntity
  8
0
100
AcDbLine
 10
-117.89389331184788
 20
-111.72846960185986
 30
0.0
 11
-119.19391790404885
 21
-109.96301010791038
 31
0.0
  0
LINE
  5
C8
330
17
100
AcDbEntity
  8
0
100
AcDbLine
 10
-119.19391790404885
 20
-109.96301010791038
 30
0.0
 11
-120.50348404794666
 21
-108.15532211186763
 31
0.0
  0
LINE
  5
C9
330
17
100
AcDbEntity
  8
0
100
AcDbLine
 10
-120.50348404794666
 20
-108.15532211186763
 30
0.0
 11
-121.82442976101385
 21
-106.3118965164809
 31
0.0
  0
LINE
  5
CA
330
17
100
AcDbEntity
  8
0
100
AcDbLine
 10
-121.82442976101385
 20
-106.3118965164809
 30
0.0
 11
-123.16541331695987
 21
-104.43216011141622
 31
0.0
  0
LINE
  5
CB
330
17
100
AcDbEntity
  8
0
100
AcDbLine
 10
-123.16541331695987
 20
-104.43216011141622
 30
0.0
 11
-124.51485722573608
 21
-102.54072916546468
 31
0.0
  0
LINE
  5
CC
330
17
100
AcDbEntity
  8
0
100
AcDbLine
 10
-124.51485722573608
 20
-102.54072916546468
 30
0.0
 11
-125.86040070678142
 21
-100.65604859254918
 31
0.0
  0
LINE
  5
CD
330
17
100
AcDbEntity
  8
0
100
AcDbLine
 10
-125.86040070678142
 20
-100.65604859254918
 30
0.0
 11
-127.19923862376946
 21
-98.77889533631092
 31
0.0
  0
LINE
  5
CE
330
17
100
AcDbEntity
  8
0
100
AcDbLine
 10
-127.19923862376946
 20
-98.77889533631092
 30
0.0
 11
-128.53008711296255
 21
-96.90841218873163
 31
0.0
  0
LINE
  5
CF
330
17
100
AcDbEntity
  8
0
100
AcDbLine
 10
-128.53008711296255
 20
-96.90841218873163
 30
0.0
 11
-129.85170083426453
 21
-95.04377091132125
 31
0.0
  0
LINE
  5
D0
330
17
100
AcDbEntity
  8
0
100
AcDbLine
 10
-129.85170083426453
 20
-95.04377091132125
 30
0.0
 11
-131.16284703353466
 21
-93.18415235779483
 31
0.0
  0
LINE
  5
D1
330
17
100
AcDbEntity
  8
0
100
AcDbLine
 10
-131.16284703353466
 20
-93.18415235779483
 30
0.0
 11
-132.46229295663207
 21
-91.32873738186758
 31
0.0
  0
LINE
  5
D2
330
17
100
AcDbEntity
  8
0
100
AcDbLine
 10
-132.46229295663207
 20
-91.32873738186758
 30
0.0
 11
-133.7508196515618
 21
-89.47346967208762
 31
0.0
  0
LINE
  5
D3
330
17
100
AcDbEntity
  8
0
100
AcDbLine
 10
-133.7508196515618
 20
-89.47346967208762
 30
0.0
 11
-135.0319533052043
 21
-87.61216443206455
 31
0.0
  0
LINE
  5
D4
330
17
100
AcDbEntity
  8
0
100
AcDbLine
 10
-135.0319533052043
 20
-87.61216443206455
 30
0.0
 11
-136.3066550097001
 21
-85.74448169995678
 31
0.0
  0
LINE
  5
D5
330
17
100
AcDbEntity
  8
0
100
AcDbLine
 10
-136.3066550097001
 20
-85.74448169995678
 30
0.0
 11
-137.57582763931046
 21
-83.87019097894036
 31
0.0
  0
LINE
  5
D6
330
17
100
AcDbEntity
  8
0
100
AcDbLine
 10
-137.57582763931046
 20
-83.87019097894036
 30
0.0
 11
-138.84037406829646
 21
-81.98906177219142
 31
0.0
  0
LINE
  5
D7
330
17
100
AcDbEntity
  8
0
100
AcDbLine
 10
-138.84037406829646
 20
-81.98906177219142
 30
0.0
 11
-140.10119717091933
 21
-80.100863582886
 31
0.0
  0
LINE
  5
D8
330
17
100
AcDbEntity
  8
0
100
AcDbLine
 10
-140.10119717091933
 20
-80.100863582886
 30
0.0
 11
-141.35919982144028
 21
-78.20536591420023
 31
0.0
  0
LINE
  5
D9
330
17
100
AcDbEntity
  8
0
100
AcDbLine
 10
-141.35919982144028
 20
-78.20536591420023
 30
0.0
 11
-142.6152848941204
 21
-76.30233826931018
 31
0.0
  0
LINE
  5
DA
330
17
100
AcDbEntity
  8
0
100
AcDbLine
 10
-142.6152848941204
 20
-76.30233826931018
 30
0.0
 11
-143.87016450723056
 21
-74.39187888950224
 31
0.0
  0
LINE
  5
DB
330
17
100
AcDbEntity
  8
0
100
AcDbLine
 10
-143.87016450723056
 20
-74.39187888950224
 30
0.0
 11
-145.11989015089554
 21
-72.48094700744242
 31
0.0
  0
LINE
  5
DC
330
17
100
AcDbEntity
  8
0
100
AcDbLine
 10
-145.11989015089554
 20
-72.48094700744242
 30
0.0
 11
-146.3608386692753
 21
-70.57307251028814
 31
0.0
  0
LINE
  5
DD
330
17
100
AcDbEntity
  8
0
100
AcDbLine
 10
-146.3608386692753
 20
-70.57307251028814
 30
0.0
 11
-147.5906921154825
 21
-68.66912608464504
 31
0.0
  0
LINE
  5
DE
330
17
100
AcDbEntity
  8
0
100
AcDbLine
 10
-147.5906921154825
 20
-68.66912608464504
 30
0.0
 11
-148.80713254262994
 21
-66.76997841711872
 31
0.0
  0
LINE
  5
DF
330
17
100
AcDbEntity
  8
0
100
AcDbLine
 10
-148.80713254262994
 20
-66.76997841711872
 30
0.0
 11
-150.0057779464966
 21
-64.87919661106207
 31
0.0
  0
LINE
  5
E0
330
17
100
AcDbEntity
  8
0
100
AcDbLine
 10
-150.0057779464966
 20
-64.87919661106207
 30
0.0
 11
-151.18686915220178
 21
-62.99377173140464
 31
0.0
  0
LINE
  5
E1
330
17
100
AcDbEntity
  8
0
100
AcDbLine
 10
-151.18686915220178
 20
-62.99377173140464
 30
0.0
 11
-152.35580658088898
 21
-61.103654575154884
 31
0.0
  0
LINE
  5
E2
330
17
100
AcDbEntity
  8
0
100
AcDbLine
 10
-152.35580658088898
 20
-61.103654575154884
 30
0.0
 11
-153.51799579178774
 21
-59.19878902336944
 31
0.0
  0
LINE
  5
E3
330
17
100
AcDbEntity
  8
0
100
AcDbLine
 10
-153.51799579178774
 20
-59.19878902336944
 30
0.0
 11
-154.68092764325195
 21
-57.26774509644509
 31
0.0
  0
LINE
  5
E4
330
17
100
AcDbEntity
  8
0
100
AcDbLine
 10
-154.68092764325195
 20
-57.26774509644509
 30
0.0
 11
-155.8566071197586
 21
-55.30199125711325
 31
0.0
  0
LINE
  5
E5
330
17
100
AcDbEntity
  8
0
100
AcDbLine
 10
-155.8566071197586
 20
-55.30199125711325
 30
0.0
 11
-157.05060035996297
 21
-53.303810450254964
 31
0.0
  0
LINE
  5
E6
330
17
100
AcDbEntity
  8
0
100
AcDbLine
 10
-157.05060035996297
 20
-53.303810450254964
 30
0.0
 11
-158.2679470876576
 21
-51.27606673671944
 31
0.0
  0
LINE
  5
E7
330
17
100
AcDbEntity
  8
0
100
AcDbLine
 10
-158.2679470876576
 20
-51.27606673671944
 30
0.0
 11
-159.5135725163945
 21
-49.221854214415785
 31
0.0
  0
LINE
  5
E8
330
17
100
AcDbEntity
  8
0
100
AcDbLine
 10
-159.5135725163945
 20
-49.221854214415785
 30
0.0
 11
-160.7926350189756
 21
-47.144932687023754
 31
0.0
  0
LINE
  5
E9
330
17
100
AcDbEntity
  8
0
100
AcDbLine
 10
-160.7926350189756
 20
-47.144932687023754
 30
0.0
 11
-162.11419132934185
 21
-45.04368974419529
 31
0.0
  0
LINE
  5
EA
330
17
100
AcDbEntity
  8
0
100
AcDbLine
 10
-162.11419132934185
 20
-45.04368974419529
 30
0.0
 11
-163.49830986866118
 21
-42.90440527793371
 31
0.0
  0
LINE
  5
EB
330
17
100
AcDbEntity
  8
0
100
AcDbLine
 10
-163.49830986866118
 20
-42.90440527793371
 30
0.0
 11
-164.96115879966052
 21
-40.728913630005216
 31
0.0
  0
LINE
  5
EC
330
17
100
AcDbEntity
  8
0
100
AcDbLine
 10
-164.96115879966052
 20
-40.728913630005216
 30
0.0
 11
-166.5150538176567
 21
-38.52700598278638
 31
0.0
  0
LINE
  5
ED
330
17
100
AcDbEntity
  8
0
100
AcDbLine
 10
-166.5150538176567
 20
-38.52700598278638
 30
0.0
 11
-168.17328212795292
 21
-36.309867159119754
 31
0.0
  0
LINE
  5
EE
330
17
100
AcDbEntity
  8
0
100
AcDbLine
 10
-168.17328212795292
 20
-36.309867159119754
 30
0.0
 11
-169.94435080417102
 21
-34.09700774085296
 31
0.0
  0
LINE
  5
EF
330
17
100
AcDbEntity
  8
0
100
AcDbLine
 10
-169.94435080417102
 20
-34.09700774085296
 30
0.0
 11
-171.80424855235322
 21
-31.93188980934451
 31
0.0
  0
LINE
  5
F0
330
17
100
AcDbEntity
  8
0
100
AcDbLine
 10
-171.80424855235322
 20
-31.93188980934451
 30
0.0
 11
-173.72324427779262
 21
-29.849480363094465
 31
0.0
  0
LINE
  5
F1
330
17
100
AcDbEntity
  8
0
100
AcDbLine
 10
-173.72324427779262
 20
-29.849480363094465
 30
0.0
 11
-175.69781222087627
 21
-27.84538163296564
 31
0.0
  0
LINE
  5
F2
330
17
100
AcDbEntity
  8
0
100
AcDbLine
 10
-175.69781222087627
 20
-27.84538163296564
 30
0.0
 11
-177.72596812809647
 21
-25.916192161608528
 31
0.0
  0
LINE
  5
F3
330
17
100
AcDbEntity
  8
0
100
AcDbLine
 10
-177.72596812809647
 20
-25.916192161608528
 30
0.0
 11
-179.8054748453386
 21
-24.058989625302903
 31
0.0
  0
LINE
  5
F4
330
17
100
AcDbEntity
  8
0
100
AcDbLine
 10
-179.8054748453386
 20
-24.058989625302903
 30
0.0
 11
-181.93491735075887
 21
-22.27056577568699
 31
0.0
  0
LINE
  5
F5
330
17
100
AcDbEntity
  8
0
100
AcDbLine
 10
-181.93491735075887
 20
-22.27056577568699
 30
0.0
 11
-184.11754560829593
 21
-20.547804572055014
 31
0.0
  0
LINE
  5
F6
330
17
100
AcDbEntity
  8
0
100
AcDbLine
 10
-184.11754560829579
 20
20.54780457205517
 30
0.0
 11
-184.49583101282437
 21
20.25287308176705
 31
0.0
  0
LINE
  5
F7
330
17
100
AcDbEntity
  8
0
100
AcDbLine
 10
-184.49583101282437
 20
20.25287308176705
 30
0.0
 11
-184.86858291458904
 21
19.95097831372071
 31
0.0
  0
LINE
  5
F8
330
17
100
AcDbEntity
  8
0
100
AcDbLine
 10
-184.86858291458904
 20
19.95097831372071
 30
0.0
 11
-185.23567315522845
 21
19.64222406440542
 31
0.0
  0
LINE
  5
F9
330
17
100
AcDbEntity
  8
0
100
AcDbLine
 10
-185.23567315522845
 20
19.64222406440542
 30
0.0
 11
-185.59697552295535
 21
19.32671648871528
 31
0.0
  0
LINE
  5
FA
330
17
100
AcDbEntity
  8
0
100
AcDbLine
 10
-185.59697552295535
 20
19.32671648871528
 30
0.0
 11
-185.9523657959504
 21
19.004564063451358
 31
0.0
  0
LINE
  5
FB
330
17
100
AcDbEntity
  8
0
100
AcDbLine
 10
-185.9523657959504
 20
19.004564063451358
 30
0.0
 11
-186.30172178507172
 21
18.675877550025547
 31
0.0
  0
LINE
  5
FC
330
17
100
AcDbEntity
  8
0
100
AcDbLine
 10
-186.30172178507172
 20
18.675877550025547
 30
0.0
 11
-186.6449233758654
 21
18.340769956378956
 31
0.0
  0
LINE
  5
FD
330
17
100
AcDbEntity
  8
0
100
AcDbLine
 10
-186.6449233758654
 20
18.340769956378956
 30
0.0
 11
-186.98185256986312
 21
17.999356498127856
 31
0.0
  0
LINE
  5
FE
330
17
100
AcDbEntity
  8
0
100
AcDbLine
 10
-186.98185256986312
 20
17.999356498127856
 30
0.0
 11
-187.31239352515183
 21
17.65175455895062
 31
0.0
  0
LINE
  5
FF
330
17
100
AcDbEntity
  8
0
100
AcDbLine
 10
-187.31239352515183
 20
17.65175455895062
 30
0.0
 11
-187.63643259620216
 21
17.29808365022929
 31
0.0
  0
LINE
  5
100
330
17
100
AcDbEntity
  8
0
100
AcDbLine
 10
-187.63643259620216
 20
17.29808365022929
 30
0.0
 11
-187.95385837294174
 21
16.93846536995948
 31
0.0
  0
LINE
  5
101
330
17
100
AcDbEntity
  8
0
100
AcDbLine
 10
-187.95385837294174
 20
16.93846536995948
 30
0.0
 11
-188.26456171905974
 21
16.573023360942987
 31
0.0
  0
LINE
  5
102
330
17
100
AcDbEntity
  8
0
100
AcDbLine
 10
-188.26456171905974
 20
16.573023360942987
 30
0.0
 11
-188.56843580952992
 21
16.20188326827734
 31
0.0
  0
LINE
  5
103
330
17
100
AcDbEntity
  8
0
100
AcDbLine
 10
-188.56843580952992
 20
16.20188326827734
 30
0.0
 11
-188.86537616733867
 21
15.82517269615686
 31
0.0
  0
LINE
  5
104
330
17
100
AcDbEntity
  8
0
100
AcDbLine
 10
-188.86537616733867
 20
15.82517269615686
 30
0.0
 11
-189.15528069940615
 21
15.443021164000228
 31
0.0
  0
LINE
  5
105
330
17
100
AcDbEntity
  8
0
100
AcDbLine
 10
-189.15528069940615
 20
15.443021164000228
 30
0.0
 11
-189.43804973168753
 21
15.055560061919527
 31
0.0
  0
LINE
  5
106
330
17
100
AcDbEntity
  8
0
100
AcDbLine
 10
-189.43804973168753
 20
15.055560061919527
 30
0.0
 11
-189.71358604344252
 21
14.6629226055461
 31
0.0
  0
LINE
  5
107
330
17
100
AcDbEntity
  8
0
100
AcDbLine
 10
-189.71358604344252
 20
14.6629226055461
 30
0.0
 11
-189.9817949006616
 21
14.265243790228812
 31
0.0
  0
LINE
  5
108
330
17
100
AcDbEntity
  8
0
100
AcDbLine
 10
-189.9817949006616
 20
14.265243790228812
 30
0.0
 11
-190.24258408863716
 21
13.86266034462035
 31
0.0
  0
LINE
  5
109
330
17
100
AcDbEntity
  8
0
100
AcDbLine
 10
-190.24258408863716
 20
13.86266034462035
 30
0.0
 11
-190.4958639436684
 21
13.455310683667639
 31
0.0
  0
LINE
  5
10A
330
17
100
AcDbEntity
  8
0
100
AcDbLine
 10
-190.4958639436684
 20
13.455310683667639
 30
0.0
 11
-190.74154738388924
 21
13.043334861022446
 31
0.0
  0
LINE
  5
10B
330
17
100
AcDbEntity
  8
0
100
AcDbLine
 10
-190.74154738388924
 20
13.043334861022446
 30
0.0
 11
-190.97954993920857
 21
12.626874520888595
 31
0.0
  0
LINE
  5
10C
330
17
100
AcDbEntity
  8
0
100
AcDbLine
 10
-190.97954993920857
 20
12.626874520888595
 30
0.0
 11
-191.20978978035242
 21
12.2060728493223
 31
0.0
  0
LINE
  5
10D
330
17
100
AcDbEntity
  8
0
100
AcDbLine
 10
-191.20978978035242
 20
12.2060728493223
 30
0.0
 11
-191.4321877469983
 21
11.781074525002385
 31
0.0
  0
LINE
  5
10E
330
17
100
AcDbEntity
  8
0
100
AcDbLine
 10
-191.4321877469983
 20
11.781074525002385
 30
0.0
 11
-191.64666737499175
 21
11.352025669487398
 31
0.0
  0
LINE
  5
10F
330
17
100
AcDbEntity
  8
0
100
AcDbLine
 10
-191.64666737499175
 20
11.352025669487398
 30
0.0
 11
-191.85315492263618
 21
10.919073796976456
 31
0.0
  0
LINE
  5
110
330
17
100
AcDbEntity
  8
0
100
AcDbLine
 10
-191.85315492263618
 20
10.919073796976456
 30
0.0
 11
-192.05157939604626
 21
10.482367763591455
 31
0.0
  0
LINE
  5
111
330
17
100
AcDbEntity
  8
0
100
AcDbLine
 10
-192.05157939604626
 20
10.482367763591455
 30
0.0
 11
-192.24187257355703
 21
10.042057716197823
 31
0.0
  0
LINE
  5
112
330
17
100
AcDbEntity
  8
0
100
AcDbLine
 10
-192.24187257355703
 20
10.042057716197823
 30
0.0
 11
-192.42396902917957
 21
9.598295040781505
 31
0.0
  0
LINE
  5
113
330
17
100
AcDbEntity
  8
0
100
AcDbLine
 10
-192.42396902917957
 20
9.598295040781505
 30
0.0
 11
-192.59780615509547
 21
9.151232310399926
 31
0.0
  0
LINE
  5
114
330
17
100
AcDbEntity
  8
0
100
AcDbLine
 10
-192.59780615509547
 20
9.151232310399926
 30
0.0
 11
-192.7633241831826
 21
8.7010232327248
 31
0.0
  0
LINE
  5
115
330
17
100
AcDbEntity
  8
0
100
AcDbLine
 10
-192.7633241831826
 20
8.7010232327248
 30
0.0
 11
-192.92046620556425
 21
8.247822597194869
 31
0.0
  0
LINE
  5
116
330
17
100
AcDbEntity
  8
0
100
AcDbLine
 10
-192.92046620556425
 20
8.247822597194869
 30
0.0
 11
-193.06917819417515
 21
7.791786221796677
 31
0.0
  0
LINE
  5
117
330
17
100
AcDbEntity
  8
0
100
AcDbLine
 10
-193.06917819417515
 20
7.791786221796677
 30
0.0
 11
-193.20940901933713
 21
7.33307089949174
 31
0.0
  0
LINE
  5
118
330
17
100
AcDbEntity
  8
0
100
AcDbLine
 10
-193.20940901933713
 20
7.33307089949174
 30
0.0
 11
-193.3411104673384
 21
6.871834344308477
 31
0.0
  0
LINE
  5
119
330
17
100
AcDbEntity
  8
0
100
AcDbLine
 10
-193.3411104673384
 20
6.871834344308477
 30
0.0
 11
-193.4642372570102
 21
6.408235137117556
 31
0.0
  0
LINE
  5
11A
330
17
100
AcDbEntity
  8
0
100
AcDbLine
 10
-193.4642372570102
 20
6.408235137117556
 30
0.0
 11
-193.57874705529525
 21
5.942432671109007
 31
0.0
  0
LINE
  5
11B
330
17
100
AcDbEntity
  8
0
100
AcDbLine
 10
-193.57874705529525
 20
5.942432671109007
 30
0.0
 11
-193.68460049180263
 21
5.474587096990244
 31
0.0
  0
LINE
  5
11C
330
17
100
AcDbEntity
  8
0
100
AcDbLine
 10
-193.68460049180263
 20
5.474587096990244
 30
0.0
 11
-193.7817611723438
 21
5.004859267923553
 31
0.0
  0
LINE
  5
11D
330
17
100
AcDbEntity
  8
0
100
AcDbLine
 10
-193.7817611723438
 20
5.004859267923553
 30
0.0
 11
-193.8701956914458
 21
4.533410684222067
 31
0.0
  0
LINE
  5
11E
330
17
100
AcDbEntity
  8
0
100
AcDbLine
 10
-193.8701956914458
 20
4.533410684222067
 30
0.0
 11
-193.9498736438363
 21
4.0604034378232505
 31
0.0
  0
LINE
  5
11F
330
17
100
AcDbEntity
  8
0
100
AcDbLine
 10
-193.9498736438363
 20
4.0604034378232505
 30
0.0
 11
-194.0207676348977
 21
3.586000156558969
 31
0.0
  0
LINE
  5
120
330
17
100
AcDbEntity
  8
0
100
AcDbLine
 10
-194.0207676348977
 20
3.586000156558969
 30
0.0
 11
-194.08285329008578
 21
3.1103639482413086
 31
0.0
  0
LINE
  5
121
330
17
100
AcDbEntity
  8
0
100
AcDbLine
 10
-194.08285329008578
 20
3.1103639482413086
 30
0.0
 11
-194.13610926331
 21
2.6336583445833766
 31
0.0
  0
LINE
  5
122
330
17
100
AcDbEntity
  8
0
100
AcDbLine
 10
-194.13610926331
 20
2.6336583445833766
 30
0.0
 11
-194.18051724427275
 21
2.156047244974349
 31
0.0
  0
LINE
  5
123
330
17
100
AcDbEntity
  8
0
100
AcDbLine
 10
-194.18051724427275
 20
2.156047244974349
 30
0.0
 11
-194.2160619647647
 21
1.6776948601280885
 31
0.0
  0
LINE
  5
124
330
17
100
AcDbEntity
  8
0
100
AcDbLine
 10
-194.2160619647647
 20
1.6776948601280885
 30
0.0
 11
-194.24273120391422
 21
1.198765655624858
 31
0.0
  0
LINE
  5
125
330
17
100
AcDbEntity
  8
0
100
AcDbLine
 10
-194.24273120391422
 20
1.198765655624858
 30
0.0
 11
-194.26051579238919
 21
0.7194242953650414
 31
0.0
  0
LINE
  5
126
330
17
100
AcDbEntity
  8
0
100
AcDbLine
 10
-194.26051579238919
 20
0.7194242953650414
 30
0.0
 11
-194.2694096155495
 21
0.23983558495525092
 31
0.0
  0
LINE
  5
127
330
17
100
AcDbEntity
  8
0
100
AcDbLine
 10
-194.2694096155495
 20
0.23983558495525092
 30
0.0
 11
-194.2694096155495
 21
-0.2398355849548585
 31
0.0
  0
LINE
  5
128
330
17
100
AcDbEntity
  8
0
100
AcDbLine
 10
-194.2694096155495
 20
-0.2398355849548585
 30
0.0
 11
-194.26051579238919
 21
-0.7194242953646489
 31
0.0
  0
LINE
  5
129
330
17
100
AcDbEntity
  8
0
100
AcDbLine
 10
-194.26051579238919
 20
-0.7194242953646489
 30
0.0
 11
-194.24273120391422
 21
-1.1987656556244428
 31
0.0
  0
LINE
  5
12A
330
17
100
AcDbEntity
  8
0
100
AcDbLine
 10
-194.24273120391422
 20
-1.1987656556244428
 30
0.0
 11
-194.2160619647647
 21
-1.677694860127696
 31
0.0
  0
LINE
  5
12B
330
17
100
AcDbEntity
  8
0
100
AcDbLine
 10
-194.2160619647647
 20
-1.677694860127696
 30
0.0
 11
-194.18051724427278
 21
-2.1560472449739336
 31
0.0
  0
LINE
  5
12C
330
17
100
AcDbEntity
  8
0
100
AcDbLine
 10
-194.18051724427278
 20
-2.1560472449739336
 30
0.0
 11
-194.13610926331
 21
-2.6336583445829613
 31
0.0
  0
LINE
  5
12D
330
17
100
AcDbEntity
  8
0
100
AcDbLine
 10
-194.13610926331
 20
-2.6336583445829613
 30
0.0
 11
-194.08285329008578
 21
-3.1103639482408934
 31
0.0
  0
LINE
  5
12E
330
17
100
AcDbEntity
  8
0
100
AcDbLine
 10
-194.08285329008578
 20
-3.1103639482408934
 30
0.0
 11
-194.0207676348977
 21
-3.586000156558576
 31
0.0
  0
LINE
  5
12F
330
17
100
AcDbEntity
  8
0
100
AcDbLine
 10
-194.0207676348977
 20
-3.586000156558576
 30
0.0
 11
-193.9498736438363
 21
-4.060403437822835
 31
0.0
  0
LINE
  5
130
330
17
100
AcDbEntity
  8
0
100
AcDbLine
 10
-193.9498736438363
 20
-4.060403437822835
 30
0.0
 11
-193.8701956914458
 21
-4.533410684221673
 31
0.0
  0
LINE
  5
131
330
17
100
AcDbEntity
  8
0
100
AcDbLine
 10
-193.8701956914458
 20
-4.533410684221673
 30
0.0
 11
-193.7817611723438
 21
-5.004859267923159
 31
0.0
  0
LINE
  5
132
330
17
100
AcDbEntity
  8
0
100
AcDbLine
 10
-193.7817611723438
 20
-5.004859267923159
 30
0.0
 11
-193.68460049180263
 21
-5.47458709698985
 31
0.0
  0
LINE
  5
133
330
17
100
AcDbEntity
  8
0
100
AcDbLine
 10
-193.68460049180263
 20
-5.47458709698985
 30
0.0
 11
-193.57874705529525
 21
-5.942432671108612
 31
0.0
  0
LINE
  5
134
330
17
100
AcDbEntity
  8
0
100
AcDbLine
 10
-193.57874705529525
 20
-5.942432671108612
 30
0.0
 11
-193.4642372570102
 21
-6.408235137117163
 31
0.0
  0
LINE
  5
135
330
17
100
AcDbEntity
  8
0
100
AcDbLine
 10
-193.4642372570102
 20
-6.408235137117163
 30
0.0
 11
-193.3411104673384
 21
-6.871834344308084
 31
0.0
  0
LINE
  5
136
330
17
100
AcDbEntity
  8
0
100
AcDbLine
 10
-193.3411104673384
 20
-6.871834344308084
 30
0.0
 11
-193.20940901933713
 21
-7.333070899491324
 31
0.0
  0
LINE
  5
137
330
17
100
AcDbEntity
  8
0
100
AcDbLine
 10
-193.20940901933713
 20
-7.333070899491324
 30
0.0
 11
-193.06917819417515
 21
-7.7917862217962615
 31
0.0
  0
LINE
  5
138
330
17
100
AcDbEntity
  8
0
100
AcDbLine
 10
-193.06917819417515
 20
-7.7917862217962615
 30
0.0
 11
-192.92046620556425
 21
-8.247822597194455
 31
0.0
  0
LINE
  5
139
330
17
100
AcDbEntity
  8
0
100
AcDbLine
 10
-192.92046620556425
 20
-8.247822597194455
 30
0.0
 11
-192.7633241831826
 21
-8.701023232724388
 31
0.0
  0
LINE
  5
13A
330
17
100
AcDbEntity
  8
0
100
AcDbLine
 10
-192.7633241831826
 20
-8.701023232724388
 30
0.0
 11
-192.59780615509547
 21
-9.151232310399513
 31
0.0
  0
LINE
  5
13B
330
17
100
AcDbEntity
  8
0
100
AcDbLine
 10
-192.59780615509547
 20
-9.151232310399513
 30
0.0
 11
-192.42396902917955
 21
-9.598295040781114
 31
0.0
  0
LINE
  5
13C
330
17
100
AcDbEntity
  8
0
100
AcDbLine
 10
-192.42396902917955
 20
-9.598295040781114
 30
0.0
 11
-192.24187257355703
 21
-10.042057716197409
 31
0.0
  0
LINE
  5
13D
330
17
100
AcDbEntity
  8
0
100
AcDbLine
 10
-192.24187257355703
 20
-10.042057716197409
 30
0.0
 11
-192.05157939604626
 21
-10.482367763591062
 31
0.0
  0
LINE
  5
13E
330
17
100
AcDbEntity
  8
0
100
AcDbLine
 10
-192.05157939604626
 20
-10.482367763591062
 30
0.0
 11
-191.85315492263618
 21
-10.919073796976065
 31
0.0
  0
LINE
  5
13F
330
17
100
AcDbEntity
  8
0
100
AcDbLine
 10
-191.85315492263618
 20
-10.919073796976065
 30
0.0
 11
-191.64666737499175
 21
-11.352025669487007
 31
0.0
  0
LINE
  5
140
330
17
100
AcDbEntity
  8
0
100
AcDbLine
 10
-191.64666737499175
 20
-11.352025669487007
 30
0.0
 11
-191.4321877469983
 21
-11.781074525001992
 31
0.0
  0
LINE
  5
141
330
17
100
AcDbEntity
  8
0
100
AcDbLine
 10
-191.4321877469983
 20
-11.781074525001992
 30
0.0
 11
-191.20978978035242
 21
-12.206072849321886
 31
0.0
  0
LINE
  5
142
330
17
100
AcDbEntity
  8
0
100
AcDbLine
 10
-191.20978978035242
 20
-12.206072849321886
 30
0.0
 11
-190.9795499392086
 21
-12.62687452088818
 31
0.0
  0
LINE
  5
143
330
17
100
AcDbEntity
  8
0
100
AcDbLine
 10
-190.9795499392086
 20
-12.62687452088818
 30
0.0
 11
-190.74154738388927
 21
-13.043334861022032
 31
0.0
  0
LINE
  5
144
330
17
100
AcDbEntity
  8
0
100
AcDbLine
 10
-190.74154738388927
 20
-13.043334861022032
 30
0.0
 11
-190.4958639436684
 21
-13.455310683667225
 31
0.0
  0
LINE
  5
145
330
17
100
AcDbEntity
  8
0
100
AcDbLine
 10
-190.4958639436684
 20
-13.455310683667225
 30
0.0
 11
-190.24258408863716
 21
-13.862660344619936
 31
0.0
  0
LINE
  5
146
330
17
100
AcDbEntity
  8
0
100
AcDbLine
 10
-190.24258408863716
 20
-13.862660344619936
 30
0.0
 11
-189.9817949006616
 21
-14.265243790228416
 31
0.0
  0
LINE
  5
147
330
17
100
AcDbEntity
  8
0
100
AcDbLine
 10
-189.9817949006616
 20
-14.265243790228416
 30
0.0
 11
-189.71358604344252
 21
-14.662922605545686
 31
0.0
  0
LINE
  5
148
330
17
100
AcDbEntity
  8
0
100
AcDbLine
 10
-189.71358604344252
 20
-14.662922605545686
 30
0.0
 11
-189.43804973168753
 21
-15.05556006191913
 31
0.0
  0
LINE
  5
149
330
17
100
AcDbEntity
  8
0
100
AcDbLine
 10
-189.43804973168753
 20
-15.05556006191913
 30
0.0
 11
-189.15528069940615
 21
-15.443021163999834
 31
0.0
  0
LINE
  5
14A
330
17
100
AcDbEntity
  8
0
100
AcDbLine
 10
-189.15528069940615
 20
-15.443021163999834
 30
0.0
 11
-188.86537616733867
 21
-15.825172696156464
 31
0.0
  0
LINE
  5
14B
330
17
100
AcDbEntity
  8
0
100
AcDbLine
 10
-188.86537616733867
 20
-15.825172696156464
 30
0.0
 11
-188.5684358095299
 21
-16.20188326827694
 31
0.0
  0
LINE
  5
14C
330
17
100
AcDbEntity
  8
0
100
AcDbLine
 10
-188.5684358095299
 20
-16.20188326827694
 30
0.0
 11
-188.26456171905974
 21
-16.57302336094259
 31
0.0
  0
LINE
  5
14D
330
17
100
AcDbEntity
  8
0
100
AcDbLine
 10
-188.26456171905974
 20
-16.57302336094259
 30
0.0
 11
-187.95385837294174
 21
-16.938465369959076
 31
0.0
  0
LINE
  5
14E
330
17
100
AcDbEntity
  8
0
100
AcDbLine
 10
-187.95385837294174
 20
-16.938465369959076
 30
0.0
 11
-187.63643259620216
 21
-17.298083650228886
 31
0.0
  0
LINE
  5
14F
330
17
100
AcDbEntity
  8
0
100
AcDbLine
 10
-187.63643259620216
 20
-17.298083650228886
 30
0.0
 11
-187.31239352515183
 21
-17.651754558950216
 31
0.0
  0
LINE
  5
150
330
17
100
AcDbEntity
  8
0
100
AcDbLine
 10
-187.31239352515183
 20
-17.651754558950216
 30
0.0
 11
-186.98185256986312
 21
-17.99935649812744
 31
0.0
  0
LINE
  5
151
330
17
100
AcDbEntity
  8
0
100
AcDbLine
 10
-186.98185256986312
 20
-17.99935649812744
 30
0.0
 11
-186.6449233758654
 21
-18.34076995637856
 31
0.0
  0
LINE
  5
152
330
17
100
AcDbEntity
  8
0
100
AcDbLine
 10
-186.6449233758654
 20
-18.34076995637856
 30
0.0
 11
-186.30172178507172
 21
-18.675877550025135
 31
0.0
  0
LINE
  5
153
330
17
100
AcDbEntity
  8
0
100
AcDbLine
 10
-186.30172178507172
 20
-18.675877550025135
 30
0.0
 11
-185.9523657959504
 21
-19.00456406345096
 31
0.0
  0
LINE
  5
154
330
17
100
AcDbEntity
  8
0
100
AcDbLine
 10
-185.9523657959504
 20
-19.00456406345096
 30
0.0
 11
-185.59697552295535
 21
-19.32671648871487
 31
0.0
  0
LINE
  5
155
330
17
100
AcDbEntity
  8
0
100
AcDbLine
 10
-185.59697552295535
 20
-19.32671648871487
 30
0.0
 11
-185.23567315522843
 21
-19.642224064405024
 31
0.0
  0
LINE
  5
156
330
17
100
AcDbEntity
  8
0
100
AcDbLine
 10
-185.23567315522843
 20
-19.642224064405024
 30
0.0
 11
-184.86858291458904
 21
-19.95097831372031
 31
0.0
  0
LINE
  5
157
330
17
100
AcDbEntity
  8
0
100
AcDbLine
 10
-184.86858291458904
 20
-19.95097831372031
 30
0.0
 11
-184.49583101282437
 21
-20.252873081766648
 31
0.0
  0
LINE
  5
158
330
17
100
AcDbEntity
  8
0
100
AcDbLine
 10
-184.49583101282437
 20
-20.252873081766648
 30
0.0
 11
-184.11754560829579
 21
-20.54780457205477
 31
0.0
  0
LINE
  5
159
330
17
100
AcDbEntity
  8
0
100
AcDbLine
 10
-19.76964968390163
 20
135.2112752232771
 30
0.0
 11
-22.009309869566522
 21
135.33420734488948
 31
0.0
  0
LINE
  5
15A
330
17
100
AcDbEntity
  8
0
100
AcDbLine
 10
-22.009309869566522
 20
135.33420734488948
 30
0.0
 11
-24.25011636922038
 21
135.44473326404082
 31
0.0
  0
LINE
  5
15B
330
17
100
AcDbEntity
  8
0
100
AcDbLine
 10
-24.25011636922038
 20
135.44473326404082
 30
0.0
 11
-26.492004005420615
 21
135.54291738514206
 31
0.0
  0
LINE
  5
15C
330
17
100
AcDbEntity
  8
0
100
AcDbLine
 10
-26.492004005420615
 20
135.54291738514206
 30
0.0
 11
-28.7351982816977
 21
135.6289822392521
 31
0.0
  0
LINE
  5
15D
330
17
100
AcDbEntity
  8
0
100
AcDbLine
 10
-28.7351982816977
 20
135.6289822392521
 30
0.0
 11
-30.979642614783423
 21
135.70305158709783
 31
0.0
  0
LINE
  5
15E
330
17
100
AcDbEntity
  8
0
100
AcDbLine
 10
-30.979642614783423
 20
135.70305158709783
 30
0.0
 11
-33.22478668063521
 21
135.76501021145384
 31
0.0
  0
LINE
  5
15F
330
17
100
AcDbEntity
  8
0
100
AcDbLine
 10
-33.22478668063521
 20
135.76501021145384
 30
0.0
 11
-35.47007986733048
 21
135.81474274891426
 31
0.0
  0
LINE
  5
160
330
17
100
AcDbEntity
  8
0
100
AcDbLine
 10
-35.47007986733048
 20
135.81474274891426
 30
0.0
 11
-37.71497156294667
 21
135.85213383607314
 31
0.0
  0
LINE
  5
161
330
17
100
AcDbEntity
  8
0
100
AcDbLine
 10
-37.71497156294667
 20
135.85213383607314
 30
0.0
 11
-39.958911155561196
 21
135.8770681095245
 31
0.0
  0
LINE
  5
162
330
17
100
AcDbEntity
  8
0
100
AcDbLine
 10
-39.958911155561196
 20
135.8770681095245
 30
0.0
 11
-42.20134803325148
 21
135.88943020586242
 31
0.0
  0
LINE
  5
163
330
17
100
AcDbEntity
  8
0
100
AcDbLine
 10
-42.20134803325148
 20
135.88943020586242
 30
0.0
 11
-44.441731584094946
 21
135.88910476168098
 31
0.0
  0
LINE
  5
164
330
17
100
AcDbEntity
  8
0
100
AcDbLine
 10
-44.441731584094946
 20
135.88910476168098
 30
0.0
 11
-46.679337217576304
 21
135.87593540509386
 31
0.0
  0
LINE
  5
165
330
17
100
AcDbEntity
  8
0
100
AcDbLine
 10
-46.679337217576304
 20
135.87593540509386
 30
0.0
 11
-48.912868165021365
 21
135.84936553441958
 31
0.0
  0
LINE
  5
166
330
17
100
AcDbEntity
  8
0
100
AcDbLine
 10
-48.912868165021365
 20
135.84936553441958
 30
0.0
 11
-51.144255551538635
 21
135.80908537407936
 31
0.0
  0
LINE
  5
167
330
17
100
AcDbEntity
  8
0
100
AcDbLine
 10
-51.144255551538635
 20
135.80908537407936
 30
0.0
 11
-53.376079599772154
 21
135.75488539014987
 31
0.0
  0
LINE
  5
168
330
17
100
AcDbEntity
  8
0
100
AcDbLine
 10
-53.376079599772154
 20
135.75488539014987
 30
0.0
 11
-55.61093492282157
 21
135.6865592050933
 31
0.0
  0
LINE
  5
169
330
17
100
AcDbEntity
  8
0
100
AcDbLine
 10
-55.61093492282157
 20
135.6865592050933
 30
0.0
 11
-57.85302358439768
 21
135.60467400256243
 31
0.0
  0
LINE
  5
16A
330
17
100
AcDbEntity
  8
0
100
AcDbLine
 10
-57.85302358439768
 20
135.60467400256243
 30
0.0
 11
-60.10421471371157
 21
135.51070101512812
 31
0.0
  0
LINE
  5
16B
330
17
100
AcDbEntity
  8
0
100
AcDbLine
 10
-60.10421471371157
 20
135.51070101512812
 30
0.0
 11
-62.36449011453875
 21
135.40599274694955
 31
0.0
  0
LINE
  5
16C
330
17
100
AcDbEntity
  8
0
100
AcDbLine
 10
-62.36449011453875
 20
135.40599274694955
 30
0.0
 11
-64.63383159065484
 21
135.2919017021859
 31
0.0
  0
LINE
  5
16D
330
17
100
AcDbEntity
  8
0
100
AcDbLine
 10
-64.63383159065484
 20
135.2919017021859
 30
0.0
 11
-66.91490492169947
 21
135.16975230649783
 31
0.0
  0
LINE
  5
16E
330
17
100
AcDbEntity
  8
0
100
AcDbLine
 10
-66.91490492169947
 20
135.16975230649783
 30
0.0
 11
-69.20031689247217
 21
135.04111726563409
 31
0.0
  0
LINE
  5
16F
330
17
100
AcDbEntity
  8
0
100
AcDbLine
 10
-69.20031689247217
 20
135.04111726563409
 30
0.0
 11
-71.4643389133342
 21
134.90721664882312
 31
0.0
  0
LINE
  5
170
330
17
100
AcDbEntity
  8
0
100
AcDbLine
 10
-71.4643389133342
 20
134.90721664882312
 30
0.0
 11
-73.68736287289983
 21
134.7642871720848
 31
0.0
  0
LINE
  5
171
330
17
100
AcDbEntity
  8
0
100
AcDbLine
 10
-73.68736287289983
 20
134.7642871720848
 30
0.0
 11
-75.8688500234111
 21
134.60659687070918
 31
0.0
  0
LINE
  5
172
330
17
100
AcDbEntity
  8
0
100
AcDbLine
 10
-75.8688500234111
 20
134.60659687070918
 30
0.0
 11
-78.0111916972566
 21
134.42856858573745
 31
0.0
  0
LINE
  5
173
330
17
100
AcDbEntity
  8
0
100
AcDbLine
 10
-78.0111916972566
 20
134.42856858573745
 30
0.0
 11
-80.10994693660338
 21
134.2259846752183
 31
0.0
  0
LINE
  5
174
330
17
100
AcDbEntity
  8
0
100
AcDbLine
 10
-80.10994693660338
 20
134.2259846752183
 30
0.0
 11
-82.15969043823776
 21
133.9947844189834
 31
0.0
  0
LINE
  5
175
330
17
100
AcDbEntity
  8
0
100
AcDbLine
 10
-82.15969043823776
 20
133.9947844189834
 30
0.0
 11
-84.15468094041364
 21
133.73089911997727
 31
0.0
  0
LINE
  5
176
330
17
100
AcDbEntity
  8
0
100
AcDbLine
 10
-84.15468094041364
 20
133.73089911997727
 30
0.0
 11
-86.07979792929525
 21
133.430198834594
 31
0.0
  0
LINE
  5
177
330
17
100
AcDbEntity
  8
0
100
AcDbLine
 10
-86.07979792929525
 20
133.430198834594
 30
0.0
 11
-87.92609801054402
 21
133.08918372666662
 31
0.0
  0
LINE
  5
178
330
17
100
AcDbEntity
  8
0
100
AcDbLine
 10
-87.92609801054402
 20
133.08918372666662
 30
0.0
 11
-89.68958871356699
 21
132.7045556259219
 31
0.0
  0
LINE
  5
179
330
17
100
AcDbEntity
  8
0
100
AcDbLine
 10
-89.68958871356699
 20
132.7045556259219
 30
0.0
 11
-91.36627756777114
 21
132.2730163620865
 31
0.0
  0
LINE
  5
17A
330
17
100
AcDbEntity
  8
0
100
AcDbLine
 10
-91.36627756777114
 20
132.2730163620865
 30
0.0
 11
-92.9761694106689
 21
131.78470408418502
 31
0.0
  0
LINE
  5
17B
330
17
100
AcDbEntity
  8
0
100
AcDbLine
 10
-92.9761694106689
 20
131.78470408418502
 30
0.0
 11
-94.5585843294665
 21
131.2273735461378
 31
0.0
  0
LINE
  5
17C
330
17
100
AcDbEntity
  8
0
100
AcDbLine
 10
-94.5585843294665
 20
131.2273735461378
 30
0.0
 11
-96.12540776216433
 21
130.59814911264337
 31
0.0
  0
LINE
  5
17D
330
17
100
AcDbEntity
  8
0
100
AcDbLine
 10
-96.12540776216433
 20
130.59814911264337
 30
0.0
 11
-97.68830849908836
 21
129.89422093065494
 31
0.0
  0
LINE
  5
17E
330
17
100
AcDbEntity
  8
0
100
AcDbLine
 10
-97.68830849908836
 20
129.89422093065494
 30
0.0
 11
-99.25453152426545
 21
129.1144258606975
 31
0.0
  0
LINE
  5
17F
330
17
100
AcDbEntity
  8
0
100
AcDbLine
 10
-99.25453152426545
 20
129.1144258606975
 30
0.0
 11
-100.80639510933881
 21
128.26750774287774
 31
0.0
  0
LINE
  5
180
330
17
100
AcDbEntity
  8
0
100
AcDbLine
 10
-100.80639510933881
 20
128.26750774287774
 30
0.0
 11
-102.32668408885026
 21
127.36281860313292
 31
0.0
  0
LINE
  5
181
330
17
100
AcDbEntity
  8
0
100
AcDbLine
 10
-102.32668408885026
 20
127.36281860313292
 30
0.0
 11
-103.79923315517662
 21
126.40935545334281
 31
0.0
  0
LINE
  5
182
330
17
100
AcDbEntity
  8
0
100
AcDbLine
 10
-103.79923315517662
 20
126.40935545334281
 30
0.0
 11
-105.20730406794506
 21
125.4167497793293
 31
0.0
  0
LINE
  5
183
330
17
100
AcDbEntity
  8
0
100
AcDbLine
 10
-105.20730406794506
 20
125.4167497793293
 30
0.0
 11
-106.53870054667645
 21
124.39388758100549
 31
0.0
  0
LINE
  5
184
330
17
100
AcDbEntity
  8
0
100
AcDbLine
 10
-106.53870054667645
 20
124.39388758100549
 30
0.0
 11
-107.81282303765357
 21
123.32399795401724
 31
0.0
  0
LINE
  5
185
330
17
100
AcDbEntity
  8
0
100
AcDbLine
 10
-107.81282303765357
 20
123.32399795401724
 30
0.0
 11
-109.05484879529553
 21
122.18505019681116
 31
0.0
  0
LINE
  5
186
330
17
100
AcDbEntity
  8
0
100
AcDbLine
 10
-109.05484879529553
 20
122.18505019681116
 30
0.0
 11
-110.28995229009514
 21
120.95501690826043
 31
0.0
  0
LINE
  5
187
330
17
100
AcDbEntity
  8
0
100
AcDbLine
 10
-110.28995229009514
 20
120.95501690826043
 30
0.0
 11
-111.53428984243277
 21
119.62270759437226
 31
0.0
  0
LINE
  5
188
330
17
100
AcDbEntity
  8
0
100
AcDbLine
 10
-111.53428984243277
 20
119.62270759437226
 30
0.0
 11
-112.78772258351933
 21
118.1968043019618
 31
0.0
  0
LINE
  5
189
330
17
100
AcDbEntity
  8
0
100
AcDbLine
 10
-112.78772258351933
 20
118.1968043019618
 30
0.0
 11
-114.05032490717947
 21
116.68586794376725
 31
0.0
  0
LINE
  5
18A
330
17
100
AcDbEntity
  8
0
100
AcDbLine
 10
-114.05032490717947
 20
116.68586794376725
 30
0.0
 11
-115.32217120723783
 21
115.09845943252674
 31
0.0
  0
LINE
  5
18B
330
17
100
AcDbEntity
  8
0
100
AcDbLine
 10
-115.32217120723783
 20
115.09845943252674
 30
0.0
 11
-116.60333587751907
 21
113.4431396809784
 31
0.0
  0
LINE
  5
18C
330
17
100
AcDbEntity
  8
0
100
AcDbLine
 10
-116.60333587751907
 20
113.4431396809784
 30
0.0
 11
-117.89389331184788
 21
111.72846960186037
 31
0.0
  0
LINE
  5
18D
330
17
100
AcDbEntity
  8
0
100
AcDbLine
 10
-117.89389331184788
 20
111.72846960186037
 30
0.0
 11
-119.19391790404885
 21
109.96301010791086
 31
0.0
  0
LINE
  5
18E
330
17
100
AcDbEntity
  8
0
100
AcDbLine
 10
-119.19391790404885
 20
109.96301010791086
 30
0.0
 11
-120.50348404794666
 21
108.15532211186797
 31
0.0
  0
LINE
  5
18F
330
17
100
AcDbEntity
  8
0
100
AcDbLine
 10
-120.50348404794666
 20
108.15532211186797
 30
0.0
 11
-121.82442976101383
 21
106.31189651648111
 31
0.0
  0
LINE
  5
190
330
17
100
AcDbEntity
  8
0
100
AcDbLine
 10
-121.82442976101383
 20
106.31189651648111
 30
0.0
 11
-123.16541331695986
 21
104.43216011141683
 31
0.0
  0
LINE
  5
191
330
17
100
AcDbEntity
  8
0
100
AcDbLine
 10
-123.16541331695986
 20
104.43216011141683
 30
0.0
 11
-124.51485722573607
 21
102.54072916546505
 31
0.0
  0
LINE
  5
192
330
17
100
AcDbEntity
  8
0
100
AcDbLine
 10
-124.51485722573607
 20
102.54072916546505
 30
0.0
 11
-125.86040070678139
 21
100.65604859254928
 31
0.0
  0
LINE
  5
193
330
17
100
AcDbEntity
  8
0
100
AcDbLine
 10
-125.86040070678139
 20
100.65604859254928
 30
0.0
 11
-127.19923862376945
 21
98.7788953363111
 31
0.0
  0
LINE
  5
194
330
17
100
AcDbEntity
  8
0
100
AcDbLine
 10
-127.19923862376945
 20
98.7788953363111
 30
0.0
 11
-128.53008711296255
 21
96.90841218873193
 31
0.0
  0
LINE
  5
195
330
17
100
AcDbEntity
  8
0
100
AcDbLine
 10
-128.53008711296255
 20
96.90841218873193
 30
0.0
 11
-129.85170083426453
 21
95.0437709113216
 31
0.0
  0
LINE
  5
196
330
17
100
AcDbEntity
  8
0
100
AcDbLine
 10
-129.85170083426453
 20
95.0437709113216
 30
0.0
 11
-131.16284703353463
 21
93.18415235779524
 31
0.0
  0
LINE
  5
197
330
17
100
AcDbEntity
  8
0
100
AcDbLine
 10
-131.16284703353463
 20
93.18415235779524
 30
0.0
 11
-132.46229295663207
 21
91.32873738186798
 31
0.0
  0
LINE
  5
198
330
17
100
AcDbEntity
  8
0
100
AcDbLine
 10
-132.46229295663207
 20
91.32873738186798
 30
0.0
 11
-133.7508196515618
 21
89.47346967208803
 31
0.0
  0
LINE
  5
199
330
17
100
AcDbEntity
  8
0
100
AcDbLine
 10
-133.7508196515618
 20
89.47346967208803
 30
0.0
 11
-135.0319533052043
 21
87.61216443206496
 31
0.0
  0
LINE
  5
19A
330
17
100
AcDbEntity
  8
0
100
AcDbLine
 10
-135.0319533052043
 20
87.61216443206496
 30
0.0
 11
-136.3066550097001
 21
85.74448169995718
 31
0.0
  0
LINE
  5
19B
330
17
100
AcDbEntity
  8
0
100
AcDbLine
 10
-136.3066550097001
 20
85.74448169995718
 30
0.0
 11
-137.57582763931046
 21
83.87019097894073
 31
0.0
  0
LINE
  5
19C
330
17
100
AcDbEntity
  8
0
100
AcDbLine
 10
-137.57582763931046
 20
83.87019097894073
 30
0.0
 11
-138.84037406829646
 21
81.98906177219177
 31
0.0
  0
LINE
  5
19D
330
17
100
AcDbEntity
  8
0
100
AcDbLine
 10
-138.84037406829646
 20
81.98906177219177
 30
0.0
 11
-140.10119717091933
 21
80.10086358288638
 31
0.0
  0
LINE
  5
19E
330
17
100
AcDbEntity
  8
0
100
AcDbLine
 10
-140.10119717091933
 20
80.10086358288638
 30
0.0
 11
-141.35919982144028
 21
78.20536591420058
 31
0.0
  0
LINE
  5
19F
330
17
100
AcDbEntity
  8
0
100
AcDbLine
 10
-141.35919982144028
 20
78.20536591420058
 30
0.0
 11
-142.6152848941204
 21
76.30233826931054
 31
0.0
  0
LINE
  5
1A0
330
17
100
AcDbEntity
  8
0
100
AcDbLine
 10
-142.6152848941204
 20
76.30233826931054
 30
0.0
 11
-143.87016450723056
 21
74.39187888950264
 31
0.0
  0
LINE
  5
1A1
330
17
100
AcDbEntity
  8
0
100
AcDbLine
 10
-143.87016450723056
 20
74.39187888950264
 30
0.0
 11
-145.11989015089551
 21
72.48094700744282
 31
0.0
  0
LINE
  5
1A2
330
17
100
AcDbEntity
  8
0
100
AcDbLine
 10
-145.11989015089551
 20
72.48094700744282
 30
0.0
 11
-146.3608386692753
 21
70.57307251028848
 31
0.0
  0
LINE
  5
1A3
330
17
100
AcDbEntity
  8
0
100
AcDbLine
 10
-146.3608386692753
 20
70.57307251028848
 30
0.0
 11
-147.5906921154825
 21
68.66912608464536
 31
0.0
  0
LINE
  5
1A4
330
17
100
AcDbEntity
  8
0
100
AcDbLine
 10
-147.5906921154825
 20
68.66912608464536
 30
0.0
 11
-148.80713254262992
 21
66.76997841711903
 31
0.0
  0
LINE
  5
1A5
330
17
100
AcDbEntity
  8
0
100
AcDbLine
 10
-148.80713254262992
 20
66.76997841711903
 30
0.0
 11
-150.0057779464966
 21
64.87919661106238
 31
0.0
  0
LINE
  5
1A6
330
17
100
AcDbEntity
  8
0
100
AcDbLine
 10
-150.0057779464966
 20
64.87919661106238
 30
0.0
 11
-151.18686915220178
 21
62.99377173140499
 31
0.0
  0
LINE
  5
1A7
330
17
100
AcDbEntity
  8
0
100
AcDbLine
 10
-151.18686915220178
 20
62.99377173140499
 30
0.0
 11
-152.35580658088898
 21
61.103654575155275
 31
0.0
  0
LINE
  5
1A8
330
17
100
AcDbEntity
  8
0
100
AcDbLine
 10
-152.35580658088898
 20
61.103654575155275
 30
0.0
 11
-153.5179957917877
 21
59.19878902336986
 31
0.0
  0
LINE
  5
1A9
330
17
100
AcDbEntity
  8
0
100
AcDbLine
 10
-153.5179957917877
 20
59.19878902336986
 30
0.0
 11
-154.68092764325195
 21
57.267745096445495
 31
0.0
  0
LINE
  5
1AA
330
17
100
AcDbEntity
  8
0
100
AcDbLine
 10
-154.68092764325195
 20
57.267745096445495
 30
0.0
 11
-155.8566071197586
 21
55.30199125711366
 31
0.0
  0
LINE
  5
1AB
330
17
100
AcDbEntity
  8
0
100
AcDbLine
 10
-155.8566071197586
 20
55.30199125711366
 30
0.0
 11
-157.05060035996297
 21
53.30381045025539
 31
0.0
  0
LINE
  5
1AC
330
17
100
AcDbEntity
  8
0
100
AcDbLine
 10
-157.05060035996297
 20
53.30381045025539
 30
0.0
 11
-158.2679470876576
 21
51.27606673671985
 31
0.0
  0
LINE
  5
1AD
330
17
100
AcDbEntity
  8
0
100
AcDbLine
 10
-158.2679470876576
 20
51.27606673671985
 30
0.0
 11
-159.5135725163945
 21
49.221854214416176
 31
0.0
  0
LINE
  5
1AE
330
17
100
AcDbEntity
  8
0
100
AcDbLine
 10
-159.5135725163945
 20
49.221854214416176
 30
0.0
 11
-160.79263501897557
 21
47.14493268702412
 31
0.0
  0
LINE
  5
1AF
330
17
100
AcDbEntity
  8
0
100
AcDbLine
 10
-160.79263501897557
 20
47.14493268702412
 30
0.0
 11
-162.11419132934185
 21
45.043689744195675
 31
0.0
  0
LINE
  5
1B0
330
17
100
AcDbEntity
  8
0
100
AcDbLine
 10
-162.11419132934185
 20
45.043689744195675
 30
0.0
 11
-163.49830986866115
 21
42.90440527793408
 31
0.0
  0
LINE
  5
1B1
330
17
100
AcDbEntity
  8
0
100
AcDbLine
 10
-163.49830986866115
 20
42.90440527793408
 30
0.0
 11
-164.96115879966052
 21
40.72891363000557
 31
0.0
  0
LINE
  5
1B2
330
17
100
AcDbEntity
  8
0
100
AcDbLine
 10
-164.96115879966052
 20
40.72891363000557
 30
0.0
 11
-166.5150538176567
 21
38.52700598278679
 31
0.0
  0
LINE
  5
1B3
330
17
100
AcDbEntity
  8
0
100
AcDbLine
 10
-166.5150538176567
 20
38.52700598278679
 30
0.0
 11
-168.17328212795292
 21
36.30986715912011
 31
0.0
  0
LINE
  5
1B4
330
17
100
AcDbEntity
  8
0
100
AcDbLine
 10
-168.17328212795292
 20
36.30986715912011
 30
0.0
 11
-169.94435080417102
 21
34.09700774085331
 31
0.0
  0
LINE
  5
1B5
330
17
100
AcDbEntity
  8
0
100
AcDbLine
 10
-169.94435080417102
 20
34.09700774085331
 30
0.0
 11
-171.8042485523532
 21
31.93188980934491
 31
0.0
  0
LINE
  5
1B6
330
17
100
AcDbEntity
  8
0
100
AcDbLine
 10
-171.8042485523532
 20
31.93188980934491
 30
0.0
 11
-173.72324427779262
 21
29.849480363094813
 31
0.0
  0
LINE
  5
1B7
330
17
100
AcDbEntity
  8
0
100
AcDbLine
 10
-173.72324427779262
 20
29.849480363094813
 30
0.0
 11
-175.69781222087627
 21
27.845381632965992
 31
0.0
  0
LINE
  5
1B8
330
17
100
AcDbEntity
  8
0
100
AcDbLine
 10
-175.69781222087627
 20
27.845381632965992
 30
0.0
 11
-177.72596812809647
 21
25.916192161608894
 31
0.0
  0
LINE
  5
1B9
330
17
100
AcDbEntity
  8
0
100
AcDbLine
 10
-177.72596812809647
 20
25.916192161608894
 30
0.0
 11
-179.8054748453386
 21
24.05898962530327
 31
0.0
  0
LINE
  5
1BA
330
17
100
AcDbEntity
  8
0
100
AcDbLine
 10
-179.8054748453386
 20
24.05898962530327
 30
0.0
 11
-181.93491735075887
 21
22.270565775687327
 31
0.0
  0
LINE
  5
1BB
330
17
100
AcDbEntity
  8
0
100
AcDbLine
 10
-181.93491735075887
 20
22.270565775687327
 30
0.0
 11
-184.11754560829593
 21
20.54780457205536
 31
0.0
  0
LINE
  5
1BC
330
17
100
AcDbEntity
  8
0
100
AcDbLine
 10
-15.99999999999993
 20
131.21791338995
 30
0.0
 11
-16.000467229805967
 21
131.27904946886082
 31
0.0
  0
LINE
  5
1BD
330
17
100
AcDbEntity
  8
0
100
AcDbLine
 10
-16.000467229805967
 20
131.27904946886082
 30
0.0
 11
-16.001868810072228
 21
131.3401712654725
 31
0.0
  0
LINE
  5
1BE
330
17
100
AcDbEntity
  8
0
100
AcDbLine
 10
-16.001868810072228
 20
131.3401712654725
 30
0.0
 11
-16.004204413368672
 21
131.40126450082244
 31
0.0
  0
LINE
  5
1BF
330
17
100
AcDbEntity
  8
0
100
AcDbLine
 10
-16.004204413368672
 20
131.40126450082244
 30
0.0
 11
-16.007473494063568
 21
131.4623149026204
 31
0.0
  0
LINE
  5
1C0
330
17
100
AcDbEntity
  8
0
100
AcDbLine
 10
-16.007473494063568
 20
131.4623149026204
 30
0.0
 11
-16.01167528845094
 21
131.52330820858268
 31
0.0
  0
LINE
  5
1C1
330
17
100
AcDbEntity
  8
0
100
AcDbLine
 10
-16.01167528845094
 20
131.52330820858268
 30
0.0
 11
-16.01680881492901
 21
131.584230169764
 31
0.0
  0
LINE
  5
1C2
330
17
100
AcDbEntity
  8
0
100
AcDbLine
 10
-16.01680881492901
 20
131.584230169764
 30
0.0
 11
-16.022872874229474
 21
131.64506655388635
 31
0.0
  0
LINE
  5
1C3
330
17
100
AcDbEntity
  8
0
100
AcDbLine
 10
-16.022872874229474
 20
131.64506655388635
 30
0.0
 11
-16.02986604969772
 21
131.70580314866373
 31
0.0
  0
LINE
  5
1C4
330
17
100
AcDbEntity
  8
0
100
AcDbLine
 10
-16.02986604969772
 20
131.70580314866373
 30
0.0
 11
-16.037786707623727
 21
131.76642576512245
 31
0.0
  0
LINE
  5
1C5
330
17
100
AcDbEntity
  8
0
100
AcDbLine
 10
-16.037786707623727
 20
131.76642576512245
 30
0.0
 11
-16.04663299762377
 21
131.82692024091583
 31
0.0
  0
LINE
  5
1C6
330
17
100
AcDbEntity
  8
0
100
AcDbLine
 10
-16.04663299762377
 20
131.82692024091583
 30
0.0
 11
-16.056402853072665
 21
131.8872724436328
 31
0.0
  0
LINE
  5
1C7
330
17
100
AcDbEntity
  8
0
100
AcDbLine
 10
-16.056402853072665
 20
131.8872724436328
 30
0.0
 11
-16.06709399158658
 21
131.94746827409935
 31
0.0
  0
LINE
  5
1C8
330
17
100
AcDbEntity
  8
0
100
AcDbLine
 10
-16.06709399158658
 20
131.94746827409935
 30
0.0
 11
-16.07870391555623
 21
132.00749366967239
 31
0.0
  0
LINE
  5
1C9
330
17
100
AcDbEntity
  8
0
100
AcDbLine
 10
-16.07870391555623
 20
132.00749366967239
 30
0.0
 11
-16.09122991273035
 21
132.06733460752497
 31
0.0
  0
LINE
  5
1CA
330
17
100
AcDbEntity
  8
0
100
AcDbLine
 10
-16.09122991273035
 20
132.06733460752497
 30
0.0
 11
-16.10466905684932
 21
132.1269771079222
 31
0.0
  0
LINE
  5
1CB
330
17
100
AcDbEntity
  8
0
100
AcDbLine
 10
-16.10466905684932
 20
132.1269771079222
 30
0.0
 11
-16.1190182083288
 21
132.18640723748706
 31
0.0
  0
LINE
  5
1CC
330
17
100
AcDbEntity
  8
0
100
AcDbLine
 10
-16.1190182083288
 20
132.18640723748706
 30
0.0
 11
-16.134274014993156
 21
132.2456111124557
 31
0.0
  0
LINE
  5
1CD
330
17
100
AcDbEntity
  8
0
100
AcDbLine
 10
-16.134274014993156
 20
132.2456111124557
 30
0.0
 11
-16.150432912858587
 21
132.30457490192055
 31
0.0
  0
LINE
  5
1CE
330
17
100
AcDbEntity
  8
0
100
AcDbLine
 10
-16.150432912858587
 20
132.30457490192055
 30
0.0
 11
-16.167491126965746
 21
132.3632848310617
 31
0.0
  0
LINE
  5
1CF
330
17
100
AcDbEntity
  8
0
100
AcDbLine
 10
-16.167491126965746
 20
132.3632848310617
 30
0.0
 11
-16.18544467226159
 21
132.42172718436467
 31
0.0
  0
LINE
  5
1D0
330
17
100
AcDbEntity
  8
0
100
AcDbLine
 10
-16.18544467226159
 20
132.42172718436467
 30
0.0
 11
-16.204289354530378
 21
132.47988830882483
 31
0.0
  0
LINE
  5
1D1
330
17
100
AcDbEntity
  8
0
100
AcDbLine
 10
-16.204289354530378
 20
132.47988830882483
 30
0.0
 11
-16.224020771373493
 21
132.5377546171367
 31
0.0
  0
LINE
  5
1D2
330
17
100
AcDbEntity
  8
0
100
AcDbLine
 10
-16.224020771373493
 20
132.5377546171367
 30
0.0
 11
-16.244634313237896
 21
132.59531259086828
 31
0.0
  0
LINE
  5
1D3
330
17
100
AcDbEntity
  8
0
100
AcDbLine
 10
-16.244634313237896
 20
132.59531259086828
 30
0.0
 11
-16.26612516449301
 21
132.65254878361912
 31
0.0
  0
LINE
  5
1D4
330
17
100
AcDbEntity
  8
0
100
AcDbLine
 10
-16.26612516449301
 20
132.65254878361912
 30
0.0
 11
-16.2884883045557
 21
132.70944982416162
 31
0.0
  0
LINE
  5
1D5
330
17
100
AcDbEntity
  8
0
100
AcDbLine
 10
-16.2884883045557
 20
132.70944982416162
 30
0.0
 11
-16.31171850906317
 21
132.76600241956467
 31
0.0
  0
LINE
  5
1D6
330
17
100
AcDbEntity
  8
0
100
AcDbLine
 10
-16.31171850906317
 20
132.76600241956467
 30
0.0
 11
-16.335810351093446
 21
132.82219335829922
 31
0.0
  0
LINE
  5
1D7
330
17
100
AcDbEntity
  8
0
100
AcDbLine
 10
-16.335810351093446
 20
132.82219335829922
 30
0.0
 11
-16.360758202433193
 21
132.87800951332457
 31
0.0
  0
LINE
  5
1D8
330
17
100
AcDbEntity
  8
0
100
AcDbLine
 10
-16.360758202433193
 20
132.87800951332457
 30
0.0
 11
-16.38655623489253
 21
132.93343784515503
 31
0.0
  0
LINE
  5
1D9
330
17
100
AcDbEntity
  8
0
100
AcDbLine
 10
-16.38655623489253
 20
132.93343784515503
 30
0.0
 11
-16.413198421666618
 21
132.98846540490626
 31
0.0
  0
LINE
  5
1DA
330
17
100
AcDbEntity
  8
0
100
AcDbLine
 10
-16.413198421666618
 20
132.98846540490626
 30
0.0
 11
-16.440678538743565
 21
133.04307933732025
 31
0.0
  0
LINE
  5
1DB
330
17
100
AcDbEntity
  8
0
100
AcDbLine
 10
-16.440678538743565
 20
133.04307933732025
 30
0.0
 11
-16.4689901663585
 21
133.09726688376844
 31
0.0
  0
LINE
  5
1DC
330
17
100
AcDbEntity
  8
0
100
AcDbLine
 10
-16.4689901663585
 20
133.09726688376844
 30
0.0
 11
-16.49812669049327
 21
133.15101538523243
 31
0.0
  0
LINE
  5
1DD
330
17
100
AcDbEntity
  8
0
100
AcDbLine
 10
-16.49812669049327
 20
133.15101538523243
 30
0.0
 11
-16.528081304421622
 21
133.20431228526127
 31
0.0
  0
LINE
  5
1DE
330
17
100
AcDbEntity
  8
0
100
AcDbLine
 10
-16.528081304421622
 20
133.20431228526127
 30
0.0
 11
-16.558847010299324
 21
133.25714513290484
 31
0.0
  0
LINE
  5
1DF
330
17
100
AcDbEntity
  8
0
100
AcDbLine
 10
-16.558847010299324
 20
133.25714513290484
 30
0.0
 11
-16.590416620798987
 21
133.30950158562254
 31
0.0
  0
LINE
  5
1E0
330
17
100
AcDbEntity
  8
0
100
AcDbLine
 10
-16.590416620798987
 20
133.30950158562254
 30
0.0
 11
-16.62278276078911
 21
133.36136941216677
 31
0.0
  0
LINE
  5
1E1
330
17
100
AcDbEntity
  8
0
100
AcDbLine
 10
-16.62278276078911
 20
133.36136941216677
 30
0.0
 11
-16.65593786905704
 21
133.4127364954402
 31
0.0
  0
LINE
  5
1E2
330
17
100
AcDbEntity
  8
0
100
AcDbLine
 10
-16.65593786905704
 20
133.4127364954402
 30
0.0
 11
-16.68987420007538
 21
133.46359083532676
 31
0.0
  0
LINE
  5
1E3
330
17
100
AcDbEntity
  8
0
100
AcDbLine
 10
-16.68987420007538
 20
133.46359083532676
 30
0.0
 11
-16.72458382581144
 21
133.5139205514947
 31
0.0
  0
LINE
  5
1E4
330
17
100
AcDbEntity
  8
0
100
AcDbLine
 10
-16.72458382581144
 20
133.5139205514947
 30
0.0
 11
-16.760058637579377
 21
133.56371388617225
 31
0.0
  0
LINE
  5
1E5
330
17
100
AcDbEntity
  8
0
100
AcDbLine
 10
-16.760058637579377
 20
133.56371388617225
 30
0.0
 11
-16.79629034793448
 21
133.61295920689437
 31
0.0
  0
LINE
  5
1E6
330
17
100
AcDbEntity
  8
0
100
AcDbLine
 10
-16.79629034793448
 20
133.61295920689437
 30
0.0
 11
-16.833270492609245
 21
133.66164500922025
 31
0.0
  0
LINE
  5
1E7
330
17
100
AcDbEntity
  8
0
100
AcDbLine
 10
-16.833270492609245
 20
133.66164500922025
 30
0.0
 11
-16.870990432490764
 21
133.7097599194209
 31
0.0
  0
LINE
  5
1E8
330
17
100
AcDbEntity
  8
0
100
AcDbLine
 10
-16.870990432490764
 20
133.7097599194209
 30
0.0
 11
-16.909441355638936
 21
133.75729269713622
 31
0.0
  0
LINE
  5
1E9
330
17
100
AcDbEntity
  8
0
100
AcDbLine
 10
-16.909441355638936
 20
133.75729269713622
 30
0.0
 11
-16.94861427934508
 21
133.80423223800096
 31
0.0
  0
LINE
  5
1EA
330
17
100
AcDbEntity
  8
0
100
AcDbLine
 10
-16.94861427934508
 20
133.80423223800096
 30
0.0
 11
-16.988500052230425
 21
133.85056757623886
 31
0.0
  0
LINE
  5
1EB
330
17
100
AcDbEntity
  8
0
100
AcDbLine
 10
-16.988500052230425
 20
133.85056757623886
 30
0.0
 11
-17.029089356384006
 21
133.89628788722436
 31
0.0
  0
LINE
  5
1EC
330
17
100
AcDbEntity
  8
0
100
AcDbLine
 10
-17.029089356384006
 20
133.89628788722436
 30
0.0
 11
-17.07037270953947
 21
133.94138249001142
 31
0.0
  0
LINE
  5
1ED
330
17
100
AcDbEntity
  8
0
100
AcDbLine
 10
-17.07037270953947
 20
133.94138249001142
 30
0.0
 11
-17.11234046729027
 21
133.9858408498288
 31
0.0
  0
LINE
  5
1EE
330
17
100
AcDbEntity
  8
0
100
AcDbLine
 10
-17.11234046729027
 20
133.9858408498288
 30
0.0
 11
-17.154982825342753
 21
134.02965258054107
 31
0.0
  0
LINE
  5
1EF
330
17
100
AcDbEntity
  8
0
100
AcDbLine
 10
-17.154982825342753
 20
134.02965258054107
 30
0.0
 11
-17.19828982180658
 21
134.07280744707504
 31
0.0
  0
LINE
  5
1F0
330
17
100
AcDbEntity
  8
0
100
AcDbLine
 10
-17.19828982180658
 20
134.07280744707504
 30
0.0
 11
-17.242251339521964
 21
134.11529536781072
 31
0.0
  0
LINE
  5
1F1
330
17
100
AcDbEntity
  8
0
100
AcDbLine
 10
-17.242251339521964
 20
134.11529536781072
 30
0.0
 11
-17.286857108423213
 21
134.1571064169366
 31
0.0
  0
LINE
  5
1F2
330
17
100
AcDbEntity
  8
0
100
AcDbLine
 10
-17.286857108423213
 20
134.1571064169366
 30
0.0
 11
-17.332096707937954
 21
134.1982308267686
 31
0.0
  0
LINE
  5
1F3
330
17
100
AcDbEntity
  8
0
100
AcDbLine
 10
-17.332096707937954
 20
134.1982308267686
 30
0.0
 11
-17.377959569421527
 21
134.23865899003158
 31
0.0
  0
LINE
  5
1F4
330
17
100
AcDbEntity
  8
0
100
AcDbLine
 10
-17.377959569421527
 20
134.23865899003158
 30
0.0
 11
-17.424434978626
 21
134.2783814621042
 31
0.0
  0
LINE
  5
1F5
330
17
100
AcDbEntity
  8
0
100
AcDbLine
 10
-17.424434978626
 20
134.2783814621042
 30
0.0
 11
-17.471512078203155
 21
134.31738896322491
 31
0.0
  0
LINE
  5
1F6
330
17
100
AcDbEntity
  8
0
100
AcDbLine
 10
-17.471512078203155
 20
134.31738896322491
 30
0.0
 11
-17.519179870240944
 21
134.3556723806602
 31
0.0
  0
LINE
  5
1F7
330
17
100
AcDbEntity
  8
0
100
AcDbLine
 10
-17.519179870240944
 20
134.3556723806602
 30
0.0
 11
-17.56742721883275
 21
134.39322277083318
 31
0.0
  0
LINE
  5
1F8
330
17
100
AcDbEntity
  8
0
100
AcDbLine
 10
-17.56742721883275
 20
134.39322277083318
 30
0.0
 11
-17.616242852678912
 21
134.43003136141306
 31
0.0
  0
LINE
  5
1F9
330
17
100
AcDbEntity
  8
0
100
AcDbLine
 10
-17.616242852678912
 20
134.43003136141306
 30
0.0
 11
-17.66561536771986
 21
134.46608955336458
 31
0.0
  0
LINE
  5
1FA
330
17
100
AcDbEntity
  8
0
100
AcDbLine
 10
-17.66561536771986
 20
134.46608955336458
 30
0.0
 11
-17.715533229800286
 21
134.50138892295672
 31
0.0
  0
LINE
  5
1FB
330
17
100
AcDbEntity
  8
0
100
AcDbLine
 10
-17.715533229800286
 20
134.50138892295672
 30
0.0
 11
-17.76598477736368
 21
134.5359212237306
 31
0.0
  0
LINE
  5
1FC
330
17
100
AcDbEntity
  8
0
100
AcDbLine
 10
-17.76598477736368
 20
134.5359212237306
 30
0.0
 11
-17.81695822417665
 21
134.56967838842624
 31
0.0
  0
LINE
  5
1FD
330
17
100
AcDbEntity
  8
0
100
AcDbLine
 10
-17.81695822417665
 20
134.56967838842624
 30
0.0
 11
-17.868441662082358
 21
134.6026525308668
 31
0.0
  0
LINE
  5
1FE
330
17
100
AcDbEntity
  8
0
100
AcDbLine
 10
-17.868441662082358
 20
134.6026525308668
 30
0.0
 11
-17.920423063782458
 21
134.6348359478012
 31
0.0
  0
LINE
  5
1FF
330
17
100
AcDbEntity
  8
0
100
AcDbLine
 10
-17.920423063782458
 20
134.6348359478012
 30
0.0
 11
-17.97289028564683
 21
134.66622112070365
 31
0.0
  0
LINE
  5
200
330
17
100
AcDbEntity
  8
0
100
AcDbLine
 10
-17.97289028564683
 20
134.66622112070365
 30
0.0
 11
-18.025831070550527
 21
134.69680071752998
 31
0.0
  0
LINE
  5
201
330
17
100
AcDbEntity
  8
0
100
AcDbLine
 10
-18.025831070550527
 20
134.69680071752998
 30
0.0
 11
-18.07923305073722
 21
134.7265675944307
 31
0.0
  0
LINE
  5
202
330
17
100
AcDbEntity
  8
0
100
AcDbLine
 10
-18.07923305073722
 20
134.7265675944307
 30
0.0
 11
-18.13308375070848
 21
134.7555147974197
 31
0.0
  0
LINE
  5
203
330
17
100
AcDbEntity
  8
0
100
AcDbLine
 10
-18.13308375070848
 20
134.7555147974197
 30
0.0
 11
-18.18737059013826
 21
134.78363556399898
 31
0.0
  0
LINE
  5
204
330
17
100
AcDbEntity
  8
0
100
AcDbLine
 10
-18.18737059013826
 20
134.78363556399898
 30
0.0
 11
-18.242080886811834
 21
134.81092332473838
 31
0.0
  0
LINE
  5
205
330
17
100
AcDbEntity
  8
0
100
AcDbLine
 10
-18.242080886811834
 20
134.81092332473838
 30
0.0
 11
-18.29720185958855
 21
134.83737170481035
 31
0.0
  0
LINE
  5
206
330
17
100
AcDbEntity
  8
0
100
AcDbLine
 10
-18.29720185958855
 20
134.83737170481035
 30
0.0
 11
-18.352720631387694
 21
134.86297452547907
 31
0.0
  0
LINE
  5
207
330
17
100
AcDbEntity
  8
0
100
AcDbLine
 10
-18.352720631387694
 20
134.86297452547907
 30
0.0
 11
-18.40862423219678
 21
134.88772580554416
 31
0.0
  0
LINE
  5
208
330
17
100
AcDbEntity
  8
0
100
AcDbLine
 10
-18.40862423219678
 20
134.88772580554416
 30
0.0
 11
-18.46489960210153
 21
134.91161976273767
 31
0.0
  0
LINE
  5
209
330
17
100
AcDbEntity
  8
0
100
AcDbLine
 10
-18.46489960210153
 20
134.91161976273767
 30
0.0
 11
-18.521533594336848
 21
134.93465081507512
 31
0.0
  0
LINE
  5
20A
330
17
100
AcDbEntity
  8
0
100
AcDbLine
 10
-18.521533594336848
 20
134.93465081507512
 30
0.0
 11
-18.578512978358145
 21
134.95681358215947
 31
0.0
  0
LINE
  5
20B
330
17
100
AcDbEntity
  8
0
100
AcDbLine
 10
-18.578512978358145
 20
134.95681358215947
 30
0.0
 11
-18.635824442932144
 21
134.97810288643802
 31
0.0
  0
LINE
  5
20C
330
17
100
AcDbEntity
  8
0
100
AcDbLine
 10
-18.635824442932144
 20
134.97810288643802
 30
0.0
 11
-18.693454599246607
 21
134.99851375441202
 31
0.0
  0
LINE
  5
20D
330
17
100
AcDbEntity
  8
0
100
AcDbLine
 10
-18.693454599246607
 20
134.99851375441202
 30
0.0
 11
-18.751389984038155
 21
135.01804141779854
 31
0.0
  0
LINE
  5
20E
330
17
100
AcDbEntity
  8
0
100
AcDbLine
 10
-18.751389984038155
 20
135.01804141779854
 30
0.0
 11
-18.809617062737484
 21
135.03668131464437
 31
0.0
  0
LINE
  5
20F
330
17
100
AcDbEntity
  8
0
100
AcDbLine
 10
-18.809617062737484
 20
135.03668131464437
 30
0.0
 11
-18.86812223263126
 21
135.05442909039184
 31
0.0
  0
LINE
  5
210
330
17
100
AcDbEntity
  8
0
100
AcDbLine
 10
-18.86812223263126
 20
135.05442909039184
 30
0.0
 11
-18.92689182603989
 21
135.07128059889598
 31
0.0
  0
LINE
  5
211
330
17
100
AcDbEntity
  8
0
100
AcDbLine
 10
-18.92689182603989
 20
135.07128059889598
 30
0.0
 11
-18.9859121135105
 21
135.08723190339336
 31
0.0
  0
LINE
  5
212
330
17
100
AcDbEntity
  8
0
100
AcDbLine
 10
-18.9859121135105
 20
135.08723190339336
 30
0.0
 11
-19.045169307024366
 21
135.10227927742145
 31
0.0
  0
LINE
  5
213
330
17
100
AcDbEntity
  8
0
100
AcDbLine
 10
-19.045169307024366
 20
135.10227927742145
 30
0.0
 11
-19.104649563217972
 21
135.11641920568948
 31
0.0
  0
LINE
  5
214
330
17
100
AcDbEntity
  8
0
100
AcDbLine
 10
-19.104649563217972
 20
135.11641920568948
 30
0.0
 11
-19.164338986617032
 21
135.1296483848994
 31
0.0
  0
LINE
  5
215
330
17
100
AcDbEntity
  8
0
100
AcDbLine
 10
-19.164338986617032
 20
135.1296483848994
 30
0.0
 11
-19.22422363288269
 21
135.1419637245179
 31
0.0
  0
LINE
  5
216
330
17
100
AcDbEntity
  8
0
100
AcDbLine
 10
-19.22422363288269
 20
135.1419637245179
 30
0.0
 11
-19.284289512069115
 21
135.15336234749805
 31
0.0
  0
LINE
  5
217
330
17
100
AcDbEntity
  8
0
100
AcDbLine
 10
-19.284289512069115
 20
135.15336234749805
 30
0.0
 11
-19.344522591891764
 21
135.16384159095162
 31
0.0
  0
LINE
  5
218
330
17
100
AcDbEntity
  8
0
100
AcDbLine
 10
-19.344522591891764
 20
135.16384159095162
 30
0.0
 11
-19.404908801005543
 21
135.1733990067712
 31
0.0
  0
LINE
  5
219
330
17
100
AcDbEntity
  8
0
100
AcDbLine
 10
-19.404908801005543
 20
135.1733990067712
 30
0.0
 11
-19.46543403229206
 21
135.18203236220205
 31
0.0
  0
LINE
  5
21A
330
17
100
AcDbEntity
  8
0
100
AcDbLine
 10
-19.46543403229206
 20
135.18203236220205
 30
0.0
 11
-19.526084146155277
 21
135.18973964036363
 31
0.0
  0
LINE
  5
21B
330
17
100
AcDbEntity
  8
0
100
AcDbLine
 10
-19.526084146155277
 20
135.18973964036363
 30
0.0
 11
-19.586844973824732
 21
135.19651904072091
 31
0.0
  0
LINE
  5
21C
330
17
100
AcDbEntity
  8
0
100
AcDbLine
 10
-19.586844973824732
 20
135.19651904072091
 30
0.0
 11
-19.647702320665555
 21
135.20236897950497
 31
0.0
  0
LINE
  5
21D
330
17
100
AcDbEntity
  8
0
100
AcDbLine
 10
-19.647702320665555
 20
135.20236897950497
 30
0.0
 11
-19.708641969494575
 21
135.20728809008287
 31
0.0
  0
LINE
  5
21E
330
17
100
AcDbEntity
  8
0
100
AcDbLine
 10
-19.708641969494575
 20
135.20728809008287
 30
0.0
 11
-19.76964968390163
 21
135.21127522327708
 31
0.0
  0
LINE
  5
21F
330
17
100
AcDbEntity
  8
0
100
AcDbLine
 10
-15.99999999999993
 20
131.21791338995
 30
0.0
 11
-15.99999999999993
 21
3.0000000000001705
 31
0.0
  0
LINE
  5
220
330
17
100
AcDbEntity
  8
0
100
AcDbLine
 10
-5.999999999999991
 20
3.00000000000017
 30
0.0
 11
-15.99999999999993
 21
3.00000000000017
 31
0.0
  0
LINE
  5
221
330
17
100
AcDbEntity
  8
0
100
AcDbLine
 10
-5.999999999999931
 20
149.143655143334
 30
0.0
 11
-5.999999999999931
 21
3.00000000000017
 31
0.0
  0
LINE
  5
222
330
17
100
AcDbEntity
  8
0
100
AcDbLine
 10
-5.999999999999961
 20
149.238497796372
 30
0.0
 11
-5.999999999999961
 21
149.143655143334
 31
0.0
  0
LINE
  5
223
330
17
100
AcDbEntity
  8
0
100
AcDbLine
 10
-5.999999999999929
 20
149.23849779637234
 30
0.0
 11
-9.206570481099684
 21
149.5123692408505
 31
0.0
  0
LINE
  5
224
330
17
100
AcDbEntity
  8
0
100
AcDbLine
 10
-9.206570481099684
 20
149.5123692408505
 30
0.0
 11
-12.415106282002005
 21
149.76085319943553
 31
0.0
  0
LINE
  5
225
330
17
100
AcDbEntity
  8
0
100
AcDbLine
 10
-12.415106282002005
 20
149.76085319943553
 30
0.0
 11
-15.62543015409324
 21
149.98414190176794
 31
0.0
  0
LINE
  5
226
330
17
100
AcDbEntity
  8
0
100
AcDbLine
 10
-15.62543015409324
 20
149.98414190176794
 30
0.0
 11
-18.837364848759723
 21
150.18242757748826
 31
0.0
  0
LINE
  5
227
330
17
100
AcDbEntity
  8
0
100
AcDbLine
 10
-18.837364848759723
 20
150.18242757748826
 30
0.0
 11
-22.050733117387793
 21
150.35590245623698
 31
0.0
  0
LINE
  5
228
330
17
100
AcDbEntity
  8
0
100
AcDbLine
 10
-22.050733117387793
 20
150.35590245623698
 30
0.0
 11
-25.265357711363805
 21
150.50475876765458
 31
0.0
  0
LINE
  5
229
330
17
100
AcDbEntity
  8
0
100
AcDbLine
 10
-25.265357711363805
 20
150.50475876765458
 30
0.0
 11
-28.481061382074085
 21
150.6291887413816
 31
0.0
  0
LINE
  5
22A
330
17
100
AcDbEntity
  8
0
100
AcDbLine
 10
-28.481061382074085
 20
150.6291887413816
 30
0.0
 11
-31.697666880904986
 21
150.72938460705853
 31
0.0
  0
LINE
  5
22B
330
17
100
AcDbEntity
  8
0
100
AcDbLine
 10
-31.697666880904986
 20
150.72938460705853
 30
0.0
 11
-34.914996959242835
 21
150.80553859432587
 31
0.0
  0
LINE
  5
22C
330
17
100
AcDbEntity
  8
0
100
AcDbLine
 10
-34.914996959242835
 20
150.80553859432587
 30
0.0
 11
-38.132872977933296
 21
150.85781761749809
 31
0.0
  0
LINE
  5
22D
330
17
100
AcDbEntity
  8
0
100
AcDbLine
 10
-38.132872977933296
 20
150.85781761749809
 30
0.0
 11
-41.35108640995701
 21
150.88584447085466
 31
0.0
  0
LINE
  5
22E
330
17
100
AcDbEntity
  8
0
100
AcDbLine
 10
-41.35108640995701
 20
150.88584447085466
 30
0.0
 11
-44.56939995974832
 21
150.88871820626574
 31
0.0
  0
LINE
  5
22F
330
17
100
AcDbEntity
  8
0
100
AcDbLine
 10
-44.56939995974832
 20
150.88871820626574
 30
0.0
 11
-47.78757516516681
 21
150.86551663766204
 31
0.0
  0
LINE
  5
230
330
17
100
AcDbEntity
  8
0
100
AcDbLine
 10
-47.78757516516681
 20
150.86551663766204
 30
0.0
 11
-51.00537356407211
 21
150.8153175789743
 31
0.0
  0
LINE
  5
231
330
17
100
AcDbEntity
  8
0
100
AcDbLine
 10
-51.00537356407211
 20
150.8153175789743
 30
0.0
 11
-54.22255673258869
 21
150.7371997238558
 31
0.0
  0
LINE
  5
232
330
17
100
AcDbEntity
  8
0
100
AcDbLine
 10
-54.22255673258869
 20
150.7371997238558
 30
0.0
 11
-57.43893321349432
 21
150.63132154641974
 31
0.0
  0
LINE
  5
233
330
17
100
AcDbEntity
  8
0
100
AcDbLine
 10
-57.43893321349432
 20
150.63132154641974
 30
0.0
 11
-60.65444992729316
 21
150.50102287509137
 31
0.0
  0
LINE
  5
234
330
17
100
AcDbEntity
  8
0
100
AcDbLine
 10
-60.65444992729316
 20
150.50102287509137
 30
0.0
 11
-63.869079153136155
 21
150.35022654281886
 31
0.0
  0
LINE
  5
235
330
17
100
AcDbEntity
  8
0
100
AcDbLine
 10
-63.869079153136155
 20
150.35022654281886
 30
0.0
 11
-67.08279317017427
 21
150.18285538255046
 31
0.0
  0
LINE
  5
236
330
17
100
AcDbEntity
  8
0
100
AcDbLine
 10
-67.08279317017427
 20
150.18285538255046
 30
0.0
 11
-70.29556367720075
 21
150.00281837971642
 31
0.0
  0
LINE
  5
237
330
17
100
AcDbEntity
  8
0
100
AcDbLine
 10
-70.29556367720075
 20
150.00281837971642
 30
0.0
 11
-73.50713847764906
 21
149.80868230588058
 31
0.0
  0
LINE
  5
238
330
17
100
AcDbEntity
  8
0
100
AcDbLine
 10
-73.50713847764906
 20
149.80868230588058
 30
0.0
 11
-76.71670378723834
 21
149.5856142727044
 31
0.0
  0
LINE
  5
239
330
17
100
AcDbEntity
  8
0
100
AcDbLine
 10
-76.71670378723834
 20
149.5856142727044
 30
0.0
 11
-79.92335918368455
 21
149.31671418177967
 31
0.0
  0
LINE
  5
23A
330
17
100
AcDbEntity
  8
0
100
AcDbLine
 10
-79.92335918368455
 20
149.31671418177967
 30
0.0
 11
-83.12620424470354
 21
148.98508193469823
 31
0.0
  0
LINE
  5
23B
330
17
100
AcDbEntity
  8
0
100
AcDbLine
 10
-83.12620424470354
 20
148.98508193469823
 30
0.0
 11
-86.32371572385033
 21
148.5733273524051
 31
0.0
  0
LINE
  5
23C
330
17
100
AcDbEntity
  8
0
100
AcDbLine
 10
-86.32371572385033
 20
148.5733273524051
 30
0.0
 11
-89.50724151638497
 21
148.058450782573
 31
0.0
  0
LINE
  5
23D
330
17
100
AcDbEntity
  8
0
100
AcDbLine
 10
-89.50724151638497
 20
148.058450782573
 30
0.0
 11
-92.6635826382258
 21
147.4138747772328
 31
0.0
  0
LINE
  5
23E
330
17
100
AcDbEntity
  8
0
100
AcDbLine
 10
-92.6635826382258
 20
147.4138747772328
 30
0.0
 11
-95.77946664307547
 21
146.61296408331955
 31
0.0
  0
LINE
  5
23F
330
17
100
AcDbEntity
  8
0
100
AcDbLine
 10
-95.77946664307547
 20
146.61296408331955
 30
0.0
 11
-98.84195967433914
 21
145.63093247879615
 31
0.0
  0
LINE
  5
240
330
17
100
AcDbEntity
  8
0
100
AcDbLine
 10
-98.84195967433914
 20
145.63093247879615
 30
0.0
 11
-101.84227346587862
 21
144.46563272126372
 31
0.0
  0
LINE
  5
241
330
17
100
AcDbEntity
  8
0
100
AcDbLine
 10
-101.84227346587862
 20
144.46563272126372
 30
0.0
 11
-104.77439727974073
 21
143.13008558954556
 31
0.0
  0
LINE
  5
242
330
17
100
AcDbEntity
  8
0
100
AcDbLine
 10
-104.77439727974073
 20
143.13008558954556
 30
0.0
 11
-107.6323715233654
 21
141.6375911663484
 31
0.0
  0
LINE
  5
243
330
17
100
AcDbEntity
  8
0
100
AcDbLine
 10
-107.6323715233654
 20
141.6375911663484
 30
0.0
 11
-110.40949457631994
 21
140.0001343391765
 31
0.0
  0
LINE
  5
244
330
17
100
AcDbEntity
  8
0
100
AcDbLine
 10
-110.40949457631994
 20
140.0001343391765
 30
0.0
 11
-113.09376450878027
 21
138.22030554858688
 31
0.0
  0
LINE
  5
245
330
17
100
AcDbEntity
  8
0
100
AcDbLine
 10
-113.09376450878027
 20
138.22030554858688
 30
0.0
 11
-115.6708738170419
 21
136.29660875830965
 31
0.0
  0
LINE
  5
246
330
17
100
AcDbEntity
  8
0
100
AcDbLine
 10
-115.6708738170419
 20
136.29660875830965
 30
0.0
 11
-118.12650554142492
 21
134.22753117198567
 31
0.0
  0
LINE
  5
247
330
17
100
AcDbEntity
  8
0
100
AcDbLine
 10
-118.12650554142492
 20
134.22753117198567
 30
0.0
 11
-120.45157625456125
 21
132.0161017795067
 31
0.0
  0
LINE
  5
248
330
17
100
AcDbEntity
  8
0
100
AcDbLine
 10
-120.45157625456125
 20
132.0161017795067
 30
0.0
 11
-122.6591034953255
 21
129.68452932520864
 31
0.0
  0
LINE
  5
249
330
17
100
AcDbEntity
  8
0
100
AcDbLine
 10
-122.6591034953255
 20
129.68452932520864
 30
0.0
 11
-124.76793783098438
 21
127.2600845969144
 31
0.0
  0
LINE
  5
24A
330
17
100
AcDbEntity
  8
0
100
AcDbLine
 10
-124.76793783098438
 20
127.2600845969144
 30
0.0
 11
-126.79690111033567
 21
124.76992452075949
 31
0.0
  0
LINE
  5
24B
330
17
100
AcDbEntity
  8
0
100
AcDbLine
 10
-126.79690111033567
 20
124.76992452075949
 30
0.0
 11
-128.76319555943894
 21
122.2347903124329
 31
0.0
  0
LINE
  5
24C
330
17
100
AcDbEntity
  8
0
100
AcDbLine
 10
-128.76319555943894
 20
122.2347903124329
 30
0.0
 11
-130.68157181261083
 21
119.66571185029531
 31
0.0
  0
LINE
  5
24D
330
17
100
AcDbEntity
  8
0
100
AcDbLine
 10
-130.68157181261083
 20
119.66571185029531
 30
0.0
 11
-132.56657634292802
 21
117.07291028153219
 31
0.0
  0
LINE
  5
24E
330
17
100
AcDbEntity
  8
0
100
AcDbLine
 10
-132.56657634292802
 20
117.07291028153219
 30
0.0
 11
-134.4327556234671
 21
114.46660675332903
 31
0.0
  0
LINE
  5
24F
330
17
100
AcDbEntity
  8
0
100
AcDbLine
 10
-134.4327556234671
 20
114.46660675332903
 30
0.0
 11
-136.29432023516833
 21
111.85678859111358
 31
0.0
  0
LINE
  5
250
330
17
100
AcDbEntity
  8
0
100
AcDbLine
 10
-136.29432023516833
 20
111.85678859111358
 30
0.0
 11
-138.1570716017563
 21
109.24758932468296
 31
0.0
  0
LINE
  5
251
330
17
100
AcDbEntity
  8
0
100
AcDbLine
 10
-138.1570716017563
 20
109.24758932468296
 30
0.0
 11
-140.01800368731665
 21
106.63701142129956
 31
0.0
  0
LINE
  5
252
330
17
100
AcDbEntity
  8
0
100
AcDbLine
 10
-140.01800368731665
 20
106.63701142129956
 30
0.0
 11
-141.87369484982918
 21
104.02276803585539
 31
0.0
  0
LINE
  5
253
330
17
100
AcDbEntity
  8
0
100
AcDbLine
 10
-141.87369484982918
 20
104.02276803585539
 30
0.0
 11
-143.72072344727366
 21
101.4025723232425
 31
0.0
  0
LINE
  5
254
330
17
100
AcDbEntity
  8
0
100
AcDbLine
 10
-143.72072344727366
 20
101.4025723232425
 30
0.0
 11
-145.5556678376298
 21
98.77413743835287
 31
0.0
  0
LINE
  5
255
330
17
100
AcDbEntity
  8
0
100
AcDbLine
 10
-145.5556678376298
 20
98.77413743835287
 30
0.0
 11
-147.37563005902982
 21
96.13552777768508
 31
0.0
  0
LINE
  5
256
330
17
100
AcDbEntity
  8
0
100
AcDbLine
 10
-147.37563005902982
 20
96.13552777768508
 30
0.0
 11
-149.1809080770327
 21
93.48695130319153
 31
0.0
  0
LINE
  5
257
330
17
100
AcDbEntity
  8
0
100
AcDbLine
 10
-149.1809080770327
 20
93.48695130319153
 30
0.0
 11
-150.9730052799396
 21
90.82942447533004
 31
0.0
  0
LINE
  5
258
330
17
100
AcDbEntity
  8
0
100
AcDbLine
 10
-150.9730052799396
 20
90.82942447533004
 30
0.0
 11
-152.75342727399857
 21
88.16396524217483
 31
0.0
  0
LINE
  5
259
330
17
100
AcDbEntity
  8
0
100
AcDbLine
 10
-152.75342727399857
 20
88.16396524217483
 30
0.0
 11
-154.52367966545773
 21
85.49159155180013
 31
0.0
  0
LINE
  5
25A
330
17
100
AcDbEntity
  8
0
100
AcDbLine
 10
-154.52367966545773
 20
85.49159155180013
 30
0.0
 11
-156.28526806056513
 21
82.81332135228027
 31
0.0
  0
LINE
  5
25B
330
17
100
AcDbEntity
  8
0
100
AcDbLine
 10
-156.28526806056513
 20
82.81332135228027
 30
0.0
 11
-158.03924485379574
 21
80.1299068703529
 31
0.0
  0
LINE
  5
25C
330
17
100
AcDbEntity
  8
0
100
AcDbLine
 10
-158.03924485379574
 20
80.1299068703529
 30
0.0
 11
-159.78333276036815
 21
77.44014811775479
 31
0.0
  0
LINE
  5
25D
330
17
100
AcDbEntity
  8
0
100
AcDbLine
 10
-159.78333276036815
 20
77.44014811775479
 30
0.0
 11
-161.51376985127354
 21
74.74197464858715
 31
0.0
  0
LINE
  5
25E
330
17
100
AcDbEntity
  8
0
100
AcDbLine
 10
-161.51376985127354
 20
74.74197464858715
 30
0.0
 11
-163.22678735848942
 21
72.03331200718807
 31
0.0
  0
LINE
  5
25F
330
17
100
AcDbEntity
  8
0
100
AcDbLine
 10
-163.22678735848942
 20
72.03331200718807
 30
0.0
 11
-164.91861651399321
 21
69.31208573789579
 31
0.0
  0
LINE
  5
260
330
17
100
AcDbEntity
  8
0
100
AcDbLine
 10
-164.91861651399321
 20
69.31208573789579
 30
0.0
 11
-166.58606311745734
 21
66.57654367650376
 31
0.0
  0
LINE
  5
261
330
17
100
AcDbEntity
  8
0
100
AcDbLine
 10
-166.58606311745734
 20
66.57654367650376
 30
0.0
 11
-168.2349490005328
 21
63.82999100904207
 31
0.0
  0
LINE
  5
262
330
17
100
AcDbEntity
  8
0
100
AcDbLine
 10
-168.2349490005328
 20
63.82999100904207
 30
0.0
 11
-169.87825718350894
 21
61.07974983709085
 31
0.0
  0
LINE
  5
263
330
17
100
AcDbEntity
  8
0
100
AcDbLine
 10
-169.87825718350894
 20
61.07974983709085
 30
0.0
 11
-171.5291681054532
 21
58.33325300007001
 31
0.0
  0
LINE
  5
264
330
17
100
AcDbEntity
  8
0
100
AcDbLine
 10
-171.5291681054532
 20
58.33325300007001
 30
0.0
 11
-173.20086220543322
 21
55.597933337399475
 31
0.0
  0
LINE
  5
265
330
17
100
AcDbEntity
  8
0
100
AcDbLine
 10
-173.20086220543322
 20
55.597933337399475
 30
0.0
 11
-174.90658837462976
 21
52.881316276093195
 31
0.0
  0
LINE
  5
266
330
17
100
AcDbEntity
  8
0
100
AcDbLine
 10
-174.90658837462976
 20
52.881316276093195
 30
0.0
 11
-176.6632484476666
 21
50.19586817527821
 31
0.0
  0
LINE
  5
267
330
17
100
AcDbEntity
  8
0
100
AcDbLine
 10
-176.6632484476666
 20
50.19586817527821
 30
0.0
 11
-178.49315954835657
 21
47.56138005614441
 31
0.0
  0
LINE
  5
268
330
17
100
AcDbEntity
  8
0
100
AcDbLine
 10
-178.49315954835657
 20
47.56138005614441
 30
0.0
 11
-180.41907693763713
 21
44.9982355594565
 31
0.0
  0
LINE
  5
269
330
17
100
AcDbEntity
  8
0
100
AcDbLine
 10
-180.41907693763713
 20
44.9982355594565
 30
0.0
 11
-182.46224014329292
 21
42.525936750749196
 31
0.0
  0
LINE
  5
26A
330
17
100
AcDbEntity
  8
0
100
AcDbLine
 10
-182.46224014329292
 20
42.525936750749196
 30
0.0
 11
-184.62504720487783
 21
40.15302717737357
 31
0.0
  0
LINE
  5
26B
330
17
100
AcDbEntity
  8
0
100
AcDbLine
 10
-184.62504720487783
 20
40.15302717737357
 30
0.0
 11
-186.89713424101052
 21
37.88062784442109
 31
0.0
  0
LINE
  5
26C
330
17
100
AcDbEntity
  8
0
100
AcDbLine
 10
-186.89713424101052
 20
37.88062784442109
 30
0.0
 11
-189.2678957038337
 21
35.70971919980207
 31
0.0
  0
LINE
  5
26D
330
17
100
AcDbEntity
  8
0
100
AcDbLine
 10
-189.2678957038337
 20
35.70971919980207
 30
0.0
 11
-191.72794200259864
 21
33.64163401801831
 31
0.0
  0
LINE
  5
26E
330
17
100
AcDbEntity
  8
0
100
AcDbLine
 10
-191.72794200259864
 20
33.64163401801831
 30
0.0
 11
-194.27278344557473
 21
31.67912483147813
 31
0.0
  0
LINE
  5
26F
330
17
100
AcDbEntity
  8
0
100
AcDbLine
 10
-194.27278344557473
 20
31.67912483147813
 30
0.0
 11
-196.8991644002065
 21
29.825301744299818
 31
0.0
  0
LINE
  5
270
330
17
100
AcDbEntity
  8
0
100
AcDbLine
 10
-196.8991644002065
 20
29.825301744299818
 30
0.0
 11
-199.60382787861704
 21
28.083284384068826
 31
0.0
  0
LINE
  5
271
330
17
100
AcDbEntity
  8
0
100
AcDbLine
 10
-199.60382787861704
 20
28.083284384068826
 30
0.0
 11
-202.38322643059684
 21
26.458233347900922
 31
0.0
  0
LINE
  5
272
330
17
100
AcDbEntity
  8
0
100
AcDbLine
 10
-202.38322643059684
 20
26.458233347900922
 30
0.0
 11
-205.2331630020486
 21
24.959873755028074
 31
0.0
  0
LINE
  5
273
330
17
100
AcDbEntity
  8
0
100
AcDbLine
 10
-205.2331630020486
 20
24.959873755028074
 30
0.0
 11
-208.14935240341185
 21
23.598550019423968
 31
0.0
  0
LINE
  5
274
330
17
100
AcDbEntity
  8
0
100
AcDbLine
 10
-208.14935240341185
 20
23.598550019423968
 30
0.0
 11
-211.12748739698287
 21
22.384519498514067
 31
0.0
  0
LINE
  5
275
330
17
100
AcDbEntity
  8
0
100
AcDbLine
 10
-211.12748739698287
 20
22.384519498514067
 30
0.0
 11
-214.1594290921327
 21
21.31291036275887
 31
0.0
  0
LINE
  5
276
330
17
100
AcDbEntity
  8
0
100
AcDbLine
 10
-214.1594290921327
 20
21.31291036275887
 30
0.0
 11
-217.22887047783988
 21
20.346599160935966
 31
0.0
  0
LINE
  5
277
330
17
100
AcDbEntity
  8
0
100
AcDbLine
 10
-217.22887047783988
 20
20.346599160935966
 30
0.0
 11
-220.31857238300105
 21
19.44452840283577
 31
0.0
  0
LINE
  5
278
330
17
100
AcDbEntity
  8
0
100
AcDbLine
 10
-220.31857238300105
 20
19.44452840283577
 30
0.0
 11
-223.41620219043475
 21
18.57432524632357
 31
0.0
  0
LINE
  5
279
330
17
100
AcDbEntity
  8
0
100
AcDbLine
 10
-223.41620219043475
 20
18.57432524632357
 30
0.0
 11
-226.5160326325944
 21
17.715308382244906
 31
0.0
  0
LINE
  5
27A
330
17
100
AcDbEntity
  8
0
100
AcDbLine
 10
-226.5160326325944
 20
17.715308382244906
 30
0.0
 11
-229.61280197657163
 21
16.84762050227404
 31
0.0
  0
LINE
  5
27B
330
17
100
AcDbEntity
  8
0
100
AcDbLine
 10
-229.61280197657163
 20
16.84762050227404
 30
0.0
 11
-232.701248489458
 21
15.951404298085233
 31
0.0
  0
LINE
  5
27C
330
17
100
AcDbEntity
  8
0
100
AcDbLine
 10
-232.701248489458
 20
15.951404298085233
 30
0.0
 11
-235.77682651496914
 21
15.010102354263651
 31
0.0
  0
LINE
  5
27D
330
17
100
AcDbEntity
  8
0
100
AcDbLine
 10
-235.77682651496914
 20
15.010102354263651
 30
0.0
 11
-238.83854874345877
 21
14.023555169319854
 31
0.0
  0
LINE
  5
27E
330
17
100
AcDbEntity
  8
0
100
AcDbLine
 10
-238.83854874345877
 20
14.023555169319854
 30
0.0
 11
-241.88653105689198
 21
12.996687075050874
 31
0.0
  0
LINE
  5
27F
330
17
100
AcDbEntity
  8
0
100
AcDbLine
 10
-241.88653105689198
 20
12.996687075050874
 30
0.0
 11
-244.92145500185006
 21
11.934867537230167
 31
0.0
  0
LINE
  5
280
330
17
100
AcDbEntity
  8
0
100
AcDbLine
 10
-244.92145500185006
 20
11.934867537230167
 30
0.0
 11
-247.94698157303654
 21
10.845803847313569
 31
0.0
  0
LINE
  5
281
330
17
100
AcDbEntity
  8
0
100
AcDbLine
 10
-247.94698157303654
 20
10.845803847313569
 30
0.0
 11
-250.96771595125114
 21
9.737905645091384
 31
0.0
  0
LINE
  5
282
330
17
100
AcDbEntity
  8
0
100
AcDbLine
 10
-250.96771595125114
 20
9.737905645091384
 30
0.0
 11
-253.98132424924214
 21
8.606237848821964
 31
0.0
  0
LINE
  5
283
330
17
100
AcDbEntity
  8
0
100
AcDbLine
 10
-253.98132424924214
 20
8.606237848821964
 30
0.0
 11
-256.97010154804724
 21
7.416306359007743
 31
0.0
  0
LINE
  5
284
330
17
100
AcDbEntity
  8
0
100
AcDbLine
 10
-256.97010154804724
 20
7.416306359007743
 30
0.0
 11
-259.9142804110863
 21
6.12965078449002
 31
0.0
  0
LINE
  5
285
330
17
100
AcDbEntity
  8
0
100
AcDbLine
 10
-259.9142804110863
 20
6.12965078449002
 30
0.0
 11
-262.79409340177887
 21
4.707810734110177
 31
0.0
  0
LINE
  5
286
330
17
100
AcDbEntity
  8
0
100
AcDbLine
 10
-262.794093401779
 20
4.707810734110344
 30
0.0
 11
-262.8126885251982
 21
4.697845756478339
 31
0.0
  0
LINE
  5
287
330
17
100
AcDbEntity
  8
0
100
AcDbLine
 10
-262.8126885251982
 20
4.697845756478339
 30
0.0
 11
-262.8311718792926
 21
4.6876749641981625
 31
0.0
  0
LINE
  5
288
330
17
100
AcDbEntity
  8
0
100
AcDbLine
 10
-262.8311718792926
 20
4.6876749641981625
 30
0.0
 11
-262.84954118615406
 21
4.677299610728927
 31
0.0
  0
LINE
  5
289
330
17
100
AcDbEntity
  8
0
100
AcDbLine
 10
-262.84954118615406
 20
4.677299610728927
 30
0.0
 11
-262.86779418193004
 21
4.6667209747400715
 31
0.0
  0
LINE
  5
28A
330
17
100
AcDbEntity
  8
0
100
AcDbLine
 10
-262.86779418193004
 20
4.6667209747400715
 30
0.0
 11
-262.8859286171022
 21
4.655940359953794
 31
0.0
  0
LINE
  5
28B
330
17
100
AcDbEntity
  8
0
100
AcDbLine
 10
-262.8859286171022
 20
4.655940359953794
 30
0.0
 11
-262.9039422567637
 21
4.64495909498437
 31
0.0
  0
LINE
  5
28C
330
17
100
AcDbEntity
  8
0
100
AcDbLine
 10
-262.9039422567637
 20
4.64495909498437
 30
0.0
 11
-262.9218328808947
 21
4.633778533174411
 31
0.0
  0
LINE
  5
28D
330
17
100
AcDbEntity
  8
0
100
AcDbLine
 10
-262.9218328808947
 20
4.633778533174411
 30
0.0
 11
-262.93959828463596
 21
4.622400052428083
 31
0.0
  0
LINE
  5
28E
330
17
100
AcDbEntity
  8
0
100
AcDbLine
 10
-262.93959828463596
 20
4.622400052428083
 30
0.0
 11
-262.9572362785604
 21
4.610825055041287
 31
0.0
  0
LINE
  5
28F
330
17
100
AcDbEntity
  8
0
100
AcDbLine
 10
-262.9572362785604
 20
4.610825055041287
 30
0.0
 11
-262.9747446889432
 21
4.5990549675288435
 31
0.0
  0
LINE
  5
290
330
17
100
AcDbEntity
  8
0
100
AcDbLine
 10
-262.9747446889432
 20
4.5990549675288435
 30
0.0
 11
-262.99212135802946
 21
4.587091240448682
 31
0.0
  0
LINE
  5
291
330
17
100
AcDbEntity
  8
0
100
AcDbLine
 10
-262.99212135802946
 20
4.587091240448682
 30
0.0
 11
-263.0093641443004
 21
4.574935348223079
 31
0.0
  0
LINE
  5
292
330
17
100
AcDbEntity
  8
0
100
AcDbLine
 10
-263.0093641443004
 20
4.574935348223079
 30
0.0
 11
-263.02647092273673
 21
4.5625887889569405
 31
0.0
  0
LINE
  5
293
330
17
100
AcDbEntity
  8
0
100
AcDbLine
 10
-263.02647092273673
 20
4.5625887889569405
 30
0.0
 11
-263.0434395850813
 21
4.550053084253182
 31
0.0
  0
LINE
  5
294
330
17
100
AcDbEntity
  8
0
100
AcDbLine
 10
-263.0434395850813
 20
4.550053084253182
 30
0.0
 11
-263.06026804009826
 21
4.5373297790252005
 31
0.0
  0
LINE
  5
295
330
17
100
AcDbEntity
  8
0
100
AcDbLine
 10
-263.06026804009826
 20
4.5373297790252005
 30
0.0
 11
-263.07695421383124
 21
4.524420441306478
 31
0.0
  0
LINE
  5
296
330
17
100
AcDbEntity
  8
0
100
AcDbLine
 10
-263.07695421383124
 20
4.524420441306478
 30
0.0
 11
-263.0934960498587
 21
4.511326662057336
 31
0.0
  0
LINE
  5
297
330
17
100
AcDbEntity
  8
0
100
AcDbLine
 10
-263.0934960498587
 20
4.511326662057336
 30
0.0
 11
-263.1098915095473
 21
4.498050054968862
 31
0.0
  0
LINE
  5
298
330
17
100
AcDbEntity
  8
0
100
AcDbLine
 10
-263.1098915095473
 20
4.498050054968862
 30
0.0
 11
-263.1261385723035
 21
4.48459225626404
 31
0.0
  0
LINE
  5
299
330
17
100
AcDbEntity
  8
0
100
AcDbLine
 10
-263.1261385723035
 20
4.48459225626404
 30
0.0
 11
-263.14223523582217
 21
4.4709549244961
 31
0.0
  0
LINE
  5
29A
330
17
100
AcDbEntity
  8
0
100
AcDbLine
 10
-263.14223523582217
 20
4.4709549244961
 30
0.0
 11
-263.1581795163337
 21
4.457139740344112
 31
0.0
  0
LINE
  5
29B
330
17
100
AcDbEntity
  8
0
100
AcDbLine
 10
-263.1581795163337
 20
4.457139740344112
 30
0.0
 11
-263.1739694488482
 21
4.4431484064058635
 31
0.0
  0
LINE
  5
29C
330
17
100
AcDbEntity
  8
0
100
AcDbLine
 10
-263.1739694488482
 20
4.4431484064058635
 30
0.0
 11
-263.18960308739776
 21
4.428982646988023
 31
0.0
  0
LINE
  5
29D
330
17
100
AcDbEntity
  8
0
100
AcDbLine
 10
-263.18960308739776
 20
4.428982646988023
 30
0.0
 11
-263.20507850527645
 21
4.414644207893641
 31
0.0
  0
LINE
  5
29E
330
17
100
AcDbEntity
  8
0
100
AcDbLine
 10
-263.20507850527645
 20
4.414644207893641
 30
0.0
 11
-263.2203937952775
 21
4.40013485620699
 31
0.0
  0
LINE
  5
29F
330
17
100
AcDbEntity
  8
0
100
AcDbLine
 10
-263.2203937952775
 20
4.40013485620699
 30
0.0
 11
-263.23554706992854
 21
4.3854563800757935
 31
0.0
  0
LINE
  5
2A0
330
17
100
AcDbEntity
  8
0
100
AcDbLine
 10
-263.23554706992854
 20
4.3854563800757935
 30
0.0
 11
-263.25053646172404
 21
4.370610588490845
 31
0.0
  0
LINE
  5
2A1
330
17
100
AcDbEntity
  8
0
100
AcDbLine
 10
-263.25053646172404
 20
4.370610588490845
 30
0.0
 11
-263.2653601233557
 21
4.35559931106307
 31
0.0
  0
LINE
  5
2A2
330
17
100
AcDbEntity
  8
0
100
AcDbLine
 10
-263.2653601233557
 20
4.35559931106307
 30
0.0
 11
-263.2800162279399
 21
4.340424397798047
 31
0.0
  0
LINE
  5
2A3
330
17
100
AcDbEntity
  8
0
100
AcDbLine
 10
-263.2800162279399
 20
4.340424397798047
 30
0.0
 11
-263.2945029692429
 21
4.3250877188680015
 31
0.0
  0
LINE
  5
2A4
330
17
100
AcDbEntity
  8
0
100
AcDbLine
 10
-263.2945029692429
 20
4.3250877188680015
 30
0.0
 11
-263.3088185619035
 21
4.309591164381334
 31
0.0
  0
LINE
  5
2A5
330
17
100
AcDbEntity
  8
0
100
AcDbLine
 10
-263.3088185619035
 20
4.309591164381334
 30
0.0
 11
-263.3229612416531
 21
4.293936644149672
 31
0.0
  0
LINE
  5
2A6
330
17
100
AcDbEntity
  8
0
100
AcDbLine
 10
-263.3229612416531
 20
4.293936644149672
 30
0.0
 11
-263.336929265533
 21
4.27812608745251
 31
0.0
  0
LINE
  5
2A7
330
17
100
AcDbEntity
  8
0
100
AcDbLine
 10
-263.336929265533
 20
4.27812608745251
 30
0.0
 11
-263.35072091210924
 21
4.262161442799441
 31
0.0
  0
LINE
  5
2A8
330
17
100
AcDbEntity
  8
0
100
AcDbLine
 10
-263.35072091210924
 20
4.262161442799441
 30
0.0
 11
-263.36433448168486
 21
4.246044677690015
 31
0.0
  0
LINE
  5
2A9
330
17
100
AcDbEntity
  8
0
100
AcDbLine
 10
-263.36433448168486
 20
4.246044677690015
 30
0.0
 11
-263.3777682965093
 21
4.229777778371271
 31
0.0
  0
LINE
  5
2AA
330
17
100
AcDbEntity
  8
0
100
AcDbLine
 10
-263.3777682965093
 20
4.229777778371271
 30
0.0
 11
-263.3910207009851
 21
4.213362749592942
 31
0.0
  0
LINE
  5
2AB
330
17
100
AcDbEntity
  8
0
100
AcDbLine
 10
-263.3910207009851
 20
4.213362749592942
 30
0.0
 11
-263.404090061872
 21
4.196801614360395
 31
0.0
  0
LINE
  5
2AC
330
17
100
AcDbEntity
  8
0
100
AcDbLine
 10
-263.404090061872
 20
4.196801614360395
 30
0.0
 11
-263.41697476848833
 21
4.180096413685306
 31
0.0
  0
LINE
  5
2AD
330
17
100
AcDbEntity
  8
0
100
AcDbLine
 10
-263.41697476848833
 20
4.180096413685306
 30
0.0
 11
-263.42967323290924
 21
4.163249206334127
 31
0.0
  0
LINE
  5
2AE
330
17
100
AcDbEntity
  8
0
100
AcDbLine
 10
-263.42967323290924
 20
4.163249206334127
 30
0.0
 11
-263.44218389016277
 21
4.146262068574368
 31
0.0
  0
LINE
  5
2AF
330
17
100
AcDbEntity
  8
0
100
AcDbLine
 10
-263.44218389016277
 20
4.146262068574368
 30
0.0
 11
-263.4545051984223
 21
4.129137093918699
 31
0.0
  0
LINE
  5
2B0
330
17
100
AcDbEntity
  8
0
100
AcDbLine
 10
-263.4545051984223
 20
4.129137093918699
 30
0.0
 11
-263.46663563919685
 21
4.111876392866963
 31
0.0
  0
LINE
  5
2B1
330
17
100
AcDbEntity
  8
0
100
AcDbLine
 10
-263.46663563919685
 20
4.111876392866963
 30
0.0
 11
-263.47857371751826
 21
4.094482092646061
 31
0.0
  0
LINE
  5
2B2
330
17
100
AcDbEntity
  8
0
100
AcDbLine
 10
-263.47857371751826
 20
4.094482092646061
 30
0.0
 11
-263.49031796212523
 21
4.076956336947797
 31
0.0
  0
LINE
  5
2B3
330
17
100
AcDbEntity
  8
0
100
AcDbLine
 10
-263.49031796212523
 20
4.076956336947797
 30
0.0
 11
-263.5018669256447
 21
4.059301285664689
 31
0.0
  0
LINE
  5
2B4
330
17
100
AcDbEntity
  8
0
100
AcDbLine
 10
-263.5018669256447
 20
4.059301285664689
 30
0.0
 11
-263.5132191847703
 21
4.041519114623772
 31
0.0
  0
LINE
  5
2B5
330
17
100
AcDbEntity
  8
0
100
AcDbLine
 10
-263.5132191847703
 20
4.041519114623772
 30
0.0
 11
-263.5243733404377
 21
4.023612015318461
 31
0.0
  0
LINE
  5
2B6
330
17
100
AcDbEntity
  8
0
100
AcDbLine
 10
-263.5243733404377
 20
4.023612015318461
 30
0.0
 11
-263.53532801799713
 21
4.005582194638456
 31
0.0
  0
LINE
  5
2B7
330
17
100
AcDbEntity
  8
0
100
AcDbLine
 10
-263.53532801799713
 20
4.005582194638456
 30
0.0
 11
-263.5460818673825
 21
3.9874318745977675
 31
0.0
  0
LINE
  5
2B8
330
17
100
AcDbEntity
  8
0
100
AcDbLine
 10
-263.5460818673825
 20
3.9874318745977675
 30
0.0
 11
-263.55663356327824
 21
3.969163292060878
 31
0.0
  0
LINE
  5
2B9
330
17
100
AcDbEntity
  8
0
100
AcDbLine
 10
-263.55663356327824
 20
3.969163292060878
 30
0.0
 11
-263.56698180528224
 21
3.950778698467061
 31
0.0
  0
LINE
  5
2BA
330
17
100
AcDbEntity
  8
0
100
AcDbLine
 10
-263.56698180528224
 20
3.950778698467061
 30
0.0
 11
-263.57712531806635
 21
3.932280359552913
 31
0.0
  0
LINE
  5
2BB
330
17
100
AcDbEntity
  8
0
100
AcDbLine
 10
-263.57712531806635
 20
3.932280359552913
 30
0.0
 11
-263.5870628515333
 21
3.9136705550731286
 31
0.0
  0
LINE
  5
2BC
330
17
100
AcDbEntity
  8
0
100
AcDbLine
 10
-263.5870628515333
 20
3.9136705550731286
 30
0.0
 11
-263.59679318097113
 21
3.8949515785195286
 31
0.0
  0
LINE
  5
2BD
330
17
100
AcDbEntity
  8
0
100
AcDbLine
 10
-263.59679318097113
 20
3.8949515785195286
 30
0.0
 11
-263.60631510720384
 21
3.8761257368384205
 31
0.0
  0
LINE
  5
2BE
330
17
100
AcDbEntity
  8
0
100
AcDbLine
 10
-263.60631510720384
 20
3.8761257368384205
 30
0.0
 11
-263.6156274567393
 21
3.857195350146278
 31
0.0
  0
LINE
  5
2BF
330
17
100
AcDbEntity
  8
0
100
AcDbLine
 10
-263.6156274567393
 20
3.857195350146278
 30
0.0
 11
-263.6247290819136
 21
3.8381627514438157
 31
0.0
  0
LINE
  5
2C0
330
17
100
AcDbEntity
  8
0
100
AcDbLine
 10
-263.6247290819136
 20
3.8381627514438157
 30
0.0
 11
-263.6336188610331
 21
3.8190302863284598
 31
0.0
  0
LINE
  5
2C1
330
17
100
AcDbEntity
  8
0
100
AcDbLine
 10
-263.6336188610331
 20
3.8190302863284598
 30
0.0
 11
-263.64229569851193
 21
3.7998003127052784
 31
0.0
  0
LINE
  5
2C2
330
17
100
AcDbEntity
  8
0
100
AcDbLine
 10
-263.64229569851193
 20
3.7998003127052784
 30
0.0
 11
-263.6507585250077
 21
3.7804752004963946
 31
0.0
  0
LINE
  5
2C3
330
17
100
AcDbEntity
  8
0
100
AcDbLine
 10
-263.6507585250077
 20
3.7804752004963946
 30
0.0
 11
-263.6590062975527
 21
3.7610573313489053
 31
0.0
  0
LINE
  5
2C4
330
17
100
AcDbEntity
  8
0
100
AcDbLine
 10
-263.6590062975527
 20
3.7610573313489053
 30
0.0
 11
-263.66703799968286
 21
3.7415490983413715
 31
0.0
  0
LINE
  5
2C5
330
17
100
AcDbEntity
  8
0
100
AcDbLine
 10
-263.66703799968286
 20
3.7415490983413715
 30
0.0
 11
-263.67485264156267
 21
3.721952905688893
 31
0.0
  0
LINE
  5
2C6
330
17
100
AcDbEntity
  8
0
100
AcDbLine
 10
-263.67485264156267
 20
3.721952905688893
 30
0.0
 11
-263.6824492601076
 21
3.702271168446806
 31
0.0
  0
LINE
  5
2C7
330
17
100
AcDbEntity
  8
0
100
AcDbLine
 10
-263.6824492601076
 20
3.702271168446806
 30
0.0
 11
-263.6898269191023
 21
3.6825063122130546
 31
0.0
  0
LINE
  5
2C8
330
17
100
AcDbEntity
  8
0
100
AcDbLine
 10
-263.6898269191023
 20
3.6825063122130546
 30
0.0
 11
-263.69698470931644
 21
3.662660772829251
 31
0.0
  0
LINE
  5
2C9
330
17
100
AcDbEntity
  8
0
100
AcDbLine
 10
-263.69698470931644
 20
3.662660772829251
 30
0.0
 11
-263.7039217486163
 21
3.6427369960804845
 31
0.0
  0
LINE
  5
2CA
330
17
100
AcDbEntity
  8
0
100
AcDbLine
 10
-263.7039217486163
 20
3.6427369960804845
 30
0.0
 11
-263.71063718207404
 21
3.6227374373939027
 31
0.0
  0
LINE
  5
2CB
330
17
100
AcDbEntity
  8
0
100
AcDbLine
 10
-263.71063718207404
 20
3.6227374373939027
 30
0.0
 11
-263.71713018207254
 21
3.602664561536093
 31
0.0
  0
LINE
  5
2CC
330
17
100
AcDbEntity
  8
0
100
AcDbLine
 10
-263.71713018207254
 20
3.602664561536093
 30
0.0
 11
-263.72339994840763
 21
3.582520842309334
 31
0.0
  0
LINE
  5
2CD
330
17
100
AcDbEntity
  8
0
100
AcDbLine
 10
-263.72339994840763
 20
3.582520842309334
 30
0.0
 11
-263.7294457083868
 21
3.562308762246711
 31
0.0
  0
LINE
  5
2CE
330
17
100
AcDbEntity
  8
0
100
AcDbLine
 10
-263.7294457083868
 20
3.562308762246711
 30
0.0
 11
-263.7352667169242
 21
3.5420308123061695
 31
0.0
  0
LINE
  5
2CF
330
17
100
AcDbEntity
  8
0
100
AcDbLine
 10
-263.7352667169242
 20
3.5420308123061695
 30
0.0
 11
-263.74086225663257
 21
3.5216894915635337
 31
0.0
  0
LINE
  5
2D0
330
17
100
AcDbEntity
  8
0
100
AcDbLine
 10
-263.74086225663257
 20
3.5216894915635337
 30
0.0
 11
-263.7462316379118
 21
3.5012873069045067
 31
0.0
  0
LINE
  5
2D1
330
17
100
AcDbEntity
  8
0
100
AcDbLine
 10
-263.7462316379118
 20
3.5012873069045067
 30
0.0
 11
-263.7513741990338
 21
3.4808267727157247
 31
0.0
  0
LINE
  5
2D2
330
17
100
AcDbEntity
  8
0
100
AcDbLine
 10
-263.7513741990338
 20
3.4808267727157247
 30
0.0
 11
-263.7562893062238
 21
3.4603104105748854
 31
0.0
  0
LINE
  5
2D3
330
17
100
AcDbEntity
  8
0
100
AcDbLine
 10
-263.7562893062238
 20
3.4603104105748854
 30
0.0
 11
-263.7609763537389
 21
3.439740748939976
 31
0.0
  0
LINE
  5
2D4
330
17
100
AcDbEntity
  8
0
100
AcDbLine
 10
-263.7609763537389
 20
3.439740748939976
 30
0.0
 11
-263.7654347639424
 21
3.419120322837675
 31
0.0
  0
LINE
  5
2D5
330
17
100
AcDbEntity
  8
0
100
AcDbLine
 10
-263.7654347639424
 20
3.419120322837675
 30
0.0
 11
-263.76966398737517
 21
3.3984516735509223
 31
0.0
  0
LINE
  5
2D6
330
17
100
AcDbEntity
  8
0
100
AcDbLine
 10
-263.76966398737517
 20
3.3984516735509223
 30
0.0
 11
-263.77366350282335
 21
3.377737348305738
 31
0.0
  0
LINE
  5
2D7
330
17
100
AcDbEntity
  8
0
100
AcDbLine
 10
-263.77366350282335
 20
3.377737348305738
 30
0.0
 11
-263.77743281738236
 21
3.356979899957291
 31
0.0
  0
LINE
  5
2D8
330
17
100
AcDbEntity
  8
0
100
AcDbLine
 10
-263.77743281738236
 20
3.356979899957291
 30
0.0
 11
-263.78097146651794
 21
3.3361818866752877
 31
0.0
  0
LINE
  5
2D9
330
17
100
AcDbEntity
  8
0
100
AcDbLine
 10
-263.78097146651794
 20
3.3361818866752877
 30
0.0
 11
-263.7842790141233
 21
3.3153458716287036
 31
0.0
  0
LINE
  5
2DA
330
17
100
AcDbEntity
  8
0
100
AcDbLine
 10
-263.7842790141233
 20
3.3153458716287036
 30
0.0
 11
-263.7873550525728
 21
3.2944744226698868
 31
0.0
  0
LINE
  5
2DB
330
17
100
AcDbEntity
  8
0
100
AcDbLine
 10
-263.7873550525728
 20
3.2944744226698868
 30
0.0
 11
-263.7901992027722
 21
3.2735701120180973
 31
0.0
  0
LINE
  5
2DC
330
17
100
AcDbEntity
  8
0
100
AcDbLine
 10
-263.7901992027722
 20
3.2735701120180973
 30
0.0
 11
-263.7928111142055
 21
3.25263551594251
 31
0.0
  0
LINE
  5
2DD
330
17
100
AcDbEntity
  8
0
100
AcDbLine
 10
-263.7928111142055
 20
3.25263551594251
 30
0.0
 11
-263.7951904649779
 21
3.2316732144447013
 31
0.0
  0
LINE
  5
2DE
330
17
100
AcDbEntity
  8
0
100
AcDbLine
 10
-263.7951904649779
 20
3.2316732144447013
 30
0.0
 11
-263.7973369618558
 21
3.2106857909406985
 31
0.0
  0
LINE
  5
2DF
330
17
100
AcDbEntity
  8
0
100
AcDbLine
 10
-263.7973369618558
 20
3.2106857909406985
 30
0.0
 11
-263.79925034030265
 21
3.189675831942586
 31
0.0
  0
LINE
  5
2E0
330
17
100
AcDbEntity
  8
0
100
AcDbLine
 10
-263.79925034030265
 20
3.189675831942586
 30
0.0
 11
-263.8009303645117
 21
3.168645926739748
 31
0.0
  0
LINE
  5
2E1
330
17
100
AcDbEntity
  8
0
100
AcDbLine
 10
-263.8009303645117
 20
3.168645926739748
 30
0.0
 11
-263.80237682743495
 21
3.147598667079763
 31
0.0
  0
LINE
  5
2E2
330
17
100
AcDbEntity
  8
0
100
AcDbLine
 10
-263.80237682743495
 20
3.147598667079763
 30
0.0
 11
-263.80358955080885
 21
3.126536646848985
 31
0.0
  0
LINE
  5
2E3
330
17
100
AcDbEntity
  8
0
100
AcDbLine
 10
-263.80358955080885
 20
3.126536646848985
 30
0.0
 11
-263.8045683851761
 21
3.1054624617528828
 31
0.0
  0
LINE
  5
2E4
330
17
100
AcDbEntity
  8
0
100
AcDbLine
 10
-263.8045683851761
 20
3.1054624617528828
 30
0.0
 11
-263.80531320990406
 21
3.084378708996131
 31
0.0
  0
LINE
  5
2E5
330
17
100
AcDbEntity
  8
0
100
AcDbLine
 10
-263.80531320990406
 20
3.084378708996131
 30
0.0
 11
-263.8058239331998
 21
3.0632879869625333
 31
0.0
  0
LINE
  5
2E6
330
17
100
AcDbEntity
  8
0
100
AcDbLine
 10
-263.8058239331998
 20
3.0632879869625333
 30
0.0
 11
-263.8061004921213
 21
3.0421928948947987
 31
0.0
  0
LINE
  5
2E7
330
17
100
AcDbEntity
  8
0
100
AcDbLine
 10
-263.8061004921213
 20
3.0421928948947987
 30
0.0
 11
-263.806142852585
 21
3.021096032574197
 31
0.0
  0
LINE
  5
2E8
330
17
100
AcDbEntity
  8
0
100
AcDbLine
 10
-263.806142852585
 20
3.021096032574197
 30
0.0
 11
-263.80595100937046
 21
3.0000000000001736
 31
0.0
  0
LINE
  5
2E9
330
17
100
AcDbEntity
  8
0
100
AcDbLine
 10
-204.44401490592793
 20
3.00000000000018
 30
0.0
 11
-263.80595100936995
 21
3.00000000000018
 31
0.0
  0
LINE
  5
2EA
330
17
100
AcDbEntity
  8
0
100
AcDbLine
 10
-204.44401490592793
 20
3.00000000000018
 30
0.0
 11
-204.44401490592793
 21
-2.99999999999982
 31
0.0
  0
LINE
  5
2EB
330
17
100
AcDbEntity
  8
0
100
AcDbLine
 10
-204.44401490592693
 20
-2.99999999999982
 30
0.0
 11
-263.80595100936995
 21
-2.99999999999982
 31
0.0
  0
LINE
  5
2EC
330
17
100
AcDbEntity
  8
0
100
AcDbLine
 10
-262.794093401779
 20
-4.707810734110064
 30
0.0
 11
-262.8126885251982
 21
-4.69784575647806
 31
0.0
  0
LINE
  5
2ED
330
17
100
AcDbEntity
  8
0
100
AcDbLine
 10
-262.8126885251982
 20
-4.69784575647806
 30
0.0
 11
-262.8311718792926
 21
-4.6876749641978845
 31
0.0
  0
LINE
  5
2EE
330
17
100
AcDbEntity
  8
0
100
AcDbLine
 10
-262.8311718792926
 20
-4.6876749641978845
 30
0.0
 11
-262.84954118615406
 21
-4.677299610728648
 31
0.0
  0
LINE
  5
2EF
330
17
100
AcDbEntity
  8
0
100
AcDbLine
 10
-262.84954118615406
 20
-4.677299610728648
 30
0.0
 11
-262.8677941819301
 21
-4.666720974739793
 31
0.0
  0
LINE
  5
2F0
330
17
100
AcDbEntity
  8
0
100
AcDbLine
 10
-262.8677941819301
 20
-4.666720974739793
 30
0.0
 11
-262.88592861710225
 21
-4.655940359953516
 31
0.0
  0
LINE
  5
2F1
330
17
100
AcDbEntity
  8
0
100
AcDbLine
 10
-262.88592861710225
 20
-4.655940359953516
 30
0.0
 11
-262.90394225676374
 21
-4.644959094984092
 31
0.0
  0
LINE
  5
2F2
330
17
100
AcDbEntity
  8
0
100
AcDbLine
 10
-262.90394225676374
 20
-4.644959094984092
 30
0.0
 11
-262.9218328808947
 21
-4.633778533174134
 31
0.0
  0
LINE
  5
2F3
330
17
100
AcDbEntity
  8
0
100
AcDbLine
 10
-262.9218328808947
 20
-4.633778533174134
 30
0.0
 11
-262.93959828463596
 21
-4.622400052427805
 31
0.0
  0
LINE
  5
2F4
330
17
100
AcDbEntity
  8
0
100
AcDbLine
 10
-262.93959828463596
 20
-4.622400052427805
 30
0.0
 11
-262.9572362785604
 21
-4.610825055041009
 31
0.0
  0
LINE
  5
2F5
330
17
100
AcDbEntity
  8
0
100
AcDbLine
 10
-262.9572362785604
 20
-4.610825055041009
 30
0.0
 11
-262.97474468894325
 21
-4.599054967528566
 31
0.0
  0
LINE
  5
2F6
330
17
100
AcDbEntity
  8
0
100
AcDbLine
 10
-262.97474468894325
 20
-4.599054967528566
 30
0.0
 11
-262.9921213580295
 21
-4.587091240448405
 31
0.0
  0
LINE
  5
2F7
330
17
100
AcDbEntity
  8
0
100
AcDbLine
 10
-262.9921213580295
 20
-4.587091240448405
 30
0.0
 11
-263.0093641443004
 21
-4.574935348222802
 31
0.0
  0
LINE
  5
2F8
330
17
100
AcDbEntity
  8
0
100
AcDbLine
 10
-263.0093641443004
 20
-4.574935348222802
 30
0.0
 11
-263.0264709227368
 21
-4.562588788956663
 31
0.0
  0
LINE
  5
2F9
330
17
100
AcDbEntity
  8
0
100
AcDbLine
 10
-263.0264709227368
 20
-4.562588788956663
 30
0.0
 11
-263.04343958508133
 21
-4.550053084252905
 31
0.0
  0
LINE
  5
2FA
330
17
100
AcDbEntity
  8
0
100
AcDbLine
 10
-263.04343958508133
 20
-4.550053084252905
 30
0.0
 11
-263.0602680400983
 21
-4.537329779024924
 31
0.0
  0
LINE
  5
2FB
330
17
100
AcDbEntity
  8
0
100
AcDbLine
 10
-263.0602680400983
 20
-4.537329779024924
 30
0.0
 11
-263.0769542138313
 21
-4.5244204413062015
 31
0.0
  0
LINE
  5
2FC
330
17
100
AcDbEntity
  8
0
100
AcDbLine
 10
-263.0769542138313
 20
-4.5244204413062015
 30
0.0
 11
-263.09349604985874
 21
-4.5113266620570585
 31
0.0
  0
LINE
  5
2FD
330
17
100
AcDbEntity
  8
0
100
AcDbLine
 10
-263.09349604985874
 20
-4.5113266620570585
 30
0.0
 11
-263.10989150954737
 21
-4.4980500549685845
 31
0.0
  0
LINE
  5
2FE
330
17
100
AcDbEntity
  8
0
100
AcDbLine
 10
-263.10989150954737
 20
-4.4980500549685845
 30
0.0
 11
-263.12613857230355
 21
-4.484592256263763
 31
0.0
  0
LINE
  5
2FF
330
17
100
AcDbEntity
  8
0
100
AcDbLine
 10
-263.12613857230355
 20
-4.484592256263763
 30
0.0
 11
-263.1422352358223
 21
-4.470954924495823
 31
0.0
  0
LINE
  5
300
330
17
100
AcDbEntity
  8
0
100
AcDbLine
 10
-263.1422352358223
 20
-4.470954924495823
 30
0.0
 11
-263.1581795163338
 21
-4.457139740343835
 31
0.0
  0
LINE
  5
301
330
17
100
AcDbEntity
  8
0
100
AcDbLine
 10
-263.1581795163338
 20
-4.457139740343835
 30
0.0
 11
-263.17396944884825
 21
-4.4431484064055855
 31
0.0
  0
LINE
  5
302
330
17
100
AcDbEntity
  8
0
100
AcDbLine
 10
-263.17396944884825
 20
-4.4431484064055855
 30
0.0
 11
-263.18960308739787
 21
-4.428982646987745
 31
0.0
  0
LINE
  5
303
330
17
100
AcDbEntity
  8
0
100
AcDbLine
 10
-263.18960308739787
 20
-4.428982646987745
 30
0.0
 11
-263.20507850527656
 21
-4.414644207893363
 31
0.0
  0
LINE
  5
304
330
17
100
AcDbEntity
  8
0
100
AcDbLine
 10
-263.20507850527656
 20
-4.414644207893363
 30
0.0
 11
-263.2203937952776
 21
-4.400134856206712
 31
0.0
  0
LINE
  5
305
330
17
100
AcDbEntity
  8
0
100
AcDbLine
 10
-263.2203937952776
 20
-4.400134856206712
 30
0.0
 11
-263.2355470699286
 21
-4.385456380075515
 31
0.0
  0
LINE
  5
306
330
17
100
AcDbEntity
  8
0
100
AcDbLine
 10
-263.2355470699286
 20
-4.385456380075515
 30
0.0
 11
-263.25053646172415
 21
-4.370610588490566
 31
0.0
  0
LINE
  5
307
330
17
100
AcDbEntity
  8
0
100
AcDbLine
 10
-263.25053646172415
 20
-4.370610588490566
 30
0.0
 11
-263.2653601233558
 21
-4.355599311062791
 31
0.0
  0
LINE
  5
308
330
17
100
AcDbEntity
  8
0
100
AcDbLine
 10
-263.2653601233558
 20
-4.355599311062791
 30
0.0
 11
-263.28001622793994
 21
-4.340424397797767
 31
0.0
  0
LINE
  5
309
330
17
100
AcDbEntity
  8
0
100
AcDbLine
 10
-263.28001622793994
 20
-4.340424397797767
 30
0.0
 11
-263.29450296924296
 21
-4.325087718867722
 31
0.0
  0
LINE
  5
30A
330
17
100
AcDbEntity
  8
0
100
AcDbLine
 10
-263.29450296924296
 20
-4.325087718867722
 30
0.0
 11
-263.3088185619036
 21
-4.309591164381054
 31
0.0
  0
LINE
  5
30B
330
17
100
AcDbEntity
  8
0
100
AcDbLine
 10
-263.3088185619036
 20
-4.309591164381054
 30
0.0
 11
-263.3229612416532
 21
-4.293936644149392
 31
0.0
  0
LINE
  5
30C
330
17
100
AcDbEntity
  8
0
100
AcDbLine
 10
-263.3229612416532
 20
-4.293936644149392
 30
0.0
 11
-263.3369292655331
 21
-4.27812608745223
 31
0.0
  0
LINE
  5
30D
330
17
100
AcDbEntity
  8
0
100
AcDbLine
 10
-263.3369292655331
 20
-4.27812608745223
 30
0.0
 11
-263.35072091210935
 21
-4.26216144279916
 31
0.0
  0
LINE
  5
30E
330
17
100
AcDbEntity
  8
0
100
AcDbLine
 10
-263.35072091210935
 20
-4.26216144279916
 30
0.0
 11
-263.364334481685
 21
-4.246044677689733
 31
0.0
  0
LINE
  5
30F
330
17
100
AcDbEntity
  8
0
100
AcDbLine
 10
-263.364334481685
 20
-4.246044677689733
 30
0.0
 11
-263.37776829650943
 21
-4.2297777783709885
 31
0.0
  0
LINE
  5
310
330
17
100
AcDbEntity
  8
0
100
AcDbLine
 10
-263.37776829650943
 20
-4.2297777783709885
 30
0.0
 11
-263.3910207009852
 21
-4.21336274959266
 31
0.0
  0
LINE
  5
311
330
17
100
AcDbEntity
  8
0
100
AcDbLine
 10
-263.3910207009852
 20
-4.21336274959266
 30
0.0
 11
-263.4040900618721
 21
-4.196801614360112
 31
0.0
  0
LINE
  5
312
330
17
100
AcDbEntity
  8
0
100
AcDbLine
 10
-263.4040900618721
 20
-4.196801614360112
 30
0.0
 11
-263.41697476848844
 21
-4.180096413685022
 31
0.0
  0
LINE
  5
313
330
17
100
AcDbEntity
  8
0
100
AcDbLine
 10
-263.41697476848844
 20
-4.180096413685022
 30
0.0
 11
-263.4296732329094
 21
-4.163249206333844
 31
0.0
  0
LINE
  5
314
330
17
100
AcDbEntity
  8
0
100
AcDbLine
 10
-263.4296732329094
 20
-4.163249206333844
 30
0.0
 11
-263.4421838901629
 21
-4.1462620685740825
 31
0.0
  0
LINE
  5
315
330
17
100
AcDbEntity
  8
0
100
AcDbLine
 10
-263.4421838901629
 20
-4.1462620685740825
 30
0.0
 11
-263.4545051984224
 21
-4.1291370939184135
 31
0.0
  0
LINE
  5
316
330
17
100
AcDbEntity
  8
0
100
AcDbLine
 10
-263.4545051984224
 20
-4.1291370939184135
 30
0.0
 11
-263.46663563919697
 21
-4.111876392866677
 31
0.0
  0
LINE
  5
317
330
17
100
AcDbEntity
  8
0
100
AcDbLine
 10
-263.46663563919697
 20
-4.111876392866677
 30
0.0
 11
-263.47857371751843
 21
-4.094482092645774
 31
0.0
  0
LINE
  5
318
330
17
100
AcDbEntity
  8
0
100
AcDbLine
 10
-263.47857371751843
 20
-4.094482092645774
 30
0.0
 11
-263.49031796212535
 21
-4.07695633694751
 31
0.0
  0
LINE
  5
319
330
17
100
AcDbEntity
  8
0
100
AcDbLine
 10
-263.49031796212535
 20
-4.07695633694751
 30
0.0
 11
-263.50186692564483
 21
-4.0593012856644
 31
0.0
  0
LINE
  5
31A
330
17
100
AcDbEntity
  8
0
100
AcDbLine
 10
-263.50186692564483
 20
-4.0593012856644
 30
0.0
 11
-263.51321918477043
 21
-4.041519114623484
 31
0.0
  0
LINE
  5
31B
330
17
100
AcDbEntity
  8
0
100
AcDbLine
 10
-263.51321918477043
 20
-4.041519114623484
 30
0.0
 11
-263.5243733404379
 21
-4.023612015318172
 31
0.0
  0
LINE
  5
31C
330
17
100
AcDbEntity
  8
0
100
AcDbLine
 10
-263.5243733404379
 20
-4.023612015318172
 30
0.0
 11
-263.53532801799724
 21
-4.005582194638166
 31
0.0
  0
LINE
  5
31D
330
17
100
AcDbEntity
  8
0
100
AcDbLine
 10
-263.53532801799724
 20
-4.005582194638166
 30
0.0
 11
-263.54608186738267
 21
-3.987431874597476
 31
0.0
  0
LINE
  5
31E
330
17
100
AcDbEntity
  8
0
100
AcDbLine
 10
-263.54608186738267
 20
-3.987431874597476
 30
0.0
 11
-263.5566335632784
 21
-3.9691632920605864
 31
0.0
  0
LINE
  5
31F
330
17
100
AcDbEntity
  8
0
100
AcDbLine
 10
-263.5566335632784
 20
-3.9691632920605864
 30
0.0
 11
-263.5669818052824
 21
-3.9507786984667677
 31
0.0
  0
LINE
  5
320
330
17
100
AcDbEntity
  8
0
100
AcDbLine
 10
-263.5669818052824
 20
-3.9507786984667677
 30
0.0
 11
-263.57712531806646
 21
-3.93228035955262
 31
0.0
  0
LINE
  5
321
330
17
100
AcDbEntity
  8
0
100
AcDbLine
 10
-263.57712531806646
 20
-3.93228035955262
 30
0.0
 11
-263.58706285153346
 21
-3.9136705550728337
 31
0.0
  0
LINE
  5
322
330
17
100
AcDbEntity
  8
0
100
AcDbLine
 10
-263.58706285153346
 20
-3.9136705550728337
 30
0.0
 11
-263.5967931809713
 21
-3.8949515785192332
 31
0.0
  0
LINE
  5
323
330
17
100
AcDbEntity
  8
0
100
AcDbLine
 10
-263.5967931809713
 20
-3.8949515785192332
 30
0.0
 11
-263.606315107204
 21
-3.876125736838124
 31
0.0
  0
LINE
  5
324
330
17
100
AcDbEntity
  8
0
100
AcDbLine
 10
-263.606315107204
 20
-3.876125736838124
 30
0.0
 11
-263.61562745673945
 21
-3.8571953501459815
 31
0.0
  0
LINE
  5
325
330
17
100
AcDbEntity
  8
0
100
AcDbLine
 10
-263.61562745673945
 20
-3.8571953501459815
 30
0.0
 11
-263.62472908191376
 21
-3.838162751443517
 31
0.0
  0
LINE
  5
326
330
17
100
AcDbEntity
  8
0
100
AcDbLine
 10
-263.62472908191376
 20
-3.838162751443517
 30
0.0
 11
-263.63361886103326
 21
-3.81903028632816
 31
0.0
  0
LINE
  5
327
330
17
100
AcDbEntity
  8
0
100
AcDbLine
 10
-263.63361886103326
 20
-3.81903028632816
 30
0.0
 11
-263.64229569851216
 21
-3.7998003127049786
 31
0.0
  0
LINE
  5
328
330
17
100
AcDbEntity
  8
0
100
AcDbLine
 10
-263.64229569851216
 20
-3.7998003127049786
 30
0.0
 11
-263.6507585250079
 21
-3.7804752004960926
 31
0.0
  0
LINE
  5
329
330
17
100
AcDbEntity
  8
0
100
AcDbLine
 10
-263.6507585250079
 20
-3.7804752004960926
 30
0.0
 11
-263.6590062975529
 21
-3.761057331348602
 31
0.0
  0
LINE
  5
32A
330
17
100
AcDbEntity
  8
0
100
AcDbLine
 10
-263.6590062975529
 20
-3.761057331348602
 30
0.0
 11
-263.66703799968303
 21
-3.7415490983410673
 31
0.0
  0
LINE
  5
32B
330
17
100
AcDbEntity
  8
0
100
AcDbLine
 10
-263.66703799968303
 20
-3.7415490983410673
 30
0.0
 11
-263.6748526415629
 21
-3.7219529056885876
 31
0.0
  0
LINE
  5
32C
330
17
100
AcDbEntity
  8
0
100
AcDbLine
 10
-263.6748526415629
 20
-3.7219529056885876
 30
0.0
 11
-263.6824492601078
 21
-3.7022711684465
 31
0.0
  0
LINE
  5
32D
330
17
100
AcDbEntity
  8
0
100
AcDbLine
 10
-263.6824492601078
 20
-3.7022711684465
 30
0.0
 11
-263.68982691910253
 21
-3.6825063122127464
 31
0.0
  0
LINE
  5
32E
330
17
100
AcDbEntity
  8
0
100
AcDbLine
 10
-263.68982691910253
 20
-3.6825063122127464
 30
0.0
 11
-263.6969847093166
 21
-3.662660772828941
 31
0.0
  0
LINE
  5
32F
330
17
100
AcDbEntity
  8
0
100
AcDbLine
 10
-263.6969847093166
 20
-3.662660772828941
 30
0.0
 11
-263.70392174861655
 21
-3.642736996080175
 31
0.0
  0
LINE
  5
330
330
17
100
AcDbEntity
  8
0
100
AcDbLine
 10
-263.70392174861655
 20
-3.642736996080175
 30
0.0
 11
-263.71063718207427
 21
-3.6227374373935906
 31
0.0
  0
LINE
  5
331
330
17
100
AcDbEntity
  8
0
100
AcDbLine
 10
-263.71063718207427
 20
-3.6227374373935906
 30
0.0
 11
-263.71713018207276
 21
-3.6026645615357804
 31
0.0
  0
LINE
  5
332
330
17
100
AcDbEntity
  8
0
100
AcDbLine
 10
-263.71713018207276
 20
-3.6026645615357804
 30
0.0
 11
-263.72339994840786
 21
-3.58252084230902
 31
0.0
  0
LINE
  5
333
330
17
100
AcDbEntity
  8
0
100
AcDbLine
 10
-263.72339994840786
 20
-3.58252084230902
 30
0.0
 11
-263.729445708387
 21
-3.5623087622463943
 31
0.0
  0
LINE
  5
334
330
17
100
AcDbEntity
  8
0
100
AcDbLine
 10
-263.729445708387
 20
-3.5623087622463943
 30
0.0
 11
-263.73526671692434
 21
-3.542030812305853
 31
0.0
  0
LINE
  5
335
330
17
100
AcDbEntity
  8
0
100
AcDbLine
 10
-263.73526671692434
 20
-3.542030812305853
 30
0.0
 11
-263.7408622566328
 21
-3.5216894915632144
 31
0.0
  0
LINE
  5
336
330
17
100
AcDbEntity
  8
0
100
AcDbLine
 10
-263.7408622566328
 20
-3.5216894915632144
 30
0.0
 11
-263.74623163791205
 21
-3.5012873069041857
 31
0.0
  0
LINE
  5
337
330
17
100
AcDbEntity
  8
0
100
AcDbLine
 10
-263.74623163791205
 20
-3.5012873069041857
 30
0.0
 11
-263.751374199034
 21
-3.480826772715403
 31
0.0
  0
LINE
  5
338
330
17
100
AcDbEntity
  8
0
100
AcDbLine
 10
-263.751374199034
 20
-3.480826772715403
 30
0.0
 11
-263.756289306224
 21
-3.4603104105745617
 31
0.0
  0
LINE
  5
339
330
17
100
AcDbEntity
  8
0
100
AcDbLine
 10
-263.756289306224
 20
-3.4603104105745617
 30
0.0
 11
-263.7609763537391
 21
-3.439740748939651
 31
0.0
  0
LINE
  5
33A
330
17
100
AcDbEntity
  8
0
100
AcDbLine
 10
-263.7609763537391
 20
-3.439740748939651
 30
0.0
 11
-263.7654347639426
 21
-3.4191203228373483
 31
0.0
  0
LINE
  5
33B
330
17
100
AcDbEntity
  8
0
100
AcDbLine
 10
-263.7654347639426
 20
-3.4191203228373483
 30
0.0
 11
-263.7696639873754
 21
-3.398451673550595
 31
0.0
  0
LINE
  5
33C
330
17
100
AcDbEntity
  8
0
100
AcDbLine
 10
-263.7696639873754
 20
-3.398451673550595
 30
0.0
 11
-263.7736635028236
 21
-3.377737348305408
 31
0.0
  0
LINE
  5
33D
330
17
100
AcDbEntity
  8
0
100
AcDbLine
 10
-263.7736635028236
 20
-3.377737348305408
 30
0.0
 11
-263.7774328173826
 21
-3.3569798999569587
 31
0.0
  0
LINE
  5
33E
330
17
100
AcDbEntity
  8
0
100
AcDbLine
 10
-263.7774328173826
 20
-3.3569798999569587
 30
0.0
 11
-263.78097146651817
 21
-3.336181886674955
 31
0.0
  0
LINE
  5
33F
330
17
100
AcDbEntity
  8
0
100
AcDbLine
 10
-263.78097146651817
 20
-3.336181886674955
 30
0.0
 11
-263.78427901412357
 21
-3.3153458716283684
 31
0.0
  0
LINE
  5
340
330
17
100
AcDbEntity
  8
0
100
AcDbLine
 10
-263.78427901412357
 20
-3.3153458716283684
 30
0.0
 11
-263.78735505257305
 21
-3.2944744226695493
 31
0.0
  0
LINE
  5
341
330
17
100
AcDbEntity
  8
0
100
AcDbLine
 10
-263.78735505257305
 20
-3.2944744226695493
 30
0.0
 11
-263.79019920277244
 21
-3.273570112017759
 31
0.0
  0
LINE
  5
342
330
17
100
AcDbEntity
  8
0
100
AcDbLine
 10
-263.79019920277244
 20
-3.273570112017759
 30
0.0
 11
-263.79281111420573
 21
-3.252635515942169
 31
0.0
  0
LINE
  5
343
330
17
100
AcDbEntity
  8
0
100
AcDbLine
 10
-263.79281111420573
 20
-3.252635515942169
 30
0.0
 11
-263.7951904649782
 21
-3.23167321444436
 31
0.0
  0
LINE
  5
344
330
17
100
AcDbEntity
  8
0
100
AcDbLine
 10
-263.7951904649782
 20
-3.23167321444436
 30
0.0
 11
-263.79733696185605
 21
-3.2106857909403543
 31
0.0
  0
LINE
  5
345
330
17
100
AcDbEntity
  8
0
100
AcDbLine
 10
-263.79733696185605
 20
-3.2106857909403543
 30
0.0
 11
-263.79925034030293
 21
-3.1896758319422394
 31
0.0
  0
LINE
  5
346
330
17
100
AcDbEntity
  8
0
100
AcDbLine
 10
-263.79925034030293
 20
-3.1896758319422394
 30
0.0
 11
-263.80093036451194
 21
-3.1686459267393996
 31
0.0
  0
LINE
  5
347
330
17
100
AcDbEntity
  8
0
100
AcDbLine
 10
-263.80093036451194
 20
-3.1686459267393996
 30
0.0
 11
-263.80237682743524
 21
-3.1475986670794125
 31
0.0
  0
LINE
  5
348
330
17
100
AcDbEntity
  8
0
100
AcDbLine
 10
-263.80237682743524
 20
-3.1475986670794125
 30
0.0
 11
-263.80358955080914
 21
-3.126536646848633
 31
0.0
  0
LINE
  5
349
330
17
100
AcDbEntity
  8
0
100
AcDbLine
 10
-263.80358955080914
 20
-3.126536646848633
 30
0.0
 11
-263.80456838517637
 21
-3.105462461752529
 31
0.0
  0
LINE
  5
34A
330
17
100
AcDbEntity
  8
0
100
AcDbLine
 10
-263.80456838517637
 20
-3.105462461752529
 30
0.0
 11
-263.80531320990434
 21
-3.084378708995774
 31
0.0
  0
LINE
  5
34B
330
17
100
AcDbEntity
  8
0
100
AcDbLine
 10
-263.80531320990434
 20
-3.084378708995774
 30
0.0
 11
-263.8058239332001
 21
-3.0632879869621754
 31
0.0
  0
LINE
  5
34C
330
17
100
AcDbEntity
  8
0
100
AcDbLine
 10
-263.8058239332001
 20
-3.0632879869621754
 30
0.0
 11
-263.8061004921216
 21
-3.0421928948944386
 31
0.0
  0
LINE
  5
34D
330
17
100
AcDbEntity
  8
0
100
AcDbLine
 10
-263.8061004921216
 20
-3.0421928948944386
 30
0.0
 11
-263.80614285258525
 21
-3.0210960325738356
 31
0.0
  0
LINE
  5
34E
330
17
100
AcDbEntity
  8
0
100
AcDbLine
 10
-263.80614285258525
 20
-3.0210960325738356
 30
0.0
 11
-263.80595100937074
 21
-2.9999999999998086
 31
0.0
  0
LINE
  5
34F
330
17
100
AcDbEntity
  8
0
100
AcDbLine
 10
-5.9999999999988765
 20
-149.23849779637163
 30
0.0
 11
-9.206570481098668
 21
-149.51236924084995
 31
0.0
  0
LINE
  5
350
330
17
100
AcDbEntity
  8
0
100
AcDbLine
 10
-9.206570481098668
 20
-149.51236924084995
 30
0.0
 11
-12.415106282001018
 21
-149.76085319943513
 31
0.0
  0
LINE
  5
351
330
17
100
AcDbEntity
  8
0
100
AcDbLine
 10
-12.415106282001018
 20
-149.76085319943513
 30
0.0
 11
-15.625430154092273
 21
-149.98414190176769
 31
0.0
  0
LINE
  5
352
330
17
100
AcDbEntity
  8
0
100
AcDbLine
 10
-15.625430154092273
 20
-149.98414190176769
 30
0.0
 11
-18.837364848758778
 21
-150.18242757748806
 31
0.0
  0
LINE
  5
353
330
17
100
AcDbEntity
  8
0
100
AcDbLine
 10
-18.837364848758778
 20
-150.18242757748806
 30
0.0
 11
-22.050733117386876
 21
-150.3559024562368
 31
0.0
  0
LINE
  5
354
330
17
100
AcDbEntity
  8
0
100
AcDbLine
 10
-22.050733117386876
 20
-150.3559024562368
 30
0.0
 11
-25.265357711362903
 21
-150.50475876765444
 31
0.0
  0
LINE
  5
355
330
17
100
AcDbEntity
  8
0
100
AcDbLine
 10
-25.265357711362903
 20
-150.50475876765444
 30
0.0
 11
-28.481061382073207
 21
-150.62918874138143
 31
0.0
  0
LINE
  5
356
330
17
100
AcDbEntity
  8
0
100
AcDbLine
 10
-28.481061382073207
 20
-150.62918874138143
 30
0.0
 11
-31.697666880904144
 21
-150.72938460705828
 31
0.0
  0
LINE
  5
357
330
17
100
AcDbEntity
  8
0
100
AcDbLine
 10
-31.697666880904144
 20
-150.72938460705828
 30
0.0
 11
-34.914996959242025
 21
-150.80553859432555
 31
0.0
  0
LINE
  5
358
330
17
100
AcDbEntity
  8
0
100
AcDbLine
 10
-34.914996959242025
 20
-150.80553859432555
 30
0.0
 11
-38.13287297793255
 21
-150.8578176174977
 31
0.0
  0
LINE
  5
359
330
17
100
AcDbEntity
  8
0
100
AcDbLine
 10
-38.13287297793255
 20
-150.8578176174977
 30
0.0
 11
-41.35108640995634
 21
-150.88584447085415
 31
0.0
  0
LINE
  5
35A
330
17
100
AcDbEntity
  8
0
100
AcDbLine
 10
-41.35108640995634
 20
-150.88584447085415
 30
0.0
 11
-44.5693999597477
 21
-150.88871820626514
 31
0.0
  0
LINE
  5
35B
330
17
100
AcDbEntity
  8
0
100
AcDbLine
 10
-44.5693999597477
 20
-150.88871820626514
 30
0.0
 11
-47.78757516516626
 21
-150.86551663766133
 31
0.0
  0
LINE
  5
35C
330
17
100
AcDbEntity
  8
0
100
AcDbLine
 10
-47.78757516516626
 20
-150.86551663766133
 30
0.0
 11
-51.005373564071625
 21
-150.8153175789735
 31
0.0
  0
LINE
  5
35D
330
17
100
AcDbEntity
  8
0
100
AcDbLine
 10
-51.005373564071625
 20
-150.8153175789735
 30
0.0
 11
-54.22255673258828
 21
-150.73719972385493
 31
0.0
  0
LINE
  5
35E
330
17
100
AcDbEntity
  8
0
100
AcDbLine
 10
-54.22255673258828
 20
-150.73719972385493
 30
0.0
 11
-57.438933213493954
 21
-150.6313215464188
 31
0.0
  0
LINE
  5
35F
330
17
100
AcDbEntity
  8
0
100
AcDbLine
 10
-57.438933213493954
 20
-150.6313215464188
 30
0.0
 11
-60.65444992729282
 21
-150.5010228750904
 31
0.0
  0
LINE
  5
360
330
17
100
AcDbEntity
  8
0
100
AcDbLine
 10
-60.65444992729282
 20
-150.5010228750904
 30
0.0
 11
-63.86907915313584
 21
-150.35022654281792
 31
0.0
  0
LINE
  5
361
330
17
100
AcDbEntity
  8
0
100
AcDbLine
 10
-63.86907915313584
 20
-150.35022654281792
 30
0.0
 11
-67.08279317017396
 21
-150.18285538254958
 31
0.0
  0
LINE
  5
362
330
17
100
AcDbEntity
  8
0
100
AcDbLine
 10
-67.08279317017396
 20
-150.18285538254958
 30
0.0
 11
-70.29556367720043
 21
-150.00281837971568
 31
0.0
  0
LINE
  5
363
330
17
100
AcDbEntity
  8
0
100
AcDbLine
 10
-70.29556367720043
 20
-150.00281837971568
 30
0.0
 11
-73.50713847764874
 21
-149.80868230587996
 31
0.0
  0
LINE
  5
364
330
17
100
AcDbEntity
  8
0
100
AcDbLine
 10
-73.50713847764874
 20
-149.80868230587996
 30
0.0
 11
-76.71670378723803
 21
-149.58561427270394
 31
0.0
  0
LINE
  5
365
330
17
100
AcDbEntity
  8
0
100
AcDbLine
 10
-76.71670378723803
 20
-149.58561427270394
 30
0.0
 11
-79.92335918368421
 21
-149.3167141817794
 31
0.0
  0
LINE
  5
366
330
17
100
AcDbEntity
  8
0
100
AcDbLine
 10
-79.92335918368421
 20
-149.3167141817794
 30
0.0
 11
-83.1262042447032
 21
-148.9850819346981
 31
0.0
  0
LINE
  5
367
330
17
100
AcDbEntity
  8
0
100
AcDbLine
 10
-83.1262042447032
 20
-148.9850819346981
 30
0.0
 11
-86.32371572384999
 21
-148.57332735240504
 31
0.0
  0
LINE
  5
368
330
17
100
AcDbEntity
  8
0
100
AcDbLine
 10
-86.32371572384999
 20
-148.57332735240504
 30
0.0
 11
-89.50724151638467
 21
-148.05845078257303
 31
0.0
  0
LINE
  5
369
330
17
100
AcDbEntity
  8
0
100
AcDbLine
 10
-89.50724151638467
 20
-148.05845078257303
 30
0.0
 11
-92.6635826382255
 21
-147.41387477723285
 31
0.0
  0
LINE
  5
36A
330
17
100
AcDbEntity
  8
0
100
AcDbLine
 10
-92.6635826382255
 20
-147.41387477723285
 30
0.0
 11
-95.77946664307521
 21
-146.61296408331964
 31
0.0
  0
LINE
  5
36B
330
17
100
AcDbEntity
  8
0
100
AcDbLine
 10
-95.77946664307521
 20
-146.61296408331964
 30
0.0
 11
-98.84195967433892
 21
-145.63093247879624
 31
0.0
  0
LINE
  5
36C
330
17
100
AcDbEntity
  8
0
100
AcDbLine
 10
-98.84195967433892
 20
-145.63093247879624
 30
0.0
 11
-101.84227346587843
 21
-144.4656327212638
 31
0.0
  0
LINE
  5
36D
330
17
100
AcDbEntity
  8
0
100
AcDbLine
 10
-101.84227346587843
 20
-144.4656327212638
 30
0.0
 11
-104.77439727974058
 21
-143.13008558954564
 31
0.0
  0
LINE
  5
36E
330
17
100
AcDbEntity
  8
0
100
AcDbLine
 10
-104.77439727974058
 20
-143.13008558954564
 30
0.0
 11
-107.63237152336528
 21
-141.63759116634844
 31
0.0
  0
LINE
  5
36F
330
17
100
AcDbEntity
  8
0
100
AcDbLine
 10
-107.63237152336528
 20
-141.63759116634844
 30
0.0
 11
-110.40949457631984
 21
-140.00013433917655
 31
0.0
  0
LINE
  5
370
330
17
100
AcDbEntity
  8
0
100
AcDbLine
 10
-110.40949457631984
 20
-140.00013433917655
 30
0.0
 11
-113.0937645087802
 21
-138.22030554858694
 31
0.0
  0
LINE
  5
371
330
17
100
AcDbEntity
  8
0
100
AcDbLine
 10
-113.0937645087802
 20
-138.22030554858694
 30
0.0
 11
-115.67087381704184
 21
-136.2966087583097
 31
0.0
  0
LINE
  5
372
330
17
100
AcDbEntity
  8
0
100
AcDbLine
 10
-115.67087381704184
 20
-136.2966087583097
 30
0.0
 11
-118.12650554142489
 21
-134.22753117198567
 31
0.0
  0
LINE
  5
373
330
17
100
AcDbEntity
  8
0
100
AcDbLine
 10
-118.12650554142489
 20
-134.22753117198567
 30
0.0
 11
-120.45157625456125
 21
-132.0161017795067
 31
0.0
  0
LINE
  5
374
330
17
100
AcDbEntity
  8
0
100
AcDbLine
 10
-120.45157625456125
 20
-132.0161017795067
 30
0.0
 11
-122.65910349532551
 21
-129.68452932520864
 31
0.0
  0
LINE
  5
375
330
17
100
AcDbEntity
  8
0
100
AcDbLine
 10
-122.65910349532551
 20
-129.68452932520864
 30
0.0
 11
-124.76793783098445
 21
-127.26008459691438
 31
0.0
  0
LINE
  5
376
330
17
100
AcDbEntity
  8
0
100
AcDbLine
 10
-124.76793783098445
 20
-127.26008459691438
 30
0.0
 11
-126.79690111033584
 21
-124.76992452075945
 31
0.0
  0
LINE
  5
377
330
17
100
AcDbEntity
  8
0
100
AcDbLine
 10
-126.79690111033584
 20
-124.76992452075945
 30
0.0
 11
-128.76319555943925
 21
-122.23479031243285
 31
0.0
  0
LINE
  5
378
330
17
100
AcDbEntity
  8
0
100
AcDbLine
 10
-128.76319555943925
 20
-122.23479031243285
 30
0.0
 11
-130.68157181261128
 21
-119.66571185029522
 31
0.0
  0
LINE
  5
379
330
17
100
AcDbEntity
  8
0
100
AcDbLine
 10
-130.68157181261128
 20
-119.66571185029522
 30
0.0
 11
-132.5665763429286
 21
-117.07291028153205
 31
0.0
  0
LINE
  5
37A
330
17
100
AcDbEntity
  8
0
100
AcDbLine
 10
-132.5665763429286
 20
-117.07291028153205
 30
0.0
 11
-134.4327556234678
 21
-114.46660675332886
 31
0.0
  0
LINE
  5
37B
330
17
100
AcDbEntity
  8
0
100
AcDbLine
 10
-134.4327556234678
 20
-114.46660675332886
 30
0.0
 11
-136.2943202351691
 21
-111.8567885911134
 31
0.0
  0
LINE
  5
37C
330
17
100
AcDbEntity
  8
0
100
AcDbLine
 10
-136.2943202351691
 20
-111.8567885911134
 30
0.0
 11
-138.15707160175702
 21
-109.24758932468274
 31
0.0
  0
LINE
  5
37D
330
17
100
AcDbEntity
  8
0
100
AcDbLine
 10
-138.15707160175702
 20
-109.24758932468274
 30
0.0
 11
-140.01800368731733
 21
-106.63701142129928
 31
0.0
  0
LINE
  5
37E
330
17
100
AcDbEntity
  8
0
100
AcDbLine
 10
-140.01800368731733
 20
-106.63701142129928
 30
0.0
 11
-141.87369484982977
 21
-104.02276803585507
 31
0.0
  0
LINE
  5
37F
330
17
100
AcDbEntity
  8
0
100
AcDbLine
 10
-141.87369484982977
 20
-104.02276803585507
 30
0.0
 11
-143.72072344727414
 21
-101.40257232324211
 31
0.0
  0
LINE
  5
380
330
17
100
AcDbEntity
  8
0
100
AcDbLine
 10
-143.72072344727414
 20
-101.40257232324211
 30
0.0
 11
-145.55566783763018
 21
-98.77413743835244
 31
0.0
  0
LINE
  5
381
330
17
100
AcDbEntity
  8
0
100
AcDbLine
 10
-145.55566783763018
 20
-98.77413743835244
 30
0.0
 11
-147.37563005903016
 21
-96.13552777768459
 31
0.0
  0
LINE
  5
382
330
17
100
AcDbEntity
  8
0
100
AcDbLine
 10
-147.37563005903016
 20
-96.13552777768459
 30
0.0
 11
-149.180908077033
 21
-93.48695130319098
 31
0.0
  0
LINE
  5
383
330
17
100
AcDbEntity
  8
0
100
AcDbLine
 10
-149.180908077033
 20
-93.48695130319098
 30
0.0
 11
-150.97300527993985
 21
-90.82942447532946
 31
0.0
  0
LINE
  5
384
330
17
100
AcDbEntity
  8
0
100
AcDbLine
 10
-150.97300527993985
 20
-90.82942447532946
 30
0.0
 11
-152.75342727399882
 21
-88.16396524217421
 31
0.0
  0
LINE
  5
385
330
17
100
AcDbEntity
  8
0
100
AcDbLine
 10
-152.75342727399882
 20
-88.16396524217421
 30
0.0
 11
-154.523679665458
 21
-85.49159155179947
 31
0.0
  0
LINE
  5
386
330
17
100
AcDbEntity
  8
0
100
AcDbLine
 10
-154.523679665458
 20
-85.49159155179947
 30
0.0
 11
-156.2852680605654
 21
-82.81332135227959
 31
0.0
  0
LINE
  5
387
330
17
100
AcDbEntity
  8
0
100
AcDbLine
 10
-156.2852680605654
 20
-82.81332135227959
 30
0.0
 11
-158.03924485379602
 21
-80.12990687035217
 31
0.0
  0
LINE
  5
388
330
17
100
AcDbEntity
  8
0
100
AcDbLine
 10
-158.03924485379602
 20
-80.12990687035217
 30
0.0
 11
-159.78333276036844
 21
-77.440148117754
 31
0.0
  0
LINE
  5
389
330
17
100
AcDbEntity
  8
0
100
AcDbLine
 10
-159.78333276036844
 20
-77.440148117754
 30
0.0
 11
-161.51376985127385
 21
-74.74197464858634
 31
0.0
  0
LINE
  5
38A
330
17
100
AcDbEntity
  8
0
100
AcDbLine
 10
-161.51376985127385
 20
-74.74197464858634
 30
0.0
 11
-163.22678735848973
 21
-72.03331200718725
 31
0.0
  0
LINE
  5
38B
330
17
100
AcDbEntity
  8
0
100
AcDbLine
 10
-163.22678735848973
 20
-72.03331200718725
 30
0.0
 11
-164.91861651399353
 21
-69.31208573789496
 31
0.0
  0
LINE
  5
38C
330
17
100
AcDbEntity
  8
0
100
AcDbLine
 10
-164.91861651399353
 20
-69.31208573789496
 30
0.0
 11
-166.58606311745766
 21
-66.5765436765029
 31
0.0
  0
LINE
  5
38D
330
17
100
AcDbEntity
  8
0
100
AcDbLine
 10
-166.58606311745766
 20
-66.5765436765029
 30
0.0
 11
-168.23494900053313
 21
-63.8299910090412
 31
0.0
  0
LINE
  5
38E
330
17
100
AcDbEntity
  8
0
100
AcDbLine
 10
-168.23494900053313
 20
-63.8299910090412
 30
0.0
 11
-169.87825718350928
 21
-61.079749837089935
 31
0.0
  0
LINE
  5
38F
330
17
100
AcDbEntity
  8
0
100
AcDbLine
 10
-169.87825718350928
 20
-61.079749837089935
 30
0.0
 11
-171.52916810545358
 21
-58.33325300006909
 31
0.0
  0
LINE
  5
390
330
17
100
AcDbEntity
  8
0
100
AcDbLine
 10
-171.52916810545358
 20
-58.33325300006909
 30
0.0
 11
-173.20086220543362
 21
-55.59793333739851
 31
0.0
  0
LINE
  5
391
330
17
100
AcDbEntity
  8
0
100
AcDbLine
 10
-173.20086220543362
 20
-55.59793333739851
 30
0.0
 11
-174.9065883746302
 21
-52.881316276092214
 31
0.0
  0
LINE
  5
392
330
17
100
AcDbEntity
  8
0
100
AcDbLine
 10
-174.9065883746302
 20
-52.881316276092214
 30
0.0
 11
-176.66324844766706
 21
-50.1958681752772
 31
0.0
  0
LINE
  5
393
330
17
100
AcDbEntity
  8
0
100
AcDbLine
 10
-176.66324844766706
 20
-50.1958681752772
 30
0.0
 11
-178.49315954835706
 21
-47.56138005614338
 31
0.0
  0
LINE
  5
394
330
17
100
AcDbEntity
  8
0
100
AcDbLine
 10
-178.49315954835706
 20
-47.56138005614338
 30
0.0
 11
-180.41907693763767
 21
-44.99823555945546
 31
0.0
  0
LINE
  5
395
330
17
100
AcDbEntity
  8
0
100
AcDbLine
 10
-180.41907693763767
 20
-44.99823555945546
 30
0.0
 11
-182.4622401432935
 21
-42.52593675074816
 31
0.0
  0
LINE
  5
396
330
17
100
AcDbEntity
  8
0
100
AcDbLine
 10
-182.4622401432935
 20
-42.52593675074816
 30
0.0
 11
-184.62504720487846
 21
-40.153027177372536
 31
0.0
  0
LINE
  5
397
330
17
100
AcDbEntity
  8
0
100
AcDbLine
 10
-184.62504720487846
 20
-40.153027177372536
 30
0.0
 11
-186.89713424101123
 21
-37.88062784442006
 31
0.0
  0
LINE
  5
398
330
17
100
AcDbEntity
  8
0
100
AcDbLine
 10
-186.89713424101123
 20
-37.88062784442006
 30
0.0
 11
-189.26789570383443
 21
-35.70971919980108
 31
0.0
  0
LINE
  5
399
330
17
100
AcDbEntity
  8
0
100
AcDbLine
 10
-189.26789570383443
 20
-35.70971919980108
 30
0.0
 11
-191.72794200259938
 21
-33.641634018017385
 31
0.0
  0
LINE
  5
39A
330
17
100
AcDbEntity
  8
0
100
AcDbLine
 10
-191.72794200259938
 20
-33.641634018017385
 30
0.0
 11
-194.27278344557553
 21
-31.679124831477186
 31
0.0
  0
LINE
  5
39B
330
17
100
AcDbEntity
  8
0
100
AcDbLine
 10
-194.27278344557553
 20
-31.679124831477186
 30
0.0
 11
-196.89916440020735
 21
-29.825301744298855
 31
0.0
  0
LINE
  5
39C
330
17
100
AcDbEntity
  8
0
100
AcDbLine
 10
-196.89916440020735
 20
-29.825301744298855
 30
0.0
 11
-199.60382787861792
 21
-28.083284384067873
 31
0.0
  0
LINE
  5
39D
330
17
100
AcDbEntity
  8
0
100
AcDbLine
 10
-199.60382787861792
 20
-28.083284384067873
 30
0.0
 11
-202.38322643059777
 21
-26.458233347899956
 31
0.0
  0
LINE
  5
39E
330
17
100
AcDbEntity
  8
0
100
AcDbLine
 10
-202.38322643059777
 20
-26.458233347899956
 30
0.0
 11
-205.2331630020496
 21
-24.959873755027132
 31
0.0
  0
LINE
  5
39F
330
17
100
AcDbEntity
  8
0
100
AcDbLine
 10
-205.2331630020496
 20
-24.959873755027132
 30
0.0
 11
-208.1493524034129
 21
-23.598550019423048
 31
0.0
  0
LINE
  5
3A0
330
17
100
AcDbEntity
  8
0
100
AcDbLine
 10
-208.1493524034129
 20
-23.598550019423048
 30
0.0
 11
-211.12748739698395
 21
-22.384519498513217
 31
0.0
  0
LINE
  5
3A1
330
17
100
AcDbEntity
  8
0
100
AcDbLine
 10
-211.12748739698395
 20
-22.384519498513217
 30
0.0
 11
-214.15942909213385
 21
-21.312910362758085
 31
0.0
  0
LINE
  5
3A2
330
17
100
AcDbEntity
  8
0
100
AcDbLine
 10
-214.15942909213385
 20
-21.312910362758085
 30
0.0
 11
-217.228870477841
 21
-20.346599160935252
 31
0.0
  0
LINE
  5
3A3
330
17
100
AcDbEntity
  8
0
100
AcDbLine
 10
-217.228870477841
 20
-20.346599160935252
 30
0.0
 11
-220.31857238300225
 21
-19.444528402835104
 31
0.0
  0
LINE
  5
3A4
330
17
100
AcDbEntity
  8
0
100
AcDbLine
 10
-220.31857238300225
 20
-19.444528402835104
 30
0.0
 11
-223.416202190436
 21
-18.574325246322935
 31
0.0
  0
LINE
  5
3A5
330
17
100
AcDbEntity
  8
0
100
AcDbLine
 10
-223.416202190436
 20
-18.574325246322935
 30
0.0
 11
-226.51603263259562
 21
-17.715308382244302
 31
0.0
  0
LINE
  5
3A6
330
17
100
AcDbEntity
  8
0
100
AcDbLine
 10
-226.51603263259562
 20
-17.715308382244302
 30
0.0
 11
-229.61280197657283
 21
-16.84762050227343
 31
0.0
  0
LINE
  5
3A7
330
17
100
AcDbEntity
  8
0
100
AcDbLine
 10
-229.61280197657283
 20
-16.84762050227343
 30
0.0
 11
-232.70124848945906
 21
-15.951404298084608
 31
0.0
  0
LINE
  5
3A8
330
17
100
AcDbEntity
  8
0
100
AcDbLine
 10
-232.70124848945906
 20
-15.951404298084608
 30
0.0
 11
-235.77682651497
 21
-15.010102354262994
 31
0.0
  0
LINE
  5
3A9
330
17
100
AcDbEntity
  8
0
100
AcDbLine
 10
-235.77682651497
 20
-15.010102354262994
 30
0.0
 11
-238.83854874345946
 21
-14.02355516931915
 31
0.0
  0
LINE
  5
3AA
330
17
100
AcDbEntity
  8
0
100
AcDbLine
 10
-238.83854874345946
 20
-14.02355516931915
 30
0.0
 11
-241.88653105689252
 21
-12.996687075050158
 31
0.0
  0
LINE
  5
3AB
330
17
100
AcDbEntity
  8
0
100
AcDbLine
 10
-241.88653105689252
 20
-12.996687075050158
 30
0.0
 11
-244.9214550018506
 21
-11.934867537229449
 31
0.0
  0
LINE
  5
3AC
330
17
100
AcDbEntity
  8
0
100
AcDbLine
 10
-244.9214550018506
 20
-11.934867537229449
 30
0.0
 11
-247.94698157303708
 21
-10.845803847312887
 31
0.0
  0
LINE
  5
3AD
330
17
100
AcDbEntity
  8
0
100
AcDbLine
 10
-247.94698157303708
 20
-10.845803847312887
 30
0.0
 11
-250.9677159512518
 21
-9.737905645090729
 31
0.0
  0
LINE
  5
3AE
330
17
100
AcDbEntity
  8
0
100
AcDbLine
 10
-250.9677159512518
 20
-9.737905645090729
 30
0.0
 11
-253.9813242492427
 21
-8.606237848821342
 31
0.0
  0
LINE
  5
3AF
330
17
100
AcDbEntity
  8
0
100
AcDbLine
 10
-253.9813242492427
 20
-8.606237848821342
 30
0.0
 11
-256.9701015480477
 21
-7.4163063590071445
 31
0.0
  0
LINE
  5
3B0
330
17
100
AcDbEntity
  8
0
100
AcDbLine
 10
-256.9701015480477
 20
-7.4163063590071445
 30
0.0
 11
-259.91428041108645
 21
-6.129650784489506
 31
0.0
  0
LINE
  5
3B1
330
17
100
AcDbEntity
  8
0
100
AcDbLine
 10
-259.91428041108645
 20
-6.129650784489506
 30
0.0
 11
-262.79409340177887
 21
-4.707810734109791
 31
0.0
  0
LINE
  5
3B2
330
17
100
AcDbEntity
  8
0
100
AcDbLine
 10
-5.999999999999961
 20
-149.143655143334
 30
0.0
 11
-5.999999999999961
 21
-149.238497796372
 31
0.0
  0
LINE
  5
3B3
330
17
100
AcDbEntity
  8
0
100
AcDbLine
 10
-5.999999999999931
 20
-2.99999999999983
 30
0.0
 11
-5.999999999999931
 21
-149.143655143334
 31
0.0
  0
LINE
  5
3B4
330
17
100
AcDbEntity
  8
0
100
AcDbLine
 10
-5.999999999999991
 20
-2.99999999999983
 30
0.0
 11
-15.99999999999993
 21
-2.99999999999983
 31
0.0
  0
ENDSEC
  0
SECTION
  2
OBJECTS
  0
DICTIONARY
  5
A
330
0
100
AcDbDictionary
280
0
281
1
  3
ACAD_COLOR
350
B
  3
ACAD_GROUP
350
C
  3
ACAD_LAYOUT
350
D
  3
ACAD_MATERIAL
350
E
  3
ACAD_MLEADERSTYLE
350
F
  3
ACAD_MLINESTYLE
350
10
  3
ACAD_PLOTSETTINGS
350
11
  3
ACAD_PLOTSTYLENAME
350
12
  3
ACAD_SCALELIST
350
14
  3
ACAD_TABLESTYLE
350
15
  3
ACAD_VISUALSTYLE
350
16
  3
EZDXF_META
350
2D
  0
DICTIONARY
  5
B
330
A
100
AcDbDictionary
280
0
281
1
  0
DICTIONARY
  5
C
330
A
100
AcDbDictionary
280
0
281
1
  0
DICTIONARY
  5
D
330
A
100
AcDbDictionary
280
0
281
1
  3
Model
350
1A
  3
Layout1
350
1E
  0
DICTIONARY
  5
E
330
A
100
AcDbDictionary
280
0
281
1
  3
ByBlock
350
1F
  3
ByLayer
350
20
  3
Global
350
21
  0
DICTIONARY
  5
F
330
A
100
AcDbDictionary
280
0
281
1
  3
Standard
350
2C
  0
DICTIONARY
  5
10
330
A
100
AcDbDictionary
280
0
281
1
  3
Standard
350
22
  0
DICTIONARY
  5
11
330
A
100
AcDbDictionary
280
0
281
1
  0
ACDBDICTIONARYWDFLT
  5
12
330
A
100
AcDbDictionary
280
0
281
1
  3
Normal
350
13
100
AcDbDictionaryWithDefault
340
13
  0
ACDBPLACEHOLDER
  5
13
330
12
  0
DICTIONARY
  5
14
330
A
100
AcDbDictionary
280
0
281
1
  0
DICTIONARY
  5
15
330
A
100
AcDbDictionary
280
0
281
1
  0
DICTIONARY
  5
16
330
A
100
AcDbDictionary
280
0
281
1
  0
LAYOUT
  5
1A
330
D
100
AcDbPlotSettings
  1

  2
Adobe PDF
  4
A3
  6

 40
7.5
 41
20.0
 42
7.5
 43
20.0
 44
420.0
 45
297.0
 46
0.0
 47
0.0
 48
0.0
 49
0.0
140
0.0
141
0.0
142
1.0
143
1.0
 70
1024
 72
1
 73
0
 74
5
  7

 75
16
 76
0
 77
2
 78
300
147
1.0
148
0.0
149
0.0
100
AcDbLayout
  1
Model
 70
1
 71
0
 10
0.0
 20
0.0
 11
420.0
 21
297.0
 12
0.0
 22
0.0
 32
0.0
 14
1e+20
 24
1e+20
 34
1e+20
 15
-1e+20
 25
-1e+20
 35
-1e+20
146
0.0
 13
0.0
 23
0.0
 33
0.0
 16
1.0
 26
0.0
 36
0.0
 17
0.0
 27
1.0
 37
0.0
 76
1
330
17
  0
LAYOUT
  5
1E
330
D
100
AcDbPlotSettings
  1

  2
Adobe PDF
  4
A3
  6

 40
7.5
 41
20.0
 42
7.5
 43
20.0
 44
420.0
 45
297.0
 46
0.0
 47
0.0
 48
0.0
 49
0.0
140
0.0
141
0.0
142
1.0
143
1.0
 70
0
 72
1
 73
0
 74
5
  7

 75
16
 76
0
 77
2
 78
300
147
1.0
148
0.0
149
0.0
100
AcDbLayout
  1
Layout1
 70
1
 71
1
 10
0.0
 20
0.0
 11
420.0
 21
297.0
 12
0.0
 22
0.0
 32
0.0
 14
1e+20
 24
1e+20
 34
1e+20
 15
-1e+20
 25
-1e+20
 35
-1e+20
146
0.0
 13
0.0
 23
0.0
 33
0.0
 16
1.0
 26
0.0
 36
0.0
 17
0.0
 27
1.0
 37
0.0
 76
1
330
1B
  0
MATERIAL
  5
1F
102
{ACAD_REACTORS
330
E
102
}
330
E
100
AcDbMaterial
  1
ByBlock
  2

 70
0
 40
1.0
 71
1
 41
1.0
 91
-1023410177
 42
1.0
 72
1
  3

 73
1
 74
1
 75
1
 44
0.5
 73
0
 45
1.0
 46
1.0
 77
1
  4

 78
1
 79
1
170
1
 48
1.0
171
1
  6

172
1
173
1
174
1
140
1.0
141
1.0
175
1
  7

176
1
177
1
178
1
143
1.0
179
1
  8

270
1
271
1
272
1
145
1.0
146
1.0
273
1
  9

274
1
275
1
276
1
 42
1.0
 72
1
  3

 73
1
 74
1
 75
1
 94
63
  0
MATERIAL
  5
20
102
{ACAD_REACTORS
330
E
102
}
330
E
100
AcDbMaterial
  1
ByLayer
  2

 70
0
 40
1.0
 71
1
 41
1.0
 91
-1023410177
 42
1.0
 72
1
  3

 73
1
 74
1
 75
1
 44
0.5
 73
0
 45
1.0
 46
1.0
 77
1
  4

 78
1
 79
1
170
1
 48
1.0
171
1
  6

172
1
173
1
174
1
140
1.0
141
1.0
175
1
  7

176
1
177
1
178
1
143
1.0
179
1
  8

270
1
271
1
272
1
145
1.0
146
1.0
273
1
  9

274
1
275
1
276
1
 42
1.0
 72
1
  3

 73
1
 74
1
 75
1
 94
63
  0
MATERIAL
  5
21
102
{ACAD_REACTORS
330
E
102
}
330
E
100
AcDbMaterial
  1
Global
  2

 70
0
 40
1.0
 71
1
 41
1.0
 91
-1023410177
 42
1.0
 72
1
  3

 73
1
 74
1
 75
1
 44
0.5
 73
0
 45
1.0
 46
1.0
 77
1
  4

 78
1
 79
1
170
1
 48
1.0
171
1
  6

172
1
173
1
174
1
140
1.0
141
1.0
175
1
  7

176
1
177
1
178
1
143
1.0
179
1
  8

270
1
271
1
272
1
145
1.0
146
1.0
273
1
  9

274
1
275
1
276
1
 42
1.0
 72
1
  3

 73
1
 74
1
 75
1
 94
63
  0
MLINESTYLE
  5
22
102
{ACAD_REACTORS
330
10
102
}
330
10
100
AcDbMlineStyle
  2
Standard
 70
0
  3

 62
256
 51
90.0
 52
90.0
 71
2
 49
0.5
 62
256
  6
BYLAYER
 49
-0.5
 62
256
  6
BYLAYER
  0
MLEADERSTYLE
  5
2C
102
{ACAD_REACTORS
330
F
102
}
330
F
100
AcDbMLeaderStyle
179
2
170
2
171
1
172
0
 90
2
 40
0.0
 41
0.0
173
1
 91
-1056964608
 92
-2
290
1
 42
2.0
291
1
 43
8.0
  3
Standard
 44
4.0
300

342
29
174
1
175
1
176
0
178
1
 93
-1056964608
 45
4.0
292
0
297
0
 46
4.0
 94
-1056964608
 47
1.0
 49
1.0
140
1.0
294
1
141
0.0
177
0
142
1.0
295
0
296
0
143
3.75
271
0
272
9
273
9
  0
DICTIONARY
  5
2D
330
A
100
AcDbDictionary
281
1
  3
CREATED_BY_EZDXF
350
2E
  3
WRITTEN_BY_EZDXF
350
3B7
  0
DICTIONARYVAR
  5
2E
330
2D
100
DictionaryVariables
280
0
  1
1.0.2 @ 2023-11-27T08:45:38.566506+00:00
  0
DICTIONARYVAR
  5
3B7
330
2D
100
DictionaryVariables
280
0
  1
1.0.2 @ 2023-11-27T08:45:38.592321+00:00
  0
ENDSEC
  0
EOF
