  0
SECTION
  2
HEADER
  9
$ACADVER
  1
AC1027
  9
$ACADMAINTVER
 70
105
  9
$DWGCODEPAGE
  3
ANSI_1252
  9
$LASTSAVEDBY
  1
ezdxf
  9
$REQUIREDVERSIONS
160
0
  9
$INSBASE
 10
0.0
 20
0.0
 30
0.0
  9
$EXTMIN
 10
1e+20
 20
1e+20
 30
1e+20
  9
$EXTMAX
 10
-1e+20
 20
-1e+20
 30
-1e+20
  9
$LIMMIN
 10
0.0
 20
0.0
  9
$LIMMAX
 10
420.0
 20
297.0
  9
$ORTHOMODE
 70
0
  9
$REGENMODE
 70
1
  9
$FILLMODE
 70
1
  9
$QTEXTMODE
 70
0
  9
$MIRRTEXT
 70
1
  9
$LTSCALE
 40
1.0
  9
$ATTMODE
 70
1
  9
$TEXTSIZE
 40
2.5
  9
$TRACEWID
 40
1.0
  9
$TEXTSTYLE
  7
Standard
  9
$CLAYER
  8
0
  9
$CELTYPE
  6
ByLayer
  9
$CECOLOR
 62
256
  9
$CELTSCALE
 40
1.0
  9
$DISPSILH
 70
0
  9
$DIMSCALE
 40
1.0
  9
$DIMASZ
 40
2.5
  9
$DIMEXO
 40
0.625
  9
$DIMDLI
 40
3.75
  9
$DIMRND
 40
0.0
  9
$DIMDLE
 40
0.0
  9
$DIMEXE
 40
1.25
  9
$DIMTP
 40
0.0
  9
$DIMTM
 40
0.0
  9
$DIMTXT
 40
2.5
  9
$DIMCEN
 40
2.5
  9
$DIMTSZ
 40
0.0
  9
$DIMTOL
 70
0
  9
$DIMLIM
 70
0
  9
$DIMTIH
 70
0
  9
$DIMTOH
 70
0
  9
$DIMSE1
 70
0
  9
$DIMSE2
 70
0
  9
$DIMTAD
 70
1
  9
$DIMZIN
 70
8
  9
$DIMBLK
  1

  9
$DIMASO
 70
1
  9
$DIMSHO
 70
1
  9
$DIMPOST
  1

  9
$DIMAPOST
  1

  9
$DIMALT
 70
0
  9
$DIMALTD
 70
3
  9
$DIMALTF
 40
0.03937007874
  9
$DIMLFAC
 40
1.0
  9
$DIMTOFL
 70
1
  9
$DIMTVP
 40
0.0
  9
$DIMTIX
 70
0
  9
$DIMSOXD
 70
0
  9
$DIMSAH
 70
0
  9
$DIMBLK1
  1

  9
$DIMBLK2
  1

  9
$DIMSTYLE
  2
ISO-25
  9
$DIMCLRD
 70
0
  9
$DIMCLRE
 70
0
  9
$DIMCLRT
 70
0
  9
$DIMTFAC
 40
1.0
  9
$DIMGAP
 40
0.625
  9
$DIMJUST
 70
0
  9
$DIMSD1
 70
0
  9
$DIMSD2
 70
0
  9
$DIMTOLJ
 70
0
  9
$DIMTZIN
 70
8
  9
$DIMALTZ
 70
0
  9
$DIMALTTZ
 70
0
  9
$DIMUPT
 70
0
  9
$DIMDEC
 70
2
  9
$DIMTDEC
 70
2
  9
$DIMALTU
 70
2
  9
$DIMALTTD
 70
3
  9
$DIMTXSTY
  7
Standard
  9
$DIMAUNIT
 70
0
  9
$DIMADEC
 70
0
  9
$DIMALTRND
 40
0.0
  9
$DIMAZIN
 70
0
  9
$DIMDSEP
 70
44
  9
$DIMATFIT
 70
3
  9
$DIMFRAC
 70
0
  9
$DIMLDRBLK
  1

  9
$DIMLUNIT
 70
2
  9
$DIMLWD
 70
-2
  9
$DIMLWE
 70
-2
  9
$DIMTMOVE
 70
0
  9
$DIMFXL
 40
1.0
  9
$DIMFXLON
 70
0
  9
$DIMJOGANG
 40
0.785398163397
  9
$DIMTFILL
 70
0
  9
$DIMTFILLCLR
 70
0
  9
$DIMARCSYM
 70
0
  9
$DIMLTYPE
  6

  9
$DIMLTEX1
  6

  9
$DIMLTEX2
  6

  9
$DIMTXTDIRECTION
 70
0
  9
$LUNITS
 70
2
  9
$LUPREC
 70
4
  9
$SKETCHINC
 40
1.0
  9
$FILLETRAD
 40
10.0
  9
$AUNITS
 70
0
  9
$AUPREC
 70
2
  9
$MENU
  1
.
  9
$ELEVATION
 40
0.0
  9
$PELEVATION
 40
0.0
  9
$THICKNESS
 40
0.0
  9
$LIMCHECK
 70
0
  9
$CHAMFERA
 40
0.0
  9
$CHAMFERB
 40
0.0
  9
$CHAMFERC
 40
0.0
  9
$CHAMFERD
 40
0.0
  9
$SKPOLY
 70
0
  9
$TDCREATE
 40
2460276.0316435187
  9
$TDUCREATE
 40
2458532.153996898
  9
$TDUPDATE
 40
2460276.0316435187
  9
$TDUUPDATE
 40
2458532.1544311
  9
$TDINDWG
 40
0.0
  9
$TDUSRTIMER
 40
0.0
  9
$USRTIMER
 70
1
  9
$ANGBASE
 50
0.0
  9
$ANGDIR
 70
0
  9
$PDMODE
 70
0
  9
$PDSIZE
 40
0.0
  9
$PLINEWID
 40
0.0
  9
$SPLFRAME
 70
0
  9
$SPLINETYPE
 70
6
  9
$SPLINESEGS
 70
8
  9
$HANDSEED
  5
478
  9
$SURFTAB1
 70
6
  9
$SURFTAB2
 70
6
  9
$SURFTYPE
 70
6
  9
$SURFU
 70
6
  9
$SURFV
 70
6
  9
$UCSBASE
  2

  9
$UCSNAME
  2

  9
$UCSORG
 10
0.0
 20
0.0
 30
0.0
  9
$UCSXDIR
 10
1.0
 20
0.0
 30
0.0
  9
$UCSYDIR
 10
0.0
 20
1.0
 30
0.0
  9
$UCSORTHOREF
  2

  9
$UCSORTHOVIEW
 70
0
  9
$UCSORGTOP
 10
0.0
 20
0.0
 30
0.0
  9
$UCSORGBOTTOM
 10
0.0
 20
0.0
 30
0.0
  9
$UCSORGLEFT
 10
0.0
 20
0.0
 30
0.0
  9
$UCSORGRIGHT
 10
0.0
 20
0.0
 30
0.0
  9
$UCSORGFRONT
 10
0.0
 20
0.0
 30
0.0
  9
$UCSORGBACK
 10
0.0
 20
0.0
 30
0.0
  9
$PUCSBASE
  2

  9
$PUCSNAME
  2

  9
$PUCSORG
 10
0.0
 20
0.0
 30
0.0
  9
$PUCSXDIR
 10
1.0
 20
0.0
 30
0.0
  9
$PUCSYDIR
 10
0.0
 20
1.0
 30
0.0
  9
$PUCSORTHOREF
  2

  9
$PUCSORTHOVIEW
 70
0
  9
$PUCSORGTOP
 10
0.0
 20
0.0
 30
0.0
  9
$PUCSORGBOTTOM
 10
0.0
 20
0.0
 30
0.0
  9
$PUCSORGLEFT
 10
0.0
 20
0.0
 30
0.0
  9
$PUCSORGRIGHT
 10
0.0
 20
0.0
 30
0.0
  9
$PUCSORGFRONT
 10
0.0
 20
0.0
 30
0.0
  9
$PUCSORGBACK
 10
0.0
 20
0.0
 30
0.0
  9
$USERI1
 70
0
  9
$USERI2
 70
0
  9
$USERI3
 70
0
  9
$USERI4
 70
0
  9
$USERI5
 70
0
  9
$USERR1
 40
0.0
  9
$USERR2
 40
0.0
  9
$USERR3
 40
0.0
  9
$USERR4
 40
0.0
  9
$USERR5
 40
0.0
  9
$WORLDVIEW
 70
1
  9
$SHADEDGE
 70
3
  9
$SHADEDIF
 70
70
  9
$TILEMODE
 70
1
  9
$MAXACTVP
 70
64
  9
$PINSBASE
 10
0.0
 20
0.0
 30
0.0
  9
$PLIMCHECK
 70
0
  9
$PEXTMIN
 10
1e+20
 20
1e+20
 30
1e+20
  9
$PEXTMAX
 10
-1e+20
 20
-1e+20
 30
-1e+20
  9
$PLIMMIN
 10
0.0
 20
0.0
  9
$PLIMMAX
 10
420.0
 20
297.0
  9
$UNITMODE
 70
0
  9
$VISRETAIN
 70
1
  9
$PLINEGEN
 70
0
  9
$PSLTSCALE
 70
1
  9
$TREEDEPTH
 70
3020
  9
$CMLSTYLE
  2
Standard
  9
$CMLJUST
 70
0
  9
$CMLSCALE
 40
20.0
  9
$PROXYGRAPHICS
 70
1
  9
$MEASUREMENT
 70
1
  9
$CELWEIGHT
370
-1
  9
$ENDCAPS
280
0
  9
$JOINSTYLE
280
0
  9
$LWDISPLAY
290
0
  9
$INSUNITS
 70
6
  9
$HYPERLINKBASE
  1

  9
$STYLESHEET
  1

  9
$XEDIT
290
1
  9
$CEPSNTYPE
380
0
  9
$PSTYLEMODE
290
1
  9
$FINGERPRINTGUID
  2
{5BE264C6-9BFC-4D3B-946E-55ED25FA6551}
  9
$VERSIONGUID
  2
{553F007C-BABB-47D9-AABD-F01045B91BF5}
  9
$EXTNAMES
290
1
  9
$PSVPSCALE
 40
0.0
  9
$OLESTARTUP
290
0
  9
$SORTENTS
280
127
  9
$INDEXCTL
280
0
  9
$HIDETEXT
280
1
  9
$XCLIPFRAME
280
0
  9
$HALOGAP
280
0
  9
$OBSCOLOR
 70
257
  9
$OBSLTYPE
280
0
  9
$INTERSECTIONDISPLAY
280
0
  9
$INTERSECTIONCOLOR
 70
257
  9
$DIMASSOC
280
2
  9
$PROJECTNAME
  1

  9
$CAMERADISPLAY
290
0
  9
$LENSLENGTH
 40
50.0
  9
$CAMERAHEIGHT
 40
0.0
  9
$STEPSPERSEC
 40
24.0
  9
$STEPSIZE
 40
100.0
  9
$3DDWFPREC
 40
2.0
  9
$PSOLWIDTH
 40
0.005
  9
$PSOLHEIGHT
 40
0.08
  9
$LOFTANG1
 40
1.570796326795
  9
$LOFTANG2
 40
1.570796326795
  9
$LOFTMAG1
 40
0.0
  9
$LOFTMAG2
 40
0.0
  9
$LOFTPARAM
 70
7
  9
$LOFTNORMALS
280
1
  9
$LATITUDE
 40
37.795
  9
$LONGITUDE
 40
-122.394
  9
$NORTHDIRECTION
 40
0.0
  9
$TIMEZONE
 70
-8000
  9
$LIGHTGLYPHDISPLAY
280
1
  9
$TILEMODELIGHTSYNCH
280
1
  9
$CMATERIAL
347
20
  9
$SOLIDHIST
280
0
  9
$SHOWHIST
280
1
  9
$DWFFRAME
280
2
  9
$DGNFRAME
280
2
  9
$REALWORLDSCALE
290
1
  9
$INTERFERECOLOR
 62
256
  9
$CSHADOW
280
0
  9
$SHADOWPLANELOCATION
 40
0.0
  0
ENDSEC
  0
SECTION
  2
CLASSES
  0
CLASS
  1
ACDBDICTIONARYWDFLT
  2
AcDbDictionaryWithDefault
  3
ObjectDBX Classes
 90
0
 91
0
280
0
281
0
  0
CLASS
  1
SUN
  2
AcDbSun
  3
SCENEOE
 90
1153
 91
0
280
0
281
0
  0
CLASS
  1
VISUALSTYLE
  2
AcDbVisualStyle
  3
ObjectDBX Classes
 90
4095
 91
0
280
0
281
0
  0
CLASS
  1
MATERIAL
  2
AcDbMaterial
  3
ObjectDBX Classes
 90
1153
 91
0
280
0
281
0
  0
CLASS
  1
SCALE
  2
AcDbScale
  3
ObjectDBX Classes
 90
1153
 91
0
280
0
281
0
  0
CLASS
  1
TABLESTYLE
  2
AcDbTableStyle
  3
ObjectDBX Classes
 90
4095
 91
0
280
0
281
0
  0
CLASS
  1
MLEADERSTYLE
  2
AcDbMLeaderStyle
  3
ACDB_MLEADERSTYLE_CLASS
 90
4095
 91
0
280
0
281
0
  0
CLASS
  1
DICTIONARYVAR
  2
AcDbDictionaryVar
  3
ObjectDBX Classes
 90
0
 91
0
280
0
281
0
  0
CLASS
  1
CELLSTYLEMAP
  2
AcDbCellStyleMap
  3
ObjectDBX Classes
 90
1152
 91
0
280
0
281
0
  0
CLASS
  1
MENTALRAYRENDERSETTINGS
  2
AcDbMentalRayRenderSettings
  3
SCENEOE
 90
1024
 91
0
280
0
281
0
  0
CLASS
  1
ACDBDETAILVIEWSTYLE
  2
AcDbDetailViewStyle
  3
ObjectDBX Classes
 90
1025
 91
0
280
0
281
0
  0
CLASS
  1
ACDBSECTIONVIEWSTYLE
  2
AcDbSectionViewStyle
  3
ObjectDBX Classes
 90
1025
 91
0
280
0
281
0
  0
CLASS
  1
RASTERVARIABLES
  2
AcDbRasterVariables
  3
ISM
 90
0
 91
0
280
0
281
0
  0
CLASS
  1
ACDBPLACEHOLDER
  2
AcDbPlaceHolder
  3
ObjectDBX Classes
 90
0
 91
0
280
0
281
0
  0
CLASS
  1
LAYOUT
  2
AcDbLayout
  3
ObjectDBX Classes
 90
0
 91
0
280
0
281
0
  0
ENDSEC
  0
SECTION
  2
TABLES
  0
TABLE
  2
VPORT
  5
8
330
0
100
AcDbSymbolTable
 70
1
  0
VPORT
  5
23
330
8
100
AcDbSymbolTableRecord
100
AcDbViewportTableRecord
  2
*Active
 70
0
 10
0.0
 20
0.0
 11
1.0
 21
1.0
 12
0.0
 22
0.0
 13
0.0
 23
0.0
 14
0.5
 24
0.5
 15
0.5
 25
0.5
 16
0.0
 26
0.0
 36
1.0
 17
0.0
 27
0.0
 37
0.0
 40
1000.0
 41
1.34
 42
50.0
 43
0.0
 44
0.0
 50
0.0
 51
0.0
 71
0
 72
1000
 73
1
 74
3
 75
0
 76
0
 77
0
 78
0
281
0
 65
0
146
0.0
  0
ENDTAB
  0
TABLE
  2
LTYPE
  5
2
330
0
100
AcDbSymbolTable
 70
3
  0
LTYPE
  5
24
330
2
100
AcDbSymbolTableRecord
100
AcDbLinetypeTableRecord
  2
ByBlock
 70
0
  3

 72
65
 73
0
 40
0.0
  0
LTYPE
  5
25
330
2
100
AcDbSymbolTableRecord
100
AcDbLinetypeTableRecord
  2
ByLayer
 70
0
  3

 72
65
 73
0
 40
0.0
  0
LTYPE
  5
26
330
2
100
AcDbSymbolTableRecord
100
AcDbLinetypeTableRecord
  2
Continuous
 70
0
  3

 72
65
 73
0
 40
0.0
  0
ENDTAB
  0
TABLE
  2
LAYER
  5
1
330
0
100
AcDbSymbolTable
 70
2
  0
LAYER
  5
27
330
1
100
AcDbSymbolTableRecord
100
AcDbLayerTableRecord
  2
0
 70
0
 62
7
  6
Continuous
370
-3
390
13
347
21
  0
LAYER
  5
28
330
1
100
AcDbSymbolTableRecord
100
AcDbLayerTableRecord
  2
Defpoints
 70
0
 62
7
  6
Continuous
290
0
370
-3
390
13
347
21
  0
ENDTAB
  0
TABLE
  2
STYLE
  5
5
330
0
100
AcDbSymbolTable
 70
1
  0
STYLE
  5
29
330
5
100
AcDbSymbolTableRecord
100
AcDbTextStyleTableRecord
  2
Standard
 70
0
 40
0.0
 41
1.0
 50
0.0
 71
0
 42
2.5
  3
txt
  4

  0
ENDTAB
  0
TABLE
  2
VIEW
  5
7
330
0
100
AcDbSymbolTable
 70
0
  0
ENDTAB
  0
TABLE
  2
UCS
  5
6
330
0
100
AcDbSymbolTable
 70
0
  0
ENDTAB
  0
TABLE
  2
APPID
  5
3
330
0
100
AcDbSymbolTable
 70
3
  0
APPID
  5
2A
330
3
100
AcDbSymbolTableRecord
100
AcDbRegAppTableRecord
  2
ACAD
 70
0
  0
APPID
  5
475
330
3
100
AcDbSymbolTableRecord
100
AcDbRegAppTableRecord
  2
HATCHBACKGROUNDCOLOR
 70
0
  0
APPID
  5
476
330
3
100
AcDbSymbolTableRecord
100
AcDbRegAppTableRecord
  2
EZDXF
 70
0
  0
ENDTAB
  0
TABLE
  2
DIMSTYLE
  5
4
330
0
100
AcDbSymbolTable
 70
1
100
AcDbDimStyleTable
  0
DIMSTYLE
105
2B
330
4
100
AcDbSymbolTableRecord
100
AcDbDimStyleTableRecord
  2
Standard
 70
0
 40
1.0
 41
2.5
 42
0.625
 43
3.75
 44
1.25
 45
0.0
 46
0.0
 47
0.0
 48
0.0
 49
2.5
140
2.5
141
2.5
142
0.0
143
0.03937007874
144
1.0
145
0.0
146
1.0
147
0.625
148
0.0
 69
0
 70
0
 71
0
 72
0
 73
0
 74
0
 75
0
 76
0
 77
1
 78
8
 79
3
170
0
171
3
172
1
173
0
174
0
175
0
176
0
177
0
178
0
179
2
271
2
272
2
273
2
274
3
275
0
276
0
277
2
278
44
279
0
280
0
281
0
282
0
283
0
284
8
285
0
286
0
288
0
289
3
290
0
371
-2
372
-2
  0
ENDTAB
  0
TABLE
  2
BLOCK_RECORD
  5
9
330
0
100
AcDbSymbolTable
 70
2
  0
BLOCK_RECORD
  5
17
330
9
100
AcDbSymbolTableRecord
100
AcDbBlockTableRecord
  2
*Model_Space
340
1A
 70
0
280
1
281
0
  0
BLOCK_RECORD
  5
1B
330
9
100
AcDbSymbolTableRecord
100
AcDbBlockTableRecord
  2
*Paper_Space
340
1E
 70
0
280
1
281
0
  0
ENDTAB
  0
ENDSEC
  0
SECTION
  2
BLOCKS
  0
BLOCK
  5
18
330
17
100
AcDbEntity
  8
0
100
AcDbBlockBegin
  2
*Model_Space
 70
0
 10
0.0
 20
0.0
 30
0.0
  3
*Model_Space
  1

  0
ENDBLK
  5
19
330
17
100
AcDbEntity
  8
0
100
AcDbBlockEnd
  0
BLOCK
  5
1C
330
1B
100
AcDbEntity
  8
0
100
AcDbBlockBegin
  2
*Paper_Space
 70
0
 10
0.0
 20
0.0
 30
0.0
  3
*Paper_Space
  1

  0
ENDBLK
  5
1D
330
1B
100
AcDbEntity
  8
0
100
AcDbBlockEnd
  0
ENDSEC
  0
SECTION
  2
ENTITIES
  0
LINE
  5
2F
330
17
100
AcDbEntity
  8
0
100
AcDbLine
 10
-247.1895314207289
 20
-11.210332137583586
 30
0.0
 11
-247.3173223305278
 21
-11.203974692753516
 31
0.0
  0
LINE
  5
30
330
17
100
AcDbEntity
  8
0
100
AcDbLine
 10
-247.3173223305278
 20
-11.203974692753516
 30
0.0
 11
-247.44500181752872
 21
-11.195675154744121
 31
0.0
  0
LINE
  5
31
330
17
100
AcDbEntity
  8
0
100
AcDbLine
 10
-247.44500181752872
 20
-11.195675154744121
 30
0.0
 11
-247.57254036862122
 21
-11.185435441993425
 31
0.0
  0
LINE
  5
32
330
17
100
AcDbEntity
  8
0
100
AcDbLine
 10
-247.57254036862122
 20
-11.185435441993425
 30
0.0
 11
-247.69990850327216
 21
-11.173257921410793
 31
0.0
  0
LINE
  5
33
330
17
100
AcDbEntity
  8
0
100
AcDbLine
 10
-247.69990850327216
 20
-11.173257921410793
 30
0.0
 11
-247.82707678034004
 21
-11.15914540782983
 31
0.0
  0
LINE
  5
34
330
17
100
AcDbEntity
  8
0
100
AcDbLine
 10
-247.82707678034004
 20
-11.15914540782983
 30
0.0
 11
-247.9540158048806
 21
-11.143101163357727
 31
0.0
  0
LINE
  5
35
330
17
100
AcDbEntity
  8
0
100
AcDbLine
 10
-247.9540158048806
 20
-11.143101163357727
 30
0.0
 11
-248.08069623494123
 21
-11.125128896621225
 31
0.0
  0
LINE
  5
36
330
17
100
AcDbEntity
  8
0
100
AcDbLine
 10
-248.08069623494123
 20
-11.125128896621225
 30
0.0
 11
-248.2070887883434
 21
-11.105232761909368
 31
0.0
  0
LINE
  5
37
330
17
100
AcDbEntity
  8
0
100
AcDbLine
 10
-248.2070887883434
 20
-11.105232761909368
 30
0.0
 11
-248.3331642494513
 21
-11.083417358213243
 31
0.0
  0
LINE
  5
38
330
17
100
AcDbEntity
  8
0
100
AcDbLine
 10
-248.3331642494513
 20
-11.083417358213243
 30
0.0
 11
-248.45889347592495
 21
-11.05968772816291
 31
0.0
  0
LINE
  5
39
330
17
100
AcDbEntity
  8
0
100
AcDbLine
 10
-248.45889347592495
 20
-11.05968772816291
 30
0.0
 11
-248.58424740545658
 21
-11.034049356861813
 31
0.0
  0
LINE
  5
3A
330
17
100
AcDbEntity
  8
0
100
AcDbLine
 10
-248.58424740545658
 20
-11.034049356861813
 30
0.0
 11
-248.70919706248824
 21
-11.00650817061889
 31
0.0
  0
LINE
  5
3B
330
17
100
AcDbEntity
  8
0
100
AcDbLine
 10
-248.70919706248824
 20
-11.00650817061889
 30
0.0
 11
-248.83371356490954
 21
-10.977070535578711
 31
0.0
  0
LINE
  5
3C
330
17
100
AcDbEntity
  8
0
100
AcDbLine
 10
-248.83371356490954
 20
-10.977070535578711
 30
0.0
 11
-248.9577681307338
 21
-10.945743256249942
 31
0.0
  0
LINE
  5
3D
330
17
100
AcDbEntity
  8
0
100
AcDbLine
 10
-248.9577681307338
 20
-10.945743256249942
 30
0.0
 11
-249.081332084751
 21
-10.912533573932482
 31
0.0
  0
LINE
  5
3E
330
17
100
AcDbEntity
  8
0
100
AcDbLine
 10
-249.081332084751
 20
-10.912533573932482
 30
0.0
 11
-249.204376865156
 21
-10.877449165043634
 31
0.0
  0
LINE
  5
3F
330
17
100
AcDbEntity
  8
0
100
AcDbLine
 10
-249.204376865156
 20
-10.877449165043634
 30
0.0
 11
-249.3268740301506
 21
-10.840498139343714
 31
0.0
  0
LINE
  5
40
330
17
100
AcDbEntity
  8
0
100
AcDbLine
 10
-249.3268740301506
 20
-10.840498139343714
 30
0.0
 11
-249.44879526451794
 21
-10.801689038061463
 31
0.0
  0
LINE
  5
41
330
17
100
AcDbEntity
  8
0
100
AcDbLine
 10
-249.44879526451794
 20
-10.801689038061463
 30
0.0
 11
-249.5701123861675
 21
-10.761030831919753
 31
0.0
  0
LINE
  5
42
330
17
100
AcDbEntity
  8
0
100
AcDbLine
 10
-249.5701123861675
 20
-10.761030831919753
 30
0.0
 11
-249.69079735264935
 21
-10.718532919062005
 31
0.0
  0
LINE
  5
43
330
17
100
AcDbEntity
  8
0
100
AcDbLine
 10
-249.69079735264935
 20
-10.718532919062005
 30
0.0
 11
-249.8108222676363
 21
-10.674205122879798
 31
0.0
  0
LINE
  5
44
330
17
100
AcDbEntity
  8
0
100
AcDbLine
 10
-249.8108222676363
 20
-10.674205122879798
 30
0.0
 11
-249.93015938737196
 21
-10.628057689742208
 31
0.0
  0
LINE
  5
45
330
17
100
AcDbEntity
  8
0
100
AcDbLine
 10
-249.93015938737196
 20
-10.628057689742208
 30
0.0
 11
-250.04878112708386
 21
-10.580101286627345
 31
0.0
  0
LINE
  5
46
330
17
100
AcDbEntity
  8
0
100
AcDbLine
 10
-250.04878112708386
 20
-10.580101286627345
 30
0.0
 11
-250.16666006735957
 21
-10.530346998656691
 31
0.0
  0
LINE
  5
47
330
17
100
AcDbEntity
  8
0
100
AcDbLine
 10
-250.16666006735957
 20
-10.530346998656691
 30
0.0
 11
-250.28376896048476
 21
-10.478806326532771
 31
0.0
  0
LINE
  5
48
330
17
100
AcDbEntity
  8
0
100
AcDbLine
 10
-250.28376896048476
 20
-10.478806326532771
 30
0.0
 11
-250.40008073674144
 21
-10.425491183880766
 31
0.0
  0
LINE
  5
49
330
17
100
AcDbEntity
  8
0
100
AcDbLine
 10
-250.40008073674144
 20
-10.425491183880766
 30
0.0
 11
-250.51556851066525
 21
-10.370413894494675
 31
0.0
  0
LINE
  5
4A
330
17
100
AcDbEntity
  8
0
100
AcDbLine
 10
-250.51556851066525
 20
-10.370413894494675
 30
0.0
 11
-250.63020558725984
 21
-10.313587189488684
 31
0.0
  0
LINE
  5
4B
330
17
100
AcDbEntity
  8
0
100
AcDbLine
 10
-250.63020558725984
 20
-10.313587189488684
 30
0.0
 11
-250.7439654681676
 21
-10.255024204354347
 31
0.0
  0
LINE
  5
4C
330
17
100
AcDbEntity
  8
0
100
AcDbLine
 10
-250.7439654681676
 20
-10.255024204354347
 30
0.0
 11
-250.85682185779467
 21
-10.19473847592434
 31
0.0
  0
LINE
  5
4D
330
17
100
AcDbEntity
  8
0
100
AcDbLine
 10
-250.85682185779467
 20
-10.19473847592434
 30
0.0
 11
-250.96874866938916
 21
-10.132743939243406
 31
0.0
  0
LINE
  5
4E
330
17
100
AcDbEntity
  8
0
100
AcDbLine
 10
-250.96874866938916
 20
-10.132743939243406
 30
0.0
 11
-251.07972003107113
 21
-10.06905492434728
 31
0.0
  0
LINE
  5
4F
330
17
100
AcDbEntity
  8
0
100
AcDbLine
 10
-251.07972003107113
 20
-10.06905492434728
 30
0.0
 11
-251.1897102918129
 21
-10.003686152950296
 31
0.0
  0
LINE
  5
50
330
17
100
AcDbEntity
  8
0
100
AcDbLine
 10
-251.1897102918129
 20
-10.003686152950296
 30
0.0
 11
-251.29869402736819
 21
-9.936652735042463
 31
0.0
  0
LINE
  5
51
330
17
100
AcDbEntity
  8
0
100
AcDbLine
 10
-251.29869402736819
 20
-9.936652735042463
 30
0.0
 11
-251.40664604614904
 21
-9.867970165396796
 31
0.0
  0
LINE
  5
52
330
17
100
AcDbEntity
  8
0
100
AcDbLine
 10
-251.40664604614904
 20
-9.867970165396796
 30
0.0
 11
-251.51354139504878
 21
-9.797654319987695
 31
0.0
  0
LINE
  5
53
330
17
100
AcDbEntity
  8
0
100
AcDbLine
 10
-251.51354139504878
 20
-9.797654319987695
 30
0.0
 11
-251.61935536520994
 21
-9.725721452321215
 31
0.0
  0
LINE
  5
54
330
17
100
AcDbEntity
  8
0
100
AcDbLine
 10
-251.61935536520994
 20
-9.725721452321215
 30
0.0
 11
-251.72406349773578
 21
-9.652188189678071
 31
0.0
  0
LINE
  5
55
330
17
100
AcDbEntity
  8
0
100
AcDbLine
 10
-251.72406349773578
 20
-9.652188189678071
 30
0.0
 11
-251.82764158934384
 21
-9.577071529270235
 31
0.0
  0
LINE
  5
56
330
17
100
AcDbEntity
  8
0
100
AcDbLine
 10
-251.82764158934384
 20
-9.577071529270235
 30
0.0
 11
-251.9300656979606
 21
-9.500388834312043
 31
0.0
  0
LINE
  5
57
330
17
100
AcDbEntity
  8
0
100
AcDbLine
 10
-251.9300656979606
 20
-9.500388834312043
 30
0.0
 11
-252.03131214825575
 21
-9.422157830006672
 31
0.0
  0
LINE
  5
58
330
17
100
AcDbEntity
  8
0
100
AcDbLine
 10
-252.03131214825575
 20
-9.422157830006672
 30
0.0
 11
-252.13135753711458
 21
-9.342396599448978
 31
0.0
  0
LINE
  5
59
330
17
100
AcDbEntity
  8
0
100
AcDbLine
 10
-252.13135753711458
 20
-9.342396599448978
 30
0.0
 11
-252.23017873904774
 21
-9.26112357944558
 31
0.0
  0
LINE
  5
5A
330
17
100
AcDbEntity
  8
0
100
AcDbLine
 10
-252.23017873904774
 20
-9.26112357944558
 30
0.0
 11
-252.32775291153672
 21
-9.178357556253188
 31
0.0
  0
LINE
  5
5B
330
17
100
AcDbEntity
  8
0
100
AcDbLine
 10
-252.32775291153672
 20
-9.178357556253188
 30
0.0
 11
-252.42405750031375
 21
-9.094117661236163
 31
0.0
  0
LINE
  5
5C
330
17
100
AcDbEntity
  8
0
100
AcDbLine
 10
-252.42405750031375
 20
-9.094117661236163
 30
0.0
 11
-252.51907024457535
 21
-9.00842336644431
 31
0.0
  0
LINE
  5
5D
330
17
100
AcDbEntity
  8
0
100
AcDbLine
 10
-252.51907024457535
 20
-9.00842336644431
 30
0.0
 11
-252.61276918212786
 21
-8.921294480111909
 31
0.0
  0
LINE
  5
5E
330
17
100
AcDbEntity
  8
0
100
AcDbLine
 10
-252.61276918212786
 20
-8.921294480111909
 30
0.0
 11
-252.705132654464
 21
-8.83275114207904
 31
0.0
  0
LINE
  5
5F
330
17
100
AcDbEntity
  8
0
100
AcDbLine
 10
-252.705132654464
 20
-8.83275114207904
 30
0.0
 11
-252.79613931176928
 21
-8.742813819136256
 31
0.0
  0
LINE
  5
60
330
17
100
AcDbEntity
  8
0
100
AcDbLine
 10
-252.79613931176928
 20
-8.742813819136256
 30
0.0
 11
-252.8857681178569
 21
-8.6515033002937
 31
0.0
  0
LINE
  5
61
330
17
100
AcDbEntity
  8
0
100
AcDbLine
 10
-252.8857681178569
 20
-8.6515033002937
 30
0.0
 11
-252.97399835503043
 21
-8.558840691975705
 31
0.0
  0
LINE
  5
62
330
17
100
AcDbEntity
  8
0
100
AcDbLine
 10
-252.97399835503043
 20
-8.558840691975705
 30
0.0
 11
-253.06080962887256
 21
-8.464847413142065
 31
0.0
  0
LINE
  5
63
330
17
100
AcDbEntity
  8
0
100
AcDbLine
 10
-253.06080962887256
 20
-8.464847413142065
 30
0.0
 11
-253.14618187295935
 21
-8.369545190337028
 31
0.0
  0
LINE
  5
64
330
17
100
AcDbEntity
  8
0
100
AcDbLine
 10
-253.14618187295935
 20
-8.369545190337028
 30
0.0
 11
-253.23009535349848
 21
-8.272956052667212
 31
0.0
  0
LINE
  5
65
330
17
100
AcDbEntity
  8
0
100
AcDbLine
 10
-253.23009535349848
 20
-8.272956052667212
 30
0.0
 11
-253.3125306738909
 21
-8.175102326709574
 31
0.0
  0
LINE
  5
66
330
17
100
AcDbEntity
  8
0
100
AcDbLine
 10
-253.3125306738909
 20
-8.175102326709574
 30
0.0
 11
-253.39346877921417
 21
-8.07600663135063
 31
0.0
  0
LINE
  5
67
330
17
100
AcDbEntity
  8
0
100
AcDbLine
 10
-253.39346877921417
 20
-8.07600663135063
 30
0.0
 11
-253.4728909606271
 21
-7.975691872558091
 31
0.0
  0
LINE
  5
68
330
17
100
AcDbEntity
  8
0
100
AcDbLine
 10
-253.4728909606271
 20
-7.975691872558091
 30
0.0
 11
-253.55077885969425
 21
-7.8741812380861536
 31
0.0
  0
LINE
  5
69
330
17
100
AcDbEntity
  8
0
100
AcDbLine
 10
-253.55077885969425
 20
-7.8741812380861536
 30
0.0
 11
-253.6271144726296
 21
-7.771498192115651
 31
0.0
  0
LINE
  5
6A
330
17
100
AcDbEntity
  8
0
100
AcDbLine
 10
-253.6271144726296
 20
-7.771498192115651
 30
0.0
 11
-253.70188015445788
 21
-7.667666469830305
 31
0.0
  0
LINE
  5
6B
330
17
100
AcDbEntity
  8
0
100
AcDbLine
 10
-253.70188015445788
 20
-7.667666469830305
 30
0.0
 11
-253.7750586230935
 21
-7.5627100719303435
 31
0.0
  0
LINE
  5
6C
330
17
100
AcDbEntity
  8
0
100
AcDbLine
 10
-253.7750586230935
 20
-7.5627100719303435
 30
0.0
 11
-253.84663296333514
 21
-7.456653259084737
 31
0.0
  0
LINE
  5
6D
330
17
100
AcDbEntity
  8
0
100
AcDbLine
 10
-253.84663296333514
 20
-7.456653259084737
 30
0.0
 11
-253.91658663077567
 21
-7.349520546323344
 31
0.0
  0
LINE
  5
6E
330
17
100
AcDbEntity
  8
0
100
AcDbLine
 10
-253.91658663077567
 20
-7.349520546323344
 30
0.0
 11
-253.98490345562644
 21
-7.241336697370265
 31
0.0
  0
LINE
  5
6F
330
17
100
AcDbEntity
  8
0
100
AcDbLine
 10
-253.98490345562644
 20
-7.241336697370265
 30
0.0
 11
-254.05156764645494
 21
-7.132126718919709
 31
0.0
  0
LINE
  5
70
330
17
100
AcDbEntity
  8
0
100
AcDbLine
 10
-254.05156764645494
 20
-7.132126718919709
 30
0.0
 11
-254.11656379383504
 21
-7.02191585485569
 31
0.0
  0
LINE
  5
71
330
17
100
AcDbEntity
  8
0
100
AcDbLine
 10
-254.11656379383504
 20
-7.02191585485569
 30
0.0
 11
-254.1798768739087
 21
-6.910729580416913
 31
0.0
  0
LINE
  5
72
330
17
100
AcDbEntity
  8
0
100
AcDbLine
 10
-254.1798768739087
 20
-6.910729580416913
 30
0.0
 11
-254.241492251859
 21
-6.798593596308166
 31
0.0
  0
LINE
  5
73
330
17
100
AcDbEntity
  8
0
100
AcDbLine
 10
-254.241492251859
 20
-6.798593596308166
 30
0.0
 11
-254.30139568529265
 21
-6.6855338227596075
 31
0.0
  0
LINE
  5
74
330
17
100
AcDbEntity
  8
0
100
AcDbLine
 10
-254.30139568529265
 20
-6.6855338227596075
 30
0.0
 11
-254.35957332753244
 21
-6.571576393535301
 31
0.0
  0
LINE
  5
75
330
17
100
AcDbEntity
  8
0
100
AcDbLine
 10
-254.35957332753244
 20
-6.571576393535301
 30
0.0
 11
-254.41601173081767
 21
-6.456747649892405
 31
0.0
  0
LINE
  5
76
330
17
100
AcDbEntity
  8
0
100
AcDbLine
 10
-254.41601173081767
 20
-6.456747649892405
 30
0.0
 11
-254.47069784941272
 21
-6.341074134492377
 31
0.0
  0
LINE
  5
77
330
17
100
AcDbEntity
  8
0
100
AcDbLine
 10
-254.47069784941272
 20
-6.341074134492377
 30
0.0
 11
-254.52361904262253
 21
-6.224582585265656
 31
0.0
  0
LINE
  5
78
330
17
100
AcDbEntity
  8
0
100
AcDbLine
 10
-254.52361904262253
 20
-6.224582585265656
 30
0.0
 11
-254.5747630777145
 21
-6.10729992923117
 31
0.0
  0
LINE
  5
79
330
17
100
AcDbEntity
  8
0
100
AcDbLine
 10
-254.5747630777145
 20
-6.10729992923117
 30
0.0
 11
-254.6241181327461
 21
-5.989253276272183
 31
0.0
  0
LINE
  5
7A
330
17
100
AcDbEntity
  8
0
100
AcDbLine
 10
-254.6241181327461
 20
-5.989253276272183
 30
0.0
 11
-254.67167279929748
 21
-5.870469912869817
 31
0.0
  0
LINE
  5
7B
330
17
100
AcDbEntity
  8
0
100
AcDbLine
 10
-254.67167279929748
 20
-5.870469912869817
 30
0.0
 11
-254.71741608510857
 21
-5.750977295795798
 31
0.0
  0
LINE
  5
7C
330
17
100
AcDbEntity
  8
0
100
AcDbLine
 10
-254.71741608510857
 20
-5.750977295795798
 30
0.0
 11
-254.7613374166199
 21
-5.630803045765832
 31
0.0
  0
LINE
  5
7D
330
17
100
AcDbEntity
  8
0
100
AcDbLine
 10
-254.7613374166199
 20
-5.630803045765832
 30
0.0
 11
-254.80342664141668
 21
-5.509974941055056
 31
0.0
  0
LINE
  5
7E
330
17
100
AcDbEntity
  8
0
100
AcDbLine
 10
-254.80342664141668
 20
-5.509974941055056
 30
0.0
 11
-254.84367403057558
 21
-5.388520911077107
 31
0.0
  0
LINE
  5
7F
330
17
100
AcDbEntity
  8
0
100
AcDbLine
 10
-254.84367403057558
 20
-5.388520911077107
 30
0.0
 11
-254.8820702809135
 21
-5.266469029928229
 31
0.0
  0
LINE
  5
80
330
17
100
AcDbEntity
  8
0
100
AcDbLine
 10
-254.8820702809135
 20
-5.266469029928229
 30
0.0
 11
-254.91860651713807
 21
-5.143847509897958
 31
0.0
  0
LINE
  5
81
330
17
100
AcDbEntity
  8
0
100
AcDbLine
 10
-254.91860651713807
 20
-5.143847509897958
 30
0.0
 11
-254.9532742938991
 21
-5.020684694947835
 31
0.0
  0
LINE
  5
82
330
17
100
AcDbEntity
  8
0
100
AcDbLine
 10
-254.9532742938991
 20
-5.020684694947835
 30
0.0
 11
-254.98606559774086
 21
-4.897009054159715
 31
0.0
  0
LINE
  5
83
330
17
100
AcDbEntity
  8
0
100
AcDbLine
 10
-254.98606559774086
 20
-4.897009054159715
 30
0.0
 11
-255.0169728489541
 21
-4.772849175155136
 31
0.0
  0
LINE
  5
84
330
17
100
AcDbEntity
  8
0
100
AcDbLine
 10
-255.0169728489541
 20
-4.772849175155136
 30
0.0
 11
-255.04598890332852
 21
-4.64823375748728
 31
0.0
  0
LINE
  5
85
330
17
100
AcDbEntity
  8
0
100
AcDbLine
 10
-255.04598890332852
 20
-4.64823375748728
 30
0.0
 11
-255.07310705380377
 21
-4.523191606007091
 31
0.0
  0
LINE
  5
86
330
17
100
AcDbEntity
  8
0
100
AcDbLine
 10
-255.07310705380377
 20
-4.523191606007091
 30
0.0
 11
-255.09832103201998
 21
-4.397751624205015
 31
0.0
  0
LINE
  5
87
330
17
100
AcDbEntity
  8
0
100
AcDbLine
 10
-255.09832103201998
 20
-4.397751624205015
 30
0.0
 11
-255.12162500976666
 21
-4.271942807529973
 31
0.0
  0
LINE
  5
88
330
17
100
AcDbEntity
  8
0
100
AcDbLine
 10
-255.12162500976666
 20
-4.271942807529973
 30
0.0
 11
-255.1430136003299
 21
-4.145794236687058
 31
0.0
  0
LINE
  5
89
330
17
100
AcDbEntity
  8
0
100
AcDbLine
 10
-255.1430136003299
 20
-4.145794236687058
 30
0.0
 11
-255.16248185973748
 21
-4.019335070915526
 31
0.0
  0
LINE
  5
8A
330
17
100
AcDbEntity
  8
0
100
AcDbLine
 10
-255.16248185973748
 20
-4.019335070915526
 30
0.0
 11
-255.1800252879017
 21
-3.8925945412486547
 31
0.0
  0
LINE
  5
8B
330
17
100
AcDbEntity
  8
0
100
AcDbLine
 10
-255.1800252879017
 20
-3.8925945412486547
 30
0.0
 11
-255.1956398296595
 21
-3.7656019437569674
 31
0.0
  0
LINE
  5
8C
330
17
100
AcDbEntity
  8
0
100
AcDbLine
 10
-255.1956398296595
 20
-3.7656019437569674
 30
0.0
 11
-255.20932187570997
 21
-3.638386632776466
 31
0.0
  0
LINE
  5
8D
330
17
100
AcDbEntity
  8
0
100
AcDbLine
 10
-255.20932187570997
 20
-3.638386632776466
 30
0.0
 11
-255.22106826344844
 21
-3.5109780141233715
 31
0.0
  0
LINE
  5
8E
330
17
100
AcDbEntity
  8
0
100
AcDbLine
 10
-255.22106826344844
 20
-3.5109780141233715
 30
0.0
 11
-255.23087627769766
 21
-3.3834055382969623
 31
0.0
  0
LINE
  5
8F
330
17
100
AcDbEntity
  8
0
100
AcDbLine
 10
-255.23087627769766
 20
-3.3834055382969623
 30
0.0
 11
-255.23874365133534
 21
-3.2556986936721075
 31
0.0
  0
LINE
  5
90
330
17
100
AcDbEntity
  8
0
100
AcDbLine
 10
-255.23874365133534
 20
-3.2556986936721075
 30
0.0
 11
-255.24466856581827
 21
-3.1278869996830094
 31
0.0
  0
LINE
  5
91
330
17
100
AcDbEntity
  8
0
100
AcDbLine
 10
-255.24466856581827
 20
-3.1278869996830094
 30
0.0
 11
-255.24864965160262
 21
-2.9999999999998135
 31
0.0
  0
LINE
  5
92
330
17
100
AcDbEntity
  8
0
100
AcDbLine
 10
-5.999999999999888
 20
-135.16783223062876
 30
0.0
 11
-8.950590163238523
 21
-135.00165349366782
 31
0.0
  0
LINE
  5
93
330
17
100
AcDbEntity
  8
0
100
AcDbLine
 10
-8.950590163238523
 20
-135.00165349366782
 30
0.0
 11
-11.897832750017729
 21
-134.78737831444928
 31
0.0
  0
LINE
  5
94
330
17
100
AcDbEntity
  8
0
100
AcDbLine
 10
-11.897832750017729
 20
-134.78737831444928
 30
0.0
 11
-14.841032034123213
 21
-134.52530420458072
 31
0.0
  0
LINE
  5
95
330
17
100
AcDbEntity
  8
0
100
AcDbLine
 10
-14.841032034123213
 20
-134.52530420458072
 30
0.0
 11
-17.7794922893407
 21
-134.21572867566957
 31
0.0
  0
LINE
  5
96
330
17
100
AcDbEntity
  8
0
100
AcDbLine
 10
-17.7794922893407
 20
-134.21572867566957
 30
0.0
 11
-20.712517789455887
 21
-133.85894923932332
 31
0.0
  0
LINE
  5
97
330
17
100
AcDbEntity
  8
0
100
AcDbLine
 10
-20.712517789455887
 20
-133.85894923932332
 30
0.0
 11
-23.639412808254505
 21
-133.4552634071495
 31
0.0
  0
LINE
  5
98
330
17
100
AcDbEntity
  8
0
100
AcDbLine
 10
-23.639412808254505
 20
-133.4552634071495
 30
0.0
 11
-26.559481619522256
 21
-133.00496869075553
 31
0.0
  0
LINE
  5
99
330
17
100
AcDbEntity
  8
0
100
AcDbLine
 10
-26.559481619522256
 20
-133.00496869075553
 30
0.0
 11
-29.47202849704486
 21
-132.50836260174898
 31
0.0
  0
LINE
  5
9A
330
17
100
AcDbEntity
  8
0
100
AcDbLine
 10
-29.47202849704486
 20
-132.50836260174898
 30
0.0
 11
-32.3763549325651
 21
-131.96573582062953
 31
0.0
  0
LINE
  5
9B
330
17
100
AcDbEntity
  8
0
100
AcDbLine
 10
-32.3763549325651
 20
-131.96573582062953
 30
0.0
 11
-35.27153482310191
 21
-131.37682018530248
 31
0.0
  0
LINE
  5
9C
330
17
100
AcDbEntity
  8
0
100
AcDbLine
 10
-35.27153482310191
 20
-131.37682018530248
 30
0.0
 11
-38.156249118087494
 21
-130.74038267892988
 31
0.0
  0
LINE
  5
9D
330
17
100
AcDbEntity
  8
0
100
AcDbLine
 10
-38.156249118087494
 20
-130.74038267892988
 30
0.0
 11
-41.02913979004482
 21
-130.05509457965601
 31
0.0
  0
LINE
  5
9E
330
17
100
AcDbEntity
  8
0
100
AcDbLine
 10
-41.02913979004482
 20
-130.05509457965601
 30
0.0
 11
-43.88900769887714
 21
-129.32002234559212
 31
0.0
  0
LINE
  5
9F
330
17
100
AcDbEntity
  8
0
100
AcDbLine
 10
-43.88900769887714
 20
-129.32002234559212
 30
0.0
 11
-46.73690880485103
 21
-128.53984125340628
 31
0.0
  0
LINE
  5
A0
330
17
100
AcDbEntity
  8
0
100
AcDbLine
 10
-46.73690880485103
 20
-128.53984125340628
 30
0.0
 11
-49.57557453845311
 21
-127.72339375946895
 31
0.0
  0
LINE
  5
A1
330
17
100
AcDbEntity
  8
0
100
AcDbLine
 10
-49.57557453845311
 20
-127.72339375946895
 30
0.0
 11
-52.406646450931284
 21
-126.87678405002089
 31
0.0
  0
LINE
  5
A2
330
17
100
AcDbEntity
  8
0
100
AcDbLine
 10
-52.406646450931284
 20
-126.87678405002089
 30
0.0
 11
-55.22328404922024
 21
-125.98481312045848
 31
0.0
  0
LINE
  5
A3
330
17
100
AcDbEntity
  8
0
100
AcDbLine
 10
-55.22328404922024
 20
-125.98481312045848
 30
0.0
 11
-58.01479231970392
 21
-125.02260109398807
 31
0.0
  0
LINE
  5
A4
330
17
100
AcDbEntity
  8
0
100
AcDbLine
 10
-58.01479231970392
 20
-125.02260109398807
 30
0.0
 11
-60.77049403435217
 21
-123.96535353953321
 31
0.0
  0
LINE
  5
A5
330
17
100
AcDbEntity
  8
0
100
AcDbLine
 10
-60.77049403435217
 20
-123.96535353953321
 30
0.0
 11
-63.482912195653434
 21
-122.79982819998624
 31
0.0
  0
LINE
  5
A6
330
17
100
AcDbEntity
  8
0
100
AcDbLine
 10
-63.482912195653434
 20
-122.79982819998624
 30
0.0
 11
-66.15018882284444
 21
-121.53306631301676
 31
0.0
  0
LINE
  5
A7
330
17
100
AcDbEntity
  8
0
100
AcDbLine
 10
-66.15018882284444
 20
-121.53306631301676
 30
0.0
 11
-68.77084637003135
 21
-120.17359406219124
 31
0.0
  0
LINE
  5
A8
330
17
100
AcDbEntity
  8
0
100
AcDbLine
 10
-68.77084637003135
 20
-120.17359406219124
 30
0.0
 11
-71.3413995349767
 21
-118.72387585777777
 31
0.0
  0
LINE
  5
A9
330
17
100
AcDbEntity
  8
0
100
AcDbLine
 10
-71.3413995349767
 20
-118.72387585777777
 30
0.0
 11
-73.85715254796727
 21
-117.18272145477813
 31
0.0
  0
LINE
  5
AA
330
17
100
AcDbEntity
  8
0
100
AcDbLine
 10
-73.85715254796727
 20
-117.18272145477813
 30
0.0
 11
-76.31390783714465
 21
-115.54987306800295
 31
0.0
  0
LINE
  5
AB
330
17
100
AcDbEntity
  8
0
100
AcDbLine
 10
-76.31390783714465
 20
-115.54987306800295
 30
0.0
 11
-78.70928119340054
 21
-113.82853435191315
 31
0.0
  0
LINE
  5
AC
330
17
100
AcDbEntity
  8
0
100
AcDbLine
 10
-78.70928119340054
 20
-113.82853435191315
 30
0.0
 11
-81.0412656614156
 21
-112.02264885055368
 31
0.0
  0
LINE
  5
AD
330
17
100
AcDbEntity
  8
0
100
AcDbLine
 10
-81.0412656614156
 20
-112.02264885055368
 30
0.0
 11
-83.3057876665771
 21
-110.1340937952082
 31
0.0
  0
LINE
  5
AE
330
17
100
AcDbEntity
  8
0
100
AcDbLine
 10
-83.3057876665771
 20
-110.1340937952082
 30
0.0
 11
-85.49503268947599
 21
-108.16100602724113
 31
0.0
  0
LINE
  5
AF
330
17
100
AcDbEntity
  8
0
100
AcDbLine
 10
-85.49503268947599
 20
-108.16100602724113
 30
0.0
 11
-87.60337185750174
 21
-106.10341963198577
 31
0.0
  0
LINE
  5
B0
330
17
100
AcDbEntity
  8
0
100
AcDbLine
 10
-87.60337185750174
 20
-106.10341963198577
 30
0.0
 11
-89.64144957373553
 21
-103.97582229124771
 31
0.0
  0
LINE
  5
B1
330
17
100
AcDbEntity
  8
0
100
AcDbLine
 10
-89.64144957373553
 20
-103.97582229124771
 30
0.0
 11
-91.62620180554553
 21
-101.79827598040536
 31
0.0
  0
LINE
  5
B2
330
17
100
AcDbEntity
  8
0
100
AcDbLine
 10
-91.62620180554553
 20
-101.79827598040536
 30
0.0
 11
-93.57044902921787
 21
-99.58564911633164
 31
0.0
  0
LINE
  5
B3
330
17
100
AcDbEntity
  8
0
100
AcDbLine
 10
-93.57044902921787
 20
-99.58564911633164
 30
0.0
 11
-95.47916602292341
 21
-97.34291925548725
 31
0.0
  0
LINE
  5
B4
330
17
100
AcDbEntity
  8
0
100
AcDbLine
 10
-95.47916602292341
 20
-97.34291925548725
 30
0.0
 11
-97.3564500529411
 21
-95.07395769871304
 31
0.0
  0
LINE
  5
B5
330
17
100
AcDbEntity
  8
0
100
AcDbLine
 10
-97.3564500529411
 20
-95.07395769871304
 30
0.0
 11
-99.2063983855499
 21
-92.78263574684988
 31
0.0
  0
LINE
  5
B6
330
17
100
AcDbEntity
  8
0
100
AcDbLine
 10
-99.2063983855499
 20
-92.78263574684988
 30
0.0
 11
-101.0331082870288
 21
-90.4728247007386
 31
0.0
  0
LINE
  5
B7
330
17
100
AcDbEntity
  8
0
100
AcDbLine
 10
-101.0331082870288
 20
-90.4728247007386
 30
0.0
 11
-102.84067699134478
 21
-88.14839583012187
 31
0.0
  0
LINE
  5
B8
330
17
100
AcDbEntity
  8
0
100
AcDbLine
 10
-102.84067699134478
 20
-88.14839583012187
 30
0.0
 11
-104.63240631091354
 21
-85.81245486280415
 31
0.0
  0
LINE
  5
B9
330
17
100
AcDbEntity
  8
0
100
AcDbLine
 10
-104.63240631091354
 20
-85.81245486280415
 30
0.0
 11
-106.40873820983161
 21
-83.4653551070437
 31
0.0
  0
LINE
  5
BA
330
17
100
AcDbEntity
  8
0
100
AcDbLine
 10
-106.40873820983161
 20
-83.4653551070437
 30
0.0
 11
-108.16947215803826
 21
-81.10683151191361
 31
0.0
  0
LINE
  5
BB
330
17
100
AcDbEntity
  8
0
100
AcDbLine
 10
-108.16947215803826
 20
-81.10683151191361
 30
0.0
 11
-109.91440762547272
 21
-78.73661902648689
 31
0.0
  0
LINE
  5
BC
330
17
100
AcDbEntity
  8
0
100
AcDbLine
 10
-109.91440762547272
 20
-78.73661902648689
 30
0.0
 11
-111.64334408207428
 21
-76.35445259983656
 31
0.0
  0
LINE
  5
BD
330
17
100
AcDbEntity
  8
0
100
AcDbLine
 10
-111.64334408207428
 20
-76.35445259983656
 30
0.0
 11
-113.3560809977822
 21
-73.96006718103565
 31
0.0
  0
LINE
  5
BE
330
17
100
AcDbEntity
  8
0
100
AcDbLine
 10
-113.3560809977822
 20
-73.96006718103565
 30
0.0
 11
-115.05239748209125
 21
-71.55319121917134
 31
0.0
  0
LINE
  5
BF
330
17
100
AcDbEntity
  8
0
100
AcDbLine
 10
-115.05239748209125
 20
-71.55319121917134
 30
0.0
 11
-116.73099646361764
 21
-69.1332095971329
 31
0.0
  0
LINE
  5
C0
330
17
100
AcDbEntity
  8
0
100
AcDbLine
 10
-116.73099646361764
 20
-69.1332095971329
 30
0.0
 11
-118.3889914449252
 21
-66.69899978025887
 31
0.0
  0
LINE
  5
C1
330
17
100
AcDbEntity
  8
0
100
AcDbLine
 10
-118.3889914449252
 20
-66.69899978025887
 30
0.0
 11
-120.02336800062682
 21
-64.24939839343004
 31
0.0
  0
LINE
  5
C2
330
17
100
AcDbEntity
  8
0
100
AcDbLine
 10
-120.02336800062682
 20
-64.24939839343004
 30
0.0
 11
-121.63111170533546
 21
-61.78324206152719
 31
0.0
  0
LINE
  5
C3
330
17
100
AcDbEntity
  8
0
100
AcDbLine
 10
-121.63111170533546
 20
-61.78324206152719
 30
0.0
 11
-123.20920813366405
 21
-59.29936740943111
 31
0.0
  0
LINE
  5
C4
330
17
100
AcDbEntity
  8
0
100
AcDbLine
 10
-123.20920813366405
 20
-59.29936740943111
 30
0.0
 11
-124.7546428602255
 21
-56.79661106202261
 31
0.0
  0
LINE
  5
C5
330
17
100
AcDbEntity
  8
0
100
AcDbLine
 10
-124.7546428602255
 20
-56.79661106202261
 30
0.0
 11
-126.26440145963281
 21
-54.273809644182414
 31
0.0
  0
LINE
  5
C6
330
17
100
AcDbEntity
  8
0
100
AcDbLine
 10
-126.26440145963281
 20
-54.273809644182414
 30
0.0
 11
-127.73733309559422
 21
-51.73071037584998
 31
0.0
  0
LINE
  5
C7
330
17
100
AcDbEntity
  8
0
100
AcDbLine
 10
-127.73733309559422
 20
-51.73071037584998
 30
0.0
 11
-129.18486095906792
 21
-49.173204453181526
 31
0.0
  0
LINE
  5
C8
330
17
100
AcDbEntity
  8
0
100
AcDbLine
 10
-129.18486095906792
 20
-49.173204453181526
 30
0.0
 11
-130.62360672948432
 21
-46.60972318051855
 31
0.0
  0
LINE
  5
C9
330
17
100
AcDbEntity
  8
0
100
AcDbLine
 10
-130.62360672948432
 20
-46.60972318051855
 30
0.0
 11
-132.0702085707248
 21
-44.04870591690706
 31
0.0
  0
LINE
  5
CA
330
17
100
AcDbEntity
  8
0
100
AcDbLine
 10
-132.0702085707248
 20
-44.04870591690706
 30
0.0
 11
-133.54130464667077
 21
-41.498592021393094
 31
0.0
  0
LINE
  5
CB
330
17
100
AcDbEntity
  8
0
100
AcDbLine
 10
-133.54130464667077
 20
-41.498592021393094
 30
0.0
 11
-135.0535337493936
 21
-38.967821975715786
 31
0.0
  0
LINE
  5
CC
330
17
100
AcDbEntity
  8
0
100
AcDbLine
 10
-135.0535337493936
 20
-38.967821975715786
 30
0.0
 11
-136.62602602806385
 21
-36.469288783048725
 31
0.0
  0
LINE
  5
CD
330
17
100
AcDbEntity
  8
0
100
AcDbLine
 10
-136.62602602806385
 20
-36.469288783048725
 30
0.0
 11
-138.28605993776185
 21
-34.03044799431504
 31
0.0
  0
LINE
  5
CE
330
17
100
AcDbEntity
  8
0
100
AcDbLine
 10
-138.28605993776185
 20
-34.03044799431504
 30
0.0
 11
-140.06257714225876
 21
-31.68172762566534
 31
0.0
  0
LINE
  5
CF
330
17
100
AcDbEntity
  8
0
100
AcDbLine
 10
-140.06257714225876
 20
-31.68172762566534
 30
0.0
 11
-141.98451030785887
 21
-29.453550423441165
 31
0.0
  0
LINE
  5
D0
330
17
100
AcDbEntity
  8
0
100
AcDbLine
 10
-141.98451030785887
 20
-29.453550423441165
 30
0.0
 11
-144.06973195687257
 21
-27.3698612169393
 31
0.0
  0
LINE
  5
D1
330
17
100
AcDbEntity
  8
0
100
AcDbLine
 10
-144.06973195687257
 20
-27.3698612169393
 30
0.0
 11
-146.3035227576278
 21
-25.435515813960514
 31
0.0
  0
LINE
  5
D2
330
17
100
AcDbEntity
  8
0
100
AcDbLine
 10
-146.3035227576278
 20
-25.435515813960514
 30
0.0
 11
-148.66518967185715
 21
-23.65187122737173
 31
0.0
  0
LINE
  5
D3
330
17
100
AcDbEntity
  8
0
100
AcDbLine
 10
-148.66518967185715
 20
-23.65187122737173
 30
0.0
 11
-151.13411933457093
 21
-22.02029447621406
 31
0.0
  0
LINE
  5
D4
330
17
100
AcDbEntity
  8
0
100
AcDbLine
 10
-151.13411933457093
 20
-22.02029447621406
 30
0.0
 11
-153.69439782472276
 21
-20.542742783128002
 31
0.0
  0
LINE
  5
D5
330
17
100
AcDbEntity
  8
0
100
AcDbLine
 10
-153.69439782472276
 20
-20.542742783128002
 30
0.0
 11
-156.33734918899196
 21
-19.222082387789996
 31
0.0
  0
LINE
  5
D6
330
17
100
AcDbEntity
  8
0
100
AcDbLine
 10
-156.33734918899196
 20
-19.222082387789996
 30
0.0
 11
-159.05491472977135
 21
-18.061257051078506
 31
0.0
  0
LINE
  5
D7
330
17
100
AcDbEntity
  8
0
100
AcDbLine
 10
-159.05491472977135
 20
-18.061257051078506
 30
0.0
 11
-161.8386953319838
 21
-17.064543415279182
 31
0.0
  0
LINE
  5
D8
330
17
100
AcDbEntity
  8
0
100
AcDbLine
 10
-161.8386953319838
 20
-17.064543415279182
 30
0.0
 11
-164.67855360878556
 21
-16.243024207336305
 31
0.0
  0
LINE
  5
D9
330
17
100
AcDbEntity
  8
0
100
AcDbLine
 10
-164.67855360878556
 20
-16.243024207336305
 30
0.0
 11
-167.56378903381122
 21
-15.609726343307425
 31
0.0
  0
LINE
  5
DA
330
17
100
AcDbEntity
  8
0
100
AcDbLine
 10
-167.56378903381122
 20
-15.609726343307425
 30
0.0
 11
-170.4827551561578
 21
-15.156081341225919
 31
0.0
  0
LINE
  5
DB
330
17
100
AcDbEntity
  8
0
100
AcDbLine
 10
-170.4827551561578
 20
-15.156081341225919
 30
0.0
 11
-173.42208277261847
 21
-14.834178996077481
 31
0.0
  0
LINE
  5
DC
330
17
100
AcDbEntity
  8
0
100
AcDbLine
 10
-173.42208277261847
 20
-14.834178996077481
 30
0.0
 11
-176.36886125364384
 21
-14.593697611825391
 31
0.0
  0
LINE
  5
DD
330
17
100
AcDbEntity
  8
0
100
AcDbLine
 10
-176.36886125364384
 20
-14.593697611825391
 30
0.0
 11
-179.31762200892527
 21
-14.404797978395106
 31
0.0
  0
LINE
  5
DE
330
17
100
AcDbEntity
  8
0
100
AcDbLine
 10
-179.31762200892527
 20
-14.404797978395106
 30
0.0
 11
-182.26769055431973
 21
-14.250835550381233
 31
0.0
  0
LINE
  5
DF
330
17
100
AcDbEntity
  8
0
100
AcDbLine
 10
-182.26769055431973
 20
-14.250835550381233
 30
0.0
 11
-185.21847198417305
 21
-14.115384803701996
 31
0.0
  0
LINE
  5
E0
330
17
100
AcDbEntity
  8
0
100
AcDbLine
 10
-185.21847198417305
 20
-14.115384803701996
 30
0.0
 11
-188.16937139283127
 21
-13.982020214275611
 31
0.0
  0
LINE
  5
E1
330
17
100
AcDbEntity
  8
0
100
AcDbLine
 10
-188.16937139283127
 20
-13.982020214275611
 30
0.0
 11
-191.1199058872293
 21
-13.837418266420437
 31
0.0
  0
LINE
  5
E2
330
17
100
AcDbEntity
  8
0
100
AcDbLine
 10
-191.1199058872293
 20
-13.837418266420437
 30
0.0
 11
-194.07012140697464
 21
-13.68290061431252
 31
0.0
  0
LINE
  5
E3
330
17
100
AcDbEntity
  8
0
100
AcDbLine
 10
-194.07012140697464
 20
-13.68290061431252
 30
0.0
 11
-197.0202198091249
 21
-13.524106795010733
 31
0.0
  0
LINE
  5
E4
330
17
100
AcDbEntity
  8
0
100
AcDbLine
 10
-197.0202198091249
 20
-13.524106795010733
 30
0.0
 11
-199.97040293701306
 21
-13.366675966873743
 31
0.0
  0
LINE
  5
E5
330
17
100
AcDbEntity
  8
0
100
AcDbLine
 10
-199.97040293701306
 20
-13.366675966873743
 30
0.0
 11
-202.920818724974
 21
-13.214756447499749
 31
0.0
  0
LINE
  5
E6
330
17
100
AcDbEntity
  8
0
100
AcDbLine
 10
-202.920818724974
 20
-13.214756447499749
 30
0.0
 11
-205.87145289192085
 21
-13.068010524820608
 31
0.0
  0
LINE
  5
E7
330
17
100
AcDbEntity
  8
0
100
AcDbLine
 10
-205.87145289192085
 20
-13.068010524820608
 30
0.0
 11
-208.82226076938667
 21
-12.92526013086359
 31
0.0
  0
LINE
  5
E8
330
17
100
AcDbEntity
  8
0
100
AcDbLine
 10
-208.82226076938667
 20
-12.92526013086359
 30
0.0
 11
-211.77319768890465
 21
-12.785327197655954
 31
0.0
  0
LINE
  5
E9
330
17
100
AcDbEntity
  8
0
100
AcDbLine
 10
-211.77319768890465
 20
-12.785327197655954
 30
0.0
 11
-214.7242193912701
 21
-12.647045163001179
 31
0.0
  0
LINE
  5
EA
330
17
100
AcDbEntity
  8
0
100
AcDbLine
 10
-214.7242193912701
 20
-12.647045163001179
 30
0.0
 11
-217.6753005682825
 21
-12.50978024277847
 31
0.0
  0
LINE
  5
EB
330
17
100
AcDbEntity
  8
0
100
AcDbLine
 10
-217.6753005682825
 20
-12.50978024277847
 30
0.0
 11
-220.6264424494882
 21
-12.373644720470429
 31
0.0
  0
LINE
  5
EC
330
17
100
AcDbEntity
  8
0
100
AcDbLine
 10
-220.6264424494882
 20
-12.373644720470429
 30
0.0
 11
-223.57764824517832
 21
-12.238806565114512
 31
0.0
  0
LINE
  5
ED
330
17
100
AcDbEntity
  8
0
100
AcDbLine
 10
-223.57764824517832
 20
-12.238806565114512
 30
0.0
 11
-226.52892116564368
 21
-12.105433745748194
 31
0.0
  0
LINE
  5
EE
330
17
100
AcDbEntity
  8
0
100
AcDbLine
 10
-226.52892116564368
 20
-12.105433745748194
 30
0.0
 11
-229.48026383892014
 21
-11.973672097207967
 31
0.0
  0
LINE
  5
EF
330
17
100
AcDbEntity
  8
0
100
AcDbLine
 10
-229.48026383892014
 20
-11.973672097207967
 30
0.0
 11
-232.43167365350408
 21
-11.8434682753281
 31
0.0
  0
LINE
  5
F0
330
17
100
AcDbEntity
  8
0
100
AcDbLine
 10
-232.43167365350408
 20
-11.8434682753281
 30
0.0
 11
-235.38314522550618
 21
-11.714663544790795
 31
0.0
  0
LINE
  5
F1
330
17
100
AcDbEntity
  8
0
100
AcDbLine
 10
-235.38314522550618
 20
-11.714663544790795
 30
0.0
 11
-238.33467314580315
 21
-11.58709821101917
 31
0.0
  0
LINE
  5
F2
330
17
100
AcDbEntity
  8
0
100
AcDbLine
 10
-238.33467314580315
 20
-11.58709821101917
 30
0.0
 11
-241.28625199553431
 21
-11.46061267233968
 31
0.0
  0
LINE
  5
F3
330
17
100
AcDbEntity
  8
0
100
AcDbLine
 10
-241.28625199553431
 20
-11.46061267233968
 30
0.0
 11
-244.23787481301372
 21
-11.33506204741264
 31
0.0
  0
LINE
  5
F4
330
17
100
AcDbEntity
  8
0
100
AcDbLine
 10
-244.23787481301372
 20
-11.33506204741264
 30
0.0
 11
-247.1895314207289
 21
-11.210332137583398
 31
0.0
  0
LINE
  5
F5
330
17
100
AcDbEntity
  8
0
100
AcDbLine
 10
-5.9999999999999005
 20
135.167832230629
 30
0.0
 11
-5.9999999999999005
 21
-135.167832230629
 31
0.0
  0
LINE
  5
F6
330
17
100
AcDbEntity
  8
0
100
AcDbLine
 10
-5.999999999999893
 20
135.16783223062913
 30
0.0
 11
-8.950590163238626
 21
135.00165349366827
 31
0.0
  0
LINE
  5
F7
330
17
100
AcDbEntity
  8
0
100
AcDbLine
 10
-8.950590163238626
 20
135.00165349366827
 30
0.0
 11
-11.897832750017932
 21
134.78737831444982
 31
0.0
  0
LINE
  5
F8
330
17
100
AcDbEntity
  8
0
100
AcDbLine
 10
-11.897832750017932
 20
134.78737831444982
 30
0.0
 11
-14.841032034123517
 21
134.52530420458123
 31
0.0
  0
LINE
  5
F9
330
17
100
AcDbEntity
  8
0
100
AcDbLine
 10
-14.841032034123517
 20
134.52530420458123
 30
0.0
 11
-17.779492289341103
 21
134.21572867567005
 31
0.0
  0
LINE
  5
FA
330
17
100
AcDbEntity
  8
0
100
AcDbLine
 10
-17.779492289341103
 20
134.21572867567005
 30
0.0
 11
-20.7125177894564
 21
133.85894923932375
 31
0.0
  0
LINE
  5
FB
330
17
100
AcDbEntity
  8
0
100
AcDbLine
 10
-20.7125177894564
 20
133.85894923932375
 30
0.0
 11
-23.639412808255123
 21
133.45526340714986
 31
0.0
  0
LINE
  5
FC
330
17
100
AcDbEntity
  8
0
100
AcDbLine
 10
-23.639412808255123
 20
133.45526340714986
 30
0.0
 11
-26.55948161952297
 21
133.00496869075587
 31
0.0
  0
LINE
  5
FD
330
17
100
AcDbEntity
  8
0
100
AcDbLine
 10
-26.55948161952297
 20
133.00496869075587
 30
0.0
 11
-29.472028497045685
 21
132.5083626017493
 31
0.0
  0
LINE
  5
FE
330
17
100
AcDbEntity
  8
0
100
AcDbLine
 10
-29.472028497045685
 20
132.5083626017493
 30
0.0
 11
-32.37635493256603
 21
131.9657358206299
 31
0.0
  0
LINE
  5
FF
330
17
100
AcDbEntity
  8
0
100
AcDbLine
 10
-32.37635493256603
 20
131.9657358206299
 30
0.0
 11
-35.27153482310294
 21
131.3768201853029
 31
0.0
  0
LINE
  5
100
330
17
100
AcDbEntity
  8
0
100
AcDbLine
 10
-35.27153482310294
 20
131.3768201853029
 30
0.0
 11
-38.15624911808863
 21
130.74038267893033
 31
0.0
  0
LINE
  5
101
330
17
100
AcDbEntity
  8
0
100
AcDbLine
 10
-38.15624911808863
 20
130.74038267893033
 30
0.0
 11
-41.029139790046074
 21
130.05509457965644
 31
0.0
  0
LINE
  5
102
330
17
100
AcDbEntity
  8
0
100
AcDbLine
 10
-41.029139790046074
 20
130.05509457965644
 30
0.0
 11
-43.889007698878494
 21
129.3200223455924
 31
0.0
  0
LINE
  5
103
330
17
100
AcDbEntity
  8
0
100
AcDbLine
 10
-43.889007698878494
 20
129.3200223455924
 30
0.0
 11
-46.736908804852504
 21
128.53984125340634
 31
0.0
  0
LINE
  5
104
330
17
100
AcDbEntity
  8
0
100
AcDbLine
 10
-46.736908804852504
 20
128.53984125340634
 30
0.0
 11
-49.5755745384547
 21
127.72339375946883
 31
0.0
  0
LINE
  5
105
330
17
100
AcDbEntity
  8
0
100
AcDbLine
 10
-49.5755745384547
 20
127.72339375946883
 30
0.0
 11
-52.40664645093296
 21
126.87678405002076
 31
0.0
  0
LINE
  5
106
330
17
100
AcDbEntity
  8
0
100
AcDbLine
 10
-52.40664645093296
 20
126.87678405002076
 30
0.0
 11
-55.223284049222
 21
125.98481312045843
 31
0.0
  0
LINE
  5
107
330
17
100
AcDbEntity
  8
0
100
AcDbLine
 10
-55.223284049222
 20
125.98481312045843
 30
0.0
 11
-58.01479231970574
 21
125.02260109398804
 31
0.0
  0
LINE
  5
108
330
17
100
AcDbEntity
  8
0
100
AcDbLine
 10
-58.01479231970574
 20
125.02260109398804
 30
0.0
 11
-60.77049403435405
 21
123.96535353953307
 31
0.0
  0
LINE
  5
109
330
17
100
AcDbEntity
  8
0
100
AcDbLine
 10
-60.77049403435405
 20
123.96535353953307
 30
0.0
 11
-63.48291219565538
 21
122.79982819998582
 31
0.0
  0
LINE
  5
10A
330
17
100
AcDbEntity
  8
0
100
AcDbLine
 10
-63.48291219565538
 20
122.79982819998582
 30
0.0
 11
-66.15018882284646
 21
121.53306631301608
 31
0.0
  0
LINE
  5
10B
330
17
100
AcDbEntity
  8
0
100
AcDbLine
 10
-66.15018882284646
 20
121.53306631301608
 30
0.0
 11
-68.77084637003341
 21
120.1735940621905
 31
0.0
  0
LINE
  5
10C
330
17
100
AcDbEntity
  8
0
100
AcDbLine
 10
-68.77084637003341
 20
120.1735940621905
 30
0.0
 11
-71.3413995349788
 21
118.72387585777709
 31
0.0
  0
LINE
  5
10D
330
17
100
AcDbEntity
  8
0
100
AcDbLine
 10
-71.3413995349788
 20
118.72387585777709
 30
0.0
 11
-73.85715254796946
 21
117.18272145477741
 31
0.0
  0
LINE
  5
10E
330
17
100
AcDbEntity
  8
0
100
AcDbLine
 10
-73.85715254796946
 20
117.18272145477741
 30
0.0
 11
-76.3139078371469
 21
115.54987306800199
 31
0.0
  0
LINE
  5
10F
330
17
100
AcDbEntity
  8
0
100
AcDbLine
 10
-76.3139078371469
 20
115.54987306800199
 30
0.0
 11
-78.70928119340283
 21
113.82853435191187
 31
0.0
  0
LINE
  5
110
330
17
100
AcDbEntity
  8
0
100
AcDbLine
 10
-78.70928119340283
 20
113.82853435191187
 30
0.0
 11
-81.04126566141788
 21
112.02264885055224
 31
0.0
  0
LINE
  5
111
330
17
100
AcDbEntity
  8
0
100
AcDbLine
 10
-81.04126566141788
 20
112.02264885055224
 30
0.0
 11
-83.30578766657939
 21
110.1340937952068
 31
0.0
  0
LINE
  5
112
330
17
100
AcDbEntity
  8
0
100
AcDbLine
 10
-83.30578766657939
 20
110.1340937952068
 30
0.0
 11
-85.49503268947824
 21
108.16100602723976
 31
0.0
  0
LINE
  5
113
330
17
100
AcDbEntity
  8
0
100
AcDbLine
 10
-85.49503268947824
 20
108.16100602723976
 30
0.0
 11
-87.60337185750396
 21
106.10341963198431
 31
0.0
  0
LINE
  5
114
330
17
100
AcDbEntity
  8
0
100
AcDbLine
 10
-87.60337185750396
 20
106.10341963198431
 30
0.0
 11
-89.64144957373773
 21
103.97582229124602
 31
0.0
  0
LINE
  5
115
330
17
100
AcDbEntity
  8
0
100
AcDbLine
 10
-89.64144957373773
 20
103.97582229124602
 30
0.0
 11
-91.62620180554775
 21
101.79827598040342
 31
0.0
  0
LINE
  5
116
330
17
100
AcDbEntity
  8
0
100
AcDbLine
 10
-91.62620180554775
 20
101.79827598040342
 30
0.0
 11
-93.57044902922013
 21
99.58564911632948
 31
0.0
  0
LINE
  5
117
330
17
100
AcDbEntity
  8
0
100
AcDbLine
 10
-93.57044902922013
 20
99.58564911632948
 30
0.0
 11
-95.4791660229257
 21
97.3429192554849
 31
0.0
  0
LINE
  5
118
330
17
100
AcDbEntity
  8
0
100
AcDbLine
 10
-95.4791660229257
 20
97.3429192554849
 30
0.0
 11
-97.35645005294342
 21
95.07395769871053
 31
0.0
  0
LINE
  5
119
330
17
100
AcDbEntity
  8
0
100
AcDbLine
 10
-97.35645005294342
 20
95.07395769871053
 30
0.0
 11
-99.20639838555226
 21
92.78263574684723
 31
0.0
  0
LINE
  5
11A
330
17
100
AcDbEntity
  8
0
100
AcDbLine
 10
-99.20639838555226
 20
92.78263574684723
 30
0.0
 11
-101.0331082870312
 21
90.47282470073583
 31
0.0
  0
LINE
  5
11B
330
17
100
AcDbEntity
  8
0
100
AcDbLine
 10
-101.0331082870312
 20
90.47282470073583
 30
0.0
 11
-102.84067699134722
 21
88.148395830119
 31
0.0
  0
LINE
  5
11C
330
17
100
AcDbEntity
  8
0
100
AcDbLine
 10
-102.84067699134722
 20
88.148395830119
 30
0.0
 11
-104.63240631091605
 21
85.81245486280115
 31
0.0
  0
LINE
  5
11D
330
17
100
AcDbEntity
  8
0
100
AcDbLine
 10
-104.63240631091605
 20
85.81245486280115
 30
0.0
 11
-106.40873820983417
 21
83.46535510704061
 31
0.0
  0
LINE
  5
11E
330
17
100
AcDbEntity
  8
0
100
AcDbLine
 10
-106.40873820983417
 20
83.46535510704061
 30
0.0
 11
-108.16947215804085
 21
81.10683151191041
 31
0.0
  0
LINE
  5
11F
330
17
100
AcDbEntity
  8
0
100
AcDbLine
 10
-108.16947215804085
 20
81.10683151191041
 30
0.0
 11
-109.91440762547536
 21
78.73661902648357
 31
0.0
  0
LINE
  5
120
330
17
100
AcDbEntity
  8
0
100
AcDbLine
 10
-109.91440762547536
 20
78.73661902648357
 30
0.0
 11
-111.64334408207696
 21
76.35445259983314
 31
0.0
  0
LINE
  5
121
330
17
100
AcDbEntity
  8
0
100
AcDbLine
 10
-111.64334408207696
 20
76.35445259983314
 30
0.0
 11
-113.3560809977849
 21
73.96006718103214
 31
0.0
  0
LINE
  5
122
330
17
100
AcDbEntity
  8
0
100
AcDbLine
 10
-113.3560809977849
 20
73.96006718103214
 30
0.0
 11
-115.05239748209401
 21
71.55319121916772
 31
0.0
  0
LINE
  5
123
330
17
100
AcDbEntity
  8
0
100
AcDbLine
 10
-115.05239748209401
 20
71.55319121916772
 30
0.0
 11
-116.73099646362043
 21
69.13320959712917
 31
0.0
  0
LINE
  5
124
330
17
100
AcDbEntity
  8
0
100
AcDbLine
 10
-116.73099646362043
 20
69.13320959712917
 30
0.0
 11
-118.388991444928
 21
66.69899978025501
 31
0.0
  0
LINE
  5
125
330
17
100
AcDbEntity
  8
0
100
AcDbLine
 10
-118.388991444928
 20
66.69899978025501
 30
0.0
 11
-120.02336800062965
 21
64.24939839342606
 31
0.0
  0
LINE
  5
126
330
17
100
AcDbEntity
  8
0
100
AcDbLine
 10
-120.02336800062965
 20
64.24939839342606
 30
0.0
 11
-121.63111170533828
 21
61.7832420615231
 31
0.0
  0
LINE
  5
127
330
17
100
AcDbEntity
  8
0
100
AcDbLine
 10
-121.63111170533828
 20
61.7832420615231
 30
0.0
 11
-123.20920813366688
 21
59.29936740942689
 31
0.0
  0
LINE
  5
128
330
17
100
AcDbEntity
  8
0
100
AcDbLine
 10
-123.20920813366688
 20
59.29936740942689
 30
0.0
 11
-124.75464286022833
 21
56.79661106201827
 31
0.0
  0
LINE
  5
129
330
17
100
AcDbEntity
  8
0
100
AcDbLine
 10
-124.75464286022833
 20
56.79661106201827
 30
0.0
 11
-126.26440145963562
 21
54.273809644177945
 31
0.0
  0
LINE
  5
12A
330
17
100
AcDbEntity
  8
0
100
AcDbLine
 10
-126.26440145963562
 20
54.273809644177945
 30
0.0
 11
-127.73733309559702
 21
51.73071037584536
 31
0.0
  0
LINE
  5
12B
330
17
100
AcDbEntity
  8
0
100
AcDbLine
 10
-127.73733309559702
 20
51.73071037584536
 30
0.0
 11
-129.18486095907073
 21
49.17320445317682
 31
0.0
  0
LINE
  5
12C
330
17
100
AcDbEntity
  8
0
100
AcDbLine
 10
-129.18486095907073
 20
49.17320445317682
 30
0.0
 11
-130.6236067294872
 21
46.609723180513726
 31
0.0
  0
LINE
  5
12D
330
17
100
AcDbEntity
  8
0
100
AcDbLine
 10
-130.6236067294872
 20
46.609723180513726
 30
0.0
 11
-132.07020857072774
 21
44.04870591690219
 31
0.0
  0
LINE
  5
12E
330
17
100
AcDbEntity
  8
0
100
AcDbLine
 10
-132.07020857072774
 20
44.04870591690219
 30
0.0
 11
-133.54130464667384
 21
41.49859202138815
 31
0.0
  0
LINE
  5
12F
330
17
100
AcDbEntity
  8
0
100
AcDbLine
 10
-133.54130464667384
 20
41.49859202138815
 30
0.0
 11
-135.05353374939685
 21
38.96782197571081
 31
0.0
  0
LINE
  5
130
330
17
100
AcDbEntity
  8
0
100
AcDbLine
 10
-135.05353374939685
 20
38.96782197571081
 30
0.0
 11
-136.6260260280673
 21
36.469288783043766
 31
0.0
  0
LINE
  5
131
330
17
100
AcDbEntity
  8
0
100
AcDbLine
 10
-136.6260260280673
 20
36.469288783043766
 30
0.0
 11
-138.28605993776557
 21
34.03044799431017
 31
0.0
  0
LINE
  5
132
330
17
100
AcDbEntity
  8
0
100
AcDbLine
 10
-138.28605993776557
 20
34.03044799431017
 30
0.0
 11
-140.06257714226285
 21
31.681727625660628
 31
0.0
  0
LINE
  5
133
330
17
100
AcDbEntity
  8
0
100
AcDbLine
 10
-140.06257714226285
 20
31.681727625660628
 30
0.0
 11
-141.98451030786336
 21
29.453550423436685
 31
0.0
  0
LINE
  5
134
330
17
100
AcDbEntity
  8
0
100
AcDbLine
 10
-141.98451030786336
 20
29.453550423436685
 30
0.0
 11
-144.06973195687752
 21
27.369861216935053
 31
0.0
  0
LINE
  5
135
330
17
100
AcDbEntity
  8
0
100
AcDbLine
 10
-144.06973195687752
 20
27.369861216935053
 30
0.0
 11
-146.30352275763315
 21
25.435515813956542
 31
0.0
  0
LINE
  5
136
330
17
100
AcDbEntity
  8
0
100
AcDbLine
 10
-146.30352275763315
 20
25.435515813956542
 30
0.0
 11
-148.66518967186286
 21
23.65187122736802
 31
0.0
  0
LINE
  5
137
330
17
100
AcDbEntity
  8
0
100
AcDbLine
 10
-148.66518967186286
 20
23.65187122736802
 30
0.0
 11
-151.13411933457695
 21
22.020294476210648
 31
0.0
  0
LINE
  5
138
330
17
100
AcDbEntity
  8
0
100
AcDbLine
 10
-151.13411933457695
 20
22.020294476210648
 30
0.0
 11
-153.6943978247291
 21
20.542742783124904
 31
0.0
  0
LINE
  5
139
330
17
100
AcDbEntity
  8
0
100
AcDbLine
 10
-153.6943978247291
 20
20.542742783124904
 30
0.0
 11
-156.3373491889986
 21
19.22208238778724
 31
0.0
  0
LINE
  5
13A
330
17
100
AcDbEntity
  8
0
100
AcDbLine
 10
-156.3373491889986
 20
19.22208238778724
 30
0.0
 11
-159.05491472977826
 21
18.061257051076105
 31
0.0
  0
LINE
  5
13B
330
17
100
AcDbEntity
  8
0
100
AcDbLine
 10
-159.05491472977826
 20
18.061257051076105
 30
0.0
 11
-161.83869533199098
 21
17.06454341527716
 31
0.0
  0
LINE
  5
13C
330
17
100
AcDbEntity
  8
0
100
AcDbLine
 10
-161.83869533199098
 20
17.06454341527716
 30
0.0
 11
-164.67855360879295
 21
16.243024207334727
 31
0.0
  0
LINE
  5
13D
330
17
100
AcDbEntity
  8
0
100
AcDbLine
 10
-164.67855360879295
 20
16.243024207334727
 30
0.0
 11
-167.56378903381884
 21
15.609726343306319
 31
0.0
  0
LINE
  5
13E
330
17
100
AcDbEntity
  8
0
100
AcDbLine
 10
-167.56378903381884
 20
15.609726343306319
 30
0.0
 11
-170.48275515616552
 21
15.156081341225216
 31
0.0
  0
LINE
  5
13F
330
17
100
AcDbEntity
  8
0
100
AcDbLine
 10
-170.48275515616552
 20
15.156081341225216
 30
0.0
 11
-173.42208277262637
 21
14.83417899607705
 31
0.0
  0
LINE
  5
140
330
17
100
AcDbEntity
  8
0
100
AcDbLine
 10
-173.42208277262637
 20
14.83417899607705
 30
0.0
 11
-176.36886125365186
 21
14.59369761182513
 31
0.0
  0
LINE
  5
141
330
17
100
AcDbEntity
  8
0
100
AcDbLine
 10
-176.36886125365186
 20
14.59369761182513
 30
0.0
 11
-179.3176220089334
 21
14.404797978394972
 31
0.0
  0
LINE
  5
142
330
17
100
AcDbEntity
  8
0
100
AcDbLine
 10
-179.3176220089334
 20
14.404797978394972
 30
0.0
 11
-182.26769055432797
 21
14.250835550381186
 31
0.0
  0
LINE
  5
143
330
17
100
AcDbEntity
  8
0
100
AcDbLine
 10
-182.26769055432797
 20
14.250835550381186
 30
0.0
 11
-185.2184719841814
 21
14.115384803701993
 31
0.0
  0
LINE
  5
144
330
17
100
AcDbEntity
  8
0
100
AcDbLine
 10
-185.2184719841814
 20
14.115384803701993
 30
0.0
 11
-188.16937139283974
 21
13.9820202142756
 31
0.0
  0
LINE
  5
145
330
17
100
AcDbEntity
  8
0
100
AcDbLine
 10
-188.16937139283974
 20
13.9820202142756
 30
0.0
 11
-191.11990588723785
 21
13.837418266420395
 31
0.0
  0
LINE
  5
146
330
17
100
AcDbEntity
  8
0
100
AcDbLine
 10
-191.11990588723785
 20
13.837418266420395
 30
0.0
 11
-194.07012140698328
 21
13.682900614312455
 31
0.0
  0
LINE
  5
147
330
17
100
AcDbEntity
  8
0
100
AcDbLine
 10
-194.07012140698328
 20
13.682900614312455
 30
0.0
 11
-197.02021980913366
 21
13.524106795010661
 31
0.0
  0
LINE
  5
148
330
17
100
AcDbEntity
  8
0
100
AcDbLine
 10
-197.02021980913366
 20
13.524106795010661
 30
0.0
 11
-199.97040293702193
 21
13.366675966873677
 31
0.0
  0
LINE
  5
149
330
17
100
AcDbEntity
  8
0
100
AcDbLine
 10
-199.97040293702193
 20
13.366675966873677
 30
0.0
 11
-202.920818724983
 21
13.214756447499694
 31
0.0
  0
LINE
  5
14A
330
17
100
AcDbEntity
  8
0
100
AcDbLine
 10
-202.920818724983
 20
13.214756447499694
 30
0.0
 11
-205.87145289192995
 21
13.068010524820563
 31
0.0
  0
LINE
  5
14B
330
17
100
AcDbEntity
  8
0
100
AcDbLine
 10
-205.87145289192995
 20
13.068010524820563
 30
0.0
 11
-208.8222607693959
 21
12.925260130863544
 31
0.0
  0
LINE
  5
14C
330
17
100
AcDbEntity
  8
0
100
AcDbLine
 10
-208.8222607693959
 20
12.925260130863544
 30
0.0
 11
-211.77319768891394
 21
12.785327197655906
 31
0.0
  0
LINE
  5
14D
330
17
100
AcDbEntity
  8
0
100
AcDbLine
 10
-211.77319768891394
 20
12.785327197655906
 30
0.0
 11
-214.72421939127952
 21
12.647045163001122
 31
0.0
  0
LINE
  5
14E
330
17
100
AcDbEntity
  8
0
100
AcDbLine
 10
-214.72421939127952
 20
12.647045163001122
 30
0.0
 11
-217.675300568292
 21
12.509780242778398
 31
0.0
  0
LINE
  5
14F
330
17
100
AcDbEntity
  8
0
100
AcDbLine
 10
-217.675300568292
 20
12.509780242778398
 30
0.0
 11
-220.6264424494978
 21
12.373644720470336
 31
0.0
  0
LINE
  5
150
330
17
100
AcDbEntity
  8
0
100
AcDbLine
 10
-220.6264424494978
 20
12.373644720470336
 30
0.0
 11
-223.57764824518804
 21
12.238806565114404
 31
0.0
  0
LINE
  5
151
330
17
100
AcDbEntity
  8
0
100
AcDbLine
 10
-223.57764824518804
 20
12.238806565114404
 30
0.0
 11
-226.52892116565351
 21
12.105433745748067
 31
0.0
  0
LINE
  5
152
330
17
100
AcDbEntity
  8
0
100
AcDbLine
 10
-226.52892116565351
 20
12.105433745748067
 30
0.0
 11
-229.4802638389301
 21
11.973672097207825
 31
0.0
  0
LINE
  5
153
330
17
100
AcDbEntity
  8
0
100
AcDbLine
 10
-229.4802638389301
 20
11.973672097207825
 30
0.0
 11
-232.43167365351422
 21
11.843468275327945
 31
0.0
  0
LINE
  5
154
330
17
100
AcDbEntity
  8
0
100
AcDbLine
 10
-232.43167365351422
 20
11.843468275327945
 30
0.0
 11
-235.3831452255164
 21
11.714663544790632
 31
0.0
  0
LINE
  5
155
330
17
100
AcDbEntity
  8
0
100
AcDbLine
 10
-235.3831452255164
 20
11.714663544790632
 30
0.0
 11
-238.33467314581335
 21
11.587098211019008
 31
0.0
  0
LINE
  5
156
330
17
100
AcDbEntity
  8
0
100
AcDbLine
 10
-238.33467314581335
 20
11.587098211019008
 30
0.0
 11
-241.2862519955445
 21
11.460612672339522
 31
0.0
  0
LINE
  5
157
330
17
100
AcDbEntity
  8
0
100
AcDbLine
 10
-241.2862519955445
 20
11.460612672339522
 30
0.0
 11
-244.23787481302378
 21
11.33506204741249
 31
0.0
  0
LINE
  5
158
330
17
100
AcDbEntity
  8
0
100
AcDbLine
 10
-244.23787481302378
 20
11.33506204741249
 30
0.0
 11
-247.18953142073892
 21
11.210332137583244
 31
0.0
  0
LINE
  5
159
330
17
100
AcDbEntity
  8
0
100
AcDbLine
 10
-247.18953142073892
 20
11.210332137583105
 30
0.0
 11
-247.31732233053773
 21
11.203974692753032
 31
0.0
  0
LINE
  5
15A
330
17
100
AcDbEntity
  8
0
100
AcDbLine
 10
-247.31732233053773
 20
11.203974692753032
 30
0.0
 11
-247.4450018175386
 21
11.195675154743633
 31
0.0
  0
LINE
  5
15B
330
17
100
AcDbEntity
  8
0
100
AcDbLine
 10
-247.4450018175386
 20
11.195675154743633
 30
0.0
 11
-247.57254036863105
 21
11.185435441992931
 31
0.0
  0
LINE
  5
15C
330
17
100
AcDbEntity
  8
0
100
AcDbLine
 10
-247.57254036863105
 20
11.185435441992931
 30
0.0
 11
-247.69990850328188
 21
11.173257921410295
 31
0.0
  0
LINE
  5
15D
330
17
100
AcDbEntity
  8
0
100
AcDbLine
 10
-247.69990850328188
 20
11.173257921410295
 30
0.0
 11
-247.82707678034973
 21
11.159145407829326
 31
0.0
  0
LINE
  5
15E
330
17
100
AcDbEntity
  8
0
100
AcDbLine
 10
-247.82707678034973
 20
11.159145407829326
 30
0.0
 11
-247.95401580489022
 21
11.143101163357217
 31
0.0
  0
LINE
  5
15F
330
17
100
AcDbEntity
  8
0
100
AcDbLine
 10
-247.95401580489022
 20
11.143101163357217
 30
0.0
 11
-248.08069623495078
 21
11.12512889662071
 31
0.0
  0
LINE
  5
160
330
17
100
AcDbEntity
  8
0
100
AcDbLine
 10
-248.08069623495078
 20
11.12512889662071
 30
0.0
 11
-248.20708878835288
 21
11.10523276190885
 31
0.0
  0
LINE
  5
161
330
17
100
AcDbEntity
  8
0
100
AcDbLine
 10
-248.20708878835288
 20
11.10523276190885
 30
0.0
 11
-248.3331642494607
 21
11.083417358212717
 31
0.0
  0
LINE
  5
162
330
17
100
AcDbEntity
  8
0
100
AcDbLine
 10
-248.3331642494607
 20
11.083417358212717
 30
0.0
 11
-248.4588934759343
 21
11.059687728162377
 31
0.0
  0
LINE
  5
163
330
17
100
AcDbEntity
  8
0
100
AcDbLine
 10
-248.4588934759343
 20
11.059687728162377
 30
0.0
 11
-248.58424740546587
 21
11.034049356861274
 31
0.0
  0
LINE
  5
164
330
17
100
AcDbEntity
  8
0
100
AcDbLine
 10
-248.58424740546587
 20
11.034049356861274
 30
0.0
 11
-248.70919706249745
 21
11.006508170618345
 31
0.0
  0
LINE
  5
165
330
17
100
AcDbEntity
  8
0
100
AcDbLine
 10
-248.70919706249745
 20
11.006508170618345
 30
0.0
 11
-248.83371356491867
 21
10.977070535578159
 31
0.0
  0
LINE
  5
166
330
17
100
AcDbEntity
  8
0
100
AcDbLine
 10
-248.83371356491867
 20
10.977070535578159
 30
0.0
 11
-248.9577681307429
 21
10.945743256249383
 31
0.0
  0
LINE
  5
167
330
17
100
AcDbEntity
  8
0
100
AcDbLine
 10
-248.9577681307429
 20
10.945743256249383
 30
0.0
 11
-249.08133208476002
 21
10.912533573931913
 31
0.0
  0
LINE
  5
168
330
17
100
AcDbEntity
  8
0
100
AcDbLine
 10
-249.08133208476002
 20
10.912533573931913
 30
0.0
 11
-249.20437686516493
 21
10.877449165043059
 31
0.0
  0
LINE
  5
169
330
17
100
AcDbEntity
  8
0
100
AcDbLine
 10
-249.20437686516493
 20
10.877449165043059
 30
0.0
 11
-249.32687403015947
 21
10.840498139343131
 31
0.0
  0
LINE
  5
16A
330
17
100
AcDbEntity
  8
0
100
AcDbLine
 10
-249.32687403015947
 20
10.840498139343131
 30
0.0
 11
-249.44879526452675
 21
10.801689038060871
 31
0.0
  0
LINE
  5
16B
330
17
100
AcDbEntity
  8
0
100
AcDbLine
 10
-249.44879526452675
 20
10.801689038060871
 30
0.0
 11
-249.57011238617622
 21
10.761030831919156
 31
0.0
  0
LINE
  5
16C
330
17
100
AcDbEntity
  8
0
100
AcDbLine
 10
-249.57011238617622
 20
10.761030831919156
 30
0.0
 11
-249.690797352658
 21
10.7185329190614
 31
0.0
  0
LINE
  5
16D
330
17
100
AcDbEntity
  8
0
100
AcDbLine
 10
-249.690797352658
 20
10.7185329190614
 30
0.0
 11
-249.81082226764488
 21
10.674205122879183
 31
0.0
  0
LINE
  5
16E
330
17
100
AcDbEntity
  8
0
100
AcDbLine
 10
-249.81082226764488
 20
10.674205122879183
 30
0.0
 11
-249.93015938738046
 21
10.628057689741587
 31
0.0
  0
LINE
  5
16F
330
17
100
AcDbEntity
  8
0
100
AcDbLine
 10
-249.93015938738046
 20
10.628057689741587
 30
0.0
 11
-250.04878112709227
 21
10.580101286626714
 31
0.0
  0
LINE
  5
170
330
17
100
AcDbEntity
  8
0
100
AcDbLine
 10
-250.04878112709227
 20
10.580101286626714
 30
0.0
 11
-250.16666006736793
 21
10.530346998656054
 31
0.0
  0
LINE
  5
171
330
17
100
AcDbEntity
  8
0
100
AcDbLine
 10
-250.16666006736793
 20
10.530346998656054
 30
0.0
 11
-250.28376896049303
 21
10.478806326532125
 31
0.0
  0
LINE
  5
172
330
17
100
AcDbEntity
  8
0
100
AcDbLine
 10
-250.28376896049303
 20
10.478806326532125
 30
0.0
 11
-250.40008073674966
 21
10.42549118388011
 31
0.0
  0
LINE
  5
173
330
17
100
AcDbEntity
  8
0
100
AcDbLine
 10
-250.40008073674966
 20
10.42549118388011
 30
0.0
 11
-250.51556851067338
 21
10.370413894494012
 31
0.0
  0
LINE
  5
174
330
17
100
AcDbEntity
  8
0
100
AcDbLine
 10
-250.51556851067338
 20
10.370413894494012
 30
0.0
 11
-250.6302055872679
 21
10.313587189488011
 31
0.0
  0
LINE
  5
175
330
17
100
AcDbEntity
  8
0
100
AcDbLine
 10
-250.6302055872679
 20
10.313587189488011
 30
0.0
 11
-250.7439654681756
 21
10.255024204353667
 31
0.0
  0
LINE
  5
176
330
17
100
AcDbEntity
  8
0
100
AcDbLine
 10
-250.7439654681756
 20
10.255024204353667
 30
0.0
 11
-250.85682185780257
 21
10.194738475923652
 31
0.0
  0
LINE
  5
177
330
17
100
AcDbEntity
  8
0
100
AcDbLine
 10
-250.85682185780257
 20
10.194738475923652
 30
0.0
 11
-250.96874866939697
 21
10.13274393924271
 31
0.0
  0
LINE
  5
178
330
17
100
AcDbEntity
  8
0
100
AcDbLine
 10
-250.96874866939697
 20
10.13274393924271
 30
0.0
 11
-251.0797200310789
 21
10.069054924346576
 31
0.0
  0
LINE
  5
179
330
17
100
AcDbEntity
  8
0
100
AcDbLine
 10
-251.0797200310789
 20
10.069054924346576
 30
0.0
 11
-251.18971029182055
 21
10.003686152949584
 31
0.0
  0
LINE
  5
17A
330
17
100
AcDbEntity
  8
0
100
AcDbLine
 10
-251.18971029182055
 20
10.003686152949584
 30
0.0
 11
-251.29869402737577
 21
9.936652735041742
 31
0.0
  0
LINE
  5
17B
330
17
100
AcDbEntity
  8
0
100
AcDbLine
 10
-251.29869402737577
 20
9.936652735041742
 30
0.0
 11
-251.40664604615654
 21
9.867970165396068
 31
0.0
  0
LINE
  5
17C
330
17
100
AcDbEntity
  8
0
100
AcDbLine
 10
-251.40664604615654
 20
9.867970165396068
 30
0.0
 11
-251.5135413950562
 21
9.797654319986961
 31
0.0
  0
LINE
  5
17D
330
17
100
AcDbEntity
  8
0
100
AcDbLine
 10
-251.5135413950562
 20
9.797654319986961
 30
0.0
 11
-251.61935536521727
 21
9.725721452320474
 31
0.0
  0
LINE
  5
17E
330
17
100
AcDbEntity
  8
0
100
AcDbLine
 10
-251.61935536521727
 20
9.725721452320474
 30
0.0
 11
-251.72406349774303
 21
9.652188189677322
 31
0.0
  0
LINE
  5
17F
330
17
100
AcDbEntity
  8
0
100
AcDbLine
 10
-251.72406349774303
 20
9.652188189677322
 30
0.0
 11
-251.827641589351
 21
9.57707152926948
 31
0.0
  0
LINE
  5
180
330
17
100
AcDbEntity
  8
0
100
AcDbLine
 10
-251.827641589351
 20
9.57707152926948
 30
0.0
 11
-251.93006569796768
 21
9.500388834311279
 31
0.0
  0
LINE
  5
181
330
17
100
AcDbEntity
  8
0
100
AcDbLine
 10
-251.93006569796768
 20
9.500388834311279
 30
0.0
 11
-252.03131214826274
 21
9.422157830005904
 31
0.0
  0
LINE
  5
182
330
17
100
AcDbEntity
  8
0
100
AcDbLine
 10
-252.03131214826274
 20
9.422157830005904
 30
0.0
 11
-252.13135753712146
 21
9.342396599448206
 31
0.0
  0
LINE
  5
183
330
17
100
AcDbEntity
  8
0
100
AcDbLine
 10
-252.13135753712146
 20
9.342396599448206
 30
0.0
 11
-252.23017873905457
 21
9.261123579444803
 31
0.0
  0
LINE
  5
184
330
17
100
AcDbEntity
  8
0
100
AcDbLine
 10
-252.23017873905457
 20
9.261123579444803
 30
0.0
 11
-252.32775291154346
 21
9.178357556252404
 31
0.0
  0
LINE
  5
185
330
17
100
AcDbEntity
  8
0
100
AcDbLine
 10
-252.32775291154346
 20
9.178357556252404
 30
0.0
 11
-252.4240575003204
 21
9.094117661235375
 31
0.0
  0
LINE
  5
186
330
17
100
AcDbEntity
  8
0
100
AcDbLine
 10
-252.4240575003204
 20
9.094117661235375
 30
0.0
 11
-252.5190702445819
 21
9.008423366443516
 31
0.0
  0
LINE
  5
187
330
17
100
AcDbEntity
  8
0
100
AcDbLine
 10
-252.5190702445819
 20
9.008423366443516
 30
0.0
 11
-252.61276918213431
 21
8.921294480111111
 31
0.0
  0
LINE
  5
188
330
17
100
AcDbEntity
  8
0
100
AcDbLine
 10
-252.61276918213431
 20
8.921294480111111
 30
0.0
 11
-252.70513265447036
 21
8.832751142078239
 31
0.0
  0
LINE
  5
189
330
17
100
AcDbEntity
  8
0
100
AcDbLine
 10
-252.70513265447036
 20
8.832751142078239
 30
0.0
 11
-252.79613931177553
 21
8.742813819135453
 31
0.0
  0
LINE
  5
18A
330
17
100
AcDbEntity
  8
0
100
AcDbLine
 10
-252.79613931177553
 20
8.742813819135453
 30
0.0
 11
-252.88576811786308
 21
8.651503300292894
 31
0.0
  0
LINE
  5
18B
330
17
100
AcDbEntity
  8
0
100
AcDbLine
 10
-252.88576811786308
 20
8.651503300292894
 30
0.0
 11
-252.9739983550365
 21
8.558840691974899
 31
0.0
  0
LINE
  5
18C
330
17
100
AcDbEntity
  8
0
100
AcDbLine
 10
-252.9739983550365
 20
8.558840691974899
 30
0.0
 11
-253.06080962887856
 21
8.464847413141255
 31
0.0
  0
LINE
  5
18D
330
17
100
AcDbEntity
  8
0
100
AcDbLine
 10
-253.06080962887856
 20
8.464847413141255
 30
0.0
 11
-253.14618187296523
 21
8.369545190336222
 31
0.0
  0
LINE
  5
18E
330
17
100
AcDbEntity
  8
0
100
AcDbLine
 10
-253.14618187296523
 20
8.369545190336222
 30
0.0
 11
-253.23009535350428
 21
8.272956052666402
 31
0.0
  0
LINE
  5
18F
330
17
100
AcDbEntity
  8
0
100
AcDbLine
 10
-253.23009535350428
 20
8.272956052666402
 30
0.0
 11
-253.3125306738966
 21
8.175102326708766
 31
0.0
  0
LINE
  5
190
330
17
100
AcDbEntity
  8
0
100
AcDbLine
 10
-253.3125306738966
 20
8.175102326708766
 30
0.0
 11
-253.39346877921975
 21
8.076006631349824
 31
0.0
  0
LINE
  5
191
330
17
100
AcDbEntity
  8
0
100
AcDbLine
 10
-253.39346877921975
 20
8.076006631349824
 30
0.0
 11
-253.47289096063255
 21
7.975691872557288
 31
0.0
  0
LINE
  5
192
330
17
100
AcDbEntity
  8
0
100
AcDbLine
 10
-253.47289096063255
 20
7.975691872557288
 30
0.0
 11
-253.55077885969962
 21
7.874181238085354
 31
0.0
  0
LINE
  5
193
330
17
100
AcDbEntity
  8
0
100
AcDbLine
 10
-253.55077885969962
 20
7.874181238085354
 30
0.0
 11
-253.62711447263484
 21
7.771498192114855
 31
0.0
  0
LINE
  5
194
330
17
100
AcDbEntity
  8
0
100
AcDbLine
 10
-253.62711447263484
 20
7.771498192114855
 30
0.0
 11
-253.70188015446305
 21
7.667666469829513
 31
0.0
  0
LINE
  5
195
330
17
100
AcDbEntity
  8
0
100
AcDbLine
 10
-253.70188015446305
 20
7.667666469829513
 30
0.0
 11
-253.77505862309857
 21
7.562710071929558
 31
0.0
  0
LINE
  5
196
330
17
100
AcDbEntity
  8
0
100
AcDbLine
 10
-253.77505862309857
 20
7.562710071929558
 30
0.0
 11
-253.8466329633401
 21
7.456653259083959
 31
0.0
  0
LINE
  5
197
330
17
100
AcDbEntity
  8
0
100
AcDbLine
 10
-253.8466329633401
 20
7.456653259083959
 30
0.0
 11
-253.9165866307805
 21
7.349520546322575
 31
0.0
  0
LINE
  5
198
330
17
100
AcDbEntity
  8
0
100
AcDbLine
 10
-253.9165866307805
 20
7.349520546322575
 30
0.0
 11
-253.98490345563116
 21
7.241336697369505
 31
0.0
  0
LINE
  5
199
330
17
100
AcDbEntity
  8
0
100
AcDbLine
 10
-253.98490345563116
 20
7.241336697369505
 30
0.0
 11
-254.05156764645957
 21
7.132126718918958
 31
0.0
  0
LINE
  5
19A
330
17
100
AcDbEntity
  8
0
100
AcDbLine
 10
-254.05156764645957
 20
7.132126718918958
 30
0.0
 11
-254.11656379383956
 21
7.021915854854949
 31
0.0
  0
LINE
  5
19B
330
17
100
AcDbEntity
  8
0
100
AcDbLine
 10
-254.11656379383956
 20
7.021915854854949
 30
0.0
 11
-254.17987687391314
 21
6.910729580416177
 31
0.0
  0
LINE
  5
19C
330
17
100
AcDbEntity
  8
0
100
AcDbLine
 10
-254.17987687391314
 20
6.910729580416177
 30
0.0
 11
-254.2414922518633
 21
6.798593596307444
 31
0.0
  0
LINE
  5
19D
330
17
100
AcDbEntity
  8
0
100
AcDbLine
 10
-254.2414922518633
 20
6.798593596307444
 30
0.0
 11
-254.30139568529685
 21
6.685533822758899
 31
0.0
  0
LINE
  5
19E
330
17
100
AcDbEntity
  8
0
100
AcDbLine
 10
-254.30139568529685
 20
6.685533822758899
 30
0.0
 11
-254.3595733275365
 21
6.571576393534609
 31
0.0
  0
LINE
  5
19F
330
17
100
AcDbEntity
  8
0
100
AcDbLine
 10
-254.3595733275365
 20
6.571576393534609
 30
0.0
 11
-254.41601173082162
 21
6.456747649891728
 31
0.0
  0
LINE
  5
1A0
330
17
100
AcDbEntity
  8
0
100
AcDbLine
 10
-254.41601173082162
 20
6.456747649891728
 30
0.0
 11
-254.47069784941655
 21
6.341074134491718
 31
0.0
  0
LINE
  5
1A1
330
17
100
AcDbEntity
  8
0
100
AcDbLine
 10
-254.47069784941655
 20
6.341074134491718
 30
0.0
 11
-254.52361904262625
 21
6.224582585265015
 31
0.0
  0
LINE
  5
1A2
330
17
100
AcDbEntity
  8
0
100
AcDbLine
 10
-254.52361904262625
 20
6.224582585265015
 30
0.0
 11
-254.5747630777181
 21
6.107299929230551
 31
0.0
  0
LINE
  5
1A3
330
17
100
AcDbEntity
  8
0
100
AcDbLine
 10
-254.5747630777181
 20
6.107299929230551
 30
0.0
 11
-254.6241181327496
 21
5.989253276271584
 31
0.0
  0
LINE
  5
1A4
330
17
100
AcDbEntity
  8
0
100
AcDbLine
 10
-254.6241181327496
 20
5.989253276271584
 30
0.0
 11
-254.67167279930086
 21
5.87046991286924
 31
0.0
  0
LINE
  5
1A5
330
17
100
AcDbEntity
  8
0
100
AcDbLine
 10
-254.67167279930086
 20
5.87046991286924
 30
0.0
 11
-254.71741608511184
 21
5.750977295795247
 31
0.0
  0
LINE
  5
1A6
330
17
100
AcDbEntity
  8
0
100
AcDbLine
 10
-254.71741608511184
 20
5.750977295795247
 30
0.0
 11
-254.76133741662304
 21
5.630803045765306
 31
0.0
  0
LINE
  5
1A7
330
17
100
AcDbEntity
  8
0
100
AcDbLine
 10
-254.76133741662304
 20
5.630803045765306
 30
0.0
 11
-254.8034266414197
 21
5.509974941054557
 31
0.0
  0
LINE
  5
1A8
330
17
100
AcDbEntity
  8
0
100
AcDbLine
 10
-254.8034266414197
 20
5.509974941054557
 30
0.0
 11
-254.84367403057846
 21
5.388520911076634
 31
0.0
  0
LINE
  5
1A9
330
17
100
AcDbEntity
  8
0
100
AcDbLine
 10
-254.84367403057846
 20
5.388520911076634
 30
0.0
 11
-254.88207028091628
 21
5.266469029927788
 31
0.0
  0
LINE
  5
1AA
330
17
100
AcDbEntity
  8
0
100
AcDbLine
 10
-254.88207028091628
 20
5.266469029927788
 30
0.0
 11
-254.91860651714072
 21
5.1438475098975465
 31
0.0
  0
LINE
  5
1AB
330
17
100
AcDbEntity
  8
0
100
AcDbLine
 10
-254.91860651714072
 20
5.1438475098975465
 30
0.0
 11
-254.95327429390164
 21
5.020684694947457
 31
0.0
  0
LINE
  5
1AC
330
17
100
AcDbEntity
  8
0
100
AcDbLine
 10
-254.95327429390164
 20
5.020684694947457
 30
0.0
 11
-254.98606559774325
 21
4.897009054159373
 31
0.0
  0
LINE
  5
1AD
330
17
100
AcDbEntity
  8
0
100
AcDbLine
 10
-254.98606559774325
 20
4.897009054159373
 30
0.0
 11
-255.01697284895639
 21
4.772849175154828
 31
0.0
  0
LINE
  5
1AE
330
17
100
AcDbEntity
  8
0
100
AcDbLine
 10
-255.01697284895639
 20
4.772849175154828
 30
0.0
 11
-255.04598890333068
 21
4.648233757487011
 31
0.0
  0
LINE
  5
1AF
330
17
100
AcDbEntity
  8
0
100
AcDbLine
 10
-255.04598890333068
 20
4.648233757487011
 30
0.0
 11
-255.07310705380578
 21
4.5231916060068595
 31
0.0
  0
LINE
  5
1B0
330
17
100
AcDbEntity
  8
0
100
AcDbLine
 10
-255.07310705380578
 20
4.5231916060068595
 30
0.0
 11
-255.09832103202186
 21
4.397751624204825
 31
0.0
  0
LINE
  5
1B1
330
17
100
AcDbEntity
  8
0
100
AcDbLine
 10
-255.09832103202186
 20
4.397751624204825
 30
0.0
 11
-255.12162500976842
 21
4.271942807529826
 31
0.0
  0
LINE
  5
1B2
330
17
100
AcDbEntity
  8
0
100
AcDbLine
 10
-255.12162500976842
 20
4.271942807529826
 30
0.0
 11
-255.14301360033153
 21
4.145794236686955
 31
0.0
  0
LINE
  5
1B3
330
17
100
AcDbEntity
  8
0
100
AcDbLine
 10
-255.14301360033153
 20
4.145794236686955
 30
0.0
 11
-255.162481859739
 21
4.019335070915464
 31
0.0
  0
LINE
  5
1B4
330
17
100
AcDbEntity
  8
0
100
AcDbLine
 10
-255.162481859739
 20
4.019335070915464
 30
0.0
 11
-255.18002528790308
 21
3.8925945412486387
 31
0.0
  0
LINE
  5
1B5
330
17
100
AcDbEntity
  8
0
100
AcDbLine
 10
-255.18002528790308
 20
3.8925945412486387
 30
0.0
 11
-255.19563982966076
 21
3.7656019437570016
 31
0.0
  0
LINE
  5
1B6
330
17
100
AcDbEntity
  8
0
100
AcDbLine
 10
-255.19563982966076
 20
3.7656019437570016
 30
0.0
 11
-255.20932187571108
 21
3.6383866327765526
 31
0.0
  0
LINE
  5
1B7
330
17
100
AcDbEntity
  8
0
100
AcDbLine
 10
-255.20932187571108
 20
3.6383866327765526
 30
0.0
 11
-255.2210682634494
 21
3.51097801412351
 31
0.0
  0
LINE
  5
1B8
330
17
100
AcDbEntity
  8
0
100
AcDbLine
 10
-255.2210682634494
 20
3.51097801412351
 30
0.0
 11
-255.23087627769848
 21
3.383405538297157
 31
0.0
  0
LINE
  5
1B9
330
17
100
AcDbEntity
  8
0
100
AcDbLine
 10
-255.23087627769848
 20
3.383405538297157
 30
0.0
 11
-255.23874365133605
 21
3.2556986936723575
 31
0.0
  0
LINE
  5
1BA
330
17
100
AcDbEntity
  8
0
100
AcDbLine
 10
-255.23874365133605
 20
3.2556986936723575
 30
0.0
 11
-255.24466856581884
 21
3.1278869996833216
 31
0.0
  0
LINE
  5
1BB
330
17
100
AcDbEntity
  8
0
100
AcDbLine
 10
-255.24466856581884
 20
3.1278869996833216
 30
0.0
 11
-255.24864965160305
 21
3.0000000000001856
 31
0.0
  0
LINE
  5
1BC
330
17
100
AcDbEntity
  8
0
100
AcDbLine
 10
-160.53825104802291
 20
3.00000000000018
 30
0.0
 11
-255.2486496516029
 21
3.00000000000018
 31
0.0
  0
LINE
  5
1BD
330
17
100
AcDbEntity
  8
0
100
AcDbLine
 10
-160.53825104802192
 20
3.00000000000018
 30
0.0
 11
-160.53825104802192
 21
-2.99999999999982
 31
0.0
  0
LINE
  5
1BE
330
17
100
AcDbEntity
  8
0
100
AcDbLine
 10
-160.53825104802291
 20
-2.99999999999982
 30
0.0
 11
-255.2486496516029
 21
-2.99999999999982
 31
0.0
  0
LINE
  5
1BF
330
17
100
AcDbEntity
  8
0
100
AcDbLine
 10
-15.9999999999999
 20
-114.7827663232
 30
0.0
 11
-15.9999999999999
 21
114.78276632320099
 31
0.0
  0
LINE
  5
1C0
330
17
100
AcDbEntity
  8
0
100
AcDbLine
 10
-19.9999999999999
 20
-118.7827663232
 30
0.0
 11
-19.936536144660668
 21
-118.78226283389549
 31
0.0
  0
LINE
  5
1C1
330
17
100
AcDbEntity
  8
0
100
AcDbLine
 10
-19.936536144660668
 20
-118.78226283389549
 30
0.0
 11
-19.87308826600763
 21
-118.78075249273273
 31
0.0
  0
LINE
  5
1C2
330
17
100
AcDbEntity
  8
0
100
AcDbLine
 10
-19.87308826600763
 20
-118.78075249273273
 30
0.0
 11
-19.80967233670493
 21
-118.77823567993202
 31
0.0
  0
LINE
  5
1C3
330
17
100
AcDbEntity
  8
0
100
AcDbLine
 10
-19.80967233670493
 20
-118.77823567993202
 30
0.0
 11
-19.746304321373643
 21
-118.77471302908754
 31
0.0
  0
LINE
  5
1C4
330
17
100
AcDbEntity
  8
0
100
AcDbLine
 10
-19.746304321373643
 20
-118.77471302908754
 30
0.0
 11
-19.683000172572747
 21
-118.77018542700776
 31
0.0
  0
LINE
  5
1C5
330
17
100
AcDbEntity
  8
0
100
AcDbLine
 10
-19.683000172572747
 20
-118.77018542700776
 30
0.0
 11
-19.61977582678317
 21
-118.76465401349233
 31
0.0
  0
LINE
  5
1C6
330
17
100
AcDbEntity
  8
0
100
AcDbLine
 10
-19.61977582678317
 20
-118.76465401349233
 30
0.0
 11
-19.556647200395858
 21
-118.75812018104502
 31
0.0
  0
LINE
  5
1C7
330
17
100
AcDbEntity
  8
0
100
AcDbLine
 10
-19.556647200395858
 20
-118.75812018104502
 30
0.0
 11
-19.4936301857049
 21
-118.75058557452317
 31
0.0
  0
LINE
  5
1C8
330
17
100
AcDbEntity
  8
0
100
AcDbLine
 10
-19.4936301857049
 20
-118.75058557452317
 30
0.0
 11
-19.43074064690676
 21
-118.74205209072372
 31
0.0
  0
LINE
  5
1C9
330
17
100
AcDbEntity
  8
0
100
AcDbLine
 10
-19.43074064690676
 20
-118.74205209072372
 30
0.0
 11
-19.3679944161065
 21
-118.73252187790557
 31
0.0
  0
LINE
  5
1CA
330
17
100
AcDbEntity
  8
0
100
AcDbLine
 10
-19.3679944161065
 20
-118.73252187790557
 30
0.0
 11
-19.30540728933218
 21
-118.72199733524883
 31
0.0
  0
LINE
  5
1CB
330
17
100
AcDbEntity
  8
0
100
AcDbLine
 10
-19.30540728933218
 20
-118.72199733524883
 30
0.0
 11
-19.24299502255826
 21
-118.71048111225082
 31
0.0
  0
LINE
  5
1CC
330
17
100
AcDbEntity
  8
0
100
AcDbLine
 10
-19.24299502255826
 20
-118.71048111225082
 30
0.0
 11
-19.18077332773914
 21
-118.69797610805911
 31
0.0
  0
LINE
  5
1CD
330
17
100
AcDbEntity
  8
0
100
AcDbLine
 10
-19.18077332773914
 20
-118.69797610805911
 30
0.0
 11
-19.118757868853738
 21
-118.68448547074162
 31
0.0
  0
LINE
  5
1CE
330
17
100
AcDbEntity
  8
0
100
AcDbLine
 10
-19.118757868853738
 20
-118.68448547074162
 30
0.0
 11
-19.056964257962193
 21
-118.67001259649416
 31
0.0
  0
LINE
  5
1CF
330
17
100
AcDbEntity
  8
0
100
AcDbLine
 10
-19.056964257962193
 20
-118.67001259649416
 30
0.0
 11
-18.995408051275582
 21
-118.65456112878542
 31
0.0
  0
LINE
  5
1D0
330
17
100
AcDbEntity
  8
0
100
AcDbLine
 10
-18.995408051275582
 20
-118.65456112878542
 30
0.0
 11
-18.93410474523976
 21
-118.63813495743976
 31
0.0
  0
LINE
  5
1D1
330
17
100
AcDbEntity
  8
0
100
AcDbLine
 10
-18.93410474523976
 20
-118.63813495743976
 30
0.0
 11
-18.87306977263418
 21
-118.62073821765799
 31
0.0
  0
LINE
  5
1D2
330
17
100
AcDbEntity
  8
0
100
AcDbLine
 10
-18.87306977263418
 20
-118.62073821765799
 30
0.0
 11
-18.8123184986868
 21
-118.60237528897629
 31
0.0
  0
LINE
  5
1D3
330
17
100
AcDbEntity
  8
0
100
AcDbLine
 10
-18.8123184986868
 20
-118.60237528897629
 30
0.0
 11
-18.75186621720595
 21
-118.58305079416377
 31
0.0
  0
LINE
  5
1D4
330
17
100
AcDbEntity
  8
0
100
AcDbLine
 10
-18.75186621720595
 20
-118.58305079416377
 30
0.0
 11
-18.691728146730213
 21
-118.56276959805867
 31
0.0
  0
LINE
  5
1D5
330
17
100
AcDbEntity
  8
0
100
AcDbLine
 10
-18.691728146730213
 20
-118.56276959805867
 30
0.0
 11
-18.631919426697227
 21
-118.54153680634363
 31
0.0
  0
LINE
  5
1D6
330
17
100
AcDbEntity
  8
0
100
AcDbLine
 10
-18.631919426697227
 20
-118.54153680634363
 30
0.0
 11
-18.57245511363241
 21
-118.51935776426042
 31
0.0
  0
LINE
  5
1D7
330
17
100
AcDbEntity
  8
0
100
AcDbLine
 10
-18.57245511363241
 20
-118.51935776426042
 30
0.0
 11
-18.51335017735859
 21
-118.49623805526429
 31
0.0
  0
LINE
  5
1D8
330
17
100
AcDbEntity
  8
0
100
AcDbLine
 10
-18.51335017735859
 20
-118.49623805526429
 30
0.0
 11
-18.454619497227387
 21
-118.47218349961832
 31
0.0
  0
LINE
  5
1D9
330
17
100
AcDbEntity
  8
0
100
AcDbLine
 10
-18.454619497227387
 20
-118.47218349961832
 30
0.0
 11
-18.396277858373445
 21
-118.44720015292827
 31
0.0
  0
LINE
  5
1DA
330
17
100
AcDbEntity
  8
0
100
AcDbLine
 10
-18.396277858373445
 20
-118.44720015292827
 30
0.0
 11
-18.338339947992356
 21
-118.42129430461807
 31
0.0
  0
LINE
  5
1DB
330
17
100
AcDbEntity
  8
0
100
AcDbLine
 10
-18.338339947992356
 20
-118.42129430461807
 30
0.0
 11
-18.280820351643214
 21
-118.39447247634648
 31
0.0
  0
LINE
  5
1DC
330
17
100
AcDbEntity
  8
0
100
AcDbLine
 10
-18.280820351643214
 20
-118.39447247634648
 30
0.0
 11
-18.223733549576803
 21
-118.36674142036534
 31
0.0
  0
LINE
  5
1DD
330
17
100
AcDbEntity
  8
0
100
AcDbLine
 10
-18.223733549576803
 20
-118.36674142036534
 30
0.0
 11
-18.16709391309026
 21
-118.33810811781969
 31
0.0
  0
LINE
  5
1DE
330
17
100
AcDbEntity
  8
0
100
AcDbLine
 10
-18.16709391309026
 20
-118.33810811781969
 30
0.0
 11
-18.11091570090917
 21
-118.30857977699033
 31
0.0
  0
LINE
  5
1DF
330
17
100
AcDbEntity
  8
0
100
AcDbLine
 10
-18.11091570090917
 20
-118.30857977699033
 30
0.0
 11
-18.055213055598024
 21
-118.27816383147913
 31
0.0
  0
LINE
  5
1E0
330
17
100
AcDbEntity
  8
0
100
AcDbLine
 10
-18.055213055598024
 20
-118.27816383147913
 30
0.0
 11
-17.9999999999999
 21
-118.24686793833774
 31
0.0
  0
LINE
  5
1E1
330
17
100
AcDbEntity
  8
0
100
AcDbLine
 10
-17.9999999999999
 20
-118.24686793833774
 30
0.0
 11
-17.945290433706276
 21
-118.2146999761399
 31
0.0
  0
LINE
  5
1E2
330
17
100
AcDbEntity
  8
0
100
AcDbLine
 10
-17.945290433706276
 20
-118.2146999761399
 30
0.0
 11
-17.89109812955789
 21
-118.18166804299806
 31
0.0
  0
LINE
  5
1E3
330
17
100
AcDbEntity
  8
0
100
AcDbLine
 10
-17.89109812955789
 20
-118.18166804299806
 30
0.0
 11
-17.83743673017751
 21
-118.14778045452472
 31
0.0
  0
LINE
  5
1E4
330
17
100
AcDbEntity
  8
0
100
AcDbLine
 10
-17.83743673017751
 20
-118.14778045452472
 30
0.0
 11
-17.78431974453546
 21
-118.11304574173909
 31
0.0
  0
LINE
  5
1E5
330
17
100
AcDbEntity
  8
0
100
AcDbLine
 10
-17.78431974453546
 20
-118.11304574173909
 30
0.0
 11
-17.731760544548816
 21
-118.07747264891933
 31
0.0
  0
LINE
  5
1E6
330
17
100
AcDbEntity
  8
0
100
AcDbLine
 10
-17.731760544548816
 20
-118.07747264891933
 30
0.0
 11
-17.67977236171511
 21
-118.04107013140134
 31
0.0
  0
LINE
  5
1E7
330
17
100
AcDbEntity
  8
0
100
AcDbLine
 10
-17.67977236171511
 20
-118.04107013140134
 30
0.0
 11
-17.628368283781338
 21
-118.00384735332423
 31
0.0
  0
LINE
  5
1E8
330
17
100
AcDbEntity
  8
0
100
AcDbLine
 10
-17.628368283781338
 20
-118.00384735332423
 30
0.0
 11
-17.577561251449232
 21
-117.96581368532333
 31
0.0
  0
LINE
  5
1E9
330
17
100
AcDbEntity
  8
0
100
AcDbLine
 10
-17.577561251449232
 20
-117.96581368532333
 30
0.0
 11
-17.52736405511748
 21
-117.92697870217114
 31
0.0
  0
LINE
  5
1EA
330
17
100
AcDbEntity
  8
0
100
AcDbLine
 10
-17.52736405511748
 20
-117.92697870217114
 30
0.0
 11
-17.47778933166181
 21
-117.88735218036702
 31
0.0
  0
LINE
  5
1EB
330
17
100
AcDbEntity
  8
0
100
AcDbLine
 10
-17.47778933166181
 20
-117.88735218036702
 30
0.0
 11
-17.42884956125374
 21
-117.84694409567591
 31
0.0
  0
LINE
  5
1EC
330
17
100
AcDbEntity
  8
0
100
AcDbLine
 10
-17.42884956125374
 20
-117.84694409567591
 30
0.0
 11
-17.38055706421876
 21
-117.80576462061703
 31
0.0
  0
LINE
  5
1ED
330
17
100
AcDbEntity
  8
0
100
AcDbLine
 10
-17.38055706421876
 20
-117.80576462061703
 30
0.0
 11
-17.332923997934735
 21
-117.76382412190301
 31
0.0
  0
LINE
  5
1EE
330
17
100
AcDbEntity
  8
0
100
AcDbLine
 10
-17.332923997934735
 20
-117.76382412190301
 30
0.0
 11
-17.28596235377137
 21
-117.72113315783012
 31
0.0
  0
LINE
  5
1EF
330
17
100
AcDbEntity
  8
0
100
AcDbLine
 10
-17.28596235377137
 20
-117.72113315783012
 30
0.0
 11
-17.239683954071452
 21
-117.67770247562028
 31
0.0
  0
LINE
  5
1F0
330
17
100
AcDbEntity
  8
0
100
AcDbLine
 10
-17.239683954071452
 20
-117.67770247562028
 30
0.0
 11
-17.194100449174616
 21
-117.63354300871545
 31
0.0
  0
LINE
  5
1F1
330
17
100
AcDbEntity
  8
0
100
AcDbLine
 10
-17.194100449174616
 20
-117.63354300871545
 30
0.0
 11
-17.14922331448445
 21
-117.58866587402528
 31
0.0
  0
LINE
  5
1F2
330
17
100
AcDbEntity
  8
0
100
AcDbLine
 10
-17.14922331448445
 20
-117.58866587402528
 30
0.0
 11
-17.105063847579622
 21
-117.54308236912844
 31
0.0
  0
LINE
  5
1F3
330
17
100
AcDbEntity
  8
0
100
AcDbLine
 10
-17.105063847579622
 20
-117.54308236912844
 30
0.0
 11
-17.061633165369766
 21
-117.49680396942853
 31
0.0
  0
LINE
  5
1F4
330
17
100
AcDbEntity
  8
0
100
AcDbLine
 10
-17.061633165369766
 20
-117.49680396942853
 30
0.0
 11
-17.01894220129688
 21
-117.44984232526517
 31
0.0
  0
LINE
  5
1F5
330
17
100
AcDbEntity
  8
0
100
AcDbLine
 10
-17.01894220129688
 20
-117.44984232526517
 30
0.0
 11
-16.977001702582868
 21
-117.40220925898113
 31
0.0
  0
LINE
  5
1F6
330
17
100
AcDbEntity
  8
0
100
AcDbLine
 10
-16.977001702582868
 20
-117.40220925898113
 30
0.0
 11
-16.93582222752399
 21
-117.35391676194615
 31
0.0
  0
LINE
  5
1F7
330
17
100
AcDbEntity
  8
0
100
AcDbLine
 10
-16.93582222752399
 20
-117.35391676194615
 30
0.0
 11
-16.895414142832873
 21
-117.30497699153808
 31
0.0
  0
LINE
  5
1F8
330
17
100
AcDbEntity
  8
0
100
AcDbLine
 10
-16.895414142832873
 20
-117.30497699153808
 30
0.0
 11
-16.85578762102875
 21
-117.25540226808242
 31
0.0
  0
LINE
  5
1F9
330
17
100
AcDbEntity
  8
0
100
AcDbLine
 10
-16.85578762102875
 20
-117.25540226808242
 30
0.0
 11
-16.81695263787657
 21
-117.20520507175065
 31
0.0
  0
LINE
  5
1FA
330
17
100
AcDbEntity
  8
0
100
AcDbLine
 10
-16.81695263787657
 20
-117.20520507175065
 30
0.0
 11
-16.778918969875665
 21
-117.15439803941855
 31
0.0
  0
LINE
  5
1FB
330
17
100
AcDbEntity
  8
0
100
AcDbLine
 10
-16.778918969875665
 20
-117.15439803941855
 30
0.0
 11
-16.741696191798557
 21
-117.10299396148478
 31
0.0
  0
LINE
  5
1FC
330
17
100
AcDbEntity
  8
0
100
AcDbLine
 10
-16.741696191798557
 20
-117.10299396148478
 30
0.0
 11
-16.70529367428057
 21
-117.05100577865107
 31
0.0
  0
LINE
  5
1FD
330
17
100
AcDbEntity
  8
0
100
AcDbLine
 10
-16.70529367428057
 20
-117.05100577865107
 30
0.0
 11
-16.669720581460815
 21
-116.99844657866443
 31
0.0
  0
LINE
  5
1FE
330
17
100
AcDbEntity
  8
0
100
AcDbLine
 10
-16.669720581460815
 20
-116.99844657866443
 30
0.0
 11
-16.634985868675177
 21
-116.94532959302238
 31
0.0
  0
LINE
  5
1FF
330
17
100
AcDbEntity
  8
0
100
AcDbLine
 10
-16.634985868675177
 20
-116.94532959302238
 30
0.0
 11
-16.601098280201843
 21
-116.891668193642
 31
0.0
  0
LINE
  5
200
330
17
100
AcDbEntity
  8
0
100
AcDbLine
 10
-16.601098280201843
 20
-116.891668193642
 30
0.0
 11
-16.568066347059993
 21
-116.83747588949362
 31
0.0
  0
LINE
  5
201
330
17
100
AcDbEntity
  8
0
100
AcDbLine
 10
-16.568066347059993
 20
-116.83747588949362
 30
0.0
 11
-16.535898384862147
 21
-116.7827663232
 31
0.0
  0
LINE
  5
202
330
17
100
AcDbEntity
  8
0
100
AcDbLine
 10
-16.535898384862147
 20
-116.7827663232
 30
0.0
 11
-16.50460249172076
 21
-116.72755326760186
 31
0.0
  0
LINE
  5
203
330
17
100
AcDbEntity
  8
0
100
AcDbLine
 10
-16.50460249172076
 20
-116.72755326760186
 30
0.0
 11
-16.474186546209573
 21
-116.67185062229072
 31
0.0
  0
LINE
  5
204
330
17
100
AcDbEntity
  8
0
100
AcDbLine
 10
-16.474186546209573
 20
-116.67185062229072
 30
0.0
 11
-16.444658205380208
 21
-116.61567241010964
 31
0.0
  0
LINE
  5
205
330
17
100
AcDbEntity
  8
0
100
AcDbLine
 10
-16.444658205380208
 20
-116.61567241010964
 30
0.0
 11
-16.416024902834558
 21
-116.55903277362309
 31
0.0
  0
LINE
  5
206
330
17
100
AcDbEntity
  8
0
100
AcDbLine
 10
-16.416024902834558
 20
-116.55903277362309
 30
0.0
 11
-16.388293846853415
 21
-116.50194597155668
 31
0.0
  0
LINE
  5
207
330
17
100
AcDbEntity
  8
0
100
AcDbLine
 10
-16.388293846853415
 20
-116.50194597155668
 30
0.0
 11
-16.36147201858183
 21
-116.44442637520754
 31
0.0
  0
LINE
  5
208
330
17
100
AcDbEntity
  8
0
100
AcDbLine
 10
-16.36147201858183
 20
-116.44442637520754
 30
0.0
 11
-16.335566170271623
 21
-116.38648846482644
 31
0.0
  0
LINE
  5
209
330
17
100
AcDbEntity
  8
0
100
AcDbLine
 10
-16.335566170271623
 20
-116.38648846482644
 30
0.0
 11
-16.310582823581576
 21
-116.32814682597251
 31
0.0
  0
LINE
  5
20A
330
17
100
AcDbEntity
  8
0
100
AcDbLine
 10
-16.310582823581576
 20
-116.32814682597251
 30
0.0
 11
-16.28652826793561
 21
-116.2694161458413
 31
0.0
  0
LINE
  5
20B
330
17
100
AcDbEntity
  8
0
100
AcDbLine
 10
-16.28652826793561
 20
-116.2694161458413
 30
0.0
 11
-16.263408558939474
 21
-116.21031120956748
 31
0.0
  0
LINE
  5
20C
330
17
100
AcDbEntity
  8
0
100
AcDbLine
 10
-16.263408558939474
 20
-116.21031120956748
 30
0.0
 11
-16.24122951685627
 21
-116.15084689650267
 31
0.0
  0
LINE
  5
20D
330
17
100
AcDbEntity
  8
0
100
AcDbLine
 10
-16.24122951685627
 20
-116.15084689650267
 30
0.0
 11
-16.219996725141225
 21
-116.09103817646968
 31
0.0
  0
LINE
  5
20E
330
17
100
AcDbEntity
  8
0
100
AcDbLine
 10
-16.219996725141225
 20
-116.09103817646968
 30
0.0
 11
-16.19971552903612
 21
-116.03090010599394
 31
0.0
  0
LINE
  5
20F
330
17
100
AcDbEntity
  8
0
100
AcDbLine
 10
-16.19971552903612
 20
-116.03090010599394
 30
0.0
 11
-16.180391034223604
 21
-115.97044782451309
 31
0.0
  0
LINE
  5
210
330
17
100
AcDbEntity
  8
0
100
AcDbLine
 10
-16.180391034223604
 20
-115.97044782451309
 30
0.0
 11
-16.16202810554191
 21
-115.90969655056571
 31
0.0
  0
LINE
  5
211
330
17
100
AcDbEntity
  8
0
100
AcDbLine
 10
-16.16202810554191
 20
-115.90969655056571
 30
0.0
 11
-16.144631365760134
 21
-115.84866157796013
 31
0.0
  0
LINE
  5
212
330
17
100
AcDbEntity
  8
0
100
AcDbLine
 10
-16.144631365760134
 20
-115.84866157796013
 30
0.0
 11
-16.128205194414477
 21
-115.7873582719243
 31
0.0
  0
LINE
  5
213
330
17
100
AcDbEntity
  8
0
100
AcDbLine
 10
-16.128205194414477
 20
-115.7873582719243
 30
0.0
 11
-16.112753726705733
 21
-115.7258020652377
 31
0.0
  0
LINE
  5
214
330
17
100
AcDbEntity
  8
0
100
AcDbLine
 10
-16.112753726705733
 20
-115.7258020652377
 30
0.0
 11
-16.098280852458274
 21
-115.66400845434616
 31
0.0
  0
LINE
  5
215
330
17
100
AcDbEntity
  8
0
100
AcDbLine
 10
-16.098280852458274
 20
-115.66400845434616
 30
0.0
 11
-16.084790215140785
 21
-115.60199299546076
 31
0.0
  0
LINE
  5
216
330
17
100
AcDbEntity
  8
0
100
AcDbLine
 10
-16.084790215140785
 20
-115.60199299546076
 30
0.0
 11
-16.072285210949072
 21
-115.53977130064163
 31
0.0
  0
LINE
  5
217
330
17
100
AcDbEntity
  8
0
100
AcDbLine
 10
-16.072285210949072
 20
-115.53977130064163
 30
0.0
 11
-16.060768987951068
 21
-115.47735903386771
 31
0.0
  0
LINE
  5
218
330
17
100
AcDbEntity
  8
0
100
AcDbLine
 10
-16.060768987951068
 20
-115.47735903386771
 30
0.0
 11
-16.050244445294325
 21
-115.4147719070934
 31
0.0
  0
LINE
  5
219
330
17
100
AcDbEntity
  8
0
100
AcDbLine
 10
-16.050244445294325
 20
-115.4147719070934
 30
0.0
 11
-16.04071423247617
 21
-115.35202567629314
 31
0.0
  0
LINE
  5
21A
330
17
100
AcDbEntity
  8
0
100
AcDbLine
 10
-16.04071423247617
 20
-115.35202567629314
 30
0.0
 11
-16.03218074867672
 21
-115.28913613749499
 31
0.0
  0
LINE
  5
21B
330
17
100
AcDbEntity
  8
0
100
AcDbLine
 10
-16.03218074867672
 20
-115.28913613749499
 30
0.0
 11
-16.024646142154886
 21
-115.22611912280404
 31
0.0
  0
LINE
  5
21C
330
17
100
AcDbEntity
  8
0
100
AcDbLine
 10
-16.024646142154886
 20
-115.22611912280404
 30
0.0
 11
-16.01811230970756
 21
-115.16299049641673
 31
0.0
  0
LINE
  5
21D
330
17
100
AcDbEntity
  8
0
100
AcDbLine
 10
-16.01811230970756
 20
-115.16299049641673
 30
0.0
 11
-16.01258089619213
 21
-115.09976615062715
 31
0.0
  0
LINE
  5
21E
330
17
100
AcDbEntity
  8
0
100
AcDbLine
 10
-16.01258089619213
 20
-115.09976615062715
 30
0.0
 11
-16.00805329411236
 21
-115.03646200182625
 31
0.0
  0
LINE
  5
21F
330
17
100
AcDbEntity
  8
0
100
AcDbLine
 10
-16.00805329411236
 20
-115.03646200182625
 30
0.0
 11
-16.00453064326787
 21
-114.97309398649496
 31
0.0
  0
LINE
  5
220
330
17
100
AcDbEntity
  8
0
100
AcDbLine
 10
-16.00453064326787
 20
-114.97309398649496
 30
0.0
 11
-16.00201383046716
 21
-114.90967805719227
 31
0.0
  0
LINE
  5
221
330
17
100
AcDbEntity
  8
0
100
AcDbLine
 10
-16.00201383046716
 20
-114.90967805719227
 30
0.0
 11
-16.0005034893044
 21
-114.84623017853923
 31
0.0
  0
LINE
  5
222
330
17
100
AcDbEntity
  8
0
100
AcDbLine
 10
-16.0005034893044
 20
-114.84623017853923
 30
0.0
 11
-15.9999999999999
 21
-114.7827663232
 31
0.0
  0
LINE
  5
223
330
17
100
AcDbEntity
  8
0
100
AcDbLine
 10
-20.55662585918721
 20
-118.74384794983735
 30
0.0
 11
-20.551039400641884
 21
-118.7446289632899
 31
0.0
  0
LINE
  5
224
330
17
100
AcDbEntity
  8
0
100
AcDbLine
 10
-20.551039400641884
 20
-118.7446289632899
 30
0.0
 11
-20.545451846268566
 21
-118.74540209795927
 31
0.0
  0
LINE
  5
225
330
17
100
AcDbEntity
  8
0
100
AcDbLine
 10
-20.545451846268566
 20
-118.74540209795927
 30
0.0
 11
-20.539863207178993
 21
-118.74616735230799
 31
0.0
  0
LINE
  5
226
330
17
100
AcDbEntity
  8
0
100
AcDbLine
 10
-20.539863207178993
 20
-118.74616735230799
 30
0.0
 11
-20.534273494487042
 21
-118.74692472481419
 31
0.0
  0
LINE
  5
227
330
17
100
AcDbEntity
  8
0
100
AcDbLine
 10
-20.534273494487042
 20
-118.74692472481419
 30
0.0
 11
-20.52868271930873
 21
-118.74767421397176
 31
0.0
  0
LINE
  5
228
330
17
100
AcDbEntity
  8
0
100
AcDbLine
 10
-20.52868271930873
 20
-118.74767421397176
 30
0.0
 11
-20.523090892762188
 21
-118.7484158182902
 31
0.0
  0
LINE
  5
229
330
17
100
AcDbEntity
  8
0
100
AcDbLine
 10
-20.523090892762188
 20
-118.7484158182902
 30
0.0
 11
-20.517498025967633
 21
-118.7491495362947
 31
0.0
  0
LINE
  5
22A
330
17
100
AcDbEntity
  8
0
100
AcDbLine
 10
-20.517498025967633
 20
-118.7491495362947
 30
0.0
 11
-20.511904130047363
 21
-118.74987536652617
 31
0.0
  0
LINE
  5
22B
330
17
100
AcDbEntity
  8
0
100
AcDbLine
 10
-20.511904130047363
 20
-118.74987536652617
 30
0.0
 11
-20.50630921612571
 21
-118.75059330754118
 31
0.0
  0
LINE
  5
22C
330
17
100
AcDbEntity
  8
0
100
AcDbLine
 10
-20.50630921612571
 20
-118.75059330754118
 30
0.0
 11
-20.500713295329035
 21
-118.75130335791198
 31
0.0
  0
LINE
  5
22D
330
17
100
AcDbEntity
  8
0
100
AcDbLine
 10
-20.500713295329035
 20
-118.75130335791198
 30
0.0
 11
-20.495116378785703
 21
-118.75200551622655
 31
0.0
  0
LINE
  5
22E
330
17
100
AcDbEntity
  8
0
100
AcDbLine
 10
-20.495116378785703
 20
-118.75200551622655
 30
0.0
 11
-20.489518477626053
 21
-118.7526997810885
 31
0.0
  0
LINE
  5
22F
330
17
100
AcDbEntity
  8
0
100
AcDbLine
 10
-20.489518477626053
 20
-118.7526997810885
 30
0.0
 11
-20.483919602982393
 21
-118.7533861511172
 31
0.0
  0
LINE
  5
230
330
17
100
AcDbEntity
  8
0
100
AcDbLine
 10
-20.483919602982393
 20
-118.7533861511172
 30
0.0
 11
-20.478319765988957
 21
-118.75406462494769
 31
0.0
  0
LINE
  5
231
330
17
100
AcDbEntity
  8
0
100
AcDbLine
 10
-20.478319765988957
 20
-118.75406462494769
 30
0.0
 11
-20.47271897778189
 21
-118.75473520123073
 31
0.0
  0
LINE
  5
232
330
17
100
AcDbEntity
  8
0
100
AcDbLine
 10
-20.47271897778189
 20
-118.75473520123073
 30
0.0
 11
-20.46711724949925
 21
-118.75539787863276
 31
0.0
  0
LINE
  5
233
330
17
100
AcDbEntity
  8
0
100
AcDbLine
 10
-20.46711724949925
 20
-118.75539787863276
 30
0.0
 11
-20.461514592280935
 21
-118.75605265583594
 31
0.0
  0
LINE
  5
234
330
17
100
AcDbEntity
  8
0
100
AcDbLine
 10
-20.461514592280935
 20
-118.75605265583594
 30
0.0
 11
-20.45591101726871
 21
-118.75669953153816
 31
0.0
  0
LINE
  5
235
330
17
100
AcDbEntity
  8
0
100
AcDbLine
 10
-20.45591101726871
 20
-118.75669953153816
 30
0.0
 11
-20.450306535606163
 21
-118.757338504453
 31
0.0
  0
LINE
  5
236
330
17
100
AcDbEntity
  8
0
100
AcDbLine
 10
-20.450306535606163
 20
-118.757338504453
 30
0.0
 11
-20.444701158438676
 21
-118.75796957330975
 31
0.0
  0
LINE
  5
237
330
17
100
AcDbEntity
  8
0
100
AcDbLine
 10
-20.444701158438676
 20
-118.75796957330975
 30
0.0
 11
-20.43909489691342
 21
-118.75859273685344
 31
0.0
  0
LINE
  5
238
330
17
100
AcDbEntity
  8
0
100
AcDbLine
 10
-20.43909489691342
 20
-118.75859273685344
 30
0.0
 11
-20.433487762179325
 21
-118.75920799384483
 31
0.0
  0
LINE
  5
239
330
17
100
AcDbEntity
  8
0
100
AcDbLine
 10
-20.433487762179325
 20
-118.75920799384483
 30
0.0
 11
-20.427879765387054
 21
-118.75981534306035
 31
0.0
  0
LINE
  5
23A
330
17
100
AcDbEntity
  8
0
100
AcDbLine
 10
-20.427879765387054
 20
-118.75981534306035
 30
0.0
 11
-20.422270917688984
 21
-118.76041478329222
 31
0.0
  0
LINE
  5
23B
330
17
100
AcDbEntity
  8
0
100
AcDbLine
 10
-20.422270917688984
 20
-118.76041478329222
 30
0.0
 11
-20.416661230239182
 21
-118.76100631334833
 31
0.0
  0
LINE
  5
23C
330
17
100
AcDbEntity
  8
0
100
AcDbLine
 10
-20.416661230239182
 20
-118.76100631334833
 30
0.0
 11
-20.411050714193394
 21
-118.76158993205236
 31
0.0
  0
LINE
  5
23D
330
17
100
AcDbEntity
  8
0
100
AcDbLine
 10
-20.411050714193394
 20
-118.76158993205236
 30
0.0
 11
-20.405439380709005
 21
-118.76216563824369
 31
0.0
  0
LINE
  5
23E
330
17
100
AcDbEntity
  8
0
100
AcDbLine
 10
-20.405439380709005
 20
-118.76216563824369
 30
0.0
 11
-20.399827240945033
 21
-118.76273343077742
 31
0.0
  0
LINE
  5
23F
330
17
100
AcDbEntity
  8
0
100
AcDbLine
 10
-20.399827240945033
 20
-118.76273343077742
 30
0.0
 11
-20.39421430606209
 21
-118.76329330852441
 31
0.0
  0
LINE
  5
240
330
17
100
AcDbEntity
  8
0
100
AcDbLine
 10
-20.39421430606209
 20
-118.76329330852441
 30
0.0
 11
-20.388600587222374
 21
-118.76384527037126
 31
0.0
  0
LINE
  5
241
330
17
100
AcDbEntity
  8
0
100
AcDbLine
 10
-20.388600587222374
 20
-118.76384527037126
 30
0.0
 11
-20.38298609558965
 21
-118.76438931522033
 31
0.0
  0
LINE
  5
242
330
17
100
AcDbEntity
  8
0
100
AcDbLine
 10
-20.38298609558965
 20
-118.76438931522033
 30
0.0
 11
-20.377370842329203
 21
-118.76492544198966
 31
0.0
  0
LINE
  5
243
330
17
100
AcDbEntity
  8
0
100
AcDbLine
 10
-20.377370842329203
 20
-118.76492544198966
 30
0.0
 11
-20.37175483860785
 21
-118.76545364961311
 31
0.0
  0
LINE
  5
244
330
17
100
AcDbEntity
  8
0
100
AcDbLine
 10
-20.37175483860785
 20
-118.76545364961311
 30
0.0
 11
-20.366138095593886
 21
-118.76597393704023
 31
0.0
  0
LINE
  5
245
330
17
100
AcDbEntity
  8
0
100
AcDbLine
 10
-20.366138095593886
 20
-118.76597393704023
 30
0.0
 11
-20.360520624457084
 21
-118.76648630323636
 31
0.0
  0
LINE
  5
246
330
17
100
AcDbEntity
  8
0
100
AcDbLine
 10
-20.360520624457084
 20
-118.76648630323636
 30
0.0
 11
-20.354902436368665
 21
-118.7669907471826
 31
0.0
  0
LINE
  5
247
330
17
100
AcDbEntity
  8
0
100
AcDbLine
 10
-20.354902436368665
 20
-118.7669907471826
 30
0.0
 11
-20.349283542501276
 21
-118.76748726787575
 31
0.0
  0
LINE
  5
248
330
17
100
AcDbEntity
  8
0
100
AcDbLine
 10
-20.349283542501276
 20
-118.76748726787575
 30
0.0
 11
-20.34366395402896
 21
-118.76797586432843
 31
0.0
  0
LINE
  5
249
330
17
100
AcDbEntity
  8
0
100
AcDbLine
 10
-20.34366395402896
 20
-118.76797586432843
 30
0.0
 11
-20.33804368212715
 21
-118.76845653556897
 31
0.0
  0
LINE
  5
24A
330
17
100
AcDbEntity
  8
0
100
AcDbLine
 10
-20.33804368212715
 20
-118.76845653556897
 30
0.0
 11
-20.33242273797264
 21
-118.76892928064149
 31
0.0
  0
LINE
  5
24B
330
17
100
AcDbEntity
  8
0
100
AcDbLine
 10
-20.33242273797264
 20
-118.76892928064149
 30
0.0
 11
-20.326801132743547
 21
-118.76939409860586
 31
0.0
  0
LINE
  5
24C
330
17
100
AcDbEntity
  8
0
100
AcDbLine
 10
-20.326801132743547
 20
-118.76939409860586
 30
0.0
 11
-20.32117887761932
 21
-118.76985098853771
 31
0.0
  0
LINE
  5
24D
330
17
100
AcDbEntity
  8
0
100
AcDbLine
 10
-20.32117887761932
 20
-118.76985098853771
 30
0.0
 11
-20.315555983780687
 21
-118.77029994952845
 31
0.0
  0
LINE
  5
24E
330
17
100
AcDbEntity
  8
0
100
AcDbLine
 10
-20.315555983780687
 20
-118.77029994952845
 30
0.0
 11
-20.309932462409655
 21
-118.77074098068525
 31
0.0
  0
LINE
  5
24F
330
17
100
AcDbEntity
  8
0
100
AcDbLine
 10
-20.309932462409655
 20
-118.77074098068525
 30
0.0
 11
-20.304308324689472
 21
-118.77117408113105
 31
0.0
  0
LINE
  5
250
330
17
100
AcDbEntity
  8
0
100
AcDbLine
 10
-20.304308324689472
 20
-118.77117408113105
 30
0.0
 11
-20.298683581804614
 21
-118.77159925000456
 31
0.0
  0
LINE
  5
251
330
17
100
AcDbEntity
  8
0
100
AcDbLine
 10
-20.298683581804614
 20
-118.77159925000456
 30
0.0
 11
-20.293058244940767
 21
-118.77201648646027
 31
0.0
  0
LINE
  5
252
330
17
100
AcDbEntity
  8
0
100
AcDbLine
 10
-20.293058244940767
 20
-118.77201648646027
 30
0.0
 11
-20.28743232528479
 21
-118.77242578966845
 31
0.0
  0
LINE
  5
253
330
17
100
AcDbEntity
  8
0
100
AcDbLine
 10
-20.28743232528479
 20
-118.77242578966845
 30
0.0
 11
-20.281805834024702
 21
-118.7728271588151
 31
0.0
  0
LINE
  5
254
330
17
100
AcDbEntity
  8
0
100
AcDbLine
 10
-20.281805834024702
 20
-118.7728271588151
 30
0.0
 11
-20.27617878234966
 21
-118.77322059310208
 31
0.0
  0
LINE
  5
255
330
17
100
AcDbEntity
  8
0
100
AcDbLine
 10
-20.27617878234966
 20
-118.77322059310208
 30
0.0
 11
-20.270551181449942
 21
-118.77360609174696
 31
0.0
  0
LINE
  5
256
330
17
100
AcDbEntity
  8
0
100
AcDbLine
 10
-20.270551181449942
 20
-118.77360609174696
 30
0.0
 11
-20.264923042516905
 21
-118.77398365398311
 31
0.0
  0
LINE
  5
257
330
17
100
AcDbEntity
  8
0
100
AcDbLine
 10
-20.264923042516905
 20
-118.77398365398311
 30
0.0
 11
-20.259294376742986
 21
-118.77435327905971
 31
0.0
  0
LINE
  5
258
330
17
100
AcDbEntity
  8
0
100
AcDbLine
 10
-20.259294376742986
 20
-118.77435327905971
 30
0.0
 11
-20.253665195321666
 21
-118.77471496624167
 31
0.0
  0
LINE
  5
259
330
17
100
AcDbEntity
  8
0
100
AcDbLine
 10
-20.253665195321666
 20
-118.77471496624167
 30
0.0
 11
-20.24803550944745
 21
-118.77506871480976
 31
0.0
  0
LINE
  5
25A
330
17
100
AcDbEntity
  8
0
100
AcDbLine
 10
-20.24803550944745
 20
-118.77506871480976
 30
0.0
 11
-20.242405330315854
 21
-118.77541452406047
 31
0.0
  0
LINE
  5
25B
330
17
100
AcDbEntity
  8
0
100
AcDbLine
 10
-20.242405330315854
 20
-118.77541452406047
 30
0.0
 11
-20.236774669123367
 21
-118.7757523933061
 31
0.0
  0
LINE
  5
25C
330
17
100
AcDbEntity
  8
0
100
AcDbLine
 10
-20.236774669123367
 20
-118.7757523933061
 30
0.0
 11
-20.23114353706744
 21
-118.77608232187477
 31
0.0
  0
LINE
  5
25D
330
17
100
AcDbEntity
  8
0
100
AcDbLine
 10
-20.23114353706744
 20
-118.77608232187477
 30
0.0
 11
-20.22551194534645
 21
-118.77640430911033
 31
0.0
  0
LINE
  5
25E
330
17
100
AcDbEntity
  8
0
100
AcDbLine
 10
-20.22551194534645
 20
-118.77640430911033
 30
0.0
 11
-20.21987990515971
 21
-118.77671835437249
 31
0.0
  0
LINE
  5
25F
330
17
100
AcDbEntity
  8
0
100
AcDbLine
 10
-20.21987990515971
 20
-118.77671835437249
 30
0.0
 11
-20.21424742770741
 21
-118.7770244570367
 31
0.0
  0
LINE
  5
260
330
17
100
AcDbEntity
  8
0
100
AcDbLine
 10
-20.21424742770741
 20
-118.7770244570367
 30
0.0
 11
-20.208614524190605
 21
-118.77732261649425
 31
0.0
  0
LINE
  5
261
330
17
100
AcDbEntity
  8
0
100
AcDbLine
 10
-20.208614524190605
 20
-118.77732261649425
 30
0.0
 11
-20.20298120581121
 21
-118.77761283215217
 31
0.0
  0
LINE
  5
262
330
17
100
AcDbEntity
  8
0
100
AcDbLine
 10
-20.20298120581121
 20
-118.77761283215217
 30
0.0
 11
-20.197347483771956
 21
-118.77789510343335
 31
0.0
  0
LINE
  5
263
330
17
100
AcDbEntity
  8
0
100
AcDbLine
 10
-20.197347483771956
 20
-118.77789510343335
 30
0.0
 11
-20.191713369276385
 21
-118.77816942977643
 31
0.0
  0
LINE
  5
264
330
17
100
AcDbEntity
  8
0
100
AcDbLine
 10
-20.191713369276385
 20
-118.77816942977643
 30
0.0
 11
-20.186078873528807
 21
-118.77843581063588
 31
0.0
  0
LINE
  5
265
330
17
100
AcDbEntity
  8
0
100
AcDbLine
 10
-20.186078873528807
 20
-118.77843581063588
 30
0.0
 11
-20.180444007734305
 21
-118.77869424548197
 31
0.0
  0
LINE
  5
266
330
17
100
AcDbEntity
  8
0
100
AcDbLine
 10
-20.180444007734305
 20
-118.77869424548197
 30
0.0
 11
-20.174808783098683
 21
-118.77894473380074
 31
0.0
  0
LINE
  5
267
330
17
100
AcDbEntity
  8
0
100
AcDbLine
 10
-20.174808783098683
 20
-118.77894473380074
 30
0.0
 11
-20.169173210828475
 21
-118.77918727509407
 31
0.0
  0
LINE
  5
268
330
17
100
AcDbEntity
  8
0
100
AcDbLine
 10
-20.169173210828475
 20
-118.77918727509407
 30
0.0
 11
-20.163537302130887
 21
-118.77942186887962
 31
0.0
  0
LINE
  5
269
330
17
100
AcDbEntity
  8
0
100
AcDbLine
 10
-20.163537302130887
 20
-118.77942186887962
 30
0.0
 11
-20.157901068213814
 21
-118.77964851469088
 31
0.0
  0
LINE
  5
26A
330
17
100
AcDbEntity
  8
0
100
AcDbLine
 10
-20.157901068213814
 20
-118.77964851469088
 30
0.0
 11
-20.152264520285783
 21
-118.7798672120771
 31
0.0
  0
LINE
  5
26B
330
17
100
AcDbEntity
  8
0
100
AcDbLine
 10
-20.152264520285783
 20
-118.7798672120771
 30
0.0
 11
-20.14662766955595
 21
-118.78007796060338
 31
0.0
  0
LINE
  5
26C
330
17
100
AcDbEntity
  8
0
100
AcDbLine
 10
-20.14662766955595
 20
-118.78007796060338
 30
0.0
 11
-20.140990527234077
 21
-118.78028075985063
 31
0.0
  0
LINE
  5
26D
330
17
100
AcDbEntity
  8
0
100
AcDbLine
 10
-20.140990527234077
 20
-118.78028075985063
 30
0.0
 11
-20.135353104530502
 21
-118.78047560941553
 31
0.0
  0
LINE
  5
26E
330
17
100
AcDbEntity
  8
0
100
AcDbLine
 10
-20.135353104530502
 20
-118.78047560941553
 30
0.0
 11
-20.129715412656118
 21
-118.7806625089106
 31
0.0
  0
LINE
  5
26F
330
17
100
AcDbEntity
  8
0
100
AcDbLine
 10
-20.129715412656118
 20
-118.7806625089106
 30
0.0
 11
-20.12407746282236
 21
-118.78084145796416
 31
0.0
  0
LINE
  5
270
330
17
100
AcDbEntity
  8
0
100
AcDbLine
 10
-20.12407746282236
 20
-118.78084145796416
 30
0.0
 11
-20.11843926624117
 21
-118.78101245622035
 31
0.0
  0
LINE
  5
271
330
17
100
AcDbEntity
  8
0
100
AcDbLine
 10
-20.11843926624117
 20
-118.78101245622035
 30
0.0
 11
-20.11280083412499
 21
-118.7811755033391
 31
0.0
  0
LINE
  5
272
330
17
100
AcDbEntity
  8
0
100
AcDbLine
 10
-20.11280083412499
 20
-118.7811755033391
 30
0.0
 11
-20.107162177686714
 21
-118.78133059899618
 31
0.0
  0
LINE
  5
273
330
17
100
AcDbEntity
  8
0
100
AcDbLine
 10
-20.107162177686714
 20
-118.78133059899618
 30
0.0
 11
-20.101523308139697
 21
-118.78147774288314
 31
0.0
  0
LINE
  5
274
330
17
100
AcDbEntity
  8
0
100
AcDbLine
 10
-20.101523308139697
 20
-118.78147774288314
 30
0.0
 11
-20.095884236697714
 21
-118.78161693470736
 31
0.0
  0
LINE
  5
275
330
17
100
AcDbEntity
  8
0
100
AcDbLine
 10
-20.095884236697714
 20
-118.78161693470736
 30
0.0
 11
-20.090244974574937
 21
-118.78174817419206
 31
0.0
  0
LINE
  5
276
330
17
100
AcDbEntity
  8
0
100
AcDbLine
 10
-20.090244974574937
 20
-118.78174817419206
 30
0.0
 11
-20.08460553298592
 21
-118.78187146107624
 31
0.0
  0
LINE
  5
277
330
17
100
AcDbEntity
  8
0
100
AcDbLine
 10
-20.08460553298592
 20
-118.78187146107624
 30
0.0
 11
-20.078965923145574
 21
-118.7819867951147
 31
0.0
  0
LINE
  5
278
330
17
100
AcDbEntity
  8
0
100
AcDbLine
 10
-20.078965923145574
 20
-118.7819867951147
 30
0.0
 11
-20.07332615626915
 21
-118.78209417607812
 31
0.0
  0
LINE
  5
279
330
17
100
AcDbEntity
  8
0
100
AcDbLine
 10
-20.07332615626915
 20
-118.78209417607812
 30
0.0
 11
-20.0676862435722
 21
-118.78219360375293
 31
0.0
  0
LINE
  5
27A
330
17
100
AcDbEntity
  8
0
100
AcDbLine
 10
-20.0676862435722
 20
-118.78219360375293
 30
0.0
 11
-20.062046196270572
 21
-118.78228507794141
 31
0.0
  0
LINE
  5
27B
330
17
100
AcDbEntity
  8
0
100
AcDbLine
 10
-20.062046196270572
 20
-118.78228507794141
 30
0.0
 11
-20.056406025580387
 21
-118.78236859846164
 31
0.0
  0
LINE
  5
27C
330
17
100
AcDbEntity
  8
0
100
AcDbLine
 10
-20.056406025580387
 20
-118.78236859846164
 30
0.0
 11
-20.050765742718003
 21
-118.78244416514755
 31
0.0
  0
LINE
  5
27D
330
17
100
AcDbEntity
  8
0
100
AcDbLine
 10
-20.050765742718003
 20
-118.78244416514755
 30
0.0
 11
-20.045125358900002
 21
-118.78251177784884
 31
0.0
  0
LINE
  5
27E
330
17
100
AcDbEntity
  8
0
100
AcDbLine
 10
-20.045125358900002
 20
-118.78251177784884
 30
0.0
 11
-20.03948488534317
 21
-118.78257143643107
 31
0.0
  0
LINE
  5
27F
330
17
100
AcDbEntity
  8
0
100
AcDbLine
 10
-20.03948488534317
 20
-118.78257143643107
 30
0.0
 11
-20.033844333264472
 21
-118.78262314077557
 31
0.0
  0
LINE
  5
280
330
17
100
AcDbEntity
  8
0
100
AcDbLine
 10
-20.033844333264472
 20
-118.78262314077557
 30
0.0
 11
-20.028203713881027
 21
-118.78266689077955
 31
0.0
  0
LINE
  5
281
330
17
100
AcDbEntity
  8
0
100
AcDbLine
 10
-20.028203713881027
 20
-118.78266689077955
 30
0.0
 11
-20.02256303841009
 21
-118.782702686356
 31
0.0
  0
LINE
  5
282
330
17
100
AcDbEntity
  8
0
100
AcDbLine
 10
-20.02256303841009
 20
-118.782702686356
 30
0.0
 11
-20.01692231806902
 21
-118.78273052743373
 31
0.0
  0
LINE
  5
283
330
17
100
AcDbEntity
  8
0
100
AcDbLine
 10
-20.01692231806902
 20
-118.78273052743373
 30
0.0
 11
-20.01128156407528
 21
-118.78275041395736
 31
0.0
  0
LINE
  5
284
330
17
100
AcDbEntity
  8
0
100
AcDbLine
 10
-20.01128156407528
 20
-118.78275041395736
 30
0.0
 11
-20.005640787646385
 21
-118.78276234588736
 31
0.0
  0
LINE
  5
285
330
17
100
AcDbEntity
  8
0
100
AcDbLine
 10
-20.005640787646385
 20
-118.78276234588736
 30
0.0
 11
-19.9999999999999
 21
-118.7827663232
 31
0.0
  0
LINE
  5
286
330
17
100
AcDbEntity
  8
0
100
AcDbLine
 10
-20.556625859187275
 20
-118.74384794983776
 30
0.0
 11
-22.10748160840616
 21
-118.51862990633707
 31
0.0
  0
LINE
  5
287
330
17
100
AcDbEntity
  8
0
100
AcDbLine
 10
-22.10748160840616
 20
-118.51862990633707
 30
0.0
 11
-23.65630776619333
 21
-118.2793230567935
 31
0.0
  0
LINE
  5
288
330
17
100
AcDbEntity
  8
0
100
AcDbLine
 10
-23.65630776619333
 20
-118.2793230567935
 30
0.0
 11
-25.202571575943956
 21
-118.02615525741845
 31
0.0
  0
LINE
  5
289
330
17
100
AcDbEntity
  8
0
100
AcDbLine
 10
-25.202571575943956
 20
-118.02615525741845
 30
0.0
 11
-26.74593050298227
 21
-117.75903718751096
 31
0.0
  0
LINE
  5
28A
330
17
100
AcDbEntity
  8
0
100
AcDbLine
 10
-26.74593050298227
 20
-117.75903718751096
 30
0.0
 11
-28.286042843609103
 21
-117.47787847213809
 31
0.0
  0
LINE
  5
28B
330
17
100
AcDbEntity
  8
0
100
AcDbLine
 10
-28.286042843609103
 20
-117.47787847213809
 30
0.0
 11
-29.82256689412532
 21
-117.18258873636687
 31
0.0
  0
LINE
  5
28C
330
17
100
AcDbEntity
  8
0
100
AcDbLine
 10
-29.82256689412532
 20
-117.18258873636687
 30
0.0
 11
-31.35516095083174
 21
-116.87307760526434
 31
0.0
  0
LINE
  5
28D
330
17
100
AcDbEntity
  8
0
100
AcDbLine
 10
-31.35516095083174
 20
-116.87307760526434
 30
0.0
 11
-32.883483310029234
 21
-116.54925470389752
 31
0.0
  0
LINE
  5
28E
330
17
100
AcDbEntity
  8
0
100
AcDbLine
 10
-32.883483310029234
 20
-116.54925470389752
 30
0.0
 11
-34.407192268018626
 21
-116.21102965733347
 31
0.0
  0
LINE
  5
28F
330
17
100
AcDbEntity
  8
0
100
AcDbLine
 10
-34.407192268018626
 20
-116.21102965733347
 30
0.0
 11
-35.925946121100765
 21
-115.8583120906392
 31
0.0
  0
LINE
  5
290
330
17
100
AcDbEntity
  8
0
100
AcDbLine
 10
-35.925946121100765
 20
-115.8583120906392
 30
0.0
 11
-37.439403165576486
 21
-115.49101162888176
 31
0.0
  0
LINE
  5
291
330
17
100
AcDbEntity
  8
0
100
AcDbLine
 10
-37.439403165576486
 20
-115.49101162888176
 30
0.0
 11
-38.94729014184351
 21
-115.10902097078969
 31
0.0
  0
LINE
  5
292
330
17
100
AcDbEntity
  8
0
100
AcDbLine
 10
-38.94729014184351
 20
-115.10902097078969
 30
0.0
 11
-40.46529977886576
 21
-114.70860650733314
 31
0.0
  0
LINE
  5
293
330
17
100
AcDbEntity
  8
0
100
AcDbLine
 10
-40.46529977886576
 20
-114.70860650733314
 30
0.0
 11
-42.00004512514016
 21
-114.28941076708655
 31
0.0
  0
LINE
  5
294
330
17
100
AcDbEntity
  8
0
100
AcDbLine
 10
-42.00004512514016
 20
-114.28941076708655
 30
0.0
 11
-43.54343479536643
 21
-113.85495969551387
 31
0.0
  0
LINE
  5
295
330
17
100
AcDbEntity
  8
0
100
AcDbLine
 10
-43.54343479536643
 20
-113.85495969551387
 30
0.0
 11
-45.08737740424429
 21
-113.40877923807906
 31
0.0
  0
LINE
  5
296
330
17
100
AcDbEntity
  8
0
100
AcDbLine
 10
-45.08737740424429
 20
-113.40877923807906
 30
0.0
 11
-46.623781566473475
 21
-112.95439534024607
 31
0.0
  0
LINE
  5
297
330
17
100
AcDbEntity
  8
0
100
AcDbLine
 10
-46.623781566473475
 20
-112.95439534024607
 30
0.0
 11
-48.13843084474964
 21
-112.49610846523872
 31
0.0
  0
LINE
  5
298
330
17
100
AcDbEntity
  8
0
100
AcDbLine
 10
-48.13843084474964
 20
-112.49610846523872
 30
0.0
 11
-49.604590490853646
 21
-112.03717394379743
 31
0.0
  0
LINE
  5
299
330
17
100
AcDbEntity
  8
0
100
AcDbLine
 10
-49.604590490853646
 20
-112.03717394379743
 30
0.0
 11
-51.02064728178646
 21
-111.5745066541731
 31
0.0
  0
LINE
  5
29A
330
17
100
AcDbEntity
  8
0
100
AcDbLine
 10
-51.02064728178646
 20
-111.5745066541731
 30
0.0
 11
-52.38727790673563
 21
-111.10459756682434
 31
0.0
  0
LINE
  5
29B
330
17
100
AcDbEntity
  8
0
100
AcDbLine
 10
-52.38727790673563
 20
-111.10459756682434
 30
0.0
 11
-53.70515905488874
 21
-110.62393765220972
 31
0.0
  0
LINE
  5
29C
330
17
100
AcDbEntity
  8
0
100
AcDbLine
 10
-53.70515905488874
 20
-110.62393765220972
 30
0.0
 11
-54.9759895610893
 21
-110.12864276643994
 31
0.0
  0
LINE
  5
29D
330
17
100
AcDbEntity
  8
0
100
AcDbLine
 10
-54.9759895610893
 20
-110.12864276643994
 30
0.0
 11
-56.23437953089494
 21
-109.60378850015269
 31
0.0
  0
LINE
  5
29E
330
17
100
AcDbEntity
  8
0
100
AcDbLine
 10
-56.23437953089494
 20
-109.60378850015269
 30
0.0
 11
-57.494334289811185
 21
-109.0448578370047
 31
0.0
  0
LINE
  5
29F
330
17
100
AcDbEntity
  8
0
100
AcDbLine
 10
-57.494334289811185
 20
-109.0448578370047
 30
0.0
 11
-58.75221575865928
 21
-108.45427744531966
 31
0.0
  0
LINE
  5
2A0
330
17
100
AcDbEntity
  8
0
100
AcDbLine
 10
-58.75221575865928
 20
-108.45427744531966
 30
0.0
 11
-60.00438585826055
 21
-107.83447399342123
 31
0.0
  0
LINE
  5
2A1
330
17
100
AcDbEntity
  8
0
100
AcDbLine
 10
-60.00438585826055
 20
-107.83447399342123
 30
0.0
 11
-61.24720650943625
 21
-107.18787414963303
 31
0.0
  0
LINE
  5
2A2
330
17
100
AcDbEntity
  8
0
100
AcDbLine
 10
-61.24720650943625
 20
-107.18787414963303
 30
0.0
 11
-62.47514580516473
 21
-106.51762749867393
 31
0.0
  0
LINE
  5
2A3
330
17
100
AcDbEntity
  8
0
100
AcDbLine
 10
-62.47514580516473
 20
-106.51762749867393
 30
0.0
 11
-63.682769726577156
 21
-105.82601377349678
 31
0.0
  0
LINE
  5
2A4
330
17
100
AcDbEntity
  8
0
100
AcDbLine
 10
-63.682769726577156
 20
-105.82601377349678
 30
0.0
 11
-64.87135829055835
 21
-105.11198694391379
 31
0.0
  0
LINE
  5
2A5
330
17
100
AcDbEntity
  8
0
100
AcDbLine
 10
-64.87135829055835
 20
-105.11198694391379
 30
0.0
 11
-66.04242738392789
 21
-104.37439560852263
 31
0.0
  0
LINE
  5
2A6
330
17
100
AcDbEntity
  8
0
100
AcDbLine
 10
-66.04242738392789
 20
-104.37439560852263
 30
0.0
 11
-67.19749289350544
 21
-103.61208836592093
 31
0.0
  0
LINE
  5
2A7
330
17
100
AcDbEntity
  8
0
100
AcDbLine
 10
-67.19749289350544
 20
-103.61208836592093
 30
0.0
 11
-68.33821060505687
 21
-102.82385633755005
 31
0.0
  0
LINE
  5
2A8
330
17
100
AcDbEntity
  8
0
100
AcDbLine
 10
-68.33821060505687
 20
-102.82385633755005
 30
0.0
 11
-69.46636547368404
 21
-102.00897062841999
 31
0.0
  0
LINE
  5
2A9
330
17
100
AcDbEntity
  8
0
100
AcDbLine
 10
-69.46636547368404
 20
-102.00897062841999
 30
0.0
 11
-70.57894002674917
 21
-101.16982385684828
 31
0.0
  0
LINE
  5
2AA
330
17
100
AcDbEntity
  8
0
100
AcDbLine
 10
-70.57894002674917
 20
-101.16982385684828
 30
0.0
 11
-71.67189772891261
 21
-100.30936510485209
 31
0.0
  0
LINE
  5
2AB
330
17
100
AcDbEntity
  8
0
100
AcDbLine
 10
-71.67189772891261
 20
-100.30936510485209
 30
0.0
 11
-72.74120204483467
 21
-99.4305434544486
 31
0.0
  0
LINE
  5
2AC
330
17
100
AcDbEntity
  8
0
100
AcDbLine
 10
-72.74120204483467
 20
-99.4305434544486
 30
0.0
 11
-73.78281643917565
 21
-98.53630798765496
 31
0.0
  0
LINE
  5
2AD
330
17
100
AcDbEntity
  8
0
100
AcDbLine
 10
-73.78281643917565
 20
-98.53630798765496
 30
0.0
 11
-74.79588850010357
 21
-97.62549193135895
 31
0.0
  0
LINE
  5
2AE
330
17
100
AcDbEntity
  8
0
100
AcDbLine
 10
-74.79588850010357
 20
-97.62549193135895
 30
0.0
 11
-75.78980927377924
 21
-96.68871151339737
 31
0.0
  0
LINE
  5
2AF
330
17
100
AcDbEntity
  8
0
100
AcDbLine
 10
-75.78980927377924
 20
-96.68871151339737
 30
0.0
 11
-76.77505189147767
 21
-95.71857498690458
 31
0.0
  0
LINE
  5
2B0
330
17
100
AcDbEntity
  8
0
100
AcDbLine
 10
-76.77505189147767
 20
-95.71857498690458
 30
0.0
 11
-77.7620704348613
 21
-94.70773198550809
 31
0.0
  0
LINE
  5
2B1
330
17
100
AcDbEntity
  8
0
100
AcDbLine
 10
-77.7620704348613
 20
-94.70773198550809
 30
0.0
 11
-78.7613189855925
 21
-93.64883214283543
 31
0.0
  0
LINE
  5
2B2
330
17
100
AcDbEntity
  8
0
100
AcDbLine
 10
-78.7613189855925
 20
-93.64883214283543
 30
0.0
 11
-79.78001031131438
 21
-92.5383247138328
 31
0.0
  0
LINE
  5
2B3
330
17
100
AcDbEntity
  8
0
100
AcDbLine
 10
-79.78001031131438
 20
-92.5383247138328
 30
0.0
 11
-80.80152852203292
 21
-91.39933171506908
 31
0.0
  0
LINE
  5
2B4
330
17
100
AcDbEntity
  8
0
100
AcDbLine
 10
-80.80152852203292
 20
-91.39933171506908
 30
0.0
 11
-81.82169434452028
 21
-90.23826439352673
 31
0.0
  0
LINE
  5
2B5
330
17
100
AcDbEntity
  8
0
100
AcDbLine
 10
-81.82169434452028
 20
-90.23826439352673
 30
0.0
 11
-82.84043274490666
 21
-89.05654661288737
 31
0.0
  0
LINE
  5
2B6
330
17
100
AcDbEntity
  8
0
100
AcDbLine
 10
-82.84043274490666
 20
-89.05654661288737
 30
0.0
 11
-83.85766868932231
 21
-87.85560223683264
 31
0.0
  0
LINE
  5
2B7
330
17
100
AcDbEntity
  8
0
100
AcDbLine
 10
-83.85766868932231
 20
-87.85560223683264
 30
0.0
 11
-84.87332714389751
 21
-86.63685512904411
 31
0.0
  0
LINE
  5
2B8
330
17
100
AcDbEntity
  8
0
100
AcDbLine
 10
-84.87332714389751
 20
-86.63685512904411
 30
0.0
 11
-85.88733307476248
 21
-85.40172915320346
 31
0.0
  0
LINE
  5
2B9
330
17
100
AcDbEntity
  8
0
100
AcDbLine
 10
-85.88733307476248
 20
-85.40172915320346
 30
0.0
 11
-86.89961144804748
 21
-84.15164817299225
 31
0.0
  0
LINE
  5
2BA
330
17
100
AcDbEntity
  8
0
100
AcDbLine
 10
-86.89961144804748
 20
-84.15164817299225
 30
0.0
 11
-87.91008722988273
 21
-82.88803605209215
 31
0.0
  0
LINE
  5
2BB
330
17
100
AcDbEntity
  8
0
100
AcDbLine
 10
-87.91008722988273
 20
-82.88803605209215
 30
0.0
 11
-88.9186853863985
 21
-81.61231665418475
 31
0.0
  0
LINE
  5
2BC
330
17
100
AcDbEntity
  8
0
100
AcDbLine
 10
-88.9186853863985
 20
-81.61231665418475
 30
0.0
 11
-89.92533088372504
 21
-80.32591384295165
 31
0.0
  0
LINE
  5
2BD
330
17
100
AcDbEntity
  8
0
100
AcDbLine
 10
-89.92533088372504
 20
-80.32591384295165
 30
0.0
 11
-90.92960424415116
 21
-79.03089806057271
 31
0.0
  0
LINE
  5
2BE
330
17
100
AcDbEntity
  8
0
100
AcDbLine
 10
-90.92960424415116
 20
-79.03089806057271
 30
0.0
 11
-91.92988921497367
 21
-77.73096940180517
 31
0.0
  0
LINE
  5
2BF
330
17
100
AcDbEntity
  8
0
100
AcDbLine
 10
-91.92988921497367
 20
-77.73096940180517
 30
0.0
 11
-92.92582500924287
 21
-76.42665789883873
 31
0.0
  0
LINE
  5
2C0
330
17
100
AcDbEntity
  8
0
100
AcDbLine
 10
-92.92582500924287
 20
-76.42665789883873
 30
0.0
 11
-93.91722012461348
 21
-75.1181336475978
 31
0.0
  0
LINE
  5
2C1
330
17
100
AcDbEntity
  8
0
100
AcDbLine
 10
-93.91722012461348
 20
-75.1181336475978
 30
0.0
 11
-94.90388305874029
 21
-73.80556674400678
 31
0.0
  0
LINE
  5
2C2
330
17
100
AcDbEntity
  8
0
100
AcDbLine
 10
-94.90388305874029
 20
-73.80556674400678
 30
0.0
 11
-95.88562230927803
 21
-72.48912728399011
 31
0.0
  0
LINE
  5
2C3
330
17
100
AcDbEntity
  8
0
100
AcDbLine
 10
-95.88562230927803
 20
-72.48912728399011
 30
0.0
 11
-96.86224637388148
 21
-71.1689853634722
 31
0.0
  0
LINE
  5
2C4
330
17
100
AcDbEntity
  8
0
100
AcDbLine
 10
-96.86224637388148
 20
-71.1689853634722
 30
0.0
 11
-97.83356375020536
 21
-69.84531107837746
 31
0.0
  0
LINE
  5
2C5
330
17
100
AcDbEntity
  8
0
100
AcDbLine
 10
-97.83356375020536
 20
-69.84531107837746
 30
0.0
 11
-98.79938293590445
 21
-68.5182745246303
 31
0.0
  0
LINE
  5
2C6
330
17
100
AcDbEntity
  8
0
100
AcDbLine
 10
-98.79938293590445
 20
-68.5182745246303
 30
0.0
 11
-99.75951242863347
 21
-67.18804579815516
 31
0.0
  0
LINE
  5
2C7
330
17
100
AcDbEntity
  8
0
100
AcDbLine
 10
-99.75951242863347
 20
-67.18804579815516
 30
0.0
 11
-100.71376072604723
 21
-65.85479499487641
 31
0.0
  0
LINE
  5
2C8
330
17
100
AcDbEntity
  8
0
100
AcDbLine
 10
-100.71376072604723
 20
-65.85479499487641
 30
0.0
 11
-101.66176596367602
 21
-64.51908366235162
 31
0.0
  0
LINE
  5
2C9
330
17
100
AcDbEntity
  8
0
100
AcDbLine
 10
-101.66176596367602
 20
-64.51908366235162
 30
0.0
 11
-102.60264316645485
 21
-63.18210697152067
 31
0.0
  0
LINE
  5
2CA
330
17
100
AcDbEntity
  8
0
100
AcDbLine
 10
-102.60264316645485
 20
-63.18210697152067
 30
0.0
 11
-103.53572139398506
 21
-61.8439932926793
 31
0.0
  0
LINE
  5
2CB
330
17
100
AcDbEntity
  8
0
100
AcDbLine
 10
-103.53572139398506
 20
-61.8439932926793
 30
0.0
 11
-104.46035049571302
 21
-60.50480756999007
 31
0.0
  0
LINE
  5
2CC
330
17
100
AcDbEntity
  8
0
100
AcDbLine
 10
-104.46035049571302
 20
-60.50480756999007
 30
0.0
 11
-105.37588032108513
 21
-59.16461474761547
 31
0.0
  0
LINE
  5
2CD
330
17
100
AcDbEntity
  8
0
100
AcDbLine
 10
-105.37588032108513
 20
-59.16461474761547
 30
0.0
 11
-106.28166071954783
 21
-57.823479769718006
 31
0.0
  0
LINE
  5
2CE
330
17
100
AcDbEntity
  8
0
100
AcDbLine
 10
-106.28166071954783
 20
-57.823479769718006
 30
0.0
 11
-107.17704154054746
 21
-56.48146758046024
 31
0.0
  0
LINE
  5
2CF
330
17
100
AcDbEntity
  8
0
100
AcDbLine
 10
-107.17704154054746
 20
-56.48146758046024
 30
0.0
 11
-108.06137263353045
 21
-55.13864312400465
 31
0.0
  0
LINE
  5
2D0
330
17
100
AcDbEntity
  8
0
100
AcDbLine
 10
-108.06137263353045
 20
-55.13864312400465
 30
0.0
 11
-108.93400384794317
 21
-53.79507134451379
 31
0.0
  0
LINE
  5
2D1
330
17
100
AcDbEntity
  8
0
100
AcDbLine
 10
-108.93400384794317
 20
-53.79507134451379
 30
0.0
 11
-109.79428503323201
 21
-52.45081718615019
 31
0.0
  0
LINE
  5
2D2
330
17
100
AcDbEntity
  8
0
100
AcDbLine
 10
-109.79428503323201
 20
-52.45081718615019
 30
0.0
 11
-110.64156603884338
 21
-51.105945593076335
 31
0.0
  0
LINE
  5
2D3
330
17
100
AcDbEntity
  8
0
100
AcDbLine
 10
-110.64156603884338
 20
-51.105945593076335
 30
0.0
 11
-111.47325541382419
 21
-49.76299061393408
 31
0.0
  0
LINE
  5
2D4
330
17
100
AcDbEntity
  8
0
100
AcDbLine
 10
-111.47325541382419
 20
-49.76299061393408
 30
0.0
 11
-112.28864336780528
 21
-48.42183469938392
 31
0.0
  0
LINE
  5
2D5
330
17
100
AcDbEntity
  8
0
100
AcDbLine
 10
-112.28864336780528
 20
-48.42183469938392
 30
0.0
 11
-113.09293010392292
 21
-47.07464834293724
 31
0.0
  0
LINE
  5
2D6
330
17
100
AcDbEntity
  8
0
100
AcDbLine
 10
-113.09293010392292
 20
-47.07464834293724
 30
0.0
 11
-113.89140477769763
 21
-45.71348708073339
 31
0.0
  0
LINE
  5
2D7
330
17
100
AcDbEntity
  8
0
100
AcDbLine
 10
-113.89140477769763
 20
-45.71348708073339
 30
0.0
 11
-114.68935654464987
 21
-44.3304064489118
 31
0.0
  0
LINE
  5
2D8
330
17
100
AcDbEntity
  8
0
100
AcDbLine
 10
-114.68935654464987
 20
-44.3304064489118
 30
0.0
 11
-115.49213096519215
 21
-42.91782218120289
 31
0.0
  0
LINE
  5
2D9
330
17
100
AcDbEntity
  8
0
100
AcDbLine
 10
-115.49213096519215
 20
-42.91782218120289
 30
0.0
 11
-116.30484853714036
 21
-41.47416802438079
 31
0.0
  0
LINE
  5
2DA
330
17
100
AcDbEntity
  8
0
100
AcDbLine
 10
-116.30484853714036
 20
-41.47416802438079
 30
0.0
 11
-117.1310204713009
 21
-40.00133952982062
 31
0.0
  0
LINE
  5
2DB
330
17
100
AcDbEntity
  8
0
100
AcDbLine
 10
-117.1310204713009
 20
-40.00133952982062
 30
0.0
 11
-117.97392450193756
 21
-38.50104653476957
 31
0.0
  0
LINE
  5
2DC
330
17
100
AcDbEntity
  8
0
100
AcDbLine
 10
-117.97392450193756
 20
-38.50104653476957
 30
0.0
 11
-118.83683836331411
 21
-36.97499887647485
 31
0.0
  0
LINE
  5
2DD
330
17
100
AcDbEntity
  8
0
100
AcDbLine
 10
-118.83683836331411
 20
-36.97499887647485
 30
0.0
 11
-119.72303978969438
 21
-35.42490639218362
 31
0.0
  0
LINE
  5
2DE
330
17
100
AcDbEntity
  8
0
100
AcDbLine
 10
-119.72303978969438
 20
-35.42490639218362
 30
0.0
 11
-120.63539551379839
 21
-33.85370354851773
 31
0.0
  0
LINE
  5
2DF
330
17
100
AcDbEntity
  8
0
100
AcDbLine
 10
-120.63539551379839
 20
-33.85370354851773
 30
0.0
 11
-121.57875865021117
 21
-32.262200925817226
 31
0.0
  0
LINE
  5
2E0
330
17
100
AcDbEntity
  8
0
100
AcDbLine
 10
-121.57875865021117
 20
-32.262200925817226
 30
0.0
 11
-122.56002892207992
 21
-30.647884461841294
 31
0.0
  0
LINE
  5
2E1
330
17
100
AcDbEntity
  8
0
100
AcDbLine
 10
-122.56002892207992
 20
-30.647884461841294
 30
0.0
 11
-123.59682495480975
 21
-28.995514650717162
 31
0.0
  0
LINE
  5
2E2
330
17
100
AcDbEntity
  8
0
100
AcDbLine
 10
-123.59682495480975
 20
-28.995514650717162
 30
0.0
 11
-124.70232957465893
 21
-27.305359048373
 31
0.0
  0
LINE
  5
2E3
330
17
100
AcDbEntity
  8
0
100
AcDbLine
 10
-124.70232957465893
 20
-27.305359048373
 30
0.0
 11
-125.88590101037403
 21
-25.584889564784675
 31
0.0
  0
LINE
  5
2E4
330
17
100
AcDbEntity
  8
0
100
AcDbLine
 10
-125.88590101037403
 20
-25.584889564784675
 30
0.0
 11
-127.15790113789231
 21
-23.84263156396484
 31
0.0
  0
LINE
  5
2E5
330
17
100
AcDbEntity
  8
0
100
AcDbLine
 10
-127.15790113789231
 20
-23.84263156396484
 30
0.0
 11
-128.52925015468549
 21
-22.08855622303529
 31
0.0
  0
LINE
  5
2E6
330
17
100
AcDbEntity
  8
0
100
AcDbLine
 10
-128.52925015468549
 20
-22.08855622303529
 30
0.0
 11
-130.01345834951468
 21
-20.332854789875558
 31
0.0
  0
LINE
  5
2E7
330
17
100
AcDbEntity
  8
0
100
AcDbLine
 10
-130.01345834951468
 20
-20.332854789875558
 30
0.0
 11
-131.601388378464
 21
-18.604535561813254
 31
0.0
  0
LINE
  5
2E8
330
17
100
AcDbEntity
  8
0
100
AcDbLine
 10
-131.601388378464
 20
-18.604535561813254
 30
0.0
 11
-133.25918499299084
 21
-16.947124095148318
 31
0.0
  0
LINE
  5
2E9
330
17
100
AcDbEntity
  8
0
100
AcDbLine
 10
-133.2591849929908
 20
16.947124095148677
 30
0.0
 11
-133.53345365980007
 21
16.68036561144123
 31
0.0
  0
LINE
  5
2EA
330
17
100
AcDbEntity
  8
0
100
AcDbLine
 10
-133.53345365980007
 20
16.68036561144123
 30
0.0
 11
-133.80333471905791
 21
16.409168996276
 31
0.0
  0
LINE
  5
2EB
330
17
100
AcDbEntity
  8
0
100
AcDbLine
 10
-133.80333471905791
 20
16.409168996276
 30
0.0
 11
-134.0687563637281
 21
16.133606406718194
 31
0.0
  0
LINE
  5
2EC
330
17
100
AcDbEntity
  8
0
100
AcDbLine
 10
-134.0687563637281
 20
16.133606406718194
 30
0.0
 11
-134.32964797328714
 21
15.853751161484299
 31
0.0
  0
LINE
  5
2ED
330
17
100
AcDbEntity
  8
0
100
AcDbLine
 10
-134.32964797328714
 20
15.853751161484299
 30
0.0
 11
-134.58594013251437
 21
15.569677721434259
 31
0.0
  0
LINE
  5
2EE
330
17
100
AcDbEntity
  8
0
100
AcDbLine
 10
-134.58594013251437
 20
15.569677721434259
 30
0.0
 11
-134.8375646499612
 21
15.281461669759707
 31
0.0
  0
LINE
  5
2EF
330
17
100
AcDbEntity
  8
0
100
AcDbLine
 10
-134.8375646499612
 20
15.281461669759707
 30
0.0
 11
-135.08445457609474
 21
14.989179691873636
 31
0.0
  0
LINE
  5
2F0
330
17
100
AcDbEntity
  8
0
100
AcDbLine
 10
-135.08445457609474
 20
14.989179691873636
 30
0.0
 11
-135.326544221111
 21
14.692909555006713
 31
0.0
  0
LINE
  5
2F1
330
17
100
AcDbEntity
  8
0
100
AcDbLine
 10
-135.326544221111
 20
14.692909555006713
 30
0.0
 11
-135.56376917241283
 21
14.392730087515924
 31
0.0
  0
LINE
  5
2F2
330
17
100
AcDbEntity
  8
0
100
AcDbLine
 10
-135.56376917241283
 20
14.392730087515924
 30
0.0
 11
-135.79606631174838
 21
14.088721157910632
 31
0.0
  0
LINE
  5
2F3
330
17
100
AcDbEntity
  8
0
100
AcDbLine
 10
-135.79606631174838
 20
14.088721157910632
 30
0.0
 11
-136.02337383200464
 21
13.780963653602175
 31
0.0
  0
LINE
  5
2F4
330
17
100
AcDbEntity
  8
0
100
AcDbLine
 10
-136.02337383200464
 20
13.780963653602175
 30
0.0
 11
-136.2456312536526
 21
13.469539459382084
 31
0.0
  0
LINE
  5
2F5
330
17
100
AcDbEntity
  8
0
100
AcDbLine
 10
-136.2456312536526
 20
13.469539459382084
 30
0.0
 11
-136.46277944083886
 21
13.154531435635183
 31
0.0
  0
LINE
  5
2F6
330
17
100
AcDbEntity
  8
0
100
AcDbLine
 10
-136.46277944083886
 20
13.154531435635183
 30
0.0
 11
-136.67476061712003
 21
12.836023396292877
 31
0.0
  0
LINE
  5
2F7
330
17
100
AcDbEntity
  8
0
100
AcDbLine
 10
-136.67476061712003
 20
12.836023396292877
 30
0.0
 11
-136.88151838083505
 21
12.51410008653296
 31
0.0
  0
LINE
  5
2F8
330
17
100
AcDbEntity
  8
0
100
AcDbLine
 10
-136.88151838083505
 20
12.51410008653296
 30
0.0
 11
-137.0829977201121
 21
12.18884716023142
 31
0.0
  0
LINE
  5
2F9
330
17
100
AcDbEntity
  8
0
100
AcDbLine
 10
-137.0829977201121
 20
12.18884716023142
 30
0.0
 11
-137.27914502750548
 21
11.86035115717271
 31
0.0
  0
LINE
  5
2FA
330
17
100
AcDbEntity
  8
0
100
AcDbLine
 10
-137.27914502750548
 20
11.86035115717271
 30
0.0
 11
-137.4699081142589
 21
11.528699480024027
 31
0.0
  0
LINE
  5
2FB
330
17
100
AcDbEntity
  8
0
100
AcDbLine
 10
-137.4699081142589
 20
11.528699480024027
 30
0.0
 11
-137.65523622419138
 21
11.19398037108031
 31
0.0
  0
LINE
  5
2FC
330
17
100
AcDbEntity
  8
0
100
AcDbLine
 10
-137.65523622419138
 20
11.19398037108031
 30
0.0
 11
-137.8350800472018
 21
10.856282888785536
 31
0.0
  0
LINE
  5
2FD
330
17
100
AcDbEntity
  8
0
100
AcDbLine
 10
-137.8350800472018
 20
10.856282888785536
 30
0.0
 11
-138.00939173238888
 21
10.515696884037158
 31
0.0
  0
LINE
  5
2FE
330
17
100
AcDbEntity
  8
0
100
AcDbLine
 10
-138.00939173238888
 20
10.515696884037158
 30
0.0
 11
-138.17812490078276
 21
10.172312976279398
 31
0.0
  0
LINE
  5
2FF
330
17
100
AcDbEntity
  8
0
100
AcDbLine
 10
-138.17812490078276
 20
10.172312976279398
 30
0.0
 11
-138.3412346576851
 21
9.826222529392355
 31
0.0
  0
LINE
  5
300
330
17
100
AcDbEntity
  8
0
100
AcDbLine
 10
-138.3412346576851
 20
9.826222529392355
 30
0.0
 11
-138.49867760461413
 21
9.47751762738274
 31
0.0
  0
LINE
  5
301
330
17
100
AcDbEntity
  8
0
100
AcDbLine
 10
-138.49867760461413
 20
9.47751762738274
 30
0.0
 11
-138.6504118508516
 21
9.126291049883317
 31
0.0
  0
LINE
  5
302
330
17
100
AcDbEntity
  8
0
100
AcDbLine
 10
-138.6504118508516
 20
9.126291049883317
 30
0.0
 11
-138.79639702458874
 21
8.772636247466933
 31
0.0
  0
LINE
  5
303
330
17
100
AcDbEntity
  8
0
100
AcDbLine
 10
-138.79639702458874
 20
8.772636247466933
 30
0.0
 11
-138.9365942836678
 21
8.41664731678237
 31
0.0
  0
LINE
  5
304
330
17
100
AcDbEntity
  8
0
100
AcDbLine
 10
-138.9365942836678
 20
8.41664731678237
 30
0.0
 11
-139.07096632591686
 21
8.05841897551796
 31
0.0
  0
LINE
  5
305
330
17
100
AcDbEntity
  8
0
100
AcDbLine
 10
-139.07096632591686
 20
8.05841897551796
 30
0.0
 11
-139.19947739907474
 21
7.698046537200282
 31
0.0
  0
LINE
  5
306
330
17
100
AcDbEntity
  8
0
100
AcDbLine
 10
-139.19947739907474
 20
7.698046537200282
 30
0.0
 11
-139.3220933103036
 21
7.335625885834018
 31
0.0
  0
LINE
  5
307
330
17
100
AcDbEntity
  8
0
100
AcDbLine
 10
-139.3220933103036
 20
7.335625885834018
 30
0.0
 11
-139.4387814352866
 21
6.971253450390325
 31
0.0
  0
LINE
  5
308
330
17
100
AcDbEntity
  8
0
100
AcDbLine
 10
-139.4387814352866
 20
6.971253450390325
 30
0.0
 11
-139.5495107269082
 21
6.605026179149901
 31
0.0
  0
LINE
  5
309
330
17
100
AcDbEntity
  8
0
100
AcDbLine
 10
-139.5495107269082
 20
6.605026179149901
 30
0.0
 11
-139.65425172351488
 21
6.237041513908187
 31
0.0
  0
LINE
  5
30A
330
17
100
AcDbEntity
  8
0
100
AcDbLine
 10
-139.65425172351488
 20
6.237041513908187
 30
0.0
 11
-139.75297655675396
 21
5.86739736404896
 31
0.0
  0
LINE
  5
30B
330
17
100
AcDbEntity
  8
0
100
AcDbLine
 10
-139.75297655675396
 20
5.86739736404896
 30
0.0
 11
-139.84565895898845
 21
5.49619208049381
 31
0.0
  0
LINE
  5
30C
330
17
100
AcDbEntity
  8
0
100
AcDbLine
 10
-139.84565895898845
 20
5.49619208049381
 30
0.0
 11
-139.93227427028617
 21
5.1235244295338305
 31
0.0
  0
LINE
  5
30D
330
17
100
AcDbEntity
  8
0
100
AcDbLine
 10
-139.93227427028617
 20
5.1235244295338305
 30
0.0
 11
-140.01279944498094
 21
4.749493566551118
 31
0.0
  0
LINE
  5
30E
330
17
100
AcDbEntity
  8
0
100
AcDbLine
 10
-140.01279944498094
 20
4.749493566551118
 30
0.0
 11
-140.08721305780432
 21
4.374199009636415
 31
0.0
  0
LINE
  5
30F
330
17
100
AcDbEntity
  8
0
100
AcDbLine
 10
-140.08721305780432
 20
4.374199009636415
 30
0.0
 11
-140.15549530958623
 21
3.9977406131105684
 31
0.0
  0
LINE
  5
310
330
17
100
AcDbEntity
  8
0
100
AcDbLine
 10
-140.15549530958623
 20
3.9977406131105684
 30
0.0
 11
-140.21762803252284
 21
3.6202185409562184
 31
0.0
  0
LINE
  5
311
330
17
100
AcDbEntity
  8
0
100
AcDbLine
 10
-140.21762803252284
 20
3.6202185409562184
 30
0.0
 11
-140.27359469501056
 21
3.2417332401674015
 31
0.0
  0
LINE
  5
312
330
17
100
AcDbEntity
  8
0
100
AcDbLine
 10
-140.27359469501056
 20
3.2417332401674015
 30
0.0
 11
-140.32338040604455
 21
2.8623854140235396
 31
0.0
  0
LINE
  5
313
330
17
100
AcDbEntity
  8
0
100
AcDbLine
 10
-140.32338040604455
 20
2.8623854140235396
 30
0.0
 11
-140.36697191918068
 21
2.482275995295568
 31
0.0
  0
LINE
  5
314
330
17
100
AcDbEntity
  8
0
100
AcDbLine
 10
-140.36697191918068
 20
2.482275995295568
 30
0.0
 11
-140.4043576360602
 21
2.101506119390662
 31
0.0
  0
LINE
  5
315
330
17
100
AcDbEntity
  8
0
100
AcDbLine
 10
-140.4043576360602
 20
2.101506119390662
 30
0.0
 11
-140.43552760949544
 21
1.7201770974433908
 31
0.0
  0
LINE
  5
316
330
17
100
AcDbEntity
  8
0
100
AcDbLine
 10
-140.43552760949544
 20
1.7201770974433908
 30
0.0
 11
-140.46047354611667
 21
1.338390389359778
 31
0.0
  0
LINE
  5
317
330
17
100
AcDbEntity
  8
0
100
AcDbLine
 10
-140.46047354611667
 20
1.338390389359778
 30
0.0
 11
-140.47918880857858
 21
0.9562475768221121
 31
0.0
  0
LINE
  5
318
330
17
100
AcDbEntity
  8
0
100
AcDbLine
 10
-140.47918880857858
 20
0.9562475768221121
 30
0.0
 11
-140.4916684173264
 21
0.573850336261025
 31
0.0
  0
LINE
  5
319
330
17
100
AcDbEntity
  8
0
100
AcDbLine
 10
-140.4916684173264
 20
0.573850336261025
 30
0.0
 11
-140.4979090519206
 21
0.1913004118026901
 31
0.0
  0
LINE
  5
31A
330
17
100
AcDbEntity
  8
0
100
AcDbLine
 10
-140.4979090519206
 20
0.1913004118026901
 30
0.0
 11
-140.4979090519206
 21
-0.19130041180232016
 31
0.0
  0
LINE
  5
31B
330
17
100
AcDbEntity
  8
0
100
AcDbLine
 10
-140.4979090519206
 20
-0.19130041180232016
 30
0.0
 11
-140.4916684173264
 21
-0.5738503362606551
 31
0.0
  0
LINE
  5
31C
330
17
100
AcDbEntity
  8
0
100
AcDbLine
 10
-140.4916684173264
 20
-0.5738503362606551
 30
0.0
 11
-140.4791888085786
 21
-0.9562475768217426
 31
0.0
  0
LINE
  5
31D
330
17
100
AcDbEntity
  8
0
100
AcDbLine
 10
-140.4791888085786
 20
-0.9562475768217426
 30
0.0
 11
-140.46047354611667
 21
-1.338390389359408
 31
0.0
  0
LINE
  5
31E
330
17
100
AcDbEntity
  8
0
100
AcDbLine
 10
-140.46047354611667
 20
-1.338390389359408
 30
0.0
 11
-140.43552760949544
 21
-1.7201770974430213
 31
0.0
  0
LINE
  5
31F
330
17
100
AcDbEntity
  8
0
100
AcDbLine
 10
-140.43552760949544
 20
-1.7201770974430213
 30
0.0
 11
-140.4043576360602
 21
-2.101506119390293
 31
0.0
  0
LINE
  5
320
330
17
100
AcDbEntity
  8
0
100
AcDbLine
 10
-140.4043576360602
 20
-2.101506119390293
 30
0.0
 11
-140.3669719191807
 21
-2.4822759952951987
 31
0.0
  0
LINE
  5
321
330
17
100
AcDbEntity
  8
0
100
AcDbLine
 10
-140.3669719191807
 20
-2.4822759952951987
 30
0.0
 11
-140.32338040604455
 21
-2.8623854140231706
 31
0.0
  0
LINE
  5
322
330
17
100
AcDbEntity
  8
0
100
AcDbLine
 10
-140.32338040604455
 20
-2.8623854140231706
 30
0.0
 11
-140.27359469501056
 21
-3.2417332401670316
 31
0.0
  0
LINE
  5
323
330
17
100
AcDbEntity
  8
0
100
AcDbLine
 10
-140.27359469501056
 20
-3.2417332401670316
 30
0.0
 11
-140.21762803252284
 21
-3.6202185409558494
 31
0.0
  0
LINE
  5
324
330
17
100
AcDbEntity
  8
0
100
AcDbLine
 10
-140.21762803252284
 20
-3.6202185409558494
 30
0.0
 11
-140.15549530958623
 21
-3.9977406131102002
 31
0.0
  0
LINE
  5
325
330
17
100
AcDbEntity
  8
0
100
AcDbLine
 10
-140.15549530958623
 20
-3.9977406131102002
 30
0.0
 11
-140.08721305780435
 21
-4.374199009636046
 31
0.0
  0
LINE
  5
326
330
17
100
AcDbEntity
  8
0
100
AcDbLine
 10
-140.08721305780435
 20
-4.374199009636046
 30
0.0
 11
-140.01279944498097
 21
-4.749493566550749
 31
0.0
  0
LINE
  5
327
330
17
100
AcDbEntity
  8
0
100
AcDbLine
 10
-140.01279944498097
 20
-4.749493566550749
 30
0.0
 11
-139.9322742702862
 21
-5.123524429533461
 31
0.0
  0
LINE
  5
328
330
17
100
AcDbEntity
  8
0
100
AcDbLine
 10
-139.9322742702862
 20
-5.123524429533461
 30
0.0
 11
-139.84565895898845
 21
-5.496192080493441
 31
0.0
  0
LINE
  5
329
330
17
100
AcDbEntity
  8
0
100
AcDbLine
 10
-139.84565895898845
 20
-5.496192080493441
 30
0.0
 11
-139.75297655675396
 21
-5.8673973640485935
 31
0.0
  0
LINE
  5
32A
330
17
100
AcDbEntity
  8
0
100
AcDbLine
 10
-139.75297655675396
 20
-5.8673973640485935
 30
0.0
 11
-139.6542517235149
 21
-6.2370415139077995
 31
0.0
  0
LINE
  5
32B
330
17
100
AcDbEntity
  8
0
100
AcDbLine
 10
-139.6542517235149
 20
-6.2370415139077995
 30
0.0
 11
-139.54951072690824
 21
-6.605026179149533
 31
0.0
  0
LINE
  5
32C
330
17
100
AcDbEntity
  8
0
100
AcDbLine
 10
-139.54951072690824
 20
-6.605026179149533
 30
0.0
 11
-139.43878143528661
 21
-6.97125345038996
 31
0.0
  0
LINE
  5
32D
330
17
100
AcDbEntity
  8
0
100
AcDbLine
 10
-139.43878143528661
 20
-6.97125345038996
 30
0.0
 11
-139.32209331030361
 21
-7.335625885833653
 31
0.0
  0
LINE
  5
32E
330
17
100
AcDbEntity
  8
0
100
AcDbLine
 10
-139.32209331030361
 20
-7.335625885833653
 30
0.0
 11
-139.19947739907477
 21
-7.698046537199917
 31
0.0
  0
LINE
  5
32F
330
17
100
AcDbEntity
  8
0
100
AcDbLine
 10
-139.19947739907477
 20
-7.698046537199917
 30
0.0
 11
-139.07096632591688
 21
-8.058418975517597
 31
0.0
  0
LINE
  5
330
330
17
100
AcDbEntity
  8
0
100
AcDbLine
 10
-139.07096632591688
 20
-8.058418975517597
 30
0.0
 11
-138.93659428366783
 21
-8.416647316782008
 31
0.0
  0
LINE
  5
331
330
17
100
AcDbEntity
  8
0
100
AcDbLine
 10
-138.93659428366783
 20
-8.416647316782008
 30
0.0
 11
-138.7963970245888
 21
-8.772636247466572
 31
0.0
  0
LINE
  5
332
330
17
100
AcDbEntity
  8
0
100
AcDbLine
 10
-138.7963970245888
 20
-8.772636247466572
 30
0.0
 11
-138.65041185085167
 21
-9.126291049882957
 31
0.0
  0
LINE
  5
333
330
17
100
AcDbEntity
  8
0
100
AcDbLine
 10
-138.65041185085167
 20
-9.126291049882957
 30
0.0
 11
-138.4986776046142
 21
-9.47751762738238
 31
0.0
  0
LINE
  5
334
330
17
100
AcDbEntity
  8
0
100
AcDbLine
 10
-138.4986776046142
 20
-9.47751762738238
 30
0.0
 11
-138.34123465768513
 21
-9.826222529391995
 31
0.0
  0
LINE
  5
335
330
17
100
AcDbEntity
  8
0
100
AcDbLine
 10
-138.34123465768513
 20
-9.826222529391995
 30
0.0
 11
-138.1781249007828
 21
-10.17231297627904
 31
0.0
  0
LINE
  5
336
330
17
100
AcDbEntity
  8
0
100
AcDbLine
 10
-138.1781249007828
 20
-10.17231297627904
 30
0.0
 11
-138.0093917323889
 21
-10.515696884036782
 31
0.0
  0
LINE
  5
337
330
17
100
AcDbEntity
  8
0
100
AcDbLine
 10
-138.0093917323889
 20
-10.515696884036782
 30
0.0
 11
-137.83508004720184
 21
-10.856282888785179
 31
0.0
  0
LINE
  5
338
330
17
100
AcDbEntity
  8
0
100
AcDbLine
 10
-137.83508004720184
 20
-10.856282888785179
 30
0.0
 11
-137.6552362241914
 21
-11.193980371079952
 31
0.0
  0
LINE
  5
339
330
17
100
AcDbEntity
  8
0
100
AcDbLine
 10
-137.6552362241914
 20
-11.193980371079952
 30
0.0
 11
-137.46990811425897
 21
-11.528699480023668
 31
0.0
  0
LINE
  5
33A
330
17
100
AcDbEntity
  8
0
100
AcDbLine
 10
-137.46990811425897
 20
-11.528699480023668
 30
0.0
 11
-137.27914502750554
 21
-11.860351157172333
 31
0.0
  0
LINE
  5
33B
330
17
100
AcDbEntity
  8
0
100
AcDbLine
 10
-137.27914502750554
 20
-11.860351157172333
 30
0.0
 11
-137.08299772011216
 21
-12.188847160231065
 31
0.0
  0
LINE
  5
33C
330
17
100
AcDbEntity
  8
0
100
AcDbLine
 10
-137.08299772011216
 20
-12.188847160231065
 30
0.0
 11
-136.8815183808351
 21
-12.514100086532602
 31
0.0
  0
LINE
  5
33D
330
17
100
AcDbEntity
  8
0
100
AcDbLine
 10
-136.8815183808351
 20
-12.514100086532602
 30
0.0
 11
-136.67476061712009
 21
-12.836023396292521
 31
0.0
  0
LINE
  5
33E
330
17
100
AcDbEntity
  8
0
100
AcDbLine
 10
-136.67476061712009
 20
-12.836023396292521
 30
0.0
 11
-136.46277944083891
 21
-13.154531435634828
 31
0.0
  0
LINE
  5
33F
330
17
100
AcDbEntity
  8
0
100
AcDbLine
 10
-136.46277944083891
 20
-13.154531435634828
 30
0.0
 11
-136.24563125365265
 21
-13.46953945938173
 31
0.0
  0
LINE
  5
340
330
17
100
AcDbEntity
  8
0
100
AcDbLine
 10
-136.24563125365265
 20
-13.46953945938173
 30
0.0
 11
-136.02337383200467
 21
-13.780963653601823
 31
0.0
  0
LINE
  5
341
330
17
100
AcDbEntity
  8
0
100
AcDbLine
 10
-136.02337383200467
 20
-13.780963653601823
 30
0.0
 11
-135.79606631174843
 21
-14.088721157910278
 31
0.0
  0
LINE
  5
342
330
17
100
AcDbEntity
  8
0
100
AcDbLine
 10
-135.79606631174843
 20
-14.088721157910278
 30
0.0
 11
-135.5637691724129
 21
-14.392730087515554
 31
0.0
  0
LINE
  5
343
330
17
100
AcDbEntity
  8
0
100
AcDbLine
 10
-135.5637691724129
 20
-14.392730087515554
 30
0.0
 11
-135.32654422111105
 21
-14.692909555006363
 31
0.0
  0
LINE
  5
344
330
17
100
AcDbEntity
  8
0
100
AcDbLine
 10
-135.32654422111105
 20
-14.692909555006363
 30
0.0
 11
-135.0844545760948
 21
-14.989179691873286
 31
0.0
  0
LINE
  5
345
330
17
100
AcDbEntity
  8
0
100
AcDbLine
 10
-135.0844545760948
 20
-14.989179691873286
 30
0.0
 11
-134.83756464996128
 21
-15.28146166975936
 31
0.0
  0
LINE
  5
346
330
17
100
AcDbEntity
  8
0
100
AcDbLine
 10
-134.83756464996128
 20
-15.28146166975936
 30
0.0
 11
-134.58594013251442
 21
-15.569677721433903
 31
0.0
  0
LINE
  5
347
330
17
100
AcDbEntity
  8
0
100
AcDbLine
 10
-134.58594013251442
 20
-15.569677721433903
 30
0.0
 11
-134.3296479732872
 21
-15.853751161483954
 31
0.0
  0
LINE
  5
348
330
17
100
AcDbEntity
  8
0
100
AcDbLine
 10
-134.3296479732872
 20
-15.853751161483954
 30
0.0
 11
-134.06875636372817
 21
-16.133606406717856
 31
0.0
  0
LINE
  5
349
330
17
100
AcDbEntity
  8
0
100
AcDbLine
 10
-134.06875636372817
 20
-16.133606406717856
 30
0.0
 11
-133.803334719058
 21
-16.409168996275657
 31
0.0
  0
LINE
  5
34A
330
17
100
AcDbEntity
  8
0
100
AcDbLine
 10
-133.803334719058
 20
-16.409168996275657
 30
0.0
 11
-133.53345365980013
 21
-16.68036561144088
 31
0.0
  0
LINE
  5
34B
330
17
100
AcDbEntity
  8
0
100
AcDbLine
 10
-133.53345365980013
 20
-16.68036561144088
 30
0.0
 11
-133.25918499299087
 21
-16.947124095148332
 31
0.0
  0
LINE
  5
34C
330
17
100
AcDbEntity
  8
0
100
AcDbLine
 10
-20.556625859187275
 20
118.74384794983776
 30
0.0
 11
-22.10748160840616
 21
118.51862990633707
 31
0.0
  0
LINE
  5
34D
330
17
100
AcDbEntity
  8
0
100
AcDbLine
 10
-22.10748160840616
 20
118.51862990633707
 30
0.0
 11
-23.65630776619333
 21
118.2793230567935
 31
0.0
  0
LINE
  5
34E
330
17
100
AcDbEntity
  8
0
100
AcDbLine
 10
-23.65630776619333
 20
118.2793230567935
 30
0.0
 11
-25.202571575943956
 21
118.02615525741845
 31
0.0
  0
LINE
  5
34F
330
17
100
AcDbEntity
  8
0
100
AcDbLine
 10
-25.202571575943956
 20
118.02615525741845
 30
0.0
 11
-26.74593050298227
 21
117.75903718751096
 31
0.0
  0
LINE
  5
350
330
17
100
AcDbEntity
  8
0
100
AcDbLine
 10
-26.74593050298227
 20
117.75903718751096
 30
0.0
 11
-28.286042843609103
 21
117.47787847213809
 31
0.0
  0
LINE
  5
351
330
17
100
AcDbEntity
  8
0
100
AcDbLine
 10
-28.286042843609103
 20
117.47787847213809
 30
0.0
 11
-29.82256689412532
 21
117.18258873636687
 31
0.0
  0
LINE
  5
352
330
17
100
AcDbEntity
  8
0
100
AcDbLine
 10
-29.82256689412532
 20
117.18258873636687
 30
0.0
 11
-31.35516095083174
 21
116.87307760526434
 31
0.0
  0
LINE
  5
353
330
17
100
AcDbEntity
  8
0
100
AcDbLine
 10
-31.35516095083174
 20
116.87307760526434
 30
0.0
 11
-32.883483310029234
 21
116.54925470389752
 31
0.0
  0
LINE
  5
354
330
17
100
AcDbEntity
  8
0
100
AcDbLine
 10
-32.883483310029234
 20
116.54925470389752
 30
0.0
 11
-34.407192268018626
 21
116.21102965733347
 31
0.0
  0
LINE
  5
355
330
17
100
AcDbEntity
  8
0
100
AcDbLine
 10
-34.407192268018626
 20
116.21102965733347
 30
0.0
 11
-35.925946121100765
 21
115.8583120906392
 31
0.0
  0
LINE
  5
356
330
17
100
AcDbEntity
  8
0
100
AcDbLine
 10
-35.925946121100765
 20
115.8583120906392
 30
0.0
 11
-37.439403165576486
 21
115.49101162888176
 31
0.0
  0
LINE
  5
357
330
17
100
AcDbEntity
  8
0
100
AcDbLine
 10
-37.439403165576486
 20
115.49101162888176
 30
0.0
 11
-38.94729014184351
 21
115.10902097078969
 31
0.0
  0
LINE
  5
358
330
17
100
AcDbEntity
  8
0
100
AcDbLine
 10
-38.94729014184351
 20
115.10902097078969
 30
0.0
 11
-40.46529977886576
 21
114.70860650733314
 31
0.0
  0
LINE
  5
359
330
17
100
AcDbEntity
  8
0
100
AcDbLine
 10
-40.46529977886576
 20
114.70860650733314
 30
0.0
 11
-42.00004512514016
 21
114.28941076708655
 31
0.0
  0
LINE
  5
35A
330
17
100
AcDbEntity
  8
0
100
AcDbLine
 10
-42.00004512514016
 20
114.28941076708655
 30
0.0
 11
-43.54343479536643
 21
113.85495969551387
 31
0.0
  0
LINE
  5
35B
330
17
100
AcDbEntity
  8
0
100
AcDbLine
 10
-43.54343479536643
 20
113.85495969551387
 30
0.0
 11
-45.08737740424429
 21
113.40877923807906
 31
0.0
  0
LINE
  5
35C
330
17
100
AcDbEntity
  8
0
100
AcDbLine
 10
-45.08737740424429
 20
113.40877923807906
 30
0.0
 11
-46.623781566473475
 21
112.95439534024607
 31
0.0
  0
LINE
  5
35D
330
17
100
AcDbEntity
  8
0
100
AcDbLine
 10
-46.623781566473475
 20
112.95439534024607
 30
0.0
 11
-48.13843084474964
 21
112.49610846523872
 31
0.0
  0
LINE
  5
35E
330
17
100
AcDbEntity
  8
0
100
AcDbLine
 10
-48.13843084474964
 20
112.49610846523872
 30
0.0
 11
-49.604590490853646
 21
112.03717394379743
 31
0.0
  0
LINE
  5
35F
330
17
100
AcDbEntity
  8
0
100
AcDbLine
 10
-49.604590490853646
 20
112.03717394379743
 30
0.0
 11
-51.02064728178646
 21
111.5745066541731
 31
0.0
  0
LINE
  5
360
330
17
100
AcDbEntity
  8
0
100
AcDbLine
 10
-51.02064728178646
 20
111.5745066541731
 30
0.0
 11
-52.38727790673563
 21
111.10459756682434
 31
0.0
  0
LINE
  5
361
330
17
100
AcDbEntity
  8
0
100
AcDbLine
 10
-52.38727790673563
 20
111.10459756682434
 30
0.0
 11
-53.70515905488874
 21
110.62393765220972
 31
0.0
  0
LINE
  5
362
330
17
100
AcDbEntity
  8
0
100
AcDbLine
 10
-53.70515905488874
 20
110.62393765220972
 30
0.0
 11
-54.9759895610893
 21
110.12864276643994
 31
0.0
  0
LINE
  5
363
330
17
100
AcDbEntity
  8
0
100
AcDbLine
 10
-54.9759895610893
 20
110.12864276643994
 30
0.0
 11
-56.23437953089494
 21
109.60378850015269
 31
0.0
  0
LINE
  5
364
330
17
100
AcDbEntity
  8
0
100
AcDbLine
 10
-56.23437953089494
 20
109.60378850015269
 30
0.0
 11
-57.494334289811185
 21
109.0448578370047
 31
0.0
  0
LINE
  5
365
330
17
100
AcDbEntity
  8
0
100
AcDbLine
 10
-57.494334289811185
 20
109.0448578370047
 30
0.0
 11
-58.75221575865928
 21
108.45427744531966
 31
0.0
  0
LINE
  5
366
330
17
100
AcDbEntity
  8
0
100
AcDbLine
 10
-58.75221575865928
 20
108.45427744531966
 30
0.0
 11
-60.00438585826055
 21
107.83447399342123
 31
0.0
  0
LINE
  5
367
330
17
100
AcDbEntity
  8
0
100
AcDbLine
 10
-60.00438585826055
 20
107.83447399342123
 30
0.0
 11
-61.24720650943625
 21
107.18787414963303
 31
0.0
  0
LINE
  5
368
330
17
100
AcDbEntity
  8
0
100
AcDbLine
 10
-61.24720650943625
 20
107.18787414963303
 30
0.0
 11
-62.47514580516473
 21
106.51762749867393
 31
0.0
  0
LINE
  5
369
330
17
100
AcDbEntity
  8
0
100
AcDbLine
 10
-62.47514580516473
 20
106.51762749867393
 30
0.0
 11
-63.682769726577156
 21
105.82601377349678
 31
0.0
  0
LINE
  5
36A
330
17
100
AcDbEntity
  8
0
100
AcDbLine
 10
-63.682769726577156
 20
105.82601377349678
 30
0.0
 11
-64.87135829055835
 21
105.11198694391379
 31
0.0
  0
LINE
  5
36B
330
17
100
AcDbEntity
  8
0
100
AcDbLine
 10
-64.87135829055835
 20
105.11198694391379
 30
0.0
 11
-66.04242738392789
 21
104.37439560852263
 31
0.0
  0
LINE
  5
36C
330
17
100
AcDbEntity
  8
0
100
AcDbLine
 10
-66.04242738392789
 20
104.37439560852263
 30
0.0
 11
-67.19749289350544
 21
103.61208836592093
 31
0.0
  0
LINE
  5
36D
330
17
100
AcDbEntity
  8
0
100
AcDbLine
 10
-67.19749289350544
 20
103.61208836592093
 30
0.0
 11
-68.33821060505687
 21
102.82385633755005
 31
0.0
  0
LINE
  5
36E
330
17
100
AcDbEntity
  8
0
100
AcDbLine
 10
-68.33821060505687
 20
102.82385633755005
 30
0.0
 11
-69.46636547368404
 21
102.00897062841999
 31
0.0
  0
LINE
  5
36F
330
17
100
AcDbEntity
  8
0
100
AcDbLine
 10
-69.46636547368404
 20
102.00897062841999
 30
0.0
 11
-70.57894002674917
 21
101.1698238568483
 31
0.0
  0
LINE
  5
370
330
17
100
AcDbEntity
  8
0
100
AcDbLine
 10
-70.57894002674917
 20
101.1698238568483
 30
0.0
 11
-71.67189772891261
 21
100.30936510485213
 31
0.0
  0
LINE
  5
371
330
17
100
AcDbEntity
  8
0
100
AcDbLine
 10
-71.67189772891261
 20
100.30936510485213
 30
0.0
 11
-72.74120204483467
 21
99.4305434544487
 31
0.0
  0
LINE
  5
372
330
17
100
AcDbEntity
  8
0
100
AcDbLine
 10
-72.74120204483467
 20
99.4305434544487
 30
0.0
 11
-73.78281643917565
 21
98.53630798765515
 31
0.0
  0
LINE
  5
373
330
17
100
AcDbEntity
  8
0
100
AcDbLine
 10
-73.78281643917565
 20
98.53630798765515
 30
0.0
 11
-74.79588850010357
 21
97.62549193135924
 31
0.0
  0
LINE
  5
374
330
17
100
AcDbEntity
  8
0
100
AcDbLine
 10
-74.79588850010357
 20
97.62549193135924
 30
0.0
 11
-75.78980927377924
 21
96.6887115133977
 31
0.0
  0
LINE
  5
375
330
17
100
AcDbEntity
  8
0
100
AcDbLine
 10
-75.78980927377924
 20
96.6887115133977
 30
0.0
 11
-76.77505189147767
 21
95.71857498690497
 31
0.0
  0
LINE
  5
376
330
17
100
AcDbEntity
  8
0
100
AcDbLine
 10
-76.77505189147767
 20
95.71857498690497
 30
0.0
 11
-77.7620704348613
 21
94.70773198550849
 31
0.0
  0
LINE
  5
377
330
17
100
AcDbEntity
  8
0
100
AcDbLine
 10
-77.7620704348613
 20
94.70773198550849
 30
0.0
 11
-78.7613189855925
 21
93.64883214283583
 31
0.0
  0
LINE
  5
378
330
17
100
AcDbEntity
  8
0
100
AcDbLine
 10
-78.7613189855925
 20
93.64883214283583
 30
0.0
 11
-79.78001031131438
 21
92.53832471383319
 31
0.0
  0
LINE
  5
379
330
17
100
AcDbEntity
  8
0
100
AcDbLine
 10
-79.78001031131438
 20
92.53832471383319
 30
0.0
 11
-80.80152852203292
 21
91.39933171506948
 31
0.0
  0
LINE
  5
37A
330
17
100
AcDbEntity
  8
0
100
AcDbLine
 10
-80.80152852203292
 20
91.39933171506948
 30
0.0
 11
-81.82169434452028
 21
90.23826439352713
 31
0.0
  0
LINE
  5
37B
330
17
100
AcDbEntity
  8
0
100
AcDbLine
 10
-81.82169434452028
 20
90.23826439352713
 30
0.0
 11
-82.84043274490666
 21
89.05654661288777
 31
0.0
  0
LINE
  5
37C
330
17
100
AcDbEntity
  8
0
100
AcDbLine
 10
-82.84043274490666
 20
89.05654661288777
 30
0.0
 11
-83.85766868932231
 21
87.85560223683304
 31
0.0
  0
LINE
  5
37D
330
17
100
AcDbEntity
  8
0
100
AcDbLine
 10
-83.85766868932231
 20
87.85560223683304
 30
0.0
 11
-84.87332714389751
 21
86.6368551290445
 31
0.0
  0
LINE
  5
37E
330
17
100
AcDbEntity
  8
0
100
AcDbLine
 10
-84.87332714389751
 20
86.6368551290445
 30
0.0
 11
-85.88733307476248
 21
85.40172915320386
 31
0.0
  0
LINE
  5
37F
330
17
100
AcDbEntity
  8
0
100
AcDbLine
 10
-85.88733307476248
 20
85.40172915320386
 30
0.0
 11
-86.89961144804748
 21
84.15164817299265
 31
0.0
  0
LINE
  5
380
330
17
100
AcDbEntity
  8
0
100
AcDbLine
 10
-86.89961144804748
 20
84.15164817299265
 30
0.0
 11
-87.91008722988273
 21
82.88803605209254
 31
0.0
  0
LINE
  5
381
330
17
100
AcDbEntity
  8
0
100
AcDbLine
 10
-87.91008722988273
 20
82.88803605209254
 30
0.0
 11
-88.9186853863985
 21
81.61231665418515
 31
0.0
  0
LINE
  5
382
330
17
100
AcDbEntity
  8
0
100
AcDbLine
 10
-88.9186853863985
 20
81.61231665418515
 30
0.0
 11
-89.92533088372504
 21
80.32591384295205
 31
0.0
  0
LINE
  5
383
330
17
100
AcDbEntity
  8
0
100
AcDbLine
 10
-89.92533088372504
 20
80.32591384295205
 30
0.0
 11
-90.92960424415116
 21
79.03089806057311
 31
0.0
  0
LINE
  5
384
330
17
100
AcDbEntity
  8
0
100
AcDbLine
 10
-90.92960424415116
 20
79.03089806057311
 30
0.0
 11
-91.92988921497367
 21
77.73096940180557
 31
0.0
  0
LINE
  5
385
330
17
100
AcDbEntity
  8
0
100
AcDbLine
 10
-91.92988921497367
 20
77.73096940180557
 30
0.0
 11
-92.92582500924287
 21
76.42665789883912
 31
0.0
  0
LINE
  5
386
330
17
100
AcDbEntity
  8
0
100
AcDbLine
 10
-92.92582500924287
 20
76.42665789883912
 30
0.0
 11
-93.91722012461348
 21
75.1181336475982
 31
0.0
  0
LINE
  5
387
330
17
100
AcDbEntity
  8
0
100
AcDbLine
 10
-93.91722012461348
 20
75.1181336475982
 30
0.0
 11
-94.90388305874029
 21
73.80556674400718
 31
0.0
  0
LINE
  5
388
330
17
100
AcDbEntity
  8
0
100
AcDbLine
 10
-94.90388305874029
 20
73.80556674400718
 30
0.0
 11
-95.88562230927803
 21
72.48912728399051
 31
0.0
  0
LINE
  5
389
330
17
100
AcDbEntity
  8
0
100
AcDbLine
 10
-95.88562230927803
 20
72.48912728399051
 30
0.0
 11
-96.86224637388148
 21
71.1689853634726
 31
0.0
  0
LINE
  5
38A
330
17
100
AcDbEntity
  8
0
100
AcDbLine
 10
-96.86224637388148
 20
71.1689853634726
 30
0.0
 11
-97.83356375020536
 21
69.84531107837786
 31
0.0
  0
LINE
  5
38B
330
17
100
AcDbEntity
  8
0
100
AcDbLine
 10
-97.83356375020536
 20
69.84531107837786
 30
0.0
 11
-98.79938293590445
 21
68.5182745246307
 31
0.0
  0
LINE
  5
38C
330
17
100
AcDbEntity
  8
0
100
AcDbLine
 10
-98.79938293590445
 20
68.5182745246307
 30
0.0
 11
-99.75951242863347
 21
67.18804579815556
 31
0.0
  0
LINE
  5
38D
330
17
100
AcDbEntity
  8
0
100
AcDbLine
 10
-99.75951242863347
 20
67.18804579815556
 30
0.0
 11
-100.71376072604723
 21
65.85479499487681
 31
0.0
  0
LINE
  5
38E
330
17
100
AcDbEntity
  8
0
100
AcDbLine
 10
-100.71376072604723
 20
65.85479499487681
 30
0.0
 11
-101.66176596367602
 21
64.51908366235202
 31
0.0
  0
LINE
  5
38F
330
17
100
AcDbEntity
  8
0
100
AcDbLine
 10
-101.66176596367602
 20
64.51908366235202
 30
0.0
 11
-102.60264316645485
 21
63.182106971521065
 31
0.0
  0
LINE
  5
390
330
17
100
AcDbEntity
  8
0
100
AcDbLine
 10
-102.60264316645485
 20
63.182106971521065
 30
0.0
 11
-103.53572139398506
 21
61.8439932926797
 31
0.0
  0
LINE
  5
391
330
17
100
AcDbEntity
  8
0
100
AcDbLine
 10
-103.53572139398506
 20
61.8439932926797
 30
0.0
 11
-104.46035049571302
 21
60.50480756999047
 31
0.0
  0
LINE
  5
392
330
17
100
AcDbEntity
  8
0
100
AcDbLine
 10
-104.46035049571302
 20
60.50480756999047
 30
0.0
 11
-105.37588032108513
 21
59.164614747615865
 31
0.0
  0
LINE
  5
393
330
17
100
AcDbEntity
  8
0
100
AcDbLine
 10
-105.37588032108513
 20
59.164614747615865
 30
0.0
 11
-106.28166071954783
 21
57.823479769718396
 31
0.0
  0
LINE
  5
394
330
17
100
AcDbEntity
  8
0
100
AcDbLine
 10
-106.28166071954783
 20
57.823479769718396
 30
0.0
 11
-107.17704154054746
 21
56.48146758046063
 31
0.0
  0
LINE
  5
395
330
17
100
AcDbEntity
  8
0
100
AcDbLine
 10
-107.17704154054746
 20
56.48146758046063
 30
0.0
 11
-108.06137263353045
 21
55.13864312400503
 31
0.0
  0
LINE
  5
396
330
17
100
AcDbEntity
  8
0
100
AcDbLine
 10
-108.06137263353045
 20
55.13864312400503
 30
0.0
 11
-108.93400384794317
 21
53.795071344514156
 31
0.0
  0
LINE
  5
397
330
17
100
AcDbEntity
  8
0
100
AcDbLine
 10
-108.93400384794317
 20
53.795071344514156
 30
0.0
 11
-109.79428503323201
 21
52.450817186150545
 31
0.0
  0
LINE
  5
398
330
17
100
AcDbEntity
  8
0
100
AcDbLine
 10
-109.79428503323201
 20
52.450817186150545
 30
0.0
 11
-110.64156603884338
 21
51.10594559307667
 31
0.0
  0
LINE
  5
399
330
17
100
AcDbEntity
  8
0
100
AcDbLine
 10
-110.64156603884338
 20
51.10594559307667
 30
0.0
 11
-111.47325541382419
 21
49.76299061393441
 31
0.0
  0
LINE
  5
39A
330
17
100
AcDbEntity
  8
0
100
AcDbLine
 10
-111.47325541382419
 20
49.76299061393441
 30
0.0
 11
-112.28864336780528
 21
48.42183469938426
 31
0.0
  0
LINE
  5
39B
330
17
100
AcDbEntity
  8
0
100
AcDbLine
 10
-112.28864336780528
 20
48.42183469938426
 30
0.0
 11
-113.09293010392292
 21
47.0746483429376
 31
0.0
  0
LINE
  5
39C
330
17
100
AcDbEntity
  8
0
100
AcDbLine
 10
-113.09293010392292
 20
47.0746483429376
 30
0.0
 11
-113.89140477769763
 21
45.71348708073377
 31
0.0
  0
LINE
  5
39D
330
17
100
AcDbEntity
  8
0
100
AcDbLine
 10
-113.89140477769763
 20
45.71348708073377
 30
0.0
 11
-114.68935654464987
 21
44.3304064489122
 31
0.0
  0
LINE
  5
39E
330
17
100
AcDbEntity
  8
0
100
AcDbLine
 10
-114.68935654464987
 20
44.3304064489122
 30
0.0
 11
-115.49213096519215
 21
42.91782218120328
 31
0.0
  0
LINE
  5
39F
330
17
100
AcDbEntity
  8
0
100
AcDbLine
 10
-115.49213096519215
 20
42.91782218120328
 30
0.0
 11
-116.30484853714036
 21
41.474168024381164
 31
0.0
  0
LINE
  5
3A0
330
17
100
AcDbEntity
  8
0
100
AcDbLine
 10
-116.30484853714036
 20
41.474168024381164
 30
0.0
 11
-117.1310204713009
 21
40.00133952982098
 31
0.0
  0
LINE
  5
3A1
330
17
100
AcDbEntity
  8
0
100
AcDbLine
 10
-117.1310204713009
 20
40.00133952982098
 30
0.0
 11
-117.97392450193756
 21
38.50104653476991
 31
0.0
  0
LINE
  5
3A2
330
17
100
AcDbEntity
  8
0
100
AcDbLine
 10
-117.97392450193756
 20
38.50104653476991
 30
0.0
 11
-118.83683836331411
 21
36.97499887647519
 31
0.0
  0
LINE
  5
3A3
330
17
100
AcDbEntity
  8
0
100
AcDbLine
 10
-118.83683836331411
 20
36.97499887647519
 30
0.0
 11
-119.72303978969438
 21
35.424906392183985
 31
0.0
  0
LINE
  5
3A4
330
17
100
AcDbEntity
  8
0
100
AcDbLine
 10
-119.72303978969438
 20
35.424906392183985
 30
0.0
 11
-120.63539551379839
 21
33.853703548518126
 31
0.0
  0
LINE
  5
3A5
330
17
100
AcDbEntity
  8
0
100
AcDbLine
 10
-120.63539551379839
 20
33.853703548518126
 30
0.0
 11
-121.57875865021117
 21
32.26220092581761
 31
0.0
  0
LINE
  5
3A6
330
17
100
AcDbEntity
  8
0
100
AcDbLine
 10
-121.57875865021117
 20
32.26220092581761
 30
0.0
 11
-122.56002892207992
 21
30.647884461841635
 31
0.0
  0
LINE
  5
3A7
330
17
100
AcDbEntity
  8
0
100
AcDbLine
 10
-122.56002892207992
 20
30.647884461841635
 30
0.0
 11
-123.59682495480975
 21
28.99551465071751
 31
0.0
  0
LINE
  5
3A8
330
17
100
AcDbEntity
  8
0
100
AcDbLine
 10
-123.59682495480975
 20
28.99551465071751
 30
0.0
 11
-124.70232957465893
 21
27.30535904837336
 31
0.0
  0
LINE
  5
3A9
330
17
100
AcDbEntity
  8
0
100
AcDbLine
 10
-124.70232957465893
 20
27.30535904837336
 30
0.0
 11
-125.88590101037403
 21
25.584889564785005
 31
0.0
  0
LINE
  5
3AA
330
17
100
AcDbEntity
  8
0
100
AcDbLine
 10
-125.88590101037403
 20
25.584889564785005
 30
0.0
 11
-127.15790113789231
 21
23.842631563965153
 31
0.0
  0
LINE
  5
3AB
330
17
100
AcDbEntity
  8
0
100
AcDbLine
 10
-127.15790113789231
 20
23.842631563965153
 30
0.0
 11
-128.52925015468549
 21
22.08855622303563
 31
0.0
  0
LINE
  5
3AC
330
17
100
AcDbEntity
  8
0
100
AcDbLine
 10
-128.52925015468549
 20
22.08855622303563
 30
0.0
 11
-130.01345834951468
 21
20.332854789875938
 31
0.0
  0
LINE
  5
3AD
330
17
100
AcDbEntity
  8
0
100
AcDbLine
 10
-130.01345834951468
 20
20.332854789875938
 30
0.0
 11
-131.601388378464
 21
18.604535561813652
 31
0.0
  0
LINE
  5
3AE
330
17
100
AcDbEntity
  8
0
100
AcDbLine
 10
-131.601388378464
 20
18.604535561813652
 30
0.0
 11
-133.25918499299084
 21
16.947124095148716
 31
0.0
  0
LINE
  5
3AF
330
17
100
AcDbEntity
  8
0
100
AcDbLine
 10
-19.9999999999999
 20
118.782766323201
 30
0.0
 11
-20.005640787646385
 21
118.78276234588837
 31
0.0
  0
LINE
  5
3B0
330
17
100
AcDbEntity
  8
0
100
AcDbLine
 10
-20.005640787646385
 20
118.78276234588837
 30
0.0
 11
-20.011281564075283
 21
118.78275041395837
 31
0.0
  0
LINE
  5
3B1
330
17
100
AcDbEntity
  8
0
100
AcDbLine
 10
-20.011281564075283
 20
118.78275041395837
 30
0.0
 11
-20.016922318069025
 21
118.78273052743474
 31
0.0
  0
LINE
  5
3B2
330
17
100
AcDbEntity
  8
0
100
AcDbLine
 10
-20.016922318069025
 20
118.78273052743474
 30
0.0
 11
-20.022563038410095
 21
118.78270268635701
 31
0.0
  0
LINE
  5
3B3
330
17
100
AcDbEntity
  8
0
100
AcDbLine
 10
-20.022563038410095
 20
118.78270268635701
 30
0.0
 11
-20.028203713881034
 21
118.78266689078056
 31
0.0
  0
LINE
  5
3B4
330
17
100
AcDbEntity
  8
0
100
AcDbLine
 10
-20.028203713881034
 20
118.78266689078056
 30
0.0
 11
-20.03384433326448
 21
118.7826231407766
 31
0.0
  0
LINE
  5
3B5
330
17
100
AcDbEntity
  8
0
100
AcDbLine
 10
-20.03384433326448
 20
118.7826231407766
 30
0.0
 11
-20.039484885343178
 21
118.78257143643208
 31
0.0
  0
LINE
  5
3B6
330
17
100
AcDbEntity
  8
0
100
AcDbLine
 10
-20.039484885343178
 20
118.78257143643208
 30
0.0
 11
-20.04512535890001
 21
118.78251177784985
 31
0.0
  0
LINE
  5
3B7
330
17
100
AcDbEntity
  8
0
100
AcDbLine
 10
-20.04512535890001
 20
118.78251177784985
 30
0.0
 11
-20.050765742718013
 21
118.78244416514856
 31
0.0
  0
LINE
  5
3B8
330
17
100
AcDbEntity
  8
0
100
AcDbLine
 10
-20.050765742718013
 20
118.78244416514856
 30
0.0
 11
-20.0564060255804
 21
118.78236859846265
 31
0.0
  0
LINE
  5
3B9
330
17
100
AcDbEntity
  8
0
100
AcDbLine
 10
-20.0564060255804
 20
118.78236859846265
 30
0.0
 11
-20.062046196270586
 21
118.78228507794242
 31
0.0
  0
LINE
  5
3BA
330
17
100
AcDbEntity
  8
0
100
AcDbLine
 10
-20.062046196270586
 20
118.78228507794242
 30
0.0
 11
-20.067686243572215
 21
118.78219360375394
 31
0.0
  0
LINE
  5
3BB
330
17
100
AcDbEntity
  8
0
100
AcDbLine
 10
-20.067686243572215
 20
118.78219360375394
 30
0.0
 11
-20.073326156269164
 21
118.78209417607913
 31
0.0
  0
LINE
  5
3BC
330
17
100
AcDbEntity
  8
0
100
AcDbLine
 10
-20.073326156269164
 20
118.78209417607913
 30
0.0
 11
-20.078965923145592
 21
118.78198679511571
 31
0.0
  0
LINE
  5
3BD
330
17
100
AcDbEntity
  8
0
100
AcDbLine
 10
-20.078965923145592
 20
118.78198679511571
 30
0.0
 11
-20.08460553298594
 21
118.78187146107724
 31
0.0
  0
LINE
  5
3BE
330
17
100
AcDbEntity
  8
0
100
AcDbLine
 10
-20.08460553298594
 20
118.78187146107724
 30
0.0
 11
-20.090244974574958
 21
118.78174817419307
 31
0.0
  0
LINE
  5
3BF
330
17
100
AcDbEntity
  8
0
100
AcDbLine
 10
-20.090244974574958
 20
118.78174817419307
 30
0.0
 11
-20.095884236697735
 21
118.78161693470837
 31
0.0
  0
LINE
  5
3C0
330
17
100
AcDbEntity
  8
0
100
AcDbLine
 10
-20.095884236697735
 20
118.78161693470837
 30
0.0
 11
-20.101523308139722
 21
118.78147774288414
 31
0.0
  0
LINE
  5
3C1
330
17
100
AcDbEntity
  8
0
100
AcDbLine
 10
-20.101523308139722
 20
118.78147774288414
 30
0.0
 11
-20.10716217768674
 21
118.78133059899719
 31
0.0
  0
LINE
  5
3C2
330
17
100
AcDbEntity
  8
0
100
AcDbLine
 10
-20.10716217768674
 20
118.78133059899719
 30
0.0
 11
-20.112800834125018
 21
118.78117550334011
 31
0.0
  0
LINE
  5
3C3
330
17
100
AcDbEntity
  8
0
100
AcDbLine
 10
-20.112800834125018
 20
118.78117550334011
 30
0.0
 11
-20.1184392662412
 21
118.78101245622136
 31
0.0
  0
LINE
  5
3C4
330
17
100
AcDbEntity
  8
0
100
AcDbLine
 10
-20.1184392662412
 20
118.78101245622136
 30
0.0
 11
-20.124077462822388
 21
118.78084145796517
 31
0.0
  0
LINE
  5
3C5
330
17
100
AcDbEntity
  8
0
100
AcDbLine
 10
-20.124077462822388
 20
118.78084145796517
 30
0.0
 11
-20.12971541265615
 21
118.7806625089116
 31
0.0
  0
LINE
  5
3C6
330
17
100
AcDbEntity
  8
0
100
AcDbLine
 10
-20.12971541265615
 20
118.7806625089116
 30
0.0
 11
-20.135353104530534
 21
118.78047560941654
 31
0.0
  0
LINE
  5
3C7
330
17
100
AcDbEntity
  8
0
100
AcDbLine
 10
-20.135353104530534
 20
118.78047560941654
 30
0.0
 11
-20.140990527234113
 21
118.78028075985164
 31
0.0
  0
LINE
  5
3C8
330
17
100
AcDbEntity
  8
0
100
AcDbLine
 10
-20.140990527234113
 20
118.78028075985164
 30
0.0
 11
-20.146627669555983
 21
118.78007796060439
 31
0.0
  0
LINE
  5
3C9
330
17
100
AcDbEntity
  8
0
100
AcDbLine
 10
-20.146627669555983
 20
118.78007796060439
 30
0.0
 11
-20.15226452028582
 21
118.7798672120781
 31
0.0
  0
LINE
  5
3CA
330
17
100
AcDbEntity
  8
0
100
AcDbLine
 10
-20.15226452028582
 20
118.7798672120781
 30
0.0
 11
-20.157901068213853
 21
118.77964851469187
 31
0.0
  0
LINE
  5
3CB
330
17
100
AcDbEntity
  8
0
100
AcDbLine
 10
-20.157901068213853
 20
118.77964851469187
 30
0.0
 11
-20.163537302130926
 21
118.77942186888063
 31
0.0
  0
LINE
  5
3CC
330
17
100
AcDbEntity
  8
0
100
AcDbLine
 10
-20.163537302130926
 20
118.77942186888063
 30
0.0
 11
-20.169173210828514
 21
118.77918727509508
 31
0.0
  0
LINE
  5
3CD
330
17
100
AcDbEntity
  8
0
100
AcDbLine
 10
-20.169173210828514
 20
118.77918727509508
 30
0.0
 11
-20.174808783098726
 21
118.77894473380175
 31
0.0
  0
LINE
  5
3CE
330
17
100
AcDbEntity
  8
0
100
AcDbLine
 10
-20.174808783098726
 20
118.77894473380175
 30
0.0
 11
-20.180444007734348
 21
118.77869424548298
 31
0.0
  0
LINE
  5
3CF
330
17
100
AcDbEntity
  8
0
100
AcDbLine
 10
-20.180444007734348
 20
118.77869424548298
 30
0.0
 11
-20.186078873528853
 21
118.77843581063689
 31
0.0
  0
LINE
  5
3D0
330
17
100
AcDbEntity
  8
0
100
AcDbLine
 10
-20.186078873528853
 20
118.77843581063689
 30
0.0
 11
-20.19171336927643
 21
118.77816942977744
 31
0.0
  0
LINE
  5
3D1
330
17
100
AcDbEntity
  8
0
100
AcDbLine
 10
-20.19171336927643
 20
118.77816942977744
 30
0.0
 11
-20.197347483772006
 21
118.77789510343435
 31
0.0
  0
LINE
  5
3D2
330
17
100
AcDbEntity
  8
0
100
AcDbLine
 10
-20.197347483772006
 20
118.77789510343435
 30
0.0
 11
-20.20298120581126
 21
118.77761283215318
 31
0.0
  0
LINE
  5
3D3
330
17
100
AcDbEntity
  8
0
100
AcDbLine
 10
-20.20298120581126
 20
118.77761283215318
 30
0.0
 11
-20.208614524190654
 21
118.77732261649525
 31
0.0
  0
LINE
  5
3D4
330
17
100
AcDbEntity
  8
0
100
AcDbLine
 10
-20.208614524190654
 20
118.77732261649525
 30
0.0
 11
-20.21424742770746
 21
118.77702445703771
 31
0.0
  0
LINE
  5
3D5
330
17
100
AcDbEntity
  8
0
100
AcDbLine
 10
-20.21424742770746
 20
118.77702445703771
 30
0.0
 11
-20.219879905159765
 21
118.7767183543735
 31
0.0
  0
LINE
  5
3D6
330
17
100
AcDbEntity
  8
0
100
AcDbLine
 10
-20.219879905159765
 20
118.7767183543735
 30
0.0
 11
-20.225511945346508
 21
118.77640430911134
 31
0.0
  0
LINE
  5
3D7
330
17
100
AcDbEntity
  8
0
100
AcDbLine
 10
-20.225511945346508
 20
118.77640430911134
 30
0.0
 11
-20.231143537067492
 21
118.77608232187578
 31
0.0
  0
LINE
  5
3D8
330
17
100
AcDbEntity
  8
0
100
AcDbLine
 10
-20.231143537067492
 20
118.77608232187578
 30
0.0
 11
-20.236774669123424
 21
118.77575239330712
 31
0.0
  0
LINE
  5
3D9
330
17
100
AcDbEntity
  8
0
100
AcDbLine
 10
-20.236774669123424
 20
118.77575239330712
 30
0.0
 11
-20.242405330315915
 21
118.77541452406147
 31
0.0
  0
LINE
  5
3DA
330
17
100
AcDbEntity
  8
0
100
AcDbLine
 10
-20.242405330315915
 20
118.77541452406147
 30
0.0
 11
-20.24803550944751
 21
118.77506871481077
 31
0.0
  0
LINE
  5
3DB
330
17
100
AcDbEntity
  8
0
100
AcDbLine
 10
-20.24803550944751
 20
118.77506871481077
 30
0.0
 11
-20.253665195321727
 21
118.77471496624268
 31
0.0
  0
LINE
  5
3DC
330
17
100
AcDbEntity
  8
0
100
AcDbLine
 10
-20.253665195321727
 20
118.77471496624268
 30
0.0
 11
-20.259294376743046
 21
118.7743532790607
 31
0.0
  0
LINE
  5
3DD
330
17
100
AcDbEntity
  8
0
100
AcDbLine
 10
-20.259294376743046
 20
118.7743532790607
 30
0.0
 11
-20.26492304251697
 21
118.77398365398412
 31
0.0
  0
LINE
  5
3DE
330
17
100
AcDbEntity
  8
0
100
AcDbLine
 10
-20.26492304251697
 20
118.77398365398412
 30
0.0
 11
-20.270551181450006
 21
118.77360609174796
 31
0.0
  0
LINE
  5
3DF
330
17
100
AcDbEntity
  8
0
100
AcDbLine
 10
-20.270551181450006
 20
118.77360609174796
 30
0.0
 11
-20.276178782349728
 21
118.77322059310309
 31
0.0
  0
LINE
  5
3E0
330
17
100
AcDbEntity
  8
0
100
AcDbLine
 10
-20.276178782349728
 20
118.77322059310309
 30
0.0
 11
-20.28180583402477
 21
118.77282715881611
 31
0.0
  0
LINE
  5
3E1
330
17
100
AcDbEntity
  8
0
100
AcDbLine
 10
-20.28180583402477
 20
118.77282715881611
 30
0.0
 11
-20.287432325284858
 21
118.77242578966946
 31
0.0
  0
LINE
  5
3E2
330
17
100
AcDbEntity
  8
0
100
AcDbLine
 10
-20.287432325284858
 20
118.77242578966946
 30
0.0
 11
-20.293058244940838
 21
118.77201648646128
 31
0.0
  0
LINE
  5
3E3
330
17
100
AcDbEntity
  8
0
100
AcDbLine
 10
-20.293058244940838
 20
118.77201648646128
 30
0.0
 11
-20.29868358180469
 21
118.77159925000556
 31
0.0
  0
LINE
  5
3E4
330
17
100
AcDbEntity
  8
0
100
AcDbLine
 10
-20.29868358180469
 20
118.77159925000556
 30
0.0
 11
-20.304308324689547
 21
118.77117408113205
 31
0.0
  0
LINE
  5
3E5
330
17
100
AcDbEntity
  8
0
100
AcDbLine
 10
-20.304308324689547
 20
118.77117408113205
 30
0.0
 11
-20.30993246240973
 21
118.77074098068626
 31
0.0
  0
LINE
  5
3E6
330
17
100
AcDbEntity
  8
0
100
AcDbLine
 10
-20.30993246240973
 20
118.77074098068626
 30
0.0
 11
-20.315555983780765
 21
118.77029994952944
 31
0.0
  0
LINE
  5
3E7
330
17
100
AcDbEntity
  8
0
100
AcDbLine
 10
-20.315555983780765
 20
118.77029994952944
 30
0.0
 11
-20.3211788776194
 21
118.7698509885387
 31
0.0
  0
LINE
  5
3E8
330
17
100
AcDbEntity
  8
0
100
AcDbLine
 10
-20.3211788776194
 20
118.7698509885387
 30
0.0
 11
-20.32680113274363
 21
118.76939409860685
 31
0.0
  0
LINE
  5
3E9
330
17
100
AcDbEntity
  8
0
100
AcDbLine
 10
-20.32680113274363
 20
118.76939409860685
 30
0.0
 11
-20.33242273797272
 21
118.76892928064248
 31
0.0
  0
LINE
  5
3EA
330
17
100
AcDbEntity
  8
0
100
AcDbLine
 10
-20.33242273797272
 20
118.76892928064248
 30
0.0
 11
-20.338043682127232
 21
118.76845653556997
 31
0.0
  0
LINE
  5
3EB
330
17
100
AcDbEntity
  8
0
100
AcDbLine
 10
-20.338043682127232
 20
118.76845653556997
 30
0.0
 11
-20.343663954029044
 21
118.76797586432943
 31
0.0
  0
LINE
  5
3EC
330
17
100
AcDbEntity
  8
0
100
AcDbLine
 10
-20.343663954029044
 20
118.76797586432943
 30
0.0
 11
-20.34928354250136
 21
118.76748726787676
 31
0.0
  0
LINE
  5
3ED
330
17
100
AcDbEntity
  8
0
100
AcDbLine
 10
-20.34928354250136
 20
118.76748726787676
 30
0.0
 11
-20.354902436368754
 21
118.7669907471836
 31
0.0
  0
LINE
  5
3EE
330
17
100
AcDbEntity
  8
0
100
AcDbLine
 10
-20.354902436368754
 20
118.7669907471836
 30
0.0
 11
-20.36052062445717
 21
118.76648630323737
 31
0.0
  0
LINE
  5
3EF
330
17
100
AcDbEntity
  8
0
100
AcDbLine
 10
-20.36052062445717
 20
118.76648630323737
 30
0.0
 11
-20.366138095593975
 21
118.76597393704122
 31
0.0
  0
LINE
  5
3F0
330
17
100
AcDbEntity
  8
0
100
AcDbLine
 10
-20.366138095593975
 20
118.76597393704122
 30
0.0
 11
-20.371754838607938
 21
118.7654536496141
 31
0.0
  0
LINE
  5
3F1
330
17
100
AcDbEntity
  8
0
100
AcDbLine
 10
-20.371754838607938
 20
118.7654536496141
 30
0.0
 11
-20.377370842329295
 21
118.76492544199066
 31
0.0
  0
LINE
  5
3F2
330
17
100
AcDbEntity
  8
0
100
AcDbLine
 10
-20.377370842329295
 20
118.76492544199066
 30
0.0
 11
-20.382986095589743
 21
118.76438931522132
 31
0.0
  0
LINE
  5
3F3
330
17
100
AcDbEntity
  8
0
100
AcDbLine
 10
-20.382986095589743
 20
118.76438931522132
 30
0.0
 11
-20.38860058722247
 21
118.76384527037227
 31
0.0
  0
LINE
  5
3F4
330
17
100
AcDbEntity
  8
0
100
AcDbLine
 10
-20.38860058722247
 20
118.76384527037227
 30
0.0
 11
-20.394214306062185
 21
118.7632933085254
 31
0.0
  0
LINE
  5
3F5
330
17
100
AcDbEntity
  8
0
100
AcDbLine
 10
-20.394214306062185
 20
118.7632933085254
 30
0.0
 11
-20.39982724094513
 21
118.76273343077841
 31
0.0
  0
LINE
  5
3F6
330
17
100
AcDbEntity
  8
0
100
AcDbLine
 10
-20.39982724094513
 20
118.76273343077841
 30
0.0
 11
-20.405439380709105
 21
118.76216563824468
 31
0.0
  0
LINE
  5
3F7
330
17
100
AcDbEntity
  8
0
100
AcDbLine
 10
-20.405439380709105
 20
118.76216563824468
 30
0.0
 11
-20.411050714193497
 21
118.76158993205337
 31
0.0
  0
LINE
  5
3F8
330
17
100
AcDbEntity
  8
0
100
AcDbLine
 10
-20.411050714193497
 20
118.76158993205337
 30
0.0
 11
-20.416661230239285
 21
118.76100631334934
 31
0.0
  0
LINE
  5
3F9
330
17
100
AcDbEntity
  8
0
100
AcDbLine
 10
-20.416661230239285
 20
118.76100631334934
 30
0.0
 11
-20.422270917689083
 21
118.76041478329321
 31
0.0
  0
LINE
  5
3FA
330
17
100
AcDbEntity
  8
0
100
AcDbLine
 10
-20.422270917689083
 20
118.76041478329321
 30
0.0
 11
-20.427879765387157
 21
118.75981534306135
 31
0.0
  0
LINE
  5
3FB
330
17
100
AcDbEntity
  8
0
100
AcDbLine
 10
-20.427879765387157
 20
118.75981534306135
 30
0.0
 11
-20.433487762179432
 21
118.75920799384582
 31
0.0
  0
LINE
  5
3FC
330
17
100
AcDbEntity
  8
0
100
AcDbLine
 10
-20.433487762179432
 20
118.75920799384582
 30
0.0
 11
-20.439094896913527
 21
118.75859273685445
 31
0.0
  0
LINE
  5
3FD
330
17
100
AcDbEntity
  8
0
100
AcDbLine
 10
-20.439094896913527
 20
118.75859273685445
 30
0.0
 11
-20.444701158438782
 21
118.75796957331075
 31
0.0
  0
LINE
  5
3FE
330
17
100
AcDbEntity
  8
0
100
AcDbLine
 10
-20.444701158438782
 20
118.75796957331075
 30
0.0
 11
-20.450306535606273
 21
118.757338504454
 31
0.0
  0
LINE
  5
3FF
330
17
100
AcDbEntity
  8
0
100
AcDbLine
 10
-20.450306535606273
 20
118.757338504454
 30
0.0
 11
-20.45591101726882
 21
118.75669953153916
 31
0.0
  0
LINE
  5
400
330
17
100
AcDbEntity
  8
0
100
AcDbLine
 10
-20.45591101726882
 20
118.75669953153916
 30
0.0
 11
-20.46151459228105
 21
118.75605265583694
 31
0.0
  0
LINE
  5
401
330
17
100
AcDbEntity
  8
0
100
AcDbLine
 10
-20.46151459228105
 20
118.75605265583694
 30
0.0
 11
-20.46711724949936
 21
118.75539787863376
 31
0.0
  0
LINE
  5
402
330
17
100
AcDbEntity
  8
0
100
AcDbLine
 10
-20.46711724949936
 20
118.75539787863376
 30
0.0
 11
-20.47271897778201
 21
118.75473520123172
 31
0.0
  0
LINE
  5
403
330
17
100
AcDbEntity
  8
0
100
AcDbLine
 10
-20.47271897778201
 20
118.75473520123172
 30
0.0
 11
-20.47831976598907
 21
118.75406462494868
 31
0.0
  0
LINE
  5
404
330
17
100
AcDbEntity
  8
0
100
AcDbLine
 10
-20.47831976598907
 20
118.75406462494868
 30
0.0
 11
-20.48391960298251
 21
118.75338615111819
 31
0.0
  0
LINE
  5
405
330
17
100
AcDbEntity
  8
0
100
AcDbLine
 10
-20.48391960298251
 20
118.75338615111819
 30
0.0
 11
-20.489518477626174
 21
118.75269978108949
 31
0.0
  0
LINE
  5
406
330
17
100
AcDbEntity
  8
0
100
AcDbLine
 10
-20.489518477626174
 20
118.75269978108949
 30
0.0
 11
-20.495116378785823
 21
118.75200551622754
 31
0.0
  0
LINE
  5
407
330
17
100
AcDbEntity
  8
0
100
AcDbLine
 10
-20.495116378785823
 20
118.75200551622754
 30
0.0
 11
-20.500713295329156
 21
118.75130335791297
 31
0.0
  0
LINE
  5
408
330
17
100
AcDbEntity
  8
0
100
AcDbLine
 10
-20.500713295329156
 20
118.75130335791297
 30
0.0
 11
-20.506309216125835
 21
118.75059330754218
 31
0.0
  0
LINE
  5
409
330
17
100
AcDbEntity
  8
0
100
AcDbLine
 10
-20.506309216125835
 20
118.75059330754218
 30
0.0
 11
-20.51190413004749
 21
118.74987536652716
 31
0.0
  0
LINE
  5
40A
330
17
100
AcDbEntity
  8
0
100
AcDbLine
 10
-20.51190413004749
 20
118.74987536652716
 30
0.0
 11
-20.51749802596776
 21
118.74914953629569
 31
0.0
  0
LINE
  5
40B
330
17
100
AcDbEntity
  8
0
100
AcDbLine
 10
-20.51749802596776
 20
118.74914953629569
 30
0.0
 11
-20.523090892762312
 21
118.74841581829119
 31
0.0
  0
LINE
  5
40C
330
17
100
AcDbEntity
  8
0
100
AcDbLine
 10
-20.523090892762312
 20
118.74841581829119
 30
0.0
 11
-20.528682719308858
 21
118.74767421397276
 31
0.0
  0
LINE
  5
40D
330
17
100
AcDbEntity
  8
0
100
AcDbLine
 10
-20.528682719308858
 20
118.74767421397276
 30
0.0
 11
-20.534273494487174
 21
118.74692472481519
 31
0.0
  0
LINE
  5
40E
330
17
100
AcDbEntity
  8
0
100
AcDbLine
 10
-20.534273494487174
 20
118.74692472481519
 30
0.0
 11
-20.539863207179128
 21
118.74616735230897
 31
0.0
  0
LINE
  5
40F
330
17
100
AcDbEntity
  8
0
100
AcDbLine
 10
-20.539863207179128
 20
118.74616735230897
 30
0.0
 11
-20.5454518462687
 21
118.74540209796027
 31
0.0
  0
LINE
  5
410
330
17
100
AcDbEntity
  8
0
100
AcDbLine
 10
-20.5454518462687
 20
118.74540209796027
 30
0.0
 11
-20.551039400642015
 21
118.74462896329088
 31
0.0
  0
LINE
  5
411
330
17
100
AcDbEntity
  8
0
100
AcDbLine
 10
-20.551039400642015
 20
118.74462896329088
 30
0.0
 11
-20.556625859187346
 21
118.74384794983833
 31
0.0
  0
LINE
  5
412
330
17
100
AcDbEntity
  8
0
100
AcDbLine
 10
-15.9999999999999
 20
114.782766323201
 30
0.0
 11
-16.0005034893044
 21
114.84623017854024
 31
0.0
  0
LINE
  5
413
330
17
100
AcDbEntity
  8
0
100
AcDbLine
 10
-16.0005034893044
 20
114.84623017854024
 30
0.0
 11
-16.00201383046716
 21
114.90967805719328
 31
0.0
  0
LINE
  5
414
330
17
100
AcDbEntity
  8
0
100
AcDbLine
 10
-16.00201383046716
 20
114.90967805719328
 30
0.0
 11
-16.00453064326787
 21
114.97309398649597
 31
0.0
  0
LINE
  5
415
330
17
100
AcDbEntity
  8
0
100
AcDbLine
 10
-16.00453064326787
 20
114.97309398649597
 30
0.0
 11
-16.00805329411236
 21
115.03646200182726
 31
0.0
  0
LINE
  5
416
330
17
100
AcDbEntity
  8
0
100
AcDbLine
 10
-16.00805329411236
 20
115.03646200182726
 30
0.0
 11
-16.01258089619213
 21
115.09976615062816
 31
0.0
  0
LINE
  5
417
330
17
100
AcDbEntity
  8
0
100
AcDbLine
 10
-16.01258089619213
 20
115.09976615062816
 30
0.0
 11
-16.01811230970756
 21
115.16299049641773
 31
0.0
  0
LINE
  5
418
330
17
100
AcDbEntity
  8
0
100
AcDbLine
 10
-16.01811230970756
 20
115.16299049641773
 30
0.0
 11
-16.024646142154886
 21
115.22611912280504
 31
0.0
  0
LINE
  5
419
330
17
100
AcDbEntity
  8
0
100
AcDbLine
 10
-16.024646142154886
 20
115.22611912280504
 30
0.0
 11
-16.03218074867672
 21
115.289136137496
 31
0.0
  0
LINE
  5
41A
330
17
100
AcDbEntity
  8
0
100
AcDbLine
 10
-16.03218074867672
 20
115.289136137496
 30
0.0
 11
-16.04071423247617
 21
115.35202567629415
 31
0.0
  0
LINE
  5
41B
330
17
100
AcDbEntity
  8
0
100
AcDbLine
 10
-16.04071423247617
 20
115.35202567629415
 30
0.0
 11
-16.050244445294325
 21
115.4147719070944
 31
0.0
  0
LINE
  5
41C
330
17
100
AcDbEntity
  8
0
100
AcDbLine
 10
-16.050244445294325
 20
115.4147719070944
 30
0.0
 11
-16.060768987951068
 21
115.47735903386872
 31
0.0
  0
LINE
  5
41D
330
17
100
AcDbEntity
  8
0
100
AcDbLine
 10
-16.060768987951068
 20
115.47735903386872
 30
0.0
 11
-16.072285210949072
 21
115.53977130064264
 31
0.0
  0
LINE
  5
41E
330
17
100
AcDbEntity
  8
0
100
AcDbLine
 10
-16.072285210949072
 20
115.53977130064264
 30
0.0
 11
-16.084790215140785
 21
115.60199299546177
 31
0.0
  0
LINE
  5
41F
330
17
100
AcDbEntity
  8
0
100
AcDbLine
 10
-16.084790215140785
 20
115.60199299546177
 30
0.0
 11
-16.098280852458274
 21
115.66400845434717
 31
0.0
  0
LINE
  5
420
330
17
100
AcDbEntity
  8
0
100
AcDbLine
 10
-16.098280852458274
 20
115.66400845434717
 30
0.0
 11
-16.112753726705733
 21
115.72580206523871
 31
0.0
  0
LINE
  5
421
330
17
100
AcDbEntity
  8
0
100
AcDbLine
 10
-16.112753726705733
 20
115.72580206523871
 30
0.0
 11
-16.128205194414477
 21
115.78735827192531
 31
0.0
  0
LINE
  5
422
330
17
100
AcDbEntity
  8
0
100
AcDbLine
 10
-16.128205194414477
 20
115.78735827192531
 30
0.0
 11
-16.144631365760134
 21
115.84866157796114
 31
0.0
  0
LINE
  5
423
330
17
100
AcDbEntity
  8
0
100
AcDbLine
 10
-16.144631365760134
 20
115.84866157796114
 30
0.0
 11
-16.16202810554191
 21
115.90969655056672
 31
0.0
  0
LINE
  5
424
330
17
100
AcDbEntity
  8
0
100
AcDbLine
 10
-16.16202810554191
 20
115.90969655056672
 30
0.0
 11
-16.180391034223604
 21
115.9704478245141
 31
0.0
  0
LINE
  5
425
330
17
100
AcDbEntity
  8
0
100
AcDbLine
 10
-16.180391034223604
 20
115.9704478245141
 30
0.0
 11
-16.19971552903612
 21
116.03090010599495
 31
0.0
  0
LINE
  5
426
330
17
100
AcDbEntity
  8
0
100
AcDbLine
 10
-16.19971552903612
 20
116.03090010599495
 30
0.0
 11
-16.219996725141225
 21
116.09103817647069
 31
0.0
  0
LINE
  5
427
330
17
100
AcDbEntity
  8
0
100
AcDbLine
 10
-16.219996725141225
 20
116.09103817647069
 30
0.0
 11
-16.241229516856265
 21
116.15084689650368
 31
0.0
  0
LINE
  5
428
330
17
100
AcDbEntity
  8
0
100
AcDbLine
 10
-16.241229516856265
 20
116.15084689650368
 30
0.0
 11
-16.263408558939474
 21
116.21031120956849
 31
0.0
  0
LINE
  5
429
330
17
100
AcDbEntity
  8
0
100
AcDbLine
 10
-16.263408558939474
 20
116.21031120956849
 30
0.0
 11
-16.28652826793561
 21
116.26941614584231
 31
0.0
  0
LINE
  5
42A
330
17
100
AcDbEntity
  8
0
100
AcDbLine
 10
-16.28652826793561
 20
116.26941614584231
 30
0.0
 11
-16.310582823581576
 21
116.32814682597352
 31
0.0
  0
LINE
  5
42B
330
17
100
AcDbEntity
  8
0
100
AcDbLine
 10
-16.310582823581576
 20
116.32814682597352
 30
0.0
 11
-16.335566170271623
 21
116.38648846482745
 31
0.0
  0
LINE
  5
42C
330
17
100
AcDbEntity
  8
0
100
AcDbLine
 10
-16.335566170271623
 20
116.38648846482745
 30
0.0
 11
-16.36147201858183
 21
116.44442637520855
 31
0.0
  0
LINE
  5
42D
330
17
100
AcDbEntity
  8
0
100
AcDbLine
 10
-16.36147201858183
 20
116.44442637520855
 30
0.0
 11
-16.388293846853415
 21
116.50194597155769
 31
0.0
  0
LINE
  5
42E
330
17
100
AcDbEntity
  8
0
100
AcDbLine
 10
-16.388293846853415
 20
116.50194597155769
 30
0.0
 11
-16.416024902834558
 21
116.5590327736241
 31
0.0
  0
LINE
  5
42F
330
17
100
AcDbEntity
  8
0
100
AcDbLine
 10
-16.416024902834558
 20
116.5590327736241
 30
0.0
 11
-16.444658205380208
 21
116.61567241011065
 31
0.0
  0
LINE
  5
430
330
17
100
AcDbEntity
  8
0
100
AcDbLine
 10
-16.444658205380208
 20
116.61567241011065
 30
0.0
 11
-16.474186546209573
 21
116.67185062229173
 31
0.0
  0
LINE
  5
431
330
17
100
AcDbEntity
  8
0
100
AcDbLine
 10
-16.474186546209573
 20
116.67185062229173
 30
0.0
 11
-16.50460249172076
 21
116.72755326760287
 31
0.0
  0
LINE
  5
432
330
17
100
AcDbEntity
  8
0
100
AcDbLine
 10
-16.50460249172076
 20
116.72755326760287
 30
0.0
 11
-16.535898384862143
 21
116.782766323201
 31
0.0
  0
LINE
  5
433
330
17
100
AcDbEntity
  8
0
100
AcDbLine
 10
-16.535898384862143
 20
116.782766323201
 30
0.0
 11
-16.568066347059993
 21
116.83747588949463
 31
0.0
  0
LINE
  5
434
330
17
100
AcDbEntity
  8
0
100
AcDbLine
 10
-16.568066347059993
 20
116.83747588949463
 30
0.0
 11
-16.601098280201843
 21
116.89166819364301
 31
0.0
  0
LINE
  5
435
330
17
100
AcDbEntity
  8
0
100
AcDbLine
 10
-16.601098280201843
 20
116.89166819364301
 30
0.0
 11
-16.634985868675177
 21
116.94532959302339
 31
0.0
  0
LINE
  5
436
330
17
100
AcDbEntity
  8
0
100
AcDbLine
 10
-16.634985868675177
 20
116.94532959302339
 30
0.0
 11
-16.669720581460815
 21
116.99844657866544
 31
0.0
  0
LINE
  5
437
330
17
100
AcDbEntity
  8
0
100
AcDbLine
 10
-16.669720581460815
 20
116.99844657866544
 30
0.0
 11
-16.70529367428057
 21
117.05100577865208
 31
0.0
  0
LINE
  5
438
330
17
100
AcDbEntity
  8
0
100
AcDbLine
 10
-16.70529367428057
 20
117.05100577865208
 30
0.0
 11
-16.741696191798557
 21
117.1029939614858
 31
0.0
  0
LINE
  5
439
330
17
100
AcDbEntity
  8
0
100
AcDbLine
 10
-16.741696191798557
 20
117.1029939614858
 30
0.0
 11
-16.778918969875665
 21
117.15439803941956
 31
0.0
  0
LINE
  5
43A
330
17
100
AcDbEntity
  8
0
100
AcDbLine
 10
-16.778918969875665
 20
117.15439803941956
 30
0.0
 11
-16.81695263787657
 21
117.20520507175166
 31
0.0
  0
LINE
  5
43B
330
17
100
AcDbEntity
  8
0
100
AcDbLine
 10
-16.81695263787657
 20
117.20520507175166
 30
0.0
 11
-16.85578762102875
 21
117.25540226808343
 31
0.0
  0
LINE
  5
43C
330
17
100
AcDbEntity
  8
0
100
AcDbLine
 10
-16.85578762102875
 20
117.25540226808343
 30
0.0
 11
-16.895414142832873
 21
117.30497699153909
 31
0.0
  0
LINE
  5
43D
330
17
100
AcDbEntity
  8
0
100
AcDbLine
 10
-16.895414142832873
 20
117.30497699153909
 30
0.0
 11
-16.93582222752399
 21
117.35391676194716
 31
0.0
  0
LINE
  5
43E
330
17
100
AcDbEntity
  8
0
100
AcDbLine
 10
-16.93582222752399
 20
117.35391676194716
 30
0.0
 11
-16.977001702582868
 21
117.40220925898214
 31
0.0
  0
LINE
  5
43F
330
17
100
AcDbEntity
  8
0
100
AcDbLine
 10
-16.977001702582868
 20
117.40220925898214
 30
0.0
 11
-17.01894220129688
 21
117.44984232526618
 31
0.0
  0
LINE
  5
440
330
17
100
AcDbEntity
  8
0
100
AcDbLine
 10
-17.01894220129688
 20
117.44984232526618
 30
0.0
 11
-17.061633165369766
 21
117.49680396942954
 31
0.0
  0
LINE
  5
441
330
17
100
AcDbEntity
  8
0
100
AcDbLine
 10
-17.061633165369766
 20
117.49680396942954
 30
0.0
 11
-17.10506384757962
 21
117.54308236912945
 31
0.0
  0
LINE
  5
442
330
17
100
AcDbEntity
  8
0
100
AcDbLine
 10
-17.10506384757962
 20
117.54308236912945
 30
0.0
 11
-17.14922331448445
 21
117.58866587402629
 31
0.0
  0
LINE
  5
443
330
17
100
AcDbEntity
  8
0
100
AcDbLine
 10
-17.14922331448445
 20
117.58866587402629
 30
0.0
 11
-17.194100449174616
 21
117.63354300871646
 31
0.0
  0
LINE
  5
444
330
17
100
AcDbEntity
  8
0
100
AcDbLine
 10
-17.194100449174616
 20
117.63354300871646
 30
0.0
 11
-17.239683954071452
 21
117.67770247562129
 31
0.0
  0
LINE
  5
445
330
17
100
AcDbEntity
  8
0
100
AcDbLine
 10
-17.239683954071452
 20
117.67770247562129
 30
0.0
 11
-17.28596235377137
 21
117.72113315783113
 31
0.0
  0
LINE
  5
446
330
17
100
AcDbEntity
  8
0
100
AcDbLine
 10
-17.28596235377137
 20
117.72113315783113
 30
0.0
 11
-17.332923997934735
 21
117.76382412190402
 31
0.0
  0
LINE
  5
447
330
17
100
AcDbEntity
  8
0
100
AcDbLine
 10
-17.332923997934735
 20
117.76382412190402
 30
0.0
 11
-17.38055706421876
 21
117.80576462061804
 31
0.0
  0
LINE
  5
448
330
17
100
AcDbEntity
  8
0
100
AcDbLine
 10
-17.38055706421876
 20
117.80576462061804
 30
0.0
 11
-17.42884956125374
 21
117.84694409567692
 31
0.0
  0
LINE
  5
449
330
17
100
AcDbEntity
  8
0
100
AcDbLine
 10
-17.42884956125374
 20
117.84694409567692
 30
0.0
 11
-17.47778933166181
 21
117.88735218036803
 31
0.0
  0
LINE
  5
44A
330
17
100
AcDbEntity
  8
0
100
AcDbLine
 10
-17.47778933166181
 20
117.88735218036803
 30
0.0
 11
-17.52736405511748
 21
117.92697870217215
 31
0.0
  0
LINE
  5
44B
330
17
100
AcDbEntity
  8
0
100
AcDbLine
 10
-17.52736405511748
 20
117.92697870217215
 30
0.0
 11
-17.577561251449232
 21
117.96581368532433
 31
0.0
  0
LINE
  5
44C
330
17
100
AcDbEntity
  8
0
100
AcDbLine
 10
-17.577561251449232
 20
117.96581368532433
 30
0.0
 11
-17.628368283781338
 21
118.00384735332524
 31
0.0
  0
LINE
  5
44D
330
17
100
AcDbEntity
  8
0
100
AcDbLine
 10
-17.628368283781338
 20
118.00384735332524
 30
0.0
 11
-17.67977236171511
 21
118.04107013140235
 31
0.0
  0
LINE
  5
44E
330
17
100
AcDbEntity
  8
0
100
AcDbLine
 10
-17.67977236171511
 20
118.04107013140235
 30
0.0
 11
-17.731760544548816
 21
118.07747264892033
 31
0.0
  0
LINE
  5
44F
330
17
100
AcDbEntity
  8
0
100
AcDbLine
 10
-17.731760544548816
 20
118.07747264892033
 30
0.0
 11
-17.78431974453546
 21
118.11304574174008
 31
0.0
  0
LINE
  5
450
330
17
100
AcDbEntity
  8
0
100
AcDbLine
 10
-17.78431974453546
 20
118.11304574174008
 30
0.0
 11
-17.837436730177508
 21
118.14778045452573
 31
0.0
  0
LINE
  5
451
330
17
100
AcDbEntity
  8
0
100
AcDbLine
 10
-17.837436730177508
 20
118.14778045452573
 30
0.0
 11
-17.89109812955789
 21
118.18166804299906
 31
0.0
  0
LINE
  5
452
330
17
100
AcDbEntity
  8
0
100
AcDbLine
 10
-17.89109812955789
 20
118.18166804299906
 30
0.0
 11
-17.945290433706276
 21
118.2146999761409
 31
0.0
  0
LINE
  5
453
330
17
100
AcDbEntity
  8
0
100
AcDbLine
 10
-17.945290433706276
 20
118.2146999761409
 30
0.0
 11
-17.9999999999999
 21
118.24686793833875
 31
0.0
  0
LINE
  5
454
330
17
100
AcDbEntity
  8
0
100
AcDbLine
 10
-17.9999999999999
 20
118.24686793833875
 30
0.0
 11
-18.055213055598024
 21
118.27816383148014
 31
0.0
  0
LINE
  5
455
330
17
100
AcDbEntity
  8
0
100
AcDbLine
 10
-18.055213055598024
 20
118.27816383148014
 30
0.0
 11
-18.11091570090917
 21
118.30857977699134
 31
0.0
  0
LINE
  5
456
330
17
100
AcDbEntity
  8
0
100
AcDbLine
 10
-18.11091570090917
 20
118.30857977699134
 30
0.0
 11
-18.16709391309026
 21
118.3381081178207
 31
0.0
  0
LINE
  5
457
330
17
100
AcDbEntity
  8
0
100
AcDbLine
 10
-18.16709391309026
 20
118.3381081178207
 30
0.0
 11
-18.223733549576803
 21
118.36674142036634
 31
0.0
  0
LINE
  5
458
330
17
100
AcDbEntity
  8
0
100
AcDbLine
 10
-18.223733549576803
 20
118.36674142036634
 30
0.0
 11
-18.280820351643214
 21
118.39447247634749
 31
0.0
  0
LINE
  5
459
330
17
100
AcDbEntity
  8
0
100
AcDbLine
 10
-18.280820351643214
 20
118.39447247634749
 30
0.0
 11
-18.338339947992356
 21
118.42129430461908
 31
0.0
  0
LINE
  5
45A
330
17
100
AcDbEntity
  8
0
100
AcDbLine
 10
-18.338339947992356
 20
118.42129430461908
 30
0.0
 11
-18.396277858373445
 21
118.44720015292928
 31
0.0
  0
LINE
  5
45B
330
17
100
AcDbEntity
  8
0
100
AcDbLine
 10
-18.396277858373445
 20
118.44720015292928
 30
0.0
 11
-18.454619497227387
 21
118.47218349961933
 31
0.0
  0
LINE
  5
45C
330
17
100
AcDbEntity
  8
0
100
AcDbLine
 10
-18.454619497227387
 20
118.47218349961933
 30
0.0
 11
-18.51335017735859
 21
118.4962380552653
 31
0.0
  0
LINE
  5
45D
330
17
100
AcDbEntity
  8
0
100
AcDbLine
 10
-18.51335017735859
 20
118.4962380552653
 30
0.0
 11
-18.57245511363241
 21
118.51935776426143
 31
0.0
  0
LINE
  5
45E
330
17
100
AcDbEntity
  8
0
100
AcDbLine
 10
-18.57245511363241
 20
118.51935776426143
 30
0.0
 11
-18.631919426697223
 21
118.54153680634464
 31
0.0
  0
LINE
  5
45F
330
17
100
AcDbEntity
  8
0
100
AcDbLine
 10
-18.631919426697223
 20
118.54153680634464
 30
0.0
 11
-18.691728146730213
 21
118.56276959805967
 31
0.0
  0
LINE
  5
460
330
17
100
AcDbEntity
  8
0
100
AcDbLine
 10
-18.691728146730213
 20
118.56276959805967
 30
0.0
 11
-18.751866217205954
 21
118.58305079416479
 31
0.0
  0
LINE
  5
461
330
17
100
AcDbEntity
  8
0
100
AcDbLine
 10
-18.751866217205954
 20
118.58305079416479
 30
0.0
 11
-18.8123184986868
 21
118.6023752889773
 31
0.0
  0
LINE
  5
462
330
17
100
AcDbEntity
  8
0
100
AcDbLine
 10
-18.8123184986868
 20
118.6023752889773
 30
0.0
 11
-18.87306977263418
 21
118.620738217659
 31
0.0
  0
LINE
  5
463
330
17
100
AcDbEntity
  8
0
100
AcDbLine
 10
-18.87306977263418
 20
118.620738217659
 30
0.0
 11
-18.93410474523976
 21
118.63813495744077
 31
0.0
  0
LINE
  5
464
330
17
100
AcDbEntity
  8
0
100
AcDbLine
 10
-18.93410474523976
 20
118.63813495744077
 30
0.0
 11
-18.995408051275582
 21
118.65456112878643
 31
0.0
  0
LINE
  5
465
330
17
100
AcDbEntity
  8
0
100
AcDbLine
 10
-18.995408051275582
 20
118.65456112878643
 30
0.0
 11
-19.056964257962193
 21
118.67001259649517
 31
0.0
  0
LINE
  5
466
330
17
100
AcDbEntity
  8
0
100
AcDbLine
 10
-19.056964257962193
 20
118.67001259649517
 30
0.0
 11
-19.118757868853738
 21
118.68448547074263
 31
0.0
  0
LINE
  5
467
330
17
100
AcDbEntity
  8
0
100
AcDbLine
 10
-19.118757868853738
 20
118.68448547074263
 30
0.0
 11
-19.18077332773914
 21
118.69797610806012
 31
0.0
  0
LINE
  5
468
330
17
100
AcDbEntity
  8
0
100
AcDbLine
 10
-19.18077332773914
 20
118.69797610806012
 30
0.0
 11
-19.242995022558258
 21
118.71048111225183
 31
0.0
  0
LINE
  5
469
330
17
100
AcDbEntity
  8
0
100
AcDbLine
 10
-19.242995022558258
 20
118.71048111225183
 30
0.0
 11
-19.30540728933218
 21
118.72199733524984
 31
0.0
  0
LINE
  5
46A
330
17
100
AcDbEntity
  8
0
100
AcDbLine
 10
-19.30540728933218
 20
118.72199733524984
 30
0.0
 11
-19.367994416106498
 21
118.73252187790658
 31
0.0
  0
LINE
  5
46B
330
17
100
AcDbEntity
  8
0
100
AcDbLine
 10
-19.367994416106498
 20
118.73252187790658
 30
0.0
 11
-19.43074064690676
 21
118.74205209072473
 31
0.0
  0
LINE
  5
46C
330
17
100
AcDbEntity
  8
0
100
AcDbLine
 10
-19.43074064690676
 20
118.74205209072473
 30
0.0
 11
-19.4936301857049
 21
118.75058557452418
 31
0.0
  0
LINE
  5
46D
330
17
100
AcDbEntity
  8
0
100
AcDbLine
 10
-19.4936301857049
 20
118.75058557452418
 30
0.0
 11
-19.556647200395854
 21
118.75812018104602
 31
0.0
  0
LINE
  5
46E
330
17
100
AcDbEntity
  8
0
100
AcDbLine
 10
-19.556647200395854
 20
118.75812018104602
 30
0.0
 11
-19.619775826783172
 21
118.76465401349334
 31
0.0
  0
LINE
  5
46F
330
17
100
AcDbEntity
  8
0
100
AcDbLine
 10
-19.619775826783172
 20
118.76465401349334
 30
0.0
 11
-19.683000172572747
 21
118.77018542700877
 31
0.0
  0
LINE
  5
470
330
17
100
AcDbEntity
  8
0
100
AcDbLine
 10
-19.683000172572747
 20
118.77018542700877
 30
0.0
 11
-19.746304321373643
 21
118.77471302908855
 31
0.0
  0
LINE
  5
471
330
17
100
AcDbEntity
  8
0
100
AcDbLine
 10
-19.746304321373643
 20
118.77471302908855
 30
0.0
 11
-19.80967233670493
 21
118.77823567993303
 31
0.0
  0
LINE
  5
472
330
17
100
AcDbEntity
  8
0
100
AcDbLine
 10
-19.80967233670493
 20
118.77823567993303
 30
0.0
 11
-19.87308826600763
 21
118.78075249273374
 31
0.0
  0
LINE
  5
473
330
17
100
AcDbEntity
  8
0
100
AcDbLine
 10
-19.87308826600763
 20
118.78075249273374
 30
0.0
 11
-19.936536144660668
 21
118.7822628338965
 31
0.0
  0
LINE
  5
474
330
17
100
AcDbEntity
  8
0
100
AcDbLine
 10
-19.936536144660668
 20
118.7822628338965
 30
0.0
 11
-19.9999999999999
 21
118.782766323201
 31
0.0
  0
ENDSEC
  0
SECTION
  2
OBJECTS
  0
DICTIONARY
  5
A
330
0
100
AcDbDictionary
280
0
281
1
  3
ACAD_COLOR
350
B
  3
ACAD_GROUP
350
C
  3
ACAD_LAYOUT
350
D
  3
ACAD_MATERIAL
350
E
  3
ACAD_MLEADERSTYLE
350
F
  3
ACAD_MLINESTYLE
350
10
  3
ACAD_PLOTSETTINGS
350
11
  3
ACAD_PLOTSTYLENAME
350
12
  3
ACAD_SCALELIST
350
14
  3
ACAD_TABLESTYLE
350
15
  3
ACAD_VISUALSTYLE
350
16
  3
EZDXF_META
350
2D
  0
DICTIONARY
  5
B
330
A
100
AcDbDictionary
280
0
281
1
  0
DICTIONARY
  5
C
330
A
100
AcDbDictionary
280
0
281
1
  0
DICTIONARY
  5
D
330
A
100
AcDbDictionary
280
0
281
1
  3
Model
350
1A
  3
Layout1
350
1E
  0
DICTIONARY
  5
E
330
A
100
AcDbDictionary
280
0
281
1
  3
ByBlock
350
1F
  3
ByLayer
350
20
  3
Global
350
21
  0
DICTIONARY
  5
F
330
A
100
AcDbDictionary
280
0
281
1
  3
Standard
350
2C
  0
DICTIONARY
  5
10
330
A
100
AcDbDictionary
280
0
281
1
  3
Standard
350
22
  0
DICTIONARY
  5
11
330
A
100
AcDbDictionary
280
0
281
1
  0
ACDBDICTIONARYWDFLT
  5
12
330
A
100
AcDbDictionary
280
0
281
1
  3
Normal
350
13
100
AcDbDictionaryWithDefault
340
13
  0
ACDBPLACEHOLDER
  5
13
330
12
  0
DICTIONARY
  5
14
330
A
100
AcDbDictionary
280
0
281
1
  0
DICTIONARY
  5
15
330
A
100
AcDbDictionary
280
0
281
1
  0
DICTIONARY
  5
16
330
A
100
AcDbDictionary
280
0
281
1
  0
LAYOUT
  5
1A
330
D
100
AcDbPlotSettings
  1

  2
Adobe PDF
  4
A3
  6

 40
7.5
 41
20.0
 42
7.5
 43
20.0
 44
420.0
 45
297.0
 46
0.0
 47
0.0
 48
0.0
 49
0.0
140
0.0
141
0.0
142
1.0
143
1.0
 70
1024
 72
1
 73
0
 74
5
  7

 75
16
 76
0
 77
2
 78
300
147
1.0
148
0.0
149
0.0
100
AcDbLayout
  1
Model
 70
1
 71
0
 10
0.0
 20
0.0
 11
420.0
 21
297.0
 12
0.0
 22
0.0
 32
0.0
 14
1e+20
 24
1e+20
 34
1e+20
 15
-1e+20
 25
-1e+20
 35
-1e+20
146
0.0
 13
0.0
 23
0.0
 33
0.0
 16
1.0
 26
0.0
 36
0.0
 17
0.0
 27
1.0
 37
0.0
 76
1
330
17
  0
LAYOUT
  5
1E
330
D
100
AcDbPlotSettings
  1

  2
Adobe PDF
  4
A3
  6

 40
7.5
 41
20.0
 42
7.5
 43
20.0
 44
420.0
 45
297.0
 46
0.0
 47
0.0
 48
0.0
 49
0.0
140
0.0
141
0.0
142
1.0
143
1.0
 70
0
 72
1
 73
0
 74
5
  7

 75
16
 76
0
 77
2
 78
300
147
1.0
148
0.0
149
0.0
100
AcDbLayout
  1
Layout1
 70
1
 71
1
 10
0.0
 20
0.0
 11
420.0
 21
297.0
 12
0.0
 22
0.0
 32
0.0
 14
1e+20
 24
1e+20
 34
1e+20
 15
-1e+20
 25
-1e+20
 35
-1e+20
146
0.0
 13
0.0
 23
0.0
 33
0.0
 16
1.0
 26
0.0
 36
0.0
 17
0.0
 27
1.0
 37
0.0
 76
1
330
1B
  0
MATERIAL
  5
1F
102
{ACAD_REACTORS
330
E
102
}
330
E
100
AcDbMaterial
  1
ByBlock
  2

 70
0
 40
1.0
 71
1
 41
1.0
 91
-1023410177
 42
1.0
 72
1
  3

 73
1
 74
1
 75
1
 44
0.5
 73
0
 45
1.0
 46
1.0
 77
1
  4

 78
1
 79
1
170
1
 48
1.0
171
1
  6

172
1
173
1
174
1
140
1.0
141
1.0
175
1
  7

176
1
177
1
178
1
143
1.0
179
1
  8

270
1
271
1
272
1
145
1.0
146
1.0
273
1
  9

274
1
275
1
276
1
 42
1.0
 72
1
  3

 73
1
 74
1
 75
1
 94
63
  0
MATERIAL
  5
20
102
{ACAD_REACTORS
330
E
102
}
330
E
100
AcDbMaterial
  1
ByLayer
  2

 70
0
 40
1.0
 71
1
 41
1.0
 91
-1023410177
 42
1.0
 72
1
  3

 73
1
 74
1
 75
1
 44
0.5
 73
0
 45
1.0
 46
1.0
 77
1
  4

 78
1
 79
1
170
1
 48
1.0
171
1
  6

172
1
173
1
174
1
140
1.0
141
1.0
175
1
  7

176
1
177
1
178
1
143
1.0
179
1
  8

270
1
271
1
272
1
145
1.0
146
1.0
273
1
  9

274
1
275
1
276
1
 42
1.0
 72
1
  3

 73
1
 74
1
 75
1
 94
63
  0
MATERIAL
  5
21
102
{ACAD_REACTORS
330
E
102
}
330
E
100
AcDbMaterial
  1
Global
  2

 70
0
 40
1.0
 71
1
 41
1.0
 91
-1023410177
 42
1.0
 72
1
  3

 73
1
 74
1
 75
1
 44
0.5
 73
0
 45
1.0
 46
1.0
 77
1
  4

 78
1
 79
1
170
1
 48
1.0
171
1
  6

172
1
173
1
174
1
140
1.0
141
1.0
175
1
  7

176
1
177
1
178
1
143
1.0
179
1
  8

270
1
271
1
272
1
145
1.0
146
1.0
273
1
  9

274
1
275
1
276
1
 42
1.0
 72
1
  3

 73
1
 74
1
 75
1
 94
63
  0
MLINESTYLE
  5
22
102
{ACAD_REACTORS
330
10
102
}
330
10
100
AcDbMlineStyle
  2
Standard
 70
0
  3

 62
256
 51
90.0
 52
90.0
 71
2
 49
0.5
 62
256
  6
BYLAYER
 49
-0.5
 62
256
  6
BYLAYER
  0
MLEADERSTYLE
  5
2C
102
{ACAD_REACTORS
330
F
102
}
330
F
100
AcDbMLeaderStyle
179
2
170
2
171
1
172
0
 90
2
 40
0.0
 41
0.0
173
1
 91
-1056964608
 92
-2
290
1
 42
2.0
291
1
 43
8.0
  3
Standard
 44
4.0
300

342
29
174
1
175
1
176
0
178
1
 93
-1056964608
 45
4.0
292
0
297
0
 46
4.0
 94
-1056964608
 47
1.0
 49
1.0
140
1.0
294
1
141
0.0
177
0
142
1.0
295
0
296
0
143
3.75
271
0
272
9
273
9
  0
DICTIONARY
  5
2D
330
A
100
AcDbDictionary
281
1
  3
CREATED_BY_EZDXF
350
2E
  3
WRITTEN_BY_EZDXF
350
477
  0
DICTIONARYVAR
  5
2E
330
2D
100
DictionaryVariables
280
0
  1
1.0.2 @ 2023-11-27T08:45:34.044605+00:00
  0
DICTIONARYVAR
  5
477
330
2D
100
DictionaryVariables
280
0
  1
1.0.2 @ 2023-11-27T08:45:34.075399+00:00
  0
ENDSEC
  0
EOF
