  0
SECTION
  2
HEADER
  9
$ACADVER
  1
AC1027
  9
$ACADMAINTVER
 70
105
  9
$DWGCODEPAGE
  3
ANSI_1252
  9
$LASTSAVEDBY
  1
ezdxf
  9
$REQUIREDVERSIONS
160
0
  9
$INSBASE
 10
0.0
 20
0.0
 30
0.0
  9
$EXTMIN
 10
1e+20
 20
1e+20
 30
1e+20
  9
$EXTMAX
 10
-1e+20
 20
-1e+20
 30
-1e+20
  9
$LIMMIN
 10
0.0
 20
0.0
  9
$LIMMAX
 10
420.0
 20
297.0
  9
$ORTHOMODE
 70
0
  9
$REGENMODE
 70
1
  9
$FILLMODE
 70
1
  9
$QTEXTMODE
 70
0
  9
$MIRRTEXT
 70
1
  9
$LTSCALE
 40
1.0
  9
$ATTMODE
 70
1
  9
$TEXTSIZE
 40
2.5
  9
$TRACEWID
 40
1.0
  9
$TEXTSTYLE
  7
Standard
  9
$CLAYER
  8
0
  9
$CELTYPE
  6
ByLayer
  9
$CECOLOR
 62
256
  9
$CELTSCALE
 40
1.0
  9
$DISPSILH
 70
0
  9
$DIMSCALE
 40
1.0
  9
$DIMASZ
 40
2.5
  9
$DIMEXO
 40
0.625
  9
$DIMDLI
 40
3.75
  9
$DIMRND
 40
0.0
  9
$DIMDLE
 40
0.0
  9
$DIMEXE
 40
1.25
  9
$DIMTP
 40
0.0
  9
$DIMTM
 40
0.0
  9
$DIMTXT
 40
2.5
  9
$DIMCEN
 40
2.5
  9
$DIMTSZ
 40
0.0
  9
$DIMTOL
 70
0
  9
$DIMLIM
 70
0
  9
$DIMTIH
 70
0
  9
$DIMTOH
 70
0
  9
$DIMSE1
 70
0
  9
$DIMSE2
 70
0
  9
$DIMTAD
 70
1
  9
$DIMZIN
 70
8
  9
$DIMBLK
  1

  9
$DIMASO
 70
1
  9
$DIMSHO
 70
1
  9
$DIMPOST
  1

  9
$DIMAPOST
  1

  9
$DIMALT
 70
0
  9
$DIMALTD
 70
3
  9
$DIMALTF
 40
0.03937007874
  9
$DIMLFAC
 40
1.0
  9
$DIMTOFL
 70
1
  9
$DIMTVP
 40
0.0
  9
$DIMTIX
 70
0
  9
$DIMSOXD
 70
0
  9
$DIMSAH
 70
0
  9
$DIMBLK1
  1

  9
$DIMBLK2
  1

  9
$DIMSTYLE
  2
ISO-25
  9
$DIMCLRD
 70
0
  9
$DIMCLRE
 70
0
  9
$DIMCLRT
 70
0
  9
$DIMTFAC
 40
1.0
  9
$DIMGAP
 40
0.625
  9
$DIMJUST
 70
0
  9
$DIMSD1
 70
0
  9
$DIMSD2
 70
0
  9
$DIMTOLJ
 70
0
  9
$DIMTZIN
 70
8
  9
$DIMALTZ
 70
0
  9
$DIMALTTZ
 70
0
  9
$DIMUPT
 70
0
  9
$DIMDEC
 70
2
  9
$DIMTDEC
 70
2
  9
$DIMALTU
 70
2
  9
$DIMALTTD
 70
3
  9
$DIMTXSTY
  7
Standard
  9
$DIMAUNIT
 70
0
  9
$DIMADEC
 70
0
  9
$DIMALTRND
 40
0.0
  9
$DIMAZIN
 70
0
  9
$DIMDSEP
 70
44
  9
$DIMATFIT
 70
3
  9
$DIMFRAC
 70
0
  9
$DIMLDRBLK
  1

  9
$DIMLUNIT
 70
2
  9
$DIMLWD
 70
-2
  9
$DIMLWE
 70
-2
  9
$DIMTMOVE
 70
0
  9
$DIMFXL
 40
1.0
  9
$DIMFXLON
 70
0
  9
$DIMJOGANG
 40
0.785398163397
  9
$DIMTFILL
 70
0
  9
$DIMTFILLCLR
 70
0
  9
$DIMARCSYM
 70
0
  9
$DIMLTYPE
  6

  9
$DIMLTEX1
  6

  9
$DIMLTEX2
  6

  9
$DIMTXTDIRECTION
 70
0
  9
$LUNITS
 70
2
  9
$LUPREC
 70
4
  9
$SKETCHINC
 40
1.0
  9
$FILLETRAD
 40
10.0
  9
$AUNITS
 70
0
  9
$AUPREC
 70
2
  9
$MENU
  1
.
  9
$ELEVATION
 40
0.0
  9
$PELEVATION
 40
0.0
  9
$THICKNESS
 40
0.0
  9
$LIMCHECK
 70
0
  9
$CHAMFERA
 40
0.0
  9
$CHAMFERB
 40
0.0
  9
$CHAMFERC
 40
0.0
  9
$CHAMFERD
 40
0.0
  9
$SKPOLY
 70
0
  9
$TDCREATE
 40
2460276.0316319442
  9
$TDUCREATE
 40
2458532.153996898
  9
$TDUPDATE
 40
2460276.0316319442
  9
$TDUUPDATE
 40
2458532.1544311
  9
$TDINDWG
 40
0.0
  9
$TDUSRTIMER
 40
0.0
  9
$USRTIMER
 70
1
  9
$ANGBASE
 50
0.0
  9
$ANGDIR
 70
0
  9
$PDMODE
 70
0
  9
$PDSIZE
 40
0.0
  9
$PLINEWID
 40
0.0
  9
$SPLFRAME
 70
0
  9
$SPLINETYPE
 70
6
  9
$SPLINESEGS
 70
8
  9
$HANDSEED
  5
3B4
  9
$SURFTAB1
 70
6
  9
$SURFTAB2
 70
6
  9
$SURFTYPE
 70
6
  9
$SURFU
 70
6
  9
$SURFV
 70
6
  9
$UCSBASE
  2

  9
$UCSNAME
  2

  9
$UCSORG
 10
0.0
 20
0.0
 30
0.0
  9
$UCSXDIR
 10
1.0
 20
0.0
 30
0.0
  9
$UCSYDIR
 10
0.0
 20
1.0
 30
0.0
  9
$UCSORTHOREF
  2

  9
$UCSORTHOVIEW
 70
0
  9
$UCSORGTOP
 10
0.0
 20
0.0
 30
0.0
  9
$UCSORGBOTTOM
 10
0.0
 20
0.0
 30
0.0
  9
$UCSORGLEFT
 10
0.0
 20
0.0
 30
0.0
  9
$UCSORGRIGHT
 10
0.0
 20
0.0
 30
0.0
  9
$UCSORGFRONT
 10
0.0
 20
0.0
 30
0.0
  9
$UCSORGBACK
 10
0.0
 20
0.0
 30
0.0
  9
$PUCSBASE
  2

  9
$PUCSNAME
  2

  9
$PUCSORG
 10
0.0
 20
0.0
 30
0.0
  9
$PUCSXDIR
 10
1.0
 20
0.0
 30
0.0
  9
$PUCSYDIR
 10
0.0
 20
1.0
 30
0.0
  9
$PUCSORTHOREF
  2

  9
$PUCSORTHOVIEW
 70
0
  9
$PUCSORGTOP
 10
0.0
 20
0.0
 30
0.0
  9
$PUCSORGBOTTOM
 10
0.0
 20
0.0
 30
0.0
  9
$PUCSORGLEFT
 10
0.0
 20
0.0
 30
0.0
  9
$PUCSORGRIGHT
 10
0.0
 20
0.0
 30
0.0
  9
$PUCSORGFRONT
 10
0.0
 20
0.0
 30
0.0
  9
$PUCSORGBACK
 10
0.0
 20
0.0
 30
0.0
  9
$USERI1
 70
0
  9
$USERI2
 70
0
  9
$USERI3
 70
0
  9
$USERI4
 70
0
  9
$USERI5
 70
0
  9
$USERR1
 40
0.0
  9
$USERR2
 40
0.0
  9
$USERR3
 40
0.0
  9
$USERR4
 40
0.0
  9
$USERR5
 40
0.0
  9
$WORLDVIEW
 70
1
  9
$SHADEDGE
 70
3
  9
$SHADEDIF
 70
70
  9
$TILEMODE
 70
1
  9
$MAXACTVP
 70
64
  9
$PINSBASE
 10
0.0
 20
0.0
 30
0.0
  9
$PLIMCHECK
 70
0
  9
$PEXTMIN
 10
1e+20
 20
1e+20
 30
1e+20
  9
$PEXTMAX
 10
-1e+20
 20
-1e+20
 30
-1e+20
  9
$PLIMMIN
 10
0.0
 20
0.0
  9
$PLIMMAX
 10
420.0
 20
297.0
  9
$UNITMODE
 70
0
  9
$VISRETAIN
 70
1
  9
$PLINEGEN
 70
0
  9
$PSLTSCALE
 70
1
  9
$TREEDEPTH
 70
3020
  9
$CMLSTYLE
  2
Standard
  9
$CMLJUST
 70
0
  9
$CMLSCALE
 40
20.0
  9
$PROXYGRAPHICS
 70
1
  9
$MEASUREMENT
 70
1
  9
$CELWEIGHT
370
-1
  9
$ENDCAPS
280
0
  9
$JOINSTYLE
280
0
  9
$LWDISPLAY
290
0
  9
$INSUNITS
 70
6
  9
$HYPERLINKBASE
  1

  9
$STYLESHEET
  1

  9
$XEDIT
290
1
  9
$CEPSNTYPE
380
0
  9
$PSTYLEMODE
290
1
  9
$FINGERPRINTGUID
  2
{5416FE57-3136-450E-97A7-7AC140CDFD1D}
  9
$VERSIONGUID
  2
{9DD55F08-B7F7-4D29-9A6D-7DC4820BDB54}
  9
$EXTNAMES
290
1
  9
$PSVPSCALE
 40
0.0
  9
$OLESTARTUP
290
0
  9
$SORTENTS
280
127
  9
$INDEXCTL
280
0
  9
$HIDETEXT
280
1
  9
$XCLIPFRAME
280
0
  9
$HALOGAP
280
0
  9
$OBSCOLOR
 70
257
  9
$OBSLTYPE
280
0
  9
$INTERSECTIONDISPLAY
280
0
  9
$INTERSECTIONCOLOR
 70
257
  9
$DIMASSOC
280
2
  9
$PROJECTNAME
  1

  9
$CAMERADISPLAY
290
0
  9
$LENSLENGTH
 40
50.0
  9
$CAMERAHEIGHT
 40
0.0
  9
$STEPSPERSEC
 40
24.0
  9
$STEPSIZE
 40
100.0
  9
$3DDWFPREC
 40
2.0
  9
$PSOLWIDTH
 40
0.005
  9
$PSOLHEIGHT
 40
0.08
  9
$LOFTANG1
 40
1.570796326795
  9
$LOFTANG2
 40
1.570796326795
  9
$LOFTMAG1
 40
0.0
  9
$LOFTMAG2
 40
0.0
  9
$LOFTPARAM
 70
7
  9
$LOFTNORMALS
280
1
  9
$LATITUDE
 40
37.795
  9
$LONGITUDE
 40
-122.394
  9
$NORTHDIRECTION
 40
0.0
  9
$TIMEZONE
 70
-8000
  9
$LIGHTGLYPHDISPLAY
280
1
  9
$TILEMODELIGHTSYNCH
280
1
  9
$CMATERIAL
347
20
  9
$SOLIDHIST
280
0
  9
$SHOWHIST
280
1
  9
$DWFFRAME
280
2
  9
$DGNFRAME
280
2
  9
$REALWORLDSCALE
290
1
  9
$INTERFERECOLOR
 62
256
  9
$CSHADOW
280
0
  9
$SHADOWPLANELOCATION
 40
0.0
  0
ENDSEC
  0
SECTION
  2
CLASSES
  0
CLASS
  1
ACDBDICTIONARYWDFLT
  2
AcDbDictionaryWithDefault
  3
ObjectDBX Classes
 90
0
 91
0
280
0
281
0
  0
CLASS
  1
SUN
  2
AcDbSun
  3
SCENEOE
 90
1153
 91
0
280
0
281
0
  0
CLASS
  1
VISUALSTYLE
  2
AcDbVisualStyle
  3
ObjectDBX Classes
 90
4095
 91
0
280
0
281
0
  0
CLASS
  1
MATERIAL
  2
AcDbMaterial
  3
ObjectDBX Classes
 90
1153
 91
0
280
0
281
0
  0
CLASS
  1
SCALE
  2
AcDbScale
  3
ObjectDBX Classes
 90
1153
 91
0
280
0
281
0
  0
CLASS
  1
TABLESTYLE
  2
AcDbTableStyle
  3
ObjectDBX Classes
 90
4095
 91
0
280
0
281
0
  0
CLASS
  1
MLEADERSTYLE
  2
AcDbMLeaderStyle
  3
ACDB_MLEADERSTYLE_CLASS
 90
4095
 91
0
280
0
281
0
  0
CLASS
  1
DICTIONARYVAR
  2
AcDbDictionaryVar
  3
ObjectDBX Classes
 90
0
 91
0
280
0
281
0
  0
CLASS
  1
CELLSTYLEMAP
  2
AcDbCellStyleMap
  3
ObjectDBX Classes
 90
1152
 91
0
280
0
281
0
  0
CLASS
  1
MENTALRAYRENDERSETTINGS
  2
AcDbMentalRayRenderSettings
  3
SCENEOE
 90
1024
 91
0
280
0
281
0
  0
CLASS
  1
ACDBDETAILVIEWSTYLE
  2
AcDbDetailViewStyle
  3
ObjectDBX Classes
 90
1025
 91
0
280
0
281
0
  0
CLASS
  1
ACDBSECTIONVIEWSTYLE
  2
AcDbSectionViewStyle
  3
ObjectDBX Classes
 90
1025
 91
0
280
0
281
0
  0
CLASS
  1
RASTERVARIABLES
  2
AcDbRasterVariables
  3
ISM
 90
0
 91
0
280
0
281
0
  0
CLASS
  1
ACDBPLACEHOLDER
  2
AcDbPlaceHolder
  3
ObjectDBX Classes
 90
0
 91
0
280
0
281
0
  0
CLASS
  1
LAYOUT
  2
AcDbLayout
  3
ObjectDBX Classes
 90
0
 91
0
280
0
281
0
  0
ENDSEC
  0
SECTION
  2
TABLES
  0
TABLE
  2
VPORT
  5
8
330
0
100
AcDbSymbolTable
 70
1
  0
VPORT
  5
23
330
8
100
AcDbSymbolTableRecord
100
AcDbViewportTableRecord
  2
*Active
 70
0
 10
0.0
 20
0.0
 11
1.0
 21
1.0
 12
0.0
 22
0.0
 13
0.0
 23
0.0
 14
0.5
 24
0.5
 15
0.5
 25
0.5
 16
0.0
 26
0.0
 36
1.0
 17
0.0
 27
0.0
 37
0.0
 40
1000.0
 41
1.34
 42
50.0
 43
0.0
 44
0.0
 50
0.0
 51
0.0
 71
0
 72
1000
 73
1
 74
3
 75
0
 76
0
 77
0
 78
0
281
0
 65
0
146
0.0
  0
ENDTAB
  0
TABLE
  2
LTYPE
  5
2
330
0
100
AcDbSymbolTable
 70
3
  0
LTYPE
  5
24
330
2
100
AcDbSymbolTableRecord
100
AcDbLinetypeTableRecord
  2
ByBlock
 70
0
  3

 72
65
 73
0
 40
0.0
  0
LTYPE
  5
25
330
2
100
AcDbSymbolTableRecord
100
AcDbLinetypeTableRecord
  2
ByLayer
 70
0
  3

 72
65
 73
0
 40
0.0
  0
LTYPE
  5
26
330
2
100
AcDbSymbolTableRecord
100
AcDbLinetypeTableRecord
  2
Continuous
 70
0
  3

 72
65
 73
0
 40
0.0
  0
ENDTAB
  0
TABLE
  2
LAYER
  5
1
330
0
100
AcDbSymbolTable
 70
2
  0
LAYER
  5
27
330
1
100
AcDbSymbolTableRecord
100
AcDbLayerTableRecord
  2
0
 70
0
 62
7
  6
Continuous
370
-3
390
13
347
21
  0
LAYER
  5
28
330
1
100
AcDbSymbolTableRecord
100
AcDbLayerTableRecord
  2
Defpoints
 70
0
 62
7
  6
Continuous
290
0
370
-3
390
13
347
21
  0
ENDTAB
  0
TABLE
  2
STYLE
  5
5
330
0
100
AcDbSymbolTable
 70
1
  0
STYLE
  5
29
330
5
100
AcDbSymbolTableRecord
100
AcDbTextStyleTableRecord
  2
Standard
 70
0
 40
0.0
 41
1.0
 50
0.0
 71
0
 42
2.5
  3
txt
  4

  0
ENDTAB
  0
TABLE
  2
VIEW
  5
7
330
0
100
AcDbSymbolTable
 70
0
  0
ENDTAB
  0
TABLE
  2
UCS
  5
6
330
0
100
AcDbSymbolTable
 70
0
  0
ENDTAB
  0
TABLE
  2
APPID
  5
3
330
0
100
AcDbSymbolTable
 70
3
  0
APPID
  5
2A
330
3
100
AcDbSymbolTableRecord
100
AcDbRegAppTableRecord
  2
ACAD
 70
0
  0
APPID
  5
3B1
330
3
100
AcDbSymbolTableRecord
100
AcDbRegAppTableRecord
  2
HATCHBACKGROUNDCOLOR
 70
0
  0
APPID
  5
3B2
330
3
100
AcDbSymbolTableRecord
100
AcDbRegAppTableRecord
  2
EZDXF
 70
0
  0
ENDTAB
  0
TABLE
  2
DIMSTYLE
  5
4
330
0
100
AcDbSymbolTable
 70
1
100
AcDbDimStyleTable
  0
DIMSTYLE
105
2B
330
4
100
AcDbSymbolTableRecord
100
AcDbDimStyleTableRecord
  2
Standard
 70
0
 40
1.0
 41
2.5
 42
0.625
 43
3.75
 44
1.25
 45
0.0
 46
0.0
 47
0.0
 48
0.0
 49
2.5
140
2.5
141
2.5
142
0.0
143
0.03937007874
144
1.0
145
0.0
146
1.0
147
0.625
148
0.0
 69
0
 70
0
 71
0
 72
0
 73
0
 74
0
 75
0
 76
0
 77
1
 78
8
 79
3
170
0
171
3
172
1
173
0
174
0
175
0
176
0
177
0
178
0
179
2
271
2
272
2
273
2
274
3
275
0
276
0
277
2
278
44
279
0
280
0
281
0
282
0
283
0
284
8
285
0
286
0
288
0
289
3
290
0
371
-2
372
-2
  0
ENDTAB
  0
TABLE
  2
BLOCK_RECORD
  5
9
330
0
100
AcDbSymbolTable
 70
2
  0
BLOCK_RECORD
  5
17
330
9
100
AcDbSymbolTableRecord
100
AcDbBlockTableRecord
  2
*Model_Space
340
1A
 70
0
280
1
281
0
  0
BLOCK_RECORD
  5
1B
330
9
100
AcDbSymbolTableRecord
100
AcDbBlockTableRecord
  2
*Paper_Space
340
1E
 70
0
280
1
281
0
  0
ENDTAB
  0
ENDSEC
  0
SECTION
  2
BLOCKS
  0
BLOCK
  5
18
330
17
100
AcDbEntity
  8
0
100
AcDbBlockBegin
  2
*Model_Space
 70
0
 10
0.0
 20
0.0
 30
0.0
  3
*Model_Space
  1

  0
ENDBLK
  5
19
330
17
100
AcDbEntity
  8
0
100
AcDbBlockEnd
  0
BLOCK
  5
1C
330
1B
100
AcDbEntity
  8
0
100
AcDbBlockBegin
  2
*Paper_Space
 70
0
 10
0.0
 20
0.0
 30
0.0
  3
*Paper_Space
  1

  0
ENDBLK
  5
1D
330
1B
100
AcDbEntity
  8
0
100
AcDbBlockEnd
  0
ENDSEC
  0
SECTION
  2
ENTITIES
  0
LINE
  5
2F
330
17
100
AcDbEntity
  8
0
100
AcDbLine
 10
861.8375438053082
 20
-5.48334687246197
 30
0.0
 11
860.1771248083213
 21
-3.0000000000024216
 31
0.0
  0
LINE
  5
30
330
17
100
AcDbEntity
  8
0
100
AcDbLine
 10
881.1132838084495
 20
-31.118559442431504
 30
0.0
 11
880.8694199647742
 21
-30.93149609834045
 31
0.0
  0
LINE
  5
31
330
17
100
AcDbEntity
  8
0
100
AcDbLine
 10
880.8694199647742
 20
-30.93149609834045
 30
0.0
 11
880.6284818718163
 21
-30.738895713992655
 31
0.0
  0
LINE
  5
32
330
17
100
AcDbEntity
  8
0
100
AcDbLine
 10
880.6284818718163
 20
-30.738895713992655
 30
0.0
 11
880.3906363791883
 21
-30.540486025932513
 31
0.0
  0
LINE
  5
33
330
17
100
AcDbEntity
  8
0
100
AcDbLine
 10
880.3906363791883
 20
-30.540486025932513
 30
0.0
 11
880.1558134532967
 21
-30.336502708812983
 31
0.0
  0
LINE
  5
34
330
17
100
AcDbEntity
  8
0
100
AcDbLine
 10
880.1558134532967
 20
-30.336502708812983
 30
0.0
 11
879.9239063934237
 21
-30.12726006096469
 31
0.0
  0
LINE
  5
35
330
17
100
AcDbEntity
  8
0
100
AcDbLine
 10
879.9239063934237
 20
-30.12726006096469
 30
0.0
 11
879.6948084988528
 21
-29.913072380718255
 31
0.0
  0
LINE
  5
36
330
17
100
AcDbEntity
  8
0
100
AcDbLine
 10
879.6948084988528
 20
-29.913072380718255
 30
0.0
 11
879.4684130688665
 21
-29.6942539664043
 31
0.0
  0
LINE
  5
37
330
17
100
AcDbEntity
  8
0
100
AcDbLine
 10
879.4684130688665
 20
-29.6942539664043
 30
0.0
 11
879.244613402748
 21
-29.471119116353442
 31
0.0
  0
LINE
  5
38
330
17
100
AcDbEntity
  8
0
100
AcDbLine
 10
879.244613402748
 20
-29.471119116353442
 30
0.0
 11
879.02330279978
 21
-29.243982128896306
 31
0.0
  0
LINE
  5
39
330
17
100
AcDbEntity
  8
0
100
AcDbLine
 10
879.02330279978
 20
-29.243982128896306
 30
0.0
 11
878.8043745592458
 21
-29.01315730236351
 31
0.0
  0
LINE
  5
3A
330
17
100
AcDbEntity
  8
0
100
AcDbLine
 10
878.8043745592458
 20
-29.01315730236351
 30
0.0
 11
878.5877219804281
 21
-28.778958935085676
 31
0.0
  0
LINE
  5
3B
330
17
100
AcDbEntity
  8
0
100
AcDbLine
 10
878.5877219804281
 20
-28.778958935085676
 30
0.0
 11
878.3732383626099
 21
-28.541701325393426
 31
0.0
  0
LINE
  5
3C
330
17
100
AcDbEntity
  8
0
100
AcDbLine
 10
878.3732383626099
 20
-28.541701325393426
 30
0.0
 11
878.1608170050738
 21
-28.30169877161738
 31
0.0
  0
LINE
  5
3D
330
17
100
AcDbEntity
  8
0
100
AcDbLine
 10
878.1608170050738
 20
-28.30169877161738
 30
0.0
 11
877.9503512071032
 21
-28.05926557208816
 31
0.0
  0
LINE
  5
3E
330
17
100
AcDbEntity
  8
0
100
AcDbLine
 10
877.9503512071032
 20
-28.05926557208816
 30
0.0
 11
877.7417355172722
 21
-27.81470254111765
 31
0.0
  0
LINE
  5
3F
330
17
100
AcDbEntity
  8
0
100
AcDbLine
 10
877.7417355172722
 20
-27.81470254111765
 30
0.0
 11
877.534876567186
 21
-27.56818007683955
 31
0.0
  0
LINE
  5
40
330
17
100
AcDbEntity
  8
0
100
AcDbLine
 10
877.534876567186
 20
-27.56818007683955
 30
0.0
 11
877.3296877627744
 21
-27.319795459835305
 31
0.0
  0
LINE
  5
41
330
17
100
AcDbEntity
  8
0
100
AcDbLine
 10
877.3296877627744
 20
-27.319795459835305
 30
0.0
 11
877.1260825847409
 21
-27.069645163633158
 31
0.0
  0
LINE
  5
42
330
17
100
AcDbEntity
  8
0
100
AcDbLine
 10
877.1260825847409
 20
-27.069645163633158
 30
0.0
 11
876.9239745137894
 21
-26.817825661761347
 31
0.0
  0
LINE
  5
43
330
17
100
AcDbEntity
  8
0
100
AcDbLine
 10
876.9239745137894
 20
-26.817825661761347
 30
0.0
 11
876.7232770306233
 21
-26.56443342774811
 31
0.0
  0
LINE
  5
44
330
17
100
AcDbEntity
  8
0
100
AcDbLine
 10
876.7232770306233
 20
-26.56443342774811
 30
0.0
 11
876.5239036159462
 21
-26.309564935121685
 31
0.0
  0
LINE
  5
45
330
17
100
AcDbEntity
  8
0
100
AcDbLine
 10
876.5239036159462
 20
-26.309564935121685
 30
0.0
 11
876.3257677504616
 21
-26.053316657410313
 31
0.0
  0
LINE
  5
46
330
17
100
AcDbEntity
  8
0
100
AcDbLine
 10
876.3257677504616
 20
-26.053316657410313
 30
0.0
 11
876.128782914873
 21
-25.795785068142237
 31
0.0
  0
LINE
  5
47
330
17
100
AcDbEntity
  8
0
100
AcDbLine
 10
876.128782914873
 20
-25.795785068142237
 30
0.0
 11
875.9328625898842
 21
-25.537066640845694
 31
0.0
  0
LINE
  5
48
330
17
100
AcDbEntity
  8
0
100
AcDbLine
 10
875.9328625898842
 20
-25.537066640845694
 30
0.0
 11
875.7379202561985
 21
-25.27725784904892
 31
0.0
  0
LINE
  5
49
330
17
100
AcDbEntity
  8
0
100
AcDbLine
 10
875.7379202561985
 20
-25.27725784904892
 30
0.0
 11
875.5438693945193
 21
-25.016455166280156
 31
0.0
  0
LINE
  5
4A
330
17
100
AcDbEntity
  8
0
100
AcDbLine
 10
875.5438693945193
 20
-25.016455166280156
 30
0.0
 11
875.3506234855505
 21
-24.75475506606765
 31
0.0
  0
LINE
  5
4B
330
17
100
AcDbEntity
  8
0
100
AcDbLine
 10
875.3506234855505
 20
-24.75475506606765
 30
0.0
 11
875.1580960099956
 21
-24.492254021939623
 31
0.0
  0
LINE
  5
4C
330
17
100
AcDbEntity
  8
0
100
AcDbLine
 10
875.1580960099956
 20
-24.492254021939623
 30
0.0
 11
874.9662004485577
 21
-24.22904850742433
 31
0.0
  0
LINE
  5
4D
330
17
100
AcDbEntity
  8
0
100
AcDbLine
 10
874.9662004485577
 20
-24.22904850742433
 30
0.0
 11
874.7748502819411
 21
-23.965234996050008
 31
0.0
  0
LINE
  5
4E
330
17
100
AcDbEntity
  8
0
100
AcDbLine
 10
874.7748502819411
 20
-23.965234996050008
 30
0.0
 11
874.5839589908485
 21
-23.70090996134489
 31
0.0
  0
LINE
  5
4F
330
17
100
AcDbEntity
  8
0
100
AcDbLine
 10
874.5839589908485
 20
-23.70090996134489
 30
0.0
 11
874.3934400559843
 21
-23.43616987683722
 31
0.0
  0
LINE
  5
50
330
17
100
AcDbEntity
  8
0
100
AcDbLine
 10
874.3934400559843
 20
-23.43616987683722
 30
0.0
 11
874.2032069580514
 21
-23.171111216055237
 31
0.0
  0
LINE
  5
51
330
17
100
AcDbEntity
  8
0
100
AcDbLine
 10
874.2032069580514
 20
-23.171111216055237
 30
0.0
 11
874.0131731777534
 21
-22.90583045252718
 31
0.0
  0
LINE
  5
52
330
17
100
AcDbEntity
  8
0
100
AcDbLine
 10
874.0131731777534
 20
-22.90583045252718
 30
0.0
 11
873.8232521957942
 21
-22.64042405978129
 31
0.0
  0
LINE
  5
53
330
17
100
AcDbEntity
  8
0
100
AcDbLine
 10
873.8232521957942
 20
-22.64042405978129
 30
0.0
 11
873.6333574928772
 21
-22.3749885113458
 31
0.0
  0
LINE
  5
54
330
17
100
AcDbEntity
  8
0
100
AcDbLine
 10
873.6333574928772
 20
-22.3749885113458
 30
0.0
 11
873.4434025497059
 21
-22.109620280748956
 31
0.0
  0
LINE
  5
55
330
17
100
AcDbEntity
  8
0
100
AcDbLine
 10
873.4434025497059
 20
-22.109620280748956
 30
0.0
 11
873.2533030416406
 21
-21.84441340516647
 31
0.0
  0
LINE
  5
56
330
17
100
AcDbEntity
  8
0
100
AcDbLine
 10
873.2533030416406
 20
-21.84441340516647
 30
0.0
 11
873.0630251934514
 21
-21.579405805409042
 31
0.0
  0
LINE
  5
57
330
17
100
AcDbEntity
  8
0
100
AcDbLine
 10
873.0630251934514
 20
-21.579405805409042
 30
0.0
 11
872.8725858195121
 21
-21.314579241298976
 31
0.0
  0
LINE
  5
58
330
17
100
AcDbEntity
  8
0
100
AcDbLine
 10
872.8725858195121
 20
-21.314579241298976
 30
0.0
 11
872.6820039368937
 21
-21.04991302738136
 31
0.0
  0
LINE
  5
59
330
17
100
AcDbEntity
  8
0
100
AcDbLine
 10
872.6820039368937
 20
-21.04991302738136
 30
0.0
 11
872.4912985626671
 21
-20.785386478201296
 31
0.0
  0
LINE
  5
5A
330
17
100
AcDbEntity
  8
0
100
AcDbLine
 10
872.4912985626671
 20
-20.785386478201296
 30
0.0
 11
872.3004887139033
 21
-20.520978908303878
 31
0.0
  0
LINE
  5
5B
330
17
100
AcDbEntity
  8
0
100
AcDbLine
 10
872.3004887139033
 20
-20.520978908303878
 30
0.0
 11
872.1095934076731
 21
-20.2566696322342
 31
0.0
  0
LINE
  5
5C
330
17
100
AcDbEntity
  8
0
100
AcDbLine
 10
872.1095934076731
 20
-20.2566696322342
 30
0.0
 11
871.9186316610472
 21
-19.992437964537356
 31
0.0
  0
LINE
  5
5D
330
17
100
AcDbEntity
  8
0
100
AcDbLine
 10
871.9186316610472
 20
-19.992437964537356
 30
0.0
 11
871.7276224910968
 21
-19.728263219758436
 31
0.0
  0
LINE
  5
5E
330
17
100
AcDbEntity
  8
0
100
AcDbLine
 10
871.7276224910968
 20
-19.728263219758436
 30
0.0
 11
871.5365849148926
 21
-19.46412471244254
 31
0.0
  0
LINE
  5
5F
330
17
100
AcDbEntity
  8
0
100
AcDbLine
 10
871.5365849148926
 20
-19.46412471244254
 30
0.0
 11
871.3455379495055
 21
-19.200001757134764
 31
0.0
  0
LINE
  5
60
330
17
100
AcDbEntity
  8
0
100
AcDbLine
 10
871.3455379495055
 20
-19.200001757134764
 30
0.0
 11
871.1545006120064
 21
-18.9358736683802
 31
0.0
  0
LINE
  5
61
330
17
100
AcDbEntity
  8
0
100
AcDbLine
 10
871.1545006120064
 20
-18.9358736683802
 30
0.0
 11
870.963491919466
 21
-18.67171976072394
 31
0.0
  0
LINE
  5
62
330
17
100
AcDbEntity
  8
0
100
AcDbLine
 10
870.963491919466
 20
-18.67171976072394
 30
0.0
 11
870.7725308889554
 21
-18.407519348711084
 31
0.0
  0
LINE
  5
63
330
17
100
AcDbEntity
  8
0
100
AcDbLine
 10
870.7725308889554
 20
-18.407519348711084
 30
0.0
 11
870.5816365375456
 21
-18.14325174688672
 31
0.0
  0
LINE
  5
64
330
17
100
AcDbEntity
  8
0
100
AcDbLine
 10
870.5816365375456
 20
-18.14325174688672
 30
0.0
 11
870.3908278823071
 21
-17.878896269795945
 31
0.0
  0
LINE
  5
65
330
17
100
AcDbEntity
  8
0
100
AcDbLine
 10
870.3908278823071
 20
-17.878896269795945
 30
0.0
 11
870.200123940311
 21
-17.614432231983855
 31
0.0
  0
LINE
  5
66
330
17
100
AcDbEntity
  8
0
100
AcDbLine
 10
870.200123940311
 20
-17.614432231983855
 30
0.0
 11
870.0095437286282
 21
-17.349838947995547
 31
0.0
  0
LINE
  5
67
330
17
100
AcDbEntity
  8
0
100
AcDbLine
 10
870.0095437286282
 20
-17.349838947995547
 30
0.0
 11
869.8191062643293
 21
-17.08509573237611
 31
0.0
  0
LINE
  5
68
330
17
100
AcDbEntity
  8
0
100
AcDbLine
 10
869.8191062643293
 20
-17.08509573237611
 30
0.0
 11
869.6288305644856
 21
-16.82018189967064
 31
0.0
  0
LINE
  5
69
330
17
100
AcDbEntity
  8
0
100
AcDbLine
 10
869.6288305644856
 20
-16.82018189967064
 30
0.0
 11
869.4387356461679
 21
-16.555076764424236
 31
0.0
  0
LINE
  5
6A
330
17
100
AcDbEntity
  8
0
100
AcDbLine
 10
869.4387356461679
 20
-16.555076764424236
 30
0.0
 11
869.2488405264468
 21
-16.289759641181988
 31
0.0
  0
LINE
  5
6B
330
17
100
AcDbEntity
  8
0
100
AcDbLine
 10
869.2488405264468
 20
-16.289759641181988
 30
0.0
 11
869.0591642223934
 21
-16.02420984448899
 31
0.0
  0
LINE
  5
6C
330
17
100
AcDbEntity
  8
0
100
AcDbLine
 10
869.0591642223934
 20
-16.02420984448899
 30
0.0
 11
868.8697257510784
 21
-15.75840668889034
 31
0.0
  0
LINE
  5
6D
330
17
100
AcDbEntity
  8
0
100
AcDbLine
 10
868.8697257510784
 20
-15.75840668889034
 30
0.0
 11
868.6805441295729
 21
-15.492329488931123
 31
0.0
  0
LINE
  5
6E
330
17
100
AcDbEntity
  8
0
100
AcDbLine
 10
868.6805441295729
 20
-15.492329488931123
 30
0.0
 11
868.4916383749477
 21
-15.225957559156448
 31
0.0
  0
LINE
  5
6F
330
17
100
AcDbEntity
  8
0
100
AcDbLine
 10
868.4916383749477
 20
-15.225957559156448
 30
0.0
 11
868.3030275042736
 21
-14.959270214111406
 31
0.0
  0
LINE
  5
70
330
17
100
AcDbEntity
  8
0
100
AcDbLine
 10
868.3030275042736
 20
-14.959270214111406
 30
0.0
 11
868.1147290131049
 21
-14.692248443881702
 31
0.0
  0
LINE
  5
71
330
17
100
AcDbEntity
  8
0
100
AcDbLine
 10
868.1147290131049
 20
-14.692248443881702
 30
0.0
 11
867.9267427618225
 21
-14.424892658947849
 31
0.0
  0
LINE
  5
72
330
17
100
AcDbEntity
  8
0
100
AcDbLine
 10
867.9267427618225
 20
-14.424892658947849
 30
0.0
 11
867.7390572581331
 21
-14.157215771702734
 31
0.0
  0
LINE
  5
73
330
17
100
AcDbEntity
  8
0
100
AcDbLine
 10
867.7390572581331
 20
-14.157215771702734
 30
0.0
 11
867.5516608216464
 21
-13.889230901678038
 31
0.0
  0
LINE
  5
74
330
17
100
AcDbEntity
  8
0
100
AcDbLine
 10
867.5516608216464
 20
-13.889230901678038
 30
0.0
 11
867.3645417719716
 21
-13.620951168405432
 31
0.0
  0
LINE
  5
75
330
17
100
AcDbEntity
  8
0
100
AcDbLine
 10
867.3645417719716
 20
-13.620951168405432
 30
0.0
 11
867.1776884287186
 21
-13.352389691416585
 31
0.0
  0
LINE
  5
76
330
17
100
AcDbEntity
  8
0
100
AcDbLine
 10
867.1776884287186
 20
-13.352389691416585
 30
0.0
 11
866.9910891114965
 21
-13.083559590243171
 31
0.0
  0
LINE
  5
77
330
17
100
AcDbEntity
  8
0
100
AcDbLine
 10
866.9910891114965
 20
-13.083559590243171
 30
0.0
 11
866.8047321399154
 21
-12.814473984416857
 31
0.0
  0
LINE
  5
78
330
17
100
AcDbEntity
  8
0
100
AcDbLine
 10
866.8047321399154
 20
-12.814473984416857
 30
0.0
 11
866.6186058335842
 21
-12.545145993469326
 31
0.0
  0
LINE
  5
79
330
17
100
AcDbEntity
  8
0
100
AcDbLine
 10
866.6186058335842
 20
-12.545145993469326
 30
0.0
 11
866.4326985121127
 21
-12.275588736932248
 31
0.0
  0
LINE
  5
7A
330
17
100
AcDbEntity
  8
0
100
AcDbLine
 10
866.4326985121127
 20
-12.275588736932248
 30
0.0
 11
866.2469984951105
 21
-12.00581533433729
 31
0.0
  0
LINE
  5
7B
330
17
100
AcDbEntity
  8
0
100
AcDbLine
 10
866.2469984951105
 20
-12.00581533433729
 30
0.0
 11
866.0614941021869
 21
-11.73583890521613
 31
0.0
  0
LINE
  5
7C
330
17
100
AcDbEntity
  8
0
100
AcDbLine
 10
866.0614941021869
 20
-11.73583890521613
 30
0.0
 11
865.8761736529515
 21
-11.465672569100432
 31
0.0
  0
LINE
  5
7D
330
17
100
AcDbEntity
  8
0
100
AcDbLine
 10
865.8761736529515
 20
-11.465672569100432
 30
0.0
 11
865.6910254670139
 21
-11.19532944552188
 31
0.0
  0
LINE
  5
7E
330
17
100
AcDbEntity
  8
0
100
AcDbLine
 10
865.6910254670139
 20
-11.19532944552188
 30
0.0
 11
865.5060378639834
 21
-10.92482265401214
 31
0.0
  0
LINE
  5
7F
330
17
100
AcDbEntity
  8
0
100
AcDbLine
 10
865.5060378639834
 20
-10.92482265401214
 30
0.0
 11
865.3211991634698
 21
-10.654165314102887
 31
0.0
  0
LINE
  5
80
330
17
100
AcDbEntity
  8
0
100
AcDbLine
 10
865.3211991634698
 20
-10.654165314102887
 30
0.0
 11
865.1364977875402
 21
-10.383370432060934
 31
0.0
  0
LINE
  5
81
330
17
100
AcDbEntity
  8
0
100
AcDbLine
 10
865.1364977875402
 20
-10.383370432060934
 30
0.0
 11
864.9519279489066
 21
-10.112444612730242
 31
0.0
  0
LINE
  5
82
330
17
100
AcDbEntity
  8
0
100
AcDbLine
 10
864.9519279489066
 20
-10.112444612730242
 30
0.0
 11
864.7674926364004
 21
-9.84138475915695
 31
0.0
  0
LINE
  5
83
330
17
100
AcDbEntity
  8
0
100
AcDbLine
 10
864.7674926364004
 20
-9.84138475915695
 30
0.0
 11
864.5831955709579
 21
-9.570186965063375
 31
0.0
  0
LINE
  5
84
330
17
100
AcDbEntity
  8
0
100
AcDbLine
 10
864.5831955709579
 20
-9.570186965063375
 30
0.0
 11
864.3990404735146
 21
-9.298847324171824
 31
0.0
  0
LINE
  5
85
330
17
100
AcDbEntity
  8
0
100
AcDbLine
 10
864.3990404735146
 20
-9.298847324171824
 30
0.0
 11
864.2150310650065
 21
-9.027361930204608
 31
0.0
  0
LINE
  5
86
330
17
100
AcDbEntity
  8
0
100
AcDbLine
 10
864.2150310650065
 20
-9.027361930204608
 30
0.0
 11
864.0311710663693
 21
-8.755726876884047
 31
0.0
  0
LINE
  5
87
330
17
100
AcDbEntity
  8
0
100
AcDbLine
 10
864.0311710663693
 20
-8.755726876884047
 30
0.0
 11
863.847464198539
 21
-8.483938257932449
 31
0.0
  0
LINE
  5
88
330
17
100
AcDbEntity
  8
0
100
AcDbLine
 10
863.847464198539
 20
-8.483938257932449
 30
0.0
 11
863.6639141824514
 21
-8.211992167072125
 31
0.0
  0
LINE
  5
89
330
17
100
AcDbEntity
  8
0
100
AcDbLine
 10
863.6639141824514
 20
-8.211992167072125
 30
0.0
 11
863.480524739042
 21
-7.939884698025389
 31
0.0
  0
LINE
  5
8A
330
17
100
AcDbEntity
  8
0
100
AcDbLine
 10
863.480524739042
 20
-7.939884698025389
 30
0.0
 11
863.297299589247
 21
-7.667611944514547
 31
0.0
  0
LINE
  5
8B
330
17
100
AcDbEntity
  8
0
100
AcDbLine
 10
863.297299589247
 20
-7.667611944514547
 30
0.0
 11
863.1142424540022
 21
-7.395170000261922
 31
0.0
  0
LINE
  5
8C
330
17
100
AcDbEntity
  8
0
100
AcDbLine
 10
863.1142424540022
 20
-7.395170000261922
 30
0.0
 11
862.9313568713424
 21
-7.122555153642511
 31
0.0
  0
LINE
  5
8D
330
17
100
AcDbEntity
  8
0
100
AcDbLine
 10
862.9313568713424
 20
-7.122555153642511
 30
0.0
 11
862.7486429543316
 21
-6.849767338060008
 31
0.0
  0
LINE
  5
8E
330
17
100
AcDbEntity
  8
0
100
AcDbLine
 10
862.7486429543316
 20
-6.849767338060008
 30
0.0
 11
862.5660977761705
 21
-6.576809722097384
 31
0.0
  0
LINE
  5
8F
330
17
100
AcDbEntity
  8
0
100
AcDbLine
 10
862.5660977761705
 20
-6.576809722097384
 30
0.0
 11
862.3837183045231
 21
-6.303685586654642
 31
0.0
  0
LINE
  5
90
330
17
100
AcDbEntity
  8
0
100
AcDbLine
 10
862.3837183045231
 20
-6.303685586654642
 30
0.0
 11
862.2015015070533
 21
-6.030398212631812
 31
0.0
  0
LINE
  5
91
330
17
100
AcDbEntity
  8
0
100
AcDbLine
 10
862.2015015070533
 20
-6.030398212631812
 30
0.0
 11
862.0194443514251
 21
-5.756950880928882
 31
0.0
  0
LINE
  5
92
330
17
100
AcDbEntity
  8
0
100
AcDbLine
 10
862.0194443514251
 20
-5.756950880928882
 30
0.0
 11
861.8375438053027
 21
-5.48334687244588
 31
0.0
  0
LINE
  5
93
330
17
100
AcDbEntity
  8
0
100
AcDbLine
 10
881.1132838084492
 20
-31.1174762649915
 30
0.0
 11
881.1132838084492
 21
-31.1185594424314
 31
0.0
  0
LINE
  5
94
330
17
100
AcDbEntity
  8
0
100
AcDbLine
 10
881.11328380845
 20
-31.117476264990334
 30
0.0
 11
881.1774164945816
 21
-31.163535119139432
 31
0.0
  0
LINE
  5
95
330
17
100
AcDbEntity
  8
0
100
AcDbLine
 10
881.1774164945816
 20
-31.163535119139432
 30
0.0
 11
881.2417477367549
 21
-31.209457871649352
 31
0.0
  0
LINE
  5
96
330
17
100
AcDbEntity
  8
0
100
AcDbLine
 10
881.2417477367549
 20
-31.209457871649352
 30
0.0
 11
881.3062769464715
 21
-31.255244102421546
 31
0.0
  0
LINE
  5
97
330
17
100
AcDbEntity
  8
0
100
AcDbLine
 10
881.3062769464715
 20
-31.255244102421546
 30
0.0
 11
881.3710035334219
 21
-31.300893392606355
 31
0.0
  0
LINE
  5
98
330
17
100
AcDbEntity
  8
0
100
AcDbLine
 10
881.3710035334219
 20
-31.300893392606355
 30
0.0
 11
881.4359269054916
 21
-31.34640532460685
 31
0.0
  0
LINE
  5
99
330
17
100
AcDbEntity
  8
0
100
AcDbLine
 10
881.4359269054916
 20
-31.34640532460685
 30
0.0
 11
881.5010464687653
 21
-31.39177948208264
 31
0.0
  0
LINE
  5
9A
330
17
100
AcDbEntity
  8
0
100
AcDbLine
 10
881.5010464687653
 20
-31.39177948208264
 30
0.0
 11
881.5663616275332
 21
-31.43701544995369
 31
0.0
  0
LINE
  5
9B
330
17
100
AcDbEntity
  8
0
100
AcDbLine
 10
881.5663616275332
 20
-31.43701544995369
 30
0.0
 11
881.6318717842962
 21
-31.482112814404125
 31
0.0
  0
LINE
  5
9C
330
17
100
AcDbEntity
  8
0
100
AcDbLine
 10
881.6318717842962
 20
-31.482112814404125
 30
0.0
 11
881.6975763397716
 21
-31.52707116288598
 31
0.0
  0
LINE
  5
9D
330
17
100
AcDbEntity
  8
0
100
AcDbLine
 10
881.6975763397716
 20
-31.52707116288598
 30
0.0
 11
881.7634746928978
 21
-31.571890084123027
 31
0.0
  0
LINE
  5
9E
330
17
100
AcDbEntity
  8
0
100
AcDbLine
 10
881.7634746928978
 20
-31.571890084123027
 30
0.0
 11
881.8295662408408
 21
-31.616569168114495
 31
0.0
  0
LINE
  5
9F
330
17
100
AcDbEntity
  8
0
100
AcDbLine
 10
881.8295662408408
 20
-31.616569168114495
 30
0.0
 11
881.8958503789993
 21
-31.661108006138832
 31
0.0
  0
LINE
  5
A0
330
17
100
AcDbEntity
  8
0
100
AcDbLine
 10
881.8958503789993
 20
-31.661108006138832
 30
0.0
 11
881.9623265010098
 21
-31.705506190757465
 31
0.0
  0
LINE
  5
A1
330
17
100
AcDbEntity
  8
0
100
AcDbLine
 10
881.9623265010098
 20
-31.705506190757465
 30
0.0
 11
882.0289939987529
 21
-31.749763315818498
 31
0.0
  0
LINE
  5
A2
330
17
100
AcDbEntity
  8
0
100
AcDbLine
 10
882.0289939987529
 20
-31.749763315818498
 30
0.0
 11
882.0958522623582
 21
-31.793878976460437
 31
0.0
  0
LINE
  5
A3
330
17
100
AcDbEntity
  8
0
100
AcDbLine
 10
882.0958522623582
 20
-31.793878976460437
 30
0.0
 11
882.1629006802107
 21
-31.837852769115905
 31
0.0
  0
LINE
  5
A4
330
17
100
AcDbEntity
  8
0
100
AcDbLine
 10
882.1629006802107
 20
-31.837852769115905
 30
0.0
 11
882.230138638955
 21
-31.881684291515306
 31
0.0
  0
LINE
  5
A5
330
17
100
AcDbEntity
  8
0
100
AcDbLine
 10
882.230138638955
 20
-31.881684291515306
 30
0.0
 11
882.2975655235031
 21
-31.925373142690553
 31
0.0
  0
LINE
  5
A6
330
17
100
AcDbEntity
  8
0
100
AcDbLine
 10
882.2975655235031
 20
-31.925373142690553
 30
0.0
 11
882.3651807170374
 21
-31.96891892297868
 31
0.0
  0
LINE
  5
A7
330
17
100
AcDbEntity
  8
0
100
AcDbLine
 10
882.3651807170374
 20
-31.96891892297868
 30
0.0
 11
882.4329836010183
 21
-32.012321234025535
 31
0.0
  0
LINE
  5
A8
330
17
100
AcDbEntity
  8
0
100
AcDbLine
 10
882.4329836010183
 20
-32.012321234025535
 30
0.0
 11
882.5009735551894
 21
-32.05557967878943
 31
0.0
  0
LINE
  5
A9
330
17
100
AcDbEntity
  8
0
100
AcDbLine
 10
882.5009735551894
 20
-32.05557967878943
 30
0.0
 11
882.5691499575823
 21
-32.098693861544724
 31
0.0
  0
LINE
  5
AA
330
17
100
AcDbEntity
  8
0
100
AcDbLine
 10
882.5691499575823
 20
-32.098693861544724
 30
0.0
 11
882.6375121845238
 21
-32.14166338788551
 31
0.0
  0
LINE
  5
AB
330
17
100
AcDbEntity
  8
0
100
AcDbLine
 10
882.6375121845238
 20
-32.14166338788551
 30
0.0
 11
882.7060596106402
 21
-32.18448786472915
 31
0.0
  0
LINE
  5
AC
330
17
100
AcDbEntity
  8
0
100
AcDbLine
 10
882.7060596106402
 20
-32.18448786472915
 30
0.0
 11
882.7747916088638
 21
-32.22716690031995
 31
0.0
  0
LINE
  5
AD
330
17
100
AcDbEntity
  8
0
100
AcDbLine
 10
882.7747916088638
 20
-32.22716690031995
 30
0.0
 11
882.8437075504387
 21
-32.26970010423268
 31
0.0
  0
LINE
  5
AE
330
17
100
AcDbEntity
  8
0
100
AcDbLine
 10
882.8437075504387
 20
-32.26970010423268
 30
0.0
 11
882.9128068049257
 21
-32.31208708737617
 31
0.0
  0
LINE
  5
AF
330
17
100
AcDbEntity
  8
0
100
AcDbLine
 10
882.9128068049257
 20
-32.31208708737617
 30
0.0
 11
882.9820887402092
 21
-32.35432746199689
 31
0.0
  0
LINE
  5
B0
330
17
100
AcDbEntity
  8
0
100
AcDbLine
 10
882.9820887402092
 20
-32.35432746199689
 30
0.0
 11
883.0515527225025
 21
-32.396420841682456
 31
0.0
  0
LINE
  5
B1
330
17
100
AcDbEntity
  8
0
100
AcDbLine
 10
883.0515527225025
 20
-32.396420841682456
 30
0.0
 11
883.1211981163528
 21
-32.438366841365166
 31
0.0
  0
LINE
  5
B2
330
17
100
AcDbEntity
  8
0
100
AcDbLine
 10
883.1211981163528
 20
-32.438366841365166
 30
0.0
 11
883.1910242846488
 21
-32.48016507732558
 31
0.0
  0
LINE
  5
B3
330
17
100
AcDbEntity
  8
0
100
AcDbLine
 10
883.1910242846488
 20
-32.48016507732558
 30
0.0
 11
883.2610305886245
 21
-32.521815167196
 31
0.0
  0
LINE
  5
B4
330
17
100
AcDbEntity
  8
0
100
AcDbLine
 10
883.2610305886245
 20
-32.521815167196
 30
0.0
 11
883.3312163878667
 21
-32.5633167299639
 31
0.0
  0
LINE
  5
B5
330
17
100
AcDbEntity
  8
0
100
AcDbLine
 10
883.3312163878667
 20
-32.5633167299639
 30
0.0
 11
883.4015810403203
 21
-32.60466938597553
 31
0.0
  0
LINE
  5
B6
330
17
100
AcDbEntity
  8
0
100
AcDbLine
 10
883.4015810403203
 20
-32.60466938597553
 30
0.0
 11
883.472123902293
 21
-32.64587275693928
 31
0.0
  0
LINE
  5
B7
330
17
100
AcDbEntity
  8
0
100
AcDbLine
 10
883.472123902293
 20
-32.64587275693928
 30
0.0
 11
883.5428443284635
 21
-32.68692646592925
 31
0.0
  0
LINE
  5
B8
330
17
100
AcDbEntity
  8
0
100
AcDbLine
 10
883.5428443284635
 20
-32.68692646592925
 30
0.0
 11
883.6137416718856
 21
-32.727830137388565
 31
0.0
  0
LINE
  5
B9
330
17
100
AcDbEntity
  8
0
100
AcDbLine
 10
883.6137416718856
 20
-32.727830137388565
 30
0.0
 11
883.6848152839946
 21
-32.768583397132964
 31
0.0
  0
LINE
  5
BA
330
17
100
AcDbEntity
  8
0
100
AcDbLine
 10
883.6848152839946
 20
-32.768583397132964
 30
0.0
 11
883.7560645146134
 21
-32.80918587235408
 31
0.0
  0
LINE
  5
BB
330
17
100
AcDbEntity
  8
0
100
AcDbLine
 10
883.7560645146134
 20
-32.80918587235408
 30
0.0
 11
883.8274887119585
 21
-32.84963719162293
 31
0.0
  0
LINE
  5
BC
330
17
100
AcDbEntity
  8
0
100
AcDbLine
 10
883.8274887119585
 20
-32.84963719162293
 30
0.0
 11
883.8990872226454
 21
-32.88993698489334
 31
0.0
  0
LINE
  5
BD
330
17
100
AcDbEntity
  8
0
100
AcDbLine
 10
883.8990872226454
 20
-32.88993698489334
 30
0.0
 11
883.9708593916957
 21
-32.93008488350521
 31
0.0
  0
LINE
  5
BE
330
17
100
AcDbEntity
  8
0
100
AcDbLine
 10
883.9708593916957
 20
-32.93008488350521
 30
0.0
 11
884.0428045625418
 21
-32.970080520188034
 31
0.0
  0
LINE
  5
BF
330
17
100
AcDbEntity
  8
0
100
AcDbLine
 10
884.0428045625418
 20
-32.970080520188034
 30
0.0
 11
884.1149220770334
 21
-33.00992352906414
 31
0.0
  0
LINE
  5
C0
330
17
100
AcDbEntity
  8
0
100
AcDbLine
 10
884.1149220770334
 20
-33.00992352906414
 30
0.0
 11
884.1872112754442
 21
-33.049613545652115
 31
0.0
  0
LINE
  5
C1
330
17
100
AcDbEntity
  8
0
100
AcDbLine
 10
884.1872112754442
 20
-33.049613545652115
 30
0.0
 11
884.2596714964766
 21
-33.08915020687009
 31
0.0
  0
LINE
  5
C2
330
17
100
AcDbEntity
  8
0
100
AcDbLine
 10
884.2596714964766
 20
-33.08915020687009
 30
0.0
 11
884.3323020772694
 21
-33.12853315103908
 31
0.0
  0
LINE
  5
C3
330
17
100
AcDbEntity
  8
0
100
AcDbLine
 10
884.3323020772694
 20
-33.12853315103908
 30
0.0
 11
884.4051023534022
 21
-33.167762017886346
 31
0.0
  0
LINE
  5
C4
330
17
100
AcDbEntity
  8
0
100
AcDbLine
 10
884.4051023534022
 20
-33.167762017886346
 30
0.0
 11
884.4780716589024
 21
-33.20683644854856
 31
0.0
  0
LINE
  5
C5
330
17
100
AcDbEntity
  8
0
100
AcDbLine
 10
884.4780716589024
 20
-33.20683644854856
 30
0.0
 11
884.5512093262515
 21
-33.24575608557522
 31
0.0
  0
LINE
  5
C6
330
17
100
AcDbEntity
  8
0
100
AcDbLine
 10
884.5512093262515
 20
-33.24575608557522
 30
0.0
 11
884.6245146863905
 21
-33.284520572931854
 31
0.0
  0
LINE
  5
C7
330
17
100
AcDbEntity
  8
0
100
AcDbLine
 10
884.6245146863905
 20
-33.284520572931854
 30
0.0
 11
884.6979870687261
 21
-33.32312955600328
 31
0.0
  0
LINE
  5
C8
330
17
100
AcDbEntity
  8
0
100
AcDbLine
 10
884.6979870687261
 20
-33.32312955600328
 30
0.0
 11
884.7716258011376
 21
-33.36158268159687
 31
0.0
  0
LINE
  5
C9
330
17
100
AcDbEntity
  8
0
100
AcDbLine
 10
884.7716258011376
 20
-33.36158268159687
 30
0.0
 11
884.8454302099825
 21
-33.399879597945755
 31
0.0
  0
LINE
  5
CA
330
17
100
AcDbEntity
  8
0
100
AcDbLine
 10
884.8454302099825
 20
-33.399879597945755
 30
0.0
 11
884.9193996201025
 21
-33.43801995471211
 31
0.0
  0
LINE
  5
CB
330
17
100
AcDbEntity
  8
0
100
AcDbLine
 10
884.9193996201025
 20
-33.43801995471211
 30
0.0
 11
884.9935333548297
 21
-33.47600340299023
 31
0.0
  0
LINE
  5
CC
330
17
100
AcDbEntity
  8
0
100
AcDbLine
 10
884.9935333548297
 20
-33.47600340299023
 30
0.0
 11
885.0678307359937
 21
-33.513829595309865
 31
0.0
  0
LINE
  5
CD
330
17
100
AcDbEntity
  8
0
100
AcDbLine
 10
885.0678307359937
 20
-33.513829595309865
 30
0.0
 11
885.142291083926
 21
-33.55149818563929
 31
0.0
  0
LINE
  5
CE
330
17
100
AcDbEntity
  8
0
100
AcDbLine
 10
885.142291083926
 20
-33.55149818563929
 30
0.0
 11
885.2169137174682
 21
-33.58900882938853
 31
0.0
  0
LINE
  5
CF
330
17
100
AcDbEntity
  8
0
100
AcDbLine
 10
885.2169137174682
 20
-33.58900882938853
 30
0.0
 11
885.2916979539768
 21
-33.626361183412506
 31
0.0
  0
LINE
  5
D0
330
17
100
AcDbEntity
  8
0
100
AcDbLine
 10
885.2916979539768
 20
-33.626361183412506
 30
0.0
 11
885.3666431093303
 21
-33.663554906014156
 31
0.0
  0
LINE
  5
D1
330
17
100
AcDbEntity
  8
0
100
AcDbLine
 10
885.3666431093303
 20
-33.663554906014156
 30
0.0
 11
885.4417484979349
 21
-33.70058965694754
 31
0.0
  0
LINE
  5
D2
330
17
100
AcDbEntity
  8
0
100
AcDbLine
 10
885.4417484979349
 20
-33.70058965694754
 30
0.0
 11
885.5170134327312
 21
-33.73746509742104
 31
0.0
  0
LINE
  5
D3
330
17
100
AcDbEntity
  8
0
100
AcDbLine
 10
885.5170134327312
 20
-33.73746509742104
 30
0.0
 11
885.5924372252
 21
-33.774180890100354
 31
0.0
  0
LINE
  5
D4
330
17
100
AcDbEntity
  8
0
100
AcDbLine
 10
885.5924372252
 20
-33.774180890100354
 30
0.0
 11
885.6680191853692
 21
-33.81073669911163
 31
0.0
  0
LINE
  5
D5
330
17
100
AcDbEntity
  8
0
100
AcDbLine
 10
885.6680191853692
 20
-33.81073669911163
 30
0.0
 11
885.7437586218191
 21
-33.84713219004457
 31
0.0
  0
LINE
  5
D6
330
17
100
AcDbEntity
  8
0
100
AcDbLine
 10
885.7437586218191
 20
-33.84713219004457
 30
0.0
 11
885.8196548416906
 21
-33.883367029955416
 31
0.0
  0
LINE
  5
D7
330
17
100
AcDbEntity
  8
0
100
AcDbLine
 10
885.8196548416906
 20
-33.883367029955416
 30
0.0
 11
885.8957071506894
 21
-33.91944088737007
 31
0.0
  0
LINE
  5
D8
330
17
100
AcDbEntity
  8
0
100
AcDbLine
 10
885.8957071506894
 20
-33.91944088737007
 30
0.0
 11
885.9719148530937
 21
-33.95535343228707
 31
0.0
  0
LINE
  5
D9
330
17
100
AcDbEntity
  8
0
100
AcDbLine
 10
885.9719148530937
 20
-33.95535343228707
 30
0.0
 11
886.0482772517599
 21
-33.99110433618064
 31
0.0
  0
LINE
  5
DA
330
17
100
AcDbEntity
  8
0
100
AcDbLine
 10
886.0482772517599
 20
-33.99110433618064
 30
0.0
 11
886.1247936481295
 21
-34.02669327200368
 31
0.0
  0
LINE
  5
DB
330
17
100
AcDbEntity
  8
0
100
AcDbLine
 10
886.1247936481295
 20
-34.02669327200368
 30
0.0
 11
886.2014633422353
 21
-34.062119914190774
 31
0.0
  0
LINE
  5
DC
330
17
100
AcDbEntity
  8
0
100
AcDbLine
 10
886.2014633422353
 20
-34.062119914190774
 30
0.0
 11
886.2782856327073
 21
-34.09738393866115
 31
0.0
  0
LINE
  5
DD
330
17
100
AcDbEntity
  8
0
100
AcDbLine
 10
886.2782856327073
 20
-34.09738393866115
 30
0.0
 11
886.3552598167801
 21
-34.13248502282165
 31
0.0
  0
LINE
  5
DE
330
17
100
AcDbEntity
  8
0
100
AcDbLine
 10
886.3552598167801
 20
-34.13248502282165
 30
0.0
 11
886.4323851902984
 21
-34.167422845569696
 31
0.0
  0
LINE
  5
DF
330
17
100
AcDbEntity
  8
0
100
AcDbLine
 10
886.4323851902984
 20
-34.167422845569696
 30
0.0
 11
886.5096610477242
 21
-34.2021970872962
 31
0.0
  0
LINE
  5
E0
330
17
100
AcDbEntity
  8
0
100
AcDbLine
 10
886.5096610477242
 20
-34.2021970872962
 30
0.0
 11
886.5870866821423
 21
-34.23680742988852
 31
0.0
  0
LINE
  5
E1
330
17
100
AcDbEntity
  8
0
100
AcDbLine
 10
886.5870866821423
 20
-34.23680742988852
 30
0.0
 11
886.664661385268
 21
-34.271253556733356
 31
0.0
  0
LINE
  5
E2
330
17
100
AcDbEntity
  8
0
100
AcDbLine
 10
886.664661385268
 20
-34.271253556733356
 30
0.0
 11
886.7423844474525
 21
-34.305535152719614
 31
0.0
  0
LINE
  5
E3
330
17
100
AcDbEntity
  8
0
100
AcDbLine
 10
886.7423844474525
 20
-34.305535152719614
 30
0.0
 11
886.82025515769
 21
-34.33965190424134
 31
0.0
  0
LINE
  5
E4
330
17
100
AcDbEntity
  8
0
100
AcDbLine
 10
886.82025515769
 20
-34.33965190424134
 30
0.0
 11
886.8982728036239
 21
-34.37360349920057
 31
0.0
  0
LINE
  5
E5
330
17
100
AcDbEntity
  8
0
100
AcDbLine
 10
886.8982728036239
 20
-34.37360349920057
 30
0.0
 11
886.9764366715536
 21
-34.40738962701019
 31
0.0
  0
LINE
  5
E6
330
17
100
AcDbEntity
  8
0
100
AcDbLine
 10
886.9764366715536
 20
-34.40738962701019
 30
0.0
 11
887.0547460464408
 21
-34.441009978596725
 31
0.0
  0
LINE
  5
E7
330
17
100
AcDbEntity
  8
0
100
AcDbLine
 10
887.0547460464408
 20
-34.441009978596725
 30
0.0
 11
887.1332002119159
 21
-34.47446424640327
 31
0.0
  0
LINE
  5
E8
330
17
100
AcDbEntity
  8
0
100
AcDbLine
 10
887.1332002119159
 20
-34.47446424640327
 30
0.0
 11
887.2117984502852
 21
-34.50775212439219
 31
0.0
  0
LINE
  5
E9
330
17
100
AcDbEntity
  8
0
100
AcDbLine
 10
887.2117984502852
 20
-34.50775212439219
 30
0.0
 11
887.2905400425367
 21
-34.54087330804802
 31
0.0
  0
LINE
  5
EA
330
17
100
AcDbEntity
  8
0
100
AcDbLine
 10
887.2905400425367
 20
-34.54087330804802
 30
0.0
 11
887.3694242683472
 21
-34.5738274943802
 31
0.0
  0
LINE
  5
EB
330
17
100
AcDbEntity
  8
0
100
AcDbLine
 10
887.3694242683472
 20
-34.5738274943802
 30
0.0
 11
887.4484504060882
 21
-34.606614381925795
 31
0.0
  0
LINE
  5
EC
330
17
100
AcDbEntity
  8
0
100
AcDbLine
 10
887.4484504060882
 20
-34.606614381925795
 30
0.0
 11
887.527617732834
 21
-34.63923367075238
 31
0.0
  0
LINE
  5
ED
330
17
100
AcDbEntity
  8
0
100
AcDbLine
 10
887.527617732834
 20
-34.63923367075238
 30
0.0
 11
887.6069255243664
 21
-34.67168506246067
 31
0.0
  0
LINE
  5
EE
330
17
100
AcDbEntity
  8
0
100
AcDbLine
 10
887.6069255243664
 20
-34.67168506246067
 30
0.0
 11
887.6863730551825
 21
-34.703968260187324
 31
0.0
  0
LINE
  5
EF
330
17
100
AcDbEntity
  8
0
100
AcDbLine
 10
887.6863730551825
 20
-34.703968260187324
 30
0.0
 11
887.7659595985008
 21
-34.73608296860759
 31
0.0
  0
LINE
  5
F0
330
17
100
AcDbEntity
  8
0
100
AcDbLine
 10
887.7659595985008
 20
-34.73608296860759
 30
0.0
 11
887.8456844262691
 21
-34.768028893938066
 31
0.0
  0
LINE
  5
F1
330
17
100
AcDbEntity
  8
0
100
AcDbLine
 10
887.8456844262691
 20
-34.768028893938066
 30
0.0
 11
887.9255468091693
 21
-34.7998057439394
 31
0.0
  0
LINE
  5
F2
330
17
100
AcDbEntity
  8
0
100
AcDbLine
 10
887.9255468091693
 20
-34.7998057439394
 30
0.0
 11
888.0055460166251
 21
-34.83141322791886
 31
0.0
  0
LINE
  5
F3
330
17
100
AcDbEntity
  8
0
100
AcDbLine
 10
888.0055460166251
 20
-34.83141322791886
 30
0.0
 11
888.0856813168085
 21
-34.862851056733135
 31
0.0
  0
LINE
  5
F4
330
17
100
AcDbEntity
  8
0
100
AcDbLine
 10
888.0856813168085
 20
-34.862851056733135
 30
0.0
 11
888.1659519766467
 21
-34.894118942790854
 31
0.0
  0
LINE
  5
F5
330
17
100
AcDbEntity
  8
0
100
AcDbLine
 10
888.1659519766467
 20
-34.894118942790854
 30
0.0
 11
888.2463572618286
 21
-34.92521660005531
 31
0.0
  0
LINE
  5
F6
330
17
100
AcDbEntity
  8
0
100
AcDbLine
 10
888.2463572618286
 20
-34.92521660005531
 30
0.0
 11
888.3268964368117
 21
-34.95614374404701
 31
0.0
  0
LINE
  5
F7
330
17
100
AcDbEntity
  8
0
100
AcDbLine
 10
888.3268964368116
 20
-34.956143744046784
 30
0.0
 11
888.3332473243184
 21
-34.95694705154408
 31
0.0
  0
LINE
  5
F8
330
17
100
AcDbEntity
  8
0
100
AcDbLine
 10
888.3332473243184
 20
-34.95694705154408
 30
0.0
 11
888.3395992327512
 21
-34.95774224606234
 31
0.0
  0
LINE
  5
F9
330
17
100
AcDbEntity
  8
0
100
AcDbLine
 10
888.3395992327512
 20
-34.95774224606234
 30
0.0
 11
888.3459521517459
 21
-34.95852932630412
 31
0.0
  0
LINE
  5
FA
330
17
100
AcDbEntity
  8
0
100
AcDbLine
 10
888.3459521517459
 20
-34.95852932630412
 30
0.0
 11
888.3523060709367
 21
-34.95930829098517
 31
0.0
  0
LINE
  5
FB
330
17
100
AcDbEntity
  8
0
100
AcDbLine
 10
888.3523060709367
 20
-34.95930829098517
 30
0.0
 11
888.3586609799569
 21
-34.96007913883453
 31
0.0
  0
LINE
  5
FC
330
17
100
AcDbEntity
  8
0
100
AcDbLine
 10
888.3586609799569
 20
-34.96007913883453
 30
0.0
 11
888.3650168684371
 21
-34.96084186859446
 31
0.0
  0
LINE
  5
FD
330
17
100
AcDbEntity
  8
0
100
AcDbLine
 10
888.3650168684371
 20
-34.96084186859446
 30
0.0
 11
888.371373726007
 21
-34.96159647902044
 31
0.0
  0
LINE
  5
FE
330
17
100
AcDbEntity
  8
0
100
AcDbLine
 10
888.371373726007
 20
-34.96159647902044
 30
0.0
 11
888.3777315422946
 21
-34.962342968881266
 31
0.0
  0
LINE
  5
FF
330
17
100
AcDbEntity
  8
0
100
AcDbLine
 10
888.3777315422946
 20
-34.962342968881266
 30
0.0
 11
888.3840903069264
 21
-34.96308133695891
 31
0.0
  0
LINE
  5
100
330
17
100
AcDbEntity
  8
0
100
AcDbLine
 10
888.3840903069264
 20
-34.96308133695891
 30
0.0
 11
888.3904500095272
 21
-34.963811582048635
 31
0.0
  0
LINE
  5
101
330
17
100
AcDbEntity
  8
0
100
AcDbLine
 10
888.3904500095272
 20
-34.963811582048635
 30
0.0
 11
888.39681063972
 21
-34.96453370295896
 31
0.0
  0
LINE
  5
102
330
17
100
AcDbEntity
  8
0
100
AcDbLine
 10
888.39681063972
 20
-34.96453370295896
 30
0.0
 11
888.4031721871269
 21
-34.96524769851164
 31
0.0
  0
LINE
  5
103
330
17
100
AcDbEntity
  8
0
100
AcDbLine
 10
888.4031721871269
 20
-34.96524769851164
 30
0.0
 11
888.4095346413683
 21
-34.9659535675417
 31
0.0
  0
LINE
  5
104
330
17
100
AcDbEntity
  8
0
100
AcDbLine
 10
888.4095346413683
 20
-34.9659535675417
 30
0.0
 11
888.4158979920627
 21
-34.96665130889743
 31
0.0
  0
LINE
  5
105
330
17
100
AcDbEntity
  8
0
100
AcDbLine
 10
888.4158979920627
 20
-34.96665130889743
 30
0.0
 11
888.4222622288275
 21
-34.967340921440375
 31
0.0
  0
LINE
  5
106
330
17
100
AcDbEntity
  8
0
100
AcDbLine
 10
888.4222622288275
 20
-34.967340921440375
 30
0.0
 11
888.4286273412789
 21
-34.96802240404532
 31
0.0
  0
LINE
  5
107
330
17
100
AcDbEntity
  8
0
100
AcDbLine
 10
888.4286273412789
 20
-34.96802240404532
 30
0.0
 11
888.4349933190313
 21
-34.968695755600365
 31
0.0
  0
LINE
  5
108
330
17
100
AcDbEntity
  8
0
100
AcDbLine
 10
888.4349933190313
 20
-34.968695755600365
 30
0.0
 11
888.4413601516976
 21
-34.96936097500683
 31
0.0
  0
LINE
  5
109
330
17
100
AcDbEntity
  8
0
100
AcDbLine
 10
888.4413601516976
 20
-34.96936097500683
 30
0.0
 11
888.4477278288897
 21
-34.97001806117933
 31
0.0
  0
LINE
  5
10A
330
17
100
AcDbEntity
  8
0
100
AcDbLine
 10
888.4477278288897
 20
-34.97001806117933
 30
0.0
 11
888.4540963402176
 21
-34.97066701304574
 31
0.0
  0
LINE
  5
10B
330
17
100
AcDbEntity
  8
0
100
AcDbLine
 10
888.4540963402176
 20
-34.97066701304574
 30
0.0
 11
888.4604656752907
 21
-34.971307829547214
 31
0.0
  0
LINE
  5
10C
330
17
100
AcDbEntity
  8
0
100
AcDbLine
 10
888.4604656752907
 20
-34.971307829547214
 30
0.0
 11
888.4668358237161
 21
-34.97194050963817
 31
0.0
  0
LINE
  5
10D
330
17
100
AcDbEntity
  8
0
100
AcDbLine
 10
888.4668358237161
 20
-34.97194050963817
 30
0.0
 11
888.4732067751004
 21
-34.97256505228632
 31
0.0
  0
LINE
  5
10E
330
17
100
AcDbEntity
  8
0
100
AcDbLine
 10
888.4732067751004
 20
-34.97256505228632
 30
0.0
 11
888.4795785190482
 21
-34.97318145647263
 31
0.0
  0
LINE
  5
10F
330
17
100
AcDbEntity
  8
0
100
AcDbLine
 10
888.4795785190482
 20
-34.97318145647263
 30
0.0
 11
888.4859510451639
 21
-34.97378972119135
 31
0.0
  0
LINE
  5
110
330
17
100
AcDbEntity
  8
0
100
AcDbLine
 10
888.4859510451639
 20
-34.97378972119135
 30
0.0
 11
888.4923243430491
 21
-34.974389845450034
 31
0.0
  0
LINE
  5
111
330
17
100
AcDbEntity
  8
0
100
AcDbLine
 10
888.4923243430491
 20
-34.974389845450034
 30
0.0
 11
888.4986984023052
 21
-34.97498182826949
 31
0.0
  0
LINE
  5
112
330
17
100
AcDbEntity
  8
0
100
AcDbLine
 10
888.4986984023052
 20
-34.97498182826949
 30
0.0
 11
888.5050732125322
 21
-34.97556566868383
 31
0.0
  0
LINE
  5
113
330
17
100
AcDbEntity
  8
0
100
AcDbLine
 10
888.5050732125322
 20
-34.97556566868383
 30
0.0
 11
888.5114487633288
 21
-34.976141365740425
 31
0.0
  0
LINE
  5
114
330
17
100
AcDbEntity
  8
0
100
AcDbLine
 10
888.5114487633288
 20
-34.976141365740425
 30
0.0
 11
888.5178250442923
 21
-34.976708918499966
 31
0.0
  0
LINE
  5
115
330
17
100
AcDbEntity
  8
0
100
AcDbLine
 10
888.5178250442923
 20
-34.976708918499966
 30
0.0
 11
888.5242020450189
 21
-34.9772683260364
 31
0.0
  0
LINE
  5
116
330
17
100
AcDbEntity
  8
0
100
AcDbLine
 10
888.5242020450189
 20
-34.9772683260364
 30
0.0
 11
888.530579755104
 21
-34.977819587437004
 31
0.0
  0
LINE
  5
117
330
17
100
AcDbEntity
  8
0
100
AcDbLine
 10
888.530579755104
 20
-34.977819587437004
 30
0.0
 11
888.5369581641411
 21
-34.978362701802304
 31
0.0
  0
LINE
  5
118
330
17
100
AcDbEntity
  8
0
100
AcDbLine
 10
888.5369581641411
 20
-34.978362701802304
 30
0.0
 11
888.5433372617233
 21
-34.97889766824614
 31
0.0
  0
LINE
  5
119
330
17
100
AcDbEntity
  8
0
100
AcDbLine
 10
888.5433372617233
 20
-34.97889766824614
 30
0.0
 11
888.5497170374424
 21
-34.979424485895656
 31
0.0
  0
LINE
  5
11A
330
17
100
AcDbEntity
  8
0
100
AcDbLine
 10
888.5497170374424
 20
-34.979424485895656
 30
0.0
 11
888.5560974808885
 21
-34.97994315389127
 31
0.0
  0
LINE
  5
11B
330
17
100
AcDbEntity
  8
0
100
AcDbLine
 10
888.5560974808885
 20
-34.97994315389127
 30
0.0
 11
888.5624785816514
 21
-34.980453671386705
 31
0.0
  0
LINE
  5
11C
330
17
100
AcDbEntity
  8
0
100
AcDbLine
 10
888.5624785816514
 20
-34.980453671386705
 30
0.0
 11
888.5688603293195
 21
-34.98095603754899
 31
0.0
  0
LINE
  5
11D
330
17
100
AcDbEntity
  8
0
100
AcDbLine
 10
888.5688603293195
 20
-34.98095603754899
 30
0.0
 11
888.5752427134801
 21
-34.98145025155845
 31
0.0
  0
LINE
  5
11E
330
17
100
AcDbEntity
  8
0
100
AcDbLine
 10
888.5752427134801
 20
-34.98145025155845
 30
0.0
 11
888.5816257237193
 21
-34.98193631260871
 31
0.0
  0
LINE
  5
11F
330
17
100
AcDbEntity
  8
0
100
AcDbLine
 10
888.5816257237193
 20
-34.98193631260871
 30
0.0
 11
888.5880093496227
 21
-34.982414219906694
 31
0.0
  0
LINE
  5
120
330
17
100
AcDbEntity
  8
0
100
AcDbLine
 10
888.5880093496227
 20
-34.982414219906694
 30
0.0
 11
888.5943935807745
 21
-34.98288397267264
 31
0.0
  0
LINE
  5
121
330
17
100
AcDbEntity
  8
0
100
AcDbLine
 10
888.5943935807745
 20
-34.98288397267264
 30
0.0
 11
888.6007784067579
 21
-34.983345570140074
 31
0.0
  0
LINE
  5
122
330
17
100
AcDbEntity
  8
0
100
AcDbLine
 10
888.6007784067579
 20
-34.983345570140074
 30
0.0
 11
888.6071638171552
 21
-34.98379901155585
 31
0.0
  0
LINE
  5
123
330
17
100
AcDbEntity
  8
0
100
AcDbLine
 10
888.6071638171552
 20
-34.98379901155585
 30
0.0
 11
888.6135498015478
 21
-34.98424429618012
 31
0.0
  0
LINE
  5
124
330
17
100
AcDbEntity
  8
0
100
AcDbLine
 10
888.6135498015478
 20
-34.98424429618012
 30
0.0
 11
888.6199363495163
 21
-34.98468142328634
 31
0.0
  0
LINE
  5
125
330
17
100
AcDbEntity
  8
0
100
AcDbLine
 10
888.6199363495163
 20
-34.98468142328634
 30
0.0
 11
888.6263234506399
 21
-34.985110392161275
 31
0.0
  0
LINE
  5
126
330
17
100
AcDbEntity
  8
0
100
AcDbLine
 10
888.6263234506399
 20
-34.985110392161275
 30
0.0
 11
888.6327110944976
 21
-34.98553120210501
 31
0.0
  0
LINE
  5
127
330
17
100
AcDbEntity
  8
0
100
AcDbLine
 10
888.6327110944976
 20
-34.98553120210501
 30
0.0
 11
888.6390992706666
 21
-34.98594385243094
 31
0.0
  0
LINE
  5
128
330
17
100
AcDbEntity
  8
0
100
AcDbLine
 10
888.6390992706666
 20
-34.98594385243094
 30
0.0
 11
888.6454879687244
 21
-34.986348342465774
 31
0.0
  0
LINE
  5
129
330
17
100
AcDbEntity
  8
0
100
AcDbLine
 10
888.6454879687244
 20
-34.986348342465774
 30
0.0
 11
888.6518771782465
 21
-34.98674467154953
 31
0.0
  0
LINE
  5
12A
330
17
100
AcDbEntity
  8
0
100
AcDbLine
 10
888.6518771782465
 20
-34.98674467154953
 30
0.0
 11
888.6582668888083
 21
-34.987132839035546
 31
0.0
  0
LINE
  5
12B
330
17
100
AcDbEntity
  8
0
100
AcDbLine
 10
888.6582668888083
 20
-34.987132839035546
 30
0.0
 11
888.6646570899837
 21
-34.98751284429047
 31
0.0
  0
LINE
  5
12C
330
17
100
AcDbEntity
  8
0
100
AcDbLine
 10
888.6646570899837
 20
-34.98751284429047
 30
0.0
 11
888.6710477713472
 21
-34.98788468669429
 31
0.0
  0
LINE
  5
12D
330
17
100
AcDbEntity
  8
0
100
AcDbLine
 10
888.6710477713472
 20
-34.98788468669429
 30
0.0
 11
888.6774389224707
 21
-34.98824836564028
 31
0.0
  0
LINE
  5
12E
330
17
100
AcDbEntity
  8
0
100
AcDbLine
 10
888.6774389224707
 20
-34.98824836564028
 30
0.0
 11
888.6838305329265
 21
-34.98860388053506
 31
0.0
  0
LINE
  5
12F
330
17
100
AcDbEntity
  8
0
100
AcDbLine
 10
888.6838305329265
 20
-34.98860388053506
 30
0.0
 11
888.690222592286
 21
-34.988951230798556
 31
0.0
  0
LINE
  5
130
330
17
100
AcDbEntity
  8
0
100
AcDbLine
 10
888.690222592286
 20
-34.988951230798556
 30
0.0
 11
888.6966150901195
 21
-34.98929041586402
 31
0.0
  0
LINE
  5
131
330
17
100
AcDbEntity
  8
0
100
AcDbLine
 10
888.6966150901195
 20
-34.98929041586402
 30
0.0
 11
888.7030080159969
 21
-34.98962143517804
 31
0.0
  0
LINE
  5
132
330
17
100
AcDbEntity
  8
0
100
AcDbLine
 10
888.7030080159969
 20
-34.98962143517804
 30
0.0
 11
888.7094013594872
 21
-34.98994428820049
 31
0.0
  0
LINE
  5
133
330
17
100
AcDbEntity
  8
0
100
AcDbLine
 10
888.7094013594872
 20
-34.98994428820049
 30
0.0
 11
888.715795110159
 21
-34.99025897440461
 31
0.0
  0
LINE
  5
134
330
17
100
AcDbEntity
  8
0
100
AcDbLine
 10
888.715795110159
 20
-34.99025897440461
 30
0.0
 11
888.7221892575799
 21
-34.990565493276954
 31
0.0
  0
LINE
  5
135
330
17
100
AcDbEntity
  8
0
100
AcDbLine
 10
888.7221892575799
 20
-34.990565493276954
 30
0.0
 11
888.7285837913171
 21
-34.99086384431738
 31
0.0
  0
LINE
  5
136
330
17
100
AcDbEntity
  8
0
100
AcDbLine
 10
888.7285837913171
 20
-34.99086384431738
 30
0.0
 11
888.7349787009373
 21
-34.9911540270391
 31
0.0
  0
LINE
  5
137
330
17
100
AcDbEntity
  8
0
100
AcDbLine
 10
888.7349787009373
 20
-34.9911540270391
 30
0.0
 11
888.7413739760058
 21
-34.991436040968644
 31
0.0
  0
LINE
  5
138
330
17
100
AcDbEntity
  8
0
100
AcDbLine
 10
888.7413739760058
 20
-34.991436040968644
 30
0.0
 11
888.7477696060884
 21
-34.99170988564586
 31
0.0
  0
LINE
  5
139
330
17
100
AcDbEntity
  8
0
100
AcDbLine
 10
888.7477696060884
 20
-34.99170988564586
 30
0.0
 11
888.7541655807495
 21
-34.99197556062395
 31
0.0
  0
LINE
  5
13A
330
17
100
AcDbEntity
  8
0
100
AcDbLine
 10
888.7541655807495
 20
-34.99197556062395
 30
0.0
 11
888.7605618895534
 21
-34.992233065469414
 31
0.0
  0
LINE
  5
13B
330
17
100
AcDbEntity
  8
0
100
AcDbLine
 10
888.7605618895534
 20
-34.992233065469414
 30
0.0
 11
888.7669585220636
 21
-34.9924823997621
 31
0.0
  0
LINE
  5
13C
330
17
100
AcDbEntity
  8
0
100
AcDbLine
 10
888.7669585220636
 20
-34.9924823997621
 30
0.0
 11
888.7733554678431
 21
-34.9927235630952
 31
0.0
  0
LINE
  5
13D
330
17
100
AcDbEntity
  8
0
100
AcDbLine
 10
888.7733554678431
 20
-34.9927235630952
 30
0.0
 11
888.7797527164546
 21
-34.99295655507522
 31
0.0
  0
LINE
  5
13E
330
17
100
AcDbEntity
  8
0
100
AcDbLine
 10
888.7797527164546
 20
-34.99295655507522
 30
0.0
 11
888.78615025746
 21
-34.993181375321996
 31
0.0
  0
LINE
  5
13F
330
17
100
AcDbEntity
  8
0
100
AcDbLine
 10
888.78615025746
 20
-34.993181375321996
 30
0.0
 11
888.7925480804212
 21
-34.99339802346871
 31
0.0
  0
LINE
  5
140
330
17
100
AcDbEntity
  8
0
100
AcDbLine
 10
888.7925480804212
 20
-34.99339802346871
 30
0.0
 11
888.7989461748988
 21
-34.993606499161864
 31
0.0
  0
LINE
  5
141
330
17
100
AcDbEntity
  8
0
100
AcDbLine
 10
888.7989461748988
 20
-34.993606499161864
 30
0.0
 11
888.8053445304537
 21
-34.993806802061314
 31
0.0
  0
LINE
  5
142
330
17
100
AcDbEntity
  8
0
100
AcDbLine
 10
888.8053445304537
 20
-34.993806802061314
 30
0.0
 11
888.8117431366463
 21
-34.99399893184024
 31
0.0
  0
LINE
  5
143
330
17
100
AcDbEntity
  8
0
100
AcDbLine
 10
888.8117431366463
 20
-34.99399893184024
 30
0.0
 11
888.8181419830363
 21
-34.994182888185144
 31
0.0
  0
LINE
  5
144
330
17
100
AcDbEntity
  8
0
100
AcDbLine
 10
888.8181419830363
 20
-34.994182888185144
 30
0.0
 11
888.8245410591832
 21
-34.99435867079589
 31
0.0
  0
LINE
  5
145
330
17
100
AcDbEntity
  8
0
100
AcDbLine
 10
888.8245410591832
 20
-34.99435867079589
 30
0.0
 11
888.830940354646
 21
-34.99452627938565
 31
0.0
  0
LINE
  5
146
330
17
100
AcDbEntity
  8
0
100
AcDbLine
 10
888.830940354646
 20
-34.99452627938565
 30
0.0
 11
888.8373398589836
 21
-34.99468571368098
 31
0.0
  0
LINE
  5
147
330
17
100
AcDbEntity
  8
0
100
AcDbLine
 10
888.8373398589836
 20
-34.99468571368098
 30
0.0
 11
888.843739561754
 21
-34.994836973421705
 31
0.0
  0
LINE
  5
148
330
17
100
AcDbEntity
  8
0
100
AcDbLine
 10
888.843739561754
 20
-34.994836973421705
 30
0.0
 11
888.8501394525157
 21
-34.99498005836105
 31
0.0
  0
LINE
  5
149
330
17
100
AcDbEntity
  8
0
100
AcDbLine
 10
888.8501394525157
 20
-34.99498005836105
 30
0.0
 11
888.856539520826
 21
-34.99511496826554
 31
0.0
  0
LINE
  5
14A
330
17
100
AcDbEntity
  8
0
100
AcDbLine
 10
888.856539520826
 20
-34.99511496826554
 30
0.0
 11
888.8629397562427
 21
-34.99524170291506
 31
0.0
  0
LINE
  5
14B
330
17
100
AcDbEntity
  8
0
100
AcDbLine
 10
888.8629397562427
 20
-34.99524170291506
 30
0.0
 11
888.8693401483227
 21
-34.99536026210283
 31
0.0
  0
LINE
  5
14C
330
17
100
AcDbEntity
  8
0
100
AcDbLine
 10
888.8693401483227
 20
-34.99536026210283
 30
0.0
 11
888.8757406866232
 21
-34.995470645635386
 31
0.0
  0
LINE
  5
14D
330
17
100
AcDbEntity
  8
0
100
AcDbLine
 10
888.8757406866232
 20
-34.995470645635386
 30
0.0
 11
888.8821413607005
 21
-34.99557285333264
 31
0.0
  0
LINE
  5
14E
330
17
100
AcDbEntity
  8
0
100
AcDbLine
 10
888.8821413607005
 20
-34.99557285333264
 30
0.0
 11
888.8885421601117
 21
-34.995666885027816
 31
0.0
  0
LINE
  5
14F
330
17
100
AcDbEntity
  8
0
100
AcDbLine
 10
888.8885421601117
 20
-34.995666885027816
 30
0.0
 11
888.8949430744125
 21
-34.995752740567504
 31
0.0
  0
LINE
  5
150
330
17
100
AcDbEntity
  8
0
100
AcDbLine
 10
888.8949430744125
 20
-34.995752740567504
 30
0.0
 11
888.9013440931592
 21
-34.995830419811604
 31
0.0
  0
LINE
  5
151
330
17
100
AcDbEntity
  8
0
100
AcDbLine
 10
888.9013440931592
 20
-34.995830419811604
 30
0.0
 11
888.9077452059076
 21
-34.99589992263338
 31
0.0
  0
LINE
  5
152
330
17
100
AcDbEntity
  8
0
100
AcDbLine
 10
888.9077452059076
 20
-34.99589992263338
 30
0.0
 11
888.9141464022135
 21
-34.99596124891942
 31
0.0
  0
LINE
  5
153
330
17
100
AcDbEntity
  8
0
100
AcDbLine
 10
888.9141464022135
 20
-34.99596124891942
 30
0.0
 11
888.9205476716324
 21
-34.99601439856968
 31
0.0
  0
LINE
  5
154
330
17
100
AcDbEntity
  8
0
100
AcDbLine
 10
888.9205476716324
 20
-34.99601439856968
 30
0.0
 11
888.92694900372
 21
-34.996059371497424
 31
0.0
  0
LINE
  5
155
330
17
100
AcDbEntity
  8
0
100
AcDbLine
 10
888.92694900372
 20
-34.996059371497424
 30
0.0
 11
888.9333503880317
 21
-34.996096167629275
 31
0.0
  0
LINE
  5
156
330
17
100
AcDbEntity
  8
0
100
AcDbLine
 10
888.9333503880317
 20
-34.996096167629275
 30
0.0
 11
888.9397518141224
 21
-34.996124786905206
 31
0.0
  0
LINE
  5
157
330
17
100
AcDbEntity
  8
0
100
AcDbLine
 10
888.9397518141224
 20
-34.996124786905206
 30
0.0
 11
888.9461532715479
 21
-34.996145229278504
 31
0.0
  0
LINE
  5
158
330
17
100
AcDbEntity
  8
0
100
AcDbLine
 10
888.9461532715479
 20
-34.996145229278504
 30
0.0
 11
888.9525547498631
 21
-34.996157494715824
 31
0.0
  0
LINE
  5
159
330
17
100
AcDbEntity
  8
0
100
AcDbLine
 10
888.9525547498631
 20
-34.996157494715824
 30
0.0
 11
888.9589562386229
 21
-34.99616158319716
 31
0.0
  0
LINE
  5
15A
330
17
100
AcDbEntity
  8
0
100
AcDbLine
 10
888.9589562386229
 20
-34.99616158319716
 30
0.0
 11
889.0244395339729
 21
-34.99573374509533
 31
0.0
  0
LINE
  5
15B
330
17
100
AcDbEntity
  8
0
100
AcDbLine
 10
889.0244395339729
 20
-34.99573374509533
 30
0.0
 11
889.0899116486006
 21
-34.99445030383959
 31
0.0
  0
LINE
  5
15C
330
17
100
AcDbEntity
  8
0
100
AcDbLine
 10
889.0899116486006
 20
-34.99445030383959
 30
0.0
 11
889.1553614036939
 21
-34.992311478566755
 31
0.0
  0
LINE
  5
15D
330
17
100
AcDbEntity
  8
0
100
AcDbLine
 10
889.1553614036939
 20
-34.992311478566755
 30
0.0
 11
889.2207776242572
 21
-34.989317634463234
 31
0.0
  0
LINE
  5
15E
330
17
100
AcDbEntity
  8
0
100
AcDbLine
 10
889.2207776242572
 20
-34.989317634463234
 30
0.0
 11
889.2861491410212
 21
-34.98546928270274
 31
0.0
  0
LINE
  5
15F
330
17
100
AcDbEntity
  8
0
100
AcDbLine
 10
889.2861491410212
 20
-34.98546928270274
 30
0.0
 11
889.3514647923495
 21
-34.980767080358945
 31
0.0
  0
LINE
  5
160
330
17
100
AcDbEntity
  8
0
100
AcDbLine
 10
889.3514647923495
 20
-34.980767080358945
 30
0.0
 11
889.4167134261436
 21
-34.97521183029336
 31
0.0
  0
LINE
  5
161
330
17
100
AcDbEntity
  8
0
100
AcDbLine
 10
889.4167134261436
 20
-34.97521183029336
 30
0.0
 11
889.4818839017485
 21
-34.9688044810182
 31
0.0
  0
LINE
  5
162
330
17
100
AcDbEntity
  8
0
100
AcDbLine
 10
889.4818839017485
 20
-34.9688044810182
 30
0.0
 11
889.5469650918535
 21
-34.96154612653447
 31
0.0
  0
LINE
  5
163
330
17
100
AcDbEntity
  8
0
100
AcDbLine
 10
889.5469650918535
 20
-34.96154612653447
 30
0.0
 11
889.6119458843931
 21
-34.95343800614513
 31
0.0
  0
LINE
  5
164
330
17
100
AcDbEntity
  8
0
100
AcDbLine
 10
889.6119458843931
 20
-34.95343800614513
 30
0.0
 11
889.6768151844432
 21
-34.94448150424354
 31
0.0
  0
LINE
  5
165
330
17
100
AcDbEntity
  8
0
100
AcDbLine
 10
889.6768151844432
 20
-34.94448150424354
 30
0.0
 11
889.7415619161167
 21
-34.934678150077055
 31
0.0
  0
LINE
  5
166
330
17
100
AcDbEntity
  8
0
100
AcDbLine
 10
889.7415619161167
 20
-34.934678150077055
 30
0.0
 11
889.8061750244536
 21
-34.92402961748595
 31
0.0
  0
LINE
  5
167
330
17
100
AcDbEntity
  8
0
100
AcDbLine
 10
889.8061750244536
 20
-34.92402961748595
 30
0.0
 11
889.8706434773093
 21
-34.91253772461758
 31
0.0
  0
LINE
  5
168
330
17
100
AcDbEntity
  8
0
100
AcDbLine
 10
889.8706434773093
 20
-34.91253772461758
 30
0.0
 11
889.9349562672376
 21
-34.900204433616
 31
0.0
  0
LINE
  5
169
330
17
100
AcDbEntity
  8
0
100
AcDbLine
 10
889.9349562672376
 20
-34.900204433616
 30
0.0
 11
889.9991024133709
 21
-34.887031850286895
 31
0.0
  0
LINE
  5
16A
330
17
100
AcDbEntity
  8
0
100
AcDbLine
 10
889.9991024133709
 20
-34.887031850286895
 30
0.0
 11
890.063070963294
 21
-34.873022223738076
 31
0.0
  0
LINE
  5
16B
330
17
100
AcDbEntity
  8
0
100
AcDbLine
 10
890.063070963294
 20
-34.873022223738076
 30
0.0
 11
890.1268509949152
 21
-34.85817794599543
 31
0.0
  0
LINE
  5
16C
330
17
100
AcDbEntity
  8
0
100
AcDbLine
 10
890.1268509949152
 20
-34.85817794599543
 30
0.0
 11
890.1904316183305
 21
-34.842501551594516
 31
0.0
  0
LINE
  5
16D
330
17
100
AcDbEntity
  8
0
100
AcDbLine
 10
890.1904316183305
 20
-34.842501551594516
 30
0.0
 11
890.2538019776836
 21
-34.82599571714782
 31
0.0
  0
LINE
  5
16E
330
17
100
AcDbEntity
  8
0
100
AcDbLine
 10
890.2538019776836
 20
-34.82599571714782
 30
0.0
 11
890.3169512530183
 21
-34.80866326088773
 31
0.0
  0
LINE
  5
16F
330
17
100
AcDbEntity
  8
0
100
AcDbLine
 10
890.3169512530183
 20
-34.80866326088773
 30
0.0
 11
890.379868662127
 21
-34.790507142185355
 31
0.0
  0
LINE
  5
170
330
17
100
AcDbEntity
  8
0
100
AcDbLine
 10
890.379868662127
 20
-34.790507142185355
 30
0.0
 11
890.4425434623918
 21
-34.771530461045245
 31
0.0
  0
LINE
  5
171
330
17
100
AcDbEntity
  8
0
100
AcDbLine
 10
890.4425434623918
 20
-34.771530461045245
 30
0.0
 11
890.5049649526172
 21
-34.75173645757609
 31
0.0
  0
LINE
  5
172
330
17
100
AcDbEntity
  8
0
100
AcDbLine
 10
890.5049649526172
 20
-34.75173645757609
 30
0.0
 11
890.5671224748592
 21
-34.73112851143747
 31
0.0
  0
LINE
  5
173
330
17
100
AcDbEntity
  8
0
100
AcDbLine
 10
890.5671224748592
 20
-34.73112851143747
 30
0.0
 11
890.6290054162433
 21
-34.70971014126285
 31
0.0
  0
LINE
  5
174
330
17
100
AcDbEntity
  8
0
100
AcDbLine
 10
890.6290054162433
 20
-34.70971014126285
 30
0.0
 11
890.6906032107782
 21
-34.68748500405878
 31
0.0
  0
LINE
  5
175
330
17
100
AcDbEntity
  8
0
100
AcDbLine
 10
890.6906032107782
 20
-34.68748500405878
 30
0.0
 11
890.7519053411585
 21
-34.66445689458048
 31
0.0
  0
LINE
  5
176
330
17
100
AcDbEntity
  8
0
100
AcDbLine
 10
890.7519053411585
 20
-34.66445689458048
 30
0.0
 11
890.8129013405611
 21
-34.64062974468395
 31
0.0
  0
LINE
  5
177
330
17
100
AcDbEntity
  8
0
100
AcDbLine
 10
890.8129013405611
 20
-34.64062974468395
 30
0.0
 11
890.873580794432
 21
-34.6160076226546
 31
0.0
  0
LINE
  5
178
330
17
100
AcDbEntity
  8
0
100
AcDbLine
 10
890.873580794432
 20
-34.6160076226546
 30
0.0
 11
890.9339333422652
 21
-34.59059473251266
 31
0.0
  0
LINE
  5
179
330
17
100
AcDbEntity
  8
0
100
AcDbLine
 10
890.9339333422652
 20
-34.59059473251266
 30
0.0
 11
890.9939486793703
 21
-34.56439541329537
 31
0.0
  0
LINE
  5
17A
330
17
100
AcDbEntity
  8
0
100
AcDbLine
 10
890.9939486793703
 20
-34.56439541329537
 30
0.0
 11
891.0536165586338
 21
-34.537414138316095
 31
0.0
  0
LINE
  5
17B
330
17
100
AcDbEntity
  8
0
100
AcDbLine
 10
891.0536165586338
 20
-34.537414138316095
 30
0.0
 11
891.1129267922669
 21
-34.50965551440059
 31
0.0
  0
LINE
  5
17C
330
17
100
AcDbEntity
  8
0
100
AcDbLine
 10
891.1129267922669
 20
-34.50965551440059
 30
0.0
 11
891.1718692535463
 21
-34.4811242811004
 31
0.0
  0
LINE
  5
17D
330
17
100
AcDbEntity
  8
0
100
AcDbLine
 10
891.1718692535463
 20
-34.4811242811004
 30
0.0
 11
891.2304338785425
 21
-34.45182530988361
 31
0.0
  0
LINE
  5
17E
330
17
100
AcDbEntity
  8
0
100
AcDbLine
 10
891.2304338785425
 20
-34.45182530988361
 30
0.0
 11
891.2886106678384
 21
-34.421763603303106
 31
0.0
  0
LINE
  5
17F
330
17
100
AcDbEntity
  8
0
100
AcDbLine
 10
891.2886106678384
 20
-34.421763603303106
 30
0.0
 11
891.3463896882365
 21
-34.39094429414242
 31
0.0
  0
LINE
  5
180
330
17
100
AcDbEntity
  8
0
100
AcDbLine
 10
891.3463896882365
 20
-34.39094429414242
 30
0.0
 11
891.4037610744551
 21
-34.35937264453936
 31
0.0
  0
LINE
  5
181
330
17
100
AcDbEntity
  8
0
100
AcDbLine
 10
891.4037610744551
 20
-34.35937264453936
 30
0.0
 11
891.4607150308126
 21
-34.32705404508752
 31
0.0
  0
LINE
  5
182
330
17
100
AcDbEntity
  8
0
100
AcDbLine
 10
891.4607150308126
 20
-34.32705404508752
 30
0.0
 11
891.5172418329
 21
-34.29399401391591
 31
0.0
  0
LINE
  5
183
330
17
100
AcDbEntity
  8
0
100
AcDbLine
 10
891.5172418329
 20
-34.29399401391591
 30
0.0
 11
891.5733318292414
 21
-34.26019819574677
 31
0.0
  0
LINE
  5
184
330
17
100
AcDbEntity
  8
0
100
AcDbLine
 10
891.5733318292414
 20
-34.26019819574677
 30
0.0
 11
891.6289754429419
 21
-34.22567236093177
 31
0.0
  0
LINE
  5
185
330
17
100
AcDbEntity
  8
0
100
AcDbLine
 10
891.6289754429419
 20
-34.22567236093177
 30
0.0
 11
891.6841631733221
 21
-34.19042240446679
 31
0.0
  0
LINE
  5
186
330
17
100
AcDbEntity
  8
0
100
AcDbLine
 10
891.6841631733221
 20
-34.19042240446679
 30
0.0
 11
891.7388855975414
 21
-34.154454344985396
 31
0.0
  0
LINE
  5
187
330
17
100
AcDbEntity
  8
0
100
AcDbLine
 10
891.7388855975414
 20
-34.154454344985396
 30
0.0
 11
891.7931333722064
 21
-34.11777432373118
 31
0.0
  0
LINE
  5
188
330
17
100
AcDbEntity
  8
0
100
AcDbLine
 10
891.7931333722064
 20
-34.11777432373118
 30
0.0
 11
891.8468972349657
 21
-34.080388603509256
 31
0.0
  0
LINE
  5
189
330
17
100
AcDbEntity
  8
0
100
AcDbLine
 10
891.8468972349657
 20
-34.080388603509256
 30
0.0
 11
891.9001680060917
 21
-34.04230356761686
 31
0.0
  0
LINE
  5
18A
330
17
100
AcDbEntity
  8
0
100
AcDbLine
 10
891.9001680060917
 20
-34.04230356761686
 30
0.0
 11
891.9529365900489
 21
-34.00352571875354
 31
0.0
  0
LINE
  5
18B
330
17
100
AcDbEntity
  8
0
100
AcDbLine
 10
891.9529365900489
 20
-34.00352571875354
 30
0.0
 11
892.0051939770451
 21
-33.96406167791078
 31
0.0
  0
LINE
  5
18C
330
17
100
AcDbEntity
  8
0
100
AcDbLine
 10
892.0051939770451
 20
-33.96406167791078
 30
0.0
 11
892.056931244571
 21
-33.92391818324161
 31
0.0
  0
LINE
  5
18D
330
17
100
AcDbEntity
  8
0
100
AcDbLine
 10
892.056931244571
 20
-33.92391818324161
 30
0.0
 11
892.1081395589234
 21
-33.88310208891008
 31
0.0
  0
LINE
  5
18E
330
17
100
AcDbEntity
  8
0
100
AcDbLine
 10
892.1081395589234
 20
-33.88310208891008
 30
0.0
 11
892.1588101767137
 21
-33.84162036392097
 31
0.0
  0
LINE
  5
18F
330
17
100
AcDbEntity
  8
0
100
AcDbLine
 10
892.1588101767137
 20
-33.84162036392097
 30
0.0
 11
892.2089344463596
 21
-33.79948009092988
 31
0.0
  0
LINE
  5
190
330
17
100
AcDbEntity
  8
0
100
AcDbLine
 10
892.2089344463596
 20
-33.79948009092988
 30
0.0
 11
892.258503809564
 21
-33.75668846503398
 31
0.0
  0
LINE
  5
191
330
17
100
AcDbEntity
  8
0
100
AcDbLine
 10
892.258503809564
 20
-33.75668846503398
 30
0.0
 11
892.307509802775
 21
-33.713252792543436
 31
0.0
  0
LINE
  5
192
330
17
100
AcDbEntity
  8
0
100
AcDbLine
 10
892.307509802775
 20
-33.713252792543436
 30
0.0
 11
892.3559440586315
 21
-33.66918048973397
 31
0.0
  0
LINE
  5
193
330
17
100
AcDbEntity
  8
0
100
AcDbLine
 10
892.3559440586315
 20
-33.66918048973397
 30
0.0
 11
892.4037983073919
 21
-33.62447908158055
 31
0.0
  0
LINE
  5
194
330
17
100
AcDbEntity
  8
0
100
AcDbLine
 10
892.4037983073919
 20
-33.62447908158055
 30
0.0
 11
892.4510643783454
 21
-33.57915620047264
 31
0.0
  0
LINE
  5
195
330
17
100
AcDbEntity
  8
0
100
AcDbLine
 10
892.4510643783454
 20
-33.57915620047264
 30
0.0
 11
892.4977342012081
 21
-33.53321958491093
 31
0.0
  0
LINE
  5
196
330
17
100
AcDbEntity
  8
0
100
AcDbLine
 10
892.4977342012081
 20
-33.53321958491093
 30
0.0
 11
892.5437998075004
 21
-33.48667707818613
 31
0.0
  0
LINE
  5
197
330
17
100
AcDbEntity
  8
0
100
AcDbLine
 10
892.5437998075004
 20
-33.48667707818613
 30
0.0
 11
892.5892533319073
 21
-33.43953662703978
 31
0.0
  0
LINE
  5
198
330
17
100
AcDbEntity
  8
0
100
AcDbLine
 10
892.5892533319073
 20
-33.43953662703978
 30
0.0
 11
892.6340870136223
 21
-33.39180628030738
 31
0.0
  0
LINE
  5
199
330
17
100
AcDbEntity
  8
0
100
AcDbLine
 10
892.6340870136223
 20
-33.39180628030738
 30
0.0
 11
892.678293197671
 21
-33.343494187544145
 31
0.0
  0
LINE
  5
19A
330
17
100
AcDbEntity
  8
0
100
AcDbLine
 10
892.678293197671
 20
-33.343494187544145
 30
0.0
 11
892.7218643362193
 21
-33.29460859763354
 31
0.0
  0
LINE
  5
19B
330
17
100
AcDbEntity
  8
0
100
AcDbLine
 10
892.7218643362193
 20
-33.29460859763354
 30
0.0
 11
892.7647929898618
 21
-33.245157857378835
 31
0.0
  0
LINE
  5
19C
330
17
100
AcDbEntity
  8
0
100
AcDbLine
 10
892.7647929898618
 20
-33.245157857378835
 30
0.0
 11
892.8070718288922
 21
-33.19515041007797
 31
0.0
  0
LINE
  5
19D
330
17
100
AcDbEntity
  8
0
100
AcDbLine
 10
892.8070718288922
 20
-33.19515041007797
 30
0.0
 11
892.8486936345543
 21
-33.14459479408193
 31
0.0
  0
LINE
  5
19E
330
17
100
AcDbEntity
  8
0
100
AcDbLine
 10
892.8486936345543
 20
-33.14459479408193
 30
0.0
 11
892.8896513002746
 21
-33.093499641336905
 31
0.0
  0
LINE
  5
19F
330
17
100
AcDbEntity
  8
0
100
AcDbLine
 10
892.8896513002746
 20
-33.093499641336905
 30
0.0
 11
892.9299378328767
 21
-33.04187367591042
 31
0.0
  0
LINE
  5
1A0
330
17
100
AcDbEntity
  8
0
100
AcDbLine
 10
892.9299378328767
 20
-33.04187367591042
 30
0.0
 11
892.9695463537736
 21
-32.98972571250182
 31
0.0
  0
LINE
  5
1A1
330
17
100
AcDbEntity
  8
0
100
AcDbLine
 10
892.9695463537736
 20
-32.98972571250182
 30
0.0
 11
893.0084701001437
 21
-32.937064654937224
 31
0.0
  0
LINE
  5
1A2
330
17
100
AcDbEntity
  8
0
100
AcDbLine
 10
893.0084701001437
 20
-32.937064654937224
 30
0.0
 11
893.0467024260847
 21
-32.88389949464924
 31
0.0
  0
LINE
  5
1A3
330
17
100
AcDbEntity
  8
0
100
AcDbLine
 10
893.0467024260847
 20
-32.88389949464924
 30
0.0
 11
893.0842368037484
 21
-32.830239309141774
 31
0.0
  0
LINE
  5
1A4
330
17
100
AcDbEntity
  8
0
100
AcDbLine
 10
893.0842368037484
 20
-32.830239309141774
 30
0.0
 11
893.1210668244557
 21
-32.776093260440156
 31
0.0
  0
LINE
  5
1A5
330
17
100
AcDbEntity
  8
0
100
AcDbLine
 10
893.1210668244557
 20
-32.776093260440156
 30
0.0
 11
893.1571861997905
 21
-32.72147059352673
 31
0.0
  0
LINE
  5
1A6
330
17
100
AcDbEntity
  8
0
100
AcDbLine
 10
893.1571861997905
 20
-32.72147059352673
 30
0.0
 11
893.1925887626729
 21
-32.666380634762426
 31
0.0
  0
LINE
  5
1A7
330
17
100
AcDbEntity
  8
0
100
AcDbLine
 10
893.1925887626729
 20
-32.666380634762426
 30
0.0
 11
893.2272684684135
 21
-32.6108327902943
 31
0.0
  0
LINE
  5
1A8
330
17
100
AcDbEntity
  8
0
100
AcDbLine
 10
893.2272684684135
 20
-32.6108327902943
 30
0.0
 11
893.261219395744
 21
-32.55483654444956
 31
0.0
  0
LINE
  5
1A9
330
17
100
AcDbEntity
  8
0
100
AcDbLine
 10
893.261219395744
 20
-32.55483654444956
 30
0.0
 11
893.2944357478293
 21
-32.49840145811615
 31
0.0
  0
LINE
  5
1AA
330
17
100
AcDbEntity
  8
0
100
AcDbLine
 10
893.2944357478293
 20
-32.49840145811615
 30
0.0
 11
893.3269118532563
 21
-32.44153716711037
 31
0.0
  0
LINE
  5
1AB
330
17
100
AcDbEntity
  8
0
100
AcDbLine
 10
893.3269118532563
 20
-32.44153716711037
 30
0.0
 11
893.3586421670036
 21
-32.38425338053158
 31
0.0
  0
LINE
  5
1AC
330
17
100
AcDbEntity
  8
0
100
AcDbLine
 10
893.3586421670036
 20
-32.38425338053158
 30
0.0
 11
893.3896212713869
 21
-32.32655987910451
 31
0.0
  0
LINE
  5
1AD
330
17
100
AcDbEntity
  8
0
100
AcDbLine
 10
893.3896212713869
 20
-32.32655987910451
 30
0.0
 11
893.4198438769846
 21
-32.26846651350922
 31
0.0
  0
LINE
  5
1AE
330
17
100
AcDbEntity
  8
0
100
AcDbLine
 10
893.4198438769846
 20
-32.26846651350922
 30
0.0
 11
893.4493048235412
 21
-32.20998320269923
 31
0.0
  0
LINE
  5
1AF
330
17
100
AcDbEntity
  8
0
100
AcDbLine
 10
893.4493048235412
 20
-32.20998320269923
 30
0.0
 11
893.4779990808478
 21
-32.15111993220793
 31
0.0
  0
LINE
  5
1B0
330
17
100
AcDbEntity
  8
0
100
AcDbLine
 10
893.4779990808478
 20
-32.15111993220793
 30
0.0
 11
893.505921749601
 21
-32.09188675244362
 31
0.0
  0
LINE
  5
1B1
330
17
100
AcDbEntity
  8
0
100
AcDbLine
 10
893.505921749601
 20
-32.09188675244362
 30
0.0
 11
893.5330680622407
 21
-32.03229377697351
 31
0.0
  0
LINE
  5
1B2
330
17
100
AcDbEntity
  8
0
100
AcDbLine
 10
893.5330680622407
 20
-32.03229377697351
 30
0.0
 11
893.5594333837618
 21
-31.972351180796885
 31
0.0
  0
LINE
  5
1B3
330
17
100
AcDbEntity
  8
0
100
AcDbLine
 10
893.5594333837618
 20
-31.972351180796885
 30
0.0
 11
893.5850132125075
 21
-31.912069198607828
 31
0.0
  0
LINE
  5
1B4
330
17
100
AcDbEntity
  8
0
100
AcDbLine
 10
893.5850132125075
 20
-31.912069198607828
 30
0.0
 11
893.6098031809374
 21
-31.85145812304773
 31
0.0
  0
LINE
  5
1B5
330
17
100
AcDbEntity
  8
0
100
AcDbLine
 10
893.6098031809374
 20
-31.85145812304773
 30
0.0
 11
893.6337990563727
 21
-31.79052830294792
 31
0.0
  0
LINE
  5
1B6
330
17
100
AcDbEntity
  8
0
100
AcDbLine
 10
893.6337990563727
 20
-31.79052830294792
 30
0.0
 11
893.6569967417198
 21
-31.729290141562657
 31
0.0
  0
LINE
  5
1B7
330
17
100
AcDbEntity
  8
0
100
AcDbLine
 10
893.6569967417198
 20
-31.729290141562657
 30
0.0
 11
893.6793922761688
 21
-31.667754094792894
 31
0.0
  0
LINE
  5
1B8
330
17
100
AcDbEntity
  8
0
100
AcDbLine
 10
893.6793922761688
 20
-31.667754094792894
 30
0.0
 11
893.7009818358705
 21
-31.605930669400998
 31
0.0
  0
LINE
  5
1B9
330
17
100
AcDbEntity
  8
0
100
AcDbLine
 10
893.7009818358705
 20
-31.605930669400998
 30
0.0
 11
893.7217617345894
 21
-31.543830421216818
 31
0.0
  0
LINE
  5
1BA
330
17
100
AcDbEntity
  8
0
100
AcDbLine
 10
893.7217617345894
 20
-31.543830421216818
 30
0.0
 11
893.7417284243327
 21
-31.481463953335385
 31
0.0
  0
LINE
  5
1BB
330
17
100
AcDbEntity
  8
0
100
AcDbLine
 10
893.7417284243327
 20
-31.481463953335385
 30
0.0
 11
893.7608784959557
 21
-31.418841914306476
 31
0.0
  0
LINE
  5
1BC
330
17
100
AcDbEntity
  8
0
100
AcDbLine
 10
893.7608784959557
 20
-31.418841914306476
 30
0.0
 11
893.7792086797448
 21
-31.355974996316515
 31
0.0
  0
LINE
  5
1BD
330
17
100
AcDbEntity
  8
0
100
AcDbLine
 10
893.7792086795042
 20
31.355974996134083
 30
0.0
 11
893.9505991053327
 21
30.737891955274108
 31
0.0
  0
LINE
  5
1BE
330
17
100
AcDbEntity
  8
0
100
AcDbLine
 10
893.9505991053327
 20
30.737891955274108
 30
0.0
 11
894.1185749012604
 21
30.11887220159348
 31
0.0
  0
LINE
  5
1BF
330
17
100
AcDbEntity
  8
0
100
AcDbLine
 10
894.1185749012604
 20
30.11887220159348
 30
0.0
 11
894.2831309483587
 21
29.49893459922706
 31
0.0
  0
LINE
  5
1C0
330
17
100
AcDbEntity
  8
0
100
AcDbLine
 10
894.2831309483587
 20
29.49893459922706
 30
0.0
 11
894.4442622319125
 21
28.878098040280435
 31
0.0
  0
LINE
  5
1C1
330
17
100
AcDbEntity
  8
0
100
AcDbLine
 10
894.4442622319125
 20
28.878098040280435
 30
0.0
 11
894.6019638415743
 21
28.256381444254167
 31
0.0
  0
LINE
  5
1C2
330
17
100
AcDbEntity
  8
0
100
AcDbLine
 10
894.6019638415743
 20
28.256381444254167
 30
0.0
 11
894.7562309715128
 21
27.633803757467263
 31
0.0
  0
LINE
  5
1C3
330
17
100
AcDbEntity
  8
0
100
AcDbLine
 10
894.7562309715128
 20
27.633803757467263
 30
0.0
 11
894.9070589205598
 21
27.01038395247977
 31
0.0
  0
LINE
  5
1C4
330
17
100
AcDbEntity
  8
0
100
AcDbLine
 10
894.9070589205598
 20
27.01038395247977
 30
0.0
 11
895.0544430923536
 21
26.38614102751463
 31
0.0
  0
LINE
  5
1C5
330
17
100
AcDbEntity
  8
0
100
AcDbLine
 10
895.0544430923536
 20
26.38614102751463
 30
0.0
 11
895.1983789954788
 21
25.761094005878697
 31
0.0
  0
LINE
  5
1C6
330
17
100
AcDbEntity
  8
0
100
AcDbLine
 10
895.1983789954788
 20
25.761094005878697
 30
0.0
 11
895.3388622436029
 21
25.13526193538305
 31
0.0
  0
LINE
  5
1C7
330
17
100
AcDbEntity
  8
0
100
AcDbLine
 10
895.3388622436029
 20
25.13526193538305
 30
0.0
 11
895.4758885556109
 21
24.5086638877625
 31
0.0
  0
LINE
  5
1C8
330
17
100
AcDbEntity
  8
0
100
AcDbLine
 10
895.4758885556109
 20
24.5086638877625
 30
0.0
 11
895.6094537557348
 21
23.881318958094393
 31
0.0
  0
LINE
  5
1C9
330
17
100
AcDbEntity
  8
0
100
AcDbLine
 10
895.6094537557348
 20
23.881318958094393
 30
0.0
 11
895.739553773681
 21
23.253246264216727
 31
0.0
  0
LINE
  5
1CA
330
17
100
AcDbEntity
  8
0
100
AcDbLine
 10
895.739553773681
 20
23.253246264216727
 30
0.0
 11
895.8661846447554
 21
22.62446494614553
 31
0.0
  0
LINE
  5
1CB
330
17
100
AcDbEntity
  8
0
100
AcDbLine
 10
895.8661846447554
 20
22.62446494614553
 30
0.0
 11
895.9893425099826
 21
21.994994165491583
 31
0.0
  0
LINE
  5
1CC
330
17
100
AcDbEntity
  8
0
100
AcDbLine
 10
895.9893425099826
 20
21.994994165491583
 30
0.0
 11
896.1090236162245
 21
21.364853104876495
 31
0.0
  0
LINE
  5
1CD
330
17
100
AcDbEntity
  8
0
100
AcDbLine
 10
896.1090236162245
 20
21.364853104876495
 30
0.0
 11
896.2252243162945
 21
20.73406096734813
 31
0.0
  0
LINE
  5
1CE
330
17
100
AcDbEntity
  8
0
100
AcDbLine
 10
896.2252243162945
 20
20.73406096734813
 30
0.0
 11
896.3379410690691
 21
20.102636975795395
 31
0.0
  0
LINE
  5
1CF
330
17
100
AcDbEntity
  8
0
100
AcDbLine
 10
896.3379410690691
 20
20.102636975795395
 30
0.0
 11
896.4471704395943
 21
19.470600372362448
 31
0.0
  0
LINE
  5
1D0
330
17
100
AcDbEntity
  8
0
100
AcDbLine
 10
896.4471704395943
 20
19.470600372362448
 30
0.0
 11
896.5529090991921
 21
18.83797041786231
 31
0.0
  0
LINE
  5
1D1
330
17
100
AcDbEntity
  8
0
100
AcDbLine
 10
896.5529090991921
 20
18.83797041786231
 30
0.0
 11
896.6551538255609
 21
18.2047663911899
 31
0.0
  0
LINE
  5
1D2
330
17
100
AcDbEntity
  8
0
100
AcDbLine
 10
896.6551538255609
 20
18.2047663911899
 30
0.0
 11
896.7539015028741
 21
17.57100758873454
 31
0.0
  0
LINE
  5
1D3
330
17
100
AcDbEntity
  8
0
100
AcDbLine
 10
896.7539015028741
 20
17.57100758873454
 30
0.0
 11
896.8491491218743
 21
16.93671332379188
 31
0.0
  0
LINE
  5
1D4
330
17
100
AcDbEntity
  8
0
100
AcDbLine
 10
896.8491491218743
 20
16.93671332379188
 30
0.0
 11
896.9408937799667
 21
16.30190292597539
 31
0.0
  0
LINE
  5
1D5
330
17
100
AcDbEntity
  8
0
100
AcDbLine
 10
896.9408937799667
 20
16.30190292597539
 30
0.0
 11
897.0291326813053
 21
15.666595740627267
 31
0.0
  0
LINE
  5
1D6
330
17
100
AcDbEntity
  8
0
100
AcDbLine
 10
897.0291326813053
 20
15.666595740627267
 30
0.0
 11
897.1138631368798
 21
15.030811128228887
 31
0.0
  0
LINE
  5
1D7
330
17
100
AcDbEntity
  8
0
100
AcDbLine
 10
897.1138631368798
 20
15.030811128228887
 30
0.0
 11
897.195082564597
 21
14.394568463810936
 31
0.0
  0
LINE
  5
1D8
330
17
100
AcDbEntity
  8
0
100
AcDbLine
 10
897.195082564597
 20
14.394568463810936
 30
0.0
 11
897.2727884893593
 21
13.757887136362722
 31
0.0
  0
LINE
  5
1D9
330
17
100
AcDbEntity
  8
0
100
AcDbLine
 10
897.2727884893593
 20
13.757887136362722
 30
0.0
 11
897.3469785431406
 21
13.120786548241542
 31
0.0
  0
LINE
  5
1DA
330
17
100
AcDbEntity
  8
0
100
AcDbLine
 10
897.3469785431406
 20
13.120786548241542
 30
0.0
 11
897.4176504650578
 21
12.483286114581368
 31
0.0
  0
LINE
  5
1DB
330
17
100
AcDbEntity
  8
0
100
AcDbLine
 10
897.4176504650578
 20
12.483286114581368
 30
0.0
 11
897.4848021014406
 21
11.845405262701075
 31
0.0
  0
LINE
  5
1DC
330
17
100
AcDbEntity
  8
0
100
AcDbLine
 10
897.4848021014406
 20
11.845405262701075
 30
0.0
 11
897.5484314058958
 21
11.207163431512512
 31
0.0
  0
LINE
  5
1DD
330
17
100
AcDbEntity
  8
0
100
AcDbLine
 10
897.5484314058958
 20
11.207163431512512
 30
0.0
 11
897.6085364393713
 21
10.568580070928077
 31
0.0
  0
LINE
  5
1DE
330
17
100
AcDbEntity
  8
0
100
AcDbLine
 10
897.6085364393713
 20
10.568580070928077
 30
0.0
 11
897.6651153702137
 21
9.92967464126801
 31
0.0
  0
LINE
  5
1DF
330
17
100
AcDbEntity
  8
0
100
AcDbLine
 10
897.6651153702137
 20
9.92967464126801
 30
0.0
 11
897.7181664742253
 21
9.290466612667348
 31
0.0
  0
LINE
  5
1E0
330
17
100
AcDbEntity
  8
0
100
AcDbLine
 10
897.7181664742253
 20
9.290466612667348
 30
0.0
 11
897.7676881347157
 21
8.650975464482594
 31
0.0
  0
LINE
  5
1E1
330
17
100
AcDbEntity
  8
0
100
AcDbLine
 10
897.7676881347157
 20
8.650975464482594
 30
0.0
 11
897.813678842552
 21
8.011220684698086
 31
0.0
  0
LINE
  5
1E2
330
17
100
AcDbEntity
  8
0
100
AcDbLine
 10
897.813678842552
 20
8.011220684698086
 30
0.0
 11
897.8561371962035
 21
7.371221769332136
 31
0.0
  0
LINE
  5
1E3
330
17
100
AcDbEntity
  8
0
100
AcDbLine
 10
897.8561371962035
 20
7.371221769332136
 30
0.0
 11
897.895061901786
 21
6.730998221842888
 31
0.0
  0
LINE
  5
1E4
330
17
100
AcDbEntity
  8
0
100
AcDbLine
 10
897.895061901786
 20
6.730998221842888
 30
0.0
 11
897.9304517730997
 21
6.090569552533972
 31
0.0
  0
LINE
  5
1E5
330
17
100
AcDbEntity
  8
0
100
AcDbLine
 10
897.9304517730997
 20
6.090569552533972
 30
0.0
 11
897.9623057316666
 21
5.449955277959942
 31
0.0
  0
LINE
  5
1E6
330
17
100
AcDbEntity
  8
0
100
AcDbLine
 10
897.9623057316666
 20
5.449955277959942
 30
0.0
 11
897.9906228067625
 21
4.809174920331529
 31
0.0
  0
LINE
  5
1E7
330
17
100
AcDbEntity
  8
0
100
AcDbLine
 10
897.9906228067625
 20
4.809174920331529
 30
0.0
 11
898.0154021354474
 21
4.168248006920707
 31
0.0
  0
LINE
  5
1E8
330
17
100
AcDbEntity
  8
0
100
AcDbLine
 10
898.0154021354474
 20
4.168248006920707
 30
0.0
 11
898.0366429625906
 21
3.5271940694656245
 31
0.0
  0
LINE
  5
1E9
330
17
100
AcDbEntity
  8
0
100
AcDbLine
 10
898.0366429625906
 20
3.5271940694656245
 30
0.0
 11
898.0543446408949
 21
2.886032643575387
 31
0.0
  0
LINE
  5
1EA
330
17
100
AcDbEntity
  8
0
100
AcDbLine
 10
898.0543446408949
 20
2.886032643575387
 30
0.0
 11
898.0685066309157
 21
2.2447832681347224
 31
0.0
  0
LINE
  5
1EB
330
17
100
AcDbEntity
  8
0
100
AcDbLine
 10
898.0685066309157
 20
2.2447832681347224
 30
0.0
 11
898.0791285010778
 21
1.6034654847085532
 31
0.0
  0
LINE
  5
1EC
330
17
100
AcDbEntity
  8
0
100
AcDbLine
 10
898.0791285010778
 20
1.6034654847085532
 30
0.0
 11
898.0862099276878
 21
0.9620988369464805
 31
0.0
  0
LINE
  5
1ED
330
17
100
AcDbEntity
  8
0
100
AcDbLine
 10
898.0862099276878
 20
0.9620988369464805
 30
0.0
 11
898.0897506949452
 21
0.3207028699872063
 31
0.0
  0
LINE
  5
1EE
330
17
100
AcDbEntity
  8
0
100
AcDbLine
 10
898.0897506949452
 20
0.3207028699872063
 30
0.0
 11
898.0897506949476
 21
-0.3207028701370872
 31
0.0
  0
LINE
  5
1EF
330
17
100
AcDbEntity
  8
0
100
AcDbLine
 10
898.0897506949476
 20
-0.3207028701370872
 30
0.0
 11
898.0862099276953
 21
-0.962098837096389
 31
0.0
  0
LINE
  5
1F0
330
17
100
AcDbEntity
  8
0
100
AcDbLine
 10
898.0862099276953
 20
-0.962098837096389
 30
0.0
 11
898.0791285010902
 21
-1.603465484858517
 31
0.0
  0
LINE
  5
1F1
330
17
100
AcDbEntity
  8
0
100
AcDbLine
 10
898.0791285010902
 20
-1.603465484858517
 30
0.0
 11
898.0685066309333
 21
-2.2447832682847686
 31
0.0
  0
LINE
  5
1F2
330
17
100
AcDbEntity
  8
0
100
AcDbLine
 10
898.0685066309333
 20
-2.2447832682847686
 30
0.0
 11
898.0543446409175
 21
-2.8860326437255432
 31
0.0
  0
LINE
  5
1F3
330
17
100
AcDbEntity
  8
0
100
AcDbLine
 10
898.0543446409175
 20
-2.8860326437255432
 30
0.0
 11
898.0366429626181
 21
-3.5271940696159194
 31
0.0
  0
LINE
  5
1F4
330
17
100
AcDbEntity
  8
0
100
AcDbLine
 10
898.0366429626181
 20
-3.5271940696159194
 30
0.0
 11
898.0154021354799
 21
-4.168248007071168
 31
0.0
  0
LINE
  5
1F5
330
17
100
AcDbEntity
  8
0
100
AcDbLine
 10
898.0154021354799
 20
-4.168248007071168
 30
0.0
 11
897.9906228068
 21
-4.8091749204821825
 31
0.0
  0
LINE
  5
1F6
330
17
100
AcDbEntity
  8
0
100
AcDbLine
 10
897.9906228068
 20
-4.8091749204821825
 30
0.0
 11
897.9623057317091
 21
-5.449955278110817
 31
0.0
  0
LINE
  5
1F7
330
17
100
AcDbEntity
  8
0
100
AcDbLine
 10
897.9623057317091
 20
-5.449955278110817
 30
0.0
 11
897.9304517731471
 21
-6.0905695526850945
 31
0.0
  0
LINE
  5
1F8
330
17
100
AcDbEntity
  8
0
100
AcDbLine
 10
897.9304517731471
 20
-6.0905695526850945
 30
0.0
 11
897.8950619018383
 21
-6.7309982219942865
 31
0.0
  0
LINE
  5
1F9
330
17
100
AcDbEntity
  8
0
100
AcDbLine
 10
897.8950619018383
 20
-6.7309982219942865
 30
0.0
 11
897.856137196261
 21
-7.37122176948384
 31
0.0
  0
LINE
  5
1FA
330
17
100
AcDbEntity
  8
0
100
AcDbLine
 10
897.856137196261
 20
-7.37122176948384
 30
0.0
 11
897.8136788426143
 21
-8.011220684850121
 31
0.0
  0
LINE
  5
1FB
330
17
100
AcDbEntity
  8
0
100
AcDbLine
 10
897.8136788426143
 20
-8.011220684850121
 30
0.0
 11
897.7676881347832
 21
-8.650975464634985
 31
0.0
  0
LINE
  5
1FC
330
17
100
AcDbEntity
  8
0
100
AcDbLine
 10
897.7676881347832
 20
-8.650975464634985
 30
0.0
 11
897.7181664742977
 21
-9.290466612820154
 31
0.0
  0
LINE
  5
1FD
330
17
100
AcDbEntity
  8
0
100
AcDbLine
 10
897.7181664742977
 20
-9.290466612820154
 30
0.0
 11
897.6651153702911
 21
-9.929674641421203
 31
0.0
  0
LINE
  5
1FE
330
17
100
AcDbEntity
  8
0
100
AcDbLine
 10
897.6651153702911
 20
-9.929674641421203
 30
0.0
 11
897.6085364394537
 21
-10.56858007108171
 31
0.0
  0
LINE
  5
1FF
330
17
100
AcDbEntity
  8
0
100
AcDbLine
 10
897.6085364394537
 20
-10.56858007108171
 30
0.0
 11
897.5484314059831
 21
-11.207163431666638
 31
0.0
  0
LINE
  5
200
330
17
100
AcDbEntity
  8
0
100
AcDbLine
 10
897.5484314059831
 20
-11.207163431666638
 30
0.0
 11
897.4848021015328
 21
-11.845405262855673
 31
0.0
  0
LINE
  5
201
330
17
100
AcDbEntity
  8
0
100
AcDbLine
 10
897.4848021015328
 20
-11.845405262855673
 30
0.0
 11
897.4176504651551
 21
-12.483286114736513
 31
0.0
  0
LINE
  5
202
330
17
100
AcDbEntity
  8
0
100
AcDbLine
 10
897.4176504651551
 20
-12.483286114736513
 30
0.0
 11
897.3469785432428
 21
-13.120786548397238
 31
0.0
  0
LINE
  5
203
330
17
100
AcDbEntity
  8
0
100
AcDbLine
 10
897.3469785432428
 20
-13.120786548397238
 30
0.0
 11
897.2727884894666
 21
-13.757887136518947
 31
0.0
  0
LINE
  5
204
330
17
100
AcDbEntity
  8
0
100
AcDbLine
 10
897.2727884894666
 20
-13.757887136518947
 30
0.0
 11
897.1950825647091
 21
-14.394568463967788
 31
0.0
  0
LINE
  5
205
330
17
100
AcDbEntity
  8
0
100
AcDbLine
 10
897.1950825647091
 20
-14.394568463967788
 30
0.0
 11
897.1138631369969
 21
-15.0308111283864
 31
0.0
  0
LINE
  5
206
330
17
100
AcDbEntity
  8
0
100
AcDbLine
 10
897.1138631369969
 20
-15.0308111283864
 30
0.0
 11
897.0291326814274
 21
-15.666595740785413
 31
0.0
  0
LINE
  5
207
330
17
100
AcDbEntity
  8
0
100
AcDbLine
 10
897.0291326814274
 20
-15.666595740785413
 30
0.0
 11
896.9408937800937
 21
-16.301902926134225
 31
0.0
  0
LINE
  5
208
330
17
100
AcDbEntity
  8
0
100
AcDbLine
 10
896.9408937800937
 20
-16.301902926134225
 30
0.0
 11
896.8491491220063
 21
-16.93671332395143
 31
0.0
  0
LINE
  5
209
330
17
100
AcDbEntity
  8
0
100
AcDbLine
 10
896.8491491220063
 20
-16.93671332395143
 30
0.0
 11
896.7539015030109
 21
-17.57100758889483
 31
0.0
  0
LINE
  5
20A
330
17
100
AcDbEntity
  8
0
100
AcDbLine
 10
896.7539015030109
 20
-17.57100758889483
 30
0.0
 11
896.6551538257029
 21
-18.204766391350965
 31
0.0
  0
LINE
  5
20B
330
17
100
AcDbEntity
  8
0
100
AcDbLine
 10
896.6551538257029
 20
-18.204766391350965
 30
0.0
 11
896.5529090993388
 21
-18.83797041802417
 31
0.0
  0
LINE
  5
20C
330
17
100
AcDbEntity
  8
0
100
AcDbLine
 10
896.5529090993388
 20
-18.83797041802417
 30
0.0
 11
896.447170439746
 21
-19.47060037252513
 31
0.0
  0
LINE
  5
20D
330
17
100
AcDbEntity
  8
0
100
AcDbLine
 10
896.447170439746
 20
-19.47060037252513
 30
0.0
 11
896.3379410692257
 21
-20.102636975958927
 31
0.0
  0
LINE
  5
20E
330
17
100
AcDbEntity
  8
0
100
AcDbLine
 10
896.3379410692257
 20
-20.102636975958927
 30
0.0
 11
896.2252243164562
 21
-20.73406096751254
 31
0.0
  0
LINE
  5
20F
330
17
100
AcDbEntity
  8
0
100
AcDbLine
 10
896.2252243164562
 20
-20.73406096751254
 30
0.0
 11
896.109023616391
 21
-21.364853105041814
 31
0.0
  0
LINE
  5
210
330
17
100
AcDbEntity
  8
0
100
AcDbLine
 10
896.109023616391
 20
-21.364853105041814
 30
0.0
 11
895.9893425101541
 21
-21.994994165657832
 31
0.0
  0
LINE
  5
211
330
17
100
AcDbEntity
  8
0
100
AcDbLine
 10
895.9893425101541
 20
-21.994994165657832
 30
0.0
 11
895.8661846449318
 21
-22.624464946312738
 31
0.0
  0
LINE
  5
212
330
17
100
AcDbEntity
  8
0
100
AcDbLine
 10
895.8661846449318
 20
-22.624464946312738
 30
0.0
 11
895.7395537738623
 21
-23.253246264384924
 31
0.0
  0
LINE
  5
213
330
17
100
AcDbEntity
  8
0
100
AcDbLine
 10
895.7395537738623
 20
-23.253246264384924
 30
0.0
 11
895.6094537559209
 21
-23.881318958263602
 31
0.0
  0
LINE
  5
214
330
17
100
AcDbEntity
  8
0
100
AcDbLine
 10
895.6094537559209
 20
-23.881318958263602
 30
0.0
 11
895.4758885558019
 21
-24.508663887932748
 31
0.0
  0
LINE
  5
215
330
17
100
AcDbEntity
  8
0
100
AcDbLine
 10
895.4758885558019
 20
-24.508663887932748
 30
0.0
 11
895.3388622437989
 21
-25.135261935554368
 31
0.0
  0
LINE
  5
216
330
17
100
AcDbEntity
  8
0
100
AcDbLine
 10
895.3388622437989
 20
-25.135261935554368
 30
0.0
 11
895.1983789956795
 21
-25.761094006051113
 31
0.0
  0
LINE
  5
217
330
17
100
AcDbEntity
  8
0
100
AcDbLine
 10
895.1983789956795
 20
-25.761094006051113
 30
0.0
 11
895.0544430925593
 21
-26.38614102768816
 31
0.0
  0
LINE
  5
218
330
17
100
AcDbEntity
  8
0
100
AcDbLine
 10
895.0544430925593
 20
-26.38614102768816
 30
0.0
 11
894.9070589207703
 21
-27.010383952654454
 31
0.0
  0
LINE
  5
219
330
17
100
AcDbEntity
  8
0
100
AcDbLine
 10
894.9070589207703
 20
-27.010383952654454
 30
0.0
 11
894.7562309717281
 21
-27.633803757643125
 31
0.0
  0
LINE
  5
21A
330
17
100
AcDbEntity
  8
0
100
AcDbLine
 10
894.7562309717281
 20
-27.633803757643125
 30
0.0
 11
894.6019638417944
 21
-28.25638144443123
 31
0.0
  0
LINE
  5
21B
330
17
100
AcDbEntity
  8
0
100
AcDbLine
 10
894.6019638417944
 20
-28.25638144443123
 30
0.0
 11
894.4442622321375
 21
-28.878098040458724
 31
0.0
  0
LINE
  5
21C
330
17
100
AcDbEntity
  8
0
100
AcDbLine
 10
894.4442622321375
 20
-28.878098040458724
 30
0.0
 11
894.2831309485885
 21
-29.49893459940661
 31
0.0
  0
LINE
  5
21D
330
17
100
AcDbEntity
  8
0
100
AcDbLine
 10
894.2831309485885
 20
-29.49893459940661
 30
0.0
 11
894.1185749014951
 21
-30.118872201774305
 31
0.0
  0
LINE
  5
21E
330
17
100
AcDbEntity
  8
0
100
AcDbLine
 10
894.1185749014951
 20
-30.118872201774305
 30
0.0
 11
893.9505991055723
 21
-30.737891955456245
 31
0.0
  0
LINE
  5
21F
330
17
100
AcDbEntity
  8
0
100
AcDbLine
 10
893.9505991055723
 20
-30.737891955456245
 30
0.0
 11
893.7792086797485
 21
-31.355974996317553
 31
0.0
  0
LINE
  5
220
330
17
100
AcDbEntity
  8
0
100
AcDbLine
 10
888.958956238522
 20
34.99616158317402
 30
0.0
 11
889.024439533872
 21
34.995733745072165
 31
0.0
  0
LINE
  5
221
330
17
100
AcDbEntity
  8
0
100
AcDbLine
 10
889.024439533872
 20
34.995733745072165
 30
0.0
 11
889.0899116485001
 21
34.99445030381635
 31
0.0
  0
LINE
  5
222
330
17
100
AcDbEntity
  8
0
100
AcDbLine
 10
889.0899116485001
 20
34.99445030381635
 30
0.0
 11
889.1553614035938
 21
34.992311478543385
 31
0.0
  0
LINE
  5
223
330
17
100
AcDbEntity
  8
0
100
AcDbLine
 10
889.1553614035938
 20
34.992311478543385
 30
0.0
 11
889.2207776241573
 21
34.98931763443969
 31
0.0
  0
LINE
  5
224
330
17
100
AcDbEntity
  8
0
100
AcDbLine
 10
889.2207776241573
 20
34.98931763443969
 30
0.0
 11
889.2861491409217
 21
34.98546928267896
 31
0.0
  0
LINE
  5
225
330
17
100
AcDbEntity
  8
0
100
AcDbLine
 10
889.2861491409217
 20
34.98546928267896
 30
0.0
 11
889.3514647922502
 21
34.98076708033489
 31
0.0
  0
LINE
  5
226
330
17
100
AcDbEntity
  8
0
100
AcDbLine
 10
889.3514647922502
 20
34.98076708033489
 30
0.0
 11
889.4167134260448
 21
34.975211830268975
 31
0.0
  0
LINE
  5
227
330
17
100
AcDbEntity
  8
0
100
AcDbLine
 10
889.4167134260448
 20
34.975211830268975
 30
0.0
 11
889.48188390165
 21
34.96880448099344
 31
0.0
  0
LINE
  5
228
330
17
100
AcDbEntity
  8
0
100
AcDbLine
 10
889.48188390165
 20
34.96880448099344
 30
0.0
 11
889.5469650917553
 21
34.961546126509276
 31
0.0
  0
LINE
  5
229
330
17
100
AcDbEntity
  8
0
100
AcDbLine
 10
889.5469650917553
 20
34.961546126509276
 30
0.0
 11
889.611945884295
 21
34.95343800611945
 31
0.0
  0
LINE
  5
22A
330
17
100
AcDbEntity
  8
0
100
AcDbLine
 10
889.611945884295
 20
34.95343800611945
 30
0.0
 11
889.6768151843454
 21
34.94448150421733
 31
0.0
  0
LINE
  5
22B
330
17
100
AcDbEntity
  8
0
100
AcDbLine
 10
889.6768151843454
 20
34.94448150421733
 30
0.0
 11
889.7415619160191
 21
34.93467815005027
 31
0.0
  0
LINE
  5
22C
330
17
100
AcDbEntity
  8
0
100
AcDbLine
 10
889.7415619160191
 20
34.93467815005027
 30
0.0
 11
889.8061750243562
 21
34.92402961745853
 31
0.0
  0
LINE
  5
22D
330
17
100
AcDbEntity
  8
0
100
AcDbLine
 10
889.8061750243562
 20
34.92402961745853
 30
0.0
 11
889.8706434772122
 21
34.912537724589484
 31
0.0
  0
LINE
  5
22E
330
17
100
AcDbEntity
  8
0
100
AcDbLine
 10
889.8706434772122
 20
34.912537724589484
 30
0.0
 11
889.9349562671408
 21
34.90020443358718
 31
0.0
  0
LINE
  5
22F
330
17
100
AcDbEntity
  8
0
100
AcDbLine
 10
889.9349562671408
 20
34.90020443358718
 30
0.0
 11
889.9991024132743
 21
34.8870318502573
 31
0.0
  0
LINE
  5
230
330
17
100
AcDbEntity
  8
0
100
AcDbLine
 10
889.9991024132743
 20
34.8870318502573
 30
0.0
 11
890.0630709631974
 21
34.87302222370766
 31
0.0
  0
LINE
  5
231
330
17
100
AcDbEntity
  8
0
100
AcDbLine
 10
890.0630709631974
 20
34.87302222370766
 30
0.0
 11
890.1268509948188
 21
34.85817794596414
 31
0.0
  0
LINE
  5
232
330
17
100
AcDbEntity
  8
0
100
AcDbLine
 10
890.1268509948188
 20
34.85817794596414
 30
0.0
 11
890.1904316182344
 21
34.84250155156231
 31
0.0
  0
LINE
  5
233
330
17
100
AcDbEntity
  8
0
100
AcDbLine
 10
890.1904316182344
 20
34.84250155156231
 30
0.0
 11
890.2538019775874
 21
34.825995717114644
 31
0.0
  0
LINE
  5
234
330
17
100
AcDbEntity
  8
0
100
AcDbLine
 10
890.2538019775874
 20
34.825995717114644
 30
0.0
 11
890.3169512529221
 21
34.80866326085354
 31
0.0
  0
LINE
  5
235
330
17
100
AcDbEntity
  8
0
100
AcDbLine
 10
890.3169512529221
 20
34.80866326085354
 30
0.0
 11
890.3798686620311
 21
34.79050714215011
 31
0.0
  0
LINE
  5
236
330
17
100
AcDbEntity
  8
0
100
AcDbLine
 10
890.3798686620311
 20
34.79050714215011
 30
0.0
 11
890.4425434622957
 21
34.77153046100891
 31
0.0
  0
LINE
  5
237
330
17
100
AcDbEntity
  8
0
100
AcDbLine
 10
890.4425434622957
 20
34.77153046100891
 30
0.0
 11
890.5049649525212
 21
34.7517364575386
 31
0.0
  0
LINE
  5
238
330
17
100
AcDbEntity
  8
0
100
AcDbLine
 10
890.5049649525212
 20
34.7517364575386
 30
0.0
 11
890.567122474763
 21
34.73112851139879
 31
0.0
  0
LINE
  5
239
330
17
100
AcDbEntity
  8
0
100
AcDbLine
 10
890.567122474763
 20
34.73112851139879
 30
0.0
 11
890.6290054161472
 21
34.70971014122294
 31
0.0
  0
LINE
  5
23A
330
17
100
AcDbEntity
  8
0
100
AcDbLine
 10
890.6290054161472
 20
34.70971014122294
 30
0.0
 11
890.6906032106821
 21
34.68748500401759
 31
0.0
  0
LINE
  5
23B
330
17
100
AcDbEntity
  8
0
100
AcDbLine
 10
890.6906032106821
 20
34.68748500401759
 30
0.0
 11
890.7519053410621
 21
34.66445689453798
 31
0.0
  0
LINE
  5
23C
330
17
100
AcDbEntity
  8
0
100
AcDbLine
 10
890.7519053410621
 20
34.66445689453798
 30
0.0
 11
890.8129013404646
 21
34.64062974464008
 31
0.0
  0
LINE
  5
23D
330
17
100
AcDbEntity
  8
0
100
AcDbLine
 10
890.8129013404646
 20
34.64062974464008
 30
0.0
 11
890.8735807943352
 21
34.61600762260933
 31
0.0
  0
LINE
  5
23E
330
17
100
AcDbEntity
  8
0
100
AcDbLine
 10
890.8735807943352
 20
34.61600762260933
 30
0.0
 11
890.933933342168
 21
34.59059473246596
 31
0.0
  0
LINE
  5
23F
330
17
100
AcDbEntity
  8
0
100
AcDbLine
 10
890.933933342168
 20
34.59059473246596
 30
0.0
 11
890.993948679273
 21
34.56439541324718
 31
0.0
  0
LINE
  5
240
330
17
100
AcDbEntity
  8
0
100
AcDbLine
 10
890.993948679273
 20
34.56439541324718
 30
0.0
 11
891.0536165585361
 21
34.53741413826639
 31
0.0
  0
LINE
  5
241
330
17
100
AcDbEntity
  8
0
100
AcDbLine
 10
891.0536165585361
 20
34.53741413826639
 30
0.0
 11
891.1129267921689
 21
34.50965551434933
 31
0.0
  0
LINE
  5
242
330
17
100
AcDbEntity
  8
0
100
AcDbLine
 10
891.1129267921689
 20
34.50965551434933
 30
0.0
 11
891.1718692534479
 21
34.48112428104755
 31
0.0
  0
LINE
  5
243
330
17
100
AcDbEntity
  8
0
100
AcDbLine
 10
891.1718692534479
 20
34.48112428104755
 30
0.0
 11
891.2304338784436
 21
34.451825309829125
 31
0.0
  0
LINE
  5
244
330
17
100
AcDbEntity
  8
0
100
AcDbLine
 10
891.2304338784436
 20
34.451825309829125
 30
0.0
 11
891.288610667739
 21
34.42176360324696
 31
0.0
  0
LINE
  5
245
330
17
100
AcDbEntity
  8
0
100
AcDbLine
 10
891.288610667739
 20
34.42176360324696
 30
0.0
 11
891.3463896881366
 21
34.390944294084576
 31
0.0
  0
LINE
  5
246
330
17
100
AcDbEntity
  8
0
100
AcDbLine
 10
891.3463896881366
 20
34.390944294084576
 30
0.0
 11
891.4037610743545
 21
34.35937264447978
 31
0.0
  0
LINE
  5
247
330
17
100
AcDbEntity
  8
0
100
AcDbLine
 10
891.4037610743545
 20
34.35937264447978
 30
0.0
 11
891.4607150307115
 21
34.32705404502617
 31
0.0
  0
LINE
  5
248
330
17
100
AcDbEntity
  8
0
100
AcDbLine
 10
891.4607150307115
 20
34.32705404502617
 30
0.0
 11
891.5172418327983
 21
34.29399401385277
 31
0.0
  0
LINE
  5
249
330
17
100
AcDbEntity
  8
0
100
AcDbLine
 10
891.5172418327983
 20
34.29399401385277
 30
0.0
 11
891.573331829139
 21
34.260198195681795
 31
0.0
  0
LINE
  5
24A
330
17
100
AcDbEntity
  8
0
100
AcDbLine
 10
891.573331829139
 20
34.260198195681795
 30
0.0
 11
891.6289754428386
 21
34.225672360864934
 31
0.0
  0
LINE
  5
24B
330
17
100
AcDbEntity
  8
0
100
AcDbLine
 10
891.6289754428386
 20
34.225672360864934
 30
0.0
 11
891.6841631732179
 21
34.19042240439806
 31
0.0
  0
LINE
  5
24C
330
17
100
AcDbEntity
  8
0
100
AcDbLine
 10
891.6841631732179
 20
34.19042240439806
 30
0.0
 11
891.7388855974366
 21
34.15445434491475
 31
0.0
  0
LINE
  5
24D
330
17
100
AcDbEntity
  8
0
100
AcDbLine
 10
891.7388855974366
 20
34.15445434491475
 30
0.0
 11
891.7931333721007
 21
34.117774323658594
 31
0.0
  0
LINE
  5
24E
330
17
100
AcDbEntity
  8
0
100
AcDbLine
 10
891.7931333721007
 20
34.117774323658594
 30
0.0
 11
891.8468972348588
 21
34.0803886034347
 31
0.0
  0
LINE
  5
24F
330
17
100
AcDbEntity
  8
0
100
AcDbLine
 10
891.8468972348588
 20
34.0803886034347
 30
0.0
 11
891.900168005984
 21
34.04230356754031
 31
0.0
  0
LINE
  5
250
330
17
100
AcDbEntity
  8
0
100
AcDbLine
 10
891.900168005984
 20
34.04230356754031
 30
0.0
 11
891.95293658994
 21
34.00352571867496
 31
0.0
  0
LINE
  5
251
330
17
100
AcDbEntity
  8
0
100
AcDbLine
 10
891.95293658994
 20
34.00352571867496
 30
0.0
 11
892.0051939769351
 21
33.96406167783016
 31
0.0
  0
LINE
  5
252
330
17
100
AcDbEntity
  8
0
100
AcDbLine
 10
892.0051939769351
 20
33.96406167783016
 30
0.0
 11
892.0569312444597
 21
33.923918183158925
 31
0.0
  0
LINE
  5
253
330
17
100
AcDbEntity
  8
0
100
AcDbLine
 10
892.0569312444597
 20
33.923918183158925
 30
0.0
 11
892.108139558811
 21
33.88310208882531
 31
0.0
  0
LINE
  5
254
330
17
100
AcDbEntity
  8
0
100
AcDbLine
 10
892.108139558811
 20
33.88310208882531
 30
0.0
 11
892.1588101766
 21
33.84162036383409
 31
0.0
  0
LINE
  5
255
330
17
100
AcDbEntity
  8
0
100
AcDbLine
 10
892.1588101766
 20
33.84162036383409
 30
0.0
 11
892.2089344462445
 21
33.79948009084089
 31
0.0
  0
LINE
  5
256
330
17
100
AcDbEntity
  8
0
100
AcDbLine
 10
892.2089344462445
 20
33.79948009084089
 30
0.0
 11
892.2585038094475
 21
33.75668846494284
 31
0.0
  0
LINE
  5
257
330
17
100
AcDbEntity
  8
0
100
AcDbLine
 10
892.2585038094475
 20
33.75668846494284
 30
0.0
 11
892.307509802657
 21
33.71325279245014
 31
0.0
  0
LINE
  5
258
330
17
100
AcDbEntity
  8
0
100
AcDbLine
 10
892.307509802657
 20
33.71325279245014
 30
0.0
 11
892.355944058512
 21
33.6691804896385
 31
0.0
  0
LINE
  5
259
330
17
100
AcDbEntity
  8
0
100
AcDbLine
 10
892.355944058512
 20
33.6691804896385
 30
0.0
 11
892.4037983072707
 21
33.6244790814829
 31
0.0
  0
LINE
  5
25A
330
17
100
AcDbEntity
  8
0
100
AcDbLine
 10
892.4037983072707
 20
33.6244790814829
 30
0.0
 11
892.4510643782226
 21
33.579156200372786
 31
0.0
  0
LINE
  5
25B
330
17
100
AcDbEntity
  8
0
100
AcDbLine
 10
892.4510643782226
 20
33.579156200372786
 30
0.0
 11
892.4977342010835
 21
33.53321958480886
 31
0.0
  0
LINE
  5
25C
330
17
100
AcDbEntity
  8
0
100
AcDbLine
 10
892.4977342010835
 20
33.53321958480886
 30
0.0
 11
892.5437998073742
 21
33.48667707808184
 31
0.0
  0
LINE
  5
25D
330
17
100
AcDbEntity
  8
0
100
AcDbLine
 10
892.5437998073742
 20
33.48667707808184
 30
0.0
 11
892.5892533317793
 21
33.43953662693326
 31
0.0
  0
LINE
  5
25E
330
17
100
AcDbEntity
  8
0
100
AcDbLine
 10
892.5892533317793
 20
33.43953662693326
 30
0.0
 11
892.6340870134924
 21
33.39180628019862
 31
0.0
  0
LINE
  5
25F
330
17
100
AcDbEntity
  8
0
100
AcDbLine
 10
892.6340870134924
 20
33.39180628019862
 30
0.0
 11
892.6782931975389
 21
33.34349418743314
 31
0.0
  0
LINE
  5
260
330
17
100
AcDbEntity
  8
0
100
AcDbLine
 10
892.6782931975389
 20
33.34349418743314
 30
0.0
 11
892.7218643360853
 21
33.29460859752029
 31
0.0
  0
LINE
  5
261
330
17
100
AcDbEntity
  8
0
100
AcDbLine
 10
892.7218643360853
 20
33.29460859752029
 30
0.0
 11
892.7647929897257
 21
33.24515785726333
 31
0.0
  0
LINE
  5
262
330
17
100
AcDbEntity
  8
0
100
AcDbLine
 10
892.7647929897257
 20
33.24515785726333
 30
0.0
 11
892.807071828754
 21
33.195150409960206
 31
0.0
  0
LINE
  5
263
330
17
100
AcDbEntity
  8
0
100
AcDbLine
 10
892.807071828754
 20
33.195150409960206
 30
0.0
 11
892.8486936344137
 21
33.144594793961915
 31
0.0
  0
LINE
  5
264
330
17
100
AcDbEntity
  8
0
100
AcDbLine
 10
892.8486936344137
 20
33.144594793961915
 30
0.0
 11
892.8896513001318
 21
33.09349964121462
 31
0.0
  0
LINE
  5
265
330
17
100
AcDbEntity
  8
0
100
AcDbLine
 10
892.8896513001318
 20
33.09349964121462
 30
0.0
 11
892.9299378327316
 21
33.04187367578589
 31
0.0
  0
LINE
  5
266
330
17
100
AcDbEntity
  8
0
100
AcDbLine
 10
892.9299378327316
 20
33.04187367578589
 30
0.0
 11
892.969546353626
 21
32.989725712375034
 31
0.0
  0
LINE
  5
267
330
17
100
AcDbEntity
  8
0
100
AcDbLine
 10
892.969546353626
 20
32.989725712375034
 30
0.0
 11
893.0084700999936
 21
32.93706465480818
 31
0.0
  0
LINE
  5
268
330
17
100
AcDbEntity
  8
0
100
AcDbLine
 10
893.0084700999936
 20
32.93706465480818
 30
0.0
 11
893.046702425932
 21
32.883899494517955
 31
0.0
  0
LINE
  5
269
330
17
100
AcDbEntity
  8
0
100
AcDbLine
 10
893.046702425932
 20
32.883899494517955
 30
0.0
 11
893.0842368035933
 21
32.830239309008256
 31
0.0
  0
LINE
  5
26A
330
17
100
AcDbEntity
  8
0
100
AcDbLine
 10
893.0842368035933
 20
32.830239309008256
 30
0.0
 11
893.1210668242979
 21
32.77609326030441
 31
0.0
  0
LINE
  5
26B
330
17
100
AcDbEntity
  8
0
100
AcDbLine
 10
893.1210668242979
 20
32.77609326030441
 30
0.0
 11
893.1571861996299
 21
32.721470593388766
 31
0.0
  0
LINE
  5
26C
330
17
100
AcDbEntity
  8
0
100
AcDbLine
 10
893.1571861996299
 20
32.721470593388766
 30
0.0
 11
893.1925887625096
 21
32.66638063462225
 31
0.0
  0
LINE
  5
26D
330
17
100
AcDbEntity
  8
0
100
AcDbLine
 10
893.1925887625096
 20
32.66638063462225
 30
0.0
 11
893.2272684682472
 21
32.610832790151925
 31
0.0
  0
LINE
  5
26E
330
17
100
AcDbEntity
  8
0
100
AcDbLine
 10
893.2272684682472
 20
32.610832790151925
 30
0.0
 11
893.2612193955747
 21
32.554836544305
 31
0.0
  0
LINE
  5
26F
330
17
100
AcDbEntity
  8
0
100
AcDbLine
 10
893.2612193955747
 20
32.554836544305
 30
0.0
 11
893.2944357476568
 21
32.49840145796942
 31
0.0
  0
LINE
  5
270
330
17
100
AcDbEntity
  8
0
100
AcDbLine
 10
893.2944357476568
 20
32.49840145796942
 30
0.0
 11
893.326911853081
 21
32.441537166961496
 31
0.0
  0
LINE
  5
271
330
17
100
AcDbEntity
  8
0
100
AcDbLine
 10
893.326911853081
 20
32.441537166961496
 30
0.0
 11
893.3586421668251
 21
32.38425338038058
 31
0.0
  0
LINE
  5
272
330
17
100
AcDbEntity
  8
0
100
AcDbLine
 10
893.3586421668251
 20
32.38425338038058
 30
0.0
 11
893.3896212712051
 21
32.326559878951386
 31
0.0
  0
LINE
  5
273
330
17
100
AcDbEntity
  8
0
100
AcDbLine
 10
893.3896212712051
 20
32.326559878951386
 30
0.0
 11
893.4198438767994
 21
32.268466513354
 31
0.0
  0
LINE
  5
274
330
17
100
AcDbEntity
  8
0
100
AcDbLine
 10
893.4198438767994
 20
32.268466513354
 30
0.0
 11
893.4493048233527
 21
32.20998320254195
 31
0.0
  0
LINE
  5
275
330
17
100
AcDbEntity
  8
0
100
AcDbLine
 10
893.4493048233527
 20
32.20998320254195
 30
0.0
 11
893.4779990806558
 21
32.1511199320486
 31
0.0
  0
LINE
  5
276
330
17
100
AcDbEntity
  8
0
100
AcDbLine
 10
893.4779990806558
 20
32.1511199320486
 30
0.0
 11
893.5059217494057
 21
32.09188675228227
 31
0.0
  0
LINE
  5
277
330
17
100
AcDbEntity
  8
0
100
AcDbLine
 10
893.5059217494057
 20
32.09188675228227
 30
0.0
 11
893.5330680620415
 21
32.032293776810164
 31
0.0
  0
LINE
  5
278
330
17
100
AcDbEntity
  8
0
100
AcDbLine
 10
893.5330680620415
 20
32.032293776810164
 30
0.0
 11
893.559433383559
 21
31.972351180631573
 31
0.0
  0
LINE
  5
279
330
17
100
AcDbEntity
  8
0
100
AcDbLine
 10
893.559433383559
 20
31.972351180631573
 30
0.0
 11
893.5850132123012
 21
31.91206919844058
 31
0.0
  0
LINE
  5
27A
330
17
100
AcDbEntity
  8
0
100
AcDbLine
 10
893.5850132123012
 20
31.91206919844058
 30
0.0
 11
893.6098031807273
 21
31.851458122878583
 31
0.0
  0
LINE
  5
27B
330
17
100
AcDbEntity
  8
0
100
AcDbLine
 10
893.6098031807273
 20
31.851458122878583
 30
0.0
 11
893.6337990561586
 21
31.7905283027769
 31
0.0
  0
LINE
  5
27C
330
17
100
AcDbEntity
  8
0
100
AcDbLine
 10
893.6337990561586
 20
31.7905283027769
 30
0.0
 11
893.6569967415018
 21
31.729290141389797
 31
0.0
  0
LINE
  5
27D
330
17
100
AcDbEntity
  8
0
100
AcDbLine
 10
893.6569967415018
 20
31.729290141389797
 30
0.0
 11
893.6793922759467
 21
31.66775409461823
 31
0.0
  0
LINE
  5
27E
330
17
100
AcDbEntity
  8
0
100
AcDbLine
 10
893.6793922759467
 20
31.66775409461823
 30
0.0
 11
893.7009818356445
 21
31.605930669224563
 31
0.0
  0
LINE
  5
27F
330
17
100
AcDbEntity
  8
0
100
AcDbLine
 10
893.7009818356445
 20
31.605930669224563
 30
0.0
 11
893.7217617343592
 21
31.54383042103866
 31
0.0
  0
LINE
  5
280
330
17
100
AcDbEntity
  8
0
100
AcDbLine
 10
893.7217617343592
 20
31.54383042103866
 30
0.0
 11
893.7417284240981
 21
31.481463953155533
 31
0.0
  0
LINE
  5
281
330
17
100
AcDbEntity
  8
0
100
AcDbLine
 10
893.7417284240981
 20
31.481463953155533
 30
0.0
 11
893.760878495717
 21
31.418841914124982
 31
0.0
  0
LINE
  5
282
330
17
100
AcDbEntity
  8
0
100
AcDbLine
 10
893.760878495717
 20
31.418841914124982
 30
0.0
 11
893.779208679502
 21
31.355974996133416
 31
0.0
  0
LINE
  5
283
330
17
100
AcDbEntity
  8
0
100
AcDbLine
 10
888.3268964367586
 20
34.95614374402778
 30
0.0
 11
888.333247324265
 21
34.956947051524985
 31
0.0
  0
LINE
  5
284
330
17
100
AcDbEntity
  8
0
100
AcDbLine
 10
888.333247324265
 20
34.956947051524985
 30
0.0
 11
888.3395992326971
 21
34.95774224604317
 31
0.0
  0
LINE
  5
285
330
17
100
AcDbEntity
  8
0
100
AcDbLine
 10
888.3395992326971
 20
34.95774224604317
 30
0.0
 11
888.3459521516914
 21
34.958529326284854
 31
0.0
  0
LINE
  5
286
330
17
100
AcDbEntity
  8
0
100
AcDbLine
 10
888.3459521516914
 20
34.958529326284854
 30
0.0
 11
888.3523060708818
 21
34.959308290965836
 31
0.0
  0
LINE
  5
287
330
17
100
AcDbEntity
  8
0
100
AcDbLine
 10
888.3523060708818
 20
34.959308290965836
 30
0.0
 11
888.3586609799015
 21
34.96007913881512
 31
0.0
  0
LINE
  5
288
330
17
100
AcDbEntity
  8
0
100
AcDbLine
 10
888.3586609799015
 20
34.96007913881512
 30
0.0
 11
888.3650168683812
 21
34.96084186857496
 31
0.0
  0
LINE
  5
289
330
17
100
AcDbEntity
  8
0
100
AcDbLine
 10
888.3650168683812
 20
34.96084186857496
 30
0.0
 11
888.3713737259508
 21
34.961596479000875
 31
0.0
  0
LINE
  5
28A
330
17
100
AcDbEntity
  8
0
100
AcDbLine
 10
888.3713737259508
 20
34.961596479000875
 30
0.0
 11
888.3777315422379
 21
34.96234296886161
 31
0.0
  0
LINE
  5
28B
330
17
100
AcDbEntity
  8
0
100
AcDbLine
 10
888.3777315422379
 20
34.96234296886161
 30
0.0
 11
888.3840903068691
 21
34.96308133693918
 31
0.0
  0
LINE
  5
28C
330
17
100
AcDbEntity
  8
0
100
AcDbLine
 10
888.3840903068691
 20
34.96308133693918
 30
0.0
 11
888.3904500094692
 21
34.96381158202883
 31
0.0
  0
LINE
  5
28D
330
17
100
AcDbEntity
  8
0
100
AcDbLine
 10
888.3904500094692
 20
34.96381158202883
 30
0.0
 11
888.3968106396618
 21
34.964533702939086
 31
0.0
  0
LINE
  5
28E
330
17
100
AcDbEntity
  8
0
100
AcDbLine
 10
888.3968106396618
 20
34.964533702939086
 30
0.0
 11
888.4031721870682
 21
34.965247698491694
 31
0.0
  0
LINE
  5
28F
330
17
100
AcDbEntity
  8
0
100
AcDbLine
 10
888.4031721870682
 20
34.965247698491694
 30
0.0
 11
888.409534641309
 21
34.96595356752168
 31
0.0
  0
LINE
  5
290
330
17
100
AcDbEntity
  8
0
100
AcDbLine
 10
888.409534641309
 20
34.96595356752168
 30
0.0
 11
888.4158979920029
 21
34.96665130887734
 31
0.0
  0
LINE
  5
291
330
17
100
AcDbEntity
  8
0
100
AcDbLine
 10
888.4158979920029
 20
34.96665130887734
 30
0.0
 11
888.4222622287673
 21
34.9673409214202
 31
0.0
  0
LINE
  5
292
330
17
100
AcDbEntity
  8
0
100
AcDbLine
 10
888.4222622287673
 20
34.9673409214202
 30
0.0
 11
888.4286273412183
 21
34.968022404025085
 31
0.0
  0
LINE
  5
293
330
17
100
AcDbEntity
  8
0
100
AcDbLine
 10
888.4286273412183
 20
34.968022404025085
 30
0.0
 11
888.4349933189701
 21
34.96869575558006
 31
0.0
  0
LINE
  5
294
330
17
100
AcDbEntity
  8
0
100
AcDbLine
 10
888.4349933189701
 20
34.96869575558006
 30
0.0
 11
888.4413601516359
 21
34.96936097498646
 31
0.0
  0
LINE
  5
295
330
17
100
AcDbEntity
  8
0
100
AcDbLine
 10
888.4413601516359
 20
34.96936097498646
 30
0.0
 11
888.4477278288276
 21
34.97001806115889
 31
0.0
  0
LINE
  5
296
330
17
100
AcDbEntity
  8
0
100
AcDbLine
 10
888.4477278288276
 20
34.97001806115889
 30
0.0
 11
888.4540963401552
 21
34.970667013025235
 31
0.0
  0
LINE
  5
297
330
17
100
AcDbEntity
  8
0
100
AcDbLine
 10
888.4540963401552
 20
34.970667013025235
 30
0.0
 11
888.4604656752275
 21
34.97130782952664
 31
0.0
  0
LINE
  5
298
330
17
100
AcDbEntity
  8
0
100
AcDbLine
 10
888.4604656752275
 20
34.97130782952664
 30
0.0
 11
888.4668358236526
 21
34.97194050961753
 31
0.0
  0
LINE
  5
299
330
17
100
AcDbEntity
  8
0
100
AcDbLine
 10
888.4668358236526
 20
34.97194050961753
 30
0.0
 11
888.4732067750363
 21
34.972565052265615
 31
0.0
  0
LINE
  5
29A
330
17
100
AcDbEntity
  8
0
100
AcDbLine
 10
888.4732067750363
 20
34.972565052265615
 30
0.0
 11
888.4795785189838
 21
34.97318145645186
 31
0.0
  0
LINE
  5
29B
330
17
100
AcDbEntity
  8
0
100
AcDbLine
 10
888.4795785189838
 20
34.97318145645186
 30
0.0
 11
888.4859510450988
 21
34.973789721170526
 31
0.0
  0
LINE
  5
29C
330
17
100
AcDbEntity
  8
0
100
AcDbLine
 10
888.4859510450988
 20
34.973789721170526
 30
0.0
 11
888.4923243429834
 21
34.974389845429144
 31
0.0
  0
LINE
  5
29D
330
17
100
AcDbEntity
  8
0
100
AcDbLine
 10
888.4923243429834
 20
34.974389845429144
 30
0.0
 11
888.4986984022391
 21
34.97498182824854
 31
0.0
  0
LINE
  5
29E
330
17
100
AcDbEntity
  8
0
100
AcDbLine
 10
888.4986984022391
 20
34.97498182824854
 30
0.0
 11
888.5050732124656
 21
34.97556566866281
 31
0.0
  0
LINE
  5
29F
330
17
100
AcDbEntity
  8
0
100
AcDbLine
 10
888.5050732124656
 20
34.97556566866281
 30
0.0
 11
888.5114487632618
 21
34.97614136571935
 31
0.0
  0
LINE
  5
2A0
330
17
100
AcDbEntity
  8
0
100
AcDbLine
 10
888.5114487632618
 20
34.97614136571935
 30
0.0
 11
888.5178250442247
 21
34.976708918478835
 31
0.0
  0
LINE
  5
2A1
330
17
100
AcDbEntity
  8
0
100
AcDbLine
 10
888.5178250442247
 20
34.976708918478835
 30
0.0
 11
888.5242020449509
 21
34.97726832601521
 31
0.0
  0
LINE
  5
2A2
330
17
100
AcDbEntity
  8
0
100
AcDbLine
 10
888.5242020449509
 20
34.97726832601521
 30
0.0
 11
888.5305797550354
 21
34.97781958741576
 31
0.0
  0
LINE
  5
2A3
330
17
100
AcDbEntity
  8
0
100
AcDbLine
 10
888.5305797550354
 20
34.97781958741576
 30
0.0
 11
888.5369581640722
 21
34.978362701781
 31
0.0
  0
LINE
  5
2A4
330
17
100
AcDbEntity
  8
0
100
AcDbLine
 10
888.5369581640722
 20
34.978362701781
 30
0.0
 11
888.5433372616541
 21
34.97889766822479
 31
0.0
  0
LINE
  5
2A5
330
17
100
AcDbEntity
  8
0
100
AcDbLine
 10
888.5433372616541
 20
34.97889766822479
 30
0.0
 11
888.5497170373725
 21
34.97942448587424
 31
0.0
  0
LINE
  5
2A6
330
17
100
AcDbEntity
  8
0
100
AcDbLine
 10
888.5497170373725
 20
34.97942448587424
 30
0.0
 11
888.556097480818
 21
34.9799431538698
 31
0.0
  0
LINE
  5
2A7
330
17
100
AcDbEntity
  8
0
100
AcDbLine
 10
888.556097480818
 20
34.9799431538698
 30
0.0
 11
888.5624785815806
 21
34.98045367136518
 31
0.0
  0
LINE
  5
2A8
330
17
100
AcDbEntity
  8
0
100
AcDbLine
 10
888.5624785815806
 20
34.98045367136518
 30
0.0
 11
888.5688603292482
 21
34.98095603752742
 31
0.0
  0
LINE
  5
2A9
330
17
100
AcDbEntity
  8
0
100
AcDbLine
 10
888.5688603292482
 20
34.98095603752742
 30
0.0
 11
888.5752427134082
 21
34.98145025153683
 31
0.0
  0
LINE
  5
2AA
330
17
100
AcDbEntity
  8
0
100
AcDbLine
 10
888.5752427134082
 20
34.98145025153683
 30
0.0
 11
888.581625723647
 21
34.98193631258704
 31
0.0
  0
LINE
  5
2AB
330
17
100
AcDbEntity
  8
0
100
AcDbLine
 10
888.581625723647
 20
34.98193631258704
 30
0.0
 11
888.58800934955
 21
34.98241421988497
 31
0.0
  0
LINE
  5
2AC
330
17
100
AcDbEntity
  8
0
100
AcDbLine
 10
888.58800934955
 20
34.98241421988497
 30
0.0
 11
888.5943935807012
 21
34.98288397265087
 31
0.0
  0
LINE
  5
2AD
330
17
100
AcDbEntity
  8
0
100
AcDbLine
 10
888.5943935807012
 20
34.98288397265087
 30
0.0
 11
888.6007784066841
 21
34.98334557011826
 31
0.0
  0
LINE
  5
2AE
330
17
100
AcDbEntity
  8
0
100
AcDbLine
 10
888.6007784066841
 20
34.98334557011826
 30
0.0
 11
888.607163817081
 21
34.98379901153399
 31
0.0
  0
LINE
  5
2AF
330
17
100
AcDbEntity
  8
0
100
AcDbLine
 10
888.607163817081
 20
34.98379901153399
 30
0.0
 11
888.613549801473
 21
34.98424429615821
 31
0.0
  0
LINE
  5
2B0
330
17
100
AcDbEntity
  8
0
100
AcDbLine
 10
888.613549801473
 20
34.98424429615821
 30
0.0
 11
888.6199363494411
 21
34.984681423264384
 31
0.0
  0
LINE
  5
2B1
330
17
100
AcDbEntity
  8
0
100
AcDbLine
 10
888.6199363494411
 20
34.984681423264384
 30
0.0
 11
888.6263234505642
 21
34.985110392139276
 31
0.0
  0
LINE
  5
2B2
330
17
100
AcDbEntity
  8
0
100
AcDbLine
 10
888.6263234505642
 20
34.985110392139276
 30
0.0
 11
888.6327110944213
 21
34.98553120208297
 31
0.0
  0
LINE
  5
2B3
330
17
100
AcDbEntity
  8
0
100
AcDbLine
 10
888.6327110944213
 20
34.98553120208297
 30
0.0
 11
888.6390992705901
 21
34.98594385240886
 31
0.0
  0
LINE
  5
2B4
330
17
100
AcDbEntity
  8
0
100
AcDbLine
 10
888.6390992705901
 20
34.98594385240886
 30
0.0
 11
888.6454879686472
 21
34.98634834244365
 31
0.0
  0
LINE
  5
2B5
330
17
100
AcDbEntity
  8
0
100
AcDbLine
 10
888.6454879686472
 20
34.98634834244365
 30
0.0
 11
888.6518771781688
 21
34.98674467152736
 31
0.0
  0
LINE
  5
2B6
330
17
100
AcDbEntity
  8
0
100
AcDbLine
 10
888.6518771781688
 20
34.98674467152736
 30
0.0
 11
888.6582668887302
 21
34.987132839013334
 31
0.0
  0
LINE
  5
2B7
330
17
100
AcDbEntity
  8
0
100
AcDbLine
 10
888.6582668887302
 20
34.987132839013334
 30
0.0
 11
888.6646570899053
 21
34.987512844268224
 31
0.0
  0
LINE
  5
2B8
330
17
100
AcDbEntity
  8
0
100
AcDbLine
 10
888.6646570899053
 20
34.987512844268224
 30
0.0
 11
888.6710477712679
 21
34.987884686672004
 31
0.0
  0
LINE
  5
2B9
330
17
100
AcDbEntity
  8
0
100
AcDbLine
 10
888.6710477712679
 20
34.987884686672004
 30
0.0
 11
888.677438922391
 21
34.988248365617956
 31
0.0
  0
LINE
  5
2BA
330
17
100
AcDbEntity
  8
0
100
AcDbLine
 10
888.677438922391
 20
34.988248365617956
 30
0.0
 11
888.6838305328465
 21
34.9886038805127
 31
0.0
  0
LINE
  5
2BB
330
17
100
AcDbEntity
  8
0
100
AcDbLine
 10
888.6838305328465
 20
34.9886038805127
 30
0.0
 11
888.6902225922054
 21
34.98895123077616
 31
0.0
  0
LINE
  5
2BC
330
17
100
AcDbEntity
  8
0
100
AcDbLine
 10
888.6902225922054
 20
34.98895123077616
 30
0.0
 11
888.6966150900383
 21
34.989290415841594
 31
0.0
  0
LINE
  5
2BD
330
17
100
AcDbEntity
  8
0
100
AcDbLine
 10
888.6966150900383
 20
34.989290415841594
 30
0.0
 11
888.7030080159152
 21
34.98962143515557
 31
0.0
  0
LINE
  5
2BE
330
17
100
AcDbEntity
  8
0
100
AcDbLine
 10
888.7030080159152
 20
34.98962143515557
 30
0.0
 11
888.7094013594052
 21
34.989944288177995
 31
0.0
  0
LINE
  5
2BF
330
17
100
AcDbEntity
  8
0
100
AcDbLine
 10
888.7094013594052
 20
34.989944288177995
 30
0.0
 11
888.7157951100764
 21
34.99025897438209
 31
0.0
  0
LINE
  5
2C0
330
17
100
AcDbEntity
  8
0
100
AcDbLine
 10
888.7157951100764
 20
34.99025897438209
 30
0.0
 11
888.7221892574969
 21
34.990565493254394
 31
0.0
  0
LINE
  5
2C1
330
17
100
AcDbEntity
  8
0
100
AcDbLine
 10
888.7221892574969
 20
34.990565493254394
 30
0.0
 11
888.7285837912335
 21
34.99086384429479
 31
0.0
  0
LINE
  5
2C2
330
17
100
AcDbEntity
  8
0
100
AcDbLine
 10
888.7285837912335
 20
34.99086384429479
 30
0.0
 11
888.734978700853
 21
34.99115402701648
 31
0.0
  0
LINE
  5
2C3
330
17
100
AcDbEntity
  8
0
100
AcDbLine
 10
888.734978700853
 20
34.99115402701648
 30
0.0
 11
888.7413739759213
 21
34.99143604094599
 31
0.0
  0
LINE
  5
2C4
330
17
100
AcDbEntity
  8
0
100
AcDbLine
 10
888.7413739759213
 20
34.99143604094599
 30
0.0
 11
888.7477696060033
 21
34.99170988562319
 31
0.0
  0
LINE
  5
2C5
330
17
100
AcDbEntity
  8
0
100
AcDbLine
 10
888.7477696060033
 20
34.99170988562319
 30
0.0
 11
888.754165580664
 21
34.99197556060124
 31
0.0
  0
LINE
  5
2C6
330
17
100
AcDbEntity
  8
0
100
AcDbLine
 10
888.754165580664
 20
34.99197556060124
 30
0.0
 11
888.7605618894675
 21
34.992233065446676
 31
0.0
  0
LINE
  5
2C7
330
17
100
AcDbEntity
  8
0
100
AcDbLine
 10
888.7605618894675
 20
34.992233065446676
 30
0.0
 11
888.7669585219771
 21
34.992482399739345
 31
0.0
  0
LINE
  5
2C8
330
17
100
AcDbEntity
  8
0
100
AcDbLine
 10
888.7669585219771
 20
34.992482399739345
 30
0.0
 11
888.7733554677561
 21
34.99272356307242
 31
0.0
  0
LINE
  5
2C9
330
17
100
AcDbEntity
  8
0
100
AcDbLine
 10
888.7733554677561
 20
34.99272356307242
 30
0.0
 11
888.7797527163672
 21
34.99295655505241
 31
0.0
  0
LINE
  5
2CA
330
17
100
AcDbEntity
  8
0
100
AcDbLine
 10
888.7797527163672
 20
34.99295655505241
 30
0.0
 11
888.7861502573721
 21
34.99318137529916
 31
0.0
  0
LINE
  5
2CB
330
17
100
AcDbEntity
  8
0
100
AcDbLine
 10
888.7861502573721
 20
34.99318137529916
 30
0.0
 11
888.7925480803327
 21
34.99339802344585
 31
0.0
  0
LINE
  5
2CC
330
17
100
AcDbEntity
  8
0
100
AcDbLine
 10
888.7925480803327
 20
34.99339802344585
 30
0.0
 11
888.7989461748098
 21
34.99360649913899
 31
0.0
  0
LINE
  5
2CD
330
17
100
AcDbEntity
  8
0
100
AcDbLine
 10
888.7989461748098
 20
34.99360649913899
 30
0.0
 11
888.8053445303642
 21
34.99380680203842
 31
0.0
  0
LINE
  5
2CE
330
17
100
AcDbEntity
  8
0
100
AcDbLine
 10
888.8053445303642
 20
34.99380680203842
 30
0.0
 11
888.8117431365564
 21
34.993998931817316
 31
0.0
  0
LINE
  5
2CF
330
17
100
AcDbEntity
  8
0
100
AcDbLine
 10
888.8117431365564
 20
34.993998931817316
 30
0.0
 11
888.8181419829459
 21
34.99418288816221
 31
0.0
  0
LINE
  5
2D0
330
17
100
AcDbEntity
  8
0
100
AcDbLine
 10
888.8181419829459
 20
34.99418288816221
 30
0.0
 11
888.8245410590924
 21
34.99435867077293
 31
0.0
  0
LINE
  5
2D1
330
17
100
AcDbEntity
  8
0
100
AcDbLine
 10
888.8245410590924
 20
34.99435867077293
 30
0.0
 11
888.8309403545547
 21
34.99452627936269
 31
0.0
  0
LINE
  5
2D2
330
17
100
AcDbEntity
  8
0
100
AcDbLine
 10
888.8309403545547
 20
34.99452627936269
 30
0.0
 11
888.8373398588918
 21
34.99468571365799
 31
0.0
  0
LINE
  5
2D3
330
17
100
AcDbEntity
  8
0
100
AcDbLine
 10
888.8373398588918
 20
34.99468571365799
 30
0.0
 11
888.8437395616617
 21
34.994836973398705
 31
0.0
  0
LINE
  5
2D4
330
17
100
AcDbEntity
  8
0
100
AcDbLine
 10
888.8437395616617
 20
34.994836973398705
 30
0.0
 11
888.8501394524227
 21
34.99498005833803
 31
0.0
  0
LINE
  5
2D5
330
17
100
AcDbEntity
  8
0
100
AcDbLine
 10
888.8501394524227
 20
34.99498005833803
 30
0.0
 11
888.8565395207327
 21
34.99511496824251
 31
0.0
  0
LINE
  5
2D6
330
17
100
AcDbEntity
  8
0
100
AcDbLine
 10
888.8565395207327
 20
34.99511496824251
 30
0.0
 11
888.8629397561488
 21
34.99524170289202
 31
0.0
  0
LINE
  5
2D7
330
17
100
AcDbEntity
  8
0
100
AcDbLine
 10
888.8629397561488
 20
34.99524170289202
 30
0.0
 11
888.8693401482284
 21
34.99536026207977
 31
0.0
  0
LINE
  5
2D8
330
17
100
AcDbEntity
  8
0
100
AcDbLine
 10
888.8693401482284
 20
34.99536026207977
 30
0.0
 11
888.8757406865284
 21
34.995470645612315
 31
0.0
  0
LINE
  5
2D9
330
17
100
AcDbEntity
  8
0
100
AcDbLine
 10
888.8757406865284
 20
34.995470645612315
 30
0.0
 11
888.8821413606054
 21
34.99557285330956
 31
0.0
  0
LINE
  5
2DA
330
17
100
AcDbEntity
  8
0
100
AcDbLine
 10
888.8821413606054
 20
34.99557285330956
 30
0.0
 11
888.8885421600161
 21
34.99566688500473
 31
0.0
  0
LINE
  5
2DB
330
17
100
AcDbEntity
  8
0
100
AcDbLine
 10
888.8885421600161
 20
34.99566688500473
 30
0.0
 11
888.8949430743163
 21
34.995752740544404
 31
0.0
  0
LINE
  5
2DC
330
17
100
AcDbEntity
  8
0
100
AcDbLine
 10
888.8949430743163
 20
34.995752740544404
 30
0.0
 11
888.9013440930624
 21
34.9958304197885
 31
0.0
  0
LINE
  5
2DD
330
17
100
AcDbEntity
  8
0
100
AcDbLine
 10
888.9013440930624
 20
34.9958304197885
 30
0.0
 11
888.9077452058103
 21
34.99589992261026
 31
0.0
  0
LINE
  5
2DE
330
17
100
AcDbEntity
  8
0
100
AcDbLine
 10
888.9077452058103
 20
34.99589992261026
 30
0.0
 11
888.9141464021156
 21
34.99596124889631
 31
0.0
  0
LINE
  5
2DF
330
17
100
AcDbEntity
  8
0
100
AcDbLine
 10
888.9141464021156
 20
34.99596124889631
 30
0.0
 11
888.9205476715342
 21
34.996014398546556
 31
0.0
  0
LINE
  5
2E0
330
17
100
AcDbEntity
  8
0
100
AcDbLine
 10
888.9205476715342
 20
34.996014398546556
 30
0.0
 11
888.9269490036214
 21
34.996059371474296
 31
0.0
  0
LINE
  5
2E1
330
17
100
AcDbEntity
  8
0
100
AcDbLine
 10
888.9269490036214
 20
34.996059371474296
 30
0.0
 11
888.9333503879326
 21
34.99609616760615
 31
0.0
  0
LINE
  5
2E2
330
17
100
AcDbEntity
  8
0
100
AcDbLine
 10
888.9333503879326
 20
34.99609616760615
 30
0.0
 11
888.9397518140229
 21
34.99612478688207
 31
0.0
  0
LINE
  5
2E3
330
17
100
AcDbEntity
  8
0
100
AcDbLine
 10
888.9397518140229
 20
34.99612478688207
 30
0.0
 11
888.9461532714479
 21
34.99614522925537
 31
0.0
  0
LINE
  5
2E4
330
17
100
AcDbEntity
  8
0
100
AcDbLine
 10
888.9461532714479
 20
34.99614522925537
 30
0.0
 11
888.9525547497624
 21
34.99615749469269
 31
0.0
  0
LINE
  5
2E5
330
17
100
AcDbEntity
  8
0
100
AcDbLine
 10
888.9525547497624
 20
34.99615749469269
 30
0.0
 11
888.958956238522
 21
34.99616158317402
 31
0.0
  0
LINE
  5
2E6
330
17
100
AcDbEntity
  8
0
100
AcDbLine
 10
888.3268964367592
 20
34.956143744027344
 30
0.0
 11
888.2463572617768
 21
34.925216600035725
 31
0.0
  0
LINE
  5
2E7
330
17
100
AcDbEntity
  8
0
100
AcDbLine
 10
888.2463572617768
 20
34.925216600035725
 30
0.0
 11
888.1659519765955
 21
34.89411894277137
 31
0.0
  0
LINE
  5
2E8
330
17
100
AcDbEntity
  8
0
100
AcDbLine
 10
888.1659519765955
 20
34.89411894277137
 30
0.0
 11
888.0856813167578
 21
34.862851056713744
 31
0.0
  0
LINE
  5
2E9
330
17
100
AcDbEntity
  8
0
100
AcDbLine
 10
888.0856813167578
 20
34.862851056713744
 30
0.0
 11
888.0055460165751
 21
34.831413227899574
 31
0.0
  0
LINE
  5
2EA
330
17
100
AcDbEntity
  8
0
100
AcDbLine
 10
888.0055460165751
 20
34.831413227899574
 30
0.0
 11
887.92554680912
 21
34.79980574392022
 31
0.0
  0
LINE
  5
2EB
330
17
100
AcDbEntity
  8
0
100
AcDbLine
 10
887.92554680912
 20
34.79980574392022
 30
0.0
 11
887.8456844262204
 21
34.768028893918995
 31
0.0
  0
LINE
  5
2EC
330
17
100
AcDbEntity
  8
0
100
AcDbLine
 10
887.8456844262204
 20
34.768028893918995
 30
0.0
 11
887.7659595984527
 21
34.73608296858861
 31
0.0
  0
LINE
  5
2ED
330
17
100
AcDbEntity
  8
0
100
AcDbLine
 10
887.7659595984527
 20
34.73608296858861
 30
0.0
 11
887.6863730551348
 21
34.70396826016845
 31
0.0
  0
LINE
  5
2EE
330
17
100
AcDbEntity
  8
0
100
AcDbLine
 10
887.6863730551348
 20
34.70396826016845
 30
0.0
 11
887.6069255243192
 21
34.671685062441924
 31
0.0
  0
LINE
  5
2EF
330
17
100
AcDbEntity
  8
0
100
AcDbLine
 10
887.6069255243192
 20
34.671685062441924
 30
0.0
 11
887.5276177327877
 21
34.639233670733745
 31
0.0
  0
LINE
  5
2F0
330
17
100
AcDbEntity
  8
0
100
AcDbLine
 10
887.5276177327877
 20
34.639233670733745
 30
0.0
 11
887.4484504060424
 21
34.60661438190728
 31
0.0
  0
LINE
  5
2F1
330
17
100
AcDbEntity
  8
0
100
AcDbLine
 10
887.4484504060424
 20
34.60661438190728
 30
0.0
 11
887.3694242683019
 21
34.573827494361794
 31
0.0
  0
LINE
  5
2F2
330
17
100
AcDbEntity
  8
0
100
AcDbLine
 10
887.3694242683019
 20
34.573827494361794
 30
0.0
 11
887.2905400424921
 21
34.540873308029745
 31
0.0
  0
LINE
  5
2F3
330
17
100
AcDbEntity
  8
0
100
AcDbLine
 10
887.2905400424921
 20
34.540873308029745
 30
0.0
 11
887.2117984502412
 21
34.507752124374036
 31
0.0
  0
LINE
  5
2F4
330
17
100
AcDbEntity
  8
0
100
AcDbLine
 10
887.2117984502412
 20
34.507752124374036
 30
0.0
 11
887.1332002118727
 21
34.47446424638524
 31
0.0
  0
LINE
  5
2F5
330
17
100
AcDbEntity
  8
0
100
AcDbLine
 10
887.1332002118727
 20
34.47446424638524
 30
0.0
 11
887.054746046398
 21
34.44100997857882
 31
0.0
  0
LINE
  5
2F6
330
17
100
AcDbEntity
  8
0
100
AcDbLine
 10
887.054746046398
 20
34.44100997857882
 30
0.0
 11
886.9764366715114
 21
34.40738962699241
 31
0.0
  0
LINE
  5
2F7
330
17
100
AcDbEntity
  8
0
100
AcDbLine
 10
886.9764366715114
 20
34.40738962699241
 30
0.0
 11
886.8982728035822
 21
34.373603499182934
 31
0.0
  0
LINE
  5
2F8
330
17
100
AcDbEntity
  8
0
100
AcDbLine
 10
886.8982728035822
 20
34.373603499182934
 30
0.0
 11
886.8202551576491
 21
34.33965190422384
 31
0.0
  0
LINE
  5
2F9
330
17
100
AcDbEntity
  8
0
100
AcDbLine
 10
886.8202551576491
 20
34.33965190422384
 30
0.0
 11
886.7423844474122
 21
34.30553515270225
 31
0.0
  0
LINE
  5
2FA
330
17
100
AcDbEntity
  8
0
100
AcDbLine
 10
886.7423844474122
 20
34.30553515270225
 30
0.0
 11
886.6646613852282
 21
34.27125355671613
 31
0.0
  0
LINE
  5
2FB
330
17
100
AcDbEntity
  8
0
100
AcDbLine
 10
886.6646613852282
 20
34.27125355671613
 30
0.0
 11
886.5870866821032
 21
34.23680742987145
 31
0.0
  0
LINE
  5
2FC
330
17
100
AcDbEntity
  8
0
100
AcDbLine
 10
886.5870866821032
 20
34.23680742987145
 30
0.0
 11
886.5096610476855
 21
34.20219708727927
 31
0.0
  0
LINE
  5
2FD
330
17
100
AcDbEntity
  8
0
100
AcDbLine
 10
886.5096610476855
 20
34.20219708727927
 30
0.0
 11
886.4323851902604
 21
34.167422845552906
 31
0.0
  0
LINE
  5
2FE
330
17
100
AcDbEntity
  8
0
100
AcDbLine
 10
886.4323851902604
 20
34.167422845552906
 30
0.0
 11
886.3552598167425
 21
34.132485022805014
 31
0.0
  0
LINE
  5
2FF
330
17
100
AcDbEntity
  8
0
100
AcDbLine
 10
886.3552598167425
 20
34.132485022805014
 30
0.0
 11
886.2782856326705
 21
34.09738393864467
 31
0.0
  0
LINE
  5
300
330
17
100
AcDbEntity
  8
0
100
AcDbLine
 10
886.2782856326705
 20
34.09738393864467
 30
0.0
 11
886.201463342199
 21
34.062119914174446
 31
0.0
  0
LINE
  5
301
330
17
100
AcDbEntity
  8
0
100
AcDbLine
 10
886.201463342199
 20
34.062119914174446
 30
0.0
 11
886.1247936480938
 21
34.026693271987504
 31
0.0
  0
LINE
  5
302
330
17
100
AcDbEntity
  8
0
100
AcDbLine
 10
886.1247936480938
 20
34.026693271987504
 30
0.0
 11
886.0482772517247
 21
33.991104336164625
 31
0.0
  0
LINE
  5
303
330
17
100
AcDbEntity
  8
0
100
AcDbLine
 10
886.0482772517247
 20
33.991104336164625
 30
0.0
 11
885.971914853059
 21
33.95535343227122
 31
0.0
  0
LINE
  5
304
330
17
100
AcDbEntity
  8
0
100
AcDbLine
 10
885.971914853059
 20
33.95535343227122
 30
0.0
 11
885.8957071506554
 21
33.919440887354384
 31
0.0
  0
LINE
  5
305
330
17
100
AcDbEntity
  8
0
100
AcDbLine
 10
885.8957071506554
 20
33.919440887354384
 30
0.0
 11
885.8196548416573
 21
33.88336702993989
 31
0.0
  0
LINE
  5
306
330
17
100
AcDbEntity
  8
0
100
AcDbLine
 10
885.8196548416573
 20
33.88336702993989
 30
0.0
 11
885.7437586217864
 21
33.847132190029214
 31
0.0
  0
LINE
  5
307
330
17
100
AcDbEntity
  8
0
100
AcDbLine
 10
885.7437586217864
 20
33.847132190029214
 30
0.0
 11
885.6680191853367
 21
33.81073669909644
 31
0.0
  0
LINE
  5
308
330
17
100
AcDbEntity
  8
0
100
AcDbLine
 10
885.6680191853367
 20
33.81073669909644
 30
0.0
 11
885.5924372251682
 21
33.77418089008533
 31
0.0
  0
LINE
  5
309
330
17
100
AcDbEntity
  8
0
100
AcDbLine
 10
885.5924372251682
 20
33.77418089008533
 30
0.0
 11
885.5170134327
 21
33.7374650974062
 31
0.0
  0
LINE
  5
30A
330
17
100
AcDbEntity
  8
0
100
AcDbLine
 10
885.5170134327
 20
33.7374650974062
 30
0.0
 11
885.4417484979043
 21
33.70058965693288
 31
0.0
  0
LINE
  5
30B
330
17
100
AcDbEntity
  8
0
100
AcDbLine
 10
885.4417484979043
 20
33.70058965693288
 30
0.0
 11
885.3666431093002
 21
33.66355490599967
 31
0.0
  0
LINE
  5
30C
330
17
100
AcDbEntity
  8
0
100
AcDbLine
 10
885.3666431093002
 20
33.66355490599967
 30
0.0
 11
885.2916979539473
 21
33.6263611833982
 31
0.0
  0
LINE
  5
30D
330
17
100
AcDbEntity
  8
0
100
AcDbLine
 10
885.2916979539473
 20
33.6263611833982
 30
0.0
 11
885.2169137174392
 21
33.58900882937441
 31
0.0
  0
LINE
  5
30E
330
17
100
AcDbEntity
  8
0
100
AcDbLine
 10
885.2169137174392
 20
33.58900882937441
 30
0.0
 11
885.1422910838976
 21
33.551498185625356
 31
0.0
  0
LINE
  5
30F
330
17
100
AcDbEntity
  8
0
100
AcDbLine
 10
885.1422910838976
 20
33.551498185625356
 30
0.0
 11
885.0678307359658
 21
33.513829595296116
 31
0.0
  0
LINE
  5
310
330
17
100
AcDbEntity
  8
0
100
AcDbLine
 10
885.0678307359658
 20
33.513829595296116
 30
0.0
 11
884.9935333548025
 21
33.47600340297669
 31
0.0
  0
LINE
  5
311
330
17
100
AcDbEntity
  8
0
100
AcDbLine
 10
884.9935333548025
 20
33.47600340297669
 30
0.0
 11
884.9193996200756
 21
33.438019954698746
 31
0.0
  0
LINE
  5
312
330
17
100
AcDbEntity
  8
0
100
AcDbLine
 10
884.9193996200756
 20
33.438019954698746
 30
0.0
 11
884.8454302099562
 21
33.399879597932596
 31
0.0
  0
LINE
  5
313
330
17
100
AcDbEntity
  8
0
100
AcDbLine
 10
884.8454302099562
 20
33.399879597932596
 30
0.0
 11
884.7716258011119
 21
33.3615826815839
 31
0.0
  0
LINE
  5
314
330
17
100
AcDbEntity
  8
0
100
AcDbLine
 10
884.7716258011119
 20
33.3615826815839
 30
0.0
 11
884.697987068701
 21
33.323129555990505
 31
0.0
  0
LINE
  5
315
330
17
100
AcDbEntity
  8
0
100
AcDbLine
 10
884.697987068701
 20
33.323129555990505
 30
0.0
 11
884.6245146863658
 21
33.284520572919284
 31
0.0
  0
LINE
  5
316
330
17
100
AcDbEntity
  8
0
100
AcDbLine
 10
884.6245146863658
 20
33.284520572919284
 30
0.0
 11
884.5512093262274
 21
33.24575608556285
 31
0.0
  0
LINE
  5
317
330
17
100
AcDbEntity
  8
0
100
AcDbLine
 10
884.5512093262274
 20
33.24575608556285
 30
0.0
 11
884.478071658879
 21
33.20683644853639
 31
0.0
  0
LINE
  5
318
330
17
100
AcDbEntity
  8
0
100
AcDbLine
 10
884.478071658879
 20
33.20683644853639
 30
0.0
 11
884.4051023533792
 21
33.16776201787439
 31
0.0
  0
LINE
  5
319
330
17
100
AcDbEntity
  8
0
100
AcDbLine
 10
884.4051023533792
 20
33.16776201787439
 30
0.0
 11
884.3323020772469
 21
33.12853315102734
 31
0.0
  0
LINE
  5
31A
330
17
100
AcDbEntity
  8
0
100
AcDbLine
 10
884.3323020772469
 20
33.12853315102734
 30
0.0
 11
884.2596714964548
 21
33.08915020685855
 31
0.0
  0
LINE
  5
31B
330
17
100
AcDbEntity
  8
0
100
AcDbLine
 10
884.2596714964548
 20
33.08915020685855
 30
0.0
 11
884.1872112754227
 21
33.04961354564079
 31
0.0
  0
LINE
  5
31C
330
17
100
AcDbEntity
  8
0
100
AcDbLine
 10
884.1872112754227
 20
33.04961354564079
 30
0.0
 11
884.1149220770126
 21
33.00992352905304
 31
0.0
  0
LINE
  5
31D
330
17
100
AcDbEntity
  8
0
100
AcDbLine
 10
884.1149220770126
 20
33.00992352905304
 30
0.0
 11
884.0428045625213
 21
32.97008052017715
 31
0.0
  0
LINE
  5
31E
330
17
100
AcDbEntity
  8
0
100
AcDbLine
 10
884.0428045625213
 20
32.97008052017715
 30
0.0
 11
883.970859391676
 21
32.93008488349455
 31
0.0
  0
LINE
  5
31F
330
17
100
AcDbEntity
  8
0
100
AcDbLine
 10
883.970859391676
 20
32.93008488349455
 30
0.0
 11
883.8990872226261
 21
32.889936984882894
 31
0.0
  0
LINE
  5
320
330
17
100
AcDbEntity
  8
0
100
AcDbLine
 10
883.8990872226261
 20
32.889936984882894
 30
0.0
 11
883.8274887119396
 21
32.84963719161272
 31
0.0
  0
LINE
  5
321
330
17
100
AcDbEntity
  8
0
100
AcDbLine
 10
883.8274887119396
 20
32.84963719161272
 30
0.0
 11
883.756064514595
 21
32.80918587234409
 31
0.0
  0
LINE
  5
322
330
17
100
AcDbEntity
  8
0
100
AcDbLine
 10
883.756064514595
 20
32.80918587234409
 30
0.0
 11
883.6848152839767
 21
32.7685833971232
 31
0.0
  0
LINE
  5
323
330
17
100
AcDbEntity
  8
0
100
AcDbLine
 10
883.6848152839767
 20
32.7685833971232
 30
0.0
 11
883.6137416718682
 21
32.72783013737903
 31
0.0
  0
LINE
  5
324
330
17
100
AcDbEntity
  8
0
100
AcDbLine
 10
883.6137416718682
 20
32.72783013737903
 30
0.0
 11
883.5428443284467
 21
32.68692646591994
 31
0.0
  0
LINE
  5
325
330
17
100
AcDbEntity
  8
0
100
AcDbLine
 10
883.5428443284467
 20
32.68692646591994
 30
0.0
 11
883.4721239022767
 21
32.64587275693022
 31
0.0
  0
LINE
  5
326
330
17
100
AcDbEntity
  8
0
100
AcDbLine
 10
883.4721239022767
 20
32.64587275693022
 30
0.0
 11
883.4015810403043
 21
32.6046693859667
 31
0.0
  0
LINE
  5
327
330
17
100
AcDbEntity
  8
0
100
AcDbLine
 10
883.4015810403043
 20
32.6046693859667
 30
0.0
 11
883.3312163878516
 21
32.56331672995532
 31
0.0
  0
LINE
  5
328
330
17
100
AcDbEntity
  8
0
100
AcDbLine
 10
883.3312163878516
 20
32.56331672995532
 30
0.0
 11
883.2610305886097
 21
32.521815167187654
 31
0.0
  0
LINE
  5
329
330
17
100
AcDbEntity
  8
0
100
AcDbLine
 10
883.2610305886097
 20
32.521815167187654
 30
0.0
 11
883.1910242846345
 21
32.480165077317494
 31
0.0
  0
LINE
  5
32A
330
17
100
AcDbEntity
  8
0
100
AcDbLine
 10
883.1910242846345
 20
32.480165077317494
 30
0.0
 11
883.121198116339
 21
32.43836684135731
 31
0.0
  0
LINE
  5
32B
330
17
100
AcDbEntity
  8
0
100
AcDbLine
 10
883.121198116339
 20
32.43836684135731
 30
0.0
 11
883.0515527224892
 21
32.39642084167484
 31
0.0
  0
LINE
  5
32C
330
17
100
AcDbEntity
  8
0
100
AcDbLine
 10
883.0515527224892
 20
32.39642084167484
 30
0.0
 11
882.9820887401966
 21
32.35432746198953
 31
0.0
  0
LINE
  5
32D
330
17
100
AcDbEntity
  8
0
100
AcDbLine
 10
882.9820887401966
 20
32.35432746198953
 30
0.0
 11
882.9128068049134
 21
32.312087087369065
 31
0.0
  0
LINE
  5
32E
330
17
100
AcDbEntity
  8
0
100
AcDbLine
 10
882.9128068049134
 20
32.312087087369065
 30
0.0
 11
882.8437075504268
 21
32.26970010422582
 31
0.0
  0
LINE
  5
32F
330
17
100
AcDbEntity
  8
0
100
AcDbLine
 10
882.8437075504268
 20
32.26970010422582
 30
0.0
 11
882.7747916088525
 21
32.22716690031335
 31
0.0
  0
LINE
  5
330
330
17
100
AcDbEntity
  8
0
100
AcDbLine
 10
882.7747916088525
 20
32.22716690031335
 30
0.0
 11
882.7060596106294
 21
32.184487864722804
 31
0.0
  0
LINE
  5
331
330
17
100
AcDbEntity
  8
0
100
AcDbLine
 10
882.7060596106294
 20
32.184487864722804
 30
0.0
 11
882.6375121845134
 21
32.14166338787942
 31
0.0
  0
LINE
  5
332
330
17
100
AcDbEntity
  8
0
100
AcDbLine
 10
882.6375121845134
 20
32.14166338787942
 30
0.0
 11
882.5691499575723
 21
32.098693861538905
 31
0.0
  0
LINE
  5
333
330
17
100
AcDbEntity
  8
0
100
AcDbLine
 10
882.5691499575723
 20
32.098693861538905
 30
0.0
 11
882.5009735551799
 21
32.05557967878387
 31
0.0
  0
LINE
  5
334
330
17
100
AcDbEntity
  8
0
100
AcDbLine
 10
882.5009735551799
 20
32.05557967878387
 30
0.0
 11
882.4329836010094
 21
32.01232123402025
 31
0.0
  0
LINE
  5
335
330
17
100
AcDbEntity
  8
0
100
AcDbLine
 10
882.4329836010094
 20
32.01232123402025
 30
0.0
 11
882.365180717029
 21
31.968918922973653
 31
0.0
  0
LINE
  5
336
330
17
100
AcDbEntity
  8
0
100
AcDbLine
 10
882.365180717029
 20
31.968918922973653
 30
0.0
 11
882.2975655234951
 21
31.925373142685796
 31
0.0
  0
LINE
  5
337
330
17
100
AcDbEntity
  8
0
100
AcDbLine
 10
882.2975655234951
 20
31.925373142685796
 30
0.0
 11
882.2301386389477
 21
31.881684291510823
 31
0.0
  0
LINE
  5
338
330
17
100
AcDbEntity
  8
0
100
AcDbLine
 10
882.2301386389477
 20
31.881684291510823
 30
0.0
 11
882.1629006802035
 21
31.837852769111688
 31
0.0
  0
LINE
  5
339
330
17
100
AcDbEntity
  8
0
100
AcDbLine
 10
882.1629006802035
 20
31.837852769111688
 30
0.0
 11
882.0958522623516
 21
31.793878976456494
 31
0.0
  0
LINE
  5
33A
330
17
100
AcDbEntity
  8
0
100
AcDbLine
 10
882.0958522623516
 20
31.793878976456494
 30
0.0
 11
882.0289939987466
 21
31.749763315814832
 31
0.0
  0
LINE
  5
33B
330
17
100
AcDbEntity
  8
0
100
AcDbLine
 10
882.0289939987466
 20
31.749763315814832
 30
0.0
 11
881.9623265010042
 21
31.70550619075408
 31
0.0
  0
LINE
  5
33C
330
17
100
AcDbEntity
  8
0
100
AcDbLine
 10
881.9623265010042
 20
31.70550619075408
 30
0.0
 11
881.895850378994
 21
31.661108006135727
 31
0.0
  0
LINE
  5
33D
330
17
100
AcDbEntity
  8
0
100
AcDbLine
 10
881.895850378994
 20
31.661108006135727
 30
0.0
 11
881.829566240836
 21
31.616569168111667
 31
0.0
  0
LINE
  5
33E
330
17
100
AcDbEntity
  8
0
100
AcDbLine
 10
881.829566240836
 20
31.616569168111667
 30
0.0
 11
881.7634746928935
 21
31.571890084120486
 31
0.0
  0
LINE
  5
33F
330
17
100
AcDbEntity
  8
0
100
AcDbLine
 10
881.7634746928935
 20
31.571890084120486
 30
0.0
 11
881.6975763397677
 21
31.52707116288373
 31
0.0
  0
LINE
  5
340
330
17
100
AcDbEntity
  8
0
100
AcDbLine
 10
881.6975763397677
 20
31.52707116288373
 30
0.0
 11
881.6318717842928
 21
31.482112814402157
 31
0.0
  0
LINE
  5
341
330
17
100
AcDbEntity
  8
0
100
AcDbLine
 10
881.6318717842928
 20
31.482112814402157
 30
0.0
 11
881.5663616275301
 21
31.43701544995202
 31
0.0
  0
LINE
  5
342
330
17
100
AcDbEntity
  8
0
100
AcDbLine
 10
881.5663616275301
 20
31.43701544995202
 30
0.0
 11
881.5010464687625
 21
31.39177948208125
 31
0.0
  0
LINE
  5
343
330
17
100
AcDbEntity
  8
0
100
AcDbLine
 10
881.5010464687625
 20
31.39177948208125
 30
0.0
 11
881.4359269054894
 21
31.346405324605755
 31
0.0
  0
LINE
  5
344
330
17
100
AcDbEntity
  8
0
100
AcDbLine
 10
881.4359269054894
 20
31.346405324605755
 30
0.0
 11
881.3710035334201
 21
31.300893392605555
 31
0.0
  0
LINE
  5
345
330
17
100
AcDbEntity
  8
0
100
AcDbLine
 10
881.3710035334201
 20
31.300893392605555
 30
0.0
 11
881.3062769464701
 21
31.255244102421045
 31
0.0
  0
LINE
  5
346
330
17
100
AcDbEntity
  8
0
100
AcDbLine
 10
881.3062769464701
 20
31.255244102421045
 30
0.0
 11
881.241747736754
 21
31.20945787164915
 31
0.0
  0
LINE
  5
347
330
17
100
AcDbEntity
  8
0
100
AcDbLine
 10
881.241747736754
 20
31.20945787164915
 30
0.0
 11
881.1774164945812
 21
31.16353511913953
 31
0.0
  0
LINE
  5
348
330
17
100
AcDbEntity
  8
0
100
AcDbLine
 10
881.1774164945812
 20
31.16353511913953
 30
0.0
 11
881.11328380845
 21
31.117476264990735
 31
0.0
  0
LINE
  5
349
330
17
100
AcDbEntity
  8
0
100
AcDbLine
 10
881.1132838084492
 20
31.1185594424304
 30
0.0
 11
881.1132838084492
 21
31.1174762649919
 31
0.0
  0
LINE
  5
34A
330
17
100
AcDbEntity
  8
0
100
AcDbLine
 10
881.1132838084495
 20
31.118559442430147
 30
0.0
 11
880.8694199647746
 21
30.931496098339085
 31
0.0
  0
LINE
  5
34B
330
17
100
AcDbEntity
  8
0
100
AcDbLine
 10
880.8694199647746
 20
30.931496098339085
 30
0.0
 11
880.6284818718165
 21
30.738895713991294
 31
0.0
  0
LINE
  5
34C
330
17
100
AcDbEntity
  8
0
100
AcDbLine
 10
880.6284818718165
 20
30.738895713991294
 30
0.0
 11
880.3906363791884
 21
30.540486025931145
 31
0.0
  0
LINE
  5
34D
330
17
100
AcDbEntity
  8
0
100
AcDbLine
 10
880.3906363791884
 20
30.540486025931145
 30
0.0
 11
880.1558134532966
 21
30.33650270881161
 31
0.0
  0
LINE
  5
34E
330
17
100
AcDbEntity
  8
0
100
AcDbLine
 10
880.1558134532966
 20
30.33650270881161
 30
0.0
 11
879.9239063934237
 21
30.127260060963316
 31
0.0
  0
LINE
  5
34F
330
17
100
AcDbEntity
  8
0
100
AcDbLine
 10
879.9239063934237
 20
30.127260060963316
 30
0.0
 11
879.6948084988526
 21
29.91307238071688
 31
0.0
  0
LINE
  5
350
330
17
100
AcDbEntity
  8
0
100
AcDbLine
 10
879.6948084988526
 20
29.91307238071688
 30
0.0
 11
879.4684130688664
 21
29.694253966402922
 31
0.0
  0
LINE
  5
351
330
17
100
AcDbEntity
  8
0
100
AcDbLine
 10
879.4684130688664
 20
29.694253966402922
 30
0.0
 11
879.2446134027479
 21
29.47111911635206
 31
0.0
  0
LINE
  5
352
330
17
100
AcDbEntity
  8
0
100
AcDbLine
 10
879.2446134027479
 20
29.47111911635206
 30
0.0
 11
879.0233027997799
 21
29.243982128894924
 31
0.0
  0
LINE
  5
353
330
17
100
AcDbEntity
  8
0
100
AcDbLine
 10
879.0233027997799
 20
29.243982128894924
 30
0.0
 11
878.8043745592457
 21
29.013157302362128
 31
0.0
  0
LINE
  5
354
330
17
100
AcDbEntity
  8
0
100
AcDbLine
 10
878.8043745592457
 20
29.013157302362128
 30
0.0
 11
878.587721980428
 21
28.778958935084294
 31
0.0
  0
LINE
  5
355
330
17
100
AcDbEntity
  8
0
100
AcDbLine
 10
878.587721980428
 20
28.778958935084294
 30
0.0
 11
878.3732383626098
 21
28.54170132539204
 31
0.0
  0
LINE
  5
356
330
17
100
AcDbEntity
  8
0
100
AcDbLine
 10
878.3732383626098
 20
28.54170132539204
 30
0.0
 11
878.1608170050737
 21
28.301698771616
 31
0.0
  0
LINE
  5
357
330
17
100
AcDbEntity
  8
0
100
AcDbLine
 10
878.1608170050737
 20
28.301698771616
 30
0.0
 11
877.950351207103
 21
28.05926557208678
 31
0.0
  0
LINE
  5
358
330
17
100
AcDbEntity
  8
0
100
AcDbLine
 10
877.950351207103
 20
28.05926557208678
 30
0.0
 11
877.7417355172721
 21
27.814702541116272
 31
0.0
  0
LINE
  5
359
330
17
100
AcDbEntity
  8
0
100
AcDbLine
 10
877.7417355172721
 20
27.814702541116272
 30
0.0
 11
877.5348765671856
 21
27.56818007683817
 31
0.0
  0
LINE
  5
35A
330
17
100
AcDbEntity
  8
0
100
AcDbLine
 10
877.5348765671856
 20
27.56818007683817
 30
0.0
 11
877.329687762774
 21
27.31979545983393
 31
0.0
  0
LINE
  5
35B
330
17
100
AcDbEntity
  8
0
100
AcDbLine
 10
877.329687762774
 20
27.31979545983393
 30
0.0
 11
877.1260825847406
 21
27.069645163631783
 31
0.0
  0
LINE
  5
35C
330
17
100
AcDbEntity
  8
0
100
AcDbLine
 10
877.1260825847406
 20
27.069645163631783
 30
0.0
 11
876.9239745137892
 21
26.817825661759972
 31
0.0
  0
LINE
  5
35D
330
17
100
AcDbEntity
  8
0
100
AcDbLine
 10
876.9239745137892
 20
26.817825661759972
 30
0.0
 11
876.7232770306232
 21
26.56443342774674
 31
0.0
  0
LINE
  5
35E
330
17
100
AcDbEntity
  8
0
100
AcDbLine
 10
876.7232770306232
 20
26.56443342774674
 30
0.0
 11
876.523903615946
 21
26.309564935120317
 31
0.0
  0
LINE
  5
35F
330
17
100
AcDbEntity
  8
0
100
AcDbLine
 10
876.523903615946
 20
26.309564935120317
 30
0.0
 11
876.3257677504613
 21
26.05331665740895
 31
0.0
  0
LINE
  5
360
330
17
100
AcDbEntity
  8
0
100
AcDbLine
 10
876.3257677504613
 20
26.05331665740895
 30
0.0
 11
876.1287829148729
 21
25.795785068140873
 31
0.0
  0
LINE
  5
361
330
17
100
AcDbEntity
  8
0
100
AcDbLine
 10
876.1287829148729
 20
25.795785068140873
 30
0.0
 11
875.932862589884
 21
25.53706664084433
 31
0.0
  0
LINE
  5
362
330
17
100
AcDbEntity
  8
0
100
AcDbLine
 10
875.932862589884
 20
25.53706664084433
 30
0.0
 11
875.7379202561982
 21
25.277257849047558
 31
0.0
  0
LINE
  5
363
330
17
100
AcDbEntity
  8
0
100
AcDbLine
 10
875.7379202561982
 20
25.277257849047558
 30
0.0
 11
875.5438693945192
 21
25.0164551662788
 31
0.0
  0
LINE
  5
364
330
17
100
AcDbEntity
  8
0
100
AcDbLine
 10
875.5438693945192
 20
25.0164551662788
 30
0.0
 11
875.3506234855504
 21
24.75475506606629
 31
0.0
  0
LINE
  5
365
330
17
100
AcDbEntity
  8
0
100
AcDbLine
 10
875.3506234855504
 20
24.75475506606629
 30
0.0
 11
875.1580960099955
 21
24.49225402193827
 31
0.0
  0
LINE
  5
366
330
17
100
AcDbEntity
  8
0
100
AcDbLine
 10
875.1580960099955
 20
24.49225402193827
 30
0.0
 11
874.9662004485576
 21
24.22904850742298
 31
0.0
  0
LINE
  5
367
330
17
100
AcDbEntity
  8
0
100
AcDbLine
 10
874.9662004485576
 20
24.22904850742298
 30
0.0
 11
874.7748502819408
 21
23.965234996048657
 31
0.0
  0
LINE
  5
368
330
17
100
AcDbEntity
  8
0
100
AcDbLine
 10
874.7748502819408
 20
23.965234996048657
 30
0.0
 11
874.5839589908485
 21
23.70090996134354
 31
0.0
  0
LINE
  5
369
330
17
100
AcDbEntity
  8
0
100
AcDbLine
 10
874.5839589908485
 20
23.70090996134354
 30
0.0
 11
874.393440055984
 21
23.436169876835873
 31
0.0
  0
LINE
  5
36A
330
17
100
AcDbEntity
  8
0
100
AcDbLine
 10
874.393440055984
 20
23.436169876835873
 30
0.0
 11
874.2032069580512
 21
23.171111216053895
 31
0.0
  0
LINE
  5
36B
330
17
100
AcDbEntity
  8
0
100
AcDbLine
 10
874.2032069580512
 20
23.171111216053895
 30
0.0
 11
874.0131731777534
 21
22.905830452525837
 31
0.0
  0
LINE
  5
36C
330
17
100
AcDbEntity
  8
0
100
AcDbLine
 10
874.0131731777534
 20
22.905830452525837
 30
0.0
 11
873.8232521957941
 21
22.64042405977995
 31
0.0
  0
LINE
  5
36D
330
17
100
AcDbEntity
  8
0
100
AcDbLine
 10
873.8232521957941
 20
22.64042405977995
 30
0.0
 11
873.6333574928772
 21
22.374988511344462
 31
0.0
  0
LINE
  5
36E
330
17
100
AcDbEntity
  8
0
100
AcDbLine
 10
873.6333574928772
 20
22.374988511344462
 30
0.0
 11
873.4434025497056
 21
22.10962028074762
 31
0.0
  0
LINE
  5
36F
330
17
100
AcDbEntity
  8
0
100
AcDbLine
 10
873.4434025497056
 20
22.10962028074762
 30
0.0
 11
873.2533030416406
 21
21.844413405165135
 31
0.0
  0
LINE
  5
370
330
17
100
AcDbEntity
  8
0
100
AcDbLine
 10
873.2533030416406
 20
21.844413405165135
 30
0.0
 11
873.0630251934512
 21
21.579405805407703
 31
0.0
  0
LINE
  5
371
330
17
100
AcDbEntity
  8
0
100
AcDbLine
 10
873.0630251934512
 20
21.579405805407703
 30
0.0
 11
872.8725858195119
 21
21.314579241297636
 31
0.0
  0
LINE
  5
372
330
17
100
AcDbEntity
  8
0
100
AcDbLine
 10
872.8725858195119
 20
21.314579241297636
 30
0.0
 11
872.6820039368935
 21
21.049913027380025
 31
0.0
  0
LINE
  5
373
330
17
100
AcDbEntity
  8
0
100
AcDbLine
 10
872.6820039368935
 20
21.049913027380025
 30
0.0
 11
872.4912985626669
 21
20.785386478199964
 31
0.0
  0
LINE
  5
374
330
17
100
AcDbEntity
  8
0
100
AcDbLine
 10
872.4912985626669
 20
20.785386478199964
 30
0.0
 11
872.3004887139031
 21
20.520978908302546
 31
0.0
  0
LINE
  5
375
330
17
100
AcDbEntity
  8
0
100
AcDbLine
 10
872.3004887139031
 20
20.520978908302546
 30
0.0
 11
872.109593407673
 21
20.256669632232867
 31
0.0
  0
LINE
  5
376
330
17
100
AcDbEntity
  8
0
100
AcDbLine
 10
872.109593407673
 20
20.256669632232867
 30
0.0
 11
871.9186316610471
 21
19.99243796453602
 31
0.0
  0
LINE
  5
377
330
17
100
AcDbEntity
  8
0
100
AcDbLine
 10
871.9186316610471
 20
19.99243796453602
 30
0.0
 11
871.7276224910968
 21
19.728263219757107
 31
0.0
  0
LINE
  5
378
330
17
100
AcDbEntity
  8
0
100
AcDbLine
 10
871.7276224910968
 20
19.728263219757107
 30
0.0
 11
871.5365849148925
 21
19.46412471244121
 31
0.0
  0
LINE
  5
379
330
17
100
AcDbEntity
  8
0
100
AcDbLine
 10
871.5365849148925
 20
19.46412471244121
 30
0.0
 11
871.3455379495053
 21
19.200001757133435
 31
0.0
  0
LINE
  5
37A
330
17
100
AcDbEntity
  8
0
100
AcDbLine
 10
871.3455379495053
 20
19.200001757133435
 30
0.0
 11
871.1545006120062
 21
18.935873668378868
 31
0.0
  0
LINE
  5
37B
330
17
100
AcDbEntity
  8
0
100
AcDbLine
 10
871.1545006120062
 20
18.935873668378868
 30
0.0
 11
870.9634919194659
 21
18.67171976072261
 31
0.0
  0
LINE
  5
37C
330
17
100
AcDbEntity
  8
0
100
AcDbLine
 10
870.9634919194659
 20
18.67171976072261
 30
0.0
 11
870.7725308889554
 21
18.407519348709755
 31
0.0
  0
LINE
  5
37D
330
17
100
AcDbEntity
  8
0
100
AcDbLine
 10
870.7725308889554
 20
18.407519348709755
 30
0.0
 11
870.5816365375455
 21
18.143251746885387
 31
0.0
  0
LINE
  5
37E
330
17
100
AcDbEntity
  8
0
100
AcDbLine
 10
870.5816365375455
 20
18.143251746885387
 30
0.0
 11
870.3908278823071
 21
17.878896269794616
 31
0.0
  0
LINE
  5
37F
330
17
100
AcDbEntity
  8
0
100
AcDbLine
 10
870.3908278823071
 20
17.878896269794616
 30
0.0
 11
870.2001239403108
 21
17.614432231982526
 31
0.0
  0
LINE
  5
380
330
17
100
AcDbEntity
  8
0
100
AcDbLine
 10
870.2001239403108
 20
17.614432231982526
 30
0.0
 11
870.009543728628
 21
17.34983894799422
 31
0.0
  0
LINE
  5
381
330
17
100
AcDbEntity
  8
0
100
AcDbLine
 10
870.009543728628
 20
17.34983894799422
 30
0.0
 11
869.8191062643293
 21
17.08509573237478
 31
0.0
  0
LINE
  5
382
330
17
100
AcDbEntity
  8
0
100
AcDbLine
 10
869.8191062643293
 20
17.08509573237478
 30
0.0
 11
869.6288305644856
 21
16.820181899669315
 31
0.0
  0
LINE
  5
383
330
17
100
AcDbEntity
  8
0
100
AcDbLine
 10
869.6288305644856
 20
16.820181899669315
 30
0.0
 11
869.4387356461679
 21
16.555076764422907
 31
0.0
  0
LINE
  5
384
330
17
100
AcDbEntity
  8
0
100
AcDbLine
 10
869.4387356461679
 20
16.555076764422907
 30
0.0
 11
869.2488405264468
 21
16.28975964118066
 31
0.0
  0
LINE
  5
385
330
17
100
AcDbEntity
  8
0
100
AcDbLine
 10
869.2488405264468
 20
16.28975964118066
 30
0.0
 11
869.0591642223933
 21
16.02420984448766
 31
0.0
  0
LINE
  5
386
330
17
100
AcDbEntity
  8
0
100
AcDbLine
 10
869.0591642223933
 20
16.02420984448766
 30
0.0
 11
868.8697257510784
 21
15.75840668888901
 31
0.0
  0
LINE
  5
387
330
17
100
AcDbEntity
  8
0
100
AcDbLine
 10
868.8697257510784
 20
15.75840668888901
 30
0.0
 11
868.6805441295728
 21
15.492329488929798
 31
0.0
  0
LINE
  5
388
330
17
100
AcDbEntity
  8
0
100
AcDbLine
 10
868.6805441295728
 20
15.492329488929798
 30
0.0
 11
868.4916383749476
 21
15.225957559155127
 31
0.0
  0
LINE
  5
389
330
17
100
AcDbEntity
  8
0
100
AcDbLine
 10
868.4916383749476
 20
15.225957559155127
 30
0.0
 11
868.3030275042735
 21
14.959270214110079
 31
0.0
  0
LINE
  5
38A
330
17
100
AcDbEntity
  8
0
100
AcDbLine
 10
868.3030275042735
 20
14.959270214110079
 30
0.0
 11
868.1147290131049
 21
14.692248443880382
 31
0.0
  0
LINE
  5
38B
330
17
100
AcDbEntity
  8
0
100
AcDbLine
 10
868.1147290131049
 20
14.692248443880382
 30
0.0
 11
867.9267427618223
 21
14.424892658946533
 31
0.0
  0
LINE
  5
38C
330
17
100
AcDbEntity
  8
0
100
AcDbLine
 10
867.9267427618223
 20
14.424892658946533
 30
0.0
 11
867.739057258133
 21
14.15721577170142
 31
0.0
  0
LINE
  5
38D
330
17
100
AcDbEntity
  8
0
100
AcDbLine
 10
867.739057258133
 20
14.15721577170142
 30
0.0
 11
867.5516608216462
 21
13.88923090167673
 31
0.0
  0
LINE
  5
38E
330
17
100
AcDbEntity
  8
0
100
AcDbLine
 10
867.5516608216462
 20
13.88923090167673
 30
0.0
 11
867.3645417719714
 21
13.62095116840412
 31
0.0
  0
LINE
  5
38F
330
17
100
AcDbEntity
  8
0
100
AcDbLine
 10
867.3645417719714
 20
13.62095116840412
 30
0.0
 11
867.1776884287184
 21
13.352389691415278
 31
0.0
  0
LINE
  5
390
330
17
100
AcDbEntity
  8
0
100
AcDbLine
 10
867.1776884287184
 20
13.352389691415278
 30
0.0
 11
866.9910891114965
 21
13.083559590241869
 31
0.0
  0
LINE
  5
391
330
17
100
AcDbEntity
  8
0
100
AcDbLine
 10
866.9910891114965
 20
13.083559590241869
 30
0.0
 11
866.8047321399152
 21
12.81447398441556
 31
0.0
  0
LINE
  5
392
330
17
100
AcDbEntity
  8
0
100
AcDbLine
 10
866.8047321399152
 20
12.81447398441556
 30
0.0
 11
866.6186058335842
 21
12.545145993468036
 31
0.0
  0
LINE
  5
393
330
17
100
AcDbEntity
  8
0
100
AcDbLine
 10
866.6186058335842
 20
12.545145993468036
 30
0.0
 11
866.4326985121127
 21
12.275588736930958
 31
0.0
  0
LINE
  5
394
330
17
100
AcDbEntity
  8
0
100
AcDbLine
 10
866.4326985121127
 20
12.275588736930958
 30
0.0
 11
866.2469984951103
 21
12.005815334336006
 31
0.0
  0
LINE
  5
395
330
17
100
AcDbEntity
  8
0
100
AcDbLine
 10
866.2469984951103
 20
12.005815334336006
 30
0.0
 11
866.0614941021869
 21
11.735838905214848
 31
0.0
  0
LINE
  5
396
330
17
100
AcDbEntity
  8
0
100
AcDbLine
 10
866.0614941021869
 20
11.735838905214848
 30
0.0
 11
865.8761736529515
 21
11.465672569099162
 31
0.0
  0
LINE
  5
397
330
17
100
AcDbEntity
  8
0
100
AcDbLine
 10
865.8761736529515
 20
11.465672569099162
 30
0.0
 11
865.6910254670139
 21
11.195329445520613
 31
0.0
  0
LINE
  5
398
330
17
100
AcDbEntity
  8
0
100
AcDbLine
 10
865.6910254670139
 20
11.195329445520613
 30
0.0
 11
865.5060378639834
 21
10.924822654010882
 31
0.0
  0
LINE
  5
399
330
17
100
AcDbEntity
  8
0
100
AcDbLine
 10
865.5060378639834
 20
10.924822654010882
 30
0.0
 11
865.3211991634698
 21
10.65416531410163
 31
0.0
  0
LINE
  5
39A
330
17
100
AcDbEntity
  8
0
100
AcDbLine
 10
865.3211991634698
 20
10.65416531410163
 30
0.0
 11
865.1364977875403
 21
10.383370432059692
 31
0.0
  0
LINE
  5
39B
330
17
100
AcDbEntity
  8
0
100
AcDbLine
 10
865.1364977875403
 20
10.383370432059692
 30
0.0
 11
864.9519279489066
 21
10.112444612729005
 31
0.0
  0
LINE
  5
39C
330
17
100
AcDbEntity
  8
0
100
AcDbLine
 10
864.9519279489066
 20
10.112444612729005
 30
0.0
 11
864.7674926364004
 21
9.841384759155725
 31
0.0
  0
LINE
  5
39D
330
17
100
AcDbEntity
  8
0
100
AcDbLine
 10
864.7674926364004
 20
9.841384759155725
 30
0.0
 11
864.5831955709579
 21
9.570186965062158
 31
0.0
  0
LINE
  5
39E
330
17
100
AcDbEntity
  8
0
100
AcDbLine
 10
864.5831955709579
 20
9.570186965062158
 30
0.0
 11
864.3990404735146
 21
9.298847324170612
 31
0.0
  0
LINE
  5
39F
330
17
100
AcDbEntity
  8
0
100
AcDbLine
 10
864.3990404735146
 20
9.298847324170612
 30
0.0
 11
864.2150310650065
 21
9.027361930203412
 31
0.0
  0
LINE
  5
3A0
330
17
100
AcDbEntity
  8
0
100
AcDbLine
 10
864.2150310650065
 20
9.027361930203412
 30
0.0
 11
864.0311710663693
 21
8.755726876882857
 31
0.0
  0
LINE
  5
3A1
330
17
100
AcDbEntity
  8
0
100
AcDbLine
 10
864.0311710663693
 20
8.755726876882857
 30
0.0
 11
863.847464198539
 21
8.48393825793127
 31
0.0
  0
LINE
  5
3A2
330
17
100
AcDbEntity
  8
0
100
AcDbLine
 10
863.847464198539
 20
8.48393825793127
 30
0.0
 11
863.6639141824514
 21
8.211992167070951
 31
0.0
  0
LINE
  5
3A3
330
17
100
AcDbEntity
  8
0
100
AcDbLine
 10
863.6639141824514
 20
8.211992167070951
 30
0.0
 11
863.480524739042
 21
7.939884698024225
 31
0.0
  0
LINE
  5
3A4
330
17
100
AcDbEntity
  8
0
100
AcDbLine
 10
863.480524739042
 20
7.939884698024225
 30
0.0
 11
863.297299589247
 21
7.667611944513394
 31
0.0
  0
LINE
  5
3A5
330
17
100
AcDbEntity
  8
0
100
AcDbLine
 10
863.297299589247
 20
7.667611944513394
 30
0.0
 11
863.1142424540022
 21
7.395170000260778
 31
0.0
  0
LINE
  5
3A6
330
17
100
AcDbEntity
  8
0
100
AcDbLine
 10
863.1142424540022
 20
7.395170000260778
 30
0.0
 11
862.9313568713422
 21
7.122555153641372
 31
0.0
  0
LINE
  5
3A7
330
17
100
AcDbEntity
  8
0
100
AcDbLine
 10
862.9313568713422
 20
7.122555153641372
 30
0.0
 11
862.7486429543316
 21
6.849767338058877
 31
0.0
  0
LINE
  5
3A8
330
17
100
AcDbEntity
  8
0
100
AcDbLine
 10
862.7486429543316
 20
6.849767338058877
 30
0.0
 11
862.5660977761705
 21
6.57680972209626
 31
0.0
  0
LINE
  5
3A9
330
17
100
AcDbEntity
  8
0
100
AcDbLine
 10
862.5660977761705
 20
6.57680972209626
 30
0.0
 11
862.3837183045231
 21
6.303685586653525
 31
0.0
  0
LINE
  5
3AA
330
17
100
AcDbEntity
  8
0
100
AcDbLine
 10
862.3837183045231
 20
6.303685586653525
 30
0.0
 11
862.2015015070533
 21
6.0303982126306925
 31
0.0
  0
LINE
  5
3AB
330
17
100
AcDbEntity
  8
0
100
AcDbLine
 10
862.2015015070533
 20
6.0303982126306925
 30
0.0
 11
862.0194443514251
 21
5.756950880927764
 31
0.0
  0
LINE
  5
3AC
330
17
100
AcDbEntity
  8
0
100
AcDbLine
 10
862.0194443514251
 20
5.756950880927764
 30
0.0
 11
861.8375438053027
 21
5.48334687244476
 31
0.0
  0
LINE
  5
3AD
330
17
100
AcDbEntity
  8
0
100
AcDbLine
 10
860.1771248083259
 20
3.000000000000111
 30
0.0
 11
861.8375438053027
 21
5.483346872444757
 31
0.0
  0
LINE
  5
3AE
330
17
100
AcDbEntity
  8
0
100
AcDbLine
 10
878.7301572726631
 20
3.00000000000018
 30
0.0
 11
860.1771248083257
 21
3.00000000000018
 31
0.0
  0
LINE
  5
3AF
330
17
100
AcDbEntity
  8
0
100
AcDbLine
 10
878.7301572726634
 20
3.00000000000018
 30
0.0
 11
878.7301572726634
 21
-2.99999999999982
 31
0.0
  0
LINE
  5
3B0
330
17
100
AcDbEntity
  8
0
100
AcDbLine
 10
878.7301572726631
 20
-2.99999999999982
 30
0.0
 11
860.1771248083252
 21
-2.99999999999982
 31
0.0
  0
ENDSEC
  0
SECTION
  2
OBJECTS
  0
DICTIONARY
  5
A
330
0
100
AcDbDictionary
280
0
281
1
  3
ACAD_COLOR
350
B
  3
ACAD_GROUP
350
C
  3
ACAD_LAYOUT
350
D
  3
ACAD_MATERIAL
350
E
  3
ACAD_MLEADERSTYLE
350
F
  3
ACAD_MLINESTYLE
350
10
  3
ACAD_PLOTSETTINGS
350
11
  3
ACAD_PLOTSTYLENAME
350
12
  3
ACAD_SCALELIST
350
14
  3
ACAD_TABLESTYLE
350
15
  3
ACAD_VISUALSTYLE
350
16
  3
EZDXF_META
350
2D
  0
DICTIONARY
  5
B
330
A
100
AcDbDictionary
280
0
281
1
  0
DICTIONARY
  5
C
330
A
100
AcDbDictionary
280
0
281
1
  0
DICTIONARY
  5
D
330
A
100
AcDbDictionary
280
0
281
1
  3
Model
350
1A
  3
Layout1
350
1E
  0
DICTIONARY
  5
E
330
A
100
AcDbDictionary
280
0
281
1
  3
ByBlock
350
1F
  3
ByLayer
350
20
  3
Global
350
21
  0
DICTIONARY
  5
F
330
A
100
AcDbDictionary
280
0
281
1
  3
Standard
350
2C
  0
DICTIONARY
  5
10
330
A
100
AcDbDictionary
280
0
281
1
  3
Standard
350
22
  0
DICTIONARY
  5
11
330
A
100
AcDbDictionary
280
0
281
1
  0
ACDBDICTIONARYWDFLT
  5
12
330
A
100
AcDbDictionary
280
0
281
1
  3
Normal
350
13
100
AcDbDictionaryWithDefault
340
13
  0
ACDBPLACEHOLDER
  5
13
330
12
  0
DICTIONARY
  5
14
330
A
100
AcDbDictionary
280
0
281
1
  0
DICTIONARY
  5
15
330
A
100
AcDbDictionary
280
0
281
1
  0
DICTIONARY
  5
16
330
A
100
AcDbDictionary
280
0
281
1
  0
LAYOUT
  5
1A
330
D
100
AcDbPlotSettings
  1

  2
Adobe PDF
  4
A3
  6

 40
7.5
 41
20.0
 42
7.5
 43
20.0
 44
420.0
 45
297.0
 46
0.0
 47
0.0
 48
0.0
 49
0.0
140
0.0
141
0.0
142
1.0
143
1.0
 70
1024
 72
1
 73
0
 74
5
  7

 75
16
 76
0
 77
2
 78
300
147
1.0
148
0.0
149
0.0
100
AcDbLayout
  1
Model
 70
1
 71
0
 10
0.0
 20
0.0
 11
420.0
 21
297.0
 12
0.0
 22
0.0
 32
0.0
 14
1e+20
 24
1e+20
 34
1e+20
 15
-1e+20
 25
-1e+20
 35
-1e+20
146
0.0
 13
0.0
 23
0.0
 33
0.0
 16
1.0
 26
0.0
 36
0.0
 17
0.0
 27
1.0
 37
0.0
 76
1
330
17
  0
LAYOUT
  5
1E
330
D
100
AcDbPlotSettings
  1

  2
Adobe PDF
  4
A3
  6

 40
7.5
 41
20.0
 42
7.5
 43
20.0
 44
420.0
 45
297.0
 46
0.0
 47
0.0
 48
0.0
 49
0.0
140
0.0
141
0.0
142
1.0
143
1.0
 70
0
 72
1
 73
0
 74
5
  7

 75
16
 76
0
 77
2
 78
300
147
1.0
148
0.0
149
0.0
100
AcDbLayout
  1
Layout1
 70
1
 71
1
 10
0.0
 20
0.0
 11
420.0
 21
297.0
 12
0.0
 22
0.0
 32
0.0
 14
1e+20
 24
1e+20
 34
1e+20
 15
-1e+20
 25
-1e+20
 35
-1e+20
146
0.0
 13
0.0
 23
0.0
 33
0.0
 16
1.0
 26
0.0
 36
0.0
 17
0.0
 27
1.0
 37
0.0
 76
1
330
1B
  0
MATERIAL
  5
1F
102
{ACAD_REACTORS
330
E
102
}
330
E
100
AcDbMaterial
  1
ByBlock
  2

 70
0
 40
1.0
 71
1
 41
1.0
 91
-1023410177
 42
1.0
 72
1
  3

 73
1
 74
1
 75
1
 44
0.5
 73
0
 45
1.0
 46
1.0
 77
1
  4

 78
1
 79
1
170
1
 48
1.0
171
1
  6

172
1
173
1
174
1
140
1.0
141
1.0
175
1
  7

176
1
177
1
178
1
143
1.0
179
1
  8

270
1
271
1
272
1
145
1.0
146
1.0
273
1
  9

274
1
275
1
276
1
 42
1.0
 72
1
  3

 73
1
 74
1
 75
1
 94
63
  0
MATERIAL
  5
20
102
{ACAD_REACTORS
330
E
102
}
330
E
100
AcDbMaterial
  1
ByLayer
  2

 70
0
 40
1.0
 71
1
 41
1.0
 91
-1023410177
 42
1.0
 72
1
  3

 73
1
 74
1
 75
1
 44
0.5
 73
0
 45
1.0
 46
1.0
 77
1
  4

 78
1
 79
1
170
1
 48
1.0
171
1
  6

172
1
173
1
174
1
140
1.0
141
1.0
175
1
  7

176
1
177
1
178
1
143
1.0
179
1
  8

270
1
271
1
272
1
145
1.0
146
1.0
273
1
  9

274
1
275
1
276
1
 42
1.0
 72
1
  3

 73
1
 74
1
 75
1
 94
63
  0
MATERIAL
  5
21
102
{ACAD_REACTORS
330
E
102
}
330
E
100
AcDbMaterial
  1
Global
  2

 70
0
 40
1.0
 71
1
 41
1.0
 91
-1023410177
 42
1.0
 72
1
  3

 73
1
 74
1
 75
1
 44
0.5
 73
0
 45
1.0
 46
1.0
 77
1
  4

 78
1
 79
1
170
1
 48
1.0
171
1
  6

172
1
173
1
174
1
140
1.0
141
1.0
175
1
  7

176
1
177
1
178
1
143
1.0
179
1
  8

270
1
271
1
272
1
145
1.0
146
1.0
273
1
  9

274
1
275
1
276
1
 42
1.0
 72
1
  3

 73
1
 74
1
 75
1
 94
63
  0
MLINESTYLE
  5
22
102
{ACAD_REACTORS
330
10
102
}
330
10
100
AcDbMlineStyle
  2
Standard
 70
0
  3

 62
256
 51
90.0
 52
90.0
 71
2
 49
0.5
 62
256
  6
BYLAYER
 49
-0.5
 62
256
  6
BYLAYER
  0
MLEADERSTYLE
  5
2C
102
{ACAD_REACTORS
330
F
102
}
330
F
100
AcDbMLeaderStyle
179
2
170
2
171
1
172
0
 90
2
 40
0.0
 41
0.0
173
1
 91
-1056964608
 92
-2
290
1
 42
2.0
291
1
 43
8.0
  3
Standard
 44
4.0
300

342
29
174
1
175
1
176
0
178
1
 93
-1056964608
 45
4.0
292
0
297
0
 46
4.0
 94
-1056964608
 47
1.0
 49
1.0
140
1.0
294
1
141
0.0
177
0
142
1.0
295
0
296
0
143
3.75
271
0
272
9
273
9
  0
DICTIONARY
  5
2D
330
A
100
AcDbDictionary
281
1
  3
CREATED_BY_EZDXF
350
2E
  3
WRITTEN_BY_EZDXF
350
3B3
  0
DICTIONARYVAR
  5
2E
330
2D
100
DictionaryVariables
280
0
  1
1.0.2 @ 2023-11-27T08:45:33.757058+00:00
  0
DICTIONARYVAR
  5
3B3
330
2D
100
DictionaryVariables
280
0
  1
1.0.2 @ 2023-11-27T08:45:33.782234+00:00
  0
ENDSEC
  0
EOF
