  0
SECTION
  2
HEADER
  9
$ACADVER
  1
AC1027
  9
$ACADMAINTVER
 70
105
  9
$DWGCODEPAGE
  3
ANSI_1252
  9
$LASTSAVEDBY
  1
ezdxf
  9
$REQUIREDVERSIONS
160
0
  9
$INSBASE
 10
0.0
 20
0.0
 30
0.0
  9
$EXTMIN
 10
1e+20
 20
1e+20
 30
1e+20
  9
$EXTMAX
 10
-1e+20
 20
-1e+20
 30
-1e+20
  9
$LIMMIN
 10
0.0
 20
0.0
  9
$LIMMAX
 10
420.0
 20
297.0
  9
$ORTHOMODE
 70
0
  9
$REGENMODE
 70
1
  9
$FILLMODE
 70
1
  9
$QTEXTMODE
 70
0
  9
$MIRRTEXT
 70
1
  9
$LTSCALE
 40
1.0
  9
$ATTMODE
 70
1
  9
$TEXTSIZE
 40
2.5
  9
$TRACEWID
 40
1.0
  9
$TEXTSTYLE
  7
Standard
  9
$CLAYER
  8
0
  9
$CELTYPE
  6
ByLayer
  9
$CECOLOR
 62
256
  9
$CELTSCALE
 40
1.0
  9
$DISPSILH
 70
0
  9
$DIMSCALE
 40
1.0
  9
$DIMASZ
 40
2.5
  9
$DIMEXO
 40
0.625
  9
$DIMDLI
 40
3.75
  9
$DIMRND
 40
0.0
  9
$DIMDLE
 40
0.0
  9
$DIMEXE
 40
1.25
  9
$DIMTP
 40
0.0
  9
$DIMTM
 40
0.0
  9
$DIMTXT
 40
2.5
  9
$DIMCEN
 40
2.5
  9
$DIMTSZ
 40
0.0
  9
$DIMTOL
 70
0
  9
$DIMLIM
 70
0
  9
$DIMTIH
 70
0
  9
$DIMTOH
 70
0
  9
$DIMSE1
 70
0
  9
$DIMSE2
 70
0
  9
$DIMTAD
 70
1
  9
$DIMZIN
 70
8
  9
$DIMBLK
  1

  9
$DIMASO
 70
1
  9
$DIMSHO
 70
1
  9
$DIMPOST
  1

  9
$DIMAPOST
  1

  9
$DIMALT
 70
0
  9
$DIMALTD
 70
3
  9
$DIMALTF
 40
0.03937007874
  9
$DIMLFAC
 40
1.0
  9
$DIMTOFL
 70
1
  9
$DIMTVP
 40
0.0
  9
$DIMTIX
 70
0
  9
$DIMSOXD
 70
0
  9
$DIMSAH
 70
0
  9
$DIMBLK1
  1

  9
$DIMBLK2
  1

  9
$DIMSTYLE
  2
ISO-25
  9
$DIMCLRD
 70
0
  9
$DIMCLRE
 70
0
  9
$DIMCLRT
 70
0
  9
$DIMTFAC
 40
1.0
  9
$DIMGAP
 40
0.625
  9
$DIMJUST
 70
0
  9
$DIMSD1
 70
0
  9
$DIMSD2
 70
0
  9
$DIMTOLJ
 70
0
  9
$DIMTZIN
 70
8
  9
$DIMALTZ
 70
0
  9
$DIMALTTZ
 70
0
  9
$DIMUPT
 70
0
  9
$DIMDEC
 70
2
  9
$DIMTDEC
 70
2
  9
$DIMALTU
 70
2
  9
$DIMALTTD
 70
3
  9
$DIMTXSTY
  7
Standard
  9
$DIMAUNIT
 70
0
  9
$DIMADEC
 70
0
  9
$DIMALTRND
 40
0.0
  9
$DIMAZIN
 70
0
  9
$DIMDSEP
 70
44
  9
$DIMATFIT
 70
3
  9
$DIMFRAC
 70
0
  9
$DIMLDRBLK
  1

  9
$DIMLUNIT
 70
2
  9
$DIMLWD
 70
-2
  9
$DIMLWE
 70
-2
  9
$DIMTMOVE
 70
0
  9
$DIMFXL
 40
1.0
  9
$DIMFXLON
 70
0
  9
$DIMJOGANG
 40
0.785398163397
  9
$DIMTFILL
 70
0
  9
$DIMTFILLCLR
 70
0
  9
$DIMARCSYM
 70
0
  9
$DIMLTYPE
  6

  9
$DIMLTEX1
  6

  9
$DIMLTEX2
  6

  9
$DIMTXTDIRECTION
 70
0
  9
$LUNITS
 70
2
  9
$LUPREC
 70
4
  9
$SKETCHINC
 40
1.0
  9
$FILLETRAD
 40
10.0
  9
$AUNITS
 70
0
  9
$AUPREC
 70
2
  9
$MENU
  1
.
  9
$ELEVATION
 40
0.0
  9
$PELEVATION
 40
0.0
  9
$THICKNESS
 40
0.0
  9
$LIMCHECK
 70
0
  9
$CHAMFERA
 40
0.0
  9
$CHAMFERB
 40
0.0
  9
$CHAMFERC
 40
0.0
  9
$CHAMFERD
 40
0.0
  9
$SKPOLY
 70
0
  9
$TDCREATE
 40
2460276.0316898148
  9
$TDUCREATE
 40
2458532.153996898
  9
$TDUPDATE
 40
2460276.0316898148
  9
$TDUUPDATE
 40
2458532.1544311
  9
$TDINDWG
 40
0.0
  9
$TDUSRTIMER
 40
0.0
  9
$USRTIMER
 70
1
  9
$ANGBASE
 50
0.0
  9
$ANGDIR
 70
0
  9
$PDMODE
 70
0
  9
$PDSIZE
 40
0.0
  9
$PLINEWID
 40
0.0
  9
$SPLFRAME
 70
0
  9
$SPLINETYPE
 70
6
  9
$SPLINESEGS
 70
8
  9
$HANDSEED
  5
3B4
  9
$SURFTAB1
 70
6
  9
$SURFTAB2
 70
6
  9
$SURFTYPE
 70
6
  9
$SURFU
 70
6
  9
$SURFV
 70
6
  9
$UCSBASE
  2

  9
$UCSNAME
  2

  9
$UCSORG
 10
0.0
 20
0.0
 30
0.0
  9
$UCSXDIR
 10
1.0
 20
0.0
 30
0.0
  9
$UCSYDIR
 10
0.0
 20
1.0
 30
0.0
  9
$UCSORTHOREF
  2

  9
$UCSORTHOVIEW
 70
0
  9
$UCSORGTOP
 10
0.0
 20
0.0
 30
0.0
  9
$UCSORGBOTTOM
 10
0.0
 20
0.0
 30
0.0
  9
$UCSORGLEFT
 10
0.0
 20
0.0
 30
0.0
  9
$UCSORGRIGHT
 10
0.0
 20
0.0
 30
0.0
  9
$UCSORGFRONT
 10
0.0
 20
0.0
 30
0.0
  9
$UCSORGBACK
 10
0.0
 20
0.0
 30
0.0
  9
$PUCSBASE
  2

  9
$PUCSNAME
  2

  9
$PUCSORG
 10
0.0
 20
0.0
 30
0.0
  9
$PUCSXDIR
 10
1.0
 20
0.0
 30
0.0
  9
$PUCSYDIR
 10
0.0
 20
1.0
 30
0.0
  9
$PUCSORTHOREF
  2

  9
$PUCSORTHOVIEW
 70
0
  9
$PUCSORGTOP
 10
0.0
 20
0.0
 30
0.0
  9
$PUCSORGBOTTOM
 10
0.0
 20
0.0
 30
0.0
  9
$PUCSORGLEFT
 10
0.0
 20
0.0
 30
0.0
  9
$PUCSORGRIGHT
 10
0.0
 20
0.0
 30
0.0
  9
$PUCSORGFRONT
 10
0.0
 20
0.0
 30
0.0
  9
$PUCSORGBACK
 10
0.0
 20
0.0
 30
0.0
  9
$USERI1
 70
0
  9
$USERI2
 70
0
  9
$USERI3
 70
0
  9
$USERI4
 70
0
  9
$USERI5
 70
0
  9
$USERR1
 40
0.0
  9
$USERR2
 40
0.0
  9
$USERR3
 40
0.0
  9
$USERR4
 40
0.0
  9
$USERR5
 40
0.0
  9
$WORLDVIEW
 70
1
  9
$SHADEDGE
 70
3
  9
$SHADEDIF
 70
70
  9
$TILEMODE
 70
1
  9
$MAXACTVP
 70
64
  9
$PINSBASE
 10
0.0
 20
0.0
 30
0.0
  9
$PLIMCHECK
 70
0
  9
$PEXTMIN
 10
1e+20
 20
1e+20
 30
1e+20
  9
$PEXTMAX
 10
-1e+20
 20
-1e+20
 30
-1e+20
  9
$PLIMMIN
 10
0.0
 20
0.0
  9
$PLIMMAX
 10
420.0
 20
297.0
  9
$UNITMODE
 70
0
  9
$VISRETAIN
 70
1
  9
$PLINEGEN
 70
0
  9
$PSLTSCALE
 70
1
  9
$TREEDEPTH
 70
3020
  9
$CMLSTYLE
  2
Standard
  9
$CMLJUST
 70
0
  9
$CMLSCALE
 40
20.0
  9
$PROXYGRAPHICS
 70
1
  9
$MEASUREMENT
 70
1
  9
$CELWEIGHT
370
-1
  9
$ENDCAPS
280
0
  9
$JOINSTYLE
280
0
  9
$LWDISPLAY
290
0
  9
$INSUNITS
 70
6
  9
$HYPERLINKBASE
  1

  9
$STYLESHEET
  1

  9
$XEDIT
290
1
  9
$CEPSNTYPE
380
0
  9
$PSTYLEMODE
290
1
  9
$FINGERPRINTGUID
  2
{007C6182-EF71-46D4-A18A-A935C27D5716}
  9
$VERSIONGUID
  2
{60556085-10EC-47F4-8E19-106DBD495CE7}
  9
$EXTNAMES
290
1
  9
$PSVPSCALE
 40
0.0
  9
$OLESTARTUP
290
0
  9
$SORTENTS
280
127
  9
$INDEXCTL
280
0
  9
$HIDETEXT
280
1
  9
$XCLIPFRAME
280
0
  9
$HALOGAP
280
0
  9
$OBSCOLOR
 70
257
  9
$OBSLTYPE
280
0
  9
$INTERSECTIONDISPLAY
280
0
  9
$INTERSECTIONCOLOR
 70
257
  9
$DIMASSOC
280
2
  9
$PROJECTNAME
  1

  9
$CAMERADISPLAY
290
0
  9
$LENSLENGTH
 40
50.0
  9
$CAMERAHEIGHT
 40
0.0
  9
$STEPSPERSEC
 40
24.0
  9
$STEPSIZE
 40
100.0
  9
$3DDWFPREC
 40
2.0
  9
$PSOLWIDTH
 40
0.005
  9
$PSOLHEIGHT
 40
0.08
  9
$LOFTANG1
 40
1.570796326795
  9
$LOFTANG2
 40
1.570796326795
  9
$LOFTMAG1
 40
0.0
  9
$LOFTMAG2
 40
0.0
  9
$LOFTPARAM
 70
7
  9
$LOFTNORMALS
280
1
  9
$LATITUDE
 40
37.795
  9
$LONGITUDE
 40
-122.394
  9
$NORTHDIRECTION
 40
0.0
  9
$TIMEZONE
 70
-8000
  9
$LIGHTGLYPHDISPLAY
280
1
  9
$TILEMODELIGHTSYNCH
280
1
  9
$CMATERIAL
347
20
  9
$SOLIDHIST
280
0
  9
$SHOWHIST
280
1
  9
$DWFFRAME
280
2
  9
$DGNFRAME
280
2
  9
$REALWORLDSCALE
290
1
  9
$INTERFERECOLOR
 62
256
  9
$CSHADOW
280
0
  9
$SHADOWPLANELOCATION
 40
0.0
  0
ENDSEC
  0
SECTION
  2
CLASSES
  0
CLASS
  1
ACDBDICTIONARYWDFLT
  2
AcDbDictionaryWithDefault
  3
ObjectDBX Classes
 90
0
 91
0
280
0
281
0
  0
CLASS
  1
SUN
  2
AcDbSun
  3
SCENEOE
 90
1153
 91
0
280
0
281
0
  0
CLASS
  1
VISUALSTYLE
  2
AcDbVisualStyle
  3
ObjectDBX Classes
 90
4095
 91
0
280
0
281
0
  0
CLASS
  1
MATERIAL
  2
AcDbMaterial
  3
ObjectDBX Classes
 90
1153
 91
0
280
0
281
0
  0
CLASS
  1
SCALE
  2
AcDbScale
  3
ObjectDBX Classes
 90
1153
 91
0
280
0
281
0
  0
CLASS
  1
TABLESTYLE
  2
AcDbTableStyle
  3
ObjectDBX Classes
 90
4095
 91
0
280
0
281
0
  0
CLASS
  1
MLEADERSTYLE
  2
AcDbMLeaderStyle
  3
ACDB_MLEADERSTYLE_CLASS
 90
4095
 91
0
280
0
281
0
  0
CLASS
  1
DICTIONARYVAR
  2
AcDbDictionaryVar
  3
ObjectDBX Classes
 90
0
 91
0
280
0
281
0
  0
CLASS
  1
CELLSTYLEMAP
  2
AcDbCellStyleMap
  3
ObjectDBX Classes
 90
1152
 91
0
280
0
281
0
  0
CLASS
  1
MENTALRAYRENDERSETTINGS
  2
AcDbMentalRayRenderSettings
  3
SCENEOE
 90
1024
 91
0
280
0
281
0
  0
CLASS
  1
ACDBDETAILVIEWSTYLE
  2
AcDbDetailViewStyle
  3
ObjectDBX Classes
 90
1025
 91
0
280
0
281
0
  0
CLASS
  1
ACDBSECTIONVIEWSTYLE
  2
AcDbSectionViewStyle
  3
ObjectDBX Classes
 90
1025
 91
0
280
0
281
0
  0
CLASS
  1
RASTERVARIABLES
  2
AcDbRasterVariables
  3
ISM
 90
0
 91
0
280
0
281
0
  0
CLASS
  1
ACDBPLACEHOLDER
  2
AcDbPlaceHolder
  3
ObjectDBX Classes
 90
0
 91
0
280
0
281
0
  0
CLASS
  1
LAYOUT
  2
AcDbLayout
  3
ObjectDBX Classes
 90
0
 91
0
280
0
281
0
  0
ENDSEC
  0
SECTION
  2
TABLES
  0
TABLE
  2
VPORT
  5
8
330
0
100
AcDbSymbolTable
 70
1
  0
VPORT
  5
23
330
8
100
AcDbSymbolTableRecord
100
AcDbViewportTableRecord
  2
*Active
 70
0
 10
0.0
 20
0.0
 11
1.0
 21
1.0
 12
0.0
 22
0.0
 13
0.0
 23
0.0
 14
0.5
 24
0.5
 15
0.5
 25
0.5
 16
0.0
 26
0.0
 36
1.0
 17
0.0
 27
0.0
 37
0.0
 40
1000.0
 41
1.34
 42
50.0
 43
0.0
 44
0.0
 50
0.0
 51
0.0
 71
0
 72
1000
 73
1
 74
3
 75
0
 76
0
 77
0
 78
0
281
0
 65
0
146
0.0
  0
ENDTAB
  0
TABLE
  2
LTYPE
  5
2
330
0
100
AcDbSymbolTable
 70
3
  0
LTYPE
  5
24
330
2
100
AcDbSymbolTableRecord
100
AcDbLinetypeTableRecord
  2
ByBlock
 70
0
  3

 72
65
 73
0
 40
0.0
  0
LTYPE
  5
25
330
2
100
AcDbSymbolTableRecord
100
AcDbLinetypeTableRecord
  2
ByLayer
 70
0
  3

 72
65
 73
0
 40
0.0
  0
LTYPE
  5
26
330
2
100
AcDbSymbolTableRecord
100
AcDbLinetypeTableRecord
  2
Continuous
 70
0
  3

 72
65
 73
0
 40
0.0
  0
ENDTAB
  0
TABLE
  2
LAYER
  5
1
330
0
100
AcDbSymbolTable
 70
2
  0
LAYER
  5
27
330
1
100
AcDbSymbolTableRecord
100
AcDbLayerTableRecord
  2
0
 70
0
 62
7
  6
Continuous
370
-3
390
13
347
21
  0
LAYER
  5
28
330
1
100
AcDbSymbolTableRecord
100
AcDbLayerTableRecord
  2
Defpoints
 70
0
 62
7
  6
Continuous
290
0
370
-3
390
13
347
21
  0
ENDTAB
  0
TABLE
  2
STYLE
  5
5
330
0
100
AcDbSymbolTable
 70
1
  0
STYLE
  5
29
330
5
100
AcDbSymbolTableRecord
100
AcDbTextStyleTableRecord
  2
Standard
 70
0
 40
0.0
 41
1.0
 50
0.0
 71
0
 42
2.5
  3
txt
  4

  0
ENDTAB
  0
TABLE
  2
VIEW
  5
7
330
0
100
AcDbSymbolTable
 70
0
  0
ENDTAB
  0
TABLE
  2
UCS
  5
6
330
0
100
AcDbSymbolTable
 70
0
  0
ENDTAB
  0
TABLE
  2
APPID
  5
3
330
0
100
AcDbSymbolTable
 70
3
  0
APPID
  5
2A
330
3
100
AcDbSymbolTableRecord
100
AcDbRegAppTableRecord
  2
ACAD
 70
0
  0
APPID
  5
3B1
330
3
100
AcDbSymbolTableRecord
100
AcDbRegAppTableRecord
  2
HATCHBACKGROUNDCOLOR
 70
0
  0
APPID
  5
3B2
330
3
100
AcDbSymbolTableRecord
100
AcDbRegAppTableRecord
  2
EZDXF
 70
0
  0
ENDTAB
  0
TABLE
  2
DIMSTYLE
  5
4
330
0
100
AcDbSymbolTable
 70
1
100
AcDbDimStyleTable
  0
DIMSTYLE
105
2B
330
4
100
AcDbSymbolTableRecord
100
AcDbDimStyleTableRecord
  2
Standard
 70
0
 40
1.0
 41
2.5
 42
0.625
 43
3.75
 44
1.25
 45
0.0
 46
0.0
 47
0.0
 48
0.0
 49
2.5
140
2.5
141
2.5
142
0.0
143
0.03937007874
144
1.0
145
0.0
146
1.0
147
0.625
148
0.0
 69
0
 70
0
 71
0
 72
0
 73
0
 74
0
 75
0
 76
0
 77
1
 78
8
 79
3
170
0
171
3
172
1
173
0
174
0
175
0
176
0
177
0
178
0
179
2
271
2
272
2
273
2
274
3
275
0
276
0
277
2
278
44
279
0
280
0
281
0
282
0
283
0
284
8
285
0
286
0
288
0
289
3
290
0
371
-2
372
-2
  0
ENDTAB
  0
TABLE
  2
BLOCK_RECORD
  5
9
330
0
100
AcDbSymbolTable
 70
2
  0
BLOCK_RECORD
  5
17
330
9
100
AcDbSymbolTableRecord
100
AcDbBlockTableRecord
  2
*Model_Space
340
1A
 70
0
280
1
281
0
  0
BLOCK_RECORD
  5
1B
330
9
100
AcDbSymbolTableRecord
100
AcDbBlockTableRecord
  2
*Paper_Space
340
1E
 70
0
280
1
281
0
  0
ENDTAB
  0
ENDSEC
  0
SECTION
  2
BLOCKS
  0
BLOCK
  5
18
330
17
100
AcDbEntity
  8
0
100
AcDbBlockBegin
  2
*Model_Space
 70
0
 10
0.0
 20
0.0
 30
0.0
  3
*Model_Space
  1

  0
ENDBLK
  5
19
330
17
100
AcDbEntity
  8
0
100
AcDbBlockEnd
  0
BLOCK
  5
1C
330
1B
100
AcDbEntity
  8
0
100
AcDbBlockBegin
  2
*Paper_Space
 70
0
 10
0.0
 20
0.0
 30
0.0
  3
*Paper_Space
  1

  0
ENDBLK
  5
1D
330
1B
100
AcDbEntity
  8
0
100
AcDbBlockEnd
  0
ENDSEC
  0
SECTION
  2
ENTITIES
  0
LINE
  5
2F
330
17
100
AcDbEntity
  8
0
100
AcDbLine
 10
-5.999999999999968
 20
-143.98991032554795
 30
0.0
 11
-8.702553917576411
 21
-143.95640512298084
 31
0.0
  0
LINE
  5
30
330
17
100
AcDbEntity
  8
0
100
AcDbLine
 10
-8.702553917576411
 20
-143.95640512298084
 30
0.0
 11
-11.404731433271651
 21
-143.9028046939211
 31
0.0
  0
LINE
  5
31
330
17
100
AcDbEntity
  8
0
100
AcDbLine
 10
-11.404731433271651
 20
-143.9028046939211
 30
0.0
 11
-14.106395923762165
 21
-143.8291795532911
 31
0.0
  0
LINE
  5
32
330
17
100
AcDbEntity
  8
0
100
AcDbLine
 10
-14.106395923762165
 20
-143.8291795532911
 30
0.0
 11
-16.807410765724413
 21
-143.73560021601315
 31
0.0
  0
LINE
  5
33
330
17
100
AcDbEntity
  8
0
100
AcDbLine
 10
-16.807410765724413
 20
-143.73560021601315
 30
0.0
 11
-19.50763933583487
 21
-143.62213719700958
 31
0.0
  0
LINE
  5
34
330
17
100
AcDbEntity
  8
0
100
AcDbLine
 10
-19.50763933583487
 20
-143.62213719700958
 30
0.0
 11
-22.20694501077001
 21
-143.48886101120272
 31
0.0
  0
LINE
  5
35
330
17
100
AcDbEntity
  8
0
100
AcDbLine
 10
-22.20694501077001
 20
-143.48886101120272
 30
0.0
 11
-24.905191167206294
 21
-143.3358421735149
 31
0.0
  0
LINE
  5
36
330
17
100
AcDbEntity
  8
0
100
AcDbLine
 10
-24.905191167206294
 20
-143.3358421735149
 30
0.0
 11
-27.602241181820204
 21
-143.16315119886843
 31
0.0
  0
LINE
  5
37
330
17
100
AcDbEntity
  8
0
100
AcDbLine
 10
-27.602241181820204
 20
-143.16315119886843
 30
0.0
 11
-30.29795843128819
 21
-142.97085860218567
 31
0.0
  0
LINE
  5
38
330
17
100
AcDbEntity
  8
0
100
AcDbLine
 10
-30.29795843128819
 20
-142.97085860218567
 30
0.0
 11
-32.992206292286745
 21
-142.75903489838893
 31
0.0
  0
LINE
  5
39
330
17
100
AcDbEntity
  8
0
100
AcDbLine
 10
-32.992206292286745
 20
-142.75903489838893
 30
0.0
 11
-35.68484813990067
 21
-142.52775058925388
 31
0.0
  0
LINE
  5
3A
330
17
100
AcDbEntity
  8
0
100
AcDbLine
 10
-35.68484813990067
 20
-142.52775058925388
 30
0.0
 11
-38.37573954360189
 21
-142.2770117039269
 31
0.0
  0
LINE
  5
3B
330
17
100
AcDbEntity
  8
0
100
AcDbLine
 10
-38.37573954360189
 20
-142.2770117039269
 30
0.0
 11
-41.06471017086594
 21
-142.00661032681677
 31
0.0
  0
LINE
  5
3C
330
17
100
AcDbEntity
  8
0
100
AcDbLine
 10
-41.06471017086594
 20
-142.00661032681677
 30
0.0
 11
-43.75158432342042
 21
-141.71629422244564
 31
0.0
  0
LINE
  5
3D
330
17
100
AcDbEntity
  8
0
100
AcDbLine
 10
-43.75158432342042
 20
-141.71629422244564
 30
0.0
 11
-46.436186302992915
 21
-141.40581115533558
 31
0.0
  0
LINE
  5
3E
330
17
100
AcDbEntity
  8
0
100
AcDbLine
 10
-46.436186302992915
 20
-141.40581115533558
 30
0.0
 11
-49.11834041131101
 21
-141.07490889000871
 31
0.0
  0
LINE
  5
3F
330
17
100
AcDbEntity
  8
0
100
AcDbLine
 10
-49.11834041131101
 20
-141.07490889000871
 30
0.0
 11
-51.797870950102286
 21
-140.72333519098717
 31
0.0
  0
LINE
  5
40
330
17
100
AcDbEntity
  8
0
100
AcDbLine
 10
-51.797870950102286
 20
-140.72333519098717
 30
0.0
 11
-54.47460738246418
 21
-140.35089349006805
 31
0.0
  0
LINE
  5
41
330
17
100
AcDbEntity
  8
0
100
AcDbLine
 10
-54.47460738246418
 20
-140.35089349006805
 30
0.0
 11
-57.14845255150675
 21
-139.95817864951536
 31
0.0
  0
LINE
  5
42
330
17
100
AcDbEntity
  8
0
100
AcDbLine
 10
-57.14845255150675
 20
-139.95817864951536
 30
0.0
 11
-59.81936388220456
 21
-139.54637421710757
 31
0.0
  0
LINE
  5
43
330
17
100
AcDbEntity
  8
0
100
AcDbLine
 10
-59.81936388220456
 20
-139.54637421710757
 30
0.0
 11
-62.487300097743415
 21
-139.11667774230975
 31
0.0
  0
LINE
  5
44
330
17
100
AcDbEntity
  8
0
100
AcDbLine
 10
-62.487300097743415
 20
-139.11667774230975
 30
0.0
 11
-65.15221992130911
 21
-138.67028677458708
 31
0.0
  0
LINE
  5
45
330
17
100
AcDbEntity
  8
0
100
AcDbLine
 10
-65.15221992130911
 20
-138.67028677458708
 30
0.0
 11
-67.81408207608749
 21
-138.20839886340465
 31
0.0
  0
LINE
  5
46
330
17
100
AcDbEntity
  8
0
100
AcDbLine
 10
-67.81408207608749
 20
-138.20839886340465
 30
0.0
 11
-70.47274888595923
 21
-137.7311437544871
 31
0.0
  0
LINE
  5
47
330
17
100
AcDbEntity
  8
0
100
AcDbLine
 10
-70.47274888595923
 20
-137.7311437544871
 30
0.0
 11
-73.12759023980765
 21
-137.23319654913593
 31
0.0
  0
LINE
  5
48
330
17
100
AcDbEntity
  8
0
100
AcDbLine
 10
-73.12759023980765
 20
-137.23319654913593
 30
0.0
 11
-75.77781919654726
 21
-136.70749516157318
 31
0.0
  0
LINE
  5
49
330
17
100
AcDbEntity
  8
0
100
AcDbLine
 10
-75.77781919654726
 20
-136.70749516157318
 30
0.0
 11
-78.42264874851553
 21
-136.14697676855536
 31
0.0
  0
LINE
  5
4A
330
17
100
AcDbEntity
  8
0
100
AcDbLine
 10
-78.42264874851553
 20
-136.14697676855536
 30
0.0
 11
-81.0605577984423
 21
-135.5435965445899
 31
0.0
  0
LINE
  5
4B
330
17
100
AcDbEntity
  8
0
100
AcDbLine
 10
-81.0605577984423
 20
-135.5435965445899
 30
0.0
 11
-83.68488605694891
 21
-134.88243489282704
 31
0.0
  0
LINE
  5
4C
330
17
100
AcDbEntity
  8
0
100
AcDbLine
 10
-83.68488605694891
 20
-134.88243489282704
 30
0.0
 11
-86.2867772405645
 21
-134.14563460346804
 31
0.0
  0
LINE
  5
4D
330
17
100
AcDbEntity
  8
0
100
AcDbLine
 10
-86.2867772405645
 20
-134.14563460346804
 30
0.0
 11
-88.8573668115433
 21
-133.31532742485155
 31
0.0
  0
LINE
  5
4E
330
17
100
AcDbEntity
  8
0
100
AcDbLine
 10
-88.8573668115433
 20
-133.31532742485155
 30
0.0
 11
-91.38780354628757
 21
-132.37369990032516
 31
0.0
  0
LINE
  5
4F
330
17
100
AcDbEntity
  8
0
100
AcDbLine
 10
-91.38780354628757
 20
-132.37369990032516
 30
0.0
 11
-93.87114440596997
 21
-131.31079179833674
 31
0.0
  0
LINE
  5
50
330
17
100
AcDbEntity
  8
0
100
AcDbLine
 10
-93.87114440596997
 20
-131.31079179833674
 30
0.0
 11
-96.30432400769404
 21
-130.1326015645856
 31
0.0
  0
LINE
  5
51
330
17
100
AcDbEntity
  8
0
100
AcDbLine
 10
-96.30432400769404
 20
-130.1326015645856
 30
0.0
 11
-98.68474741985628
 21
-128.84706380942328
 31
0.0
  0
LINE
  5
52
330
17
100
AcDbEntity
  8
0
100
AcDbLine
 10
-98.68474741985628
 20
-128.84706380942328
 30
0.0
 11
-101.0098197108532
 21
-127.46211314320126
 31
0.0
  0
LINE
  5
53
330
17
100
AcDbEntity
  8
0
100
AcDbLine
 10
-101.0098197108532
 20
-127.46211314320126
 30
0.0
 11
-103.27691640310607
 21
-125.98562784058542
 31
0.0
  0
LINE
  5
54
330
17
100
AcDbEntity
  8
0
100
AcDbLine
 10
-103.27691640310607
 20
-125.98562784058542
 30
0.0
 11
-105.48148197705086
 21
-124.42180423399334
 31
0.0
  0
LINE
  5
55
330
17
100
AcDbEntity
  8
0
100
AcDbLine
 10
-105.48148197705086
 20
-124.42180423399334
 30
0.0
 11
-107.61587305305197
 21
-122.76895099387541
 31
0.0
  0
LINE
  5
56
330
17
100
AcDbEntity
  8
0
100
AcDbLine
 10
-107.61587305305197
 20
-122.76895099387541
 30
0.0
 11
-109.67216923840263
 21
-121.0248486063454
 31
0.0
  0
LINE
  5
57
330
17
100
AcDbEntity
  8
0
100
AcDbLine
 10
-109.67216923840263
 20
-121.0248486063454
 30
0.0
 11
-111.64305609901943
 21
-119.18783354683602
 31
0.0
  0
LINE
  5
58
330
17
100
AcDbEntity
  8
0
100
AcDbLine
 10
-111.64305609901943
 20
-119.18783354683602
 30
0.0
 11
-113.53306263727625
 21
-117.26710907922994
 31
0.0
  0
LINE
  5
59
330
17
100
AcDbEntity
  8
0
100
AcDbLine
 10
-113.53306263727625
 20
-117.26710907922994
 30
0.0
 11
-115.35750318067431
 21
-115.28177439980641
 31
0.0
  0
LINE
  5
5A
330
17
100
AcDbEntity
  8
0
100
AcDbLine
 10
-115.35750318067431
 20
-115.28177439980641
 30
0.0
 11
-117.13208139956299
 21
-113.251283704298
 31
0.0
  0
LINE
  5
5B
330
17
100
AcDbEntity
  8
0
100
AcDbLine
 10
-117.13208139956299
 20
-113.251283704298
 30
0.0
 11
-118.86981632814916
 21
-111.19126689234997
 31
0.0
  0
LINE
  5
5C
330
17
100
AcDbEntity
  8
0
100
AcDbLine
 10
-118.86981632814916
 20
-111.19126689234997
 30
0.0
 11
-120.57648945493833
 21
-109.10704389374975
 31
0.0
  0
LINE
  5
5D
330
17
100
AcDbEntity
  8
0
100
AcDbLine
 10
-120.57648945493833
 20
-109.10704389374975
 30
0.0
 11
-122.25667487743408
 21
-107.0022146954545
 31
0.0
  0
LINE
  5
5E
330
17
100
AcDbEntity
  8
0
100
AcDbLine
 10
-122.25667487743408
 20
-107.0022146954545
 30
0.0
 11
-123.91494669313998
 21
-104.88037928442147
 31
0.0
  0
LINE
  5
5F
330
17
100
AcDbEntity
  8
0
100
AcDbLine
 10
-123.91494669313998
 20
-104.88037928442147
 30
0.0
 11
-125.55587899955954
 21
-102.74513764760789
 31
0.0
  0
LINE
  5
60
330
17
100
AcDbEntity
  8
0
100
AcDbLine
 10
-125.55587899955954
 20
-102.74513764760789
 30
0.0
 11
-127.18404589419636
 21
-100.60008977197093
 31
0.0
  0
LINE
  5
61
330
17
100
AcDbEntity
  8
0
100
AcDbLine
 10
-127.18404589419636
 20
-100.60008977197093
 30
0.0
 11
-128.80402147455393
 21
-98.44883564446786
 31
0.0
  0
LINE
  5
62
330
17
100
AcDbEntity
  8
0
100
AcDbLine
 10
-128.80402147455393
 20
-98.44883564446786
 30
0.0
 11
-130.4197515520592
 21
-96.29449068614338
 31
0.0
  0
LINE
  5
63
330
17
100
AcDbEntity
  8
0
100
AcDbLine
 10
-130.4197515520592
 20
-96.29449068614338
 30
0.0
 11
-132.0313022795999
 21
-94.13717812969138
 31
0.0
  0
LINE
  5
64
330
17
100
AcDbEntity
  8
0
100
AcDbLine
 10
-132.0313022795999
 20
-94.13717812969138
 30
0.0
 11
-133.6372604723772
 21
-91.97588026796552
 31
0.0
  0
LINE
  5
65
330
17
100
AcDbEntity
  8
0
100
AcDbLine
 10
-133.6372604723772
 20
-91.97588026796552
 30
0.0
 11
-135.2362100231186
 21
-89.80957713986034
 31
0.0
  0
LINE
  5
66
330
17
100
AcDbEntity
  8
0
100
AcDbLine
 10
-135.2362100231186
 20
-89.80957713986034
 30
0.0
 11
-136.82673482455152
 21
-87.63724878427048
 31
0.0
  0
LINE
  5
67
330
17
100
AcDbEntity
  8
0
100
AcDbLine
 10
-136.82673482455152
 20
-87.63724878427048
 30
0.0
 11
-138.40741876940353
 21
-85.45787524009052
 31
0.0
  0
LINE
  5
68
330
17
100
AcDbEntity
  8
0
100
AcDbLine
 10
-138.40741876940353
 20
-85.45787524009052
 30
0.0
 11
-139.97684649695313
 21
-83.27043714204574
 31
0.0
  0
LINE
  5
69
330
17
100
AcDbEntity
  8
0
100
AcDbLine
 10
-139.97684649695313
 20
-83.27043714204574
 30
0.0
 11
-141.53400944319358
 21
-81.07423979383769
 31
0.0
  0
LINE
  5
6A
330
17
100
AcDbEntity
  8
0
100
AcDbLine
 10
-141.53400944319358
 20
-81.07423979383769
 30
0.0
 11
-143.07897800476587
 21
-78.8694496296447
 31
0.0
  0
LINE
  5
6B
330
17
100
AcDbEntity
  8
0
100
AcDbLine
 10
-143.07897800476587
 20
-78.8694496296447
 30
0.0
 11
-144.61199945011592
 21
-76.65637424699727
 31
0.0
  0
LINE
  5
6C
330
17
100
AcDbEntity
  8
0
100
AcDbLine
 10
-144.61199945011592
 20
-76.65637424699727
 30
0.0
 11
-146.13332104768975
 21
-74.43532124342585
 31
0.0
  0
LINE
  5
6D
330
17
100
AcDbEntity
  8
0
100
AcDbLine
 10
-146.13332104768975
 20
-74.43532124342585
 30
0.0
 11
-147.6431900659334
 21
-72.20659821646093
 31
0.0
  0
LINE
  5
6E
330
17
100
AcDbEntity
  8
0
100
AcDbLine
 10
-147.6431900659334
 20
-72.20659821646093
 30
0.0
 11
-149.1418568699527
 21
-69.9705130315625
 31
0.0
  0
LINE
  5
6F
330
17
100
AcDbEntity
  8
0
100
AcDbLine
 10
-149.1418568699527
 20
-69.9705130315625
 30
0.0
 11
-150.62969065906208
 21
-67.7273838359762
 31
0.0
  0
LINE
  5
70
330
17
100
AcDbEntity
  8
0
100
AcDbLine
 10
-150.62969065906208
 20
-67.7273838359762
 30
0.0
 11
-152.10721411254474
 21
-65.47754205635731
 31
0.0
  0
LINE
  5
71
330
17
100
AcDbEntity
  8
0
100
AcDbLine
 10
-152.10721411254474
 20
-65.47754205635731
 30
0.0
 11
-153.57496007798244
 21
-63.221319999143674
 31
0.0
  0
LINE
  5
72
330
17
100
AcDbEntity
  8
0
100
AcDbLine
 10
-153.57496007798244
 20
-63.221319999143674
 30
0.0
 11
-155.03346140295685
 21
-60.95904997077318
 31
0.0
  0
LINE
  5
73
330
17
100
AcDbEntity
  8
0
100
AcDbLine
 10
-155.03346140295685
 20
-60.95904997077318
 30
0.0
 11
-156.4832509350497
 21
-58.69106427768365
 31
0.0
  0
LINE
  5
74
330
17
100
AcDbEntity
  8
0
100
AcDbLine
 10
-156.4832509350497
 20
-58.69106427768365
 30
0.0
 11
-157.92456966242113
 21
-56.4175393354948
 31
0.0
  0
LINE
  5
75
330
17
100
AcDbEntity
  8
0
100
AcDbLine
 10
-157.92456966242113
 20
-56.4175393354948
 30
0.0
 11
-159.35502655800116
 21
-54.137245722024446
 31
0.0
  0
LINE
  5
76
330
17
100
AcDbEntity
  8
0
100
AcDbLine
 10
-159.35502655800116
 20
-54.137245722024446
 30
0.0
 11
-160.77083548338896
 21
-51.84820884453657
 31
0.0
  0
LINE
  5
77
330
17
100
AcDbEntity
  8
0
100
AcDbLine
 10
-160.77083548338896
 20
-51.84820884453657
 30
0.0
 11
-162.16819752480495
 21
-49.5484472865846
 31
0.0
  0
LINE
  5
78
330
17
100
AcDbEntity
  8
0
100
AcDbLine
 10
-162.16819752480495
 20
-49.5484472865846
 30
0.0
 11
-163.54348880959517
 21
-47.23607443146326
 31
0.0
  0
LINE
  5
79
330
17
100
AcDbEntity
  8
0
100
AcDbLine
 10
-163.54348880959517
 20
-47.23607443146326
 30
0.0
 11
-164.90035367127663
 21
-44.913140017787065
 31
0.0
  0
LINE
  5
7A
330
17
100
AcDbEntity
  8
0
100
AcDbLine
 10
-164.90035367127663
 20
-44.913140017787065
 30
0.0
 11
-166.2521553409311
 21
-42.58695739849694
 31
0.0
  0
LINE
  5
7B
330
17
100
AcDbEntity
  8
0
100
AcDbLine
 10
-166.2521553409311
 20
-42.58695739849694
 30
0.0
 11
-167.61293523768373
 21
-40.26520722336741
 31
0.0
  0
LINE
  5
7C
330
17
100
AcDbEntity
  8
0
100
AcDbLine
 10
-167.61293523768373
 20
-40.26520722336741
 30
0.0
 11
-168.99673478065972
 21
-37.955570142173045
 31
0.0
  0
LINE
  5
7D
330
17
100
AcDbEntity
  8
0
100
AcDbLine
 10
-168.99673478065972
 20
-37.955570142173045
 30
0.0
 11
-170.41817664495252
 21
-35.666798868232696
 31
0.0
  0
LINE
  5
7E
330
17
100
AcDbEntity
  8
0
100
AcDbLine
 10
-170.41817664495252
 20
-35.666798868232696
 30
0.0
 11
-171.89506636732267
 21
-33.41351655774399
 31
0.0
  0
LINE
  5
7F
330
17
100
AcDbEntity
  8
0
100
AcDbLine
 10
-171.89506636732267
 20
-33.41351655774399
 30
0.0
 11
-173.44629337572792
 21
-31.212345486572893
 31
0.0
  0
LINE
  5
80
330
17
100
AcDbEntity
  8
0
100
AcDbLine
 10
-173.44629337572792
 20
-31.212345486572893
 30
0.0
 11
-175.0907074072037
 21
-29.07988717196326
 31
0.0
  0
LINE
  5
81
330
17
100
AcDbEntity
  8
0
100
AcDbLine
 10
-175.0907074072037
 20
-29.07988717196326
 30
0.0
 11
-176.83935891451176
 21
-27.028433072088987
 31
0.0
  0
LINE
  5
82
330
17
100
AcDbEntity
  8
0
100
AcDbLine
 10
-176.83935891451176
 20
-27.028433072088987
 30
0.0
 11
-178.68627815952632
 21
-25.060868906657067
 31
0.0
  0
LINE
  5
83
330
17
100
AcDbEntity
  8
0
100
AcDbLine
 10
-178.68627815952632
 20
-25.060868906657067
 30
0.0
 11
-180.6232503811072
 21
-23.178839745403895
 31
0.0
  0
LINE
  5
84
330
17
100
AcDbEntity
  8
0
100
AcDbLine
 10
-180.6232503811072
 20
-23.178839745403895
 30
0.0
 11
-182.6420608181142
 21
-21.383990658065784
 31
0.0
  0
LINE
  5
85
330
17
100
AcDbEntity
  8
0
100
AcDbLine
 10
-182.6420608181142
 20
-21.383990658065784
 30
0.0
 11
-184.73560573586644
 21
-19.67903020172647
 31
0.0
  0
LINE
  5
86
330
17
100
AcDbEntity
  8
0
100
AcDbLine
 10
-184.73560573586644
 20
-19.67903020172647
 30
0.0
 11
-186.90371376058687
 21
-18.07330266932144
 31
0.0
  0
LINE
  5
87
330
17
100
AcDbEntity
  8
0
100
AcDbLine
 10
-186.90371376058687
 20
-18.07330266932144
 30
0.0
 11
-189.14878570389544
 21
-16.578553882410713
 31
0.0
  0
LINE
  5
88
330
17
100
AcDbEntity
  8
0
100
AcDbLine
 10
-189.14878570389544
 20
-16.578553882410713
 30
0.0
 11
-191.46594770458958
 21
-15.195004346945613
 31
0.0
  0
LINE
  5
89
330
17
100
AcDbEntity
  8
0
100
AcDbLine
 10
-191.46594770458958
 20
-15.195004346945613
 30
0.0
 11
-193.83809801161618
 21
-13.903507739841764
 31
0.0
  0
LINE
  5
8A
330
17
100
AcDbEntity
  8
0
100
AcDbLine
 10
-193.83809801161618
 20
-13.903507739841764
 30
0.0
 11
-196.2465243441039
 21
-12.681655359812103
 31
0.0
  0
LINE
  5
8B
330
17
100
AcDbEntity
  8
0
100
AcDbLine
 10
-196.2465243441039
 20
-12.681655359812103
 30
0.0
 11
-198.66514151392994
 21
-11.483440327789157
 31
0.0
  0
LINE
  5
8C
330
17
100
AcDbEntity
  8
0
100
AcDbLine
 10
-198.66514151392994
 20
-11.483440327789157
 30
0.0
 11
-201.06506992148337
 21
-10.249810658408808
 31
0.0
  0
LINE
  5
8D
330
17
100
AcDbEntity
  8
0
100
AcDbLine
 10
-201.06506992148337
 20
-10.249810658408808
 30
0.0
 11
-203.45309811233022
 21
-8.99149649819276
 31
0.0
  0
LINE
  5
8E
330
17
100
AcDbEntity
  8
0
100
AcDbLine
 10
-203.45309811233022
 20
-8.99149649819276
 30
0.0
 11
-205.85154904224007
 21
-7.750767730039099
 31
0.0
  0
LINE
  5
8F
330
17
100
AcDbEntity
  8
0
100
AcDbLine
 10
-205.85154904224007
 20
-7.750767730039099
 30
0.0
 11
-208.20597778727117
 21
-6.431857654209622
 31
0.0
  0
LINE
  5
90
330
17
100
AcDbEntity
  8
0
100
AcDbLine
 10
-208.20597778727117
 20
-6.431857654209622
 30
0.0
 11
-210.4095636942775
 21
-4.8679767105273
 31
0.0
  0
LINE
  5
91
330
17
100
AcDbEntity
  8
0
100
AcDbLine
 10
-210.4095636942775
 20
-4.8679767105273
 30
0.0
 11
-212.349968332535
 21
-2.999999999999906
 31
0.0
  0
LINE
  5
92
330
17
100
AcDbEntity
  8
0
100
AcDbLine
 10
-5.999999999999971
 20
-143.729042060623
 30
0.0
 11
-5.999999999999971
 21
-143.989910325548
 31
0.0
  0
LINE
  5
93
330
17
100
AcDbEntity
  8
0
100
AcDbLine
 10
-5.9999999999999405
 20
143.729042060624
 30
0.0
 11
-5.9999999999999405
 21
-143.729042060623
 31
0.0
  0
LINE
  5
94
330
17
100
AcDbEntity
  8
0
100
AcDbLine
 10
-5.999999999999971
 20
143.989910325548
 30
0.0
 11
-5.999999999999971
 21
143.729042060624
 31
0.0
  0
LINE
  5
95
330
17
100
AcDbEntity
  8
0
100
AcDbLine
 10
-5.999999999999514
 20
143.9899103255486
 30
0.0
 11
-8.702553917575973
 21
143.95640512298138
 31
0.0
  0
LINE
  5
96
330
17
100
AcDbEntity
  8
0
100
AcDbLine
 10
-8.702553917575973
 20
143.95640512298138
 30
0.0
 11
-11.404731433271234
 21
143.90280469392158
 31
0.0
  0
LINE
  5
97
330
17
100
AcDbEntity
  8
0
100
AcDbLine
 10
-11.404731433271234
 20
143.90280469392158
 30
0.0
 11
-14.10639592376176
 21
143.82917955329154
 31
0.0
  0
LINE
  5
98
330
17
100
AcDbEntity
  8
0
100
AcDbLine
 10
-14.10639592376176
 20
143.82917955329154
 30
0.0
 11
-16.80741076572403
 21
143.73560021601358
 31
0.0
  0
LINE
  5
99
330
17
100
AcDbEntity
  8
0
100
AcDbLine
 10
-16.80741076572403
 20
143.73560021601358
 30
0.0
 11
-19.50763933583451
 21
143.62213719701003
 31
0.0
  0
LINE
  5
9A
330
17
100
AcDbEntity
  8
0
100
AcDbLine
 10
-19.50763933583451
 20
143.62213719701003
 30
0.0
 11
-22.206945010769665
 21
143.4888610112032
 31
0.0
  0
LINE
  5
9B
330
17
100
AcDbEntity
  8
0
100
AcDbLine
 10
-22.206945010769665
 20
143.4888610112032
 30
0.0
 11
-24.905191167205974
 21
143.3358421735154
 31
0.0
  0
LINE
  5
9C
330
17
100
AcDbEntity
  8
0
100
AcDbLine
 10
-24.905191167205974
 20
143.3358421735154
 30
0.0
 11
-27.60224118181991
 21
143.16315119886897
 31
0.0
  0
LINE
  5
9D
330
17
100
AcDbEntity
  8
0
100
AcDbLine
 10
-27.60224118181991
 20
143.16315119886897
 30
0.0
 11
-30.297958431287924
 21
142.97085860218624
 31
0.0
  0
LINE
  5
9E
330
17
100
AcDbEntity
  8
0
100
AcDbLine
 10
-30.297958431287924
 20
142.97085860218624
 30
0.0
 11
-32.992206292286504
 21
142.7590348983895
 31
0.0
  0
LINE
  5
9F
330
17
100
AcDbEntity
  8
0
100
AcDbLine
 10
-32.992206292286504
 20
142.7590348983895
 30
0.0
 11
-35.68484813990044
 21
142.52775058925442
 31
0.0
  0
LINE
  5
A0
330
17
100
AcDbEntity
  8
0
100
AcDbLine
 10
-35.68484813990044
 20
142.52775058925442
 30
0.0
 11
-38.37573954360168
 21
142.2770117039274
 31
0.0
  0
LINE
  5
A1
330
17
100
AcDbEntity
  8
0
100
AcDbLine
 10
-38.37573954360168
 20
142.2770117039274
 30
0.0
 11
-41.06471017086576
 21
142.00661032681722
 31
0.0
  0
LINE
  5
A2
330
17
100
AcDbEntity
  8
0
100
AcDbLine
 10
-41.06471017086576
 20
142.00661032681722
 30
0.0
 11
-43.75158432342025
 21
141.71629422244604
 31
0.0
  0
LINE
  5
A3
330
17
100
AcDbEntity
  8
0
100
AcDbLine
 10
-43.75158432342025
 20
141.71629422244604
 30
0.0
 11
-46.43618630299277
 21
141.40581115533593
 31
0.0
  0
LINE
  5
A4
330
17
100
AcDbEntity
  8
0
100
AcDbLine
 10
-46.43618630299277
 20
141.40581115533593
 30
0.0
 11
-49.11834041131089
 21
141.07490889000903
 31
0.0
  0
LINE
  5
A5
330
17
100
AcDbEntity
  8
0
100
AcDbLine
 10
-49.11834041131089
 20
141.07490889000903
 30
0.0
 11
-51.79787095010218
 21
140.72333519098748
 31
0.0
  0
LINE
  5
A6
330
17
100
AcDbEntity
  8
0
100
AcDbLine
 10
-51.79787095010218
 20
140.72333519098748
 30
0.0
 11
-54.474607382464086
 21
140.3508934900684
 31
0.0
  0
LINE
  5
A7
330
17
100
AcDbEntity
  8
0
100
AcDbLine
 10
-54.474607382464086
 20
140.3508934900684
 30
0.0
 11
-57.14845255150667
 21
139.95817864951582
 31
0.0
  0
LINE
  5
A8
330
17
100
AcDbEntity
  8
0
100
AcDbLine
 10
-57.14845255150667
 20
139.95817864951582
 30
0.0
 11
-59.8193638822045
 21
139.54637421710808
 31
0.0
  0
LINE
  5
A9
330
17
100
AcDbEntity
  8
0
100
AcDbLine
 10
-59.8193638822045
 20
139.54637421710808
 30
0.0
 11
-62.487300097743365
 21
139.11667774231037
 31
0.0
  0
LINE
  5
AA
330
17
100
AcDbEntity
  8
0
100
AcDbLine
 10
-62.487300097743365
 20
139.11667774231037
 30
0.0
 11
-65.15221992130908
 21
138.67028677458774
 31
0.0
  0
LINE
  5
AB
330
17
100
AcDbEntity
  8
0
100
AcDbLine
 10
-65.15221992130908
 20
138.67028677458774
 30
0.0
 11
-67.81408207608749
 21
138.2083988634053
 31
0.0
  0
LINE
  5
AC
330
17
100
AcDbEntity
  8
0
100
AcDbLine
 10
-67.81408207608749
 20
138.2083988634053
 30
0.0
 11
-70.47274888595926
 21
137.73114375448768
 31
0.0
  0
LINE
  5
AD
330
17
100
AcDbEntity
  8
0
100
AcDbLine
 10
-70.47274888595926
 20
137.73114375448768
 30
0.0
 11
-73.12759023980772
 21
137.23319654913635
 31
0.0
  0
LINE
  5
AE
330
17
100
AcDbEntity
  8
0
100
AcDbLine
 10
-73.12759023980772
 20
137.23319654913635
 30
0.0
 11
-75.77781919654736
 21
136.70749516157346
 31
0.0
  0
LINE
  5
AF
330
17
100
AcDbEntity
  8
0
100
AcDbLine
 10
-75.77781919654736
 20
136.70749516157346
 30
0.0
 11
-78.42264874851568
 21
136.1469767685555
 31
0.0
  0
LINE
  5
B0
330
17
100
AcDbEntity
  8
0
100
AcDbLine
 10
-78.42264874851568
 20
136.1469767685555
 30
0.0
 11
-81.06055779844249
 21
135.54359654458997
 31
0.0
  0
LINE
  5
B1
330
17
100
AcDbEntity
  8
0
100
AcDbLine
 10
-81.06055779844249
 20
135.54359654458997
 30
0.0
 11
-83.68488605694914
 21
134.88243489282706
 31
0.0
  0
LINE
  5
B2
330
17
100
AcDbEntity
  8
0
100
AcDbLine
 10
-83.68488605694914
 20
134.88243489282706
 30
0.0
 11
-86.28677724056476
 21
134.145634603468
 31
0.0
  0
LINE
  5
B3
330
17
100
AcDbEntity
  8
0
100
AcDbLine
 10
-86.28677724056476
 20
134.145634603468
 30
0.0
 11
-88.8573668115436
 21
133.31532742485152
 31
0.0
  0
LINE
  5
B4
330
17
100
AcDbEntity
  8
0
100
AcDbLine
 10
-88.8573668115436
 20
133.31532742485152
 30
0.0
 11
-91.38780354628788
 21
132.37369990032505
 31
0.0
  0
LINE
  5
B5
330
17
100
AcDbEntity
  8
0
100
AcDbLine
 10
-91.38780354628788
 20
132.37369990032505
 30
0.0
 11
-93.87114440597028
 21
131.31079179833662
 31
0.0
  0
LINE
  5
B6
330
17
100
AcDbEntity
  8
0
100
AcDbLine
 10
-93.87114440597028
 20
131.31079179833662
 30
0.0
 11
-96.30432400769436
 21
130.13260156458546
 31
0.0
  0
LINE
  5
B7
330
17
100
AcDbEntity
  8
0
100
AcDbLine
 10
-96.30432400769436
 20
130.13260156458546
 30
0.0
 11
-98.68474741985659
 21
128.8470638094231
 31
0.0
  0
LINE
  5
B8
330
17
100
AcDbEntity
  8
0
100
AcDbLine
 10
-98.68474741985659
 20
128.8470638094231
 30
0.0
 11
-101.00981971085352
 21
127.46211314320108
 31
0.0
  0
LINE
  5
B9
330
17
100
AcDbEntity
  8
0
100
AcDbLine
 10
-101.00981971085352
 20
127.46211314320108
 30
0.0
 11
-103.2769164031064
 21
125.9856278405852
 31
0.0
  0
LINE
  5
BA
330
17
100
AcDbEntity
  8
0
100
AcDbLine
 10
-103.2769164031064
 20
125.9856278405852
 30
0.0
 11
-105.4814819770512
 21
124.4218042339931
 31
0.0
  0
LINE
  5
BB
330
17
100
AcDbEntity
  8
0
100
AcDbLine
 10
-105.4814819770512
 20
124.4218042339931
 30
0.0
 11
-107.61587305305233
 21
122.76895099387515
 31
0.0
  0
LINE
  5
BC
330
17
100
AcDbEntity
  8
0
100
AcDbLine
 10
-107.61587305305233
 20
122.76895099387515
 30
0.0
 11
-109.67216923840299
 21
121.02484860634517
 31
0.0
  0
LINE
  5
BD
330
17
100
AcDbEntity
  8
0
100
AcDbLine
 10
-109.67216923840299
 20
121.02484860634517
 30
0.0
 11
-111.64305609901977
 21
119.18783354683589
 31
0.0
  0
LINE
  5
BE
330
17
100
AcDbEntity
  8
0
100
AcDbLine
 10
-111.64305609901977
 20
119.18783354683589
 30
0.0
 11
-113.53306263727659
 21
117.26710907922994
 31
0.0
  0
LINE
  5
BF
330
17
100
AcDbEntity
  8
0
100
AcDbLine
 10
-113.53306263727659
 20
117.26710907922994
 30
0.0
 11
-115.35750318067467
 21
115.28177439980654
 31
0.0
  0
LINE
  5
C0
330
17
100
AcDbEntity
  8
0
100
AcDbLine
 10
-115.35750318067467
 20
115.28177439980654
 30
0.0
 11
-117.13208139956336
 21
113.25128370429823
 31
0.0
  0
LINE
  5
C1
330
17
100
AcDbEntity
  8
0
100
AcDbLine
 10
-117.13208139956336
 20
113.25128370429823
 30
0.0
 11
-118.86981632814953
 21
111.19126689235024
 31
0.0
  0
LINE
  5
C2
330
17
100
AcDbEntity
  8
0
100
AcDbLine
 10
-118.86981632814953
 20
111.19126689235024
 30
0.0
 11
-120.57648945493871
 21
109.10704389375002
 31
0.0
  0
LINE
  5
C3
330
17
100
AcDbEntity
  8
0
100
AcDbLine
 10
-120.57648945493871
 20
109.10704389375002
 30
0.0
 11
-122.25667487743448
 21
107.00221469545474
 31
0.0
  0
LINE
  5
C4
330
17
100
AcDbEntity
  8
0
100
AcDbLine
 10
-122.25667487743448
 20
107.00221469545474
 30
0.0
 11
-123.91494669314035
 21
104.88037928442166
 31
0.0
  0
LINE
  5
C5
330
17
100
AcDbEntity
  8
0
100
AcDbLine
 10
-123.91494669314035
 20
104.88037928442166
 30
0.0
 11
-125.55587899955995
 21
102.74513764760799
 31
0.0
  0
LINE
  5
C6
330
17
100
AcDbEntity
  8
0
100
AcDbLine
 10
-125.55587899955995
 20
102.74513764760799
 30
0.0
 11
-127.18404589419677
 21
100.60008977197096
 31
0.0
  0
LINE
  5
C7
330
17
100
AcDbEntity
  8
0
100
AcDbLine
 10
-127.18404589419677
 20
100.60008977197096
 30
0.0
 11
-128.8040214745544
 21
98.44883564446779
 31
0.0
  0
LINE
  5
C8
330
17
100
AcDbEntity
  8
0
100
AcDbLine
 10
-128.8040214745544
 20
98.44883564446779
 30
0.0
 11
-130.41975155205967
 21
96.29449068614326
 31
0.0
  0
LINE
  5
C9
330
17
100
AcDbEntity
  8
0
100
AcDbLine
 10
-130.41975155205967
 20
96.29449068614326
 30
0.0
 11
-132.03130227960037
 21
94.13717812969121
 31
0.0
  0
LINE
  5
CA
330
17
100
AcDbEntity
  8
0
100
AcDbLine
 10
-132.03130227960037
 20
94.13717812969121
 30
0.0
 11
-133.63726047237765
 21
91.97588026796528
 31
0.0
  0
LINE
  5
CB
330
17
100
AcDbEntity
  8
0
100
AcDbLine
 10
-133.63726047237765
 20
91.97588026796528
 30
0.0
 11
-135.23621002311907
 21
89.80957713986007
 31
0.0
  0
LINE
  5
CC
330
17
100
AcDbEntity
  8
0
100
AcDbLine
 10
-135.23621002311907
 20
89.80957713986007
 30
0.0
 11
-136.826734824552
 21
87.63724878427021
 31
0.0
  0
LINE
  5
CD
330
17
100
AcDbEntity
  8
0
100
AcDbLine
 10
-136.826734824552
 20
87.63724878427021
 30
0.0
 11
-138.40741876940402
 21
85.45787524009022
 31
0.0
  0
LINE
  5
CE
330
17
100
AcDbEntity
  8
0
100
AcDbLine
 10
-138.40741876940402
 20
85.45787524009022
 30
0.0
 11
-139.9768464969536
 21
83.27043714204541
 31
0.0
  0
LINE
  5
CF
330
17
100
AcDbEntity
  8
0
100
AcDbLine
 10
-139.9768464969536
 20
83.27043714204541
 30
0.0
 11
-141.5340094431941
 21
81.07423979383735
 31
0.0
  0
LINE
  5
D0
330
17
100
AcDbEntity
  8
0
100
AcDbLine
 10
-141.5340094431941
 20
81.07423979383735
 30
0.0
 11
-143.07897800476638
 21
78.86944962964432
 31
0.0
  0
LINE
  5
D1
330
17
100
AcDbEntity
  8
0
100
AcDbLine
 10
-143.07897800476638
 20
78.86944962964432
 30
0.0
 11
-144.61199945011643
 21
76.65637424699686
 31
0.0
  0
LINE
  5
D2
330
17
100
AcDbEntity
  8
0
100
AcDbLine
 10
-144.61199945011643
 20
76.65637424699686
 30
0.0
 11
-146.1333210476903
 21
74.43532124342539
 31
0.0
  0
LINE
  5
D3
330
17
100
AcDbEntity
  8
0
100
AcDbLine
 10
-146.1333210476903
 20
74.43532124342539
 30
0.0
 11
-147.64319006593396
 21
72.20659821646043
 31
0.0
  0
LINE
  5
D4
330
17
100
AcDbEntity
  8
0
100
AcDbLine
 10
-147.64319006593396
 20
72.20659821646043
 30
0.0
 11
-149.14185686995327
 21
69.97051303156196
 31
0.0
  0
LINE
  5
D5
330
17
100
AcDbEntity
  8
0
100
AcDbLine
 10
-149.14185686995327
 20
69.97051303156196
 30
0.0
 11
-150.62969065906265
 21
67.72738383597563
 31
0.0
  0
LINE
  5
D6
330
17
100
AcDbEntity
  8
0
100
AcDbLine
 10
-150.62969065906265
 20
67.72738383597563
 30
0.0
 11
-152.10721411254534
 21
65.47754205635673
 31
0.0
  0
LINE
  5
D7
330
17
100
AcDbEntity
  8
0
100
AcDbLine
 10
-152.10721411254534
 20
65.47754205635673
 30
0.0
 11
-153.57496007798304
 21
63.22131999914305
 31
0.0
  0
LINE
  5
D8
330
17
100
AcDbEntity
  8
0
100
AcDbLine
 10
-153.57496007798304
 20
63.22131999914305
 30
0.0
 11
-155.03346140295744
 21
60.959049970772554
 31
0.0
  0
LINE
  5
D9
330
17
100
AcDbEntity
  8
0
100
AcDbLine
 10
-155.03346140295744
 20
60.959049970772554
 30
0.0
 11
-156.4832509350503
 21
58.691064277683
 31
0.0
  0
LINE
  5
DA
330
17
100
AcDbEntity
  8
0
100
AcDbLine
 10
-156.4832509350503
 20
58.691064277683
 30
0.0
 11
-157.92456966242176
 21
56.41753933549413
 31
0.0
  0
LINE
  5
DB
330
17
100
AcDbEntity
  8
0
100
AcDbLine
 10
-157.92456966242176
 20
56.41753933549413
 30
0.0
 11
-159.35502655800178
 21
54.13724572202375
 31
0.0
  0
LINE
  5
DC
330
17
100
AcDbEntity
  8
0
100
AcDbLine
 10
-159.35502655800178
 20
54.13724572202375
 30
0.0
 11
-160.7708354833896
 21
51.848208844535854
 31
0.0
  0
LINE
  5
DD
330
17
100
AcDbEntity
  8
0
100
AcDbLine
 10
-160.7708354833896
 20
51.848208844535854
 30
0.0
 11
-162.1681975248056
 21
49.54844728658386
 31
0.0
  0
LINE
  5
DE
330
17
100
AcDbEntity
  8
0
100
AcDbLine
 10
-162.1681975248056
 20
49.54844728658386
 30
0.0
 11
-163.5434888095958
 21
47.236074431462505
 31
0.0
  0
LINE
  5
DF
330
17
100
AcDbEntity
  8
0
100
AcDbLine
 10
-163.5434888095958
 20
47.236074431462505
 30
0.0
 11
-164.90035367127726
 21
44.913140017786304
 31
0.0
  0
LINE
  5
E0
330
17
100
AcDbEntity
  8
0
100
AcDbLine
 10
-164.90035367127726
 20
44.913140017786304
 30
0.0
 11
-166.25215534093175
 21
42.58695739849618
 31
0.0
  0
LINE
  5
E1
330
17
100
AcDbEntity
  8
0
100
AcDbLine
 10
-166.25215534093175
 20
42.58695739849618
 30
0.0
 11
-167.6129352376844
 21
40.26520722336665
 31
0.0
  0
LINE
  5
E2
330
17
100
AcDbEntity
  8
0
100
AcDbLine
 10
-167.6129352376844
 20
40.26520722336665
 30
0.0
 11
-168.9967347806604
 21
37.955570142172284
 31
0.0
  0
LINE
  5
E3
330
17
100
AcDbEntity
  8
0
100
AcDbLine
 10
-168.9967347806604
 20
37.955570142172284
 30
0.0
 11
-170.41817664495326
 21
35.666798868231936
 31
0.0
  0
LINE
  5
E4
330
17
100
AcDbEntity
  8
0
100
AcDbLine
 10
-170.41817664495326
 20
35.666798868231936
 30
0.0
 11
-171.89506636732347
 21
33.413516557743236
 31
0.0
  0
LINE
  5
E5
330
17
100
AcDbEntity
  8
0
100
AcDbLine
 10
-171.89506636732347
 20
33.413516557743236
 30
0.0
 11
-173.44629337572877
 21
31.212345486572143
 31
0.0
  0
LINE
  5
E6
330
17
100
AcDbEntity
  8
0
100
AcDbLine
 10
-173.44629337572877
 20
31.212345486572143
 30
0.0
 11
-175.09070740720458
 21
29.079887171962536
 31
0.0
  0
LINE
  5
E7
330
17
100
AcDbEntity
  8
0
100
AcDbLine
 10
-175.09070740720458
 20
29.079887171962536
 30
0.0
 11
-176.83935891451273
 21
27.02843307208827
 31
0.0
  0
LINE
  5
E8
330
17
100
AcDbEntity
  8
0
100
AcDbLine
 10
-176.83935891451273
 20
27.02843307208827
 30
0.0
 11
-178.68627815952738
 21
25.06086890665636
 31
0.0
  0
LINE
  5
E9
330
17
100
AcDbEntity
  8
0
100
AcDbLine
 10
-178.68627815952738
 20
25.06086890665636
 30
0.0
 11
-180.6232503811083
 21
23.178839745403195
 31
0.0
  0
LINE
  5
EA
330
17
100
AcDbEntity
  8
0
100
AcDbLine
 10
-180.6232503811083
 20
23.178839745403195
 30
0.0
 11
-182.64206081811534
 21
21.383990658065116
 31
0.0
  0
LINE
  5
EB
330
17
100
AcDbEntity
  8
0
100
AcDbLine
 10
-182.64206081811534
 20
21.383990658065116
 30
0.0
 11
-184.73560573586767
 21
19.67903020172581
 31
0.0
  0
LINE
  5
EC
330
17
100
AcDbEntity
  8
0
100
AcDbLine
 10
-184.73560573586767
 20
19.67903020172581
 30
0.0
 11
-186.90371376058812
 21
18.073302669320814
 31
0.0
  0
LINE
  5
ED
330
17
100
AcDbEntity
  8
0
100
AcDbLine
 10
-186.90371376058812
 20
18.073302669320814
 30
0.0
 11
-189.14878570389658
 21
16.578553882410176
 31
0.0
  0
LINE
  5
EE
330
17
100
AcDbEntity
  8
0
100
AcDbLine
 10
-189.14878570389658
 20
16.578553882410176
 30
0.0
 11
-191.46594770459052
 21
15.195004346945138
 31
0.0
  0
LINE
  5
EF
330
17
100
AcDbEntity
  8
0
100
AcDbLine
 10
-191.46594770459052
 20
15.195004346945138
 30
0.0
 11
-193.83809801161706
 21
13.903507739841345
 31
0.0
  0
LINE
  5
F0
330
17
100
AcDbEntity
  8
0
100
AcDbLine
 10
-193.83809801161706
 20
13.903507739841345
 30
0.0
 11
-196.2465243441049
 21
12.681655359811733
 31
0.0
  0
LINE
  5
F1
330
17
100
AcDbEntity
  8
0
100
AcDbLine
 10
-196.2465243441049
 20
12.681655359811733
 30
0.0
 11
-198.66514151393125
 21
11.483440327788779
 31
0.0
  0
LINE
  5
F2
330
17
100
AcDbEntity
  8
0
100
AcDbLine
 10
-198.66514151393125
 20
11.483440327788779
 30
0.0
 11
-201.0650699214849
 21
10.249810658408354
 31
0.0
  0
LINE
  5
F3
330
17
100
AcDbEntity
  8
0
100
AcDbLine
 10
-201.0650699214849
 20
10.249810658408354
 30
0.0
 11
-203.45309811233182
 21
8.99149649819228
 31
0.0
  0
LINE
  5
F4
330
17
100
AcDbEntity
  8
0
100
AcDbLine
 10
-203.45309811233182
 20
8.99149649819228
 30
0.0
 11
-205.85154904224163
 21
7.7507677300386195
 31
0.0
  0
LINE
  5
F5
330
17
100
AcDbEntity
  8
0
100
AcDbLine
 10
-205.85154904224163
 20
7.7507677300386195
 30
0.0
 11
-208.20597778727267
 21
6.431857654209049
 31
0.0
  0
LINE
  5
F6
330
17
100
AcDbEntity
  8
0
100
AcDbLine
 10
-208.20597778727267
 20
6.431857654209049
 30
0.0
 11
-210.40956369427855
 21
4.867976710526753
 31
0.0
  0
LINE
  5
F7
330
17
100
AcDbEntity
  8
0
100
AcDbLine
 10
-210.40956369427855
 20
4.867976710526753
 30
0.0
 11
-212.3499683325353
 21
2.999999999999843
 31
0.0
  0
LINE
  5
F8
330
17
100
AcDbEntity
  8
0
100
AcDbLine
 10
-179.73689660755994
 20
3.00000000000018
 30
0.0
 11
-212.34996833253496
 21
3.00000000000018
 31
0.0
  0
LINE
  5
F9
330
17
100
AcDbEntity
  8
0
100
AcDbLine
 10
-179.73689660756094
 20
-2.99999999999982
 30
0.0
 11
-179.73689660756094
 21
3.00000000000018
 31
0.0
  0
LINE
  5
FA
330
17
100
AcDbEntity
  8
0
100
AcDbLine
 10
-179.73689660755994
 20
-2.99999999999982
 30
0.0
 11
-212.34996833253496
 21
-2.99999999999982
 31
0.0
  0
LINE
  5
FB
330
17
100
AcDbEntity
  8
0
100
AcDbLine
 10
-15.999999999999941
 20
124.57737823194299
 30
0.0
 11
-15.999999999999941
 21
-124.57737823194302
 31
0.0
  0
LINE
  5
FC
330
17
100
AcDbEntity
  8
0
100
AcDbLine
 10
-19.99999999999994
 20
-128.577378231943
 30
0.0
 11
-19.936536144660707
 21
-128.5768747426385
 31
0.0
  0
LINE
  5
FD
330
17
100
AcDbEntity
  8
0
100
AcDbLine
 10
-19.936536144660707
 20
-128.5768747426385
 30
0.0
 11
-19.87308826600767
 21
-128.57536440147575
 31
0.0
  0
LINE
  5
FE
330
17
100
AcDbEntity
  8
0
100
AcDbLine
 10
-19.87308826600767
 20
-128.57536440147575
 30
0.0
 11
-19.80967233670497
 21
-128.57284758867505
 31
0.0
  0
LINE
  5
FF
330
17
100
AcDbEntity
  8
0
100
AcDbLine
 10
-19.80967233670497
 20
-128.57284758867505
 30
0.0
 11
-19.74630432137368
 21
-128.56932493783054
 31
0.0
  0
LINE
  5
100
330
17
100
AcDbEntity
  8
0
100
AcDbLine
 10
-19.74630432137368
 20
-128.56932493783054
 30
0.0
 11
-19.683000172572786
 21
-128.56479733575077
 31
0.0
  0
LINE
  5
101
330
17
100
AcDbEntity
  8
0
100
AcDbLine
 10
-19.683000172572786
 20
-128.56479733575077
 30
0.0
 11
-19.619775826783208
 21
-128.55926592223534
 31
0.0
  0
LINE
  5
102
330
17
100
AcDbEntity
  8
0
100
AcDbLine
 10
-19.619775826783208
 20
-128.55926592223534
 30
0.0
 11
-19.556647200395897
 21
-128.552732089788
 31
0.0
  0
LINE
  5
103
330
17
100
AcDbEntity
  8
0
100
AcDbLine
 10
-19.556647200395897
 20
-128.552732089788
 30
0.0
 11
-19.49363018570494
 21
-128.54519748326618
 31
0.0
  0
LINE
  5
104
330
17
100
AcDbEntity
  8
0
100
AcDbLine
 10
-19.49363018570494
 20
-128.54519748326618
 30
0.0
 11
-19.4307406469068
 21
-128.53666399946673
 31
0.0
  0
LINE
  5
105
330
17
100
AcDbEntity
  8
0
100
AcDbLine
 10
-19.4307406469068
 20
-128.53666399946673
 30
0.0
 11
-19.36799441610654
 21
-128.5271337866486
 31
0.0
  0
LINE
  5
106
330
17
100
AcDbEntity
  8
0
100
AcDbLine
 10
-19.36799441610654
 20
-128.5271337866486
 30
0.0
 11
-19.30540728933222
 21
-128.51660924399184
 31
0.0
  0
LINE
  5
107
330
17
100
AcDbEntity
  8
0
100
AcDbLine
 10
-19.30540728933222
 20
-128.51660924399184
 30
0.0
 11
-19.2429950225583
 21
-128.50509302099383
 31
0.0
  0
LINE
  5
108
330
17
100
AcDbEntity
  8
0
100
AcDbLine
 10
-19.2429950225583
 20
-128.50509302099383
 30
0.0
 11
-19.18077332773918
 21
-128.4925880168021
 31
0.0
  0
LINE
  5
109
330
17
100
AcDbEntity
  8
0
100
AcDbLine
 10
-19.18077332773918
 20
-128.4925880168021
 30
0.0
 11
-19.118757868853777
 21
-128.47909737948464
 31
0.0
  0
LINE
  5
10A
330
17
100
AcDbEntity
  8
0
100
AcDbLine
 10
-19.118757868853777
 20
-128.47909737948464
 30
0.0
 11
-19.056964257962232
 21
-128.46462450523717
 31
0.0
  0
LINE
  5
10B
330
17
100
AcDbEntity
  8
0
100
AcDbLine
 10
-19.056964257962232
 20
-128.46462450523717
 30
0.0
 11
-18.99540805127562
 21
-128.44917303752842
 31
0.0
  0
LINE
  5
10C
330
17
100
AcDbEntity
  8
0
100
AcDbLine
 10
-18.99540805127562
 20
-128.44917303752842
 30
0.0
 11
-18.9341047452398
 21
-128.43274686618278
 31
0.0
  0
LINE
  5
10D
330
17
100
AcDbEntity
  8
0
100
AcDbLine
 10
-18.9341047452398
 20
-128.43274686618278
 30
0.0
 11
-18.87306977263422
 21
-128.415350126401
 31
0.0
  0
LINE
  5
10E
330
17
100
AcDbEntity
  8
0
100
AcDbLine
 10
-18.87306977263422
 20
-128.415350126401
 30
0.0
 11
-18.81231849868684
 21
-128.39698719771928
 31
0.0
  0
LINE
  5
10F
330
17
100
AcDbEntity
  8
0
100
AcDbLine
 10
-18.81231849868684
 20
-128.39698719771928
 30
0.0
 11
-18.75186621720599
 21
-128.37766270290678
 31
0.0
  0
LINE
  5
110
330
17
100
AcDbEntity
  8
0
100
AcDbLine
 10
-18.75186621720599
 20
-128.37766270290678
 30
0.0
 11
-18.691728146730252
 21
-128.3573815068017
 31
0.0
  0
LINE
  5
111
330
17
100
AcDbEntity
  8
0
100
AcDbLine
 10
-18.691728146730252
 20
-128.3573815068017
 30
0.0
 11
-18.631919426697266
 21
-128.33614871508664
 31
0.0
  0
LINE
  5
112
330
17
100
AcDbEntity
  8
0
100
AcDbLine
 10
-18.631919426697266
 20
-128.33614871508664
 30
0.0
 11
-18.57245511363245
 21
-128.31396967300344
 31
0.0
  0
LINE
  5
113
330
17
100
AcDbEntity
  8
0
100
AcDbLine
 10
-18.57245511363245
 20
-128.31396967300344
 30
0.0
 11
-18.513350177358628
 21
-128.2908499640073
 31
0.0
  0
LINE
  5
114
330
17
100
AcDbEntity
  8
0
100
AcDbLine
 10
-18.513350177358628
 20
-128.2908499640073
 30
0.0
 11
-18.454619497227426
 21
-128.26679540836133
 31
0.0
  0
LINE
  5
115
330
17
100
AcDbEntity
  8
0
100
AcDbLine
 10
-18.454619497227426
 20
-128.26679540836133
 30
0.0
 11
-18.396277858373484
 21
-128.24181206167128
 31
0.0
  0
LINE
  5
116
330
17
100
AcDbEntity
  8
0
100
AcDbLine
 10
-18.396277858373484
 20
-128.24181206167128
 30
0.0
 11
-18.338339947992395
 21
-128.21590621336108
 31
0.0
  0
LINE
  5
117
330
17
100
AcDbEntity
  8
0
100
AcDbLine
 10
-18.338339947992395
 20
-128.21590621336108
 30
0.0
 11
-18.280820351643253
 21
-128.18908438508947
 31
0.0
  0
LINE
  5
118
330
17
100
AcDbEntity
  8
0
100
AcDbLine
 10
-18.280820351643253
 20
-128.18908438508947
 30
0.0
 11
-18.223733549576842
 21
-128.16135332910835
 31
0.0
  0
LINE
  5
119
330
17
100
AcDbEntity
  8
0
100
AcDbLine
 10
-18.223733549576842
 20
-128.16135332910835
 30
0.0
 11
-18.167093913090298
 21
-128.1327200265627
 31
0.0
  0
LINE
  5
11A
330
17
100
AcDbEntity
  8
0
100
AcDbLine
 10
-18.167093913090298
 20
-128.1327200265627
 30
0.0
 11
-18.11091570090921
 21
-128.10319168573332
 31
0.0
  0
LINE
  5
11B
330
17
100
AcDbEntity
  8
0
100
AcDbLine
 10
-18.11091570090921
 20
-128.10319168573332
 30
0.0
 11
-18.055213055598063
 21
-128.07277574022214
 31
0.0
  0
LINE
  5
11C
330
17
100
AcDbEntity
  8
0
100
AcDbLine
 10
-18.055213055598063
 20
-128.07277574022214
 30
0.0
 11
-17.99999999999994
 21
-128.04147984708075
 31
0.0
  0
LINE
  5
11D
330
17
100
AcDbEntity
  8
0
100
AcDbLine
 10
-17.99999999999994
 20
-128.04147984708075
 30
0.0
 11
-17.945290433706315
 21
-128.00931188488292
 31
0.0
  0
LINE
  5
11E
330
17
100
AcDbEntity
  8
0
100
AcDbLine
 10
-17.945290433706315
 20
-128.00931188488292
 30
0.0
 11
-17.89109812955793
 21
-127.97627995174106
 31
0.0
  0
LINE
  5
11F
330
17
100
AcDbEntity
  8
0
100
AcDbLine
 10
-17.89109812955793
 20
-127.97627995174106
 30
0.0
 11
-17.83743673017755
 21
-127.94239236326773
 31
0.0
  0
LINE
  5
120
330
17
100
AcDbEntity
  8
0
100
AcDbLine
 10
-17.83743673017755
 20
-127.94239236326773
 30
0.0
 11
-17.784319744535498
 21
-127.9076576504821
 31
0.0
  0
LINE
  5
121
330
17
100
AcDbEntity
  8
0
100
AcDbLine
 10
-17.784319744535498
 20
-127.9076576504821
 30
0.0
 11
-17.731760544548855
 21
-127.87208455766233
 31
0.0
  0
LINE
  5
122
330
17
100
AcDbEntity
  8
0
100
AcDbLine
 10
-17.731760544548855
 20
-127.87208455766233
 30
0.0
 11
-17.67977236171515
 21
-127.83568204014435
 31
0.0
  0
LINE
  5
123
330
17
100
AcDbEntity
  8
0
100
AcDbLine
 10
-17.67977236171515
 20
-127.83568204014435
 30
0.0
 11
-17.628368283781377
 21
-127.79845926206724
 31
0.0
  0
LINE
  5
124
330
17
100
AcDbEntity
  8
0
100
AcDbLine
 10
-17.628368283781377
 20
-127.79845926206724
 30
0.0
 11
-17.57756125144927
 21
-127.76042559406633
 31
0.0
  0
LINE
  5
125
330
17
100
AcDbEntity
  8
0
100
AcDbLine
 10
-17.57756125144927
 20
-127.76042559406633
 30
0.0
 11
-17.52736405511752
 21
-127.72159061091415
 31
0.0
  0
LINE
  5
126
330
17
100
AcDbEntity
  8
0
100
AcDbLine
 10
-17.52736405511752
 20
-127.72159061091415
 30
0.0
 11
-17.47778933166185
 21
-127.68196408911002
 31
0.0
  0
LINE
  5
127
330
17
100
AcDbEntity
  8
0
100
AcDbLine
 10
-17.47778933166185
 20
-127.68196408911002
 30
0.0
 11
-17.42884956125378
 21
-127.64155600441892
 31
0.0
  0
LINE
  5
128
330
17
100
AcDbEntity
  8
0
100
AcDbLine
 10
-17.42884956125378
 20
-127.64155600441892
 30
0.0
 11
-17.3805570642188
 21
-127.60037652936003
 31
0.0
  0
LINE
  5
129
330
17
100
AcDbEntity
  8
0
100
AcDbLine
 10
-17.3805570642188
 20
-127.60037652936003
 30
0.0
 11
-17.332923997934774
 21
-127.55843603064602
 31
0.0
  0
LINE
  5
12A
330
17
100
AcDbEntity
  8
0
100
AcDbLine
 10
-17.332923997934774
 20
-127.55843603064602
 30
0.0
 11
-17.28596235377141
 21
-127.51574506657313
 31
0.0
  0
LINE
  5
12B
330
17
100
AcDbEntity
  8
0
100
AcDbLine
 10
-17.28596235377141
 20
-127.51574506657313
 30
0.0
 11
-17.23968395407149
 21
-127.47231438436329
 31
0.0
  0
LINE
  5
12C
330
17
100
AcDbEntity
  8
0
100
AcDbLine
 10
-17.23968395407149
 20
-127.47231438436329
 30
0.0
 11
-17.194100449174655
 21
-127.42815491745846
 31
0.0
  0
LINE
  5
12D
330
17
100
AcDbEntity
  8
0
100
AcDbLine
 10
-17.194100449174655
 20
-127.42815491745846
 30
0.0
 11
-17.149223314484487
 21
-127.38327778276829
 31
0.0
  0
LINE
  5
12E
330
17
100
AcDbEntity
  8
0
100
AcDbLine
 10
-17.149223314484487
 20
-127.38327778276829
 30
0.0
 11
-17.10506384757966
 21
-127.33769427787145
 31
0.0
  0
LINE
  5
12F
330
17
100
AcDbEntity
  8
0
100
AcDbLine
 10
-17.10506384757966
 20
-127.33769427787145
 30
0.0
 11
-17.061633165369805
 21
-127.29141587817153
 31
0.0
  0
LINE
  5
130
330
17
100
AcDbEntity
  8
0
100
AcDbLine
 10
-17.061633165369805
 20
-127.29141587817153
 30
0.0
 11
-17.01894220129692
 21
-127.24445423400817
 31
0.0
  0
LINE
  5
131
330
17
100
AcDbEntity
  8
0
100
AcDbLine
 10
-17.01894220129692
 20
-127.24445423400817
 30
0.0
 11
-16.977001702582907
 21
-127.19682116772414
 31
0.0
  0
LINE
  5
132
330
17
100
AcDbEntity
  8
0
100
AcDbLine
 10
-16.977001702582907
 20
-127.19682116772414
 30
0.0
 11
-16.935822227524028
 21
-127.14852867068916
 31
0.0
  0
LINE
  5
133
330
17
100
AcDbEntity
  8
0
100
AcDbLine
 10
-16.935822227524028
 20
-127.14852867068916
 30
0.0
 11
-16.895414142832912
 21
-127.09958890028109
 31
0.0
  0
LINE
  5
134
330
17
100
AcDbEntity
  8
0
100
AcDbLine
 10
-16.895414142832912
 20
-127.09958890028109
 30
0.0
 11
-16.85578762102879
 21
-127.05001417682543
 31
0.0
  0
LINE
  5
135
330
17
100
AcDbEntity
  8
0
100
AcDbLine
 10
-16.85578762102879
 20
-127.05001417682543
 30
0.0
 11
-16.81695263787661
 21
-126.99981698049366
 31
0.0
  0
LINE
  5
136
330
17
100
AcDbEntity
  8
0
100
AcDbLine
 10
-16.81695263787661
 20
-126.99981698049366
 30
0.0
 11
-16.778918969875704
 21
-126.94900994816156
 31
0.0
  0
LINE
  5
137
330
17
100
AcDbEntity
  8
0
100
AcDbLine
 10
-16.778918969875704
 20
-126.94900994816156
 30
0.0
 11
-16.741696191798596
 21
-126.89760587022779
 31
0.0
  0
LINE
  5
138
330
17
100
AcDbEntity
  8
0
100
AcDbLine
 10
-16.741696191798596
 20
-126.89760587022779
 30
0.0
 11
-16.705293674280608
 21
-126.84561768739408
 31
0.0
  0
LINE
  5
139
330
17
100
AcDbEntity
  8
0
100
AcDbLine
 10
-16.705293674280608
 20
-126.84561768739408
 30
0.0
 11
-16.669720581460854
 21
-126.79305848740744
 31
0.0
  0
LINE
  5
13A
330
17
100
AcDbEntity
  8
0
100
AcDbLine
 10
-16.669720581460854
 20
-126.79305848740744
 30
0.0
 11
-16.634985868675216
 21
-126.73994150176539
 31
0.0
  0
LINE
  5
13B
330
17
100
AcDbEntity
  8
0
100
AcDbLine
 10
-16.634985868675216
 20
-126.73994150176539
 30
0.0
 11
-16.60109828020188
 21
-126.68628010238501
 31
0.0
  0
LINE
  5
13C
330
17
100
AcDbEntity
  8
0
100
AcDbLine
 10
-16.60109828020188
 20
-126.68628010238501
 30
0.0
 11
-16.568066347060032
 21
-126.63208779823663
 31
0.0
  0
LINE
  5
13D
330
17
100
AcDbEntity
  8
0
100
AcDbLine
 10
-16.568066347060032
 20
-126.63208779823663
 30
0.0
 11
-16.535898384862186
 21
-126.577378231943
 31
0.0
  0
LINE
  5
13E
330
17
100
AcDbEntity
  8
0
100
AcDbLine
 10
-16.535898384862186
 20
-126.577378231943
 30
0.0
 11
-16.5046024917208
 21
-126.52216517634487
 31
0.0
  0
LINE
  5
13F
330
17
100
AcDbEntity
  8
0
100
AcDbLine
 10
-16.5046024917208
 20
-126.52216517634487
 30
0.0
 11
-16.474186546209612
 21
-126.46646253103373
 31
0.0
  0
LINE
  5
140
330
17
100
AcDbEntity
  8
0
100
AcDbLine
 10
-16.474186546209612
 20
-126.46646253103373
 30
0.0
 11
-16.444658205380247
 21
-126.41028431885265
 31
0.0
  0
LINE
  5
141
330
17
100
AcDbEntity
  8
0
100
AcDbLine
 10
-16.444658205380247
 20
-126.41028431885265
 30
0.0
 11
-16.416024902834597
 21
-126.3536446823661
 31
0.0
  0
LINE
  5
142
330
17
100
AcDbEntity
  8
0
100
AcDbLine
 10
-16.416024902834597
 20
-126.3536446823661
 30
0.0
 11
-16.388293846853454
 21
-126.29655788029969
 31
0.0
  0
LINE
  5
143
330
17
100
AcDbEntity
  8
0
100
AcDbLine
 10
-16.388293846853454
 20
-126.29655788029969
 30
0.0
 11
-16.361472018581868
 21
-126.23903828395055
 31
0.0
  0
LINE
  5
144
330
17
100
AcDbEntity
  8
0
100
AcDbLine
 10
-16.361472018581868
 20
-126.23903828395055
 30
0.0
 11
-16.33556617027166
 21
-126.18110037356945
 31
0.0
  0
LINE
  5
145
330
17
100
AcDbEntity
  8
0
100
AcDbLine
 10
-16.33556617027166
 20
-126.18110037356945
 30
0.0
 11
-16.310582823581615
 21
-126.12275873471552
 31
0.0
  0
LINE
  5
146
330
17
100
AcDbEntity
  8
0
100
AcDbLine
 10
-16.310582823581615
 20
-126.12275873471552
 30
0.0
 11
-16.286528267935648
 21
-126.06402805458431
 31
0.0
  0
LINE
  5
147
330
17
100
AcDbEntity
  8
0
100
AcDbLine
 10
-16.286528267935648
 20
-126.06402805458431
 30
0.0
 11
-16.263408558939513
 21
-126.00492311831049
 31
0.0
  0
LINE
  5
148
330
17
100
AcDbEntity
  8
0
100
AcDbLine
 10
-16.263408558939513
 20
-126.00492311831049
 30
0.0
 11
-16.241229516856308
 21
-125.94545880524568
 31
0.0
  0
LINE
  5
149
330
17
100
AcDbEntity
  8
0
100
AcDbLine
 10
-16.241229516856308
 20
-125.94545880524568
 30
0.0
 11
-16.219996725141264
 21
-125.88565008521269
 31
0.0
  0
LINE
  5
14A
330
17
100
AcDbEntity
  8
0
100
AcDbLine
 10
-16.219996725141264
 20
-125.88565008521269
 30
0.0
 11
-16.19971552903616
 21
-125.82551201473694
 31
0.0
  0
LINE
  5
14B
330
17
100
AcDbEntity
  8
0
100
AcDbLine
 10
-16.19971552903616
 20
-125.82551201473694
 30
0.0
 11
-16.180391034223643
 21
-125.7650597332561
 31
0.0
  0
LINE
  5
14C
330
17
100
AcDbEntity
  8
0
100
AcDbLine
 10
-16.180391034223643
 20
-125.7650597332561
 30
0.0
 11
-16.16202810554195
 21
-125.70430845930872
 31
0.0
  0
LINE
  5
14D
330
17
100
AcDbEntity
  8
0
100
AcDbLine
 10
-16.16202810554195
 20
-125.70430845930872
 30
0.0
 11
-16.144631365760173
 21
-125.64327348670314
 31
0.0
  0
LINE
  5
14E
330
17
100
AcDbEntity
  8
0
100
AcDbLine
 10
-16.144631365760173
 20
-125.64327348670314
 30
0.0
 11
-16.128205194414516
 21
-125.58197018066731
 31
0.0
  0
LINE
  5
14F
330
17
100
AcDbEntity
  8
0
100
AcDbLine
 10
-16.128205194414516
 20
-125.58197018066731
 30
0.0
 11
-16.112753726705773
 21
-125.52041397398071
 31
0.0
  0
LINE
  5
150
330
17
100
AcDbEntity
  8
0
100
AcDbLine
 10
-16.112753726705773
 20
-125.52041397398071
 30
0.0
 11
-16.098280852458313
 21
-125.45862036308917
 31
0.0
  0
LINE
  5
151
330
17
100
AcDbEntity
  8
0
100
AcDbLine
 10
-16.098280852458313
 20
-125.45862036308917
 30
0.0
 11
-16.084790215140824
 21
-125.39660490420377
 31
0.0
  0
LINE
  5
152
330
17
100
AcDbEntity
  8
0
100
AcDbLine
 10
-16.084790215140824
 20
-125.39660490420377
 30
0.0
 11
-16.07228521094911
 21
-125.33438320938464
 31
0.0
  0
LINE
  5
153
330
17
100
AcDbEntity
  8
0
100
AcDbLine
 10
-16.07228521094911
 20
-125.33438320938464
 30
0.0
 11
-16.060768987951107
 21
-125.27197094261072
 31
0.0
  0
LINE
  5
154
330
17
100
AcDbEntity
  8
0
100
AcDbLine
 10
-16.060768987951107
 20
-125.27197094261072
 30
0.0
 11
-16.050244445294364
 21
-125.2093838158364
 31
0.0
  0
LINE
  5
155
330
17
100
AcDbEntity
  8
0
100
AcDbLine
 10
-16.050244445294364
 20
-125.2093838158364
 30
0.0
 11
-16.04071423247621
 21
-125.14663758503615
 31
0.0
  0
LINE
  5
156
330
17
100
AcDbEntity
  8
0
100
AcDbLine
 10
-16.04071423247621
 20
-125.14663758503615
 30
0.0
 11
-16.03218074867676
 21
-125.083748046238
 31
0.0
  0
LINE
  5
157
330
17
100
AcDbEntity
  8
0
100
AcDbLine
 10
-16.03218074867676
 20
-125.083748046238
 30
0.0
 11
-16.024646142154925
 21
-125.02073103154704
 31
0.0
  0
LINE
  5
158
330
17
100
AcDbEntity
  8
0
100
AcDbLine
 10
-16.024646142154925
 20
-125.02073103154704
 30
0.0
 11
-16.0181123097076
 21
-124.95760240515973
 31
0.0
  0
LINE
  5
159
330
17
100
AcDbEntity
  8
0
100
AcDbLine
 10
-16.0181123097076
 20
-124.95760240515973
 30
0.0
 11
-16.01258089619217
 21
-124.89437805937015
 31
0.0
  0
LINE
  5
15A
330
17
100
AcDbEntity
  8
0
100
AcDbLine
 10
-16.01258089619217
 20
-124.89437805937015
 30
0.0
 11
-16.0080532941124
 21
-124.83107391056926
 31
0.0
  0
LINE
  5
15B
330
17
100
AcDbEntity
  8
0
100
AcDbLine
 10
-16.0080532941124
 20
-124.83107391056926
 30
0.0
 11
-16.00453064326791
 21
-124.76770589523797
 31
0.0
  0
LINE
  5
15C
330
17
100
AcDbEntity
  8
0
100
AcDbLine
 10
-16.00453064326791
 20
-124.76770589523797
 30
0.0
 11
-16.0020138304672
 21
-124.70428996593527
 31
0.0
  0
LINE
  5
15D
330
17
100
AcDbEntity
  8
0
100
AcDbLine
 10
-16.0020138304672
 20
-124.70428996593527
 30
0.0
 11
-16.00050348930444
 21
-124.64084208728224
 31
0.0
  0
LINE
  5
15E
330
17
100
AcDbEntity
  8
0
100
AcDbLine
 10
-16.00050348930444
 20
-124.64084208728224
 30
0.0
 11
-15.999999999999941
 21
-124.577378231943
 31
0.0
  0
LINE
  5
15F
330
17
100
AcDbEntity
  8
0
100
AcDbLine
 10
-20.198063470461275
 20
-128.57247158024774
 30
0.0
 11
-20.196064441312046
 21
-128.57257018413415
 31
0.0
  0
LINE
  5
160
330
17
100
AcDbEntity
  8
0
100
AcDbLine
 10
-20.196064441312046
 20
-128.57257018413415
 30
0.0
 11
-20.194065363075136
 21
-128.57266778776426
 31
0.0
  0
LINE
  5
161
330
17
100
AcDbEntity
  8
0
100
AcDbLine
 10
-20.194065363075136
 20
-128.57266778776426
 30
0.0
 11
-20.19206623625105
 21
-128.57276439111365
 31
0.0
  0
LINE
  5
162
330
17
100
AcDbEntity
  8
0
100
AcDbLine
 10
-20.19206623625105
 20
-128.57276439111365
 30
0.0
 11
-20.1900670613403
 21
-128.5728599941581
 31
0.0
  0
LINE
  5
163
330
17
100
AcDbEntity
  8
0
100
AcDbLine
 10
-20.1900670613403
 20
-128.5728599941581
 30
0.0
 11
-20.188067838843406
 21
-128.5729545968737
 31
0.0
  0
LINE
  5
164
330
17
100
AcDbEntity
  8
0
100
AcDbLine
 10
-20.188067838843406
 20
-128.5729545968737
 30
0.0
 11
-20.1860685692609
 21
-128.57304819923675
 31
0.0
  0
LINE
  5
165
330
17
100
AcDbEntity
  8
0
100
AcDbLine
 10
-20.1860685692609
 20
-128.57304819923675
 30
0.0
 11
-20.184069253093337
 21
-128.57314080122381
 31
0.0
  0
LINE
  5
166
330
17
100
AcDbEntity
  8
0
100
AcDbLine
 10
-20.184069253093337
 20
-128.57314080122381
 30
0.0
 11
-20.182069890841273
 21
-128.57323240281173
 31
0.0
  0
LINE
  5
167
330
17
100
AcDbEntity
  8
0
100
AcDbLine
 10
-20.182069890841273
 20
-128.57323240281173
 30
0.0
 11
-20.180070483005277
 21
-128.57332300397755
 31
0.0
  0
LINE
  5
168
330
17
100
AcDbEntity
  8
0
100
AcDbLine
 10
-20.180070483005277
 20
-128.57332300397755
 30
0.0
 11
-20.17807103008593
 21
-128.57341260469858
 31
0.0
  0
LINE
  5
169
330
17
100
AcDbEntity
  8
0
100
AcDbLine
 10
-20.17807103008593
 20
-128.57341260469858
 30
0.0
 11
-20.17607153258383
 21
-128.5735012049524
 31
0.0
  0
LINE
  5
16A
330
17
100
AcDbEntity
  8
0
100
AcDbLine
 10
-20.17607153258383
 20
-128.5735012049524
 30
0.0
 11
-20.174071990999575
 21
-128.57358880471685
 31
0.0
  0
LINE
  5
16B
330
17
100
AcDbEntity
  8
0
100
AcDbLine
 10
-20.174071990999575
 20
-128.57358880471685
 30
0.0
 11
-20.172072405833788
 21
-128.57367540396996
 31
0.0
  0
LINE
  5
16C
330
17
100
AcDbEntity
  8
0
100
AcDbLine
 10
-20.172072405833788
 20
-128.57367540396996
 30
0.0
 11
-20.170072777587084
 21
-128.57376100269005
 31
0.0
  0
LINE
  5
16D
330
17
100
AcDbEntity
  8
0
100
AcDbLine
 10
-20.170072777587084
 20
-128.57376100269005
 30
0.0
 11
-20.168073106760108
 21
-128.5738456008557
 31
0.0
  0
LINE
  5
16E
330
17
100
AcDbEntity
  8
0
100
AcDbLine
 10
-20.168073106760108
 20
-128.5738456008557
 30
0.0
 11
-20.16607339385351
 21
-128.57392919844574
 31
0.0
  0
LINE
  5
16F
330
17
100
AcDbEntity
  8
0
100
AcDbLine
 10
-20.16607339385351
 20
-128.57392919844574
 30
0.0
 11
-20.16407363936794
 21
-128.57401179543922
 31
0.0
  0
LINE
  5
170
330
17
100
AcDbEntity
  8
0
100
AcDbLine
 10
-20.16407363936794
 20
-128.57401179543922
 30
0.0
 11
-20.162073843804066
 21
-128.5740933918155
 31
0.0
  0
LINE
  5
171
330
17
100
AcDbEntity
  8
0
100
AcDbLine
 10
-20.162073843804066
 20
-128.5740933918155
 30
0.0
 11
-20.16007400766258
 21
-128.5741739875541
 31
0.0
  0
LINE
  5
172
330
17
100
AcDbEntity
  8
0
100
AcDbLine
 10
-20.16007400766258
 20
-128.5741739875541
 30
0.0
 11
-20.15807413144416
 21
-128.57425358263487
 31
0.0
  0
LINE
  5
173
330
17
100
AcDbEntity
  8
0
100
AcDbLine
 10
-20.15807413144416
 20
-128.57425358263487
 30
0.0
 11
-20.1560742156495
 21
-128.57433217703786
 31
0.0
  0
LINE
  5
174
330
17
100
AcDbEntity
  8
0
100
AcDbLine
 10
-20.1560742156495
 20
-128.57433217703786
 30
0.0
 11
-20.154074260779325
 21
-128.57440977074342
 31
0.0
  0
LINE
  5
175
330
17
100
AcDbEntity
  8
0
100
AcDbLine
 10
-20.154074260779325
 20
-128.57440977074342
 30
0.0
 11
-20.152074267334342
 21
-128.57448636373212
 31
0.0
  0
LINE
  5
176
330
17
100
AcDbEntity
  8
0
100
AcDbLine
 10
-20.152074267334342
 20
-128.57448636373212
 30
0.0
 11
-20.150074235815286
 21
-128.57456195598476
 31
0.0
  0
LINE
  5
177
330
17
100
AcDbEntity
  8
0
100
AcDbLine
 10
-20.150074235815286
 20
-128.57456195598476
 30
0.0
 11
-20.148074166722886
 21
-128.57463654748244
 31
0.0
  0
LINE
  5
178
330
17
100
AcDbEntity
  8
0
100
AcDbLine
 10
-20.148074166722886
 20
-128.57463654748244
 30
0.0
 11
-20.146074060557897
 21
-128.57471013820648
 31
0.0
  0
LINE
  5
179
330
17
100
AcDbEntity
  8
0
100
AcDbLine
 10
-20.146074060557897
 20
-128.57471013820648
 30
0.0
 11
-20.144073917821075
 21
-128.57478272813847
 31
0.0
  0
LINE
  5
17A
330
17
100
AcDbEntity
  8
0
100
AcDbLine
 10
-20.144073917821075
 20
-128.57478272813847
 30
0.0
 11
-20.142073739013185
 21
-128.5748543172602
 31
0.0
  0
LINE
  5
17B
330
17
100
AcDbEntity
  8
0
100
AcDbLine
 10
-20.142073739013185
 20
-128.5748543172602
 30
0.0
 11
-20.140073524634996
 21
-128.57492490555376
 31
0.0
  0
LINE
  5
17C
330
17
100
AcDbEntity
  8
0
100
AcDbLine
 10
-20.140073524634996
 20
-128.57492490555376
 30
0.0
 11
-20.138073275187303
 21
-128.57499449300147
 31
0.0
  0
LINE
  5
17D
330
17
100
AcDbEntity
  8
0
100
AcDbLine
 10
-20.138073275187303
 20
-128.57499449300147
 30
0.0
 11
-20.136072991170888
 21
-128.57506307958593
 31
0.0
  0
LINE
  5
17E
330
17
100
AcDbEntity
  8
0
100
AcDbLine
 10
-20.136072991170888
 20
-128.57506307958593
 30
0.0
 11
-20.134072673086557
 21
-128.57513066528995
 31
0.0
  0
LINE
  5
17F
330
17
100
AcDbEntity
  8
0
100
AcDbLine
 10
-20.134072673086557
 20
-128.57513066528995
 30
0.0
 11
-20.132072321435118
 21
-128.5751972500966
 31
0.0
  0
LINE
  5
180
330
17
100
AcDbEntity
  8
0
100
AcDbLine
 10
-20.132072321435118
 20
-128.5751972500966
 30
0.0
 11
-20.130071936717393
 21
-128.57526283398926
 31
0.0
  0
LINE
  5
181
330
17
100
AcDbEntity
  8
0
100
AcDbLine
 10
-20.130071936717393
 20
-128.57526283398926
 30
0.0
 11
-20.128071519434204
 21
-128.57532741695147
 31
0.0
  0
LINE
  5
182
330
17
100
AcDbEntity
  8
0
100
AcDbLine
 10
-20.128071519434204
 20
-128.57532741695147
 30
0.0
 11
-20.126071070086386
 21
-128.57539099896704
 31
0.0
  0
LINE
  5
183
330
17
100
AcDbEntity
  8
0
100
AcDbLine
 10
-20.126071070086386
 20
-128.57539099896704
 30
0.0
 11
-20.12407058917478
 21
-128.5754535800201
 31
0.0
  0
LINE
  5
184
330
17
100
AcDbEntity
  8
0
100
AcDbLine
 10
-20.12407058917478
 20
-128.5754535800201
 30
0.0
 11
-20.122070077200245
 21
-128.57551516009494
 31
0.0
  0
LINE
  5
185
330
17
100
AcDbEntity
  8
0
100
AcDbLine
 10
-20.122070077200245
 20
-128.57551516009494
 30
0.0
 11
-20.120069534663628
 21
-128.57557573917617
 31
0.0
  0
LINE
  5
186
330
17
100
AcDbEntity
  8
0
100
AcDbLine
 10
-20.120069534663628
 20
-128.57557573917617
 30
0.0
 11
-20.118068962065802
 21
-128.57563531724864
 31
0.0
  0
LINE
  5
187
330
17
100
AcDbEntity
  8
0
100
AcDbLine
 10
-20.118068962065802
 20
-128.57563531724864
 30
0.0
 11
-20.116068359907636
 21
-128.5756938942974
 31
0.0
  0
LINE
  5
188
330
17
100
AcDbEntity
  8
0
100
AcDbLine
 10
-20.116068359907636
 20
-128.5756938942974
 30
0.0
 11
-20.114067728690017
 21
-128.57575147030775
 31
0.0
  0
LINE
  5
189
330
17
100
AcDbEntity
  8
0
100
AcDbLine
 10
-20.114067728690017
 20
-128.57575147030775
 30
0.0
 11
-20.11206706891383
 21
-128.57580804526535
 31
0.0
  0
LINE
  5
18A
330
17
100
AcDbEntity
  8
0
100
AcDbLine
 10
-20.11206706891383
 20
-128.57580804526535
 30
0.0
 11
-20.110066381079964
 21
-128.575863619156
 31
0.0
  0
LINE
  5
18B
330
17
100
AcDbEntity
  8
0
100
AcDbLine
 10
-20.110066381079964
 20
-128.575863619156
 30
0.0
 11
-20.10806566568933
 21
-128.5759181919658
 31
0.0
  0
LINE
  5
18C
330
17
100
AcDbEntity
  8
0
100
AcDbLine
 10
-20.10806566568933
 20
-128.5759181919658
 30
0.0
 11
-20.106064923242837
 21
-128.57597176368105
 31
0.0
  0
LINE
  5
18D
330
17
100
AcDbEntity
  8
0
100
AcDbLine
 10
-20.106064923242837
 20
-128.57597176368105
 30
0.0
 11
-20.104064154241392
 21
-128.5760243342884
 31
0.0
  0
LINE
  5
18E
330
17
100
AcDbEntity
  8
0
100
AcDbLine
 10
-20.104064154241392
 20
-128.5760243342884
 30
0.0
 11
-20.102063359185923
 21
-128.57607590377464
 31
0.0
  0
LINE
  5
18F
330
17
100
AcDbEntity
  8
0
100
AcDbLine
 10
-20.102063359185923
 20
-128.57607590377464
 30
0.0
 11
-20.100062538577365
 21
-128.57612647212684
 31
0.0
  0
LINE
  5
190
330
17
100
AcDbEntity
  8
0
100
AcDbLine
 10
-20.100062538577365
 20
-128.57612647212684
 30
0.0
 11
-20.098061692916644
 21
-128.5761760393324
 31
0.0
  0
LINE
  5
191
330
17
100
AcDbEntity
  8
0
100
AcDbLine
 10
-20.098061692916644
 20
-128.5761760393324
 30
0.0
 11
-20.096060822704708
 21
-128.57622460537888
 31
0.0
  0
LINE
  5
192
330
17
100
AcDbEntity
  8
0
100
AcDbLine
 10
-20.096060822704708
 20
-128.57622460537888
 30
0.0
 11
-20.094059928442498
 21
-128.57627217025413
 31
0.0
  0
LINE
  5
193
330
17
100
AcDbEntity
  8
0
100
AcDbLine
 10
-20.094059928442498
 20
-128.57627217025413
 30
0.0
 11
-20.092059010630976
 21
-128.5763187339462
 31
0.0
  0
LINE
  5
194
330
17
100
AcDbEntity
  8
0
100
AcDbLine
 10
-20.092059010630976
 20
-128.5763187339462
 30
0.0
 11
-20.0900580697711
 21
-128.5763642964435
 31
0.0
  0
LINE
  5
195
330
17
100
AcDbEntity
  8
0
100
AcDbLine
 10
-20.0900580697711
 20
-128.5763642964435
 30
0.0
 11
-20.08805710636383
 21
-128.57640885773455
 31
0.0
  0
LINE
  5
196
330
17
100
AcDbEntity
  8
0
100
AcDbLine
 10
-20.08805710636383
 20
-128.57640885773455
 30
0.0
 11
-20.086056120910143
 21
-128.57645241780827
 31
0.0
  0
LINE
  5
197
330
17
100
AcDbEntity
  8
0
100
AcDbLine
 10
-20.086056120910143
 20
-128.57645241780827
 30
0.0
 11
-20.084055113911013
 21
-128.5764949766537
 31
0.0
  0
LINE
  5
198
330
17
100
AcDbEntity
  8
0
100
AcDbLine
 10
-20.084055113911013
 20
-128.5764949766537
 30
0.0
 11
-20.082054085867426
 21
-128.57653653426019
 31
0.0
  0
LINE
  5
199
330
17
100
AcDbEntity
  8
0
100
AcDbLine
 10
-20.082054085867426
 20
-128.57653653426019
 30
0.0
 11
-20.080053037280365
 21
-128.57657709061735
 31
0.0
  0
LINE
  5
19A
330
17
100
AcDbEntity
  8
0
100
AcDbLine
 10
-20.080053037280365
 20
-128.57657709061735
 30
0.0
 11
-20.07805196865082
 21
-128.576616645715
 31
0.0
  0
LINE
  5
19B
330
17
100
AcDbEntity
  8
0
100
AcDbLine
 10
-20.07805196865082
 20
-128.576616645715
 30
0.0
 11
-20.076050880479794
 21
-128.5766551995433
 31
0.0
  0
LINE
  5
19C
330
17
100
AcDbEntity
  8
0
100
AcDbLine
 10
-20.076050880479794
 20
-128.5766551995433
 30
0.0
 11
-20.074049773268293
 21
-128.57669275209253
 31
0.0
  0
LINE
  5
19D
330
17
100
AcDbEntity
  8
0
100
AcDbLine
 10
-20.074049773268293
 20
-128.57669275209253
 30
0.0
 11
-20.072048647517313
 21
-128.57672930335332
 31
0.0
  0
LINE
  5
19E
330
17
100
AcDbEntity
  8
0
100
AcDbLine
 10
-20.072048647517313
 20
-128.57672930335332
 30
0.0
 11
-20.070047503727874
 21
-128.57676485331652
 31
0.0
  0
LINE
  5
19F
330
17
100
AcDbEntity
  8
0
100
AcDbLine
 10
-20.070047503727874
 20
-128.57676485331652
 30
0.0
 11
-20.068046342400994
 21
-128.5767994019732
 31
0.0
  0
LINE
  5
1A0
330
17
100
AcDbEntity
  8
0
100
AcDbLine
 10
-20.068046342400994
 20
-128.5767994019732
 30
0.0
 11
-20.06604516403769
 21
-128.57683294931476
 31
0.0
  0
LINE
  5
1A1
330
17
100
AcDbEntity
  8
0
100
AcDbLine
 10
-20.06604516403769
 20
-128.57683294931476
 30
0.0
 11
-20.064043969138982
 21
-128.57686549533275
 31
0.0
  0
LINE
  5
1A2
330
17
100
AcDbEntity
  8
0
100
AcDbLine
 10
-20.064043969138982
 20
-128.57686549533275
 30
0.0
 11
-20.06204275820591
 21
-128.57689704001908
 31
0.0
  0
LINE
  5
1A3
330
17
100
AcDbEntity
  8
0
100
AcDbLine
 10
-20.06204275820591
 20
-128.57689704001908
 30
0.0
 11
-20.060041531739497
 21
-128.57692758336577
 31
0.0
  0
LINE
  5
1A4
330
17
100
AcDbEntity
  8
0
100
AcDbLine
 10
-20.060041531739497
 20
-128.57692758336577
 30
0.0
 11
-20.05804029024079
 21
-128.57695712536525
 31
0.0
  0
LINE
  5
1A5
330
17
100
AcDbEntity
  8
0
100
AcDbLine
 10
-20.05804029024079
 20
-128.57695712536525
 30
0.0
 11
-20.05603903421082
 21
-128.5769856660101
 31
0.0
  0
LINE
  5
1A6
330
17
100
AcDbEntity
  8
0
100
AcDbLine
 10
-20.05603903421082
 20
-128.5769856660101
 30
0.0
 11
-20.05403776415064
 21
-128.57701320529316
 31
0.0
  0
LINE
  5
1A7
330
17
100
AcDbEntity
  8
0
100
AcDbLine
 10
-20.05403776415064
 20
-128.57701320529316
 30
0.0
 11
-20.05203648056129
 21
-128.57703974320754
 31
0.0
  0
LINE
  5
1A8
330
17
100
AcDbEntity
  8
0
100
AcDbLine
 10
-20.05203648056129
 20
-128.57703974320754
 30
0.0
 11
-20.050035183943834
 21
-128.5770652797466
 31
0.0
  0
LINE
  5
1A9
330
17
100
AcDbEntity
  8
0
100
AcDbLine
 10
-20.050035183943834
 20
-128.5770652797466
 30
0.0
 11
-20.04803387479931
 21
-128.57708981490393
 31
0.0
  0
LINE
  5
1AA
330
17
100
AcDbEntity
  8
0
100
AcDbLine
 10
-20.04803387479931
 20
-128.57708981490393
 30
0.0
 11
-20.046032553628788
 21
-128.5771133486734
 31
0.0
  0
LINE
  5
1AB
330
17
100
AcDbEntity
  8
0
100
AcDbLine
 10
-20.046032553628788
 20
-128.5771133486734
 30
0.0
 11
-20.044031220933324
 21
-128.57713588104914
 31
0.0
  0
LINE
  5
1AC
330
17
100
AcDbEntity
  8
0
100
AcDbLine
 10
-20.044031220933324
 20
-128.57713588104914
 30
0.0
 11
-20.042029877213984
 21
-128.57715741202549
 31
0.0
  0
LINE
  5
1AD
330
17
100
AcDbEntity
  8
0
100
AcDbLine
 10
-20.042029877213984
 20
-128.57715741202549
 30
0.0
 11
-20.040028522971827
 21
-128.57717794159706
 31
0.0
  0
LINE
  5
1AE
330
17
100
AcDbEntity
  8
0
100
AcDbLine
 10
-20.040028522971827
 20
-128.57717794159706
 30
0.0
 11
-20.038027158707937
 21
-128.57719746975872
 31
0.0
  0
LINE
  5
1AF
330
17
100
AcDbEntity
  8
0
100
AcDbLine
 10
-20.038027158707937
 20
-128.57719746975872
 30
0.0
 11
-20.03602578492337
 21
-128.57721599650554
 31
0.0
  0
LINE
  5
1B0
330
17
100
AcDbEntity
  8
0
100
AcDbLine
 10
-20.03602578492337
 20
-128.57721599650554
 30
0.0
 11
-20.034024402119208
 21
-128.57723352183294
 31
0.0
  0
LINE
  5
1B1
330
17
100
AcDbEntity
  8
0
100
AcDbLine
 10
-20.034024402119208
 20
-128.57723352183294
 30
0.0
 11
-20.03202301079653
 21
-128.5772500457365
 31
0.0
  0
LINE
  5
1B2
330
17
100
AcDbEntity
  8
0
100
AcDbLine
 10
-20.03202301079653
 20
-128.5772500457365
 30
0.0
 11
-20.03002161145641
 21
-128.57726556821206
 31
0.0
  0
LINE
  5
1B3
330
17
100
AcDbEntity
  8
0
100
AcDbLine
 10
-20.03002161145641
 20
-128.57726556821206
 30
0.0
 11
-20.028020204599926
 21
-128.57728008925577
 31
0.0
  0
LINE
  5
1B4
330
17
100
AcDbEntity
  8
0
100
AcDbLine
 10
-20.028020204599926
 20
-128.57728008925577
 30
0.0
 11
-20.026018790728163
 21
-128.577293608864
 31
0.0
  0
LINE
  5
1B5
330
17
100
AcDbEntity
  8
0
100
AcDbLine
 10
-20.026018790728163
 20
-128.577293608864
 30
0.0
 11
-20.024017370342204
 21
-128.57730612703335
 31
0.0
  0
LINE
  5
1B6
330
17
100
AcDbEntity
  8
0
100
AcDbLine
 10
-20.024017370342204
 20
-128.57730612703335
 30
0.0
 11
-20.02201594394314
 21
-128.57731764376067
 31
0.0
  0
LINE
  5
1B7
330
17
100
AcDbEntity
  8
0
100
AcDbLine
 10
-20.02201594394314
 20
-128.57731764376067
 30
0.0
 11
-20.020014512032052
 21
-128.5773281590431
 31
0.0
  0
LINE
  5
1B8
330
17
100
AcDbEntity
  8
0
100
AcDbLine
 10
-20.020014512032052
 20
-128.5773281590431
 30
0.0
 11
-20.018013075110026
 21
-128.577337672878
 31
0.0
  0
LINE
  5
1B9
330
17
100
AcDbEntity
  8
0
100
AcDbLine
 10
-20.018013075110026
 20
-128.577337672878
 30
0.0
 11
-20.01601163367816
 21
-128.577346185263
 31
0.0
  0
LINE
  5
1BA
330
17
100
AcDbEntity
  8
0
100
AcDbLine
 10
-20.01601163367816
 20
-128.577346185263
 30
0.0
 11
-20.014010188237542
 21
-128.57735369619596
 31
0.0
  0
LINE
  5
1BB
330
17
100
AcDbEntity
  8
0
100
AcDbLine
 10
-20.014010188237542
 20
-128.57735369619596
 30
0.0
 11
-20.012008739289264
 21
-128.57736020567498
 31
0.0
  0
LINE
  5
1BC
330
17
100
AcDbEntity
  8
0
100
AcDbLine
 10
-20.012008739289264
 20
-128.57736020567498
 30
0.0
 11
-20.01000728733441
 21
-128.57736571369844
 31
0.0
  0
LINE
  5
1BD
330
17
100
AcDbEntity
  8
0
100
AcDbLine
 10
-20.01000728733441
 20
-128.57736571369844
 30
0.0
 11
-20.00800583287409
 21
-128.57737022026498
 31
0.0
  0
LINE
  5
1BE
330
17
100
AcDbEntity
  8
0
100
AcDbLine
 10
-20.00800583287409
 20
-128.57737022026498
 30
0.0
 11
-20.006004376409386
 21
-128.57737372537346
 31
0.0
  0
LINE
  5
1BF
330
17
100
AcDbEntity
  8
0
100
AcDbLine
 10
-20.006004376409386
 20
-128.57737372537346
 30
0.0
 11
-20.004002918441397
 21
-128.577376229023
 31
0.0
  0
LINE
  5
1C0
330
17
100
AcDbEntity
  8
0
100
AcDbLine
 10
-20.004002918441397
 20
-128.577376229023
 30
0.0
 11
-20.002001459471217
 21
-128.57737773121298
 31
0.0
  0
LINE
  5
1C1
330
17
100
AcDbEntity
  8
0
100
AcDbLine
 10
-20.002001459471217
 20
-128.57737773121298
 30
0.0
 11
-19.99999999999994
 21
-128.577378231943
 31
0.0
  0
LINE
  5
1C2
330
17
100
AcDbEntity
  8
0
100
AcDbLine
 10
-20.198063470461253
 20
-128.57247158024725
 30
0.0
 11
-22.186496411227587
 21
-128.46828628344147
 31
0.0
  0
LINE
  5
1C3
330
17
100
AcDbEntity
  8
0
100
AcDbLine
 10
-22.186496411227587
 20
-128.46828628344147
 30
0.0
 11
-24.17438015347613
 21
-128.35293221116007
 31
0.0
  0
LINE
  5
1C4
330
17
100
AcDbEntity
  8
0
100
AcDbLine
 10
-24.17438015347613
 20
-128.35293221116007
 30
0.0
 11
-26.161611822325447
 21
-128.22643662992192
 31
0.0
  0
LINE
  5
1C5
330
17
100
AcDbEntity
  8
0
100
AcDbLine
 10
-26.161611822325447
 20
-128.22643662992192
 30
0.0
 11
-28.14808854289411
 21
-128.08882680624598
 31
0.0
  0
LINE
  5
1C6
330
17
100
AcDbEntity
  8
0
100
AcDbLine
 10
-28.14808854289411
 20
-128.08882680624598
 30
0.0
 11
-30.13370744030069
 21
-127.94013000665123
 31
0.0
  0
LINE
  5
1C7
330
17
100
AcDbEntity
  8
0
100
AcDbLine
 10
-30.13370744030069
 20
-127.94013000665123
 30
0.0
 11
-32.11836563966376
 21
-127.7803734976566
 31
0.0
  0
LINE
  5
1C8
330
17
100
AcDbEntity
  8
0
100
AcDbLine
 10
-32.11836563966376
 20
-127.7803734976566
 30
0.0
 11
-34.10196026610188
 21
-127.60958454578103
 31
0.0
  0
LINE
  5
1C9
330
17
100
AcDbEntity
  8
0
100
AcDbLine
 10
-34.10196026610188
 20
-127.60958454578103
 30
0.0
 11
-36.08438844473362
 21
-127.42779041754346
 31
0.0
  0
LINE
  5
1CA
330
17
100
AcDbEntity
  8
0
100
AcDbLine
 10
-36.08438844473362
 20
-127.42779041754346
 30
0.0
 11
-38.06554039958226
 21
-127.2350180360975
 31
0.0
  0
LINE
  5
1CB
330
17
100
AcDbEntity
  8
0
100
AcDbLine
 10
-38.06554039958226
 20
-127.2350180360975
 30
0.0
 11
-40.0443202505467
 21
-127.0312109580361
 31
0.0
  0
LINE
  5
1CC
330
17
100
AcDbEntity
  8
0
100
AcDbLine
 10
-40.0443202505467
 20
-127.0312109580361
 30
0.0
 11
-42.020315326257915
 21
-126.81623058867025
 31
0.0
  0
LINE
  5
1CD
330
17
100
AcDbEntity
  8
0
100
AcDbLine
 10
-42.020315326257915
 20
-126.81623058867025
 30
0.0
 11
-43.993993263548724
 21
-126.58995773282663
 31
0.0
  0
LINE
  5
1CE
330
17
100
AcDbEntity
  8
0
100
AcDbLine
 10
-43.993993263548724
 20
-126.58995773282663
 30
0.0
 11
-45.96582169925191
 21
-126.35227319533195
 31
0.0
  0
LINE
  5
1CF
330
17
100
AcDbEntity
  8
0
100
AcDbLine
 10
-45.96582169925191
 20
-126.35227319533195
 30
0.0
 11
-47.936268270200266
 21
-126.10305778101288
 31
0.0
  0
LINE
  5
1D0
330
17
100
AcDbEntity
  8
0
100
AcDbLine
 10
-47.936268270200266
 20
-126.10305778101288
 30
0.0
 11
-49.90580061322659
 21
-125.84219229469613
 31
0.0
  0
LINE
  5
1D1
330
17
100
AcDbEntity
  8
0
100
AcDbLine
 10
-49.90580061322659
 20
-125.84219229469613
 30
0.0
 11
-51.874886365163675
 21
-125.56955754120838
 31
0.0
  0
LINE
  5
1D2
330
17
100
AcDbEntity
  8
0
100
AcDbLine
 10
-51.874886365163675
 20
-125.56955754120838
 30
0.0
 11
-53.843993745252675
 21
-125.28503444695157
 31
0.0
  0
LINE
  5
1D3
330
17
100
AcDbEntity
  8
0
100
AcDbLine
 10
-53.843993745252675
 20
-125.28503444695157
 30
0.0
 11
-55.814387988060226
 21
-124.98879463308157
 31
0.0
  0
LINE
  5
1D4
330
17
100
AcDbEntity
  8
0
100
AcDbLine
 10
-55.814387988060226
 20
-124.98879463308157
 30
0.0
 11
-57.786914065587254
 21
-124.68139395824916
 31
0.0
  0
LINE
  5
1D5
330
17
100
AcDbEntity
  8
0
100
AcDbLine
 10
-57.786914065587254
 20
-124.68139395824916
 30
0.0
 11
-59.761539318192455
 21
-124.36331698563163
 31
0.0
  0
LINE
  5
1D6
330
17
100
AcDbEntity
  8
0
100
AcDbLine
 10
-59.761539318192455
 20
-124.36331698563163
 30
0.0
 11
-61.738231086234514
 21
-124.03504827840632
 31
0.0
  0
LINE
  5
1D7
330
17
100
AcDbEntity
  8
0
100
AcDbLine
 10
-61.738231086234514
 20
-124.03504827840632
 30
0.0
 11
-63.718094060101485
 21
-123.69746364373177
 31
0.0
  0
LINE
  5
1D8
330
17
100
AcDbEntity
  8
0
100
AcDbLine
 10
-63.718094060101485
 20
-123.69746364373177
 30
0.0
 11
-65.69561206974349
 21
-123.35137279485825
 31
0.0
  0
LINE
  5
1D9
330
17
100
AcDbEntity
  8
0
100
AcDbLine
 10
-65.69561206974349
 20
-123.35137279485825
 30
0.0
 11
-67.66077017239823
 21
-122.99715368949936
 31
0.0
  0
LINE
  5
1DA
330
17
100
AcDbEntity
  8
0
100
AcDbLine
 10
-67.66077017239823
 20
-122.99715368949936
 30
0.0
 11
-69.60355339948389
 21
-122.63518428158591
 31
0.0
  0
LINE
  5
1DB
330
17
100
AcDbEntity
  8
0
100
AcDbLine
 10
-69.60355339948389
 20
-122.63518428158591
 30
0.0
 11
-71.52296625402813
 21
-122.26332972099215
 31
0.0
  0
LINE
  5
1DC
330
17
100
AcDbEntity
  8
0
100
AcDbLine
 10
-71.52296625402813
 20
-122.26332972099215
 30
0.0
 11
-73.41903472262332
 21
-121.87842349272616
 31
0.0
  0
LINE
  5
1DD
330
17
100
AcDbEntity
  8
0
100
AcDbLine
 10
-73.41903472262332
 20
-121.87842349272616
 30
0.0
 11
-75.28145156576254
 21
-121.47976739284188
 31
0.0
  0
LINE
  5
1DE
330
17
100
AcDbEntity
  8
0
100
AcDbLine
 10
-75.28145156576254
 20
-121.47976739284188
 30
0.0
 11
-77.09989940381479
 21
-121.06666584033927
 31
0.0
  0
LINE
  5
1DF
330
17
100
AcDbEntity
  8
0
100
AcDbLine
 10
-77.09989940381479
 20
-121.06666584033927
 30
0.0
 11
-78.85902028453425
 21
-120.63804039986896
 31
0.0
  0
LINE
  5
1E0
330
17
100
AcDbEntity
  8
0
100
AcDbLine
 10
-78.85902028453425
 20
-120.63804039986896
 30
0.0
 11
-80.54670262028515
 21
-120.19099641297571
 31
0.0
  0
LINE
  5
1E1
330
17
100
AcDbEntity
  8
0
100
AcDbLine
 10
-80.54670262028515
 20
-120.19099641297571
 30
0.0
 11
-82.15993870732414
 21
-119.7221013080994
 31
0.0
  0
LINE
  5
1E2
330
17
100
AcDbEntity
  8
0
100
AcDbLine
 10
-82.15993870732414
 20
-119.7221013080994
 30
0.0
 11
-83.69574728130874
 21
-119.22792243251423
 31
0.0
  0
LINE
  5
1E3
330
17
100
AcDbEntity
  8
0
100
AcDbLine
 10
-83.69574728130874
 20
-119.22792243251423
 30
0.0
 11
-85.1597788029305
 21
-118.70210903330177
 31
0.0
  0
LINE
  5
1E4
330
17
100
AcDbEntity
  8
0
100
AcDbLine
 10
-85.1597788029305
 20
-118.70210903330177
 30
0.0
 11
-86.57630015370286
 21
-118.13419802422241
 31
0.0
  0
LINE
  5
1E5
330
17
100
AcDbEntity
  8
0
100
AcDbLine
 10
-86.57630015370286
 20
-118.13419802422241
 30
0.0
 11
-87.96719872374102
 21
-117.51593584908117
 31
0.0
  0
LINE
  5
1E6
330
17
100
AcDbEntity
  8
0
100
AcDbLine
 10
-87.96719872374102
 20
-117.51593584908117
 30
0.0
 11
-89.35430962515522
 21
-116.83909158351501
 31
0.0
  0
LINE
  5
1E7
330
17
100
AcDbEntity
  8
0
100
AcDbLine
 10
-89.35430962515522
 20
-116.83909158351501
 30
0.0
 11
-90.74862244902803
 21
-116.09942710280193
 31
0.0
  0
LINE
  5
1E8
330
17
100
AcDbEntity
  8
0
100
AcDbLine
 10
-90.74862244902803
 20
-116.09942710280193
 30
0.0
 11
-92.13728092184526
 21
-115.3034003625817
 31
0.0
  0
LINE
  5
1E9
330
17
100
AcDbEntity
  8
0
100
AcDbLine
 10
-92.13728092184526
 20
-115.3034003625817
 30
0.0
 11
-93.51191787247868
 21
-114.4571474045554
 31
0.0
  0
LINE
  5
1EA
330
17
100
AcDbEntity
  8
0
100
AcDbLine
 10
-93.51191787247868
 20
-114.4571474045554
 30
0.0
 11
-94.8642965322324
 21
-113.56676412128024
 31
0.0
  0
LINE
  5
1EB
330
17
100
AcDbEntity
  8
0
100
AcDbLine
 10
-94.8642965322324
 20
-113.56676412128024
 30
0.0
 11
-96.18113040670795
 21
-112.64123013521348
 31
0.0
  0
LINE
  5
1EC
330
17
100
AcDbEntity
  8
0
100
AcDbLine
 10
-96.18113040670795
 20
-112.64123013521348
 30
0.0
 11
-97.44890174546786
 21
-111.68859425144028
 31
0.0
  0
LINE
  5
1ED
330
17
100
AcDbEntity
  8
0
100
AcDbLine
 10
-97.44890174546786
 20
-111.68859425144028
 30
0.0
 11
-98.66529413409897
 21
-110.7097157214418
 31
0.0
  0
LINE
  5
1EE
330
17
100
AcDbEntity
  8
0
100
AcDbLine
 10
-98.66529413409897
 20
-110.7097157214418
 30
0.0
 11
-99.82817038137222
 21
-109.70534449380143
 31
0.0
  0
LINE
  5
1EF
330
17
100
AcDbEntity
  8
0
100
AcDbLine
 10
-99.82817038137222
 20
-109.70534449380143
 30
0.0
 11
-100.95448522219174
 21
-108.65810214763928
 31
0.0
  0
LINE
  5
1F0
330
17
100
AcDbEntity
  8
0
100
AcDbLine
 10
-100.95448522219174
 20
-108.65810214763928
 30
0.0
 11
-102.08581951186706
 21
-107.53139349404556
 31
0.0
  0
LINE
  5
1F1
330
17
100
AcDbEntity
  8
0
100
AcDbLine
 10
-102.08581951186706
 20
-107.53139349404556
 30
0.0
 11
-103.23366476891286
 21
-106.32052613180055
 31
0.0
  0
LINE
  5
1F2
330
17
100
AcDbEntity
  8
0
100
AcDbLine
 10
-103.23366476891286
 20
-106.32052613180055
 30
0.0
 11
-104.4086732649404
 21
-105.0216448086205
 31
0.0
  0
LINE
  5
1F3
330
17
100
AcDbEntity
  8
0
100
AcDbLine
 10
-104.4086732649404
 20
-105.0216448086205
 30
0.0
 11
-105.60946913318435
 21
-103.64597395184298
 31
0.0
  0
LINE
  5
1F4
330
17
100
AcDbEntity
  8
0
100
AcDbLine
 10
-105.60946913318435
 20
-103.64597395184298
 30
0.0
 11
-106.81512517912512
 21
-102.22598233083717
 31
0.0
  0
LINE
  5
1F5
330
17
100
AcDbEntity
  8
0
100
AcDbLine
 10
-106.81512517912512
 20
-102.22598233083717
 30
0.0
 11
-108.0242202639877
 21
-100.76688862908495
 31
0.0
  0
LINE
  5
1F6
330
17
100
AcDbEntity
  8
0
100
AcDbLine
 10
-108.0242202639877
 20
-100.76688862908495
 30
0.0
 11
-109.2360842656817
 21
-99.27292580827358
 31
0.0
  0
LINE
  5
1F7
330
17
100
AcDbEntity
  8
0
100
AcDbLine
 10
-109.2360842656817
 20
-99.27292580827358
 30
0.0
 11
-110.45004706211678
 21
-97.7483268300903
 31
0.0
  0
LINE
  5
1F8
330
17
100
AcDbEntity
  8
0
100
AcDbLine
 10
-110.45004706211678
 20
-97.7483268300903
 30
0.0
 11
-111.6654385312026
 21
-96.19732465622239
 31
0.0
  0
LINE
  5
1F9
330
17
100
AcDbEntity
  8
0
100
AcDbLine
 10
-111.6654385312026
 20
-96.19732465622239
 30
0.0
 11
-112.88158855084878
 21
-94.62415224835708
 31
0.0
  0
LINE
  5
1FA
330
17
100
AcDbEntity
  8
0
100
AcDbLine
 10
-112.88158855084878
 20
-94.62415224835708
 30
0.0
 11
-114.09782699896498
 21
-93.0330425681816
 31
0.0
  0
LINE
  5
1FB
330
17
100
AcDbEntity
  8
0
100
AcDbLine
 10
-114.09782699896498
 20
-93.0330425681816
 30
0.0
 11
-115.31634460115389
 21
-91.42529325219309
 31
0.0
  0
LINE
  5
1FC
330
17
100
AcDbEntity
  8
0
100
AcDbLine
 10
-115.31634460115389
 20
-91.42529325219309
 30
0.0
 11
-116.54184544825257
 21
-89.79942925211068
 31
0.0
  0
LINE
  5
1FD
330
17
100
AcDbEntity
  8
0
100
AcDbLine
 10
-116.54184544825257
 20
-89.79942925211068
 30
0.0
 11
-117.7700234843013
 21
-88.16303137644775
 31
0.0
  0
LINE
  5
1FE
330
17
100
AcDbEntity
  8
0
100
AcDbLine
 10
-117.7700234843013
 20
-88.16303137644775
 30
0.0
 11
-118.99614485505776
 21
-86.524114767369
 31
0.0
  0
LINE
  5
1FF
330
17
100
AcDbEntity
  8
0
100
AcDbLine
 10
-118.99614485505776
 20
-86.524114767369
 30
0.0
 11
-120.21616977568034
 21
-84.88887655576023
 31
0.0
  0
LINE
  5
200
330
17
100
AcDbEntity
  8
0
100
AcDbLine
 10
-120.21616977568034
 20
-84.88887655576023
 30
0.0
 11
-121.42934729024707
 21
-83.25604132713929
 31
0.0
  0
LINE
  5
201
330
17
100
AcDbEntity
  8
0
100
AcDbLine
 10
-121.42934729024707
 20
-83.25604132713929
 30
0.0
 11
-122.63513371829983
 21
-81.62497492724577
 31
0.0
  0
LINE
  5
202
330
17
100
AcDbEntity
  8
0
100
AcDbLine
 10
-122.63513371829983
 20
-81.62497492724577
 30
0.0
 11
-123.83292271277061
 21
-79.99524189397799
 31
0.0
  0
LINE
  5
203
330
17
100
AcDbEntity
  8
0
100
AcDbLine
 10
-123.83292271277061
 20
-79.99524189397799
 30
0.0
 11
-125.02195237205164
 21
-78.3662734547103
 31
0.0
  0
LINE
  5
204
330
17
100
AcDbEntity
  8
0
100
AcDbLine
 10
-125.02195237205164
 20
-78.3662734547103
 30
0.0
 11
-126.20168469687225
 21
-76.7369532631604
 31
0.0
  0
LINE
  5
205
330
17
100
AcDbEntity
  8
0
100
AcDbLine
 10
-126.20168469687225
 20
-76.7369532631604
 30
0.0
 11
-127.37265572941688
 21
-75.10627027217487
 31
0.0
  0
LINE
  5
206
330
17
100
AcDbEntity
  8
0
100
AcDbLine
 10
-127.37265572941688
 20
-75.10627027217487
 30
0.0
 11
-128.53545898971623
 21
-73.47323472343183
 31
0.0
  0
LINE
  5
207
330
17
100
AcDbEntity
  8
0
100
AcDbLine
 10
-128.53545898971623
 20
-73.47323472343183
 30
0.0
 11
-129.69068799780098
 21
-71.83685685860954
 31
0.0
  0
LINE
  5
208
330
17
100
AcDbEntity
  8
0
100
AcDbLine
 10
-129.69068799780098
 20
-71.83685685860954
 30
0.0
 11
-130.83893627370173
 21
-70.19614691938618
 31
0.0
  0
LINE
  5
209
330
17
100
AcDbEntity
  8
0
100
AcDbLine
 10
-130.83893627370173
 20
-70.19614691938618
 30
0.0
 11
-131.9807973374492
 21
-68.55011514743993
 31
0.0
  0
LINE
  5
20A
330
17
100
AcDbEntity
  8
0
100
AcDbLine
 10
-131.9807973374492
 20
-68.55011514743993
 30
0.0
 11
-133.116864709074
 21
-66.89777178444902
 31
0.0
  0
LINE
  5
20B
330
17
100
AcDbEntity
  8
0
100
AcDbLine
 10
-133.116864709074
 20
-66.89777178444902
 30
0.0
 11
-134.24752962957848
 21
-65.23857628464508
 31
0.0
  0
LINE
  5
20C
330
17
100
AcDbEntity
  8
0
100
AcDbLine
 10
-134.24752962957848
 20
-65.23857628464508
 30
0.0
 11
-135.37245861613755
 21
-63.57372979800844
 31
0.0
  0
LINE
  5
20D
330
17
100
AcDbEntity
  8
0
100
AcDbLine
 10
-135.37245861613755
 20
-63.57372979800844
 30
0.0
 11
-136.49185049307638
 21
-61.90341559526191
 31
0.0
  0
LINE
  5
20E
330
17
100
AcDbEntity
  8
0
100
AcDbLine
 10
-136.49185049307638
 20
-61.90341559526191
 30
0.0
 11
-137.60597491478822
 21
-60.227667133061026
 31
0.0
  0
LINE
  5
20F
330
17
100
AcDbEntity
  8
0
100
AcDbLine
 10
-137.60597491478822
 20
-60.227667133061026
 30
0.0
 11
-138.71510153566635
 21
-58.54651786806138
 31
0.0
  0
LINE
  5
210
330
17
100
AcDbEntity
  8
0
100
AcDbLine
 10
-138.71510153566635
 20
-58.54651786806138
 30
0.0
 11
-139.8195000101041
 21
-56.86000125691847
 31
0.0
  0
LINE
  5
211
330
17
100
AcDbEntity
  8
0
100
AcDbLine
 10
-139.8195000101041
 20
-56.86000125691847
 30
0.0
 11
-140.91943999249472
 21
-55.168150756287915
 31
0.0
  0
LINE
  5
212
330
17
100
AcDbEntity
  8
0
100
AcDbLine
 10
-140.91943999249472
 20
-55.168150756287915
 30
0.0
 11
-142.0151911372315
 21
-53.470999822825206
 31
0.0
  0
LINE
  5
213
330
17
100
AcDbEntity
  8
0
100
AcDbLine
 10
-142.0151911372315
 20
-53.470999822825206
 30
0.0
 11
-143.10581988287026
 21
-51.7708906881001
 31
0.0
  0
LINE
  5
214
330
17
100
AcDbEntity
  8
0
100
AcDbLine
 10
-143.10581988287026
 20
-51.7708906881001
 30
0.0
 11
-144.18577053307646
 21
-50.07776484301201
 31
0.0
  0
LINE
  5
215
330
17
100
AcDbEntity
  8
0
100
AcDbLine
 10
-144.18577053307646
 20
-50.07776484301201
 30
0.0
 11
-145.25446989080032
 21
-48.390233102629786
 31
0.0
  0
LINE
  5
216
330
17
100
AcDbEntity
  8
0
100
AcDbLine
 10
-145.25446989080032
 20
-48.390233102629786
 30
0.0
 11
-146.3121027799308
 21
-46.705348994166606
 31
0.0
  0
LINE
  5
217
330
17
100
AcDbEntity
  8
0
100
AcDbLine
 10
-146.3121027799308
 20
-46.705348994166606
 30
0.0
 11
-147.3588540243569
 21
-45.02016604483556
 31
0.0
  0
LINE
  5
218
330
17
100
AcDbEntity
  8
0
100
AcDbLine
 10
-147.3588540243569
 20
-45.02016604483556
 30
0.0
 11
-148.39490844796757
 21
-43.331737781849824
 31
0.0
  0
LINE
  5
219
330
17
100
AcDbEntity
  8
0
100
AcDbLine
 10
-148.39490844796757
 20
-43.331737781849824
 30
0.0
 11
-149.42045087465178
 21
-41.6371177324225
 31
0.0
  0
LINE
  5
21A
330
17
100
AcDbEntity
  8
0
100
AcDbLine
 10
-149.42045087465178
 20
-41.6371177324225
 30
0.0
 11
-150.43566612829855
 21
-39.93335942376672
 31
0.0
  0
LINE
  5
21B
330
17
100
AcDbEntity
  8
0
100
AcDbLine
 10
-150.43566612829855
 20
-39.93335942376672
 30
0.0
 11
-151.44424396265865
 21
-38.213015397083716
 31
0.0
  0
LINE
  5
21C
330
17
100
AcDbEntity
  8
0
100
AcDbLine
 10
-151.44424396265865
 20
-38.213015397083716
 30
0.0
 11
-152.46993376371483
 21
-36.44843281342505
 31
0.0
  0
LINE
  5
21D
330
17
100
AcDbEntity
  8
0
100
AcDbLine
 10
-152.46993376371483
 20
-36.44843281342505
 30
0.0
 11
-153.52261348251068
 21
-34.63843985281567
 31
0.0
  0
LINE
  5
21E
330
17
100
AcDbEntity
  8
0
100
AcDbLine
 10
-153.52261348251068
 20
-34.63843985281567
 30
0.0
 11
-154.608879674374
 21
-32.786701143324755
 31
0.0
  0
LINE
  5
21F
330
17
100
AcDbEntity
  8
0
100
AcDbLine
 10
-154.608879674374
 20
-32.786701143324755
 30
0.0
 11
-155.73553837503775
 21
-30.89600939395118
 31
0.0
  0
LINE
  5
220
330
17
100
AcDbEntity
  8
0
100
AcDbLine
 10
-155.73553837503775
 20
-30.89600939395118
 30
0.0
 11
-156.91403764365248
 21
-28.963568841966385
 31
0.0
  0
LINE
  5
221
330
17
100
AcDbEntity
  8
0
100
AcDbLine
 10
-156.91403764365248
 20
-28.963568841966385
 30
0.0
 11
-158.16031760630767
 21
-26.990539514877884
 31
0.0
  0
LINE
  5
222
330
17
100
AcDbEntity
  8
0
100
AcDbLine
 10
-158.16031760630767
 20
-26.990539514877884
 30
0.0
 11
-159.49049739271902
 21
-24.97913013720503
 31
0.0
  0
LINE
  5
223
330
17
100
AcDbEntity
  8
0
100
AcDbLine
 10
-159.49049739271902
 20
-24.97913013720503
 30
0.0
 11
-160.92137863725057
 21
-22.931441812099543
 31
0.0
  0
LINE
  5
224
330
17
100
AcDbEntity
  8
0
100
AcDbLine
 10
-160.92137863725057
 20
-22.931441812099543
 30
0.0
 11
-162.46654320189262
 21
-20.86136707084687
 31
0.0
  0
LINE
  5
225
330
17
100
AcDbEntity
  8
0
100
AcDbLine
 10
-162.46654320189194
 20
20.861367070847486
 30
0.0
 11
-162.74168358700396
 21
20.500849291471173
 31
0.0
  0
LINE
  5
226
330
17
100
AcDbEntity
  8
0
100
AcDbLine
 10
-162.74168358700396
 20
20.500849291471173
 30
0.0
 11
-163.0120035264319
 21
20.136703124233765
 31
0.0
  0
LINE
  5
227
330
17
100
AcDbEntity
  8
0
100
AcDbLine
 10
-163.0120035264319
 20
20.136703124233765
 30
0.0
 11
-163.27745517700728
 21
19.768993018344847
 31
0.0
  0
LINE
  5
228
330
17
100
AcDbEntity
  8
0
100
AcDbLine
 10
-163.27745517700728
 20
19.768993018344847
 30
0.0
 11
-163.5379915571864
 21
19.397784053785532
 31
0.0
  0
LINE
  5
229
330
17
100
AcDbEntity
  8
0
100
AcDbLine
 10
-163.5379915571864
 20
19.397784053785532
 30
0.0
 11
-163.79356655536546
 21
19.023141929790125
 31
0.0
  0
LINE
  5
22A
330
17
100
AcDbEntity
  8
0
100
AcDbLine
 10
-163.79356655536546
 20
19.023141929790125
 30
0.0
 11
-164.04413493804185
 21
18.645132953218184
 31
0.0
  0
LINE
  5
22B
330
17
100
AcDbEntity
  8
0
100
AcDbLine
 10
-164.04413493804185
 20
18.645132953218184
 30
0.0
 11
-164.2896523578197
 21
18.263824026819087
 31
0.0
  0
LINE
  5
22C
330
17
100
AcDbEntity
  8
0
100
AcDbLine
 10
-164.2896523578197
 20
18.263824026819087
 30
0.0
 11
-164.53007536125907
 21
17.879282637391057
 31
0.0
  0
LINE
  5
22D
330
17
100
AcDbEntity
  8
0
100
AcDbLine
 10
-164.53007536125907
 20
17.879282637391057
 30
0.0
 11
-164.76536139656625
 21
17.491576843836924
 31
0.0
  0
LINE
  5
22E
330
17
100
AcDbEntity
  8
0
100
AcDbLine
 10
-164.76536139656625
 20
17.491576843836924
 30
0.0
 11
-164.99546882112534
 21
17.100775265118507
 31
0.0
  0
LINE
  5
22F
330
17
100
AcDbEntity
  8
0
100
AcDbLine
 10
-164.99546882112534
 20
17.100775265118507
 30
0.0
 11
-165.22035690886815
 21
16.70694706811198
 31
0.0
  0
LINE
  5
230
330
17
100
AcDbEntity
  8
0
100
AcDbLine
 10
-165.22035690886815
 20
16.70694706811198
 30
0.0
 11
-165.43998585748227
 21
16.3101619553662
 31
0.0
  0
LINE
  5
231
330
17
100
AcDbEntity
  8
0
100
AcDbLine
 10
-165.43998585748227
 20
16.3101619553662
 30
0.0
 11
-165.65431679545566
 21
15.910490152766231
 31
0.0
  0
LINE
  5
232
330
17
100
AcDbEntity
  8
0
100
AcDbLine
 10
-165.65431679545566
 20
15.910490152766231
 30
0.0
 11
-165.8633117889562
 21
15.508002397104356
 31
0.0
  0
LINE
  5
233
330
17
100
AcDbEntity
  8
0
100
AcDbLine
 10
-165.8633117889562
 20
15.508002397104356
 30
0.0
 11
-166.06693384854574
 21
15.102769923560432
 31
0.0
  0
LINE
  5
234
330
17
100
AcDbEntity
  8
0
100
AcDbLine
 10
-166.06693384854574
 20
15.102769923560432
 30
0.0
 11
-166.26514693572668
 21
14.694864453094253
 31
0.0
  0
LINE
  5
235
330
17
100
AcDbEntity
  8
0
100
AcDbLine
 10
-166.26514693572668
 20
14.694864453094253
 30
0.0
 11
-166.45791596932017
 21
14.284358179751859
 31
0.0
  0
LINE
  5
236
330
17
100
AcDbEntity
  8
0
100
AcDbLine
 10
-166.45791596932017
 20
14.284358179751859
 30
0.0
 11
-166.64520683167518
 21
13.871323757888097
 31
0.0
  0
LINE
  5
237
330
17
100
AcDbEntity
  8
0
100
AcDbLine
 10
-166.64520683167518
 20
13.871323757888097
 30
0.0
 11
-166.82698637470696
 21
13.455834289307736
 31
0.0
  0
LINE
  5
238
330
17
100
AcDbEntity
  8
0
100
AcDbLine
 10
-166.82698637470696
 20
13.455834289307736
 30
0.0
 11
-167.00322242576357
 21
13.037963310327383
 31
0.0
  0
LINE
  5
239
330
17
100
AcDbEntity
  8
0
100
AcDbLine
 10
-167.00322242576357
 20
13.037963310327383
 30
0.0
 11
-167.17388379332024
 21
12.617784778760495
 31
0.0
  0
LINE
  5
23A
330
17
100
AcDbEntity
  8
0
100
AcDbLine
 10
-167.17388379332024
 20
12.617784778760495
 30
0.0
 11
-167.33894027249985
 21
12.195373060827798
 31
0.0
  0
LINE
  5
23B
330
17
100
AcDbEntity
  8
0
100
AcDbLine
 10
-167.33894027249985
 20
12.195373060827798
 30
0.0
 11
-167.49836265041876
 21
11.770802917995411
 31
0.0
  0
LINE
  5
23C
330
17
100
AcDbEntity
  8
0
100
AcDbLine
 10
-167.49836265041876
 20
11.770802917995411
 30
0.0
 11
-167.65212271135704
 21
11.344149493743027
 31
0.0
  0
LINE
  5
23D
330
17
100
AcDbEntity
  8
0
100
AcDbLine
 10
-167.65212271135704
 20
11.344149493743027
 30
0.0
 11
-167.80019324175242
 21
10.91548830026448
 31
0.0
  0
LINE
  5
23E
330
17
100
AcDbEntity
  8
0
100
AcDbLine
 10
-167.80019324175242
 20
10.91548830026448
 30
0.0
 11
-167.94254803501673
 21
10.484895205103054
 31
0.0
  0
LINE
  5
23F
330
17
100
AcDbEntity
  8
0
100
AcDbLine
 10
-167.94254803501673
 20
10.484895205103054
 30
0.0
 11
-168.07916189617407
 21
10.052446417723894
 31
0.0
  0
LINE
  5
240
330
17
100
AcDbEntity
  8
0
100
AcDbLine
 10
-168.07916189617407
 20
10.052446417723894
 30
0.0
 11
-168.21001064632003
 21
9.618218476025913
 31
0.0
  0
LINE
  5
241
330
17
100
AcDbEntity
  8
0
100
AcDbLine
 10
-168.21001064632003
 20
9.618218476025913
 30
0.0
 11
-168.33507112690103
 21
9.182288232795557
 31
0.0
  0
LINE
  5
242
330
17
100
AcDbEntity
  8
0
100
AcDbLine
 10
-168.33507112690103
 20
9.182288232795557
 30
0.0
 11
-168.4543212038131
 21
8.744732842104854
 31
0.0
  0
LINE
  5
243
330
17
100
AcDbEntity
  8
0
100
AcDbLine
 10
-168.4543212038131
 20
8.744732842104854
 30
0.0
 11
-168.5677397713193
 21
8.305629745656125
 31
0.0
  0
LINE
  5
244
330
17
100
AcDbEntity
  8
0
100
AcDbLine
 10
-168.5677397713193
 20
8.305629745656125
 30
0.0
 11
-168.6753067557853
 21
7.865056659075791
 31
0.0
  0
LINE
  5
245
330
17
100
AcDbEntity
  8
0
100
AcDbLine
 10
-168.6753067557853
 20
7.865056659075791
 30
0.0
 11
-168.7770031192319
 21
7.423091558159714
 31
0.0
  0
LINE
  5
246
330
17
100
AcDbEntity
  8
0
100
AcDbLine
 10
-168.7770031192319
 20
7.423091558159714
 30
0.0
 11
-168.8728108627048
 21
6.979812665072467
 31
0.0
  0
LINE
  5
247
330
17
100
AcDbEntity
  8
0
100
AcDbLine
 10
-168.8728108627048
 20
6.979812665072467
 30
0.0
 11
-168.96271302946
 21
6.535298434503019
 31
0.0
  0
LINE
  5
248
330
17
100
AcDbEntity
  8
0
100
AcDbLine
 10
-168.96271302946
 20
6.535298434503019
 30
0.0
 11
-169.04669370796492
 21
6.089627539779228
 31
0.0
  0
LINE
  5
249
330
17
100
AcDbEntity
  8
0
100
AcDbLine
 10
-169.04669370796492
 20
6.089627539779228
 30
0.0
 11
-169.12473803471465
 21
5.642878858943818
 31
0.0
  0
LINE
  5
24A
330
17
100
AcDbEntity
  8
0
100
AcDbLine
 10
-169.12473803471465
 20
5.642878858943818
 30
0.0
 11
-169.19683219686254
 21
5.195131460793648
 31
0.0
  0
LINE
  5
24B
330
17
100
AcDbEntity
  8
0
100
AcDbLine
 10
-169.19683219686254
 20
5.195131460793648
 30
0.0
 11
-169.26296343466484
 21
4.746464590885993
 31
0.0
  0
LINE
  5
24C
330
17
100
AcDbEntity
  8
0
100
AcDbLine
 10
-169.26296343466484
 20
4.746464590885993
 30
0.0
 11
-169.32312004373915
 21
4.296957657512621
 31
0.0
  0
LINE
  5
24D
330
17
100
AcDbEntity
  8
0
100
AcDbLine
 10
-169.32312004373915
 20
4.296957657512621
 30
0.0
 11
-169.3772913771358
 21
3.846690217645987
 31
0.0
  0
LINE
  5
24E
330
17
100
AcDbEntity
  8
0
100
AcDbLine
 10
-169.3772913771358
 20
3.846690217645987
 30
0.0
 11
-169.42546784722236
 21
3.395741962858337
 31
0.0
  0
LINE
  5
24F
330
17
100
AcDbEntity
  8
0
100
AcDbLine
 10
-169.42546784722236
 20
3.395741962858337
 30
0.0
 11
-169.46764092738033
 21
2.944192705217474
 31
0.0
  0
LINE
  5
250
330
17
100
AcDbEntity
  8
0
100
AcDbLine
 10
-169.46764092738033
 20
2.944192705217474
 30
0.0
 11
-169.50380315351447
 21
2.4921223631610108
 31
0.0
  0
LINE
  5
251
330
17
100
AcDbEntity
  8
0
100
AcDbLine
 10
-169.50380315351447
 20
2.4921223631610108
 30
0.0
 11
-169.53394812537374
 21
2.0396109473518313
 31
0.0
  0
LINE
  5
252
330
17
100
AcDbEntity
  8
0
100
AcDbLine
 10
-169.53394812537374
 20
2.0396109473518313
 30
0.0
 11
-169.55807050768408
 21
1.586738546517225
 31
0.0
  0
LINE
  5
253
330
17
100
AcDbEntity
  8
0
100
AcDbLine
 10
-169.55807050768408
 20
1.586738546517225
 30
0.0
 11
-169.57616603109258
 21
1.1335853132742115
 31
0.0
  0
LINE
  5
254
330
17
100
AcDbEntity
  8
0
100
AcDbLine
 10
-169.57616603109258
 20
1.1335853132742115
 30
0.0
 11
-169.5882314929233
 21
0.68023144994355
 31
0.0
  0
LINE
  5
255
330
17
100
AcDbEntity
  8
0
100
AcDbLine
 10
-169.5882314929233
 20
0.68023144994355
 30
0.0
 11
-169.594264757744
 21
0.2267571943549569
 31
0.0
  0
LINE
  5
256
330
17
100
AcDbEntity
  8
0
100
AcDbLine
 10
-169.594264757744
 20
0.2267571943549569
 30
0.0
 11
-169.594264757744
 21
-0.2267571943539629
 31
0.0
  0
LINE
  5
257
330
17
100
AcDbEntity
  8
0
100
AcDbLine
 10
-169.594264757744
 20
-0.2267571943539629
 30
0.0
 11
-169.58823149292334
 21
-0.6802314499425561
 31
0.0
  0
LINE
  5
258
330
17
100
AcDbEntity
  8
0
100
AcDbLine
 10
-169.58823149292334
 20
-0.6802314499425561
 30
0.0
 11
-169.5761660310926
 21
-1.133585313273218
 31
0.0
  0
LINE
  5
259
330
17
100
AcDbEntity
  8
0
100
AcDbLine
 10
-169.5761660310926
 20
-1.133585313273218
 30
0.0
 11
-169.5580705076841
 21
-1.586738546516232
 31
0.0
  0
LINE
  5
25A
330
17
100
AcDbEntity
  8
0
100
AcDbLine
 10
-169.5580705076841
 20
-1.586738546516232
 30
0.0
 11
-169.5339481253738
 21
-2.039610947350839
 31
0.0
  0
LINE
  5
25B
330
17
100
AcDbEntity
  8
0
100
AcDbLine
 10
-169.5339481253738
 20
-2.039610947350839
 30
0.0
 11
-169.50380315351453
 21
-2.492122363160019
 31
0.0
  0
LINE
  5
25C
330
17
100
AcDbEntity
  8
0
100
AcDbLine
 10
-169.50380315351453
 20
-2.492122363160019
 30
0.0
 11
-169.4676409273804
 21
-2.944192705216483
 31
0.0
  0
LINE
  5
25D
330
17
100
AcDbEntity
  8
0
100
AcDbLine
 10
-169.4676409273804
 20
-2.944192705216483
 30
0.0
 11
-169.42546784722242
 21
-3.395741962857347
 31
0.0
  0
LINE
  5
25E
330
17
100
AcDbEntity
  8
0
100
AcDbLine
 10
-169.42546784722242
 20
-3.395741962857347
 30
0.0
 11
-169.37729137713592
 21
-3.8466902176449977
 31
0.0
  0
LINE
  5
25F
330
17
100
AcDbEntity
  8
0
100
AcDbLine
 10
-169.37729137713592
 20
-3.8466902176449977
 30
0.0
 11
-169.32312004373927
 21
-4.2969576575116335
 31
0.0
  0
LINE
  5
260
330
17
100
AcDbEntity
  8
0
100
AcDbLine
 10
-169.32312004373927
 20
-4.2969576575116335
 30
0.0
 11
-169.26296343466495
 21
-4.746464590884977
 31
0.0
  0
LINE
  5
261
330
17
100
AcDbEntity
  8
0
100
AcDbLine
 10
-169.26296343466495
 20
-4.746464590884977
 30
0.0
 11
-169.19683219686266
 21
-5.195131460792662
 31
0.0
  0
LINE
  5
262
330
17
100
AcDbEntity
  8
0
100
AcDbLine
 10
-169.19683219686266
 20
-5.195131460792662
 30
0.0
 11
-169.12473803471477
 21
-5.642878858942804
 31
0.0
  0
LINE
  5
263
330
17
100
AcDbEntity
  8
0
100
AcDbLine
 10
-169.12473803471477
 20
-5.642878858942804
 30
0.0
 11
-169.04669370796503
 21
-6.089627539778275
 31
0.0
  0
LINE
  5
264
330
17
100
AcDbEntity
  8
0
100
AcDbLine
 10
-169.04669370796503
 20
-6.089627539778275
 30
0.0
 11
-168.96271302946013
 21
-6.535298434502039
 31
0.0
  0
LINE
  5
265
330
17
100
AcDbEntity
  8
0
100
AcDbLine
 10
-168.96271302946013
 20
-6.535298434502039
 30
0.0
 11
-168.87281086270497
 21
-6.9798126650714885
 31
0.0
  0
LINE
  5
266
330
17
100
AcDbEntity
  8
0
100
AcDbLine
 10
-168.87281086270497
 20
-6.9798126650714885
 30
0.0
 11
-168.77700311923206
 21
-7.423091558158737
 31
0.0
  0
LINE
  5
267
330
17
100
AcDbEntity
  8
0
100
AcDbLine
 10
-168.77700311923206
 20
-7.423091558158737
 30
0.0
 11
-168.67530675578544
 21
-7.865056659074818
 31
0.0
  0
LINE
  5
268
330
17
100
AcDbEntity
  8
0
100
AcDbLine
 10
-168.67530675578544
 20
-7.865056659074818
 30
0.0
 11
-168.56773977131948
 21
-8.305629745655152
 31
0.0
  0
LINE
  5
269
330
17
100
AcDbEntity
  8
0
100
AcDbLine
 10
-168.56773977131948
 20
-8.305629745655152
 30
0.0
 11
-168.45432120381327
 21
-8.744732842103888
 31
0.0
  0
LINE
  5
26A
330
17
100
AcDbEntity
  8
0
100
AcDbLine
 10
-168.45432120381327
 20
-8.744732842103888
 30
0.0
 11
-168.33507112690123
 21
-9.182288232794592
 31
0.0
  0
LINE
  5
26B
330
17
100
AcDbEntity
  8
0
100
AcDbLine
 10
-168.33507112690123
 20
-9.182288232794592
 30
0.0
 11
-168.21001064632026
 21
-9.61821847602495
 31
0.0
  0
LINE
  5
26C
330
17
100
AcDbEntity
  8
0
100
AcDbLine
 10
-168.21001064632026
 20
-9.61821847602495
 30
0.0
 11
-168.0791618961743
 21
-10.052446417722933
 31
0.0
  0
LINE
  5
26D
330
17
100
AcDbEntity
  8
0
100
AcDbLine
 10
-168.0791618961743
 20
-10.052446417722933
 30
0.0
 11
-167.94254803501696
 21
-10.484895205102097
 31
0.0
  0
LINE
  5
26E
330
17
100
AcDbEntity
  8
0
100
AcDbLine
 10
-167.94254803501696
 20
-10.484895205102097
 30
0.0
 11
-167.80019324175265
 21
-10.915488300263526
 31
0.0
  0
LINE
  5
26F
330
17
100
AcDbEntity
  8
0
100
AcDbLine
 10
-167.80019324175265
 20
-10.915488300263526
 30
0.0
 11
-167.65212271135726
 21
-11.344149493742075
 31
0.0
  0
LINE
  5
270
330
17
100
AcDbEntity
  8
0
100
AcDbLine
 10
-167.65212271135726
 20
-11.344149493742075
 30
0.0
 11
-167.49836265041898
 21
-11.770802917994462
 31
0.0
  0
LINE
  5
271
330
17
100
AcDbEntity
  8
0
100
AcDbLine
 10
-167.49836265041898
 20
-11.770802917994462
 30
0.0
 11
-167.3389402725001
 21
-12.195373060826853
 31
0.0
  0
LINE
  5
272
330
17
100
AcDbEntity
  8
0
100
AcDbLine
 10
-167.3389402725001
 20
-12.195373060826853
 30
0.0
 11
-167.1738837933205
 21
-12.617784778759555
 31
0.0
  0
LINE
  5
273
330
17
100
AcDbEntity
  8
0
100
AcDbLine
 10
-167.1738837933205
 20
-12.617784778759555
 30
0.0
 11
-167.00322242576382
 21
-13.037963310326443
 31
0.0
  0
LINE
  5
274
330
17
100
AcDbEntity
  8
0
100
AcDbLine
 10
-167.00322242576382
 20
-13.037963310326443
 30
0.0
 11
-166.82698637470722
 21
-13.4558342893068
 31
0.0
  0
LINE
  5
275
330
17
100
AcDbEntity
  8
0
100
AcDbLine
 10
-166.82698637470722
 20
-13.4558342893068
 30
0.0
 11
-166.6452068316755
 21
-13.871323757887167
 31
0.0
  0
LINE
  5
276
330
17
100
AcDbEntity
  8
0
100
AcDbLine
 10
-166.6452068316755
 20
-13.871323757887167
 30
0.0
 11
-166.45791596932045
 21
-14.284358179750932
 31
0.0
  0
LINE
  5
277
330
17
100
AcDbEntity
  8
0
100
AcDbLine
 10
-166.45791596932045
 20
-14.284358179750932
 30
0.0
 11
-166.265146935727
 21
-14.69486445309333
 31
0.0
  0
LINE
  5
278
330
17
100
AcDbEntity
  8
0
100
AcDbLine
 10
-166.265146935727
 20
-14.69486445309333
 30
0.0
 11
-166.06693384854606
 21
-15.10276992355954
 31
0.0
  0
LINE
  5
279
330
17
100
AcDbEntity
  8
0
100
AcDbLine
 10
-166.06693384854606
 20
-15.10276992355954
 30
0.0
 11
-165.8633117889565
 21
-15.508002397103441
 31
0.0
  0
LINE
  5
27A
330
17
100
AcDbEntity
  8
0
100
AcDbLine
 10
-165.8633117889565
 20
-15.508002397103441
 30
0.0
 11
-165.65431679545597
 21
-15.910490152765346
 31
0.0
  0
LINE
  5
27B
330
17
100
AcDbEntity
  8
0
100
AcDbLine
 10
-165.65431679545597
 20
-15.910490152765346
 30
0.0
 11
-165.43998585748264
 21
-16.310161955365267
 31
0.0
  0
LINE
  5
27C
330
17
100
AcDbEntity
  8
0
100
AcDbLine
 10
-165.43998585748264
 20
-16.310161955365267
 30
0.0
 11
-165.2203569088685
 21
-16.706947068111077
 31
0.0
  0
LINE
  5
27D
330
17
100
AcDbEntity
  8
0
100
AcDbLine
 10
-165.2203569088685
 20
-16.706947068111077
 30
0.0
 11
-164.9954688211257
 21
-17.10077526511758
 31
0.0
  0
LINE
  5
27E
330
17
100
AcDbEntity
  8
0
100
AcDbLine
 10
-164.9954688211257
 20
-17.10077526511758
 30
0.0
 11
-164.76536139656662
 21
-17.491576843836032
 31
0.0
  0
LINE
  5
27F
330
17
100
AcDbEntity
  8
0
100
AcDbLine
 10
-164.76536139656662
 20
-17.491576843836032
 30
0.0
 11
-164.53007536125943
 21
-17.87928263739017
 31
0.0
  0
LINE
  5
280
330
17
100
AcDbEntity
  8
0
100
AcDbLine
 10
-164.53007536125943
 20
-17.87928263739017
 30
0.0
 11
-164.2896523578201
 21
-18.2638240268182
 31
0.0
  0
LINE
  5
281
330
17
100
AcDbEntity
  8
0
100
AcDbLine
 10
-164.2896523578201
 20
-18.2638240268182
 30
0.0
 11
-164.04413493804222
 21
-18.645132953217306
 31
0.0
  0
LINE
  5
282
330
17
100
AcDbEntity
  8
0
100
AcDbLine
 10
-164.04413493804222
 20
-18.645132953217306
 30
0.0
 11
-163.79356655536586
 21
-19.02314192978925
 31
0.0
  0
LINE
  5
283
330
17
100
AcDbEntity
  8
0
100
AcDbLine
 10
-163.79356655536586
 20
-19.02314192978925
 30
0.0
 11
-163.53799155718679
 21
-19.397784053784665
 31
0.0
  0
LINE
  5
284
330
17
100
AcDbEntity
  8
0
100
AcDbLine
 10
-163.53799155718679
 20
-19.397784053784665
 30
0.0
 11
-163.27745517700768
 21
-19.768993018343984
 31
0.0
  0
LINE
  5
285
330
17
100
AcDbEntity
  8
0
100
AcDbLine
 10
-163.27745517700768
 20
-19.768993018343984
 30
0.0
 11
-163.01200352643232
 21
-20.136703124232906
 31
0.0
  0
LINE
  5
286
330
17
100
AcDbEntity
  8
0
100
AcDbLine
 10
-163.01200352643232
 20
-20.136703124232906
 30
0.0
 11
-162.7416835870044
 21
-20.500849291470324
 31
0.0
  0
LINE
  5
287
330
17
100
AcDbEntity
  8
0
100
AcDbLine
 10
-162.7416835870044
 20
-20.500849291470324
 30
0.0
 11
-162.46654320189236
 21
-20.861367070846637
 31
0.0
  0
LINE
  5
288
330
17
100
AcDbEntity
  8
0
100
AcDbLine
 10
-20.19806347046123
 20
128.57247158024768
 30
0.0
 11
-22.18649641122755
 21
128.468286283442
 31
0.0
  0
LINE
  5
289
330
17
100
AcDbEntity
  8
0
100
AcDbLine
 10
-22.18649641122755
 20
128.468286283442
 30
0.0
 11
-24.17438015347609
 21
128.35293221116066
 31
0.0
  0
LINE
  5
28A
330
17
100
AcDbEntity
  8
0
100
AcDbLine
 10
-24.17438015347609
 20
128.35293221116066
 30
0.0
 11
-26.161611822325405
 21
128.22643662992263
 31
0.0
  0
LINE
  5
28B
330
17
100
AcDbEntity
  8
0
100
AcDbLine
 10
-26.161611822325405
 20
128.22643662992263
 30
0.0
 11
-28.14808854289407
 21
128.08882680624677
 31
0.0
  0
LINE
  5
28C
330
17
100
AcDbEntity
  8
0
100
AcDbLine
 10
-28.14808854289407
 20
128.08882680624677
 30
0.0
 11
-30.13370744030064
 21
127.94013000665211
 31
0.0
  0
LINE
  5
28D
330
17
100
AcDbEntity
  8
0
100
AcDbLine
 10
-30.13370744030064
 20
127.94013000665211
 30
0.0
 11
-32.1183656396637
 21
127.78037349765754
 31
0.0
  0
LINE
  5
28E
330
17
100
AcDbEntity
  8
0
100
AcDbLine
 10
-32.1183656396637
 20
127.78037349765754
 30
0.0
 11
-34.10196026610182
 21
127.60958454578201
 31
0.0
  0
LINE
  5
28F
330
17
100
AcDbEntity
  8
0
100
AcDbLine
 10
-34.10196026610182
 20
127.60958454578201
 30
0.0
 11
-36.08438844473355
 21
127.42779041754447
 31
0.0
  0
LINE
  5
290
330
17
100
AcDbEntity
  8
0
100
AcDbLine
 10
-36.08438844473355
 20
127.42779041754447
 30
0.0
 11
-38.0655403995822
 21
127.23501803609852
 31
0.0
  0
LINE
  5
291
330
17
100
AcDbEntity
  8
0
100
AcDbLine
 10
-38.0655403995822
 20
127.23501803609852
 30
0.0
 11
-40.044320250546626
 21
127.03121095803712
 31
0.0
  0
LINE
  5
292
330
17
100
AcDbEntity
  8
0
100
AcDbLine
 10
-40.044320250546626
 20
127.03121095803712
 30
0.0
 11
-42.02031532625784
 21
126.81623058867126
 31
0.0
  0
LINE
  5
293
330
17
100
AcDbEntity
  8
0
100
AcDbLine
 10
-42.02031532625784
 20
126.81623058867126
 30
0.0
 11
-43.993993263548646
 21
126.58995773282764
 31
0.0
  0
LINE
  5
294
330
17
100
AcDbEntity
  8
0
100
AcDbLine
 10
-43.993993263548646
 20
126.58995773282764
 30
0.0
 11
-45.965821699251826
 21
126.35227319533296
 31
0.0
  0
LINE
  5
295
330
17
100
AcDbEntity
  8
0
100
AcDbLine
 10
-45.965821699251826
 20
126.35227319533296
 30
0.0
 11
-47.93626827020017
 21
126.10305778101389
 31
0.0
  0
LINE
  5
296
330
17
100
AcDbEntity
  8
0
100
AcDbLine
 10
-47.93626827020017
 20
126.10305778101389
 30
0.0
 11
-49.90580061322649
 21
125.84219229469714
 31
0.0
  0
LINE
  5
297
330
17
100
AcDbEntity
  8
0
100
AcDbLine
 10
-49.90580061322649
 20
125.84219229469714
 30
0.0
 11
-51.874886365163576
 21
125.56955754120939
 31
0.0
  0
LINE
  5
298
330
17
100
AcDbEntity
  8
0
100
AcDbLine
 10
-51.874886365163576
 20
125.56955754120939
 30
0.0
 11
-53.84399374525257
 21
125.28503444695258
 31
0.0
  0
LINE
  5
299
330
17
100
AcDbEntity
  8
0
100
AcDbLine
 10
-53.84399374525257
 20
125.28503444695258
 30
0.0
 11
-55.81438798806012
 21
124.98879463308242
 31
0.0
  0
LINE
  5
29A
330
17
100
AcDbEntity
  8
0
100
AcDbLine
 10
-55.81438798806012
 20
124.98879463308242
 30
0.0
 11
-57.78691406558714
 21
124.68139395824966
 31
0.0
  0
LINE
  5
29B
330
17
100
AcDbEntity
  8
0
100
AcDbLine
 10
-57.78691406558714
 20
124.68139395824966
 30
0.0
 11
-59.761539318192334
 21
124.3633169856318
 31
0.0
  0
LINE
  5
29C
330
17
100
AcDbEntity
  8
0
100
AcDbLine
 10
-59.761539318192334
 20
124.3633169856318
 30
0.0
 11
-61.738231086234386
 21
124.03504827840634
 31
0.0
  0
LINE
  5
29D
330
17
100
AcDbEntity
  8
0
100
AcDbLine
 10
-61.738231086234386
 20
124.03504827840634
 30
0.0
 11
-63.718094060101365
 21
123.6974636437318
 31
0.0
  0
LINE
  5
29E
330
17
100
AcDbEntity
  8
0
100
AcDbLine
 10
-63.718094060101365
 20
123.6974636437318
 30
0.0
 11
-65.69561206974336
 21
123.35137279485828
 31
0.0
  0
LINE
  5
29F
330
17
100
AcDbEntity
  8
0
100
AcDbLine
 10
-65.69561206974336
 20
123.35137279485828
 30
0.0
 11
-67.6607701723981
 21
122.99715368949938
 31
0.0
  0
LINE
  5
2A0
330
17
100
AcDbEntity
  8
0
100
AcDbLine
 10
-67.6607701723981
 20
122.99715368949938
 30
0.0
 11
-69.60355339948374
 21
122.63518428158594
 31
0.0
  0
LINE
  5
2A1
330
17
100
AcDbEntity
  8
0
100
AcDbLine
 10
-69.60355339948374
 20
122.63518428158594
 30
0.0
 11
-71.52296625402798
 21
122.26332972099219
 31
0.0
  0
LINE
  5
2A2
330
17
100
AcDbEntity
  8
0
100
AcDbLine
 10
-71.52296625402798
 20
122.26332972099219
 30
0.0
 11
-73.41903472262317
 21
121.87842349272626
 31
0.0
  0
LINE
  5
2A3
330
17
100
AcDbEntity
  8
0
100
AcDbLine
 10
-73.41903472262317
 20
121.87842349272626
 30
0.0
 11
-75.2814515657624
 21
121.4797673928421
 31
0.0
  0
LINE
  5
2A4
330
17
100
AcDbEntity
  8
0
100
AcDbLine
 10
-75.2814515657624
 20
121.4797673928421
 30
0.0
 11
-77.09989940381465
 21
121.06666584033978
 31
0.0
  0
LINE
  5
2A5
330
17
100
AcDbEntity
  8
0
100
AcDbLine
 10
-77.09989940381465
 20
121.06666584033978
 30
0.0
 11
-78.85902028453411
 21
120.63804039986964
 31
0.0
  0
LINE
  5
2A6
330
17
100
AcDbEntity
  8
0
100
AcDbLine
 10
-78.85902028453411
 20
120.63804039986964
 30
0.0
 11
-80.546702620285
 21
120.19099641297622
 31
0.0
  0
LINE
  5
2A7
330
17
100
AcDbEntity
  8
0
100
AcDbLine
 10
-80.546702620285
 20
120.19099641297622
 30
0.0
 11
-82.15993870732399
 21
119.72210130809962
 31
0.0
  0
LINE
  5
2A8
330
17
100
AcDbEntity
  8
0
100
AcDbLine
 10
-82.15993870732399
 20
119.72210130809962
 30
0.0
 11
-83.6957472813086
 21
119.22792243251429
 31
0.0
  0
LINE
  5
2A9
330
17
100
AcDbEntity
  8
0
100
AcDbLine
 10
-83.6957472813086
 20
119.22792243251429
 30
0.0
 11
-85.15977880293038
 21
118.70210903330181
 31
0.0
  0
LINE
  5
2AA
330
17
100
AcDbEntity
  8
0
100
AcDbLine
 10
-85.15977880293038
 20
118.70210903330181
 30
0.0
 11
-86.57630015370272
 21
118.13419802422247
 31
0.0
  0
LINE
  5
2AB
330
17
100
AcDbEntity
  8
0
100
AcDbLine
 10
-86.57630015370272
 20
118.13419802422247
 30
0.0
 11
-87.96719872374088
 21
117.51593584908123
 31
0.0
  0
LINE
  5
2AC
330
17
100
AcDbEntity
  8
0
100
AcDbLine
 10
-87.96719872374088
 20
117.51593584908123
 30
0.0
 11
-89.35430962515508
 21
116.83909158351508
 31
0.0
  0
LINE
  5
2AD
330
17
100
AcDbEntity
  8
0
100
AcDbLine
 10
-89.35430962515508
 20
116.83909158351508
 30
0.0
 11
-90.74862244902789
 21
116.09942710280201
 31
0.0
  0
LINE
  5
2AE
330
17
100
AcDbEntity
  8
0
100
AcDbLine
 10
-90.74862244902789
 20
116.09942710280201
 30
0.0
 11
-92.13728092184512
 21
115.30340036258178
 31
0.0
  0
LINE
  5
2AF
330
17
100
AcDbEntity
  8
0
100
AcDbLine
 10
-92.13728092184512
 20
115.30340036258178
 30
0.0
 11
-93.51191787247853
 21
114.4571474045555
 31
0.0
  0
LINE
  5
2B0
330
17
100
AcDbEntity
  8
0
100
AcDbLine
 10
-93.51191787247853
 20
114.4571474045555
 30
0.0
 11
-94.86429653223226
 21
113.56676412128034
 31
0.0
  0
LINE
  5
2B1
330
17
100
AcDbEntity
  8
0
100
AcDbLine
 10
-94.86429653223226
 20
113.56676412128034
 30
0.0
 11
-96.1811304067078
 21
112.64123013521369
 31
0.0
  0
LINE
  5
2B2
330
17
100
AcDbEntity
  8
0
100
AcDbLine
 10
-96.1811304067078
 20
112.64123013521369
 30
0.0
 11
-97.44890174546771
 21
111.68859425144085
 31
0.0
  0
LINE
  5
2B3
330
17
100
AcDbEntity
  8
0
100
AcDbLine
 10
-97.44890174546771
 20
111.68859425144085
 30
0.0
 11
-98.66529413409883
 21
110.70971572144272
 31
0.0
  0
LINE
  5
2B4
330
17
100
AcDbEntity
  8
0
100
AcDbLine
 10
-98.66529413409883
 20
110.70971572144272
 30
0.0
 11
-99.82817038137208
 21
109.70534449380256
 31
0.0
  0
LINE
  5
2B5
330
17
100
AcDbEntity
  8
0
100
AcDbLine
 10
-99.82817038137208
 20
109.70534449380256
 30
0.0
 11
-100.95448522219161
 21
108.65810214764039
 31
0.0
  0
LINE
  5
2B6
330
17
100
AcDbEntity
  8
0
100
AcDbLine
 10
-100.95448522219161
 20
108.65810214764039
 30
0.0
 11
-102.08581951186692
 21
107.53139349404667
 31
0.0
  0
LINE
  5
2B7
330
17
100
AcDbEntity
  8
0
100
AcDbLine
 10
-102.08581951186692
 20
107.53139349404667
 30
0.0
 11
-103.23366476891272
 21
106.32052613180159
 31
0.0
  0
LINE
  5
2B8
330
17
100
AcDbEntity
  8
0
100
AcDbLine
 10
-103.23366476891272
 20
106.32052613180159
 30
0.0
 11
-104.40867326494025
 21
105.02164480862137
 31
0.0
  0
LINE
  5
2B9
330
17
100
AcDbEntity
  8
0
100
AcDbLine
 10
-104.40867326494025
 20
105.02164480862137
 30
0.0
 11
-105.60946913318419
 21
103.64597395184367
 31
0.0
  0
LINE
  5
2BA
330
17
100
AcDbEntity
  8
0
100
AcDbLine
 10
-105.60946913318419
 20
103.64597395184367
 30
0.0
 11
-106.81512517912495
 21
102.22598233083775
 31
0.0
  0
LINE
  5
2BB
330
17
100
AcDbEntity
  8
0
100
AcDbLine
 10
-106.81512517912495
 20
102.22598233083775
 30
0.0
 11
-108.02422026398753
 21
100.76688862908546
 31
0.0
  0
LINE
  5
2BC
330
17
100
AcDbEntity
  8
0
100
AcDbLine
 10
-108.02422026398753
 20
100.76688862908546
 30
0.0
 11
-109.23608426568153
 21
99.27292580827408
 31
0.0
  0
LINE
  5
2BD
330
17
100
AcDbEntity
  8
0
100
AcDbLine
 10
-109.23608426568153
 20
99.27292580827408
 30
0.0
 11
-110.45004706211662
 21
97.74832683009083
 31
0.0
  0
LINE
  5
2BE
330
17
100
AcDbEntity
  8
0
100
AcDbLine
 10
-110.45004706211662
 20
97.74832683009083
 30
0.0
 11
-111.66543853120243
 21
96.19732465622295
 31
0.0
  0
LINE
  5
2BF
330
17
100
AcDbEntity
  8
0
100
AcDbLine
 10
-111.66543853120243
 20
96.19732465622295
 30
0.0
 11
-112.8815885508486
 21
94.62415224835767
 31
0.0
  0
LINE
  5
2C0
330
17
100
AcDbEntity
  8
0
100
AcDbLine
 10
-112.8815885508486
 20
94.62415224835767
 30
0.0
 11
-114.09782699896482
 21
93.03304256818222
 31
0.0
  0
LINE
  5
2C1
330
17
100
AcDbEntity
  8
0
100
AcDbLine
 10
-114.09782699896482
 20
93.03304256818222
 30
0.0
 11
-115.31634460115372
 21
91.42529325219371
 31
0.0
  0
LINE
  5
2C2
330
17
100
AcDbEntity
  8
0
100
AcDbLine
 10
-115.31634460115372
 20
91.42529325219371
 30
0.0
 11
-116.5418454482524
 21
89.79942925211131
 31
0.0
  0
LINE
  5
2C3
330
17
100
AcDbEntity
  8
0
100
AcDbLine
 10
-116.5418454482524
 20
89.79942925211131
 30
0.0
 11
-117.77002348430112
 21
88.16303137644839
 31
0.0
  0
LINE
  5
2C4
330
17
100
AcDbEntity
  8
0
100
AcDbLine
 10
-117.77002348430112
 20
88.16303137644839
 30
0.0
 11
-118.99614485505758
 21
86.52411476736965
 31
0.0
  0
LINE
  5
2C5
330
17
100
AcDbEntity
  8
0
100
AcDbLine
 10
-118.99614485505758
 20
86.52411476736965
 30
0.0
 11
-120.21616977568016
 21
84.88887655576089
 31
0.0
  0
LINE
  5
2C6
330
17
100
AcDbEntity
  8
0
100
AcDbLine
 10
-120.21616977568016
 20
84.88887655576089
 30
0.0
 11
-121.4293472902469
 21
83.25604132713993
 31
0.0
  0
LINE
  5
2C7
330
17
100
AcDbEntity
  8
0
100
AcDbLine
 10
-121.4293472902469
 20
83.25604132713993
 30
0.0
 11
-122.63513371829963
 21
81.62497492724643
 31
0.0
  0
LINE
  5
2C8
330
17
100
AcDbEntity
  8
0
100
AcDbLine
 10
-122.63513371829963
 20
81.62497492724643
 30
0.0
 11
-123.83292271277041
 21
79.99524189397863
 31
0.0
  0
LINE
  5
2C9
330
17
100
AcDbEntity
  8
0
100
AcDbLine
 10
-123.83292271277041
 20
79.99524189397863
 30
0.0
 11
-125.02195237205144
 21
78.36627345471092
 31
0.0
  0
LINE
  5
2CA
330
17
100
AcDbEntity
  8
0
100
AcDbLine
 10
-125.02195237205144
 20
78.36627345471092
 30
0.0
 11
-126.20168469687205
 21
76.73695326316101
 31
0.0
  0
LINE
  5
2CB
330
17
100
AcDbEntity
  8
0
100
AcDbLine
 10
-126.20168469687205
 20
76.73695326316101
 30
0.0
 11
-127.37265572941669
 21
75.10627027217548
 31
0.0
  0
LINE
  5
2CC
330
17
100
AcDbEntity
  8
0
100
AcDbLine
 10
-127.37265572941669
 20
75.10627027217548
 30
0.0
 11
-128.53545898971603
 21
73.47323472343248
 31
0.0
  0
LINE
  5
2CD
330
17
100
AcDbEntity
  8
0
100
AcDbLine
 10
-128.53545898971603
 20
73.47323472343248
 30
0.0
 11
-129.69068799780075
 21
71.8368568586102
 31
0.0
  0
LINE
  5
2CE
330
17
100
AcDbEntity
  8
0
100
AcDbLine
 10
-129.69068799780075
 20
71.8368568586102
 30
0.0
 11
-130.83893627370153
 21
70.19614691938686
 31
0.0
  0
LINE
  5
2CF
330
17
100
AcDbEntity
  8
0
100
AcDbLine
 10
-130.83893627370153
 20
70.19614691938686
 30
0.0
 11
-131.980797337449
 21
68.55011514744062
 31
0.0
  0
LINE
  5
2D0
330
17
100
AcDbEntity
  8
0
100
AcDbLine
 10
-131.980797337449
 20
68.55011514744062
 30
0.0
 11
-133.11686470907378
 21
66.89777178444974
 31
0.0
  0
LINE
  5
2D1
330
17
100
AcDbEntity
  8
0
100
AcDbLine
 10
-133.11686470907378
 20
66.89777178444974
 30
0.0
 11
-134.24752962957828
 21
65.23857628464579
 31
0.0
  0
LINE
  5
2D2
330
17
100
AcDbEntity
  8
0
100
AcDbLine
 10
-134.24752962957828
 20
65.23857628464579
 30
0.0
 11
-135.37245861613735
 21
63.57372979800914
 31
0.0
  0
LINE
  5
2D3
330
17
100
AcDbEntity
  8
0
100
AcDbLine
 10
-135.37245861613735
 20
63.57372979800914
 30
0.0
 11
-136.49185049307619
 21
61.903415595262615
 31
0.0
  0
LINE
  5
2D4
330
17
100
AcDbEntity
  8
0
100
AcDbLine
 10
-136.49185049307619
 20
61.903415595262615
 30
0.0
 11
-137.60597491478802
 21
60.22766713306175
 31
0.0
  0
LINE
  5
2D5
330
17
100
AcDbEntity
  8
0
100
AcDbLine
 10
-137.60597491478802
 20
60.22766713306175
 30
0.0
 11
-138.71510153566615
 21
58.546517868062104
 31
0.0
  0
LINE
  5
2D6
330
17
100
AcDbEntity
  8
0
100
AcDbLine
 10
-138.71510153566615
 20
58.546517868062104
 30
0.0
 11
-139.8195000101039
 21
56.8600012569192
 31
0.0
  0
LINE
  5
2D7
330
17
100
AcDbEntity
  8
0
100
AcDbLine
 10
-139.8195000101039
 20
56.8600012569192
 30
0.0
 11
-140.9194399924945
 21
55.16815075628864
 31
0.0
  0
LINE
  5
2D8
330
17
100
AcDbEntity
  8
0
100
AcDbLine
 10
-140.9194399924945
 20
55.16815075628864
 30
0.0
 11
-142.01519113723128
 21
53.47099982282595
 31
0.0
  0
LINE
  5
2D9
330
17
100
AcDbEntity
  8
0
100
AcDbLine
 10
-142.01519113723128
 20
53.47099982282595
 30
0.0
 11
-143.10581988287004
 21
51.770890688100856
 31
0.0
  0
LINE
  5
2DA
330
17
100
AcDbEntity
  8
0
100
AcDbLine
 10
-143.10581988287004
 20
51.770890688100856
 30
0.0
 11
-144.18577053307624
 21
50.07776484301276
 31
0.0
  0
LINE
  5
2DB
330
17
100
AcDbEntity
  8
0
100
AcDbLine
 10
-144.18577053307624
 20
50.07776484301276
 30
0.0
 11
-145.25446989080012
 21
48.39023310263053
 31
0.0
  0
LINE
  5
2DC
330
17
100
AcDbEntity
  8
0
100
AcDbLine
 10
-145.25446989080012
 20
48.39023310263053
 30
0.0
 11
-146.3121027799306
 21
46.705348994167366
 31
0.0
  0
LINE
  5
2DD
330
17
100
AcDbEntity
  8
0
100
AcDbLine
 10
-146.3121027799306
 20
46.705348994167366
 30
0.0
 11
-147.35885402435667
 21
45.020166044836316
 31
0.0
  0
LINE
  5
2DE
330
17
100
AcDbEntity
  8
0
100
AcDbLine
 10
-147.35885402435667
 20
45.020166044836316
 30
0.0
 11
-148.39490844796734
 21
43.33173778185056
 31
0.0
  0
LINE
  5
2DF
330
17
100
AcDbEntity
  8
0
100
AcDbLine
 10
-148.39490844796734
 20
43.33173778185056
 30
0.0
 11
-149.42045087465158
 21
41.637117732423235
 31
0.0
  0
LINE
  5
2E0
330
17
100
AcDbEntity
  8
0
100
AcDbLine
 10
-149.42045087465158
 20
41.637117732423235
 30
0.0
 11
-150.43566612829832
 21
39.933359423767456
 31
0.0
  0
LINE
  5
2E1
330
17
100
AcDbEntity
  8
0
100
AcDbLine
 10
-150.43566612829832
 20
39.933359423767456
 30
0.0
 11
-151.44424396265842
 21
38.21301539708444
 31
0.0
  0
LINE
  5
2E2
330
17
100
AcDbEntity
  8
0
100
AcDbLine
 10
-151.44424396265842
 20
38.21301539708444
 30
0.0
 11
-152.4699337637146
 21
36.448432813425775
 31
0.0
  0
LINE
  5
2E3
330
17
100
AcDbEntity
  8
0
100
AcDbLine
 10
-152.4699337637146
 20
36.448432813425775
 30
0.0
 11
-153.52261348251045
 21
34.63843985281643
 31
0.0
  0
LINE
  5
2E4
330
17
100
AcDbEntity
  8
0
100
AcDbLine
 10
-153.52261348251045
 20
34.63843985281643
 30
0.0
 11
-154.60887967437375
 21
32.78670114332558
 31
0.0
  0
LINE
  5
2E5
330
17
100
AcDbEntity
  8
0
100
AcDbLine
 10
-154.60887967437375
 20
32.78670114332558
 30
0.0
 11
-155.7355383750375
 21
30.89600939395201
 31
0.0
  0
LINE
  5
2E6
330
17
100
AcDbEntity
  8
0
100
AcDbLine
 10
-155.7355383750375
 20
30.89600939395201
 30
0.0
 11
-156.9140376436522
 21
28.963568841967202
 31
0.0
  0
LINE
  5
2E7
330
17
100
AcDbEntity
  8
0
100
AcDbLine
 10
-156.9140376436522
 20
28.963568841967202
 30
0.0
 11
-158.1603176063074
 21
26.99053951487869
 31
0.0
  0
LINE
  5
2E8
330
17
100
AcDbEntity
  8
0
100
AcDbLine
 10
-158.1603176063074
 20
26.99053951487869
 30
0.0
 11
-159.4904973927187
 21
24.97913013720584
 31
0.0
  0
LINE
  5
2E9
330
17
100
AcDbEntity
  8
0
100
AcDbLine
 10
-159.4904973927187
 20
24.97913013720584
 30
0.0
 11
-160.92137863725023
 21
22.931441812100417
 31
0.0
  0
LINE
  5
2EA
330
17
100
AcDbEntity
  8
0
100
AcDbLine
 10
-160.92137863725023
 20
22.931441812100417
 30
0.0
 11
-162.46654320189225
 21
20.86136707084777
 31
0.0
  0
LINE
  5
2EB
330
17
100
AcDbEntity
  8
0
100
AcDbLine
 10
-19.99999999999994
 20
128.577378231943
 30
0.0
 11
-20.002001459471213
 21
128.57737773121298
 31
0.0
  0
LINE
  5
2EC
330
17
100
AcDbEntity
  8
0
100
AcDbLine
 10
-20.002001459471213
 20
128.57737773121298
 30
0.0
 11
-20.004002918441394
 21
128.577376229023
 31
0.0
  0
LINE
  5
2ED
330
17
100
AcDbEntity
  8
0
100
AcDbLine
 10
-20.004002918441394
 20
128.577376229023
 30
0.0
 11
-20.006004376409383
 21
128.57737372537346
 31
0.0
  0
LINE
  5
2EE
330
17
100
AcDbEntity
  8
0
100
AcDbLine
 10
-20.006004376409383
 20
128.57737372537346
 30
0.0
 11
-20.008005832874087
 21
128.57737022026498
 31
0.0
  0
LINE
  5
2EF
330
17
100
AcDbEntity
  8
0
100
AcDbLine
 10
-20.008005832874087
 20
128.57737022026498
 30
0.0
 11
-20.010007287334407
 21
128.57736571369844
 31
0.0
  0
LINE
  5
2F0
330
17
100
AcDbEntity
  8
0
100
AcDbLine
 10
-20.010007287334407
 20
128.57736571369844
 30
0.0
 11
-20.012008739289257
 21
128.57736020567498
 31
0.0
  0
LINE
  5
2F1
330
17
100
AcDbEntity
  8
0
100
AcDbLine
 10
-20.012008739289257
 20
128.57736020567498
 30
0.0
 11
-20.01401018823754
 21
128.57735369619596
 31
0.0
  0
LINE
  5
2F2
330
17
100
AcDbEntity
  8
0
100
AcDbLine
 10
-20.01401018823754
 20
128.57735369619596
 30
0.0
 11
-20.016011633678154
 21
128.577346185263
 31
0.0
  0
LINE
  5
2F3
330
17
100
AcDbEntity
  8
0
100
AcDbLine
 10
-20.016011633678154
 20
128.577346185263
 30
0.0
 11
-20.01801307511002
 21
128.577337672878
 31
0.0
  0
LINE
  5
2F4
330
17
100
AcDbEntity
  8
0
100
AcDbLine
 10
-20.01801307511002
 20
128.577337672878
 30
0.0
 11
-20.020014512032045
 21
128.5773281590431
 31
0.0
  0
LINE
  5
2F5
330
17
100
AcDbEntity
  8
0
100
AcDbLine
 10
-20.020014512032045
 20
128.5773281590431
 30
0.0
 11
-20.02201594394313
 21
128.57731764376067
 31
0.0
  0
LINE
  5
2F6
330
17
100
AcDbEntity
  8
0
100
AcDbLine
 10
-20.02201594394313
 20
128.57731764376067
 30
0.0
 11
-20.024017370342197
 21
128.57730612703335
 31
0.0
  0
LINE
  5
2F7
330
17
100
AcDbEntity
  8
0
100
AcDbLine
 10
-20.024017370342197
 20
128.57730612703335
 30
0.0
 11
-20.026018790728155
 21
128.577293608864
 31
0.0
  0
LINE
  5
2F8
330
17
100
AcDbEntity
  8
0
100
AcDbLine
 10
-20.026018790728155
 20
128.577293608864
 30
0.0
 11
-20.02802020459992
 21
128.57728008925577
 31
0.0
  0
LINE
  5
2F9
330
17
100
AcDbEntity
  8
0
100
AcDbLine
 10
-20.02802020459992
 20
128.57728008925577
 30
0.0
 11
-20.030021611456398
 21
128.57726556821206
 31
0.0
  0
LINE
  5
2FA
330
17
100
AcDbEntity
  8
0
100
AcDbLine
 10
-20.030021611456398
 20
128.57726556821206
 30
0.0
 11
-20.03202301079652
 21
128.5772500457365
 31
0.0
  0
LINE
  5
2FB
330
17
100
AcDbEntity
  8
0
100
AcDbLine
 10
-20.03202301079652
 20
128.5772500457365
 30
0.0
 11
-20.0340244021192
 21
128.57723352183294
 31
0.0
  0
LINE
  5
2FC
330
17
100
AcDbEntity
  8
0
100
AcDbLine
 10
-20.0340244021192
 20
128.57723352183294
 30
0.0
 11
-20.03602578492336
 21
128.57721599650554
 31
0.0
  0
LINE
  5
2FD
330
17
100
AcDbEntity
  8
0
100
AcDbLine
 10
-20.03602578492336
 20
128.57721599650554
 30
0.0
 11
-20.038027158707926
 21
128.57719746975872
 31
0.0
  0
LINE
  5
2FE
330
17
100
AcDbEntity
  8
0
100
AcDbLine
 10
-20.038027158707926
 20
128.57719746975872
 30
0.0
 11
-20.04002852297182
 21
128.57717794159706
 31
0.0
  0
LINE
  5
2FF
330
17
100
AcDbEntity
  8
0
100
AcDbLine
 10
-20.04002852297182
 20
128.57717794159706
 30
0.0
 11
-20.04202987721397
 21
128.57715741202549
 31
0.0
  0
LINE
  5
300
330
17
100
AcDbEntity
  8
0
100
AcDbLine
 10
-20.04202987721397
 20
128.57715741202549
 30
0.0
 11
-20.044031220933313
 21
128.57713588104914
 31
0.0
  0
LINE
  5
301
330
17
100
AcDbEntity
  8
0
100
AcDbLine
 10
-20.044031220933313
 20
128.57713588104914
 30
0.0
 11
-20.046032553628773
 21
128.5771133486734
 31
0.0
  0
LINE
  5
302
330
17
100
AcDbEntity
  8
0
100
AcDbLine
 10
-20.046032553628773
 20
128.5771133486734
 30
0.0
 11
-20.048033874799298
 21
128.57708981490393
 31
0.0
  0
LINE
  5
303
330
17
100
AcDbEntity
  8
0
100
AcDbLine
 10
-20.048033874799298
 20
128.57708981490393
 30
0.0
 11
-20.050035183943816
 21
128.5770652797466
 31
0.0
  0
LINE
  5
304
330
17
100
AcDbEntity
  8
0
100
AcDbLine
 10
-20.050035183943816
 20
128.5770652797466
 30
0.0
 11
-20.05203648056128
 21
128.57703974320754
 31
0.0
  0
LINE
  5
305
330
17
100
AcDbEntity
  8
0
100
AcDbLine
 10
-20.05203648056128
 20
128.57703974320754
 30
0.0
 11
-20.054037764150625
 21
128.57701320529316
 31
0.0
  0
LINE
  5
306
330
17
100
AcDbEntity
  8
0
100
AcDbLine
 10
-20.054037764150625
 20
128.57701320529316
 30
0.0
 11
-20.056039034210805
 21
128.5769856660101
 31
0.0
  0
LINE
  5
307
330
17
100
AcDbEntity
  8
0
100
AcDbLine
 10
-20.056039034210805
 20
128.5769856660101
 30
0.0
 11
-20.058040290240772
 21
128.57695712536525
 31
0.0
  0
LINE
  5
308
330
17
100
AcDbEntity
  8
0
100
AcDbLine
 10
-20.058040290240772
 20
128.57695712536525
 30
0.0
 11
-20.060041531739483
 21
128.57692758336577
 31
0.0
  0
LINE
  5
309
330
17
100
AcDbEntity
  8
0
100
AcDbLine
 10
-20.060041531739483
 20
128.57692758336577
 30
0.0
 11
-20.06204275820589
 21
128.57689704001908
 31
0.0
  0
LINE
  5
30A
330
17
100
AcDbEntity
  8
0
100
AcDbLine
 10
-20.06204275820589
 20
128.57689704001908
 30
0.0
 11
-20.064043969138964
 21
128.57686549533275
 31
0.0
  0
LINE
  5
30B
330
17
100
AcDbEntity
  8
0
100
AcDbLine
 10
-20.064043969138964
 20
128.57686549533275
 30
0.0
 11
-20.066045164037668
 21
128.57683294931476
 31
0.0
  0
LINE
  5
30C
330
17
100
AcDbEntity
  8
0
100
AcDbLine
 10
-20.066045164037668
 20
128.57683294931476
 30
0.0
 11
-20.068046342400976
 21
128.5767994019732
 31
0.0
  0
LINE
  5
30D
330
17
100
AcDbEntity
  8
0
100
AcDbLine
 10
-20.068046342400976
 20
128.5767994019732
 30
0.0
 11
-20.070047503727857
 21
128.57676485331652
 31
0.0
  0
LINE
  5
30E
330
17
100
AcDbEntity
  8
0
100
AcDbLine
 10
-20.070047503727857
 20
128.57676485331652
 30
0.0
 11
-20.072048647517295
 21
128.57672930335332
 31
0.0
  0
LINE
  5
30F
330
17
100
AcDbEntity
  8
0
100
AcDbLine
 10
-20.072048647517295
 20
128.57672930335332
 30
0.0
 11
-20.07404977326827
 21
128.57669275209253
 31
0.0
  0
LINE
  5
310
330
17
100
AcDbEntity
  8
0
100
AcDbLine
 10
-20.07404977326827
 20
128.57669275209253
 30
0.0
 11
-20.076050880479777
 21
128.5766551995433
 31
0.0
  0
LINE
  5
311
330
17
100
AcDbEntity
  8
0
100
AcDbLine
 10
-20.076050880479777
 20
128.5766551995433
 30
0.0
 11
-20.0780519686508
 21
128.576616645715
 31
0.0
  0
LINE
  5
312
330
17
100
AcDbEntity
  8
0
100
AcDbLine
 10
-20.0780519686508
 20
128.576616645715
 30
0.0
 11
-20.08005303728034
 21
128.57657709061735
 31
0.0
  0
LINE
  5
313
330
17
100
AcDbEntity
  8
0
100
AcDbLine
 10
-20.08005303728034
 20
128.57657709061735
 30
0.0
 11
-20.0820540858674
 21
128.57653653426019
 31
0.0
  0
LINE
  5
314
330
17
100
AcDbEntity
  8
0
100
AcDbLine
 10
-20.0820540858674
 20
128.57653653426019
 30
0.0
 11
-20.084055113910992
 21
128.5764949766537
 31
0.0
  0
LINE
  5
315
330
17
100
AcDbEntity
  8
0
100
AcDbLine
 10
-20.084055113910992
 20
128.5764949766537
 30
0.0
 11
-20.086056120910122
 21
128.57645241780827
 31
0.0
  0
LINE
  5
316
330
17
100
AcDbEntity
  8
0
100
AcDbLine
 10
-20.086056120910122
 20
128.57645241780827
 30
0.0
 11
-20.088057106363806
 21
128.57640885773455
 31
0.0
  0
LINE
  5
317
330
17
100
AcDbEntity
  8
0
100
AcDbLine
 10
-20.088057106363806
 20
128.57640885773455
 30
0.0
 11
-20.090058069771075
 21
128.5763642964435
 31
0.0
  0
LINE
  5
318
330
17
100
AcDbEntity
  8
0
100
AcDbLine
 10
-20.090058069771075
 20
128.5763642964435
 30
0.0
 11
-20.092059010630955
 21
128.5763187339462
 31
0.0
  0
LINE
  5
319
330
17
100
AcDbEntity
  8
0
100
AcDbLine
 10
-20.092059010630955
 20
128.5763187339462
 30
0.0
 11
-20.094059928442476
 21
128.57627217025413
 31
0.0
  0
LINE
  5
31A
330
17
100
AcDbEntity
  8
0
100
AcDbLine
 10
-20.094059928442476
 20
128.57627217025413
 30
0.0
 11
-20.096060822704683
 21
128.57622460537888
 31
0.0
  0
LINE
  5
31B
330
17
100
AcDbEntity
  8
0
100
AcDbLine
 10
-20.096060822704683
 20
128.57622460537888
 30
0.0
 11
-20.09806169291662
 21
128.5761760393324
 31
0.0
  0
LINE
  5
31C
330
17
100
AcDbEntity
  8
0
100
AcDbLine
 10
-20.09806169291662
 20
128.5761760393324
 30
0.0
 11
-20.10006253857734
 21
128.57612647212684
 31
0.0
  0
LINE
  5
31D
330
17
100
AcDbEntity
  8
0
100
AcDbLine
 10
-20.10006253857734
 20
128.57612647212684
 30
0.0
 11
-20.102063359185898
 21
128.57607590377464
 31
0.0
  0
LINE
  5
31E
330
17
100
AcDbEntity
  8
0
100
AcDbLine
 10
-20.102063359185898
 20
128.57607590377464
 30
0.0
 11
-20.104064154241364
 21
128.5760243342884
 31
0.0
  0
LINE
  5
31F
330
17
100
AcDbEntity
  8
0
100
AcDbLine
 10
-20.104064154241364
 20
128.5760243342884
 30
0.0
 11
-20.10606492324281
 21
128.57597176368105
 31
0.0
  0
LINE
  5
320
330
17
100
AcDbEntity
  8
0
100
AcDbLine
 10
-20.10606492324281
 20
128.57597176368105
 30
0.0
 11
-20.108065665689306
 21
128.5759181919658
 31
0.0
  0
LINE
  5
321
330
17
100
AcDbEntity
  8
0
100
AcDbLine
 10
-20.108065665689306
 20
128.5759181919658
 30
0.0
 11
-20.11006638107994
 21
128.575863619156
 31
0.0
  0
LINE
  5
322
330
17
100
AcDbEntity
  8
0
100
AcDbLine
 10
-20.11006638107994
 20
128.575863619156
 30
0.0
 11
-20.1120670689138
 21
128.57580804526535
 31
0.0
  0
LINE
  5
323
330
17
100
AcDbEntity
  8
0
100
AcDbLine
 10
-20.1120670689138
 20
128.57580804526535
 30
0.0
 11
-20.11406772868999
 21
128.57575147030775
 31
0.0
  0
LINE
  5
324
330
17
100
AcDbEntity
  8
0
100
AcDbLine
 10
-20.11406772868999
 20
128.57575147030775
 30
0.0
 11
-20.11606835990761
 21
128.5756938942974
 31
0.0
  0
LINE
  5
325
330
17
100
AcDbEntity
  8
0
100
AcDbLine
 10
-20.11606835990761
 20
128.5756938942974
 30
0.0
 11
-20.118068962065774
 21
128.57563531724864
 31
0.0
  0
LINE
  5
326
330
17
100
AcDbEntity
  8
0
100
AcDbLine
 10
-20.118068962065774
 20
128.57563531724864
 30
0.0
 11
-20.1200695346636
 21
128.57557573917617
 31
0.0
  0
LINE
  5
327
330
17
100
AcDbEntity
  8
0
100
AcDbLine
 10
-20.1200695346636
 20
128.57557573917617
 30
0.0
 11
-20.122070077200213
 21
128.57551516009497
 31
0.0
  0
LINE
  5
328
330
17
100
AcDbEntity
  8
0
100
AcDbLine
 10
-20.122070077200213
 20
128.57551516009497
 30
0.0
 11
-20.12407058917475
 21
128.5754535800201
 31
0.0
  0
LINE
  5
329
330
17
100
AcDbEntity
  8
0
100
AcDbLine
 10
-20.12407058917475
 20
128.5754535800201
 30
0.0
 11
-20.126071070086354
 21
128.57539099896704
 31
0.0
  0
LINE
  5
32A
330
17
100
AcDbEntity
  8
0
100
AcDbLine
 10
-20.126071070086354
 20
128.57539099896704
 30
0.0
 11
-20.12807151943417
 21
128.57532741695147
 31
0.0
  0
LINE
  5
32B
330
17
100
AcDbEntity
  8
0
100
AcDbLine
 10
-20.12807151943417
 20
128.57532741695147
 30
0.0
 11
-20.130071936717357
 21
128.57526283398926
 31
0.0
  0
LINE
  5
32C
330
17
100
AcDbEntity
  8
0
100
AcDbLine
 10
-20.130071936717357
 20
128.57526283398926
 30
0.0
 11
-20.132072321435086
 21
128.5751972500966
 31
0.0
  0
LINE
  5
32D
330
17
100
AcDbEntity
  8
0
100
AcDbLine
 10
-20.132072321435086
 20
128.5751972500966
 30
0.0
 11
-20.13407267308652
 21
128.57513066528995
 31
0.0
  0
LINE
  5
32E
330
17
100
AcDbEntity
  8
0
100
AcDbLine
 10
-20.13407267308652
 20
128.57513066528995
 30
0.0
 11
-20.136072991170852
 21
128.57506307958593
 31
0.0
  0
LINE
  5
32F
330
17
100
AcDbEntity
  8
0
100
AcDbLine
 10
-20.136072991170852
 20
128.57506307958593
 30
0.0
 11
-20.138073275187267
 21
128.57499449300147
 31
0.0
  0
LINE
  5
330
330
17
100
AcDbEntity
  8
0
100
AcDbLine
 10
-20.138073275187267
 20
128.57499449300147
 30
0.0
 11
-20.140073524634964
 21
128.57492490555376
 31
0.0
  0
LINE
  5
331
330
17
100
AcDbEntity
  8
0
100
AcDbLine
 10
-20.140073524634964
 20
128.57492490555376
 30
0.0
 11
-20.14207373901315
 21
128.5748543172602
 31
0.0
  0
LINE
  5
332
330
17
100
AcDbEntity
  8
0
100
AcDbLine
 10
-20.14207373901315
 20
128.5748543172602
 30
0.0
 11
-20.14407391782104
 21
128.57478272813847
 31
0.0
  0
LINE
  5
333
330
17
100
AcDbEntity
  8
0
100
AcDbLine
 10
-20.14407391782104
 20
128.57478272813847
 30
0.0
 11
-20.14607406055786
 21
128.57471013820648
 31
0.0
  0
LINE
  5
334
330
17
100
AcDbEntity
  8
0
100
AcDbLine
 10
-20.14607406055786
 20
128.57471013820648
 30
0.0
 11
-20.14807416672285
 21
128.57463654748244
 31
0.0
  0
LINE
  5
335
330
17
100
AcDbEntity
  8
0
100
AcDbLine
 10
-20.14807416672285
 20
128.57463654748244
 30
0.0
 11
-20.150074235815246
 21
128.57456195598476
 31
0.0
  0
LINE
  5
336
330
17
100
AcDbEntity
  8
0
100
AcDbLine
 10
-20.150074235815246
 20
128.57456195598476
 30
0.0
 11
-20.152074267334307
 21
128.57448636373212
 31
0.0
  0
LINE
  5
337
330
17
100
AcDbEntity
  8
0
100
AcDbLine
 10
-20.152074267334307
 20
128.57448636373212
 30
0.0
 11
-20.154074260779286
 21
128.57440977074342
 31
0.0
  0
LINE
  5
338
330
17
100
AcDbEntity
  8
0
100
AcDbLine
 10
-20.154074260779286
 20
128.57440977074342
 30
0.0
 11
-20.156074215649465
 21
128.57433217703786
 31
0.0
  0
LINE
  5
339
330
17
100
AcDbEntity
  8
0
100
AcDbLine
 10
-20.156074215649465
 20
128.57433217703786
 30
0.0
 11
-20.158074131444117
 21
128.57425358263487
 31
0.0
  0
LINE
  5
33A
330
17
100
AcDbEntity
  8
0
100
AcDbLine
 10
-20.158074131444117
 20
128.57425358263487
 30
0.0
 11
-20.160074007662537
 21
128.5741739875541
 31
0.0
  0
LINE
  5
33B
330
17
100
AcDbEntity
  8
0
100
AcDbLine
 10
-20.160074007662537
 20
128.5741739875541
 30
0.0
 11
-20.162073843804027
 21
128.5740933918155
 31
0.0
  0
LINE
  5
33C
330
17
100
AcDbEntity
  8
0
100
AcDbLine
 10
-20.162073843804027
 20
128.5740933918155
 30
0.0
 11
-20.164073639367896
 21
128.57401179543922
 31
0.0
  0
LINE
  5
33D
330
17
100
AcDbEntity
  8
0
100
AcDbLine
 10
-20.164073639367896
 20
128.57401179543922
 30
0.0
 11
-20.166073393853466
 21
128.57392919844574
 31
0.0
  0
LINE
  5
33E
330
17
100
AcDbEntity
  8
0
100
AcDbLine
 10
-20.166073393853466
 20
128.57392919844574
 30
0.0
 11
-20.168073106760065
 21
128.5738456008557
 31
0.0
  0
LINE
  5
33F
330
17
100
AcDbEntity
  8
0
100
AcDbLine
 10
-20.168073106760065
 20
128.5738456008557
 30
0.0
 11
-20.17007277758704
 21
128.57376100269005
 31
0.0
  0
LINE
  5
340
330
17
100
AcDbEntity
  8
0
100
AcDbLine
 10
-20.17007277758704
 20
128.57376100269005
 30
0.0
 11
-20.17207240583374
 21
128.57367540396996
 31
0.0
  0
LINE
  5
341
330
17
100
AcDbEntity
  8
0
100
AcDbLine
 10
-20.17207240583374
 20
128.57367540396996
 30
0.0
 11
-20.174071990999533
 21
128.57358880471685
 31
0.0
  0
LINE
  5
342
330
17
100
AcDbEntity
  8
0
100
AcDbLine
 10
-20.174071990999533
 20
128.57358880471685
 30
0.0
 11
-20.176071532583787
 21
128.5735012049524
 31
0.0
  0
LINE
  5
343
330
17
100
AcDbEntity
  8
0
100
AcDbLine
 10
-20.176071532583787
 20
128.5735012049524
 30
0.0
 11
-20.17807103008589
 21
128.57341260469858
 31
0.0
  0
LINE
  5
344
330
17
100
AcDbEntity
  8
0
100
AcDbLine
 10
-20.17807103008589
 20
128.57341260469858
 30
0.0
 11
-20.180070483005235
 21
128.57332300397755
 31
0.0
  0
LINE
  5
345
330
17
100
AcDbEntity
  8
0
100
AcDbLine
 10
-20.180070483005235
 20
128.57332300397755
 30
0.0
 11
-20.182069890841227
 21
128.57323240281173
 31
0.0
  0
LINE
  5
346
330
17
100
AcDbEntity
  8
0
100
AcDbLine
 10
-20.182069890841227
 20
128.57323240281173
 30
0.0
 11
-20.18406925309329
 21
128.57314080122381
 31
0.0
  0
LINE
  5
347
330
17
100
AcDbEntity
  8
0
100
AcDbLine
 10
-20.18406925309329
 20
128.57314080122381
 30
0.0
 11
-20.186068569260854
 21
128.57304819923675
 31
0.0
  0
LINE
  5
348
330
17
100
AcDbEntity
  8
0
100
AcDbLine
 10
-20.186068569260854
 20
128.57304819923675
 30
0.0
 11
-20.18806783884336
 21
128.5729545968737
 31
0.0
  0
LINE
  5
349
330
17
100
AcDbEntity
  8
0
100
AcDbLine
 10
-20.18806783884336
 20
128.5729545968737
 30
0.0
 11
-20.19006706134025
 21
128.5728599941581
 31
0.0
  0
LINE
  5
34A
330
17
100
AcDbEntity
  8
0
100
AcDbLine
 10
-20.19006706134025
 20
128.5728599941581
 30
0.0
 11
-20.192066236251
 21
128.57276439111365
 31
0.0
  0
LINE
  5
34B
330
17
100
AcDbEntity
  8
0
100
AcDbLine
 10
-20.192066236251
 20
128.57276439111365
 30
0.0
 11
-20.194065363075087
 21
128.57266778776426
 31
0.0
  0
LINE
  5
34C
330
17
100
AcDbEntity
  8
0
100
AcDbLine
 10
-20.194065363075087
 20
128.57266778776426
 30
0.0
 11
-20.196064441311997
 21
128.57257018413415
 31
0.0
  0
LINE
  5
34D
330
17
100
AcDbEntity
  8
0
100
AcDbLine
 10
-20.196064441311997
 20
128.57257018413415
 30
0.0
 11
-20.198063470461225
 21
128.57247158024774
 31
0.0
  0
LINE
  5
34E
330
17
100
AcDbEntity
  8
0
100
AcDbLine
 10
-15.999999999999941
 20
124.577378231943
 30
0.0
 11
-16.00050348930444
 21
124.64084208728224
 31
0.0
  0
LINE
  5
34F
330
17
100
AcDbEntity
  8
0
100
AcDbLine
 10
-16.00050348930444
 20
124.64084208728224
 30
0.0
 11
-16.0020138304672
 21
124.70428996593527
 31
0.0
  0
LINE
  5
350
330
17
100
AcDbEntity
  8
0
100
AcDbLine
 10
-16.0020138304672
 20
124.70428996593527
 30
0.0
 11
-16.00453064326791
 21
124.76770589523797
 31
0.0
  0
LINE
  5
351
330
17
100
AcDbEntity
  8
0
100
AcDbLine
 10
-16.00453064326791
 20
124.76770589523797
 30
0.0
 11
-16.0080532941124
 21
124.83107391056926
 31
0.0
  0
LINE
  5
352
330
17
100
AcDbEntity
  8
0
100
AcDbLine
 10
-16.0080532941124
 20
124.83107391056926
 30
0.0
 11
-16.01258089619217
 21
124.89437805937015
 31
0.0
  0
LINE
  5
353
330
17
100
AcDbEntity
  8
0
100
AcDbLine
 10
-16.01258089619217
 20
124.89437805937015
 30
0.0
 11
-16.0181123097076
 21
124.95760240515973
 31
0.0
  0
LINE
  5
354
330
17
100
AcDbEntity
  8
0
100
AcDbLine
 10
-16.0181123097076
 20
124.95760240515973
 30
0.0
 11
-16.024646142154925
 21
125.02073103154704
 31
0.0
  0
LINE
  5
355
330
17
100
AcDbEntity
  8
0
100
AcDbLine
 10
-16.024646142154925
 20
125.02073103154704
 30
0.0
 11
-16.03218074867676
 21
125.083748046238
 31
0.0
  0
LINE
  5
356
330
17
100
AcDbEntity
  8
0
100
AcDbLine
 10
-16.03218074867676
 20
125.083748046238
 30
0.0
 11
-16.04071423247621
 21
125.14663758503615
 31
0.0
  0
LINE
  5
357
330
17
100
AcDbEntity
  8
0
100
AcDbLine
 10
-16.04071423247621
 20
125.14663758503615
 30
0.0
 11
-16.050244445294364
 21
125.2093838158364
 31
0.0
  0
LINE
  5
358
330
17
100
AcDbEntity
  8
0
100
AcDbLine
 10
-16.050244445294364
 20
125.2093838158364
 30
0.0
 11
-16.060768987951107
 21
125.27197094261072
 31
0.0
  0
LINE
  5
359
330
17
100
AcDbEntity
  8
0
100
AcDbLine
 10
-16.060768987951107
 20
125.27197094261072
 30
0.0
 11
-16.07228521094911
 21
125.33438320938464
 31
0.0
  0
LINE
  5
35A
330
17
100
AcDbEntity
  8
0
100
AcDbLine
 10
-16.07228521094911
 20
125.33438320938464
 30
0.0
 11
-16.084790215140824
 21
125.39660490420377
 31
0.0
  0
LINE
  5
35B
330
17
100
AcDbEntity
  8
0
100
AcDbLine
 10
-16.084790215140824
 20
125.39660490420377
 30
0.0
 11
-16.098280852458313
 21
125.45862036308917
 31
0.0
  0
LINE
  5
35C
330
17
100
AcDbEntity
  8
0
100
AcDbLine
 10
-16.098280852458313
 20
125.45862036308917
 30
0.0
 11
-16.112753726705773
 21
125.52041397398071
 31
0.0
  0
LINE
  5
35D
330
17
100
AcDbEntity
  8
0
100
AcDbLine
 10
-16.112753726705773
 20
125.52041397398071
 30
0.0
 11
-16.128205194414516
 21
125.58197018066731
 31
0.0
  0
LINE
  5
35E
330
17
100
AcDbEntity
  8
0
100
AcDbLine
 10
-16.128205194414516
 20
125.58197018066731
 30
0.0
 11
-16.144631365760173
 21
125.64327348670314
 31
0.0
  0
LINE
  5
35F
330
17
100
AcDbEntity
  8
0
100
AcDbLine
 10
-16.144631365760173
 20
125.64327348670314
 30
0.0
 11
-16.16202810554195
 21
125.70430845930872
 31
0.0
  0
LINE
  5
360
330
17
100
AcDbEntity
  8
0
100
AcDbLine
 10
-16.16202810554195
 20
125.70430845930872
 30
0.0
 11
-16.180391034223643
 21
125.7650597332561
 31
0.0
  0
LINE
  5
361
330
17
100
AcDbEntity
  8
0
100
AcDbLine
 10
-16.180391034223643
 20
125.7650597332561
 30
0.0
 11
-16.19971552903616
 21
125.82551201473694
 31
0.0
  0
LINE
  5
362
330
17
100
AcDbEntity
  8
0
100
AcDbLine
 10
-16.19971552903616
 20
125.82551201473694
 30
0.0
 11
-16.219996725141264
 21
125.88565008521269
 31
0.0
  0
LINE
  5
363
330
17
100
AcDbEntity
  8
0
100
AcDbLine
 10
-16.219996725141264
 20
125.88565008521269
 30
0.0
 11
-16.241229516856304
 21
125.94545880524568
 31
0.0
  0
LINE
  5
364
330
17
100
AcDbEntity
  8
0
100
AcDbLine
 10
-16.241229516856304
 20
125.94545880524568
 30
0.0
 11
-16.263408558939513
 21
126.00492311831049
 31
0.0
  0
LINE
  5
365
330
17
100
AcDbEntity
  8
0
100
AcDbLine
 10
-16.263408558939513
 20
126.00492311831049
 30
0.0
 11
-16.286528267935648
 21
126.06402805458431
 31
0.0
  0
LINE
  5
366
330
17
100
AcDbEntity
  8
0
100
AcDbLine
 10
-16.286528267935648
 20
126.06402805458431
 30
0.0
 11
-16.310582823581615
 21
126.12275873471552
 31
0.0
  0
LINE
  5
367
330
17
100
AcDbEntity
  8
0
100
AcDbLine
 10
-16.310582823581615
 20
126.12275873471552
 30
0.0
 11
-16.33556617027166
 21
126.18110037356945
 31
0.0
  0
LINE
  5
368
330
17
100
AcDbEntity
  8
0
100
AcDbLine
 10
-16.33556617027166
 20
126.18110037356945
 30
0.0
 11
-16.361472018581868
 21
126.23903828395055
 31
0.0
  0
LINE
  5
369
330
17
100
AcDbEntity
  8
0
100
AcDbLine
 10
-16.361472018581868
 20
126.23903828395055
 30
0.0
 11
-16.388293846853454
 21
126.29655788029969
 31
0.0
  0
LINE
  5
36A
330
17
100
AcDbEntity
  8
0
100
AcDbLine
 10
-16.388293846853454
 20
126.29655788029969
 30
0.0
 11
-16.416024902834597
 21
126.3536446823661
 31
0.0
  0
LINE
  5
36B
330
17
100
AcDbEntity
  8
0
100
AcDbLine
 10
-16.416024902834597
 20
126.3536446823661
 30
0.0
 11
-16.444658205380247
 21
126.41028431885265
 31
0.0
  0
LINE
  5
36C
330
17
100
AcDbEntity
  8
0
100
AcDbLine
 10
-16.444658205380247
 20
126.41028431885265
 30
0.0
 11
-16.474186546209612
 21
126.46646253103373
 31
0.0
  0
LINE
  5
36D
330
17
100
AcDbEntity
  8
0
100
AcDbLine
 10
-16.474186546209612
 20
126.46646253103373
 30
0.0
 11
-16.5046024917208
 21
126.52216517634487
 31
0.0
  0
LINE
  5
36E
330
17
100
AcDbEntity
  8
0
100
AcDbLine
 10
-16.5046024917208
 20
126.52216517634487
 30
0.0
 11
-16.535898384862183
 21
126.577378231943
 31
0.0
  0
LINE
  5
36F
330
17
100
AcDbEntity
  8
0
100
AcDbLine
 10
-16.535898384862183
 20
126.577378231943
 30
0.0
 11
-16.568066347060032
 21
126.63208779823663
 31
0.0
  0
LINE
  5
370
330
17
100
AcDbEntity
  8
0
100
AcDbLine
 10
-16.568066347060032
 20
126.63208779823663
 30
0.0
 11
-16.60109828020188
 21
126.68628010238501
 31
0.0
  0
LINE
  5
371
330
17
100
AcDbEntity
  8
0
100
AcDbLine
 10
-16.60109828020188
 20
126.68628010238501
 30
0.0
 11
-16.634985868675216
 21
126.73994150176539
 31
0.0
  0
LINE
  5
372
330
17
100
AcDbEntity
  8
0
100
AcDbLine
 10
-16.634985868675216
 20
126.73994150176539
 30
0.0
 11
-16.669720581460854
 21
126.79305848740744
 31
0.0
  0
LINE
  5
373
330
17
100
AcDbEntity
  8
0
100
AcDbLine
 10
-16.669720581460854
 20
126.79305848740744
 30
0.0
 11
-16.705293674280608
 21
126.84561768739408
 31
0.0
  0
LINE
  5
374
330
17
100
AcDbEntity
  8
0
100
AcDbLine
 10
-16.705293674280608
 20
126.84561768739408
 30
0.0
 11
-16.741696191798596
 21
126.89760587022779
 31
0.0
  0
LINE
  5
375
330
17
100
AcDbEntity
  8
0
100
AcDbLine
 10
-16.741696191798596
 20
126.89760587022779
 30
0.0
 11
-16.778918969875704
 21
126.94900994816156
 31
0.0
  0
LINE
  5
376
330
17
100
AcDbEntity
  8
0
100
AcDbLine
 10
-16.778918969875704
 20
126.94900994816156
 30
0.0
 11
-16.81695263787661
 21
126.99981698049366
 31
0.0
  0
LINE
  5
377
330
17
100
AcDbEntity
  8
0
100
AcDbLine
 10
-16.81695263787661
 20
126.99981698049366
 30
0.0
 11
-16.85578762102879
 21
127.05001417682543
 31
0.0
  0
LINE
  5
378
330
17
100
AcDbEntity
  8
0
100
AcDbLine
 10
-16.85578762102879
 20
127.05001417682543
 30
0.0
 11
-16.895414142832912
 21
127.09958890028109
 31
0.0
  0
LINE
  5
379
330
17
100
AcDbEntity
  8
0
100
AcDbLine
 10
-16.895414142832912
 20
127.09958890028109
 30
0.0
 11
-16.935822227524028
 21
127.14852867068916
 31
0.0
  0
LINE
  5
37A
330
17
100
AcDbEntity
  8
0
100
AcDbLine
 10
-16.935822227524028
 20
127.14852867068916
 30
0.0
 11
-16.977001702582907
 21
127.19682116772414
 31
0.0
  0
LINE
  5
37B
330
17
100
AcDbEntity
  8
0
100
AcDbLine
 10
-16.977001702582907
 20
127.19682116772414
 30
0.0
 11
-17.01894220129692
 21
127.24445423400817
 31
0.0
  0
LINE
  5
37C
330
17
100
AcDbEntity
  8
0
100
AcDbLine
 10
-17.01894220129692
 20
127.24445423400817
 30
0.0
 11
-17.061633165369805
 21
127.29141587817153
 31
0.0
  0
LINE
  5
37D
330
17
100
AcDbEntity
  8
0
100
AcDbLine
 10
-17.061633165369805
 20
127.29141587817153
 30
0.0
 11
-17.105063847579657
 21
127.33769427787145
 31
0.0
  0
LINE
  5
37E
330
17
100
AcDbEntity
  8
0
100
AcDbLine
 10
-17.105063847579657
 20
127.33769427787145
 30
0.0
 11
-17.149223314484487
 21
127.38327778276829
 31
0.0
  0
LINE
  5
37F
330
17
100
AcDbEntity
  8
0
100
AcDbLine
 10
-17.149223314484487
 20
127.38327778276829
 30
0.0
 11
-17.194100449174655
 21
127.42815491745846
 31
0.0
  0
LINE
  5
380
330
17
100
AcDbEntity
  8
0
100
AcDbLine
 10
-17.194100449174655
 20
127.42815491745846
 30
0.0
 11
-17.23968395407149
 21
127.47231438436329
 31
0.0
  0
LINE
  5
381
330
17
100
AcDbEntity
  8
0
100
AcDbLine
 10
-17.23968395407149
 20
127.47231438436329
 30
0.0
 11
-17.28596235377141
 21
127.51574506657313
 31
0.0
  0
LINE
  5
382
330
17
100
AcDbEntity
  8
0
100
AcDbLine
 10
-17.28596235377141
 20
127.51574506657313
 30
0.0
 11
-17.332923997934774
 21
127.55843603064602
 31
0.0
  0
LINE
  5
383
330
17
100
AcDbEntity
  8
0
100
AcDbLine
 10
-17.332923997934774
 20
127.55843603064602
 30
0.0
 11
-17.3805570642188
 21
127.60037652936003
 31
0.0
  0
LINE
  5
384
330
17
100
AcDbEntity
  8
0
100
AcDbLine
 10
-17.3805570642188
 20
127.60037652936003
 30
0.0
 11
-17.42884956125378
 21
127.64155600441892
 31
0.0
  0
LINE
  5
385
330
17
100
AcDbEntity
  8
0
100
AcDbLine
 10
-17.42884956125378
 20
127.64155600441892
 30
0.0
 11
-17.47778933166185
 21
127.68196408911002
 31
0.0
  0
LINE
  5
386
330
17
100
AcDbEntity
  8
0
100
AcDbLine
 10
-17.47778933166185
 20
127.68196408911002
 30
0.0
 11
-17.52736405511752
 21
127.72159061091415
 31
0.0
  0
LINE
  5
387
330
17
100
AcDbEntity
  8
0
100
AcDbLine
 10
-17.52736405511752
 20
127.72159061091415
 30
0.0
 11
-17.57756125144927
 21
127.76042559406633
 31
0.0
  0
LINE
  5
388
330
17
100
AcDbEntity
  8
0
100
AcDbLine
 10
-17.57756125144927
 20
127.76042559406633
 30
0.0
 11
-17.628368283781377
 21
127.79845926206724
 31
0.0
  0
LINE
  5
389
330
17
100
AcDbEntity
  8
0
100
AcDbLine
 10
-17.628368283781377
 20
127.79845926206724
 30
0.0
 11
-17.67977236171515
 21
127.83568204014435
 31
0.0
  0
LINE
  5
38A
330
17
100
AcDbEntity
  8
0
100
AcDbLine
 10
-17.67977236171515
 20
127.83568204014435
 30
0.0
 11
-17.731760544548855
 21
127.87208455766233
 31
0.0
  0
LINE
  5
38B
330
17
100
AcDbEntity
  8
0
100
AcDbLine
 10
-17.731760544548855
 20
127.87208455766233
 30
0.0
 11
-17.784319744535498
 21
127.9076576504821
 31
0.0
  0
LINE
  5
38C
330
17
100
AcDbEntity
  8
0
100
AcDbLine
 10
-17.784319744535498
 20
127.9076576504821
 30
0.0
 11
-17.837436730177547
 21
127.94239236326773
 31
0.0
  0
LINE
  5
38D
330
17
100
AcDbEntity
  8
0
100
AcDbLine
 10
-17.837436730177547
 20
127.94239236326773
 30
0.0
 11
-17.89109812955793
 21
127.97627995174106
 31
0.0
  0
LINE
  5
38E
330
17
100
AcDbEntity
  8
0
100
AcDbLine
 10
-17.89109812955793
 20
127.97627995174106
 30
0.0
 11
-17.945290433706315
 21
128.00931188488292
 31
0.0
  0
LINE
  5
38F
330
17
100
AcDbEntity
  8
0
100
AcDbLine
 10
-17.945290433706315
 20
128.00931188488292
 30
0.0
 11
-17.99999999999994
 21
128.04147984708075
 31
0.0
  0
LINE
  5
390
330
17
100
AcDbEntity
  8
0
100
AcDbLine
 10
-17.99999999999994
 20
128.04147984708075
 30
0.0
 11
-18.055213055598063
 21
128.07277574022214
 31
0.0
  0
LINE
  5
391
330
17
100
AcDbEntity
  8
0
100
AcDbLine
 10
-18.055213055598063
 20
128.07277574022214
 30
0.0
 11
-18.11091570090921
 21
128.10319168573332
 31
0.0
  0
LINE
  5
392
330
17
100
AcDbEntity
  8
0
100
AcDbLine
 10
-18.11091570090921
 20
128.10319168573332
 30
0.0
 11
-18.167093913090298
 21
128.1327200265627
 31
0.0
  0
LINE
  5
393
330
17
100
AcDbEntity
  8
0
100
AcDbLine
 10
-18.167093913090298
 20
128.1327200265627
 30
0.0
 11
-18.223733549576842
 21
128.16135332910835
 31
0.0
  0
LINE
  5
394
330
17
100
AcDbEntity
  8
0
100
AcDbLine
 10
-18.223733549576842
 20
128.16135332910835
 30
0.0
 11
-18.280820351643253
 21
128.18908438508947
 31
0.0
  0
LINE
  5
395
330
17
100
AcDbEntity
  8
0
100
AcDbLine
 10
-18.280820351643253
 20
128.18908438508947
 30
0.0
 11
-18.338339947992395
 21
128.21590621336108
 31
0.0
  0
LINE
  5
396
330
17
100
AcDbEntity
  8
0
100
AcDbLine
 10
-18.338339947992395
 20
128.21590621336108
 30
0.0
 11
-18.396277858373484
 21
128.24181206167128
 31
0.0
  0
LINE
  5
397
330
17
100
AcDbEntity
  8
0
100
AcDbLine
 10
-18.396277858373484
 20
128.24181206167128
 30
0.0
 11
-18.454619497227426
 21
128.26679540836133
 31
0.0
  0
LINE
  5
398
330
17
100
AcDbEntity
  8
0
100
AcDbLine
 10
-18.454619497227426
 20
128.26679540836133
 30
0.0
 11
-18.513350177358628
 21
128.2908499640073
 31
0.0
  0
LINE
  5
399
330
17
100
AcDbEntity
  8
0
100
AcDbLine
 10
-18.513350177358628
 20
128.2908499640073
 30
0.0
 11
-18.57245511363245
 21
128.31396967300344
 31
0.0
  0
LINE
  5
39A
330
17
100
AcDbEntity
  8
0
100
AcDbLine
 10
-18.57245511363245
 20
128.31396967300344
 30
0.0
 11
-18.631919426697262
 21
128.33614871508664
 31
0.0
  0
LINE
  5
39B
330
17
100
AcDbEntity
  8
0
100
AcDbLine
 10
-18.631919426697262
 20
128.33614871508664
 30
0.0
 11
-18.691728146730252
 21
128.3573815068017
 31
0.0
  0
LINE
  5
39C
330
17
100
AcDbEntity
  8
0
100
AcDbLine
 10
-18.691728146730252
 20
128.3573815068017
 30
0.0
 11
-18.751866217205993
 21
128.37766270290678
 31
0.0
  0
LINE
  5
39D
330
17
100
AcDbEntity
  8
0
100
AcDbLine
 10
-18.751866217205993
 20
128.37766270290678
 30
0.0
 11
-18.81231849868684
 21
128.39698719771928
 31
0.0
  0
LINE
  5
39E
330
17
100
AcDbEntity
  8
0
100
AcDbLine
 10
-18.81231849868684
 20
128.39698719771928
 30
0.0
 11
-18.87306977263422
 21
128.415350126401
 31
0.0
  0
LINE
  5
39F
330
17
100
AcDbEntity
  8
0
100
AcDbLine
 10
-18.87306977263422
 20
128.415350126401
 30
0.0
 11
-18.9341047452398
 21
128.43274686618278
 31
0.0
  0
LINE
  5
3A0
330
17
100
AcDbEntity
  8
0
100
AcDbLine
 10
-18.9341047452398
 20
128.43274686618278
 30
0.0
 11
-18.99540805127562
 21
128.44917303752842
 31
0.0
  0
LINE
  5
3A1
330
17
100
AcDbEntity
  8
0
100
AcDbLine
 10
-18.99540805127562
 20
128.44917303752842
 30
0.0
 11
-19.056964257962232
 21
128.46462450523717
 31
0.0
  0
LINE
  5
3A2
330
17
100
AcDbEntity
  8
0
100
AcDbLine
 10
-19.056964257962232
 20
128.46462450523717
 30
0.0
 11
-19.118757868853777
 21
128.47909737948464
 31
0.0
  0
LINE
  5
3A3
330
17
100
AcDbEntity
  8
0
100
AcDbLine
 10
-19.118757868853777
 20
128.47909737948464
 30
0.0
 11
-19.18077332773918
 21
128.4925880168021
 31
0.0
  0
LINE
  5
3A4
330
17
100
AcDbEntity
  8
0
100
AcDbLine
 10
-19.18077332773918
 20
128.4925880168021
 30
0.0
 11
-19.242995022558297
 21
128.50509302099383
 31
0.0
  0
LINE
  5
3A5
330
17
100
AcDbEntity
  8
0
100
AcDbLine
 10
-19.242995022558297
 20
128.50509302099383
 30
0.0
 11
-19.30540728933222
 21
128.51660924399184
 31
0.0
  0
LINE
  5
3A6
330
17
100
AcDbEntity
  8
0
100
AcDbLine
 10
-19.30540728933222
 20
128.51660924399184
 30
0.0
 11
-19.367994416106537
 21
128.5271337866486
 31
0.0
  0
LINE
  5
3A7
330
17
100
AcDbEntity
  8
0
100
AcDbLine
 10
-19.367994416106537
 20
128.5271337866486
 30
0.0
 11
-19.4307406469068
 21
128.53666399946673
 31
0.0
  0
LINE
  5
3A8
330
17
100
AcDbEntity
  8
0
100
AcDbLine
 10
-19.4307406469068
 20
128.53666399946673
 30
0.0
 11
-19.49363018570494
 21
128.54519748326618
 31
0.0
  0
LINE
  5
3A9
330
17
100
AcDbEntity
  8
0
100
AcDbLine
 10
-19.49363018570494
 20
128.54519748326618
 30
0.0
 11
-19.556647200395894
 21
128.552732089788
 31
0.0
  0
LINE
  5
3AA
330
17
100
AcDbEntity
  8
0
100
AcDbLine
 10
-19.556647200395894
 20
128.552732089788
 30
0.0
 11
-19.61977582678321
 21
128.55926592223534
 31
0.0
  0
LINE
  5
3AB
330
17
100
AcDbEntity
  8
0
100
AcDbLine
 10
-19.61977582678321
 20
128.55926592223534
 30
0.0
 11
-19.683000172572786
 21
128.56479733575077
 31
0.0
  0
LINE
  5
3AC
330
17
100
AcDbEntity
  8
0
100
AcDbLine
 10
-19.683000172572786
 20
128.56479733575077
 30
0.0
 11
-19.74630432137368
 21
128.56932493783054
 31
0.0
  0
LINE
  5
3AD
330
17
100
AcDbEntity
  8
0
100
AcDbLine
 10
-19.74630432137368
 20
128.56932493783054
 30
0.0
 11
-19.80967233670497
 21
128.57284758867505
 31
0.0
  0
LINE
  5
3AE
330
17
100
AcDbEntity
  8
0
100
AcDbLine
 10
-19.80967233670497
 20
128.57284758867505
 30
0.0
 11
-19.87308826600767
 21
128.57536440147575
 31
0.0
  0
LINE
  5
3AF
330
17
100
AcDbEntity
  8
0
100
AcDbLine
 10
-19.87308826600767
 20
128.57536440147575
 30
0.0
 11
-19.936536144660707
 21
128.5768747426385
 31
0.0
  0
LINE
  5
3B0
330
17
100
AcDbEntity
  8
0
100
AcDbLine
 10
-19.936536144660707
 20
128.5768747426385
 30
0.0
 11
-19.99999999999994
 21
128.577378231943
 31
0.0
  0
ENDSEC
  0
SECTION
  2
OBJECTS
  0
DICTIONARY
  5
A
330
0
100
AcDbDictionary
280
0
281
1
  3
ACAD_COLOR
350
B
  3
ACAD_GROUP
350
C
  3
ACAD_LAYOUT
350
D
  3
ACAD_MATERIAL
350
E
  3
ACAD_MLEADERSTYLE
350
F
  3
ACAD_MLINESTYLE
350
10
  3
ACAD_PLOTSETTINGS
350
11
  3
ACAD_PLOTSTYLENAME
350
12
  3
ACAD_SCALELIST
350
14
  3
ACAD_TABLESTYLE
350
15
  3
ACAD_VISUALSTYLE
350
16
  3
EZDXF_META
350
2D
  0
DICTIONARY
  5
B
330
A
100
AcDbDictionary
280
0
281
1
  0
DICTIONARY
  5
C
330
A
100
AcDbDictionary
280
0
281
1
  0
DICTIONARY
  5
D
330
A
100
AcDbDictionary
280
0
281
1
  3
Model
350
1A
  3
Layout1
350
1E
  0
DICTIONARY
  5
E
330
A
100
AcDbDictionary
280
0
281
1
  3
ByBlock
350
1F
  3
ByLayer
350
20
  3
Global
350
21
  0
DICTIONARY
  5
F
330
A
100
AcDbDictionary
280
0
281
1
  3
Standard
350
2C
  0
DICTIONARY
  5
10
330
A
100
AcDbDictionary
280
0
281
1
  3
Standard
350
22
  0
DICTIONARY
  5
11
330
A
100
AcDbDictionary
280
0
281
1
  0
ACDBDICTIONARYWDFLT
  5
12
330
A
100
AcDbDictionary
280
0
281
1
  3
Normal
350
13
100
AcDbDictionaryWithDefault
340
13
  0
ACDBPLACEHOLDER
  5
13
330
12
  0
DICTIONARY
  5
14
330
A
100
AcDbDictionary
280
0
281
1
  0
DICTIONARY
  5
15
330
A
100
AcDbDictionary
280
0
281
1
  0
DICTIONARY
  5
16
330
A
100
AcDbDictionary
280
0
281
1
  0
LAYOUT
  5
1A
330
D
100
AcDbPlotSettings
  1

  2
Adobe PDF
  4
A3
  6

 40
7.5
 41
20.0
 42
7.5
 43
20.0
 44
420.0
 45
297.0
 46
0.0
 47
0.0
 48
0.0
 49
0.0
140
0.0
141
0.0
142
1.0
143
1.0
 70
1024
 72
1
 73
0
 74
5
  7

 75
16
 76
0
 77
2
 78
300
147
1.0
148
0.0
149
0.0
100
AcDbLayout
  1
Model
 70
1
 71
0
 10
0.0
 20
0.0
 11
420.0
 21
297.0
 12
0.0
 22
0.0
 32
0.0
 14
1e+20
 24
1e+20
 34
1e+20
 15
-1e+20
 25
-1e+20
 35
-1e+20
146
0.0
 13
0.0
 23
0.0
 33
0.0
 16
1.0
 26
0.0
 36
0.0
 17
0.0
 27
1.0
 37
0.0
 76
1
330
17
  0
LAYOUT
  5
1E
330
D
100
AcDbPlotSettings
  1

  2
Adobe PDF
  4
A3
  6

 40
7.5
 41
20.0
 42
7.5
 43
20.0
 44
420.0
 45
297.0
 46
0.0
 47
0.0
 48
0.0
 49
0.0
140
0.0
141
0.0
142
1.0
143
1.0
 70
0
 72
1
 73
0
 74
5
  7

 75
16
 76
0
 77
2
 78
300
147
1.0
148
0.0
149
0.0
100
AcDbLayout
  1
Layout1
 70
1
 71
1
 10
0.0
 20
0.0
 11
420.0
 21
297.0
 12
0.0
 22
0.0
 32
0.0
 14
1e+20
 24
1e+20
 34
1e+20
 15
-1e+20
 25
-1e+20
 35
-1e+20
146
0.0
 13
0.0
 23
0.0
 33
0.0
 16
1.0
 26
0.0
 36
0.0
 17
0.0
 27
1.0
 37
0.0
 76
1
330
1B
  0
MATERIAL
  5
1F
102
{ACAD_REACTORS
330
E
102
}
330
E
100
AcDbMaterial
  1
ByBlock
  2

 70
0
 40
1.0
 71
1
 41
1.0
 91
-1023410177
 42
1.0
 72
1
  3

 73
1
 74
1
 75
1
 44
0.5
 73
0
 45
1.0
 46
1.0
 77
1
  4

 78
1
 79
1
170
1
 48
1.0
171
1
  6

172
1
173
1
174
1
140
1.0
141
1.0
175
1
  7

176
1
177
1
178
1
143
1.0
179
1
  8

270
1
271
1
272
1
145
1.0
146
1.0
273
1
  9

274
1
275
1
276
1
 42
1.0
 72
1
  3

 73
1
 74
1
 75
1
 94
63
  0
MATERIAL
  5
20
102
{ACAD_REACTORS
330
E
102
}
330
E
100
AcDbMaterial
  1
ByLayer
  2

 70
0
 40
1.0
 71
1
 41
1.0
 91
-1023410177
 42
1.0
 72
1
  3

 73
1
 74
1
 75
1
 44
0.5
 73
0
 45
1.0
 46
1.0
 77
1
  4

 78
1
 79
1
170
1
 48
1.0
171
1
  6

172
1
173
1
174
1
140
1.0
141
1.0
175
1
  7

176
1
177
1
178
1
143
1.0
179
1
  8

270
1
271
1
272
1
145
1.0
146
1.0
273
1
  9

274
1
275
1
276
1
 42
1.0
 72
1
  3

 73
1
 74
1
 75
1
 94
63
  0
MATERIAL
  5
21
102
{ACAD_REACTORS
330
E
102
}
330
E
100
AcDbMaterial
  1
Global
  2

 70
0
 40
1.0
 71
1
 41
1.0
 91
-1023410177
 42
1.0
 72
1
  3

 73
1
 74
1
 75
1
 44
0.5
 73
0
 45
1.0
 46
1.0
 77
1
  4

 78
1
 79
1
170
1
 48
1.0
171
1
  6

172
1
173
1
174
1
140
1.0
141
1.0
175
1
  7

176
1
177
1
178
1
143
1.0
179
1
  8

270
1
271
1
272
1
145
1.0
146
1.0
273
1
  9

274
1
275
1
276
1
 42
1.0
 72
1
  3

 73
1
 74
1
 75
1
 94
63
  0
MLINESTYLE
  5
22
102
{ACAD_REACTORS
330
10
102
}
330
10
100
AcDbMlineStyle
  2
Standard
 70
0
  3

 62
256
 51
90.0
 52
90.0
 71
2
 49
0.5
 62
256
  6
BYLAYER
 49
-0.5
 62
256
  6
BYLAYER
  0
MLEADERSTYLE
  5
2C
102
{ACAD_REACTORS
330
F
102
}
330
F
100
AcDbMLeaderStyle
179
2
170
2
171
1
172
0
 90
2
 40
0.0
 41
0.0
173
1
 91
-1056964608
 92
-2
290
1
 42
2.0
291
1
 43
8.0
  3
Standard
 44
4.0
300

342
29
174
1
175
1
176
0
178
1
 93
-1056964608
 45
4.0
292
0
297
0
 46
4.0
 94
-1056964608
 47
1.0
 49
1.0
140
1.0
294
1
141
0.0
177
0
142
1.0
295
0
296
0
143
3.75
271
0
272
9
273
9
  0
DICTIONARY
  5
2D
330
A
100
AcDbDictionary
281
1
  3
CREATED_BY_EZDXF
350
2E
  3
WRITTEN_BY_EZDXF
350
3B3
  0
DICTIONARYVAR
  5
2E
330
2D
100
DictionaryVariables
280
0
  1
1.0.2 @ 2023-11-27T08:45:38.388067+00:00
  0
DICTIONARYVAR
  5
3B3
330
2D
100
DictionaryVariables
280
0
  1
1.0.2 @ 2023-11-27T08:45:38.506500+00:00
  0
ENDSEC
  0
EOF
