  0
SECTION
  2
HEADER
  9
$ACADVER
  1
AC1027
  9
$ACADMAINTVER
 70
105
  9
$DWGCODEPAGE
  3
ANSI_1252
  9
$LASTSAVEDBY
  1
ezdxf
  9
$REQUIREDVERSIONS
160
0
  9
$INSBASE
 10
0.0
 20
0.0
 30
0.0
  9
$EXTMIN
 10
1e+20
 20
1e+20
 30
1e+20
  9
$EXTMAX
 10
-1e+20
 20
-1e+20
 30
-1e+20
  9
$LIMMIN
 10
0.0
 20
0.0
  9
$LIMMAX
 10
420.0
 20
297.0
  9
$ORTHOMODE
 70
0
  9
$REGENMODE
 70
1
  9
$FILLMODE
 70
1
  9
$QTEXTMODE
 70
0
  9
$MIRRTEXT
 70
1
  9
$LTSCALE
 40
1.0
  9
$ATTMODE
 70
1
  9
$TEXTSIZE
 40
2.5
  9
$TRACEWID
 40
1.0
  9
$TEXTSTYLE
  7
Standard
  9
$CLAYER
  8
0
  9
$CELTYPE
  6
ByLayer
  9
$CECOLOR
 62
256
  9
$CELTSCALE
 40
1.0
  9
$DISPSILH
 70
0
  9
$DIMSCALE
 40
1.0
  9
$DIMASZ
 40
2.5
  9
$DIMEXO
 40
0.625
  9
$DIMDLI
 40
3.75
  9
$DIMRND
 40
0.0
  9
$DIMDLE
 40
0.0
  9
$DIMEXE
 40
1.25
  9
$DIMTP
 40
0.0
  9
$DIMTM
 40
0.0
  9
$DIMTXT
 40
2.5
  9
$DIMCEN
 40
2.5
  9
$DIMTSZ
 40
0.0
  9
$DIMTOL
 70
0
  9
$DIMLIM
 70
0
  9
$DIMTIH
 70
0
  9
$DIMTOH
 70
0
  9
$DIMSE1
 70
0
  9
$DIMSE2
 70
0
  9
$DIMTAD
 70
1
  9
$DIMZIN
 70
8
  9
$DIMBLK
  1

  9
$DIMASO
 70
1
  9
$DIMSHO
 70
1
  9
$DIMPOST
  1

  9
$DIMAPOST
  1

  9
$DIMALT
 70
0
  9
$DIMALTD
 70
3
  9
$DIMALTF
 40
0.03937007874
  9
$DIMLFAC
 40
1.0
  9
$DIMTOFL
 70
1
  9
$DIMTVP
 40
0.0
  9
$DIMTIX
 70
0
  9
$DIMSOXD
 70
0
  9
$DIMSAH
 70
0
  9
$DIMBLK1
  1

  9
$DIMBLK2
  1

  9
$DIMSTYLE
  2
ISO-25
  9
$DIMCLRD
 70
0
  9
$DIMCLRE
 70
0
  9
$DIMCLRT
 70
0
  9
$DIMTFAC
 40
1.0
  9
$DIMGAP
 40
0.625
  9
$DIMJUST
 70
0
  9
$DIMSD1
 70
0
  9
$DIMSD2
 70
0
  9
$DIMTOLJ
 70
0
  9
$DIMTZIN
 70
8
  9
$DIMALTZ
 70
0
  9
$DIMALTTZ
 70
0
  9
$DIMUPT
 70
0
  9
$DIMDEC
 70
2
  9
$DIMTDEC
 70
2
  9
$DIMALTU
 70
2
  9
$DIMALTTD
 70
3
  9
$DIMTXSTY
  7
Standard
  9
$DIMAUNIT
 70
0
  9
$DIMADEC
 70
0
  9
$DIMALTRND
 40
0.0
  9
$DIMAZIN
 70
0
  9
$DIMDSEP
 70
44
  9
$DIMATFIT
 70
3
  9
$DIMFRAC
 70
0
  9
$DIMLDRBLK
  1

  9
$DIMLUNIT
 70
2
  9
$DIMLWD
 70
-2
  9
$DIMLWE
 70
-2
  9
$DIMTMOVE
 70
0
  9
$DIMFXL
 40
1.0
  9
$DIMFXLON
 70
0
  9
$DIMJOGANG
 40
0.785398163397
  9
$DIMTFILL
 70
0
  9
$DIMTFILLCLR
 70
0
  9
$DIMARCSYM
 70
0
  9
$DIMLTYPE
  6

  9
$DIMLTEX1
  6

  9
$DIMLTEX2
  6

  9
$DIMTXTDIRECTION
 70
0
  9
$LUNITS
 70
2
  9
$LUPREC
 70
4
  9
$SKETCHINC
 40
1.0
  9
$FILLETRAD
 40
10.0
  9
$AUNITS
 70
0
  9
$AUPREC
 70
2
  9
$MENU
  1
.
  9
$ELEVATION
 40
0.0
  9
$PELEVATION
 40
0.0
  9
$THICKNESS
 40
0.0
  9
$LIMCHECK
 70
0
  9
$CHAMFERA
 40
0.0
  9
$CHAMFERB
 40
0.0
  9
$CHAMFERC
 40
0.0
  9
$CHAMFERD
 40
0.0
  9
$SKPOLY
 70
0
  9
$TDCREATE
 40
2460276.0316319442
  9
$TDUCREATE
 40
2458532.153996898
  9
$TDUPDATE
 40
2460276.0316435187
  9
$TDUUPDATE
 40
2458532.1544311
  9
$TDINDWG
 40
0.0
  9
$TDUSRTIMER
 40
0.0
  9
$USRTIMER
 70
1
  9
$ANGBASE
 50
0.0
  9
$ANGDIR
 70
0
  9
$PDMODE
 70
0
  9
$PDSIZE
 40
0.0
  9
$PLINEWID
 40
0.0
  9
$SPLFRAME
 70
0
  9
$SPLINETYPE
 70
6
  9
$SPLINESEGS
 70
8
  9
$HANDSEED
  5
3B2
  9
$SURFTAB1
 70
6
  9
$SURFTAB2
 70
6
  9
$SURFTYPE
 70
6
  9
$SURFU
 70
6
  9
$SURFV
 70
6
  9
$UCSBASE
  2

  9
$UCSNAME
  2

  9
$UCSORG
 10
0.0
 20
0.0
 30
0.0
  9
$UCSXDIR
 10
1.0
 20
0.0
 30
0.0
  9
$UCSYDIR
 10
0.0
 20
1.0
 30
0.0
  9
$UCSORTHOREF
  2

  9
$UCSORTHOVIEW
 70
0
  9
$UCSORGTOP
 10
0.0
 20
0.0
 30
0.0
  9
$UCSORGBOTTOM
 10
0.0
 20
0.0
 30
0.0
  9
$UCSORGLEFT
 10
0.0
 20
0.0
 30
0.0
  9
$UCSORGRIGHT
 10
0.0
 20
0.0
 30
0.0
  9
$UCSORGFRONT
 10
0.0
 20
0.0
 30
0.0
  9
$UCSORGBACK
 10
0.0
 20
0.0
 30
0.0
  9
$PUCSBASE
  2

  9
$PUCSNAME
  2

  9
$PUCSORG
 10
0.0
 20
0.0
 30
0.0
  9
$PUCSXDIR
 10
1.0
 20
0.0
 30
0.0
  9
$PUCSYDIR
 10
0.0
 20
1.0
 30
0.0
  9
$PUCSORTHOREF
  2

  9
$PUCSORTHOVIEW
 70
0
  9
$PUCSORGTOP
 10
0.0
 20
0.0
 30
0.0
  9
$PUCSORGBOTTOM
 10
0.0
 20
0.0
 30
0.0
  9
$PUCSORGLEFT
 10
0.0
 20
0.0
 30
0.0
  9
$PUCSORGRIGHT
 10
0.0
 20
0.0
 30
0.0
  9
$PUCSORGFRONT
 10
0.0
 20
0.0
 30
0.0
  9
$PUCSORGBACK
 10
0.0
 20
0.0
 30
0.0
  9
$USERI1
 70
0
  9
$USERI2
 70
0
  9
$USERI3
 70
0
  9
$USERI4
 70
0
  9
$USERI5
 70
0
  9
$USERR1
 40
0.0
  9
$USERR2
 40
0.0
  9
$USERR3
 40
0.0
  9
$USERR4
 40
0.0
  9
$USERR5
 40
0.0
  9
$WORLDVIEW
 70
1
  9
$SHADEDGE
 70
3
  9
$SHADEDIF
 70
70
  9
$TILEMODE
 70
1
  9
$MAXACTVP
 70
64
  9
$PINSBASE
 10
0.0
 20
0.0
 30
0.0
  9
$PLIMCHECK
 70
0
  9
$PEXTMIN
 10
1e+20
 20
1e+20
 30
1e+20
  9
$PEXTMAX
 10
-1e+20
 20
-1e+20
 30
-1e+20
  9
$PLIMMIN
 10
0.0
 20
0.0
  9
$PLIMMAX
 10
420.0
 20
297.0
  9
$UNITMODE
 70
0
  9
$VISRETAIN
 70
1
  9
$PLINEGEN
 70
0
  9
$PSLTSCALE
 70
1
  9
$TREEDEPTH
 70
3020
  9
$CMLSTYLE
  2
Standard
  9
$CMLJUST
 70
0
  9
$CMLSCALE
 40
20.0
  9
$PROXYGRAPHICS
 70
1
  9
$MEASUREMENT
 70
1
  9
$CELWEIGHT
370
-1
  9
$ENDCAPS
280
0
  9
$JOINSTYLE
280
0
  9
$LWDISPLAY
290
0
  9
$INSUNITS
 70
6
  9
$HYPERLINKBASE
  1

  9
$STYLESHEET
  1

  9
$XEDIT
290
1
  9
$CEPSNTYPE
380
0
  9
$PSTYLEMODE
290
1
  9
$FINGERPRINTGUID
  2
{80A9774A-2B66-4100-9601-00399091E5FB}
  9
$VERSIONGUID
  2
{D8C40A42-234C-4C31-8D8A-F9F6E4B0D9D0}
  9
$EXTNAMES
290
1
  9
$PSVPSCALE
 40
0.0
  9
$OLESTARTUP
290
0
  9
$SORTENTS
280
127
  9
$INDEXCTL
280
0
  9
$HIDETEXT
280
1
  9
$XCLIPFRAME
280
0
  9
$HALOGAP
280
0
  9
$OBSCOLOR
 70
257
  9
$OBSLTYPE
280
0
  9
$INTERSECTIONDISPLAY
280
0
  9
$INTERSECTIONCOLOR
 70
257
  9
$DIMASSOC
280
2
  9
$PROJECTNAME
  1

  9
$CAMERADISPLAY
290
0
  9
$LENSLENGTH
 40
50.0
  9
$CAMERAHEIGHT
 40
0.0
  9
$STEPSPERSEC
 40
24.0
  9
$STEPSIZE
 40
100.0
  9
$3DDWFPREC
 40
2.0
  9
$PSOLWIDTH
 40
0.005
  9
$PSOLHEIGHT
 40
0.08
  9
$LOFTANG1
 40
1.570796326795
  9
$LOFTANG2
 40
1.570796326795
  9
$LOFTMAG1
 40
0.0
  9
$LOFTMAG2
 40
0.0
  9
$LOFTPARAM
 70
7
  9
$LOFTNORMALS
280
1
  9
$LATITUDE
 40
37.795
  9
$LONGITUDE
 40
-122.394
  9
$NORTHDIRECTION
 40
0.0
  9
$TIMEZONE
 70
-8000
  9
$LIGHTGLYPHDISPLAY
280
1
  9
$TILEMODELIGHTSYNCH
280
1
  9
$CMATERIAL
347
20
  9
$SOLIDHIST
280
0
  9
$SHOWHIST
280
1
  9
$DWFFRAME
280
2
  9
$DGNFRAME
280
2
  9
$REALWORLDSCALE
290
1
  9
$INTERFERECOLOR
 62
256
  9
$CSHADOW
280
0
  9
$SHADOWPLANELOCATION
 40
0.0
  0
ENDSEC
  0
SECTION
  2
CLASSES
  0
CLASS
  1
ACDBDICTIONARYWDFLT
  2
AcDbDictionaryWithDefault
  3
ObjectDBX Classes
 90
0
 91
0
280
0
281
0
  0
CLASS
  1
SUN
  2
AcDbSun
  3
SCENEOE
 90
1153
 91
0
280
0
281
0
  0
CLASS
  1
VISUALSTYLE
  2
AcDbVisualStyle
  3
ObjectDBX Classes
 90
4095
 91
0
280
0
281
0
  0
CLASS
  1
MATERIAL
  2
AcDbMaterial
  3
ObjectDBX Classes
 90
1153
 91
0
280
0
281
0
  0
CLASS
  1
SCALE
  2
AcDbScale
  3
ObjectDBX Classes
 90
1153
 91
0
280
0
281
0
  0
CLASS
  1
TABLESTYLE
  2
AcDbTableStyle
  3
ObjectDBX Classes
 90
4095
 91
0
280
0
281
0
  0
CLASS
  1
MLEADERSTYLE
  2
AcDbMLeaderStyle
  3
ACDB_MLEADERSTYLE_CLASS
 90
4095
 91
0
280
0
281
0
  0
CLASS
  1
DICTIONARYVAR
  2
AcDbDictionaryVar
  3
ObjectDBX Classes
 90
0
 91
0
280
0
281
0
  0
CLASS
  1
CELLSTYLEMAP
  2
AcDbCellStyleMap
  3
ObjectDBX Classes
 90
1152
 91
0
280
0
281
0
  0
CLASS
  1
MENTALRAYRENDERSETTINGS
  2
AcDbMentalRayRenderSettings
  3
SCENEOE
 90
1024
 91
0
280
0
281
0
  0
CLASS
  1
ACDBDETAILVIEWSTYLE
  2
AcDbDetailViewStyle
  3
ObjectDBX Classes
 90
1025
 91
0
280
0
281
0
  0
CLASS
  1
ACDBSECTIONVIEWSTYLE
  2
AcDbSectionViewStyle
  3
ObjectDBX Classes
 90
1025
 91
0
280
0
281
0
  0
CLASS
  1
RASTERVARIABLES
  2
AcDbRasterVariables
  3
ISM
 90
0
 91
0
280
0
281
0
  0
CLASS
  1
ACDBPLACEHOLDER
  2
AcDbPlaceHolder
  3
ObjectDBX Classes
 90
0
 91
0
280
0
281
0
  0
CLASS
  1
LAYOUT
  2
AcDbLayout
  3
ObjectDBX Classes
 90
0
 91
0
280
0
281
0
  0
ENDSEC
  0
SECTION
  2
TABLES
  0
TABLE
  2
VPORT
  5
8
330
0
100
AcDbSymbolTable
 70
1
  0
VPORT
  5
23
330
8
100
AcDbSymbolTableRecord
100
AcDbViewportTableRecord
  2
*Active
 70
0
 10
0.0
 20
0.0
 11
1.0
 21
1.0
 12
0.0
 22
0.0
 13
0.0
 23
0.0
 14
0.5
 24
0.5
 15
0.5
 25
0.5
 16
0.0
 26
0.0
 36
1.0
 17
0.0
 27
0.0
 37
0.0
 40
1000.0
 41
1.34
 42
50.0
 43
0.0
 44
0.0
 50
0.0
 51
0.0
 71
0
 72
1000
 73
1
 74
3
 75
0
 76
0
 77
0
 78
0
281
0
 65
0
146
0.0
  0
ENDTAB
  0
TABLE
  2
LTYPE
  5
2
330
0
100
AcDbSymbolTable
 70
3
  0
LTYPE
  5
24
330
2
100
AcDbSymbolTableRecord
100
AcDbLinetypeTableRecord
  2
ByBlock
 70
0
  3

 72
65
 73
0
 40
0.0
  0
LTYPE
  5
25
330
2
100
AcDbSymbolTableRecord
100
AcDbLinetypeTableRecord
  2
ByLayer
 70
0
  3

 72
65
 73
0
 40
0.0
  0
LTYPE
  5
26
330
2
100
AcDbSymbolTableRecord
100
AcDbLinetypeTableRecord
  2
Continuous
 70
0
  3

 72
65
 73
0
 40
0.0
  0
ENDTAB
  0
TABLE
  2
LAYER
  5
1
330
0
100
AcDbSymbolTable
 70
2
  0
LAYER
  5
27
330
1
100
AcDbSymbolTableRecord
100
AcDbLayerTableRecord
  2
0
 70
0
 62
7
  6
Continuous
370
-3
390
13
347
21
  0
LAYER
  5
28
330
1
100
AcDbSymbolTableRecord
100
AcDbLayerTableRecord
  2
Defpoints
 70
0
 62
7
  6
Continuous
290
0
370
-3
390
13
347
21
  0
ENDTAB
  0
TABLE
  2
STYLE
  5
5
330
0
100
AcDbSymbolTable
 70
1
  0
STYLE
  5
29
330
5
100
AcDbSymbolTableRecord
100
AcDbTextStyleTableRecord
  2
Standard
 70
0
 40
0.0
 41
1.0
 50
0.0
 71
0
 42
2.5
  3
txt
  4

  0
ENDTAB
  0
TABLE
  2
VIEW
  5
7
330
0
100
AcDbSymbolTable
 70
0
  0
ENDTAB
  0
TABLE
  2
UCS
  5
6
330
0
100
AcDbSymbolTable
 70
0
  0
ENDTAB
  0
TABLE
  2
APPID
  5
3
330
0
100
AcDbSymbolTable
 70
3
  0
APPID
  5
2A
330
3
100
AcDbSymbolTableRecord
100
AcDbRegAppTableRecord
  2
ACAD
 70
0
  0
APPID
  5
3AF
330
3
100
AcDbSymbolTableRecord
100
AcDbRegAppTableRecord
  2
HATCHBACKGROUNDCOLOR
 70
0
  0
APPID
  5
3B0
330
3
100
AcDbSymbolTableRecord
100
AcDbRegAppTableRecord
  2
EZDXF
 70
0
  0
ENDTAB
  0
TABLE
  2
DIMSTYLE
  5
4
330
0
100
AcDbSymbolTable
 70
1
100
AcDbDimStyleTable
  0
DIMSTYLE
105
2B
330
4
100
AcDbSymbolTableRecord
100
AcDbDimStyleTableRecord
  2
Standard
 70
0
 40
1.0
 41
2.5
 42
0.625
 43
3.75
 44
1.25
 45
0.0
 46
0.0
 47
0.0
 48
0.0
 49
2.5
140
2.5
141
2.5
142
0.0
143
0.03937007874
144
1.0
145
0.0
146
1.0
147
0.625
148
0.0
 69
0
 70
0
 71
0
 72
0
 73
0
 74
0
 75
0
 76
0
 77
1
 78
8
 79
3
170
0
171
3
172
1
173
0
174
0
175
0
176
0
177
0
178
0
179
2
271
2
272
2
273
2
274
3
275
0
276
0
277
2
278
44
279
0
280
0
281
0
282
0
283
0
284
8
285
0
286
0
288
0
289
3
290
0
371
-2
372
-2
  0
ENDTAB
  0
TABLE
  2
BLOCK_RECORD
  5
9
330
0
100
AcDbSymbolTable
 70
2
  0
BLOCK_RECORD
  5
17
330
9
100
AcDbSymbolTableRecord
100
AcDbBlockTableRecord
  2
*Model_Space
340
1A
 70
0
280
1
281
0
  0
BLOCK_RECORD
  5
1B
330
9
100
AcDbSymbolTableRecord
100
AcDbBlockTableRecord
  2
*Paper_Space
340
1E
 70
0
280
1
281
0
  0
ENDTAB
  0
ENDSEC
  0
SECTION
  2
BLOCKS
  0
BLOCK
  5
18
330
17
100
AcDbEntity
  8
0
100
AcDbBlockBegin
  2
*Model_Space
 70
0
 10
0.0
 20
0.0
 30
0.0
  3
*Model_Space
  1

  0
ENDBLK
  5
19
330
17
100
AcDbEntity
  8
0
100
AcDbBlockEnd
  0
BLOCK
  5
1C
330
1B
100
AcDbEntity
  8
0
100
AcDbBlockBegin
  2
*Paper_Space
 70
0
 10
0.0
 20
0.0
 30
0.0
  3
*Paper_Space
  1

  0
ENDBLK
  5
1D
330
1B
100
AcDbEntity
  8
0
100
AcDbBlockEnd
  0
ENDSEC
  0
SECTION
  2
ENTITIES
  0
LINE
  5
2F
330
17
100
AcDbEntity
  8
0
100
AcDbLine
 10
-19.99863896662408
 20
-47.7747090812297
 30
0.0
 11
-19.935175111284845
 21
-47.7742055919252
 31
0.0
  0
LINE
  5
30
330
17
100
AcDbEntity
  8
0
100
AcDbLine
 10
-19.935175111284845
 20
-47.7742055919252
 30
0.0
 11
-19.87172723263181
 21
-47.77269525076244
 31
0.0
  0
LINE
  5
31
330
17
100
AcDbEntity
  8
0
100
AcDbLine
 10
-19.87172723263181
 20
-47.77269525076244
 30
0.0
 11
-19.80831130332911
 21
-47.77017843796173
 31
0.0
  0
LINE
  5
32
330
17
100
AcDbEntity
  8
0
100
AcDbLine
 10
-19.80831130332911
 20
-47.77017843796173
 30
0.0
 11
-19.74494328799782
 21
-47.76665578711724
 31
0.0
  0
LINE
  5
33
330
17
100
AcDbEntity
  8
0
100
AcDbLine
 10
-19.74494328799782
 20
-47.76665578711724
 30
0.0
 11
-19.681639139196925
 21
-47.76212818503747
 31
0.0
  0
LINE
  5
34
330
17
100
AcDbEntity
  8
0
100
AcDbLine
 10
-19.681639139196925
 20
-47.76212818503747
 30
0.0
 11
-19.618414793407347
 21
-47.75659677152204
 31
0.0
  0
LINE
  5
35
330
17
100
AcDbEntity
  8
0
100
AcDbLine
 10
-19.618414793407347
 20
-47.75659677152204
 30
0.0
 11
-19.555286167020036
 21
-47.750062939074716
 31
0.0
  0
LINE
  5
36
330
17
100
AcDbEntity
  8
0
100
AcDbLine
 10
-19.555286167020036
 20
-47.750062939074716
 30
0.0
 11
-19.49226915232908
 21
-47.74252833255288
 31
0.0
  0
LINE
  5
37
330
17
100
AcDbEntity
  8
0
100
AcDbLine
 10
-19.49226915232908
 20
-47.74252833255288
 30
0.0
 11
-19.429379613530937
 21
-47.73399484875343
 31
0.0
  0
LINE
  5
38
330
17
100
AcDbEntity
  8
0
100
AcDbLine
 10
-19.429379613530937
 20
-47.73399484875343
 30
0.0
 11
-19.36663338273068
 21
-47.72446463593528
 31
0.0
  0
LINE
  5
39
330
17
100
AcDbEntity
  8
0
100
AcDbLine
 10
-19.36663338273068
 20
-47.72446463593528
 30
0.0
 11
-19.304046255956358
 21
-47.71394009327853
 31
0.0
  0
LINE
  5
3A
330
17
100
AcDbEntity
  8
0
100
AcDbLine
 10
-19.304046255956358
 20
-47.71394009327853
 30
0.0
 11
-19.24163398918244
 21
-47.702423870280526
 31
0.0
  0
LINE
  5
3B
330
17
100
AcDbEntity
  8
0
100
AcDbLine
 10
-19.24163398918244
 20
-47.702423870280526
 30
0.0
 11
-19.179412294363317
 21
-47.68991886608882
 31
0.0
  0
LINE
  5
3C
330
17
100
AcDbEntity
  8
0
100
AcDbLine
 10
-19.179412294363317
 20
-47.68991886608882
 30
0.0
 11
-19.117396835477916
 21
-47.67642822877133
 31
0.0
  0
LINE
  5
3D
330
17
100
AcDbEntity
  8
0
100
AcDbLine
 10
-19.117396835477916
 20
-47.67642822877133
 30
0.0
 11
-19.05560322458637
 21
-47.66195535452387
 31
0.0
  0
LINE
  5
3E
330
17
100
AcDbEntity
  8
0
100
AcDbLine
 10
-19.05560322458637
 20
-47.66195535452387
 30
0.0
 11
-18.99404701789976
 21
-47.646503886815125
 31
0.0
  0
LINE
  5
3F
330
17
100
AcDbEntity
  8
0
100
AcDbLine
 10
-18.99404701789976
 20
-47.646503886815125
 30
0.0
 11
-18.93274371186394
 21
-47.63007771546947
 31
0.0
  0
LINE
  5
40
330
17
100
AcDbEntity
  8
0
100
AcDbLine
 10
-18.93274371186394
 20
-47.63007771546947
 30
0.0
 11
-18.87170873925836
 21
-47.61268097568769
 31
0.0
  0
LINE
  5
41
330
17
100
AcDbEntity
  8
0
100
AcDbLine
 10
-18.87170873925836
 20
-47.61268097568769
 30
0.0
 11
-18.810957465310977
 21
-47.594318047006
 31
0.0
  0
LINE
  5
42
330
17
100
AcDbEntity
  8
0
100
AcDbLine
 10
-18.810957465310977
 20
-47.594318047006
 30
0.0
 11
-18.75050518383013
 21
-47.57499355219348
 31
0.0
  0
LINE
  5
43
330
17
100
AcDbEntity
  8
0
100
AcDbLine
 10
-18.75050518383013
 20
-47.57499355219348
 30
0.0
 11
-18.69036711335439
 21
-47.55471235608837
 31
0.0
  0
LINE
  5
44
330
17
100
AcDbEntity
  8
0
100
AcDbLine
 10
-18.69036711335439
 20
-47.55471235608837
 30
0.0
 11
-18.630558393321405
 21
-47.53347956437334
 31
0.0
  0
LINE
  5
45
330
17
100
AcDbEntity
  8
0
100
AcDbLine
 10
-18.630558393321405
 20
-47.53347956437334
 30
0.0
 11
-18.57109408025659
 21
-47.51130052229013
 31
0.0
  0
LINE
  5
46
330
17
100
AcDbEntity
  8
0
100
AcDbLine
 10
-18.57109408025659
 20
-47.51130052229013
 30
0.0
 11
-18.511989143982767
 21
-47.488180813293994
 31
0.0
  0
LINE
  5
47
330
17
100
AcDbEntity
  8
0
100
AcDbLine
 10
-18.511989143982767
 20
-47.488180813293994
 30
0.0
 11
-18.453258463851565
 21
-47.464126257648026
 31
0.0
  0
LINE
  5
48
330
17
100
AcDbEntity
  8
0
100
AcDbLine
 10
-18.453258463851565
 20
-47.464126257648026
 30
0.0
 11
-18.394916824997622
 21
-47.43914291095798
 31
0.0
  0
LINE
  5
49
330
17
100
AcDbEntity
  8
0
100
AcDbLine
 10
-18.394916824997622
 20
-47.43914291095798
 30
0.0
 11
-18.336978914616534
 21
-47.413237062647774
 31
0.0
  0
LINE
  5
4A
330
17
100
AcDbEntity
  8
0
100
AcDbLine
 10
-18.336978914616534
 20
-47.413237062647774
 30
0.0
 11
-18.279459318267392
 21
-47.38641523437619
 31
0.0
  0
LINE
  5
4B
330
17
100
AcDbEntity
  8
0
100
AcDbLine
 10
-18.279459318267392
 20
-47.38641523437619
 30
0.0
 11
-18.22237251620098
 21
-47.358684178395045
 31
0.0
  0
LINE
  5
4C
330
17
100
AcDbEntity
  8
0
100
AcDbLine
 10
-18.22237251620098
 20
-47.358684178395045
 30
0.0
 11
-18.165732879714437
 21
-47.330050875849395
 31
0.0
  0
LINE
  5
4D
330
17
100
AcDbEntity
  8
0
100
AcDbLine
 10
-18.165732879714437
 20
-47.330050875849395
 30
0.0
 11
-18.10955466753335
 21
-47.30052253502003
 31
0.0
  0
LINE
  5
4E
330
17
100
AcDbEntity
  8
0
100
AcDbLine
 10
-18.10955466753335
 20
-47.30052253502003
 30
0.0
 11
-18.053852022222202
 21
-47.27010658950884
 31
0.0
  0
LINE
  5
4F
330
17
100
AcDbEntity
  8
0
100
AcDbLine
 10
-18.053852022222202
 20
-47.27010658950884
 30
0.0
 11
-17.99863896662408
 21
-47.23881069636746
 31
0.0
  0
LINE
  5
50
330
17
100
AcDbEntity
  8
0
100
AcDbLine
 10
-17.99863896662408
 20
-47.23881069636746
 30
0.0
 11
-17.943929400330454
 21
-47.20664273416961
 31
0.0
  0
LINE
  5
51
330
17
100
AcDbEntity
  8
0
100
AcDbLine
 10
-17.943929400330454
 20
-47.20664273416961
 30
0.0
 11
-17.889737096182067
 21
-47.173610801027756
 31
0.0
  0
LINE
  5
52
330
17
100
AcDbEntity
  8
0
100
AcDbLine
 10
-17.889737096182067
 20
-47.173610801027756
 30
0.0
 11
-17.83607569680169
 21
-47.13972321255443
 31
0.0
  0
LINE
  5
53
330
17
100
AcDbEntity
  8
0
100
AcDbLine
 10
-17.83607569680169
 20
-47.13972321255443
 30
0.0
 11
-17.782958711159637
 21
-47.10498849976879
 31
0.0
  0
LINE
  5
54
330
17
100
AcDbEntity
  8
0
100
AcDbLine
 10
-17.782958711159637
 20
-47.10498849976879
 30
0.0
 11
-17.730399511172994
 21
-47.069415406949034
 31
0.0
  0
LINE
  5
55
330
17
100
AcDbEntity
  8
0
100
AcDbLine
 10
-17.730399511172994
 20
-47.069415406949034
 30
0.0
 11
-17.678411328339287
 21
-47.03301288943104
 31
0.0
  0
LINE
  5
56
330
17
100
AcDbEntity
  8
0
100
AcDbLine
 10
-17.678411328339287
 20
-47.03301288943104
 30
0.0
 11
-17.627007250405516
 21
-46.995790111353934
 31
0.0
  0
LINE
  5
57
330
17
100
AcDbEntity
  8
0
100
AcDbLine
 10
-17.627007250405516
 20
-46.995790111353934
 30
0.0
 11
-17.57620021807341
 21
-46.95775644335303
 31
0.0
  0
LINE
  5
58
330
17
100
AcDbEntity
  8
0
100
AcDbLine
 10
-17.57620021807341
 20
-46.95775644335303
 30
0.0
 11
-17.52600302174166
 21
-46.91892146020085
 31
0.0
  0
LINE
  5
59
330
17
100
AcDbEntity
  8
0
100
AcDbLine
 10
-17.52600302174166
 20
-46.91892146020085
 30
0.0
 11
-17.476428298285988
 21
-46.879294938396725
 31
0.0
  0
LINE
  5
5A
330
17
100
AcDbEntity
  8
0
100
AcDbLine
 10
-17.476428298285988
 20
-46.879294938396725
 30
0.0
 11
-17.42748852787792
 21
-46.83888685370562
 31
0.0
  0
LINE
  5
5B
330
17
100
AcDbEntity
  8
0
100
AcDbLine
 10
-17.42748852787792
 20
-46.83888685370562
 30
0.0
 11
-17.379196030842937
 21
-46.797707378646734
 31
0.0
  0
LINE
  5
5C
330
17
100
AcDbEntity
  8
0
100
AcDbLine
 10
-17.379196030842937
 20
-46.797707378646734
 30
0.0
 11
-17.331562964558913
 21
-46.75576687993272
 31
0.0
  0
LINE
  5
5D
330
17
100
AcDbEntity
  8
0
100
AcDbLine
 10
-17.331562964558913
 20
-46.75576687993272
 30
0.0
 11
-17.28460132039555
 21
-46.71307591585983
 31
0.0
  0
LINE
  5
5E
330
17
100
AcDbEntity
  8
0
100
AcDbLine
 10
-17.28460132039555
 20
-46.71307591585983
 30
0.0
 11
-17.23832292069563
 21
-46.66964523364998
 31
0.0
  0
LINE
  5
5F
330
17
100
AcDbEntity
  8
0
100
AcDbLine
 10
-17.23832292069563
 20
-46.66964523364998
 30
0.0
 11
-17.192739415798794
 21
-46.62548576674515
 31
0.0
  0
LINE
  5
60
330
17
100
AcDbEntity
  8
0
100
AcDbLine
 10
-17.192739415798794
 20
-46.62548576674515
 30
0.0
 11
-17.147862281108626
 21
-46.58060863205499
 31
0.0
  0
LINE
  5
61
330
17
100
AcDbEntity
  8
0
100
AcDbLine
 10
-17.147862281108626
 20
-46.58060863205499
 30
0.0
 11
-17.1037028142038
 21
-46.53502512715815
 31
0.0
  0
LINE
  5
62
330
17
100
AcDbEntity
  8
0
100
AcDbLine
 10
-17.1037028142038
 20
-46.53502512715815
 30
0.0
 11
-17.060272131993944
 21
-46.48874672745823
 31
0.0
  0
LINE
  5
63
330
17
100
AcDbEntity
  8
0
100
AcDbLine
 10
-17.060272131993944
 20
-46.48874672745823
 30
0.0
 11
-17.01758116792106
 21
-46.44178508329487
 31
0.0
  0
LINE
  5
64
330
17
100
AcDbEntity
  8
0
100
AcDbLine
 10
-17.01758116792106
 20
-46.44178508329487
 30
0.0
 11
-16.975640669207046
 21
-46.39415201701084
 31
0.0
  0
LINE
  5
65
330
17
100
AcDbEntity
  8
0
100
AcDbLine
 10
-16.975640669207046
 20
-46.39415201701084
 30
0.0
 11
-16.934461194148167
 21
-46.34585951997586
 31
0.0
  0
LINE
  5
66
330
17
100
AcDbEntity
  8
0
100
AcDbLine
 10
-16.934461194148167
 20
-46.34585951997586
 30
0.0
 11
-16.89405310945705
 21
-46.29691974956779
 31
0.0
  0
LINE
  5
67
330
17
100
AcDbEntity
  8
0
100
AcDbLine
 10
-16.89405310945705
 20
-46.29691974956779
 30
0.0
 11
-16.854426587652927
 21
-46.24734502611212
 31
0.0
  0
LINE
  5
68
330
17
100
AcDbEntity
  8
0
100
AcDbLine
 10
-16.854426587652927
 20
-46.24734502611212
 30
0.0
 11
-16.81559160450075
 21
-46.19714782978037
 31
0.0
  0
LINE
  5
69
330
17
100
AcDbEntity
  8
0
100
AcDbLine
 10
-16.81559160450075
 20
-46.19714782978037
 30
0.0
 11
-16.777557936499843
 21
-46.14634079744826
 31
0.0
  0
LINE
  5
6A
330
17
100
AcDbEntity
  8
0
100
AcDbLine
 10
-16.777557936499843
 20
-46.14634079744826
 30
0.0
 11
-16.740335158422734
 21
-46.09493671951449
 31
0.0
  0
LINE
  5
6B
330
17
100
AcDbEntity
  8
0
100
AcDbLine
 10
-16.740335158422734
 20
-46.09493671951449
 30
0.0
 11
-16.703932640904746
 21
-46.04294853668078
 31
0.0
  0
LINE
  5
6C
330
17
100
AcDbEntity
  8
0
100
AcDbLine
 10
-16.703932640904746
 20
-46.04294853668078
 30
0.0
 11
-16.668359548084993
 21
-45.99038933669414
 31
0.0
  0
LINE
  5
6D
330
17
100
AcDbEntity
  8
0
100
AcDbLine
 10
-16.668359548084993
 20
-45.99038933669414
 30
0.0
 11
-16.633624835299354
 21
-45.937272351052094
 31
0.0
  0
LINE
  5
6E
330
17
100
AcDbEntity
  8
0
100
AcDbLine
 10
-16.633624835299354
 20
-45.937272351052094
 30
0.0
 11
-16.59973724682602
 21
-45.88361095167171
 31
0.0
  0
LINE
  5
6F
330
17
100
AcDbEntity
  8
0
100
AcDbLine
 10
-16.59973724682602
 20
-45.88361095167171
 30
0.0
 11
-16.56670531368417
 21
-45.829418647523326
 31
0.0
  0
LINE
  5
70
330
17
100
AcDbEntity
  8
0
100
AcDbLine
 10
-16.56670531368417
 20
-45.829418647523326
 30
0.0
 11
-16.534537351486325
 21
-45.7747090812297
 31
0.0
  0
LINE
  5
71
330
17
100
AcDbEntity
  8
0
100
AcDbLine
 10
-16.534537351486325
 20
-45.7747090812297
 30
0.0
 11
-16.503241458344938
 21
-45.71949602563158
 31
0.0
  0
LINE
  5
72
330
17
100
AcDbEntity
  8
0
100
AcDbLine
 10
-16.503241458344938
 20
-45.71949602563158
 30
0.0
 11
-16.47282551283375
 21
-45.663793380320435
 31
0.0
  0
LINE
  5
73
330
17
100
AcDbEntity
  8
0
100
AcDbLine
 10
-16.47282551283375
 20
-45.663793380320435
 30
0.0
 11
-16.443297172004385
 21
-45.60761516813935
 31
0.0
  0
LINE
  5
74
330
17
100
AcDbEntity
  8
0
100
AcDbLine
 10
-16.443297172004385
 20
-45.60761516813935
 30
0.0
 11
-16.414663869458735
 21
-45.550975531652796
 31
0.0
  0
LINE
  5
75
330
17
100
AcDbEntity
  8
0
100
AcDbLine
 10
-16.414663869458735
 20
-45.550975531652796
 30
0.0
 11
-16.386932813477593
 21
-45.49388872958639
 31
0.0
  0
LINE
  5
76
330
17
100
AcDbEntity
  8
0
100
AcDbLine
 10
-16.386932813477593
 20
-45.49388872958639
 30
0.0
 11
-16.360110985206006
 21
-45.43636913323725
 31
0.0
  0
LINE
  5
77
330
17
100
AcDbEntity
  8
0
100
AcDbLine
 10
-16.360110985206006
 20
-45.43636913323725
 30
0.0
 11
-16.3342051368958
 21
-45.37843122285616
 31
0.0
  0
LINE
  5
78
330
17
100
AcDbEntity
  8
0
100
AcDbLine
 10
-16.3342051368958
 20
-45.37843122285616
 30
0.0
 11
-16.309221790205754
 21
-45.32008958400222
 31
0.0
  0
LINE
  5
79
330
17
100
AcDbEntity
  8
0
100
AcDbLine
 10
-16.309221790205754
 20
-45.32008958400222
 30
0.0
 11
-16.285167234559786
 21
-45.26135890387101
 31
0.0
  0
LINE
  5
7A
330
17
100
AcDbEntity
  8
0
100
AcDbLine
 10
-16.285167234559786
 20
-45.26135890387101
 30
0.0
 11
-16.262047525563652
 21
-45.20225396759719
 31
0.0
  0
LINE
  5
7B
330
17
100
AcDbEntity
  8
0
100
AcDbLine
 10
-16.262047525563652
 20
-45.20225396759719
 30
0.0
 11
-16.239868483480446
 21
-45.14278965453238
 31
0.0
  0
LINE
  5
7C
330
17
100
AcDbEntity
  8
0
100
AcDbLine
 10
-16.239868483480446
 20
-45.14278965453238
 30
0.0
 11
-16.218635691765403
 21
-45.08298093449939
 31
0.0
  0
LINE
  5
7D
330
17
100
AcDbEntity
  8
0
100
AcDbLine
 10
-16.218635691765403
 20
-45.08298093449939
 30
0.0
 11
-16.198354495660297
 21
-45.02284286402365
 31
0.0
  0
LINE
  5
7E
330
17
100
AcDbEntity
  8
0
100
AcDbLine
 10
-16.198354495660297
 20
-45.02284286402365
 30
0.0
 11
-16.17903000084778
 21
-44.9623905825428
 31
0.0
  0
LINE
  5
7F
330
17
100
AcDbEntity
  8
0
100
AcDbLine
 10
-16.17903000084778
 20
-44.9623905825428
 30
0.0
 11
-16.16066707216609
 21
-44.90163930859542
 31
0.0
  0
LINE
  5
80
330
17
100
AcDbEntity
  8
0
100
AcDbLine
 10
-16.16066707216609
 20
-44.90163930859542
 30
0.0
 11
-16.14327033238431
 21
-44.840604335989845
 31
0.0
  0
LINE
  5
81
330
17
100
AcDbEntity
  8
0
100
AcDbLine
 10
-16.14327033238431
 20
-44.840604335989845
 30
0.0
 11
-16.126844161038655
 21
-44.77930102995402
 31
0.0
  0
LINE
  5
82
330
17
100
AcDbEntity
  8
0
100
AcDbLine
 10
-16.126844161038655
 20
-44.77930102995402
 30
0.0
 11
-16.11139269332991
 21
-44.71774482326741
 31
0.0
  0
LINE
  5
83
330
17
100
AcDbEntity
  8
0
100
AcDbLine
 10
-16.11139269332991
 20
-44.71774482326741
 30
0.0
 11
-16.09691981908245
 21
-44.65595121237587
 31
0.0
  0
LINE
  5
84
330
17
100
AcDbEntity
  8
0
100
AcDbLine
 10
-16.09691981908245
 20
-44.65595121237587
 30
0.0
 11
-16.083429181764963
 21
-44.59393575349046
 31
0.0
  0
LINE
  5
85
330
17
100
AcDbEntity
  8
0
100
AcDbLine
 10
-16.083429181764963
 20
-44.59393575349046
 30
0.0
 11
-16.07092417757325
 21
-44.53171405867134
 31
0.0
  0
LINE
  5
86
330
17
100
AcDbEntity
  8
0
100
AcDbLine
 10
-16.07092417757325
 20
-44.53171405867134
 30
0.0
 11
-16.059407954575246
 21
-44.46930179189742
 31
0.0
  0
LINE
  5
87
330
17
100
AcDbEntity
  8
0
100
AcDbLine
 10
-16.059407954575246
 20
-44.46930179189742
 30
0.0
 11
-16.048883411918503
 21
-44.406714665123104
 31
0.0
  0
LINE
  5
88
330
17
100
AcDbEntity
  8
0
100
AcDbLine
 10
-16.048883411918503
 20
-44.406714665123104
 30
0.0
 11
-16.039353199100347
 21
-44.343968434322846
 31
0.0
  0
LINE
  5
89
330
17
100
AcDbEntity
  8
0
100
AcDbLine
 10
-16.039353199100347
 20
-44.343968434322846
 30
0.0
 11
-16.030819715300897
 21
-44.2810788955247
 31
0.0
  0
LINE
  5
8A
330
17
100
AcDbEntity
  8
0
100
AcDbLine
 10
-16.030819715300897
 20
-44.2810788955247
 30
0.0
 11
-16.023285108779064
 21
-44.218061880833744
 31
0.0
  0
LINE
  5
8B
330
17
100
AcDbEntity
  8
0
100
AcDbLine
 10
-16.023285108779064
 20
-44.218061880833744
 30
0.0
 11
-16.01675127633174
 21
-44.15493325444643
 31
0.0
  0
LINE
  5
8C
330
17
100
AcDbEntity
  8
0
100
AcDbLine
 10
-16.01675127633174
 20
-44.15493325444643
 30
0.0
 11
-16.011219862816308
 21
-44.091708908656855
 31
0.0
  0
LINE
  5
8D
330
17
100
AcDbEntity
  8
0
100
AcDbLine
 10
-16.011219862816308
 20
-44.091708908656855
 30
0.0
 11
-16.00669226073654
 21
-44.02840475985596
 31
0.0
  0
LINE
  5
8E
330
17
100
AcDbEntity
  8
0
100
AcDbLine
 10
-16.00669226073654
 20
-44.02840475985596
 30
0.0
 11
-16.003169609892048
 21
-43.965036744524674
 31
0.0
  0
LINE
  5
8F
330
17
100
AcDbEntity
  8
0
100
AcDbLine
 10
-16.003169609892048
 20
-43.965036744524674
 30
0.0
 11
-16.000652797091337
 21
-43.901620815221975
 31
0.0
  0
LINE
  5
90
330
17
100
AcDbEntity
  8
0
100
AcDbLine
 10
-16.000652797091337
 20
-43.901620815221975
 30
0.0
 11
-15.99914245592858
 21
-43.83817293656893
 31
0.0
  0
LINE
  5
91
330
17
100
AcDbEntity
  8
0
100
AcDbLine
 10
-15.99914245592858
 20
-43.83817293656893
 30
0.0
 11
-15.99863896662408
 21
-43.7747090812297
 31
0.0
  0
LINE
  5
92
330
17
100
AcDbEntity
  8
0
100
AcDbLine
 10
-15.998638966624027
 20
43.7747090812301
 30
0.0
 11
-15.998638966624105
 21
-43.7747090812297
 31
0.0
  0
LINE
  5
93
330
17
100
AcDbEntity
  8
0
100
AcDbLine
 10
-15.99863896662408
 20
43.7747090812301
 30
0.0
 11
-15.99914245592858
 21
43.83817293656933
 31
0.0
  0
LINE
  5
94
330
17
100
AcDbEntity
  8
0
100
AcDbLine
 10
-15.99914245592858
 20
43.83817293656933
 30
0.0
 11
-16.000652797091337
 21
43.90162081522237
 31
0.0
  0
LINE
  5
95
330
17
100
AcDbEntity
  8
0
100
AcDbLine
 10
-16.000652797091337
 20
43.90162081522237
 30
0.0
 11
-16.003169609892048
 21
43.96503674452507
 31
0.0
  0
LINE
  5
96
330
17
100
AcDbEntity
  8
0
100
AcDbLine
 10
-16.003169609892048
 20
43.96503674452507
 30
0.0
 11
-16.00669226073654
 21
44.02840475985636
 31
0.0
  0
LINE
  5
97
330
17
100
AcDbEntity
  8
0
100
AcDbLine
 10
-16.00669226073654
 20
44.02840475985636
 30
0.0
 11
-16.011219862816308
 21
44.09170890865725
 31
0.0
  0
LINE
  5
98
330
17
100
AcDbEntity
  8
0
100
AcDbLine
 10
-16.011219862816308
 20
44.09170890865725
 30
0.0
 11
-16.01675127633174
 21
44.15493325444683
 31
0.0
  0
LINE
  5
99
330
17
100
AcDbEntity
  8
0
100
AcDbLine
 10
-16.01675127633174
 20
44.15493325444683
 30
0.0
 11
-16.023285108779064
 21
44.21806188083414
 31
0.0
  0
LINE
  5
9A
330
17
100
AcDbEntity
  8
0
100
AcDbLine
 10
-16.023285108779064
 20
44.21806188083414
 30
0.0
 11
-16.030819715300897
 21
44.2810788955251
 31
0.0
  0
LINE
  5
9B
330
17
100
AcDbEntity
  8
0
100
AcDbLine
 10
-16.030819715300897
 20
44.2810788955251
 30
0.0
 11
-16.039353199100347
 21
44.34396843432324
 31
0.0
  0
LINE
  5
9C
330
17
100
AcDbEntity
  8
0
100
AcDbLine
 10
-16.039353199100347
 20
44.34396843432324
 30
0.0
 11
-16.048883411918503
 21
44.4067146651235
 31
0.0
  0
LINE
  5
9D
330
17
100
AcDbEntity
  8
0
100
AcDbLine
 10
-16.048883411918503
 20
44.4067146651235
 30
0.0
 11
-16.059407954575246
 21
44.46930179189782
 31
0.0
  0
LINE
  5
9E
330
17
100
AcDbEntity
  8
0
100
AcDbLine
 10
-16.059407954575246
 20
44.46930179189782
 30
0.0
 11
-16.07092417757325
 21
44.53171405867174
 31
0.0
  0
LINE
  5
9F
330
17
100
AcDbEntity
  8
0
100
AcDbLine
 10
-16.07092417757325
 20
44.53171405867174
 30
0.0
 11
-16.083429181764963
 21
44.59393575349086
 31
0.0
  0
LINE
  5
A0
330
17
100
AcDbEntity
  8
0
100
AcDbLine
 10
-16.083429181764963
 20
44.59393575349086
 30
0.0
 11
-16.09691981908245
 21
44.65595121237626
 31
0.0
  0
LINE
  5
A1
330
17
100
AcDbEntity
  8
0
100
AcDbLine
 10
-16.09691981908245
 20
44.65595121237626
 30
0.0
 11
-16.11139269332991
 21
44.71774482326781
 31
0.0
  0
LINE
  5
A2
330
17
100
AcDbEntity
  8
0
100
AcDbLine
 10
-16.11139269332991
 20
44.71774482326781
 30
0.0
 11
-16.126844161038655
 21
44.77930102995442
 31
0.0
  0
LINE
  5
A3
330
17
100
AcDbEntity
  8
0
100
AcDbLine
 10
-16.126844161038655
 20
44.77930102995442
 30
0.0
 11
-16.14327033238431
 21
44.840604335990236
 31
0.0
  0
LINE
  5
A4
330
17
100
AcDbEntity
  8
0
100
AcDbLine
 10
-16.14327033238431
 20
44.840604335990236
 30
0.0
 11
-16.16066707216609
 21
44.90163930859582
 31
0.0
  0
LINE
  5
A5
330
17
100
AcDbEntity
  8
0
100
AcDbLine
 10
-16.16066707216609
 20
44.90163930859582
 30
0.0
 11
-16.17903000084778
 21
44.9623905825432
 31
0.0
  0
LINE
  5
A6
330
17
100
AcDbEntity
  8
0
100
AcDbLine
 10
-16.17903000084778
 20
44.9623905825432
 30
0.0
 11
-16.198354495660297
 21
45.02284286402405
 31
0.0
  0
LINE
  5
A7
330
17
100
AcDbEntity
  8
0
100
AcDbLine
 10
-16.198354495660297
 20
45.02284286402405
 30
0.0
 11
-16.218635691765403
 21
45.08298093449979
 31
0.0
  0
LINE
  5
A8
330
17
100
AcDbEntity
  8
0
100
AcDbLine
 10
-16.218635691765403
 20
45.08298093449979
 30
0.0
 11
-16.239868483480443
 21
45.14278965453278
 31
0.0
  0
LINE
  5
A9
330
17
100
AcDbEntity
  8
0
100
AcDbLine
 10
-16.239868483480443
 20
45.14278965453278
 30
0.0
 11
-16.262047525563652
 21
45.202253967597585
 31
0.0
  0
LINE
  5
AA
330
17
100
AcDbEntity
  8
0
100
AcDbLine
 10
-16.262047525563652
 20
45.202253967597585
 30
0.0
 11
-16.285167234559786
 21
45.26135890387141
 31
0.0
  0
LINE
  5
AB
330
17
100
AcDbEntity
  8
0
100
AcDbLine
 10
-16.285167234559786
 20
45.26135890387141
 30
0.0
 11
-16.309221790205754
 21
45.320089584002616
 31
0.0
  0
LINE
  5
AC
330
17
100
AcDbEntity
  8
0
100
AcDbLine
 10
-16.309221790205754
 20
45.320089584002616
 30
0.0
 11
-16.3342051368958
 21
45.378431222856555
 31
0.0
  0
LINE
  5
AD
330
17
100
AcDbEntity
  8
0
100
AcDbLine
 10
-16.3342051368958
 20
45.378431222856555
 30
0.0
 11
-16.360110985206006
 21
45.43636913323765
 31
0.0
  0
LINE
  5
AE
330
17
100
AcDbEntity
  8
0
100
AcDbLine
 10
-16.360110985206006
 20
45.43636913323765
 30
0.0
 11
-16.386932813477593
 21
45.493888729586786
 31
0.0
  0
LINE
  5
AF
330
17
100
AcDbEntity
  8
0
100
AcDbLine
 10
-16.386932813477593
 20
45.493888729586786
 30
0.0
 11
-16.414663869458735
 21
45.550975531653194
 31
0.0
  0
LINE
  5
B0
330
17
100
AcDbEntity
  8
0
100
AcDbLine
 10
-16.414663869458735
 20
45.550975531653194
 30
0.0
 11
-16.443297172004385
 21
45.60761516813974
 31
0.0
  0
LINE
  5
B1
330
17
100
AcDbEntity
  8
0
100
AcDbLine
 10
-16.443297172004385
 20
45.60761516813974
 30
0.0
 11
-16.47282551283375
 21
45.66379338032083
 31
0.0
  0
LINE
  5
B2
330
17
100
AcDbEntity
  8
0
100
AcDbLine
 10
-16.47282551283375
 20
45.66379338032083
 30
0.0
 11
-16.503241458344938
 21
45.719496025631976
 31
0.0
  0
LINE
  5
B3
330
17
100
AcDbEntity
  8
0
100
AcDbLine
 10
-16.503241458344938
 20
45.719496025631976
 30
0.0
 11
-16.53453735148632
 21
45.7747090812301
 31
0.0
  0
LINE
  5
B4
330
17
100
AcDbEntity
  8
0
100
AcDbLine
 10
-16.53453735148632
 20
45.7747090812301
 30
0.0
 11
-16.56670531368417
 21
45.829418647523724
 31
0.0
  0
LINE
  5
B5
330
17
100
AcDbEntity
  8
0
100
AcDbLine
 10
-16.56670531368417
 20
45.829418647523724
 30
0.0
 11
-16.59973724682602
 21
45.88361095167211
 31
0.0
  0
LINE
  5
B6
330
17
100
AcDbEntity
  8
0
100
AcDbLine
 10
-16.59973724682602
 20
45.88361095167211
 30
0.0
 11
-16.633624835299354
 21
45.93727235105249
 31
0.0
  0
LINE
  5
B7
330
17
100
AcDbEntity
  8
0
100
AcDbLine
 10
-16.633624835299354
 20
45.93727235105249
 30
0.0
 11
-16.668359548084993
 21
45.99038933669454
 31
0.0
  0
LINE
  5
B8
330
17
100
AcDbEntity
  8
0
100
AcDbLine
 10
-16.668359548084993
 20
45.99038933669454
 30
0.0
 11
-16.703932640904746
 21
46.04294853668118
 31
0.0
  0
LINE
  5
B9
330
17
100
AcDbEntity
  8
0
100
AcDbLine
 10
-16.703932640904746
 20
46.04294853668118
 30
0.0
 11
-16.740335158422734
 21
46.09493671951489
 31
0.0
  0
LINE
  5
BA
330
17
100
AcDbEntity
  8
0
100
AcDbLine
 10
-16.740335158422734
 20
46.09493671951489
 30
0.0
 11
-16.777557936499843
 21
46.14634079744866
 31
0.0
  0
LINE
  5
BB
330
17
100
AcDbEntity
  8
0
100
AcDbLine
 10
-16.777557936499843
 20
46.14634079744866
 30
0.0
 11
-16.81559160450075
 21
46.19714782978077
 31
0.0
  0
LINE
  5
BC
330
17
100
AcDbEntity
  8
0
100
AcDbLine
 10
-16.81559160450075
 20
46.19714782978077
 30
0.0
 11
-16.854426587652927
 21
46.24734502611252
 31
0.0
  0
LINE
  5
BD
330
17
100
AcDbEntity
  8
0
100
AcDbLine
 10
-16.854426587652927
 20
46.24734502611252
 30
0.0
 11
-16.89405310945705
 21
46.29691974956819
 31
0.0
  0
LINE
  5
BE
330
17
100
AcDbEntity
  8
0
100
AcDbLine
 10
-16.89405310945705
 20
46.29691974956819
 30
0.0
 11
-16.934461194148167
 21
46.34585951997626
 31
0.0
  0
LINE
  5
BF
330
17
100
AcDbEntity
  8
0
100
AcDbLine
 10
-16.934461194148167
 20
46.34585951997626
 30
0.0
 11
-16.975640669207046
 21
46.39415201701124
 31
0.0
  0
LINE
  5
C0
330
17
100
AcDbEntity
  8
0
100
AcDbLine
 10
-16.975640669207046
 20
46.39415201701124
 30
0.0
 11
-17.01758116792106
 21
46.441785083295265
 31
0.0
  0
LINE
  5
C1
330
17
100
AcDbEntity
  8
0
100
AcDbLine
 10
-17.01758116792106
 20
46.441785083295265
 30
0.0
 11
-17.060272131993944
 21
46.488746727458626
 31
0.0
  0
LINE
  5
C2
330
17
100
AcDbEntity
  8
0
100
AcDbLine
 10
-17.060272131993944
 20
46.488746727458626
 30
0.0
 11
-17.103702814203796
 21
46.53502512715855
 31
0.0
  0
LINE
  5
C3
330
17
100
AcDbEntity
  8
0
100
AcDbLine
 10
-17.103702814203796
 20
46.53502512715855
 30
0.0
 11
-17.147862281108626
 21
46.58060863205539
 31
0.0
  0
LINE
  5
C4
330
17
100
AcDbEntity
  8
0
100
AcDbLine
 10
-17.147862281108626
 20
46.58060863205539
 30
0.0
 11
-17.192739415798794
 21
46.62548576674555
 31
0.0
  0
LINE
  5
C5
330
17
100
AcDbEntity
  8
0
100
AcDbLine
 10
-17.192739415798794
 20
46.62548576674555
 30
0.0
 11
-17.23832292069563
 21
46.66964523365038
 31
0.0
  0
LINE
  5
C6
330
17
100
AcDbEntity
  8
0
100
AcDbLine
 10
-17.23832292069563
 20
46.66964523365038
 30
0.0
 11
-17.28460132039555
 21
46.71307591586023
 31
0.0
  0
LINE
  5
C7
330
17
100
AcDbEntity
  8
0
100
AcDbLine
 10
-17.28460132039555
 20
46.71307591586023
 30
0.0
 11
-17.331562964558913
 21
46.75576687993312
 31
0.0
  0
LINE
  5
C8
330
17
100
AcDbEntity
  8
0
100
AcDbLine
 10
-17.331562964558913
 20
46.75576687993312
 30
0.0
 11
-17.379196030842937
 21
46.79770737864713
 31
0.0
  0
LINE
  5
C9
330
17
100
AcDbEntity
  8
0
100
AcDbLine
 10
-17.379196030842937
 20
46.79770737864713
 30
0.0
 11
-17.42748852787792
 21
46.838886853706015
 31
0.0
  0
LINE
  5
CA
330
17
100
AcDbEntity
  8
0
100
AcDbLine
 10
-17.42748852787792
 20
46.838886853706015
 30
0.0
 11
-17.476428298285988
 21
46.87929493839712
 31
0.0
  0
LINE
  5
CB
330
17
100
AcDbEntity
  8
0
100
AcDbLine
 10
-17.476428298285988
 20
46.87929493839712
 30
0.0
 11
-17.52600302174166
 21
46.91892146020125
 31
0.0
  0
LINE
  5
CC
330
17
100
AcDbEntity
  8
0
100
AcDbLine
 10
-17.52600302174166
 20
46.91892146020125
 30
0.0
 11
-17.57620021807341
 21
46.95775644335343
 31
0.0
  0
LINE
  5
CD
330
17
100
AcDbEntity
  8
0
100
AcDbLine
 10
-17.57620021807341
 20
46.95775644335343
 30
0.0
 11
-17.627007250405516
 21
46.99579011135433
 31
0.0
  0
LINE
  5
CE
330
17
100
AcDbEntity
  8
0
100
AcDbLine
 10
-17.627007250405516
 20
46.99579011135433
 30
0.0
 11
-17.678411328339287
 21
47.03301288943144
 31
0.0
  0
LINE
  5
CF
330
17
100
AcDbEntity
  8
0
100
AcDbLine
 10
-17.678411328339287
 20
47.03301288943144
 30
0.0
 11
-17.730399511172994
 21
47.06941540694943
 31
0.0
  0
LINE
  5
D0
330
17
100
AcDbEntity
  8
0
100
AcDbLine
 10
-17.730399511172994
 20
47.06941540694943
 30
0.0
 11
-17.782958711159637
 21
47.104988499769185
 31
0.0
  0
LINE
  5
D1
330
17
100
AcDbEntity
  8
0
100
AcDbLine
 10
-17.782958711159637
 20
47.104988499769185
 30
0.0
 11
-17.836075696801686
 21
47.13972321255483
 31
0.0
  0
LINE
  5
D2
330
17
100
AcDbEntity
  8
0
100
AcDbLine
 10
-17.836075696801686
 20
47.13972321255483
 30
0.0
 11
-17.889737096182067
 21
47.173610801028154
 31
0.0
  0
LINE
  5
D3
330
17
100
AcDbEntity
  8
0
100
AcDbLine
 10
-17.889737096182067
 20
47.173610801028154
 30
0.0
 11
-17.943929400330454
 21
47.20664273417001
 31
0.0
  0
LINE
  5
D4
330
17
100
AcDbEntity
  8
0
100
AcDbLine
 10
-17.943929400330454
 20
47.20664273417001
 30
0.0
 11
-17.99863896662408
 21
47.23881069636786
 31
0.0
  0
LINE
  5
D5
330
17
100
AcDbEntity
  8
0
100
AcDbLine
 10
-17.99863896662408
 20
47.23881069636786
 30
0.0
 11
-18.053852022222202
 21
47.27010658950924
 31
0.0
  0
LINE
  5
D6
330
17
100
AcDbEntity
  8
0
100
AcDbLine
 10
-18.053852022222202
 20
47.27010658950924
 30
0.0
 11
-18.10955466753335
 21
47.30052253502043
 31
0.0
  0
LINE
  5
D7
330
17
100
AcDbEntity
  8
0
100
AcDbLine
 10
-18.10955466753335
 20
47.30052253502043
 30
0.0
 11
-18.165732879714437
 21
47.33005087584979
 31
0.0
  0
LINE
  5
D8
330
17
100
AcDbEntity
  8
0
100
AcDbLine
 10
-18.165732879714437
 20
47.33005087584979
 30
0.0
 11
-18.22237251620098
 21
47.35868417839544
 31
0.0
  0
LINE
  5
D9
330
17
100
AcDbEntity
  8
0
100
AcDbLine
 10
-18.22237251620098
 20
47.35868417839544
 30
0.0
 11
-18.279459318267392
 21
47.386415234376585
 31
0.0
  0
LINE
  5
DA
330
17
100
AcDbEntity
  8
0
100
AcDbLine
 10
-18.279459318267392
 20
47.386415234376585
 30
0.0
 11
-18.336978914616534
 21
47.41323706264817
 31
0.0
  0
LINE
  5
DB
330
17
100
AcDbEntity
  8
0
100
AcDbLine
 10
-18.336978914616534
 20
47.41323706264817
 30
0.0
 11
-18.394916824997622
 21
47.43914291095838
 31
0.0
  0
LINE
  5
DC
330
17
100
AcDbEntity
  8
0
100
AcDbLine
 10
-18.394916824997622
 20
47.43914291095838
 30
0.0
 11
-18.453258463851565
 21
47.464126257648424
 31
0.0
  0
LINE
  5
DD
330
17
100
AcDbEntity
  8
0
100
AcDbLine
 10
-18.453258463851565
 20
47.464126257648424
 30
0.0
 11
-18.511989143982767
 21
47.48818081329439
 31
0.0
  0
LINE
  5
DE
330
17
100
AcDbEntity
  8
0
100
AcDbLine
 10
-18.511989143982767
 20
47.48818081329439
 30
0.0
 11
-18.57109408025659
 21
47.511300522290526
 31
0.0
  0
LINE
  5
DF
330
17
100
AcDbEntity
  8
0
100
AcDbLine
 10
-18.57109408025659
 20
47.511300522290526
 30
0.0
 11
-18.6305583933214
 21
47.533479564373735
 31
0.0
  0
LINE
  5
E0
330
17
100
AcDbEntity
  8
0
100
AcDbLine
 10
-18.6305583933214
 20
47.533479564373735
 30
0.0
 11
-18.69036711335439
 21
47.55471235608877
 31
0.0
  0
LINE
  5
E1
330
17
100
AcDbEntity
  8
0
100
AcDbLine
 10
-18.69036711335439
 20
47.55471235608877
 30
0.0
 11
-18.750505183830132
 21
47.57499355219388
 31
0.0
  0
LINE
  5
E2
330
17
100
AcDbEntity
  8
0
100
AcDbLine
 10
-18.750505183830132
 20
47.57499355219388
 30
0.0
 11
-18.810957465310977
 21
47.5943180470064
 31
0.0
  0
LINE
  5
E3
330
17
100
AcDbEntity
  8
0
100
AcDbLine
 10
-18.810957465310977
 20
47.5943180470064
 30
0.0
 11
-18.87170873925836
 21
47.612680975688086
 31
0.0
  0
LINE
  5
E4
330
17
100
AcDbEntity
  8
0
100
AcDbLine
 10
-18.87170873925836
 20
47.612680975688086
 30
0.0
 11
-18.93274371186394
 21
47.63007771546987
 31
0.0
  0
LINE
  5
E5
330
17
100
AcDbEntity
  8
0
100
AcDbLine
 10
-18.93274371186394
 20
47.63007771546987
 30
0.0
 11
-18.99404701789976
 21
47.64650388681552
 31
0.0
  0
LINE
  5
E6
330
17
100
AcDbEntity
  8
0
100
AcDbLine
 10
-18.99404701789976
 20
47.64650388681552
 30
0.0
 11
-19.05560322458637
 21
47.66195535452427
 31
0.0
  0
LINE
  5
E7
330
17
100
AcDbEntity
  8
0
100
AcDbLine
 10
-19.05560322458637
 20
47.66195535452427
 30
0.0
 11
-19.117396835477916
 21
47.67642822877173
 31
0.0
  0
LINE
  5
E8
330
17
100
AcDbEntity
  8
0
100
AcDbLine
 10
-19.117396835477916
 20
47.67642822877173
 30
0.0
 11
-19.179412294363317
 21
47.689918866089215
 31
0.0
  0
LINE
  5
E9
330
17
100
AcDbEntity
  8
0
100
AcDbLine
 10
-19.179412294363317
 20
47.689918866089215
 30
0.0
 11
-19.241633989182436
 21
47.702423870280924
 31
0.0
  0
LINE
  5
EA
330
17
100
AcDbEntity
  8
0
100
AcDbLine
 10
-19.241633989182436
 20
47.702423870280924
 30
0.0
 11
-19.304046255956358
 21
47.713940093278936
 31
0.0
  0
LINE
  5
EB
330
17
100
AcDbEntity
  8
0
100
AcDbLine
 10
-19.304046255956358
 20
47.713940093278936
 30
0.0
 11
-19.366633382730676
 21
47.724464635935675
 31
0.0
  0
LINE
  5
EC
330
17
100
AcDbEntity
  8
0
100
AcDbLine
 10
-19.366633382730676
 20
47.724464635935675
 30
0.0
 11
-19.429379613530937
 21
47.73399484875383
 31
0.0
  0
LINE
  5
ED
330
17
100
AcDbEntity
  8
0
100
AcDbLine
 10
-19.429379613530937
 20
47.73399484875383
 30
0.0
 11
-19.49226915232908
 21
47.74252833255328
 31
0.0
  0
LINE
  5
EE
330
17
100
AcDbEntity
  8
0
100
AcDbLine
 10
-19.49226915232908
 20
47.74252833255328
 30
0.0
 11
-19.555286167020032
 21
47.750062939075114
 31
0.0
  0
LINE
  5
EF
330
17
100
AcDbEntity
  8
0
100
AcDbLine
 10
-19.555286167020032
 20
47.750062939075114
 30
0.0
 11
-19.61841479340735
 21
47.75659677152244
 31
0.0
  0
LINE
  5
F0
330
17
100
AcDbEntity
  8
0
100
AcDbLine
 10
-19.61841479340735
 20
47.75659677152244
 30
0.0
 11
-19.681639139196925
 21
47.76212818503787
 31
0.0
  0
LINE
  5
F1
330
17
100
AcDbEntity
  8
0
100
AcDbLine
 10
-19.681639139196925
 20
47.76212818503787
 30
0.0
 11
-19.74494328799782
 21
47.766655787117635
 31
0.0
  0
LINE
  5
F2
330
17
100
AcDbEntity
  8
0
100
AcDbLine
 10
-19.74494328799782
 20
47.766655787117635
 30
0.0
 11
-19.80831130332911
 21
47.77017843796213
 31
0.0
  0
LINE
  5
F3
330
17
100
AcDbEntity
  8
0
100
AcDbLine
 10
-19.80831130332911
 20
47.77017843796213
 30
0.0
 11
-19.87172723263181
 21
47.77269525076284
 31
0.0
  0
LINE
  5
F4
330
17
100
AcDbEntity
  8
0
100
AcDbLine
 10
-19.87172723263181
 20
47.77269525076284
 30
0.0
 11
-19.935175111284845
 21
47.7742055919256
 31
0.0
  0
LINE
  5
F5
330
17
100
AcDbEntity
  8
0
100
AcDbLine
 10
-19.935175111284845
 20
47.7742055919256
 30
0.0
 11
-19.99863896662408
 21
47.7747090812301
 31
0.0
  0
LINE
  5
F6
330
17
100
AcDbEntity
  8
0
100
AcDbLine
 10
-19.99863896662408
 20
47.7747090812301
 30
0.0
 11
-20.020521943401523
 21
47.77464922269814
 31
0.0
  0
LINE
  5
F7
330
17
100
AcDbEntity
  8
0
100
AcDbLine
 10
-20.020521943401523
 20
47.77464922269814
 30
0.0
 11
-20.042404265237536
 21
47.77446964889378
 31
0.0
  0
LINE
  5
F8
330
17
100
AcDbEntity
  8
0
100
AcDbLine
 10
-20.042404265237536
 20
47.77446964889378
 30
0.0
 11
-20.064285277210285
 21
47.77417036519153
 31
0.0
  0
LINE
  5
F9
330
17
100
AcDbEntity
  8
0
100
AcDbLine
 10
-20.064285277210285
 20
47.77417036519153
 30
0.0
 11
-20.086164324437146
 21
47.77375138054874
 31
0.0
  0
LINE
  5
FA
330
17
100
AcDbEntity
  8
0
100
AcDbLine
 10
-20.086164324437146
 20
47.77375138054874
 30
0.0
 11
-20.10804075209429
 21
47.7732127075053
 31
0.0
  0
LINE
  5
FB
330
17
100
AcDbEntity
  8
0
100
AcDbLine
 10
-20.10804075209429
 20
47.7732127075053
 30
0.0
 11
-20.1299139054363
 21
47.77255436218331
 31
0.0
  0
LINE
  5
FC
330
17
100
AcDbEntity
  8
0
100
AcDbLine
 10
-20.1299139054363
 20
47.77255436218331
 30
0.0
 11
-20.151783129815747
 21
47.77177636428656
 31
0.0
  0
LINE
  5
FD
330
17
100
AcDbEntity
  8
0
100
AcDbLine
 10
-20.151783129815747
 20
47.77177636428656
 30
0.0
 11
-20.173647770702804
 21
47.77087873709995
 31
0.0
  0
LINE
  5
FE
330
17
100
AcDbEntity
  8
0
100
AcDbLine
 10
-20.173647770702804
 20
47.77087873709995
 30
0.0
 11
-20.195507173704815
 21
47.769861507488805
 31
0.0
  0
LINE
  5
FF
330
17
100
AcDbEntity
  8
0
100
AcDbLine
 10
-20.195507173704815
 20
47.769861507488805
 30
0.0
 11
-20.21736068458589
 21
47.768724705898066
 31
0.0
  0
LINE
  5
100
330
17
100
AcDbEntity
  8
0
100
AcDbLine
 10
-20.21736068458589
 20
47.768724705898066
 30
0.0
 11
-20.239207649286495
 21
47.767468366351366
 31
0.0
  0
LINE
  5
101
330
17
100
AcDbEntity
  8
0
100
AcDbLine
 10
-20.239207649286495
 20
47.767468366351366
 30
0.0
 11
-20.26104741394301
 21
47.766092526450024
 31
0.0
  0
LINE
  5
102
330
17
100
AcDbEntity
  8
0
100
AcDbLine
 10
-20.26104741394301
 20
47.766092526450024
 30
0.0
 11
-20.282879324907306
 21
47.76459722737192
 31
0.0
  0
LINE
  5
103
330
17
100
AcDbEntity
  8
0
100
AcDbLine
 10
-20.282879324907306
 20
47.76459722737192
 30
0.0
 11
-20.30470272876632
 21
47.76298251387026
 31
0.0
  0
LINE
  5
104
330
17
100
AcDbEntity
  8
0
100
AcDbLine
 10
-20.30470272876632
 20
47.76298251387026
 30
0.0
 11
-20.32651697236159
 21
47.76124843427223
 31
0.0
  0
LINE
  5
105
330
17
100
AcDbEntity
  8
0
100
AcDbLine
 10
-20.32651697236159
 20
47.76124843427223
 30
0.0
 11
-20.348321402808818
 21
47.759395040477564
 31
0.0
  0
LINE
  5
106
330
17
100
AcDbEntity
  8
0
100
AcDbLine
 10
-20.348321402808818
 20
47.759395040477564
 30
0.0
 11
-20.3701153675174
 21
47.75742238795698
 31
0.0
  0
LINE
  5
107
330
17
100
AcDbEntity
  8
0
100
AcDbLine
 10
-20.3701153675174
 20
47.75742238795698
 30
0.0
 11
-20.39189821420998
 21
47.75533053575051
 31
0.0
  0
LINE
  5
108
330
17
100
AcDbEntity
  8
0
100
AcDbLine
 10
-20.39189821420998
 20
47.75533053575051
 30
0.0
 11
-20.413669290941936
 21
47.75311954646576
 31
0.0
  0
LINE
  5
109
330
17
100
AcDbEntity
  8
0
100
AcDbLine
 10
-20.413669290941936
 20
47.75311954646576
 30
0.0
 11
-20.435427946120928
 21
47.75078948627602
 31
0.0
  0
LINE
  5
10A
330
17
100
AcDbEntity
  8
0
100
AcDbLine
 10
-20.435427946120928
 20
47.75078948627602
 30
0.0
 11
-20.457173528526372
 21
47.74834042491827
 31
0.0
  0
LINE
  5
10B
330
17
100
AcDbEntity
  8
0
100
AcDbLine
 10
-20.457173528526372
 20
47.74834042491827
 30
0.0
 11
-20.478905387328954
 21
47.74577243569114
 31
0.0
  0
LINE
  5
10C
330
17
100
AcDbEntity
  8
0
100
AcDbLine
 10
-20.478905387328954
 20
47.74577243569114
 30
0.0
 11
-20.50062287211009
 21
47.743085595452634
 31
0.0
  0
LINE
  5
10D
330
17
100
AcDbEntity
  8
0
100
AcDbLine
 10
-20.50062287211009
 20
47.743085595452634
 30
0.0
 11
-20.5223253328814
 21
47.740279984617935
 31
0.0
  0
LINE
  5
10E
330
17
100
AcDbEntity
  8
0
100
AcDbLine
 10
-20.5223253328814
 20
47.740279984617935
 30
0.0
 11
-20.544012120104163
 21
47.7373556871569
 31
0.0
  0
LINE
  5
10F
330
17
100
AcDbEntity
  8
0
100
AcDbLine
 10
-20.544012120104163
 20
47.7373556871569
 30
0.0
 11
-20.56568258470876
 21
47.73431279059161
 31
0.0
  0
LINE
  5
110
330
17
100
AcDbEntity
  8
0
100
AcDbLine
 10
-20.56568258470876
 20
47.73431279059161
 30
0.0
 11
-20.587336078114085
 21
47.731151385993726
 31
0.0
  0
LINE
  5
111
330
17
100
AcDbEntity
  8
0
100
AcDbLine
 10
-20.587336078114085
 20
47.731151385993726
 30
0.0
 11
-20.608971952246982
 21
47.727871567981765
 31
0.0
  0
LINE
  5
112
330
17
100
AcDbEntity
  8
0
100
AcDbLine
 10
-20.608971952246982
 20
47.727871567981765
 30
0.0
 11
-20.630589559561614
 21
47.72447343471828
 31
0.0
  0
LINE
  5
113
330
17
100
AcDbEntity
  8
0
100
AcDbLine
 10
-20.630589559561614
 20
47.72447343471828
 30
0.0
 11
-20.652188253058863
 21
47.720957087906896
 31
0.0
  0
LINE
  5
114
330
17
100
AcDbEntity
  8
0
100
AcDbLine
 10
-20.652188253058863
 20
47.720957087906896
 30
0.0
 11
-20.673767386305688
 21
47.7173226327893
 31
0.0
  0
LINE
  5
115
330
17
100
AcDbEntity
  8
0
100
AcDbLine
 10
-20.673767386305688
 20
47.7173226327893
 30
0.0
 11
-20.695326313454466
 21
47.71357017814205
 31
0.0
  0
LINE
  5
116
330
17
100
AcDbEntity
  8
0
100
AcDbLine
 10
-20.695326313454466
 20
47.71357017814205
 30
0.0
 11
-20.71686438926234
 21
47.70969983627338
 31
0.0
  0
LINE
  5
117
330
17
100
AcDbEntity
  8
0
100
AcDbLine
 10
-20.71686438926234
 20
47.70969983627338
 30
0.0
 11
-20.738380969110505
 21
47.70571172301977
 31
0.0
  0
LINE
  5
118
330
17
100
AcDbEntity
  8
0
100
AcDbLine
 10
-20.738380969110505
 20
47.70571172301977
 30
0.0
 11
-20.75987540902352
 21
47.70160595774252
 31
0.0
  0
LINE
  5
119
330
17
100
AcDbEntity
  8
0
100
AcDbLine
 10
-20.75987540902352
 20
47.70160595774252
 30
0.0
 11
-20.781347065688575
 21
47.697382663324184
 31
0.0
  0
LINE
  5
11A
330
17
100
AcDbEntity
  8
0
100
AcDbLine
 10
-20.781347065688575
 20
47.697382663324184
 30
0.0
 11
-20.80279529647475
 21
47.69304196616485
 31
0.0
  0
LINE
  5
11B
330
17
100
AcDbEntity
  8
0
100
AcDbLine
 10
-20.80279529647475
 20
47.69304196616485
 30
0.0
 11
-20.824219459452237
 21
47.68858399617841
 31
0.0
  0
LINE
  5
11C
330
17
100
AcDbEntity
  8
0
100
AcDbLine
 10
-20.824219459452237
 20
47.68858399617841
 30
0.0
 11
-20.845618913411567
 21
47.68400888678862
 31
0.0
  0
LINE
  5
11D
330
17
100
AcDbEntity
  8
0
100
AcDbLine
 10
-20.845618913411567
 20
47.68400888678862
 30
0.0
 11
-20.86699301788279
 21
47.67931677492515
 31
0.0
  0
LINE
  5
11E
330
17
100
AcDbEntity
  8
0
100
AcDbLine
 10
-20.86699301788279
 20
47.67931677492515
 30
0.0
 11
-20.888341133154647
 21
47.67450780101947
 31
0.0
  0
LINE
  5
11F
330
17
100
AcDbEntity
  8
0
100
AcDbLine
 10
-20.888341133154647
 20
47.67450780101947
 30
0.0
 11
-20.90966262029372
 21
47.669582109000636
 31
0.0
  0
LINE
  5
120
330
17
100
AcDbEntity
  8
0
100
AcDbLine
 10
-20.90966262029372
 20
47.669582109000636
 30
0.0
 11
-20.93095684116355
 21
47.66453984629099
 31
0.0
  0
LINE
  5
121
330
17
100
AcDbEntity
  8
0
100
AcDbLine
 10
-20.93095684116355
 20
47.66453984629099
 30
0.0
 11
-20.95222315844373
 21
47.65938116380176
 31
0.0
  0
LINE
  5
122
330
17
100
AcDbEntity
  8
0
100
AcDbLine
 10
-20.95222315844373
 20
47.65938116380176
 30
0.0
 11
-20.973460935649
 21
47.65410621592853
 31
0.0
  0
LINE
  5
123
330
17
100
AcDbEntity
  8
0
100
AcDbLine
 10
-20.973460935649
 20
47.65410621592853
 30
0.0
 11
-20.994669537148276
 21
47.6487151605466
 31
0.0
  0
LINE
  5
124
330
17
100
AcDbEntity
  8
0
100
AcDbLine
 10
-20.994669537148276
 20
47.6487151605466
 30
0.0
 11
-21.015848328183683
 21
47.64320815900633
 31
0.0
  0
LINE
  5
125
330
17
100
AcDbEntity
  8
0
100
AcDbLine
 10
-21.015848328183683
 20
47.64320815900633
 30
0.0
 11
-21.03699667488955
 21
47.6375853761282
 31
0.0
  0
LINE
  5
126
330
17
100
AcDbEntity
  8
0
100
AcDbLine
 10
-21.03699667488955
 20
47.6375853761282
 30
0.0
 11
-21.058113944311383
 21
47.631846980198
 31
0.0
  0
LINE
  5
127
330
17
100
AcDbEntity
  8
0
100
AcDbLine
 10
-21.058113944311383
 20
47.631846980198
 30
0.0
 11
-21.079199504424807
 21
47.62599314296169
 31
0.0
  0
LINE
  5
128
330
17
100
AcDbEntity
  8
0
100
AcDbLine
 10
-21.079199504424807
 20
47.62599314296169
 30
0.0
 11
-21.10025272415449
 21
47.62002403962034
 31
0.0
  0
LINE
  5
129
330
17
100
AcDbEntity
  8
0
100
AcDbLine
 10
-21.10025272415449
 20
47.62002403962034
 30
0.0
 11
-21.121272973393015
 21
47.61393984882481
 31
0.0
  0
LINE
  5
12A
330
17
100
AcDbEntity
  8
0
100
AcDbLine
 10
-21.121272973393015
 20
47.61393984882481
 30
0.0
 11
-21.142259623019754
 21
47.607740752670495
 31
0.0
  0
LINE
  5
12B
330
17
100
AcDbEntity
  8
0
100
AcDbLine
 10
-21.142259623019754
 20
47.607740752670495
 30
0.0
 11
-21.163212044919685
 21
47.60142693669176
 31
0.0
  0
LINE
  5
12C
330
17
100
AcDbEntity
  8
0
100
AcDbLine
 10
-21.163212044919685
 20
47.60142693669176
 30
0.0
 11
-21.184129612002206
 21
47.5949985898565
 31
0.0
  0
LINE
  5
12D
330
17
100
AcDbEntity
  8
0
100
AcDbLine
 10
-21.184129612002206
 20
47.5949985898565
 30
0.0
 11
-21.20501169821988
 21
47.58845590456042
 31
0.0
  0
LINE
  5
12E
330
17
100
AcDbEntity
  8
0
100
AcDbLine
 10
-21.20501169821988
 20
47.58845590456042
 30
0.0
 11
-21.2258576785872
 21
47.58179907662127
 31
0.0
  0
LINE
  5
12F
330
17
100
AcDbEntity
  8
0
100
AcDbLine
 10
-21.2258576785872
 20
47.58179907662127
 30
0.0
 11
-21.246666929199275
 21
47.57502830527305
 31
0.0
  0
LINE
  5
130
330
17
100
AcDbEntity
  8
0
100
AcDbLine
 10
-21.246666929199275
 20
47.57502830527305
 30
0.0
 11
-21.267438827250505
 21
47.568143793159955
 31
0.0
  0
LINE
  5
131
330
17
100
AcDbEntity
  8
0
100
AcDbLine
 10
-21.267438827250505
 20
47.568143793159955
 30
0.0
 11
-21.28817275105323
 21
47.56114574633039
 31
0.0
  0
LINE
  5
132
330
17
100
AcDbEntity
  8
0
100
AcDbLine
 10
-21.28817275105323
 20
47.56114574633039
 30
0.0
 11
-21.30886808005633
 21
47.55403437423076
 31
0.0
  0
LINE
  5
133
330
17
100
AcDbEntity
  8
0
100
AcDbLine
 10
-21.30886808005633
 20
47.55403437423076
 30
0.0
 11
-21.329524194863804
 21
47.546809889699205
 31
0.0
  0
LINE
  5
134
330
17
100
AcDbEntity
  8
0
100
AcDbLine
 10
-21.329524194863804
 20
47.546809889699205
 30
0.0
 11
-21.350140477253287
 21
47.53947250895925
 31
0.0
  0
LINE
  5
135
330
17
100
AcDbEntity
  8
0
100
AcDbLine
 10
-21.350140477253287
 20
47.53947250895925
 30
0.0
 11
-21.37071631019459
 21
47.532022451613315
 31
0.0
  0
LINE
  5
136
330
17
100
AcDbEntity
  8
0
100
AcDbLine
 10
-21.37071631019459
 20
47.532022451613315
 30
0.0
 11
-21.391251077868127
 21
47.52445994063615
 31
0.0
  0
LINE
  5
137
330
17
100
AcDbEntity
  8
0
100
AcDbLine
 10
-21.391251077868127
 20
47.52445994063615
 30
0.0
 11
-21.411744165683384
 21
47.51678520236815
 31
0.0
  0
LINE
  5
138
330
17
100
AcDbEntity
  8
0
100
AcDbLine
 10
-21.411744165683384
 20
47.51678520236815
 30
0.0
 11
-21.432194960297277
 21
47.508998466508594
 31
0.0
  0
LINE
  5
139
330
17
100
AcDbEntity
  8
0
100
AcDbLine
 10
-21.432194960297277
 20
47.508998466508594
 30
0.0
 11
-21.452602849632537
 21
47.50109996610879
 31
0.0
  0
LINE
  5
13A
330
17
100
AcDbEntity
  8
0
100
AcDbLine
 10
-21.452602849632537
 20
47.50109996610879
 30
0.0
 11
-21.472967222896017
 21
47.49308993756504
 31
0.0
  0
LINE
  5
13B
330
17
100
AcDbEntity
  8
0
100
AcDbLine
 10
-21.472967222896017
 20
47.49308993756504
 30
0.0
 11
-21.493287470596975
 21
47.484968620611625
 31
0.0
  0
LINE
  5
13C
330
17
100
AcDbEntity
  8
0
100
AcDbLine
 10
-21.493287470596975
 20
47.484968620611625
 30
0.0
 11
-21.513562984565308
 21
47.47673625831359
 31
0.0
  0
LINE
  5
13D
330
17
100
AcDbEntity
  8
0
100
AcDbLine
 10
-21.513562984565308
 20
47.47673625831359
 30
0.0
 11
-21.533793157969768
 21
47.46839309705952
 31
0.0
  0
LINE
  5
13E
330
17
100
AcDbEntity
  8
0
100
AcDbLine
 10
-21.533793157969768
 20
47.46839309705952
 30
0.0
 11
-21.553977385336115
 21
47.45993938655409
 31
0.0
  0
LINE
  5
13F
330
17
100
AcDbEntity
  8
0
100
AcDbLine
 10
-21.553977385336115
 20
47.45993938655409
 30
0.0
 11
-21.57411506256524
 21
47.45137537981065
 31
0.0
  0
LINE
  5
140
330
17
100
AcDbEntity
  8
0
100
AcDbLine
 10
-21.57411506256524
 20
47.45137537981065
 30
0.0
 11
-21.59420558695124
 21
47.44270133314364
 31
0.0
  0
LINE
  5
141
330
17
100
AcDbEntity
  8
0
100
AcDbLine
 10
-21.59420558695124
 20
47.44270133314364
 30
0.0
 11
-21.614248357199475
 21
47.43391750616091
 31
0.0
  0
LINE
  5
142
330
17
100
AcDbEntity
  8
0
100
AcDbLine
 10
-21.614248357199475
 20
47.43391750616091
 30
0.0
 11
-21.634242773444537
 21
47.42502416175595
 31
0.0
  0
LINE
  5
143
330
17
100
AcDbEntity
  8
0
100
AcDbLine
 10
-21.634242773444537
 20
47.42502416175595
 30
0.0
 11
-21.65418823726823
 21
47.41602156610003
 31
0.0
  0
LINE
  5
144
330
17
100
AcDbEntity
  8
0
100
AcDbLine
 10
-21.65418823726823
 20
47.41602156610003
 30
0.0
 11
-21.67408415171745
 21
47.40690998863423
 31
0.0
  0
LINE
  5
145
330
17
100
AcDbEntity
  8
0
100
AcDbLine
 10
-21.67408415171745
 20
47.40690998863423
 30
0.0
 11
-21.6939299213221
 21
47.39768970206139
 31
0.0
  0
LINE
  5
146
330
17
100
AcDbEntity
  8
0
100
AcDbLine
 10
-21.6939299213221
 20
47.39768970206139
 30
0.0
 11
-21.713724952112845
 21
47.3883609823379
 31
0.0
  0
LINE
  5
147
330
17
100
AcDbEntity
  8
0
100
AcDbLine
 10
-21.713724952112845
 20
47.3883609823379
 30
0.0
 11
-21.733468651638955
 21
47.3789241086655
 31
0.0
  0
LINE
  5
148
330
17
100
AcDbEntity
  8
0
100
AcDbLine
 10
-21.733468651638955
 20
47.3789241086655
 30
0.0
 11
-21.75316042898599
 21
47.3693793634829
 31
0.0
  0
LINE
  5
149
330
17
100
AcDbEntity
  8
0
100
AcDbLine
 10
-21.75316042898599
 20
47.3693793634829
 30
0.0
 11
-21.77279969479351
 21
47.35972703245731
 31
0.0
  0
LINE
  5
14A
330
17
100
AcDbEntity
  8
0
100
AcDbLine
 10
-21.77279969479351
 20
47.35972703245731
 30
0.0
 11
-21.792385861272702
 21
47.349967404475905
 31
0.0
  0
LINE
  5
14B
330
17
100
AcDbEntity
  8
0
100
AcDbLine
 10
-21.792385861272702
 20
47.349967404475905
 30
0.0
 11
-21.811918342223986
 21
47.3401007716372
 31
0.0
  0
LINE
  5
14C
330
17
100
AcDbEntity
  8
0
100
AcDbLine
 10
-21.811918342223986
 20
47.3401007716372
 30
0.0
 11
-21.83139655305454
 21
47.33012742924227
 31
0.0
  0
LINE
  5
14D
330
17
100
AcDbEntity
  8
0
100
AcDbLine
 10
-21.83139655305454
 20
47.33012742924227
 30
0.0
 11
-21.85081991079581
 21
47.32004767578593
 31
0.0
  0
LINE
  5
14E
330
17
100
AcDbEntity
  8
0
100
AcDbLine
 10
-21.85081991079581
 20
47.32004767578593
 30
0.0
 11
-21.870187834120962
 21
47.3098618129478
 31
0.0
  0
LINE
  5
14F
330
17
100
AcDbEntity
  8
0
100
AcDbLine
 10
-21.870187834120962
 20
47.3098618129478
 30
0.0
 11
-21.88949974336226
 21
47.29957014558329
 31
0.0
  0
LINE
  5
150
330
17
100
AcDbEntity
  8
0
100
AcDbLine
 10
-21.88949974336226
 20
47.29957014558329
 30
0.0
 11
-21.908755060528442
 21
47.28917298171443
 31
0.0
  0
LINE
  5
151
330
17
100
AcDbEntity
  8
0
100
AcDbLine
 10
-21.908755060528442
 20
47.28917298171443
 30
0.0
 11
-21.927953209321995
 21
47.27867063252072
 31
0.0
  0
LINE
  5
152
330
17
100
AcDbEntity
  8
0
100
AcDbLine
 10
-21.927953209321995
 20
47.27867063252072
 30
0.0
 11
-21.94709361515642
 21
47.26806341232975
 31
0.0
  0
LINE
  5
153
330
17
100
AcDbEntity
  8
0
100
AcDbLine
 10
-21.94709361515642
 20
47.26806341232975
 30
0.0
 11
-21.966175705173416
 21
47.25735163860785
 31
0.0
  0
LINE
  5
154
330
17
100
AcDbEntity
  8
0
100
AcDbLine
 10
-21.966175705173416
 20
47.25735163860785
 30
0.0
 11
-21.98519890826004
 21
47.24653563195053
 31
0.0
  0
LINE
  5
155
330
17
100
AcDbEntity
  8
0
100
AcDbLine
 10
-21.98519890826004
 20
47.24653563195053
 30
0.0
 11
-22.00416265506578
 21
47.23561571607294
 31
0.0
  0
LINE
  5
156
330
17
100
AcDbEntity
  8
0
100
AcDbLine
 10
-22.00416265506578
 20
47.23561571607294
 30
0.0
 11
-22.023066378019625
 21
47.22459221780014
 31
0.0
  0
LINE
  5
157
330
17
100
AcDbEntity
  8
0
100
AcDbLine
 10
-22.023066378019625
 20
47.22459221780014
 30
0.0
 11
-22.04190951134701
 21
47.21346546705734
 31
0.0
  0
LINE
  5
158
330
17
100
AcDbEntity
  8
0
100
AcDbLine
 10
-22.04190951134701
 20
47.21346546705734
 30
0.0
 11
-22.0606914910868
 21
47.20223579686004
 31
0.0
  0
LINE
  5
159
330
17
100
AcDbEntity
  8
0
100
AcDbLine
 10
-34.94991367087935
 20
38.39450123120329
 30
0.0
 11
-34.82495534358453
 21
38.490827874642946
 31
0.0
  0
LINE
  5
15A
330
17
100
AcDbEntity
  8
0
100
AcDbLine
 10
-34.82495534358453
 20
38.490827874642946
 30
0.0
 11
-34.69988452331463
 21
38.5870084117265
 31
0.0
  0
LINE
  5
15B
330
17
100
AcDbEntity
  8
0
100
AcDbLine
 10
-34.69988452331463
 20
38.5870084117265
 30
0.0
 11
-34.57470138090304
 21
38.68304271108158
 31
0.0
  0
LINE
  5
15C
330
17
100
AcDbEntity
  8
0
100
AcDbLine
 10
-34.57470138090304
 20
38.68304271108158
 30
0.0
 11
-34.44940608733655
 21
38.778930641535595
 31
0.0
  0
LINE
  5
15D
330
17
100
AcDbEntity
  8
0
100
AcDbLine
 10
-34.44940608733655
 20
38.778930641535595
 30
0.0
 11
-34.32399881375519
 21
38.87467207211586
 31
0.0
  0
LINE
  5
15E
330
17
100
AcDbEntity
  8
0
100
AcDbLine
 10
-34.32399881375519
 20
38.87467207211586
 30
0.0
 11
-34.198479731451876
 21
38.97026687204976
 31
0.0
  0
LINE
  5
15F
330
17
100
AcDbEntity
  8
0
100
AcDbLine
 10
-34.198479731451876
 20
38.97026687204976
 30
0.0
 11
-34.072849011872385
 21
39.065714910764996
 31
0.0
  0
LINE
  5
160
330
17
100
AcDbEntity
  8
0
100
AcDbLine
 10
-34.072849011872385
 20
39.065714910764996
 30
0.0
 11
-33.947106826614764
 21
39.16101605788981
 31
0.0
  0
LINE
  5
161
330
17
100
AcDbEntity
  8
0
100
AcDbLine
 10
-33.947106826614764
 20
39.16101605788981
 30
0.0
 11
-33.82125334742947
 21
39.25617018325292
 31
0.0
  0
LINE
  5
162
330
17
100
AcDbEntity
  8
0
100
AcDbLine
 10
-33.82125334742947
 20
39.25617018325292
 30
0.0
 11
-33.695288746218914
 21
39.35117715688398
 31
0.0
  0
LINE
  5
163
330
17
100
AcDbEntity
  8
0
100
AcDbLine
 10
-33.695288746218914
 20
39.35117715688398
 30
0.0
 11
-33.56921319503733
 21
39.446036849013595
 31
0.0
  0
LINE
  5
164
330
17
100
AcDbEntity
  8
0
100
AcDbLine
 10
-33.56921319503733
 20
39.446036849013595
 30
0.0
 11
-33.443026866090456
 21
39.54074913007352
 31
0.0
  0
LINE
  5
165
330
17
100
AcDbEntity
  8
0
100
AcDbLine
 10
-33.443026866090456
 20
39.54074913007352
 30
0.0
 11
-33.31672993173536
 21
39.63531387069692
 31
0.0
  0
LINE
  5
166
330
17
100
AcDbEntity
  8
0
100
AcDbLine
 10
-33.31672993173536
 20
39.63531387069692
 30
0.0
 11
-33.19032256448016
 21
39.72973094171843
 31
0.0
  0
LINE
  5
167
330
17
100
AcDbEntity
  8
0
100
AcDbLine
 10
-33.19032256448016
 20
39.72973094171843
 30
0.0
 11
-33.06380493698388
 21
39.82400021417439
 31
0.0
  0
LINE
  5
168
330
17
100
AcDbEntity
  8
0
100
AcDbLine
 10
-33.06380493698388
 20
39.82400021417439
 30
0.0
 11
-32.93717722205607
 21
39.91812155930303
 31
0.0
  0
LINE
  5
169
330
17
100
AcDbEntity
  8
0
100
AcDbLine
 10
-32.93717722205607
 20
39.91812155930303
 30
0.0
 11
-32.8104395926567
 21
40.01209484854466
 31
0.0
  0
LINE
  5
16A
330
17
100
AcDbEntity
  8
0
100
AcDbLine
 10
-32.8104395926567
 20
40.01209484854466
 30
0.0
 11
-32.683592221895815
 21
40.105919953541786
 31
0.0
  0
LINE
  5
16B
330
17
100
AcDbEntity
  8
0
100
AcDbLine
 10
-32.683592221895815
 20
40.105919953541786
 30
0.0
 11
-32.55663528303348
 21
40.199596746139264
 31
0.0
  0
LINE
  5
16C
330
17
100
AcDbEntity
  8
0
100
AcDbLine
 10
-32.55663528303348
 20
40.199596746139264
 30
0.0
 11
-32.42956894947921
 21
40.293125098384664
 31
0.0
  0
LINE
  5
16D
330
17
100
AcDbEntity
  8
0
100
AcDbLine
 10
-32.42956894947921
 20
40.293125098384664
 30
0.0
 11
-32.30239339479213
 21
40.38650488252823
 31
0.0
  0
LINE
  5
16E
330
17
100
AcDbEntity
  8
0
100
AcDbLine
 10
-32.30239339479213
 20
40.38650488252823
 30
0.0
 11
-32.175108792680454
 21
40.4797359710231
 31
0.0
  0
LINE
  5
16F
330
17
100
AcDbEntity
  8
0
100
AcDbLine
 10
-32.175108792680454
 20
40.4797359710231
 30
0.0
 11
-32.0477153170014
 21
40.57281823652558
 31
0.0
  0
LINE
  5
170
330
17
100
AcDbEntity
  8
0
100
AcDbLine
 10
-32.0477153170014
 20
40.57281823652558
 30
0.0
 11
-31.92021314176082
 21
40.66575155189523
 31
0.0
  0
LINE
  5
171
330
17
100
AcDbEntity
  8
0
100
AcDbLine
 10
-31.92021314176082
 20
40.66575155189523
 30
0.0
 11
-31.79260244111314
 21
40.75853579019501
 31
0.0
  0
LINE
  5
172
330
17
100
AcDbEntity
  8
0
100
AcDbLine
 10
-31.79260244111314
 20
40.75853579019501
 30
0.0
 11
-31.664883389360945
 21
40.85117082469159
 31
0.0
  0
LINE
  5
173
330
17
100
AcDbEntity
  8
0
100
AcDbLine
 10
-31.664883389360945
 20
40.85117082469159
 30
0.0
 11
-31.537056160954812
 21
40.943656528855385
 31
0.0
  0
LINE
  5
174
330
17
100
AcDbEntity
  8
0
100
AcDbLine
 10
-31.537056160954812
 20
40.943656528855385
 30
0.0
 11
-31.40912093049311
 21
41.035992776360786
 31
0.0
  0
LINE
  5
175
330
17
100
AcDbEntity
  8
0
100
AcDbLine
 10
-31.40912093049311
 20
41.035992776360786
 30
0.0
 11
-31.28107787272173
 21
41.128179441086345
 31
0.0
  0
LINE
  5
176
330
17
100
AcDbEntity
  8
0
100
AcDbLine
 10
-31.28107787272173
 20
41.128179441086345
 30
0.0
 11
-31.15292716253382
 21
41.22021639711488
 31
0.0
  0
LINE
  5
177
330
17
100
AcDbEntity
  8
0
100
AcDbLine
 10
-31.15292716253382
 20
41.22021639711488
 30
0.0
 11
-31.02466897496958
 21
41.31210351873375
 31
0.0
  0
LINE
  5
178
330
17
100
AcDbEntity
  8
0
100
AcDbLine
 10
-31.02466897496958
 20
41.31210351873375
 30
0.0
 11
-30.896303485216045
 21
41.40384068043491
 31
0.0
  0
LINE
  5
179
330
17
100
AcDbEntity
  8
0
100
AcDbLine
 10
-30.896303485216045
 20
41.40384068043491
 30
0.0
 11
-30.76783086860673
 21
41.49542775691526
 31
0.0
  0
LINE
  5
17A
330
17
100
AcDbEntity
  8
0
100
AcDbLine
 10
-30.76783086860673
 20
41.49542775691526
 30
0.0
 11
-30.639251300621503
 21
41.58686462307658
 31
0.0
  0
LINE
  5
17B
330
17
100
AcDbEntity
  8
0
100
AcDbLine
 10
-30.639251300621503
 20
41.58686462307658
 30
0.0
 11
-30.51056495688639
 21
41.67815115402587
 31
0.0
  0
LINE
  5
17C
330
17
100
AcDbEntity
  8
0
100
AcDbLine
 10
-30.51056495688639
 20
41.67815115402587
 30
0.0
 11
-30.381772013173197
 21
41.769287225075445
 31
0.0
  0
LINE
  5
17D
330
17
100
AcDbEntity
  8
0
100
AcDbLine
 10
-30.381772013173197
 20
41.769287225075445
 30
0.0
 11
-30.252872645399357
 21
41.86027271174319
 31
0.0
  0
LINE
  5
17E
330
17
100
AcDbEntity
  8
0
100
AcDbLine
 10
-30.252872645399357
 20
41.86027271174319
 30
0.0
 11
-30.12386702962761
 21
41.951107489752616
 31
0.0
  0
LINE
  5
17F
330
17
100
AcDbEntity
  8
0
100
AcDbLine
 10
-30.12386702962761
 20
41.951107489752616
 30
0.0
 11
-29.994755342065922
 21
42.04179143503312
 31
0.0
  0
LINE
  5
180
330
17
100
AcDbEntity
  8
0
100
AcDbLine
 10
-29.994755342065922
 20
42.04179143503312
 30
0.0
 11
-29.86553775906703
 21
42.13232442372009
 31
0.0
  0
LINE
  5
181
330
17
100
AcDbEntity
  8
0
100
AcDbLine
 10
-29.86553775906703
 20
42.13232442372009
 30
0.0
 11
-29.73621445712842
 21
42.22270633215513
 31
0.0
  0
LINE
  5
182
330
17
100
AcDbEntity
  8
0
100
AcDbLine
 10
-29.73621445712842
 20
42.22270633215513
 30
0.0
 11
-29.606785612891905
 21
42.31293703688618
 31
0.0
  0
LINE
  5
183
330
17
100
AcDbEntity
  8
0
100
AcDbLine
 10
-29.606785612891905
 20
42.31293703688618
 30
0.0
 11
-29.477251403143462
 21
42.40301641466773
 31
0.0
  0
LINE
  5
184
330
17
100
AcDbEntity
  8
0
100
AcDbLine
 10
-29.477251403143462
 20
42.40301641466773
 30
0.0
 11
-29.347612004813065
 21
42.49294434246096
 31
0.0
  0
LINE
  5
185
330
17
100
AcDbEntity
  8
0
100
AcDbLine
 10
-29.347612004813065
 20
42.49294434246096
 30
0.0
 11
-29.217867594974216
 21
42.58272069743394
 31
0.0
  0
LINE
  5
186
330
17
100
AcDbEntity
  8
0
100
AcDbLine
 10
-29.217867594974216
 20
42.58272069743394
 30
0.0
 11
-29.088018350843974
 21
42.67234535696174
 31
0.0
  0
LINE
  5
187
330
17
100
AcDbEntity
  8
0
100
AcDbLine
 10
-29.088018350843974
 20
42.67234535696174
 30
0.0
 11
-28.958064449782576
 21
42.7618181986266
 31
0.0
  0
LINE
  5
188
330
17
100
AcDbEntity
  8
0
100
AcDbLine
 10
-28.958064449782576
 20
42.7618181986266
 30
0.0
 11
-28.828006069293146
 21
42.85113910021818
 31
0.0
  0
LINE
  5
189
330
17
100
AcDbEntity
  8
0
100
AcDbLine
 10
-28.828006069293146
 20
42.85113910021818
 30
0.0
 11
-28.6978433870216
 21
42.94030793973367
 31
0.0
  0
LINE
  5
18A
330
17
100
AcDbEntity
  8
0
100
AcDbLine
 10
-28.6978433870216
 20
42.94030793973367
 30
0.0
 11
-28.56757658075623
 21
43.02932459537794
 31
0.0
  0
LINE
  5
18B
330
17
100
AcDbEntity
  8
0
100
AcDbLine
 10
-28.56757658075623
 20
43.02932459537794
 30
0.0
 11
-28.437205828427658
 21
43.118188945563745
 31
0.0
  0
LINE
  5
18C
330
17
100
AcDbEntity
  8
0
100
AcDbLine
 10
-28.437205828427658
 20
43.118188945563745
 30
0.0
 11
-28.30673130810836
 21
43.20690086891183
 31
0.0
  0
LINE
  5
18D
330
17
100
AcDbEntity
  8
0
100
AcDbLine
 10
-28.30673130810836
 20
43.20690086891183
 30
0.0
 11
-28.176153198012663
 21
43.29546024425122
 31
0.0
  0
LINE
  5
18E
330
17
100
AcDbEntity
  8
0
100
AcDbLine
 10
-28.176153198012663
 20
43.29546024425122
 30
0.0
 11
-28.045471676496312
 21
43.38386695061921
 31
0.0
  0
LINE
  5
18F
330
17
100
AcDbEntity
  8
0
100
AcDbLine
 10
-28.045471676496312
 20
43.38386695061921
 30
0.0
 11
-27.914686922056312
 21
43.472120867261694
 31
0.0
  0
LINE
  5
190
330
17
100
AcDbEntity
  8
0
100
AcDbLine
 10
-27.914686922056312
 20
43.472120867261694
 30
0.0
 11
-27.78379911333078
 21
43.56022187363318
 31
0.0
  0
LINE
  5
191
330
17
100
AcDbEntity
  8
0
100
AcDbLine
 10
-27.78379911333078
 20
43.56022187363318
 30
0.0
 11
-27.65280842909835
 21
43.648169849397206
 31
0.0
  0
LINE
  5
192
330
17
100
AcDbEntity
  8
0
100
AcDbLine
 10
-27.65280842909835
 20
43.648169849397206
 30
0.0
 11
-27.521715048278402
 21
43.73596467442613
 31
0.0
  0
LINE
  5
193
330
17
100
AcDbEntity
  8
0
100
AcDbLine
 10
-27.521715048278402
 20
43.73596467442613
 30
0.0
 11
-27.390519149930505
 21
43.82360622880162
 31
0.0
  0
LINE
  5
194
330
17
100
AcDbEntity
  8
0
100
AcDbLine
 10
-27.390519149930505
 20
43.82360622880162
 30
0.0
 11
-27.259220913254246
 21
43.91109439281466
 31
0.0
  0
LINE
  5
195
330
17
100
AcDbEntity
  8
0
100
AcDbLine
 10
-27.259220913254246
 20
43.91109439281466
 30
0.0
 11
-27.127820517589022
 21
43.998429046965725
 31
0.0
  0
LINE
  5
196
330
17
100
AcDbEntity
  8
0
100
AcDbLine
 10
-27.127820517589022
 20
43.998429046965725
 30
0.0
 11
-26.996318142413763
 21
44.08561007196505
 31
0.0
  0
LINE
  5
197
330
17
100
AcDbEntity
  8
0
100
AcDbLine
 10
-26.996318142413763
 20
44.08561007196505
 30
0.0
 11
-26.864713967346667
 21
44.17263734873259
 31
0.0
  0
LINE
  5
198
330
17
100
AcDbEntity
  8
0
100
AcDbLine
 10
-26.864713967346667
 20
44.17263734873259
 30
0.0
 11
-26.733008172145
 21
44.25951075839842
 31
0.0
  0
LINE
  5
199
330
17
100
AcDbEntity
  8
0
100
AcDbLine
 10
-26.733008172145
 20
44.25951075839842
 30
0.0
 11
-26.60120093670485
 21
44.34623018230269
 31
0.0
  0
LINE
  5
19A
330
17
100
AcDbEntity
  8
0
100
AcDbLine
 10
-26.60120093670485
 20
44.34623018230269
 30
0.0
 11
-26.469292441060823
 21
44.43279550199594
 31
0.0
  0
LINE
  5
19B
330
17
100
AcDbEntity
  8
0
100
AcDbLine
 10
-26.469292441060823
 20
44.43279550199594
 30
0.0
 11
-26.337282865385852
 21
44.51920659923918
 31
0.0
  0
LINE
  5
19C
330
17
100
AcDbEntity
  8
0
100
AcDbLine
 10
-26.337282865385852
 20
44.51920659923918
 30
0.0
 11
-26.205172389990942
 21
44.605463356004066
 31
0.0
  0
LINE
  5
19D
330
17
100
AcDbEntity
  8
0
100
AcDbLine
 10
-26.205172389990942
 20
44.605463356004066
 30
0.0
 11
-26.072961195324943
 21
44.69156565447304
 31
0.0
  0
LINE
  5
19E
330
17
100
AcDbEntity
  8
0
100
AcDbLine
 10
-26.072961195324943
 20
44.69156565447304
 30
0.0
 11
-25.940649461974168
 21
44.7775133770396
 31
0.0
  0
LINE
  5
19F
330
17
100
AcDbEntity
  8
0
100
AcDbLine
 10
-25.940649461974168
 20
44.7775133770396
 30
0.0
 11
-25.80823737066236
 21
44.86330640630828
 31
0.0
  0
LINE
  5
1A0
330
17
100
AcDbEntity
  8
0
100
AcDbLine
 10
-25.80823737066236
 20
44.86330640630828
 30
0.0
 11
-25.67572510225032
 21
44.94894462509501
 31
0.0
  0
LINE
  5
1A1
330
17
100
AcDbEntity
  8
0
100
AcDbLine
 10
-25.67572510225032
 20
44.94894462509501
 30
0.0
 11
-25.543112837735684
 21
45.03442791642708
 31
0.0
  0
LINE
  5
1A2
330
17
100
AcDbEntity
  8
0
100
AcDbLine
 10
-25.543112837735684
 20
45.03442791642708
 30
0.0
 11
-25.410400758252628
 21
45.119756163543414
 31
0.0
  0
LINE
  5
1A3
330
17
100
AcDbEntity
  8
0
100
AcDbLine
 10
-25.410400758252628
 20
45.119756163543414
 30
0.0
 11
-25.2775890450717
 21
45.204929249894775
 31
0.0
  0
LINE
  5
1A4
330
17
100
AcDbEntity
  8
0
100
AcDbLine
 10
-25.2775890450717
 20
45.204929249894775
 30
0.0
 11
-25.14467787959955
 21
45.28994705914377
 31
0.0
  0
LINE
  5
1A5
330
17
100
AcDbEntity
  8
0
100
AcDbLine
 10
-25.14467787959955
 20
45.28994705914377
 30
0.0
 11
-25.011667443378634
 21
45.37480947516518
 31
0.0
  0
LINE
  5
1A6
330
17
100
AcDbEntity
  8
0
100
AcDbLine
 10
-25.011667443378634
 20
45.37480947516518
 30
0.0
 11
-24.878557918087033
 21
45.45951638204596
 31
0.0
  0
LINE
  5
1A7
330
17
100
AcDbEntity
  8
0
100
AcDbLine
 10
-24.878557918087033
 20
45.45951638204596
 30
0.0
 11
-24.745349485538163
 21
45.544067664085546
 31
0.0
  0
LINE
  5
1A8
330
17
100
AcDbEntity
  8
0
100
AcDbLine
 10
-24.745349485538163
 20
45.544067664085546
 30
0.0
 11
-24.61204232768052
 21
45.62846320579588
 31
0.0
  0
LINE
  5
1A9
330
17
100
AcDbEntity
  8
0
100
AcDbLine
 10
-24.61204232768052
 20
45.62846320579588
 30
0.0
 11
-24.4786366265975
 21
45.71270289190166
 31
0.0
  0
LINE
  5
1AA
330
17
100
AcDbEntity
  8
0
100
AcDbLine
 10
-24.4786366265975
 20
45.71270289190166
 30
0.0
 11
-24.345132564506976
 21
45.796786607340465
 31
0.0
  0
LINE
  5
1AB
330
17
100
AcDbEntity
  8
0
100
AcDbLine
 10
-24.345132564506976
 20
45.796786607340465
 30
0.0
 11
-24.211530323761316
 21
45.88071423726292
 31
0.0
  0
LINE
  5
1AC
330
17
100
AcDbEntity
  8
0
100
AcDbLine
 10
-24.211530323761316
 20
45.88071423726292
 30
0.0
 11
-24.077830086846895
 21
45.96448566703285
 31
0.0
  0
LINE
  5
1AD
330
17
100
AcDbEntity
  8
0
100
AcDbLine
 10
-24.077830086846895
 20
45.96448566703285
 30
0.0
 11
-23.94403203638401
 21
46.048100782227365
 31
0.0
  0
LINE
  5
1AE
330
17
100
AcDbEntity
  8
0
100
AcDbLine
 10
-23.94403203638401
 20
46.048100782227365
 30
0.0
 11
-23.81013635512648
 21
46.13155946863719
 31
0.0
  0
LINE
  5
1AF
330
17
100
AcDbEntity
  8
0
100
AcDbLine
 10
-23.81013635512648
 20
46.13155946863719
 30
0.0
 11
-23.676143225961575
 21
46.21486161226663
 31
0.0
  0
LINE
  5
1B0
330
17
100
AcDbEntity
  8
0
100
AcDbLine
 10
-23.676143225961575
 20
46.21486161226663
 30
0.0
 11
-23.542052831909594
 21
46.29800709933387
 31
0.0
  0
LINE
  5
1B1
330
17
100
AcDbEntity
  8
0
100
AcDbLine
 10
-23.542052831909594
 20
46.29800709933387
 30
0.0
 11
-23.407865356123686
 21
46.380995816271025
 31
0.0
  0
LINE
  5
1B2
330
17
100
AcDbEntity
  8
0
100
AcDbLine
 10
-23.407865356123686
 20
46.380995816271025
 30
0.0
 11
-23.27358098188966
 21
46.463827649724365
 31
0.0
  0
LINE
  5
1B3
330
17
100
AcDbEntity
  8
0
100
AcDbLine
 10
-23.27358098188966
 20
46.463827649724365
 30
0.0
 11
-23.139199892625633
 21
46.54650248655443
 31
0.0
  0
LINE
  5
1B4
330
17
100
AcDbEntity
  8
0
100
AcDbLine
 10
-23.139199892625633
 20
46.54650248655443
 30
0.0
 11
-23.00472227188184
 21
46.62902021383624
 31
0.0
  0
LINE
  5
1B5
330
17
100
AcDbEntity
  8
0
100
AcDbLine
 10
-23.00472227188184
 20
46.62902021383624
 30
0.0
 11
-22.870148303340407
 21
46.71138071885932
 31
0.0
  0
LINE
  5
1B6
330
17
100
AcDbEntity
  8
0
100
AcDbLine
 10
-22.870148303340407
 20
46.71138071885932
 30
0.0
 11
-22.735478170814922
 21
46.79358388912809
 31
0.0
  0
LINE
  5
1B7
330
17
100
AcDbEntity
  8
0
100
AcDbLine
 10
-22.735478170814922
 20
46.79358388912809
 30
0.0
 11
-22.600712058250487
 21
46.87562961236175
 31
0.0
  0
LINE
  5
1B8
330
17
100
AcDbEntity
  8
0
100
AcDbLine
 10
-22.600712058250487
 20
46.87562961236175
 30
0.0
 11
-22.465850149723217
 21
46.9575177764946
 31
0.0
  0
LINE
  5
1B9
330
17
100
AcDbEntity
  8
0
100
AcDbLine
 10
-22.465850149723217
 20
46.9575177764946
 30
0.0
 11
-22.330892629440108
 21
47.03924826967612
 31
0.0
  0
LINE
  5
1BA
330
17
100
AcDbEntity
  8
0
100
AcDbLine
 10
-22.330892629440108
 20
47.03924826967612
 30
0.0
 11
-22.195839681738697
 21
47.12082098027122
 31
0.0
  0
LINE
  5
1BB
330
17
100
AcDbEntity
  8
0
100
AcDbLine
 10
-22.195839681738697
 20
47.12082098027122
 30
0.0
 11
-22.060691491086963
 21
47.20223579686025
 31
0.0
  0
LINE
  5
1BC
330
17
100
AcDbEntity
  8
0
100
AcDbLine
 10
-34.949913670879134
 20
38.39450123120307
 30
0.0
 11
-35.653370841347794
 21
37.84113948387644
 31
0.0
  0
LINE
  5
1BD
330
17
100
AcDbEntity
  8
0
100
AcDbLine
 10
-35.653370841347794
 20
37.84113948387644
 30
0.0
 11
-36.34649691325703
 21
37.27489089665719
 31
0.0
  0
LINE
  5
1BE
330
17
100
AcDbEntity
  8
0
100
AcDbLine
 10
-36.34649691325703
 20
37.27489089665719
 30
0.0
 11
-37.02905584179331
 21
36.695948306097854
 31
0.0
  0
LINE
  5
1BF
330
17
100
AcDbEntity
  8
0
100
AcDbLine
 10
-37.02905584179331
 20
36.695948306097854
 30
0.0
 11
-37.70081518079487
 21
36.104508871707225
 31
0.0
  0
LINE
  5
1C0
330
17
100
AcDbEntity
  8
0
100
AcDbLine
 10
-37.70081518079487
 20
36.104508871707225
 30
0.0
 11
-38.36154616191156
 21
35.500774008807355
 31
0.0
  0
LINE
  5
1C1
330
17
100
AcDbEntity
  8
0
100
AcDbLine
 10
-38.36154616191156
 20
35.500774008807355
 30
0.0
 11
-39.0110237725121
 21
34.88494931994149
 31
0.0
  0
LINE
  5
1C2
330
17
100
AcDbEntity
  8
0
100
AcDbLine
 10
-39.0110237725121
 20
34.88494931994149
 30
0.0
 11
-39.64902683231238
 21
34.25724452485576
 31
0.0
  0
LINE
  5
1C3
330
17
100
AcDbEntity
  8
0
100
AcDbLine
 10
-39.64902683231238
 20
34.25724452485576
 30
0.0
 11
-40.275338068698666
 21
33.617873389079044
 31
0.0
  0
LINE
  5
1C4
330
17
100
AcDbEntity
  8
0
100
AcDbLine
 10
-40.275338068698666
 20
33.617873389079044
 30
0.0
 11
-40.88974419072
 21
32.96705365112477
 31
0.0
  0
LINE
  5
1C5
330
17
100
AcDbEntity
  8
0
100
AcDbLine
 10
-40.88974419072
 20
32.96705365112477
 30
0.0
 11
-41.49203596172462
 21
32.305006948339965
 31
0.0
  0
LINE
  5
1C6
330
17
100
AcDbEntity
  8
0
100
AcDbLine
 10
-41.49203596172462
 20
32.305006948339965
 30
0.0
 11
-42.08200827061581
 21
31.631958741426253
 31
0.0
  0
LINE
  5
1C7
330
17
100
AcDbEntity
  8
0
100
AcDbLine
 10
-42.08200827061581
 20
31.631958741426253
 30
0.0
 11
-42.659460201702586
 21
30.948138237659172
 31
0.0
  0
LINE
  5
1C8
330
17
100
AcDbEntity
  8
0
100
AcDbLine
 10
-42.659460201702586
 20
30.948138237659172
 30
0.0
 11
-43.22419510312186
 21
30.253778312831223
 31
0.0
  0
LINE
  5
1C9
330
17
100
AcDbEntity
  8
0
100
AcDbLine
 10
-43.22419510312186
 20
30.253778312831223
 30
0.0
 11
-43.776020653808395
 21
29.54911543194583
 31
0.0
  0
LINE
  5
1CA
330
17
100
AcDbEntity
  8
0
100
AcDbLine
 10
-43.776020653808395
 20
29.54911543194583
 30
0.0
 11
-44.31474892898986
 21
28.834389568689065
 31
0.0
  0
LINE
  5
1CB
330
17
100
AcDbEntity
  8
0
100
AcDbLine
 10
-44.31474892898986
 20
28.834389568689065
 30
0.0
 11
-44.84019646418495
 21
28.10984412370613
 31
0.0
  0
LINE
  5
1CC
330
17
100
AcDbEntity
  8
0
100
AcDbLine
 10
-44.84019646418495
 20
28.10984412370613
 30
0.0
 11
-45.352184317682344
 21
27.375725841711155
 31
0.0
  0
LINE
  5
1CD
330
17
100
AcDbEntity
  8
0
100
AcDbLine
 10
-45.352184317682344
 20
27.375725841711155
 30
0.0
 11
-45.8505381314795
 21
26.632284727457968
 31
0.0
  0
LINE
  5
1CE
330
17
100
AcDbEntity
  8
0
100
AcDbLine
 10
-45.8505381314795
 20
26.632284727457968
 30
0.0
 11
-46.33508819066039
 21
25.879773960600836
 31
0.0
  0
LINE
  5
1CF
330
17
100
AcDbEntity
  8
0
100
AcDbLine
 10
-46.33508819066039
 20
25.879773960600836
 30
0.0
 11
-46.805669481192226
 21
25.11844980947366
 31
0.0
  0
LINE
  5
1D0
330
17
100
AcDbEntity
  8
0
100
AcDbLine
 10
-46.805669481192226
 20
25.11844980947366
 30
0.0
 11
-47.262121746121046
 21
24.348571543817677
 31
0.0
  0
LINE
  5
1D1
330
17
100
AcDbEntity
  8
0
100
AcDbLine
 10
-47.262121746121046
 20
24.348571543817677
 30
0.0
 11
-47.704289540147485
 21
23.57040134648679
 31
0.0
  0
LINE
  5
1D2
330
17
100
AcDbEntity
  8
0
100
AcDbLine
 10
-47.704289540147485
 20
23.57040134648679
 30
0.0
 11
-48.13202228256369
 21
22.784204224161076
 31
0.0
  0
LINE
  5
1D3
330
17
100
AcDbEntity
  8
0
100
AcDbLine
 10
-48.13202228256369
 20
22.784204224161076
 30
0.0
 11
-48.54517430853392
 21
21.990247917098266
 31
0.0
  0
LINE
  5
1D4
330
17
100
AcDbEntity
  8
0
100
AcDbLine
 10
-48.54517430853392
 20
21.990247917098266
 30
0.0
 11
-48.94360491870076
 21
21.18880280795462
 31
0.0
  0
LINE
  5
1D5
330
17
100
AcDbEntity
  8
0
100
AcDbLine
 10
-48.94360491870076
 20
21.18880280795462
 30
0.0
 11
-49.32717842710038
 21
20.38014182970593
 31
0.0
  0
LINE
  5
1D6
330
17
100
AcDbEntity
  8
0
100
AcDbLine
 10
-49.32717842710038
 20
20.38014182970593
 30
0.0
 11
-49.69576420737067
 21
19.564540372699717
 31
0.0
  0
LINE
  5
1D7
330
17
100
AcDbEntity
  8
0
100
AcDbLine
 10
-49.69576420737067
 20
19.564540372699717
 30
0.0
 11
-50.0492367372361
 21
18.742276190870875
 31
0.0
  0
LINE
  5
1D8
330
17
100
AcDbEntity
  8
0
100
AcDbLine
 10
-50.0492367372361
 20
18.742276190870875
 30
0.0
 11
-50.38747564125446
 21
17.913629307152213
 31
0.0
  0
LINE
  5
1D9
330
17
100
AcDbEntity
  8
0
100
AcDbLine
 10
-50.38747564125446
 20
17.913629307152213
 30
0.0
 11
-50.71036573181085
 21
17.078881918112508
 31
0.0
  0
LINE
  5
1DA
330
17
100
AcDbEntity
  8
0
100
AcDbLine
 10
-50.71036573181085
 20
17.078881918112508
 30
0.0
 11
-51.017797048344995
 21
16.238318297853933
 31
0.0
  0
LINE
  5
1DB
330
17
100
AcDbEntity
  8
0
100
AcDbLine
 10
-51.017797048344995
 20
16.238318297853933
 30
0.0
 11
-51.30966489479835
 21
15.39222470120236
 31
0.0
  0
LINE
  5
1DC
330
17
100
AcDbEntity
  8
0
100
AcDbLine
 10
-51.30966489479835
 20
15.39222470120236
 30
0.0
 11
-51.58586987526855
 21
14.540889266222907
 31
0.0
  0
LINE
  5
1DD
330
17
100
AcDbEntity
  8
0
100
AcDbLine
 10
-51.58586987526855
 20
14.540889266222907
 30
0.0
 11
-51.84631792785864
 21
13.68460191609437
 31
0.0
  0
LINE
  5
1DE
330
17
100
AcDbEntity
  8
0
100
AcDbLine
 10
-51.84631792785864
 20
13.68460191609437
 30
0.0
 11
-52.09092035671012
 21
12.823654260375353
 31
0.0
  0
LINE
  5
1DF
330
17
100
AcDbEntity
  8
0
100
AcDbLine
 10
-52.09092035671012
 20
12.823654260375353
 30
0.0
 11
-52.31959386220832
 21
11.958339495696418
 31
0.0
  0
LINE
  5
1E0
330
17
100
AcDbEntity
  8
0
100
AcDbLine
 10
-52.31959386220832
 20
11.958339495696418
 30
0.0
 11
-52.53226056935016
 21
11.088952305911818
 31
0.0
  0
LINE
  5
1E1
330
17
100
AcDbEntity
  8
0
100
AcDbLine
 10
-52.53226056935016
 20
11.088952305911818
 30
0.0
 11
-52.728848054264624
 21
10.215788761744333
 31
0.0
  0
LINE
  5
1E2
330
17
100
AcDbEntity
  8
0
100
AcDbLine
 10
-52.728848054264624
 20
10.215788761744333
 30
0.0
 11
-52.90928936887674
 21
9.339146219958248
 31
0.0
  0
LINE
  5
1E3
330
17
100
AcDbEntity
  8
0
100
AcDbLine
 10
-52.90928936887674
 20
9.339146219958248
 30
0.0
 11
-53.07352306370686
 21
8.459323222094152
 31
0.0
  0
LINE
  5
1E4
330
17
100
AcDbEntity
  8
0
100
AcDbLine
 10
-53.07352306370686
 20
8.459323222094152
 30
0.0
 11
-53.22149320879728
 21
7.576619392800251
 31
0.0
  0
LINE
  5
1E5
330
17
100
AcDbEntity
  8
0
100
AcDbLine
 10
-53.22149320879728
 20
7.576619392800251
 30
0.0
 11
-53.35314941275929
 21
6.691335337795061
 31
0.0
  0
LINE
  5
1E6
330
17
100
AcDbEntity
  8
0
100
AcDbLine
 10
-53.35314941275929
 20
6.691335337795061
 30
0.0
 11
-53.468446839934025
 21
5.803772541495551
 31
0.0
  0
LINE
  5
1E7
330
17
100
AcDbEntity
  8
0
100
AcDbLine
 10
-53.468446839934025
 20
5.803772541495551
 30
0.0
 11
-53.56734622566126
 21
4.914233264346436
 31
0.0
  0
LINE
  5
1E8
330
17
100
AcDbEntity
  8
0
100
AcDbLine
 10
-53.56734622566126
 20
4.914233264346436
 30
0.0
 11
-53.64981388965107
 21
4.023020439885195
 31
0.0
  0
LINE
  5
1E9
330
17
100
AcDbEntity
  8
0
100
AcDbLine
 10
-53.64981388965107
 20
4.023020439885195
 30
0.0
 11
-53.715821747453646
 21
3.1304375715774775
 31
0.0
  0
LINE
  5
1EA
330
17
100
AcDbEntity
  8
0
100
AcDbLine
 10
-53.715821747453646
 20
3.1304375715774775
 30
0.0
 11
-53.76534732002353
 21
2.2367886294588493
 31
0.0
  0
LINE
  5
1EB
330
17
100
AcDbEntity
  8
0
100
AcDbLine
 10
-53.76534732002353
 20
2.2367886294588493
 30
0.0
 11
-53.79837374137483
 21
1.3423779466173924
 31
0.0
  0
LINE
  5
1EC
330
17
100
AcDbEntity
  8
0
100
AcDbLine
 10
-53.79837374137483
 20
1.3423779466173924
 30
0.0
 11
-53.81488976432498
 21
0.44751011555292286
 31
0.0
  0
LINE
  5
1ED
330
17
100
AcDbEntity
  8
0
100
AcDbLine
 10
-53.81488976432498
 20
0.44751011555292286
 30
0.0
 11
-53.81488976432498
 21
-0.4475101155525635
 31
0.0
  0
LINE
  5
1EE
330
17
100
AcDbEntity
  8
0
100
AcDbLine
 10
-53.81488976432498
 20
-0.4475101155525635
 30
0.0
 11
-53.79837374137483
 21
-1.3423779466170331
 31
0.0
  0
LINE
  5
1EF
330
17
100
AcDbEntity
  8
0
100
AcDbLine
 10
-53.79837374137483
 20
-1.3423779466170331
 30
0.0
 11
-53.76534732002353
 21
-2.2367886294584904
 31
0.0
  0
LINE
  5
1F0
330
17
100
AcDbEntity
  8
0
100
AcDbLine
 10
-53.76534732002353
 20
-2.2367886294584904
 30
0.0
 11
-53.715821747453646
 21
-3.1304375715771187
 31
0.0
  0
LINE
  5
1F1
330
17
100
AcDbEntity
  8
0
100
AcDbLine
 10
-53.715821747453646
 20
-3.1304375715771187
 30
0.0
 11
-53.64981388965107
 21
-4.023020439884837
 31
0.0
  0
LINE
  5
1F2
330
17
100
AcDbEntity
  8
0
100
AcDbLine
 10
-53.64981388965107
 20
-4.023020439884837
 30
0.0
 11
-53.567346225661254
 21
-4.91423326434612
 31
0.0
  0
LINE
  5
1F3
330
17
100
AcDbEntity
  8
0
100
AcDbLine
 10
-53.567346225661254
 20
-4.91423326434612
 30
0.0
 11
-53.46844683993402
 21
-5.803772541495192
 31
0.0
  0
LINE
  5
1F4
330
17
100
AcDbEntity
  8
0
100
AcDbLine
 10
-53.46844683993402
 20
-5.803772541495192
 30
0.0
 11
-53.35314941275929
 21
-6.691335337794701
 31
0.0
  0
LINE
  5
1F5
330
17
100
AcDbEntity
  8
0
100
AcDbLine
 10
-53.35314941275929
 20
-6.691335337794701
 30
0.0
 11
-53.22149320879728
 21
-7.576619392799891
 31
0.0
  0
LINE
  5
1F6
330
17
100
AcDbEntity
  8
0
100
AcDbLine
 10
-53.22149320879728
 20
-7.576619392799891
 30
0.0
 11
-53.073523063706865
 21
-8.459323222093749
 31
0.0
  0
LINE
  5
1F7
330
17
100
AcDbEntity
  8
0
100
AcDbLine
 10
-53.073523063706865
 20
-8.459323222093749
 30
0.0
 11
-52.90928936887674
 21
-9.339146219957888
 31
0.0
  0
LINE
  5
1F8
330
17
100
AcDbEntity
  8
0
100
AcDbLine
 10
-52.90928936887674
 20
-9.339146219957888
 30
0.0
 11
-52.72884805426462
 21
-10.215788761743973
 31
0.0
  0
LINE
  5
1F9
330
17
100
AcDbEntity
  8
0
100
AcDbLine
 10
-52.72884805426462
 20
-10.215788761743973
 30
0.0
 11
-52.53226056935015
 21
-11.088952305911457
 31
0.0
  0
LINE
  5
1FA
330
17
100
AcDbEntity
  8
0
100
AcDbLine
 10
-52.53226056935015
 20
-11.088952305911457
 30
0.0
 11
-52.3195938622083
 21
-11.958339495696102
 31
0.0
  0
LINE
  5
1FB
330
17
100
AcDbEntity
  8
0
100
AcDbLine
 10
-52.3195938622083
 20
-11.958339495696102
 30
0.0
 11
-52.09092035671011
 21
-12.823654260374996
 31
0.0
  0
LINE
  5
1FC
330
17
100
AcDbEntity
  8
0
100
AcDbLine
 10
-52.09092035671011
 20
-12.823654260374996
 30
0.0
 11
-51.846317927858635
 21
-13.684601916094014
 31
0.0
  0
LINE
  5
1FD
330
17
100
AcDbEntity
  8
0
100
AcDbLine
 10
-51.846317927858635
 20
-13.684601916094014
 30
0.0
 11
-51.58586987526854
 21
-14.54088926622255
 31
0.0
  0
LINE
  5
1FE
330
17
100
AcDbEntity
  8
0
100
AcDbLine
 10
-51.58586987526854
 20
-14.54088926622255
 30
0.0
 11
-51.30966489479835
 21
-15.392224701202004
 31
0.0
  0
LINE
  5
1FF
330
17
100
AcDbEntity
  8
0
100
AcDbLine
 10
-51.30966489479835
 20
-15.392224701202004
 30
0.0
 11
-51.01779704834499
 21
-16.238318297853574
 31
0.0
  0
LINE
  5
200
330
17
100
AcDbEntity
  8
0
100
AcDbLine
 10
-51.01779704834499
 20
-16.238318297853574
 30
0.0
 11
-50.710365731810846
 21
-17.07888191811215
 31
0.0
  0
LINE
  5
201
330
17
100
AcDbEntity
  8
0
100
AcDbLine
 10
-50.710365731810846
 20
-17.07888191811215
 30
0.0
 11
-50.38747564125445
 21
-17.91362930715185
 31
0.0
  0
LINE
  5
202
330
17
100
AcDbEntity
  8
0
100
AcDbLine
 10
-50.38747564125445
 20
-17.91362930715185
 30
0.0
 11
-50.049236737236086
 21
-18.742276190870516
 31
0.0
  0
LINE
  5
203
330
17
100
AcDbEntity
  8
0
100
AcDbLine
 10
-50.049236737236086
 20
-18.742276190870516
 30
0.0
 11
-49.695764207370665
 21
-19.56454037269936
 31
0.0
  0
LINE
  5
204
330
17
100
AcDbEntity
  8
0
100
AcDbLine
 10
-49.695764207370665
 20
-19.56454037269936
 30
0.0
 11
-49.32717842710037
 21
-20.380141829705572
 31
0.0
  0
LINE
  5
205
330
17
100
AcDbEntity
  8
0
100
AcDbLine
 10
-49.32717842710037
 20
-20.380141829705572
 30
0.0
 11
-48.94360491870073
 21
-21.188802807954296
 31
0.0
  0
LINE
  5
206
330
17
100
AcDbEntity
  8
0
100
AcDbLine
 10
-48.94360491870073
 20
-21.188802807954296
 30
0.0
 11
-48.54517430853391
 21
-21.990247917097907
 31
0.0
  0
LINE
  5
207
330
17
100
AcDbEntity
  8
0
100
AcDbLine
 10
-48.54517430853391
 20
-21.990247917097907
 30
0.0
 11
-48.13202228256368
 21
-22.784204224160717
 31
0.0
  0
LINE
  5
208
330
17
100
AcDbEntity
  8
0
100
AcDbLine
 10
-48.13202228256368
 20
-22.784204224160717
 30
0.0
 11
-47.70428954014747
 21
-23.570401346486424
 31
0.0
  0
LINE
  5
209
330
17
100
AcDbEntity
  8
0
100
AcDbLine
 10
-47.70428954014747
 20
-23.570401346486424
 30
0.0
 11
-47.26212174612106
 21
-24.348571543817275
 31
0.0
  0
LINE
  5
20A
330
17
100
AcDbEntity
  8
0
100
AcDbLine
 10
-47.26212174612106
 20
-24.348571543817275
 30
0.0
 11
-46.80566948119221
 21
-25.118449809473294
 31
0.0
  0
LINE
  5
20B
330
17
100
AcDbEntity
  8
0
100
AcDbLine
 10
-46.80566948119221
 20
-25.118449809473294
 30
0.0
 11
-46.335088190660386
 21
-25.879773960600474
 31
0.0
  0
LINE
  5
20C
330
17
100
AcDbEntity
  8
0
100
AcDbLine
 10
-46.335088190660386
 20
-25.879773960600474
 30
0.0
 11
-45.850538131479496
 21
-26.632284727457606
 31
0.0
  0
LINE
  5
20D
330
17
100
AcDbEntity
  8
0
100
AcDbLine
 10
-45.850538131479496
 20
-26.632284727457606
 30
0.0
 11
-45.35218431768233
 21
-27.375725841710793
 31
0.0
  0
LINE
  5
20E
330
17
100
AcDbEntity
  8
0
100
AcDbLine
 10
-45.35218431768233
 20
-27.375725841710793
 30
0.0
 11
-44.84019646418494
 21
-28.109844123705763
 31
0.0
  0
LINE
  5
20F
330
17
100
AcDbEntity
  8
0
100
AcDbLine
 10
-44.84019646418494
 20
-28.109844123705763
 30
0.0
 11
-44.31474892898984
 21
-28.8343895686887
 31
0.0
  0
LINE
  5
210
330
17
100
AcDbEntity
  8
0
100
AcDbLine
 10
-44.31474892898984
 20
-28.8343895686887
 30
0.0
 11
-43.77602065380838
 21
-29.549115431945467
 31
0.0
  0
LINE
  5
211
330
17
100
AcDbEntity
  8
0
100
AcDbLine
 10
-43.77602065380838
 20
-29.549115431945467
 30
0.0
 11
-43.22419510312185
 21
-30.253778312830853
 31
0.0
  0
LINE
  5
212
330
17
100
AcDbEntity
  8
0
100
AcDbLine
 10
-43.22419510312185
 20
-30.253778312830853
 30
0.0
 11
-42.65946020170257
 21
-30.948138237658807
 31
0.0
  0
LINE
  5
213
330
17
100
AcDbEntity
  8
0
100
AcDbLine
 10
-42.65946020170257
 20
-30.948138237658807
 30
0.0
 11
-42.082008270615795
 21
-31.631958741425887
 31
0.0
  0
LINE
  5
214
330
17
100
AcDbEntity
  8
0
100
AcDbLine
 10
-42.082008270615795
 20
-31.631958741425887
 30
0.0
 11
-41.49203596172462
 21
-32.30500694833958
 31
0.0
  0
LINE
  5
215
330
17
100
AcDbEntity
  8
0
100
AcDbLine
 10
-41.49203596172462
 20
-32.30500694833958
 30
0.0
 11
-40.88974419071997
 21
-32.967053651124424
 31
0.0
  0
LINE
  5
216
330
17
100
AcDbEntity
  8
0
100
AcDbLine
 10
-40.88974419071997
 20
-32.967053651124424
 30
0.0
 11
-40.27533806869865
 21
-33.617873389078675
 31
0.0
  0
LINE
  5
217
330
17
100
AcDbEntity
  8
0
100
AcDbLine
 10
-40.27533806869865
 20
-33.617873389078675
 30
0.0
 11
-39.64902683231237
 21
-34.25724452485539
 31
0.0
  0
LINE
  5
218
330
17
100
AcDbEntity
  8
0
100
AcDbLine
 10
-39.64902683231237
 20
-34.25724452485539
 30
0.0
 11
-39.01102377251206
 21
-34.884949319941136
 31
0.0
  0
LINE
  5
219
330
17
100
AcDbEntity
  8
0
100
AcDbLine
 10
-39.01102377251206
 20
-34.884949319941136
 30
0.0
 11
-38.361546161911534
 21
-35.50077400880701
 31
0.0
  0
LINE
  5
21A
330
17
100
AcDbEntity
  8
0
100
AcDbLine
 10
-38.361546161911534
 20
-35.50077400880701
 30
0.0
 11
-37.700815180794855
 21
-36.10450887170686
 31
0.0
  0
LINE
  5
21B
330
17
100
AcDbEntity
  8
0
100
AcDbLine
 10
-37.700815180794855
 20
-36.10450887170686
 30
0.0
 11
-37.029055841793294
 21
-36.695948306097485
 31
0.0
  0
LINE
  5
21C
330
17
100
AcDbEntity
  8
0
100
AcDbLine
 10
-37.029055841793294
 20
-36.695948306097485
 30
0.0
 11
-36.34649691325702
 21
-37.27489089665681
 31
0.0
  0
LINE
  5
21D
330
17
100
AcDbEntity
  8
0
100
AcDbLine
 10
-36.34649691325702
 20
-37.27489089665681
 30
0.0
 11
-35.65337084134776
 21
-37.841139483876084
 31
0.0
  0
LINE
  5
21E
330
17
100
AcDbEntity
  8
0
100
AcDbLine
 10
-35.65337084134776
 20
-37.841139483876084
 30
0.0
 11
-34.94991367087911
 21
-38.39450123120271
 31
0.0
  0
LINE
  5
21F
330
17
100
AcDbEntity
  8
0
100
AcDbLine
 10
-34.94991367087929
 20
-38.39450123120292
 30
0.0
 11
-34.82495534358454
 21
-38.490827874642534
 31
0.0
  0
LINE
  5
220
330
17
100
AcDbEntity
  8
0
100
AcDbLine
 10
-34.82495534358454
 20
-38.490827874642534
 30
0.0
 11
-34.6998845233146
 21
-38.58700841172612
 31
0.0
  0
LINE
  5
221
330
17
100
AcDbEntity
  8
0
100
AcDbLine
 10
-34.6998845233146
 20
-38.58700841172612
 30
0.0
 11
-34.57470138090306
 21
-38.683042711081185
 31
0.0
  0
LINE
  5
222
330
17
100
AcDbEntity
  8
0
100
AcDbLine
 10
-34.57470138090306
 20
-38.683042711081185
 30
0.0
 11
-34.449406087336506
 21
-38.778930641535226
 31
0.0
  0
LINE
  5
223
330
17
100
AcDbEntity
  8
0
100
AcDbLine
 10
-34.449406087336506
 20
-38.778930641535226
 30
0.0
 11
-34.3239988137552
 21
-38.874672072115445
 31
0.0
  0
LINE
  5
224
330
17
100
AcDbEntity
  8
0
100
AcDbLine
 10
-34.3239988137552
 20
-38.874672072115445
 30
0.0
 11
-34.19847973145185
 21
-38.97026687204939
 31
0.0
  0
LINE
  5
225
330
17
100
AcDbEntity
  8
0
100
AcDbLine
 10
-34.19847973145185
 20
-38.97026687204939
 30
0.0
 11
-34.07284901187236
 21
-39.065714910764626
 31
0.0
  0
LINE
  5
226
330
17
100
AcDbEntity
  8
0
100
AcDbLine
 10
-34.07284901187236
 20
-39.065714910764626
 30
0.0
 11
-33.94710682661469
 21
-39.16101605788947
 31
0.0
  0
LINE
  5
227
330
17
100
AcDbEntity
  8
0
100
AcDbLine
 10
-33.94710682661469
 20
-39.16101605788947
 30
0.0
 11
-33.82125334742944
 21
-39.256170183252564
 31
0.0
  0
LINE
  5
228
330
17
100
AcDbEntity
  8
0
100
AcDbLine
 10
-33.82125334742944
 20
-39.256170183252564
 30
0.0
 11
-33.69528874621893
 21
-39.35117715688358
 31
0.0
  0
LINE
  5
229
330
17
100
AcDbEntity
  8
0
100
AcDbLine
 10
-33.69528874621893
 20
-39.35117715688358
 30
0.0
 11
-33.569213195037285
 21
-39.44603684901321
 31
0.0
  0
LINE
  5
22A
330
17
100
AcDbEntity
  8
0
100
AcDbLine
 10
-33.569213195037285
 20
-39.44603684901321
 30
0.0
 11
-33.44302686609047
 21
-39.540749130073124
 31
0.0
  0
LINE
  5
22B
330
17
100
AcDbEntity
  8
0
100
AcDbLine
 10
-33.44302686609047
 20
-39.540749130073124
 30
0.0
 11
-33.3167299317353
 21
-39.63531387069655
 31
0.0
  0
LINE
  5
22C
330
17
100
AcDbEntity
  8
0
100
AcDbLine
 10
-33.3167299317353
 20
-39.63531387069655
 30
0.0
 11
-33.19032256448018
 21
-39.72973094171802
 31
0.0
  0
LINE
  5
22D
330
17
100
AcDbEntity
  8
0
100
AcDbLine
 10
-33.19032256448018
 20
-39.72973094171802
 30
0.0
 11
-33.06380493698385
 21
-39.82400021417402
 31
0.0
  0
LINE
  5
22E
330
17
100
AcDbEntity
  8
0
100
AcDbLine
 10
-33.06380493698385
 20
-39.82400021417402
 30
0.0
 11
-32.937177222056086
 21
-39.918121559302634
 31
0.0
  0
LINE
  5
22F
330
17
100
AcDbEntity
  8
0
100
AcDbLine
 10
-32.937177222056086
 20
-39.918121559302634
 30
0.0
 11
-32.81043959265664
 21
-40.012094848544294
 31
0.0
  0
LINE
  5
230
330
17
100
AcDbEntity
  8
0
100
AcDbLine
 10
-32.81043959265664
 20
-40.012094848544294
 30
0.0
 11
-32.68359222189583
 21
-40.105919953541374
 31
0.0
  0
LINE
  5
231
330
17
100
AcDbEntity
  8
0
100
AcDbLine
 10
-32.68359222189583
 20
-40.105919953541374
 30
0.0
 11
-32.55663528303349
 21
-40.19959674613885
 31
0.0
  0
LINE
  5
232
330
17
100
AcDbEntity
  8
0
100
AcDbLine
 10
-32.55663528303349
 20
-40.19959674613885
 30
0.0
 11
-32.42956894947917
 21
-40.29312509838431
 31
0.0
  0
LINE
  5
233
330
17
100
AcDbEntity
  8
0
100
AcDbLine
 10
-32.42956894947917
 20
-40.29312509838431
 30
0.0
 11
-32.30239339479214
 21
-40.38650488252783
 31
0.0
  0
LINE
  5
234
330
17
100
AcDbEntity
  8
0
100
AcDbLine
 10
-32.30239339479214
 20
-40.38650488252783
 30
0.0
 11
-32.17510879268041
 21
-40.479735971022734
 31
0.0
  0
LINE
  5
235
330
17
100
AcDbEntity
  8
0
100
AcDbLine
 10
-32.17510879268041
 20
-40.479735971022734
 30
0.0
 11
-32.04771531700141
 21
-40.57281823652518
 31
0.0
  0
LINE
  5
236
330
17
100
AcDbEntity
  8
0
100
AcDbLine
 10
-32.04771531700141
 20
-40.57281823652518
 30
0.0
 11
-31.92021314176079
 21
-40.66575155189486
 31
0.0
  0
LINE
  5
237
330
17
100
AcDbEntity
  8
0
100
AcDbLine
 10
-31.92021314176079
 20
-40.66575155189486
 30
0.0
 11
-31.792602441113168
 21
-40.758535790194614
 31
0.0
  0
LINE
  5
238
330
17
100
AcDbEntity
  8
0
100
AcDbLine
 10
-31.792602441113168
 20
-40.758535790194614
 30
0.0
 11
-31.664883389360902
 21
-40.85117082469122
 31
0.0
  0
LINE
  5
239
330
17
100
AcDbEntity
  8
0
100
AcDbLine
 10
-31.664883389360902
 20
-40.85117082469122
 30
0.0
 11
-31.537056160954826
 21
-40.94365652885497
 31
0.0
  0
LINE
  5
23A
330
17
100
AcDbEntity
  8
0
100
AcDbLine
 10
-31.537056160954826
 20
-40.94365652885497
 30
0.0
 11
-31.409120930493167
 21
-41.035992776360345
 31
0.0
  0
LINE
  5
23B
330
17
100
AcDbEntity
  8
0
100
AcDbLine
 10
-31.409120930493167
 20
-41.035992776360345
 30
0.0
 11
-31.281077872721745
 21
-41.12817944108592
 31
0.0
  0
LINE
  5
23C
330
17
100
AcDbEntity
  8
0
100
AcDbLine
 10
-31.281077872721745
 20
-41.12817944108592
 30
0.0
 11
-31.152927162533878
 21
-41.22021639711444
 31
0.0
  0
LINE
  5
23D
330
17
100
AcDbEntity
  8
0
100
AcDbLine
 10
-31.152927162533878
 20
-41.22021639711444
 30
0.0
 11
-31.024668974969593
 21
-41.31210351873334
 31
0.0
  0
LINE
  5
23E
330
17
100
AcDbEntity
  8
0
100
AcDbLine
 10
-31.024668974969593
 20
-41.31210351873334
 30
0.0
 11
-30.89630348521606
 21
-41.40384068043451
 31
0.0
  0
LINE
  5
23F
330
17
100
AcDbEntity
  8
0
100
AcDbLine
 10
-30.89630348521606
 20
-41.40384068043451
 30
0.0
 11
-30.767830868606673
 21
-41.49542775691489
 31
0.0
  0
LINE
  5
240
330
17
100
AcDbEntity
  8
0
100
AcDbLine
 10
-30.767830868606673
 20
-41.49542775691489
 30
0.0
 11
-30.63925130062153
 21
-41.58686462307617
 31
0.0
  0
LINE
  5
241
330
17
100
AcDbEntity
  8
0
100
AcDbLine
 10
-30.63925130062153
 20
-41.58686462307617
 30
0.0
 11
-30.510564956886363
 21
-41.678151154025485
 31
0.0
  0
LINE
  5
242
330
17
100
AcDbEntity
  8
0
100
AcDbLine
 10
-30.510564956886363
 20
-41.678151154025485
 30
0.0
 11
-30.38177201317321
 21
-41.76928722507505
 31
0.0
  0
LINE
  5
243
330
17
100
AcDbEntity
  8
0
100
AcDbLine
 10
-30.38177201317321
 20
-41.76928722507505
 30
0.0
 11
-30.252872645399414
 21
-41.86027271174275
 31
0.0
  0
LINE
  5
244
330
17
100
AcDbEntity
  8
0
100
AcDbLine
 10
-30.252872645399414
 20
-41.86027271174275
 30
0.0
 11
-30.123867029627625
 21
-41.95110748975222
 31
0.0
  0
LINE
  5
245
330
17
100
AcDbEntity
  8
0
100
AcDbLine
 10
-30.123867029627625
 20
-41.95110748975222
 30
0.0
 11
-29.99475534206598
 21
-42.04179143503268
 31
0.0
  0
LINE
  5
246
330
17
100
AcDbEntity
  8
0
100
AcDbLine
 10
-29.99475534206598
 20
-42.04179143503268
 30
0.0
 11
-29.86553775906706
 21
-42.13232442371968
 31
0.0
  0
LINE
  5
247
330
17
100
AcDbEntity
  8
0
100
AcDbLine
 10
-29.86553775906706
 20
-42.13232442371968
 30
0.0
 11
-29.73621445712849
 21
-42.22270633215469
 31
0.0
  0
LINE
  5
248
330
17
100
AcDbEntity
  8
0
100
AcDbLine
 10
-29.73621445712849
 20
-42.22270633215469
 30
0.0
 11
-29.60678561289192
 21
-42.312937036885785
 31
0.0
  0
LINE
  5
249
330
17
100
AcDbEntity
  8
0
100
AcDbLine
 10
-29.60678561289192
 20
-42.312937036885785
 30
0.0
 11
-29.477251403143534
 21
-42.403016414667306
 31
0.0
  0
LINE
  5
24A
330
17
100
AcDbEntity
  8
0
100
AcDbLine
 10
-29.477251403143534
 20
-42.403016414667306
 30
0.0
 11
-29.347612004813037
 21
-42.49294434246059
 31
0.0
  0
LINE
  5
24B
330
17
100
AcDbEntity
  8
0
100
AcDbLine
 10
-29.347612004813037
 20
-42.49294434246059
 30
0.0
 11
-29.21786759497423
 21
-42.58272069743353
 31
0.0
  0
LINE
  5
24C
330
17
100
AcDbEntity
  8
0
100
AcDbLine
 10
-29.21786759497423
 20
-42.58272069743353
 30
0.0
 11
-29.08801835084406
 21
-42.67234535696127
 31
0.0
  0
LINE
  5
24D
330
17
100
AcDbEntity
  8
0
100
AcDbLine
 10
-29.08801835084406
 20
-42.67234535696127
 30
0.0
 11
-28.95806444978259
 21
-42.7618181986262
 31
0.0
  0
LINE
  5
24E
330
17
100
AcDbEntity
  8
0
100
AcDbLine
 10
-28.95806444978259
 20
-42.7618181986262
 30
0.0
 11
-28.828006069293203
 21
-42.85113910021775
 31
0.0
  0
LINE
  5
24F
330
17
100
AcDbEntity
  8
0
100
AcDbLine
 10
-28.828006069293203
 20
-42.85113910021775
 30
0.0
 11
-28.697843387021614
 21
-42.94030793973326
 31
0.0
  0
LINE
  5
250
330
17
100
AcDbEntity
  8
0
100
AcDbLine
 10
-28.697843387021614
 20
-42.94030793973326
 30
0.0
 11
-28.567576580756317
 21
-43.0293245953775
 31
0.0
  0
LINE
  5
251
330
17
100
AcDbEntity
  8
0
100
AcDbLine
 10
-28.567576580756317
 20
-43.0293245953775
 30
0.0
 11
-28.437205828427658
 21
-43.11818894556335
 31
0.0
  0
LINE
  5
252
330
17
100
AcDbEntity
  8
0
100
AcDbLine
 10
-28.437205828427658
 20
-43.11818894556335
 30
0.0
 11
-28.306731308108432
 21
-43.206900868911404
 31
0.0
  0
LINE
  5
253
330
17
100
AcDbEntity
  8
0
100
AcDbLine
 10
-28.306731308108432
 20
-43.206900868911404
 30
0.0
 11
-28.176153198012678
 21
-43.295460244250805
 31
0.0
  0
LINE
  5
254
330
17
100
AcDbEntity
  8
0
100
AcDbLine
 10
-28.176153198012678
 20
-43.295460244250805
 30
0.0
 11
-28.04547167649637
 21
-43.38386695061877
 31
0.0
  0
LINE
  5
255
330
17
100
AcDbEntity
  8
0
100
AcDbLine
 10
-28.04547167649637
 20
-43.38386695061877
 30
0.0
 11
-27.91468692205644
 21
-43.47212086726121
 31
0.0
  0
LINE
  5
256
330
17
100
AcDbEntity
  8
0
100
AcDbLine
 10
-27.91468692205644
 20
-43.47212086726121
 30
0.0
 11
-27.783799113330794
 21
-43.560221873632784
 31
0.0
  0
LINE
  5
257
330
17
100
AcDbEntity
  8
0
100
AcDbLine
 10
-27.783799113330794
 20
-43.560221873632784
 30
0.0
 11
-27.652808429098407
 21
-43.648169849396766
 31
0.0
  0
LINE
  5
258
330
17
100
AcDbEntity
  8
0
100
AcDbLine
 10
-27.652808429098407
 20
-43.648169849396766
 30
0.0
 11
-27.521715048278416
 21
-43.73596467442573
 31
0.0
  0
LINE
  5
259
330
17
100
AcDbEntity
  8
0
100
AcDbLine
 10
-27.521715048278416
 20
-43.73596467442573
 30
0.0
 11
-27.39051914993056
 21
-43.82360622880117
 31
0.0
  0
LINE
  5
25A
330
17
100
AcDbEntity
  8
0
100
AcDbLine
 10
-27.39051914993056
 20
-43.82360622880117
 30
0.0
 11
-27.259220913254246
 21
-43.91109439281426
 31
0.0
  0
LINE
  5
25B
330
17
100
AcDbEntity
  8
0
100
AcDbLine
 10
-27.259220913254246
 20
-43.91109439281426
 30
0.0
 11
-27.12782051758908
 21
-43.9984290469653
 31
0.0
  0
LINE
  5
25C
330
17
100
AcDbEntity
  8
0
100
AcDbLine
 10
-27.12782051758908
 20
-43.9984290469653
 30
0.0
 11
-26.996318142413763
 21
-44.08561007196464
 31
0.0
  0
LINE
  5
25D
330
17
100
AcDbEntity
  8
0
100
AcDbLine
 10
-26.996318142413763
 20
-44.08561007196464
 30
0.0
 11
-26.864713967346724
 21
-44.17263734873217
 31
0.0
  0
LINE
  5
25E
330
17
100
AcDbEntity
  8
0
100
AcDbLine
 10
-26.864713967346724
 20
-44.17263734873217
 30
0.0
 11
-26.733008172145112
 21
-44.25951075839795
 31
0.0
  0
LINE
  5
25F
330
17
100
AcDbEntity
  8
0
100
AcDbLine
 10
-26.733008172145112
 20
-44.25951075839795
 30
0.0
 11
-26.60120093670492
 21
-44.34623018230225
 31
0.0
  0
LINE
  5
260
330
17
100
AcDbEntity
  8
0
100
AcDbLine
 10
-26.60120093670492
 20
-44.34623018230225
 30
0.0
 11
-26.469292441060936
 21
-44.43279550199547
 31
0.0
  0
LINE
  5
261
330
17
100
AcDbEntity
  8
0
100
AcDbLine
 10
-26.469292441060936
 20
-44.43279550199547
 30
0.0
 11
-26.33728286538591
 21
-44.51920659923874
 31
0.0
  0
LINE
  5
262
330
17
100
AcDbEntity
  8
0
100
AcDbLine
 10
-26.33728286538591
 20
-44.51920659923874
 30
0.0
 11
-26.205172389991056
 21
-44.6054633560036
 31
0.0
  0
LINE
  5
263
330
17
100
AcDbEntity
  8
0
100
AcDbLine
 10
-26.205172389991056
 20
-44.6054633560036
 30
0.0
 11
-26.072961195324957
 21
-44.69156565447264
 31
0.0
  0
LINE
  5
264
330
17
100
AcDbEntity
  8
0
100
AcDbLine
 10
-26.072961195324957
 20
-44.69156565447264
 30
0.0
 11
-25.94064946197424
 21
-44.777513377039156
 31
0.0
  0
LINE
  5
265
330
17
100
AcDbEntity
  8
0
100
AcDbLine
 10
-25.94064946197424
 20
-44.777513377039156
 30
0.0
 11
-25.80823737066239
 21
-44.863306406307885
 31
0.0
  0
LINE
  5
266
330
17
100
AcDbEntity
  8
0
100
AcDbLine
 10
-25.80823737066239
 20
-44.863306406307885
 30
0.0
 11
-25.675725102250404
 21
-44.94894462509457
 31
0.0
  0
LINE
  5
267
330
17
100
AcDbEntity
  8
0
100
AcDbLine
 10
-25.675725102250404
 20
-44.94894462509457
 30
0.0
 11
-25.543112837735784
 21
-45.03442791642661
 31
0.0
  0
LINE
  5
268
330
17
100
AcDbEntity
  8
0
100
AcDbLine
 10
-25.543112837735784
 20
-45.03442791642661
 30
0.0
 11
-25.410400758252685
 21
-45.119756163542974
 31
0.0
  0
LINE
  5
269
330
17
100
AcDbEntity
  8
0
100
AcDbLine
 10
-25.410400758252685
 20
-45.119756163542974
 30
0.0
 11
-25.277589045071814
 21
-45.204929249894306
 31
0.0
  0
LINE
  5
26A
330
17
100
AcDbEntity
  8
0
100
AcDbLine
 10
-25.277589045071814
 20
-45.204929249894306
 30
0.0
 11
-25.14467787959962
 21
-45.28994705914333
 31
0.0
  0
LINE
  5
26B
330
17
100
AcDbEntity
  8
0
100
AcDbLine
 10
-25.14467787959962
 20
-45.28994705914333
 30
0.0
 11
-25.011667443378762
 21
-45.37480947516471
 31
0.0
  0
LINE
  5
26C
330
17
100
AcDbEntity
  8
0
100
AcDbLine
 10
-25.011667443378762
 20
-45.37480947516471
 30
0.0
 11
-24.878557918087104
 21
-45.45951638204552
 31
0.0
  0
LINE
  5
26D
330
17
100
AcDbEntity
  8
0
100
AcDbLine
 10
-24.878557918087104
 20
-45.45951638204552
 30
0.0
 11
-24.745349485538277
 21
-45.54406766408508
 31
0.0
  0
LINE
  5
26E
330
17
100
AcDbEntity
  8
0
100
AcDbLine
 10
-24.745349485538277
 20
-45.54406766408508
 30
0.0
 11
-24.612042327680577
 21
-45.628463205795455
 31
0.0
  0
LINE
  5
26F
330
17
100
AcDbEntity
  8
0
100
AcDbLine
 10
-24.612042327680577
 20
-45.628463205795455
 30
0.0
 11
-24.478636626597556
 21
-45.7127028919012
 31
0.0
  0
LINE
  5
270
330
17
100
AcDbEntity
  8
0
100
AcDbLine
 10
-24.478636626597556
 20
-45.7127028919012
 30
0.0
 11
-24.34513256450709
 21
-45.796786607339996
 31
0.0
  0
LINE
  5
271
330
17
100
AcDbEntity
  8
0
100
AcDbLine
 10
-24.34513256450709
 20
-45.796786607339996
 30
0.0
 11
-24.211530323761373
 21
-45.880714237262495
 31
0.0
  0
LINE
  5
272
330
17
100
AcDbEntity
  8
0
100
AcDbLine
 10
-24.211530323761373
 20
-45.880714237262495
 30
0.0
 11
-24.07783008684701
 21
-45.96448566703236
 31
0.0
  0
LINE
  5
273
330
17
100
AcDbEntity
  8
0
100
AcDbLine
 10
-24.07783008684701
 20
-45.96448566703236
 30
0.0
 11
-23.944032036384066
 21
-46.04810078222694
 31
0.0
  0
LINE
  5
274
330
17
100
AcDbEntity
  8
0
100
AcDbLine
 10
-23.944032036384066
 20
-46.04810078222694
 30
0.0
 11
-23.81013635512661
 21
-46.13155946863672
 31
0.0
  0
LINE
  5
275
330
17
100
AcDbEntity
  8
0
100
AcDbLine
 10
-23.81013635512661
 20
-46.13155946863672
 30
0.0
 11
-23.676143225961646
 21
-46.214861612266205
 31
0.0
  0
LINE
  5
276
330
17
100
AcDbEntity
  8
0
100
AcDbLine
 10
-23.676143225961646
 20
-46.214861612266205
 30
0.0
 11
-23.542052831909693
 21
-46.298007099333404
 31
0.0
  0
LINE
  5
277
330
17
100
AcDbEntity
  8
0
100
AcDbLine
 10
-23.542052831909693
 20
-46.298007099333404
 30
0.0
 11
-23.407865356123743
 21
-46.3809958162706
 31
0.0
  0
LINE
  5
278
330
17
100
AcDbEntity
  8
0
100
AcDbLine
 10
-23.407865356123743
 20
-46.3809958162706
 30
0.0
 11
-23.273580981889772
 21
-46.463827649723896
 31
0.0
  0
LINE
  5
279
330
17
100
AcDbEntity
  8
0
100
AcDbLine
 10
-23.273580981889772
 20
-46.463827649723896
 30
0.0
 11
-23.139199892625804
 21
-46.54650248655393
 31
0.0
  0
LINE
  5
27A
330
17
100
AcDbEntity
  8
0
100
AcDbLine
 10
-23.139199892625804
 20
-46.54650248655393
 30
0.0
 11
-23.00472227188194
 21
-46.62902021383576
 31
0.0
  0
LINE
  5
27B
330
17
100
AcDbEntity
  8
0
100
AcDbLine
 10
-23.00472227188194
 20
-46.62902021383576
 30
0.0
 11
-22.87014830334052
 21
-46.71138071885885
 31
0.0
  0
LINE
  5
27C
330
17
100
AcDbEntity
  8
0
100
AcDbLine
 10
-22.87014830334052
 20
-46.71138071885885
 30
0.0
 11
-22.73547817081498
 21
-46.793583889127646
 31
0.0
  0
LINE
  5
27D
330
17
100
AcDbEntity
  8
0
100
AcDbLine
 10
-22.73547817081498
 20
-46.793583889127646
 30
0.0
 11
-22.6007120582506
 21
-46.87562961236128
 31
0.0
  0
LINE
  5
27E
330
17
100
AcDbEntity
  8
0
100
AcDbLine
 10
-22.6007120582506
 20
-46.87562961236128
 30
0.0
 11
-22.465850149723273
 21
-46.95751777649416
 31
0.0
  0
LINE
  5
27F
330
17
100
AcDbEntity
  8
0
100
AcDbLine
 10
-22.465850149723273
 20
-46.95751777649416
 30
0.0
 11
-22.33089262944022
 21
-47.03924826967567
 31
0.0
  0
LINE
  5
280
330
17
100
AcDbEntity
  8
0
100
AcDbLine
 10
-22.33089262944022
 20
-47.03924826967567
 30
0.0
 11
-22.195839681738782
 21
-47.12082098027078
 31
0.0
  0
LINE
  5
281
330
17
100
AcDbEntity
  8
0
100
AcDbLine
 10
-22.195839681738782
 20
-47.12082098027078
 30
0.0
 11
-22.060691491087077
 21
-47.20223579685977
 31
0.0
  0
LINE
  5
282
330
17
100
AcDbEntity
  8
0
100
AcDbLine
 10
-22.060691491086875
 20
-47.20223579685959
 30
0.0
 11
-22.041909511347086
 21
-47.2134654670569
 31
0.0
  0
LINE
  5
283
330
17
100
AcDbEntity
  8
0
100
AcDbLine
 10
-22.041909511347086
 20
-47.2134654670569
 30
0.0
 11
-22.0230663780197
 21
-47.224592217799696
 31
0.0
  0
LINE
  5
284
330
17
100
AcDbEntity
  8
0
100
AcDbLine
 10
-22.0230663780197
 20
-47.224592217799696
 30
0.0
 11
-22.004162655065855
 21
-47.235615716072495
 31
0.0
  0
LINE
  5
285
330
17
100
AcDbEntity
  8
0
100
AcDbLine
 10
-22.004162655065855
 20
-47.235615716072495
 30
0.0
 11
-21.985198908260113
 21
-47.24653563195009
 31
0.0
  0
LINE
  5
286
330
17
100
AcDbEntity
  8
0
100
AcDbLine
 10
-21.985198908260113
 20
-47.24653563195009
 30
0.0
 11
-21.966175705173487
 21
-47.25735163860741
 31
0.0
  0
LINE
  5
287
330
17
100
AcDbEntity
  8
0
100
AcDbLine
 10
-21.966175705173487
 20
-47.25735163860741
 30
0.0
 11
-21.947093615156493
 21
-47.26806341232931
 31
0.0
  0
LINE
  5
288
330
17
100
AcDbEntity
  8
0
100
AcDbLine
 10
-21.947093615156493
 20
-47.26806341232931
 30
0.0
 11
-21.927953209322066
 21
-47.27867063252028
 31
0.0
  0
LINE
  5
289
330
17
100
AcDbEntity
  8
0
100
AcDbLine
 10
-21.927953209322066
 20
-47.27867063252028
 30
0.0
 11
-21.908755060528513
 21
-47.289172981713996
 31
0.0
  0
LINE
  5
28A
330
17
100
AcDbEntity
  8
0
100
AcDbLine
 10
-21.908755060528513
 20
-47.289172981713996
 30
0.0
 11
-21.889499743362332
 21
-47.29957014558285
 31
0.0
  0
LINE
  5
28B
330
17
100
AcDbEntity
  8
0
100
AcDbLine
 10
-21.889499743362332
 20
-47.29957014558285
 30
0.0
 11
-21.870187834121033
 21
-47.30986181294737
 31
0.0
  0
LINE
  5
28C
330
17
100
AcDbEntity
  8
0
100
AcDbLine
 10
-21.870187834121033
 20
-47.30986181294737
 30
0.0
 11
-21.85081991079588
 21
-47.320047675785496
 31
0.0
  0
LINE
  5
28D
330
17
100
AcDbEntity
  8
0
100
AcDbLine
 10
-21.85081991079588
 20
-47.320047675785496
 30
0.0
 11
-21.831396553054606
 21
-47.330127429241834
 31
0.0
  0
LINE
  5
28E
330
17
100
AcDbEntity
  8
0
100
AcDbLine
 10
-21.831396553054606
 20
-47.330127429241834
 30
0.0
 11
-21.811918342224054
 21
-47.34010077163677
 31
0.0
  0
LINE
  5
28F
330
17
100
AcDbEntity
  8
0
100
AcDbLine
 10
-21.811918342224054
 20
-47.34010077163677
 30
0.0
 11
-21.79238586127277
 21
-47.34996740447547
 31
0.0
  0
LINE
  5
290
330
17
100
AcDbEntity
  8
0
100
AcDbLine
 10
-21.79238586127277
 20
-47.34996740447547
 30
0.0
 11
-21.772799694793576
 21
-47.359727032456874
 31
0.0
  0
LINE
  5
291
330
17
100
AcDbEntity
  8
0
100
AcDbLine
 10
-21.772799694793576
 20
-47.359727032456874
 30
0.0
 11
-21.753160428986053
 21
-47.36937936348247
 31
0.0
  0
LINE
  5
292
330
17
100
AcDbEntity
  8
0
100
AcDbLine
 10
-21.753160428986053
 20
-47.36937936348247
 30
0.0
 11
-21.733468651639022
 21
-47.378924108665075
 31
0.0
  0
LINE
  5
293
330
17
100
AcDbEntity
  8
0
100
AcDbLine
 10
-21.733468651639022
 20
-47.378924108665075
 30
0.0
 11
-21.713724952112912
 21
-47.388360982337474
 31
0.0
  0
LINE
  5
294
330
17
100
AcDbEntity
  8
0
100
AcDbLine
 10
-21.713724952112912
 20
-47.388360982337474
 30
0.0
 11
-21.693929921322162
 21
-47.39768970206096
 31
0.0
  0
LINE
  5
295
330
17
100
AcDbEntity
  8
0
100
AcDbLine
 10
-21.693929921322162
 20
-47.39768970206096
 30
0.0
 11
-21.674084151717516
 21
-47.40690998863381
 31
0.0
  0
LINE
  5
296
330
17
100
AcDbEntity
  8
0
100
AcDbLine
 10
-21.674084151717516
 20
-47.40690998863381
 30
0.0
 11
-21.654188237268293
 21
-47.4160215660996
 31
0.0
  0
LINE
  5
297
330
17
100
AcDbEntity
  8
0
100
AcDbLine
 10
-21.654188237268293
 20
-47.4160215660996
 30
0.0
 11
-21.6342427734446
 21
-47.42502416175552
 31
0.0
  0
LINE
  5
298
330
17
100
AcDbEntity
  8
0
100
AcDbLine
 10
-21.6342427734446
 20
-47.42502416175552
 30
0.0
 11
-21.614248357199536
 21
-47.43391750616048
 31
0.0
  0
LINE
  5
299
330
17
100
AcDbEntity
  8
0
100
AcDbLine
 10
-21.614248357199536
 20
-47.43391750616048
 30
0.0
 11
-21.594205586951304
 21
-47.44270133314321
 31
0.0
  0
LINE
  5
29A
330
17
100
AcDbEntity
  8
0
100
AcDbLine
 10
-21.594205586951304
 20
-47.44270133314321
 30
0.0
 11
-21.5741150625653
 21
-47.45137537981022
 31
0.0
  0
LINE
  5
29B
330
17
100
AcDbEntity
  8
0
100
AcDbLine
 10
-21.5741150625653
 20
-47.45137537981022
 30
0.0
 11
-21.553977385336175
 21
-47.459939386553664
 31
0.0
  0
LINE
  5
29C
330
17
100
AcDbEntity
  8
0
100
AcDbLine
 10
-21.553977385336175
 20
-47.459939386553664
 30
0.0
 11
-21.53379315796983
 21
-47.4683930970591
 31
0.0
  0
LINE
  5
29D
330
17
100
AcDbEntity
  8
0
100
AcDbLine
 10
-21.53379315796983
 20
-47.4683930970591
 30
0.0
 11
-21.513562984565368
 21
-47.476736258313174
 31
0.0
  0
LINE
  5
29E
330
17
100
AcDbEntity
  8
0
100
AcDbLine
 10
-21.513562984565368
 20
-47.476736258313174
 30
0.0
 11
-21.493287470597032
 21
-47.4849686206112
 31
0.0
  0
LINE
  5
29F
330
17
100
AcDbEntity
  8
0
100
AcDbLine
 10
-21.493287470597032
 20
-47.4849686206112
 30
0.0
 11
-21.472967222896074
 21
-47.49308993756462
 31
0.0
  0
LINE
  5
2A0
330
17
100
AcDbEntity
  8
0
100
AcDbLine
 10
-21.472967222896074
 20
-47.49308993756462
 30
0.0
 11
-21.452602849632594
 21
-47.50109996610837
 31
0.0
  0
LINE
  5
2A1
330
17
100
AcDbEntity
  8
0
100
AcDbLine
 10
-21.452602849632594
 20
-47.50109996610837
 30
0.0
 11
-21.432194960297334
 21
-47.508998466508174
 31
0.0
  0
LINE
  5
2A2
330
17
100
AcDbEntity
  8
0
100
AcDbLine
 10
-21.432194960297334
 20
-47.508998466508174
 30
0.0
 11
-21.411744165683437
 21
-47.51678520236773
 31
0.0
  0
LINE
  5
2A3
330
17
100
AcDbEntity
  8
0
100
AcDbLine
 10
-21.411744165683437
 20
-47.51678520236773
 30
0.0
 11
-21.391251077868183
 21
-47.52445994063573
 31
0.0
  0
LINE
  5
2A4
330
17
100
AcDbEntity
  8
0
100
AcDbLine
 10
-21.391251077868183
 20
-47.52445994063573
 30
0.0
 11
-21.370716310194645
 21
-47.532022451612896
 31
0.0
  0
LINE
  5
2A5
330
17
100
AcDbEntity
  8
0
100
AcDbLine
 10
-21.370716310194645
 20
-47.532022451612896
 30
0.0
 11
-21.350140477253344
 21
-47.53947250895884
 31
0.0
  0
LINE
  5
2A6
330
17
100
AcDbEntity
  8
0
100
AcDbLine
 10
-21.350140477253344
 20
-47.53947250895884
 30
0.0
 11
-21.329524194863858
 21
-47.54680988969879
 31
0.0
  0
LINE
  5
2A7
330
17
100
AcDbEntity
  8
0
100
AcDbLine
 10
-21.329524194863858
 20
-47.54680988969879
 30
0.0
 11
-21.308868080056385
 21
-47.55403437423034
 31
0.0
  0
LINE
  5
2A8
330
17
100
AcDbEntity
  8
0
100
AcDbLine
 10
-21.308868080056385
 20
-47.55403437423034
 30
0.0
 11
-21.288172751053285
 21
-47.56114574632998
 31
0.0
  0
LINE
  5
2A9
330
17
100
AcDbEntity
  8
0
100
AcDbLine
 10
-21.288172751053285
 20
-47.56114574632998
 30
0.0
 11
-21.267438827250558
 21
-47.56814379315954
 31
0.0
  0
LINE
  5
2AA
330
17
100
AcDbEntity
  8
0
100
AcDbLine
 10
-21.267438827250558
 20
-47.56814379315954
 30
0.0
 11
-21.246666929199325
 21
-47.57502830527263
 31
0.0
  0
LINE
  5
2AB
330
17
100
AcDbEntity
  8
0
100
AcDbLine
 10
-21.246666929199325
 20
-47.57502830527263
 30
0.0
 11
-21.22585767858725
 21
-47.58179907662086
 31
0.0
  0
LINE
  5
2AC
330
17
100
AcDbEntity
  8
0
100
AcDbLine
 10
-21.22585767858725
 20
-47.58179907662086
 30
0.0
 11
-21.20501169821993
 21
-47.58845590456
 31
0.0
  0
LINE
  5
2AD
330
17
100
AcDbEntity
  8
0
100
AcDbLine
 10
-21.20501169821993
 20
-47.58845590456
 30
0.0
 11
-21.184129612002252
 21
-47.59499858985609
 31
0.0
  0
LINE
  5
2AE
330
17
100
AcDbEntity
  8
0
100
AcDbLine
 10
-21.184129612002252
 20
-47.59499858985609
 30
0.0
 11
-21.16321204491973
 21
-47.60142693669135
 31
0.0
  0
LINE
  5
2AF
330
17
100
AcDbEntity
  8
0
100
AcDbLine
 10
-21.16321204491973
 20
-47.60142693669135
 30
0.0
 11
-21.1422596230198
 21
-47.60774075267008
 31
0.0
  0
LINE
  5
2B0
330
17
100
AcDbEntity
  8
0
100
AcDbLine
 10
-21.1422596230198
 20
-47.60774075267008
 30
0.0
 11
-21.12127297339306
 21
-47.61393984882441
 31
0.0
  0
LINE
  5
2B1
330
17
100
AcDbEntity
  8
0
100
AcDbLine
 10
-21.12127297339306
 20
-47.61393984882441
 30
0.0
 11
-21.100252724154533
 21
-47.62002403961993
 31
0.0
  0
LINE
  5
2B2
330
17
100
AcDbEntity
  8
0
100
AcDbLine
 10
-21.100252724154533
 20
-47.62002403961993
 30
0.0
 11
-21.07919950442485
 21
-47.625993142961285
 31
0.0
  0
LINE
  5
2B3
330
17
100
AcDbEntity
  8
0
100
AcDbLine
 10
-21.07919950442485
 20
-47.625993142961285
 30
0.0
 11
-21.058113944311426
 21
-47.63184698019759
 31
0.0
  0
LINE
  5
2B4
330
17
100
AcDbEntity
  8
0
100
AcDbLine
 10
-21.058113944311426
 20
-47.63184698019759
 30
0.0
 11
-21.036996674889593
 21
-47.63758537612779
 31
0.0
  0
LINE
  5
2B5
330
17
100
AcDbEntity
  8
0
100
AcDbLine
 10
-21.036996674889593
 20
-47.63758537612779
 30
0.0
 11
-21.015848328183722
 21
-47.643208159005916
 31
0.0
  0
LINE
  5
2B6
330
17
100
AcDbEntity
  8
0
100
AcDbLine
 10
-21.015848328183722
 20
-47.643208159005916
 30
0.0
 11
-20.994669537148315
 21
-47.648715160546196
 31
0.0
  0
LINE
  5
2B7
330
17
100
AcDbEntity
  8
0
100
AcDbLine
 10
-20.994669537148315
 20
-47.648715160546196
 30
0.0
 11
-20.97346093564904
 21
-47.65410621592812
 31
0.0
  0
LINE
  5
2B8
330
17
100
AcDbEntity
  8
0
100
AcDbLine
 10
-20.97346093564904
 20
-47.65410621592812
 30
0.0
 11
-20.95222315844377
 21
-47.659381163801356
 31
0.0
  0
LINE
  5
2B9
330
17
100
AcDbEntity
  8
0
100
AcDbLine
 10
-20.95222315844377
 20
-47.659381163801356
 30
0.0
 11
-20.930956841163585
 21
-47.66453984629059
 31
0.0
  0
LINE
  5
2BA
330
17
100
AcDbEntity
  8
0
100
AcDbLine
 10
-20.930956841163585
 20
-47.66453984629059
 30
0.0
 11
-20.90966262029376
 21
-47.66958210900023
 31
0.0
  0
LINE
  5
2BB
330
17
100
AcDbEntity
  8
0
100
AcDbLine
 10
-20.90966262029376
 20
-47.66958210900023
 30
0.0
 11
-20.888341133154686
 21
-47.67450780101906
 31
0.0
  0
LINE
  5
2BC
330
17
100
AcDbEntity
  8
0
100
AcDbLine
 10
-20.888341133154686
 20
-47.67450780101906
 30
0.0
 11
-20.866993017882827
 21
-47.67931677492474
 31
0.0
  0
LINE
  5
2BD
330
17
100
AcDbEntity
  8
0
100
AcDbLine
 10
-20.866993017882827
 20
-47.67931677492474
 30
0.0
 11
-20.845618913411602
 21
-47.68400888678821
 31
0.0
  0
LINE
  5
2BE
330
17
100
AcDbEntity
  8
0
100
AcDbLine
 10
-20.845618913411602
 20
-47.68400888678821
 30
0.0
 11
-20.824219459452273
 21
-47.688583996178004
 31
0.0
  0
LINE
  5
2BF
330
17
100
AcDbEntity
  8
0
100
AcDbLine
 10
-20.824219459452273
 20
-47.688583996178004
 30
0.0
 11
-20.802795296474784
 21
-47.693041966164444
 31
0.0
  0
LINE
  5
2C0
330
17
100
AcDbEntity
  8
0
100
AcDbLine
 10
-20.802795296474784
 20
-47.693041966164444
 30
0.0
 11
-20.781347065688607
 21
-47.69738266332378
 31
0.0
  0
LINE
  5
2C1
330
17
100
AcDbEntity
  8
0
100
AcDbLine
 10
-20.781347065688607
 20
-47.69738266332378
 30
0.0
 11
-20.759875409023547
 21
-47.701605957742125
 31
0.0
  0
LINE
  5
2C2
330
17
100
AcDbEntity
  8
0
100
AcDbLine
 10
-20.759875409023547
 20
-47.701605957742125
 30
0.0
 11
-20.738380969110533
 21
-47.70571172301937
 31
0.0
  0
LINE
  5
2C3
330
17
100
AcDbEntity
  8
0
100
AcDbLine
 10
-20.738380969110533
 20
-47.70571172301937
 30
0.0
 11
-20.71686438926237
 21
-47.709699836272975
 31
0.0
  0
LINE
  5
2C4
330
17
100
AcDbEntity
  8
0
100
AcDbLine
 10
-20.71686438926237
 20
-47.709699836272975
 30
0.0
 11
-20.695326313454494
 21
-47.71357017814165
 31
0.0
  0
LINE
  5
2C5
330
17
100
AcDbEntity
  8
0
100
AcDbLine
 10
-20.695326313454494
 20
-47.71357017814165
 30
0.0
 11
-20.673767386305716
 21
-47.71732263278889
 31
0.0
  0
LINE
  5
2C6
330
17
100
AcDbEntity
  8
0
100
AcDbLine
 10
-20.673767386305716
 20
-47.71732263278889
 30
0.0
 11
-20.65218825305889
 21
-47.72095708790649
 31
0.0
  0
LINE
  5
2C7
330
17
100
AcDbEntity
  8
0
100
AcDbLine
 10
-20.65218825305889
 20
-47.72095708790649
 30
0.0
 11
-20.63058955956164
 21
-47.72447343471788
 31
0.0
  0
LINE
  5
2C8
330
17
100
AcDbEntity
  8
0
100
AcDbLine
 10
-20.63058955956164
 20
-47.72447343471788
 30
0.0
 11
-20.608971952247007
 21
-47.72787156798137
 31
0.0
  0
LINE
  5
2C9
330
17
100
AcDbEntity
  8
0
100
AcDbLine
 10
-20.608971952247007
 20
-47.72787156798137
 30
0.0
 11
-20.587336078114113
 21
-47.73115138599333
 31
0.0
  0
LINE
  5
2CA
330
17
100
AcDbEntity
  8
0
100
AcDbLine
 10
-20.587336078114113
 20
-47.73115138599333
 30
0.0
 11
-20.565682584708785
 21
-47.73431279059121
 31
0.0
  0
LINE
  5
2CB
330
17
100
AcDbEntity
  8
0
100
AcDbLine
 10
-20.565682584708785
 20
-47.73431279059121
 30
0.0
 11
-20.54401212010419
 21
-47.7373556871565
 31
0.0
  0
LINE
  5
2CC
330
17
100
AcDbEntity
  8
0
100
AcDbLine
 10
-20.54401212010419
 20
-47.7373556871565
 30
0.0
 11
-20.522325332881422
 21
-47.74027998461753
 31
0.0
  0
LINE
  5
2CD
330
17
100
AcDbEntity
  8
0
100
AcDbLine
 10
-20.522325332881422
 20
-47.74027998461753
 30
0.0
 11
-20.500622872110114
 21
-47.743085595452236
 31
0.0
  0
LINE
  5
2CE
330
17
100
AcDbEntity
  8
0
100
AcDbLine
 10
-20.500622872110114
 20
-47.743085595452236
 30
0.0
 11
-20.478905387328975
 21
-47.74577243569073
 31
0.0
  0
LINE
  5
2CF
330
17
100
AcDbEntity
  8
0
100
AcDbLine
 10
-20.478905387328975
 20
-47.74577243569073
 30
0.0
 11
-20.457173528526393
 21
-47.74834042491787
 31
0.0
  0
LINE
  5
2D0
330
17
100
AcDbEntity
  8
0
100
AcDbLine
 10
-20.457173528526393
 20
-47.74834042491787
 30
0.0
 11
-20.435427946120946
 21
-47.750789486275615
 31
0.0
  0
LINE
  5
2D1
330
17
100
AcDbEntity
  8
0
100
AcDbLine
 10
-20.435427946120946
 20
-47.750789486275615
 30
0.0
 11
-20.413669290941954
 21
-47.753119546465356
 31
0.0
  0
LINE
  5
2D2
330
17
100
AcDbEntity
  8
0
100
AcDbLine
 10
-20.413669290941954
 20
-47.753119546465356
 30
0.0
 11
-20.391898214209995
 21
-47.755330535750105
 31
0.0
  0
LINE
  5
2D3
330
17
100
AcDbEntity
  8
0
100
AcDbLine
 10
-20.391898214209995
 20
-47.755330535750105
 30
0.0
 11
-20.370115367517418
 21
-47.75742238795658
 31
0.0
  0
LINE
  5
2D4
330
17
100
AcDbEntity
  8
0
100
AcDbLine
 10
-20.370115367517418
 20
-47.75742238795658
 30
0.0
 11
-20.348321402808832
 21
-47.759395040477166
 31
0.0
  0
LINE
  5
2D5
330
17
100
AcDbEntity
  8
0
100
AcDbLine
 10
-20.348321402808832
 20
-47.759395040477166
 30
0.0
 11
-20.326516972361606
 21
-47.761248434271835
 31
0.0
  0
LINE
  5
2D6
330
17
100
AcDbEntity
  8
0
100
AcDbLine
 10
-20.326516972361606
 20
-47.761248434271835
 30
0.0
 11
-20.304702728766333
 21
-47.762982513869865
 31
0.0
  0
LINE
  5
2D7
330
17
100
AcDbEntity
  8
0
100
AcDbLine
 10
-20.304702728766333
 20
-47.762982513869865
 30
0.0
 11
-20.28287932490732
 21
-47.764597227371524
 31
0.0
  0
LINE
  5
2D8
330
17
100
AcDbEntity
  8
0
100
AcDbLine
 10
-20.28287932490732
 20
-47.764597227371524
 30
0.0
 11
-20.26104741394302
 21
-47.766092526449626
 31
0.0
  0
LINE
  5
2D9
330
17
100
AcDbEntity
  8
0
100
AcDbLine
 10
-20.26104741394302
 20
-47.766092526449626
 30
0.0
 11
-20.239207649286506
 21
-47.76746836635097
 31
0.0
  0
LINE
  5
2DA
330
17
100
AcDbEntity
  8
0
100
AcDbLine
 10
-20.239207649286506
 20
-47.76746836635097
 30
0.0
 11
-20.2173606845859
 21
-47.76872470589767
 31
0.0
  0
LINE
  5
2DB
330
17
100
AcDbEntity
  8
0
100
AcDbLine
 10
-20.2173606845859
 20
-47.76872470589767
 30
0.0
 11
-20.195507173704826
 21
-47.76986150748841
 31
0.0
  0
LINE
  5
2DC
330
17
100
AcDbEntity
  8
0
100
AcDbLine
 10
-20.195507173704826
 20
-47.76986150748841
 30
0.0
 11
-20.173647770702814
 21
-47.77087873709955
 31
0.0
  0
LINE
  5
2DD
330
17
100
AcDbEntity
  8
0
100
AcDbLine
 10
-20.173647770702814
 20
-47.77087873709955
 30
0.0
 11
-20.151783129815755
 21
-47.77177636428616
 31
0.0
  0
LINE
  5
2DE
330
17
100
AcDbEntity
  8
0
100
AcDbLine
 10
-20.151783129815755
 20
-47.77177636428616
 30
0.0
 11
-20.129913905436304
 21
-47.77255436218291
 31
0.0
  0
LINE
  5
2DF
330
17
100
AcDbEntity
  8
0
100
AcDbLine
 10
-20.129913905436304
 20
-47.77255436218291
 30
0.0
 11
-20.108040752094297
 21
-47.773212707504904
 31
0.0
  0
LINE
  5
2E0
330
17
100
AcDbEntity
  8
0
100
AcDbLine
 10
-20.108040752094297
 20
-47.773212707504904
 30
0.0
 11
-20.08616432443715
 21
-47.77375138054834
 31
0.0
  0
LINE
  5
2E1
330
17
100
AcDbEntity
  8
0
100
AcDbLine
 10
-20.08616432443715
 20
-47.77375138054834
 30
0.0
 11
-20.06428527721029
 21
-47.77417036519113
 31
0.0
  0
LINE
  5
2E2
330
17
100
AcDbEntity
  8
0
100
AcDbLine
 10
-20.06428527721029
 20
-47.77417036519113
 30
0.0
 11
-20.04240426523754
 21
-47.77446964889338
 31
0.0
  0
LINE
  5
2E3
330
17
100
AcDbEntity
  8
0
100
AcDbLine
 10
-20.04240426523754
 20
-47.77446964889338
 30
0.0
 11
-20.020521943401526
 21
-47.77464922269774
 31
0.0
  0
LINE
  5
2E4
330
17
100
AcDbEntity
  8
0
100
AcDbLine
 10
-20.020521943401526
 20
-47.77464922269774
 30
0.0
 11
-19.99863896662408
 21
-47.7747090812297
 31
0.0
  0
LINE
  5
2E5
330
17
100
AcDbEntity
  8
0
100
AcDbLine
 10
-5.9999999999999805
 20
71.6451406286204
 30
0.0
 11
-5.9999999999999805
 21
-71.6451406286201
 31
0.0
  0
LINE
  5
2E6
330
17
100
AcDbEntity
  8
0
100
AcDbLine
 10
-84.34161876748509
 20
-2.9999999999998295
 30
0.0
 11
-83.82622302995127
 21
-3.9428323839470636
 31
0.0
  0
LINE
  5
2E7
330
17
100
AcDbEntity
  8
0
100
AcDbLine
 10
-83.82622302995127
 20
-3.9428323839470636
 30
0.0
 11
-83.30408669150823
 21
-4.88194862518931
 31
0.0
  0
LINE
  5
2E8
330
17
100
AcDbEntity
  8
0
100
AcDbLine
 10
-83.30408669150823
 20
-4.88194862518931
 30
0.0
 11
-82.77523654507566
 21
-5.817300533887789
 31
0.0
  0
LINE
  5
2E9
330
17
100
AcDbEntity
  8
0
100
AcDbLine
 10
-82.77523654507566
 20
-5.817300533887789
 30
0.0
 11
-82.23969972808574
 21
-6.7488401133666684
 31
0.0
  0
LINE
  5
2EA
330
17
100
AcDbEntity
  8
0
100
AcDbLine
 10
-82.23969972808574
 20
-6.7488401133666684
 30
0.0
 11
-81.69750372109057
 21
-7.676519562576431
 31
0.0
  0
LINE
  5
2EB
330
17
100
AcDbEntity
  8
0
100
AcDbLine
 10
-81.69750372109057
 20
-7.676519562576431
 30
0.0
 11
-81.14867634635222
 21
-8.600291278546067
 31
0.0
  0
LINE
  5
2EC
330
17
100
AcDbEntity
  8
0
100
AcDbLine
 10
-81.14867634635222
 20
-8.600291278546067
 30
0.0
 11
-80.59324576641502
 21
-9.520107858826208
 31
0.0
  0
LINE
  5
2ED
330
17
100
AcDbEntity
  8
0
100
AcDbLine
 10
-80.59324576641502
 20
-9.520107858826208
 30
0.0
 11
-80.03124048266025
 21
-10.43592210392147
 31
0.0
  0
LINE
  5
2EE
330
17
100
AcDbEntity
  8
0
100
AcDbLine
 10
-80.03124048266025
 20
-10.43592210392147
 30
0.0
 11
-79.46268933384381
 21
-11.347687019712353
 31
0.0
  0
LINE
  5
2EF
330
17
100
AcDbEntity
  8
0
100
AcDbLine
 10
-79.46268933384381
 20
-11.347687019712353
 30
0.0
 11
-78.88762149461637
 21
-12.255355819866708
 31
0.0
  0
LINE
  5
2F0
330
17
100
AcDbEntity
  8
0
100
AcDbLine
 10
-78.88762149461637
 20
-12.255355819866708
 30
0.0
 11
-78.306066474026
 21
-13.158881928240888
 31
0.0
  0
LINE
  5
2F1
330
17
100
AcDbEntity
  8
0
100
AcDbLine
 10
-78.306066474026
 20
-13.158881928240888
 30
0.0
 11
-77.71805411400445
 21
-14.05821898126915
 31
0.0
  0
LINE
  5
2F2
330
17
100
AcDbEntity
  8
0
100
AcDbLine
 10
-77.71805411400445
 20
-14.05821898126915
 30
0.0
 11
-77.12361458783549
 21
-14.953320830343145
 31
0.0
  0
LINE
  5
2F3
330
17
100
AcDbEntity
  8
0
100
AcDbLine
 10
-77.12361458783549
 20
-14.953320830343145
 30
0.0
 11
-76.52277839860665
 21
-15.844141544179891
 31
0.0
  0
LINE
  5
2F4
330
17
100
AcDbEntity
  8
0
100
AcDbLine
 10
-76.52277839860665
 20
-15.844141544179891
 30
0.0
 11
-75.91557637764407
 21
-16.730635411178767
 31
0.0
  0
LINE
  5
2F5
330
17
100
AcDbEntity
  8
0
100
AcDbLine
 10
-75.91557637764407
 20
-16.730635411178767
 30
0.0
 11
-75.30203968293043
 21
-17.612756941766946
 31
0.0
  0
LINE
  5
2F6
330
17
100
AcDbEntity
  8
0
100
AcDbLine
 10
-75.30203968293043
 20
-17.612756941766946
 30
0.0
 11
-74.6821997975058
 21
-18.49046087073414
 31
0.0
  0
LINE
  5
2F7
330
17
100
AcDbEntity
  8
0
100
AcDbLine
 10
-74.6821997975058
 20
-18.49046087073414
 30
0.0
 11
-74.05608852785261
 21
-19.363702159554663
 31
0.0
  0
LINE
  5
2F8
330
17
100
AcDbEntity
  8
0
100
AcDbLine
 10
-74.05608852785261
 20
-19.363702159554663
 30
0.0
 11
-73.4237380022632
 21
-20.23243599869899
 31
0.0
  0
LINE
  5
2F9
330
17
100
AcDbEntity
  8
0
100
AcDbLine
 10
-73.4237380022632
 20
-20.23243599869899
 30
0.0
 11
-72.78518066919132
 21
-21.09661780993305
 31
0.0
  0
LINE
  5
2FA
330
17
100
AcDbEntity
  8
0
100
AcDbLine
 10
-72.78518066919132
 20
-21.09661780993305
 30
0.0
 11
-72.14044929558695
 21
-21.95620324860559
 31
0.0
  0
LINE
  5
2FB
330
17
100
AcDbEntity
  8
0
100
AcDbLine
 10
-72.14044929558695
 20
-21.95620324860559
 30
0.0
 11
-71.4895769652151
 21
-22.81114820592373
 31
0.0
  0
LINE
  5
2FC
330
17
100
AcDbEntity
  8
0
100
AcDbLine
 10
-71.4895769652151
 20
-22.81114820592373
 30
0.0
 11
-70.83259707695775
 21
-23.661408811216617
 31
0.0
  0
LINE
  5
2FD
330
17
100
AcDbEntity
  8
0
100
AcDbLine
 10
-70.83259707695775
 20
-23.661408811216617
 30
0.0
 11
-70.16954334310059
 21
-24.506941434186132
 31
0.0
  0
LINE
  5
2FE
330
17
100
AcDbEntity
  8
0
100
AcDbLine
 10
-70.16954334310059
 20
-24.506941434186132
 30
0.0
 11
-69.50044978760262
 21
-25.347702687146068
 31
0.0
  0
LINE
  5
2FF
330
17
100
AcDbEntity
  8
0
100
AcDbLine
 10
-69.50044978760262
 20
-25.347702687146068
 30
0.0
 11
-68.82535074435053
 21
-26.183649427248426
 31
0.0
  0
LINE
  5
300
330
17
100
AcDbEntity
  8
0
100
AcDbLine
 10
-68.82535074435053
 20
-26.183649427248426
 30
0.0
 11
-68.14428085539673
 21
-27.01473875869729
 31
0.0
  0
LINE
  5
301
330
17
100
AcDbEntity
  8
0
100
AcDbLine
 10
-68.14428085539673
 20
-27.01473875869729
 30
0.0
 11
-67.45727506918186
 21
-27.840928034949812
 31
0.0
  0
LINE
  5
302
330
17
100
AcDbEntity
  8
0
100
AcDbLine
 10
-67.45727506918186
 20
-27.840928034949812
 30
0.0
 11
-66.76436863874116
 21
-28.662174860905083
 31
0.0
  0
LINE
  5
303
330
17
100
AcDbEntity
  8
0
100
AcDbLine
 10
-66.76436863874116
 20
-28.662174860905083
 30
0.0
 11
-66.06559711989595
 21
-29.478437095078874
 31
0.0
  0
LINE
  5
304
330
17
100
AcDbEntity
  8
0
100
AcDbLine
 10
-66.06559711989595
 20
-29.478437095078874
 30
0.0
 11
-65.36099636942873
 21
-30.289672851766582
 31
0.0
  0
LINE
  5
305
330
17
100
AcDbEntity
  8
0
100
AcDbLine
 10
-65.36099636942873
 20
-30.289672851766582
 30
0.0
 11
-64.65060254324344
 21
-31.095840503192434
 31
0.0
  0
LINE
  5
306
330
17
100
AcDbEntity
  8
0
100
AcDbLine
 10
-64.65060254324344
 20
-31.095840503192434
 30
0.0
 11
-63.934452094510014
 21
-31.89689868164554
 31
0.0
  0
LINE
  5
307
330
17
100
AcDbEntity
  8
0
100
AcDbLine
 10
-63.934452094510014
 20
-31.89689868164554
 30
0.0
 11
-63.212581771794056
 21
-32.69280628160253
 31
0.0
  0
LINE
  5
308
330
17
100
AcDbEntity
  8
0
100
AcDbLine
 10
-63.212581771794056
 20
-32.69280628160253
 30
0.0
 11
-62.48502861717059
 21
-33.483522461837325
 31
0.0
  0
LINE
  5
309
330
17
100
AcDbEntity
  8
0
100
AcDbLine
 10
-62.48502861717059
 20
-33.483522461837325
 30
0.0
 11
-61.751829964323996
 21
-34.26900664751619
 31
0.0
  0
LINE
  5
30A
330
17
100
AcDbEntity
  8
0
100
AcDbLine
 10
-61.751829964323996
 20
-34.26900664751619
 30
0.0
 11
-61.01302343663176
 21
-35.04921853228021
 31
0.0
  0
LINE
  5
30B
330
17
100
AcDbEntity
  8
0
100
AcDbLine
 10
-61.01302343663176
 20
-35.04921853228021
 30
0.0
 11
-60.2686469452341
 21
-35.82411808031347
 31
0.0
  0
LINE
  5
30C
330
17
100
AcDbEntity
  8
0
100
AcDbLine
 10
-60.2686469452341
 20
-35.82411808031347
 30
0.0
 11
-59.518738687088465
 21
-36.59366552839748
 31
0.0
  0
LINE
  5
30D
330
17
100
AcDbEntity
  8
0
100
AcDbLine
 10
-59.518738687088465
 20
-36.59366552839748
 30
0.0
 11
-58.76333714300953
 21
-37.357821387951574
 31
0.0
  0
LINE
  5
30E
330
17
100
AcDbEntity
  8
0
100
AcDbLine
 10
-58.76333714300953
 20
-37.357821387951574
 30
0.0
 11
-58.00248107569477
 21
-38.11654644705909
 31
0.0
  0
LINE
  5
30F
330
17
100
AcDbEntity
  8
0
100
AcDbLine
 10
-58.00248107569477
 20
-38.11654644705909
 30
0.0
 11
-57.23620952773489
 21
-38.86980177247992
 31
0.0
  0
LINE
  5
310
330
17
100
AcDbEntity
  8
0
100
AcDbLine
 10
-57.23620952773489
 20
-38.86980177247992
 30
0.0
 11
-56.464561819611056
 21
-39.61754871164774
 31
0.0
  0
LINE
  5
311
330
17
100
AcDbEntity
  8
0
100
AcDbLine
 10
-56.464561819611056
 20
-39.61754871164774
 30
0.0
 11
-55.6875775476767
 21
-40.359748894653876
 31
0.0
  0
LINE
  5
312
330
17
100
AcDbEntity
  8
0
100
AcDbLine
 10
-55.6875775476767
 20
-40.359748894653876
 30
0.0
 11
-54.90529658212599
 21
-41.096364236216004
 31
0.0
  0
LINE
  5
313
330
17
100
AcDbEntity
  8
0
100
AcDbLine
 10
-54.90529658212599
 20
-41.096364236216004
 30
0.0
 11
-54.11775906494761
 21
-41.827356937632516
 31
0.0
  0
LINE
  5
314
330
17
100
AcDbEntity
  8
0
100
AcDbLine
 10
-54.11775906494761
 20
-41.827356937632516
 30
0.0
 11
-53.32500540786538
 21
-42.55268948872205
 31
0.0
  0
LINE
  5
315
330
17
100
AcDbEntity
  8
0
100
AcDbLine
 10
-53.32500540786538
 20
-42.55268948872205
 30
0.0
 11
-52.5270762902638
 21
-43.2723246697487
 31
0.0
  0
LINE
  5
316
330
17
100
AcDbEntity
  8
0
100
AcDbLine
 10
-52.5270762902638
 20
-43.2723246697487
 30
0.0
 11
-51.72401265710153
 21
-43.986225553331195
 31
0.0
  0
LINE
  5
317
330
17
100
AcDbEntity
  8
0
100
AcDbLine
 10
-51.72401265710153
 20
-43.986225553331195
 30
0.0
 11
-50.915855716809766
 21
-44.69435550633834
 31
0.0
  0
LINE
  5
318
330
17
100
AcDbEntity
  8
0
100
AcDbLine
 10
-50.915855716809766
 20
-44.69435550633834
 30
0.0
 11
-50.10264693917784
 21
-45.39667819176864
 31
0.0
  0
LINE
  5
319
330
17
100
AcDbEntity
  8
0
100
AcDbLine
 10
-50.10264693917784
 20
-45.39667819176864
 30
0.0
 11
-49.28442805322516
 21
-46.09315757061488
 31
0.0
  0
LINE
  5
31A
330
17
100
AcDbEntity
  8
0
100
AcDbLine
 10
-49.28442805322516
 20
-46.09315757061488
 30
0.0
 11
-48.46124104506017
 21
-46.78375790371335
 31
0.0
  0
LINE
  5
31B
330
17
100
AcDbEntity
  8
0
100
AcDbLine
 10
-48.46124104506017
 20
-46.78375790371335
 30
0.0
 11
-47.633128155725295
 21
-47.468443753578185
 31
0.0
  0
LINE
  5
31C
330
17
100
AcDbEntity
  8
0
100
AcDbLine
 10
-47.633128155725295
 20
-47.468443753578185
 30
0.0
 11
-46.80013187903017
 21
-48.14717998621917
 31
0.0
  0
LINE
  5
31D
330
17
100
AcDbEntity
  8
0
100
AcDbLine
 10
-46.80013187903017
 20
-48.14717998621917
 30
0.0
 11
-45.96229495937049
 21
-48.819931772945054
 31
0.0
  0
LINE
  5
31E
330
17
100
AcDbEntity
  8
0
100
AcDbLine
 10
-45.96229495937049
 20
-48.819931772945054
 30
0.0
 11
-45.119660389534964
 21
-49.486664592150575
 31
0.0
  0
LINE
  5
31F
330
17
100
AcDbEntity
  8
0
100
AcDbLine
 10
-45.119660389534964
 20
-49.486664592150575
 30
0.0
 11
-44.272271408499016
 21
-50.147344231088
 31
0.0
  0
LINE
  5
320
330
17
100
AcDbEntity
  8
0
100
AcDbLine
 10
-44.272271408499016
 20
-50.147344231088
 30
0.0
 11
-43.420171499206155
 21
-50.801936787622594
 31
0.0
  0
LINE
  5
321
330
17
100
AcDbEntity
  8
0
100
AcDbLine
 10
-43.420171499206155
 20
-50.801936787622594
 30
0.0
 11
-42.56340438633632
 21
-51.450408671972525
 31
0.0
  0
LINE
  5
322
330
17
100
AcDbEntity
  8
0
100
AcDbLine
 10
-42.56340438633632
 20
-51.450408671972525
 30
0.0
 11
-41.70201403406279
 21
-52.09272660843213
 31
0.0
  0
LINE
  5
323
330
17
100
AcDbEntity
  8
0
100
AcDbLine
 10
-41.70201403406279
 20
-52.09272660843213
 30
0.0
 11
-40.83604464379575
 21
-52.728857637079685
 31
0.0
  0
LINE
  5
324
330
17
100
AcDbEntity
  8
0
100
AcDbLine
 10
-40.83604464379575
 20
-52.728857637079685
 30
0.0
 11
-39.96554065191432
 21
-53.35876911546862
 31
0.0
  0
LINE
  5
325
330
17
100
AcDbEntity
  8
0
100
AcDbLine
 10
-39.96554065191432
 20
-53.35876911546862
 30
0.0
 11
-39.09054672748625
 21
-53.98242872030258
 31
0.0
  0
LINE
  5
326
330
17
100
AcDbEntity
  8
0
100
AcDbLine
 10
-39.09054672748625
 20
-53.98242872030258
 30
0.0
 11
-38.21110776997599
 21
-54.59980444909391
 31
0.0
  0
LINE
  5
327
330
17
100
AcDbEntity
  8
0
100
AcDbLine
 10
-38.21110776997599
 20
-54.59980444909391
 30
0.0
 11
-37.32726890694018
 21
-55.21086462180622
 31
0.0
  0
LINE
  5
328
330
17
100
AcDbEntity
  8
0
100
AcDbLine
 10
-37.32726890694018
 20
-55.21086462180622
 30
0.0
 11
-36.43907549171268
 21
-55.815577882479545
 31
0.0
  0
LINE
  5
329
330
17
100
AcDbEntity
  8
0
100
AcDbLine
 10
-36.43907549171268
 20
-55.815577882479545
 30
0.0
 11
-35.546573101076866
 21
-56.4139132008396
 31
0.0
  0
LINE
  5
32A
330
17
100
AcDbEntity
  8
0
100
AcDbLine
 10
-35.546573101076866
 20
-56.4139132008396
 30
0.0
 11
-34.649807532927035
 21
-57.00583987389004
 31
0.0
  0
LINE
  5
32B
330
17
100
AcDbEntity
  8
0
100
AcDbLine
 10
-34.649807532927035
 20
-57.00583987389004
 30
0.0
 11
-33.74882480391823
 21
-57.591327527487906
 31
0.0
  0
LINE
  5
32C
330
17
100
AcDbEntity
  8
0
100
AcDbLine
 10
-33.74882480391823
 20
-57.591327527487906
 30
0.0
 11
-32.84367114710509
 21
-58.1703461179023
 31
0.0
  0
LINE
  5
32D
330
17
100
AcDbEntity
  8
0
100
AcDbLine
 10
-32.84367114710509
 20
-58.1703461179023
 30
0.0
 11
-31.934393009569455
 21
-58.74286593335593
 31
0.0
  0
LINE
  5
32E
330
17
100
AcDbEntity
  8
0
100
AcDbLine
 10
-31.934393009569455
 20
-58.74286593335593
 30
0.0
 11
-31.02103705003652
 21
-59.308857595550094
 31
0.0
  0
LINE
  5
32F
330
17
100
AcDbEntity
  8
0
100
AcDbLine
 10
-31.02103705003652
 20
-59.308857595550094
 30
0.0
 11
-30.1036501364813
 21
-59.8682920611717
 31
0.0
  0
LINE
  5
330
330
17
100
AcDbEntity
  8
0
100
AcDbLine
 10
-30.1036501364813
 20
-59.8682920611717
 30
0.0
 11
-29.182279343723273
 21
-60.42114062338388
 31
0.0
  0
LINE
  5
331
330
17
100
AcDbEntity
  8
0
100
AcDbLine
 10
-29.182279343723273
 20
-60.42114062338388
 30
0.0
 11
-28.25697195101072
 21
-60.96737491329907
 31
0.0
  0
LINE
  5
332
330
17
100
AcDbEntity
  8
0
100
AcDbLine
 10
-28.25697195101072
 20
-60.96737491329907
 30
0.0
 11
-27.327775439594767
 21
-61.50696690143462
 31
0.0
  0
LINE
  5
333
330
17
100
AcDbEntity
  8
0
100
AcDbLine
 10
-27.327775439594767
 20
-61.50696690143462
 30
0.0
 11
-26.394737490293004
 21
-62.03988889915112
 31
0.0
  0
LINE
  5
334
330
17
100
AcDbEntity
  8
0
100
AcDbLine
 10
-26.394737490293004
 20
-62.03988889915112
 30
0.0
 11
-25.45790598104235
 21
-62.566113560073404
 31
0.0
  0
LINE
  5
335
330
17
100
AcDbEntity
  8
0
100
AcDbLine
 10
-25.45790598104235
 20
-62.566113560073404
 30
0.0
 11
-24.51732898444289
 21
-63.085613881493515
 31
0.0
  0
LINE
  5
336
330
17
100
AcDbEntity
  8
0
100
AcDbLine
 10
-24.51732898444289
 20
-63.085613881493515
 30
0.0
 11
-23.573054765290657
 21
-63.59836320575644
 31
0.0
  0
LINE
  5
337
330
17
100
AcDbEntity
  8
0
100
AcDbLine
 10
-23.573054765290657
 20
-63.59836320575644
 30
0.0
 11
-22.62513177810107
 21
-64.10433522162813
 31
0.0
  0
LINE
  5
338
330
17
100
AcDbEntity
  8
0
100
AcDbLine
 10
-22.62513177810107
 20
-64.10433522162813
 30
0.0
 11
-21.67360866462254
 21
-64.60350396564542
 31
0.0
  0
LINE
  5
339
330
17
100
AcDbEntity
  8
0
100
AcDbLine
 10
-21.67360866462254
 20
-64.60350396564542
 30
0.0
 11
-20.718534251340607
 21
-65.09584382344846
 31
0.0
  0
LINE
  5
33A
330
17
100
AcDbEntity
  8
0
100
AcDbLine
 10
-20.718534251340607
 20
-65.09584382344846
 30
0.0
 11
-19.75995754697191
 21
-65.58132953109526
 31
0.0
  0
LINE
  5
33B
330
17
100
AcDbEntity
  8
0
100
AcDbLine
 10
-19.75995754697191
 20
-65.58132953109526
 30
0.0
 11
-18.797927739950147
 21
-66.05993617635767
 31
0.0
  0
LINE
  5
33C
330
17
100
AcDbEntity
  8
0
100
AcDbLine
 10
-18.797927739950147
 20
-66.05993617635767
 30
0.0
 11
-17.83249419590151
 21
-66.53163920000003
 31
0.0
  0
LINE
  5
33D
330
17
100
AcDbEntity
  8
0
100
AcDbLine
 10
-17.83249419590151
 20
-66.53163920000003
 30
0.0
 11
-16.86370645511166
 21
-66.99641439703936
 31
0.0
  0
LINE
  5
33E
330
17
100
AcDbEntity
  8
0
100
AcDbLine
 10
-16.86370645511166
 20
-66.99641439703936
 30
0.0
 11
-15.891614229983569
 21
-67.45423791798729
 31
0.0
  0
LINE
  5
33F
330
17
100
AcDbEntity
  8
0
100
AcDbLine
 10
-15.891614229983569
 20
-67.45423791798729
 30
0.0
 11
-14.91626740248679
 21
-67.90508627007404
 31
0.0
  0
LINE
  5
340
330
17
100
AcDbEntity
  8
0
100
AcDbLine
 10
-14.91626740248679
 20
-67.90508627007404
 30
0.0
 11
-13.937716021597234
 21
-68.3489363184539
 31
0.0
  0
LINE
  5
341
330
17
100
AcDbEntity
  8
0
100
AcDbLine
 10
-13.937716021597234
 20
-68.3489363184539
 30
0.0
 11
-12.956010300729753
 21
-68.78576528739222
 31
0.0
  0
LINE
  5
342
330
17
100
AcDbEntity
  8
0
100
AcDbLine
 10
-12.956010300729753
 20
-68.78576528739222
 30
0.0
 11
-11.971200615160948
 21
-69.21555076143426
 31
0.0
  0
LINE
  5
343
330
17
100
AcDbEntity
  8
0
100
AcDbLine
 10
-11.971200615160948
 20
-69.21555076143426
 30
0.0
 11
-10.98333749944439
 21
-69.63827068655539
 31
0.0
  0
LINE
  5
344
330
17
100
AcDbEntity
  8
0
100
AcDbLine
 10
-10.98333749944439
 20
-69.63827068655539
 30
0.0
 11
-9.99247164481743
 21
-70.05390337129282
 31
0.0
  0
LINE
  5
345
330
17
100
AcDbEntity
  8
0
100
AcDbLine
 10
-9.99247164481743
 20
-70.05390337129282
 30
0.0
 11
-8.998653896600176
 21
-70.46242748785849
 31
0.0
  0
LINE
  5
346
330
17
100
AcDbEntity
  8
0
100
AcDbLine
 10
-8.998653896600176
 20
-70.46242748785849
 30
0.0
 11
-8.001935251585936
 21
-70.86382207323382
 31
0.0
  0
LINE
  5
347
330
17
100
AcDbEntity
  8
0
100
AcDbLine
 10
-8.001935251585936
 20
-70.86382207323382
 30
0.0
 11
-7.002366855425075
 21
-71.25806653024503
 31
0.0
  0
LINE
  5
348
330
17
100
AcDbEntity
  8
0
100
AcDbLine
 10
-7.002366855425075
 20
-71.25806653024503
 30
0.0
 11
-6.00000000000008
 21
-71.64514062862031
 31
0.0
  0
LINE
  5
349
330
17
100
AcDbEntity
  8
0
100
AcDbLine
 10
-57.85150697445978
 20
-2.99999999999982
 30
0.0
 11
-84.34161876748489
 21
-2.99999999999982
 31
0.0
  0
LINE
  5
34A
330
17
100
AcDbEntity
  8
0
100
AcDbLine
 10
-57.85150697445828
 20
3.00000000000018
 30
0.0
 11
-57.85150697445828
 21
-2.99999999999982
 31
0.0
  0
LINE
  5
34B
330
17
100
AcDbEntity
  8
0
100
AcDbLine
 10
-57.85150697445828
 20
3.00000000000018
 30
0.0
 11
-84.34161876748489
 21
3.00000000000018
 31
0.0
  0
LINE
  5
34C
330
17
100
AcDbEntity
  8
0
100
AcDbLine
 10
-84.34161876748509
 20
3.0000000000002274
 30
0.0
 11
-83.82622302995127
 21
3.9428323839474615
 31
0.0
  0
LINE
  5
34D
330
17
100
AcDbEntity
  8
0
100
AcDbLine
 10
-83.82622302995127
 20
3.9428323839474615
 30
0.0
 11
-83.30408669150823
 21
4.8819486251897075
 31
0.0
  0
LINE
  5
34E
330
17
100
AcDbEntity
  8
0
100
AcDbLine
 10
-83.30408669150823
 20
4.8819486251897075
 30
0.0
 11
-82.77523654507566
 21
5.8173005338881865
 31
0.0
  0
LINE
  5
34F
330
17
100
AcDbEntity
  8
0
100
AcDbLine
 10
-82.77523654507566
 20
5.8173005338881865
 30
0.0
 11
-82.23969972808574
 21
6.748840113367066
 31
0.0
  0
LINE
  5
350
330
17
100
AcDbEntity
  8
0
100
AcDbLine
 10
-82.23969972808574
 20
6.748840113367066
 30
0.0
 11
-81.69750372109057
 21
7.6765195625768285
 31
0.0
  0
LINE
  5
351
330
17
100
AcDbEntity
  8
0
100
AcDbLine
 10
-81.69750372109057
 20
7.6765195625768285
 30
0.0
 11
-81.14867634635222
 21
8.600291278546464
 31
0.0
  0
LINE
  5
352
330
17
100
AcDbEntity
  8
0
100
AcDbLine
 10
-81.14867634635222
 20
8.600291278546464
 30
0.0
 11
-80.59324576641502
 21
9.520107858826606
 31
0.0
  0
LINE
  5
353
330
17
100
AcDbEntity
  8
0
100
AcDbLine
 10
-80.59324576641502
 20
9.520107858826606
 30
0.0
 11
-80.03124048266025
 21
10.435922103921868
 31
0.0
  0
LINE
  5
354
330
17
100
AcDbEntity
  8
0
100
AcDbLine
 10
-80.03124048266025
 20
10.435922103921868
 30
0.0
 11
-79.46268933384381
 21
11.347687019712751
 31
0.0
  0
LINE
  5
355
330
17
100
AcDbEntity
  8
0
100
AcDbLine
 10
-79.46268933384381
 20
11.347687019712751
 30
0.0
 11
-78.88762149461637
 21
12.255355819867106
 31
0.0
  0
LINE
  5
356
330
17
100
AcDbEntity
  8
0
100
AcDbLine
 10
-78.88762149461637
 20
12.255355819867106
 30
0.0
 11
-78.306066474026
 21
13.158881928241286
 31
0.0
  0
LINE
  5
357
330
17
100
AcDbEntity
  8
0
100
AcDbLine
 10
-78.306066474026
 20
13.158881928241286
 30
0.0
 11
-77.71805411400445
 21
14.058218981269547
 31
0.0
  0
LINE
  5
358
330
17
100
AcDbEntity
  8
0
100
AcDbLine
 10
-77.71805411400445
 20
14.058218981269547
 30
0.0
 11
-77.12361458783549
 21
14.953320830343543
 31
0.0
  0
LINE
  5
359
330
17
100
AcDbEntity
  8
0
100
AcDbLine
 10
-77.12361458783549
 20
14.953320830343543
 30
0.0
 11
-76.52277839860665
 21
15.844141544180289
 31
0.0
  0
LINE
  5
35A
330
17
100
AcDbEntity
  8
0
100
AcDbLine
 10
-76.52277839860665
 20
15.844141544180289
 30
0.0
 11
-75.91557637764407
 21
16.730635411179165
 31
0.0
  0
LINE
  5
35B
330
17
100
AcDbEntity
  8
0
100
AcDbLine
 10
-75.91557637764407
 20
16.730635411179165
 30
0.0
 11
-75.30203968293043
 21
17.612756941767344
 31
0.0
  0
LINE
  5
35C
330
17
100
AcDbEntity
  8
0
100
AcDbLine
 10
-75.30203968293043
 20
17.612756941767344
 30
0.0
 11
-74.6821997975058
 21
18.490460870734537
 31
0.0
  0
LINE
  5
35D
330
17
100
AcDbEntity
  8
0
100
AcDbLine
 10
-74.6821997975058
 20
18.490460870734537
 30
0.0
 11
-74.05608852785261
 21
19.36370215955506
 31
0.0
  0
LINE
  5
35E
330
17
100
AcDbEntity
  8
0
100
AcDbLine
 10
-74.05608852785261
 20
19.36370215955506
 30
0.0
 11
-73.4237380022632
 21
20.232435998699387
 31
0.0
  0
LINE
  5
35F
330
17
100
AcDbEntity
  8
0
100
AcDbLine
 10
-73.4237380022632
 20
20.232435998699387
 30
0.0
 11
-72.78518066919132
 21
21.09661780993345
 31
0.0
  0
LINE
  5
360
330
17
100
AcDbEntity
  8
0
100
AcDbLine
 10
-72.78518066919132
 20
21.09661780993345
 30
0.0
 11
-72.14044929558695
 21
21.956203248605988
 31
0.0
  0
LINE
  5
361
330
17
100
AcDbEntity
  8
0
100
AcDbLine
 10
-72.14044929558695
 20
21.956203248605988
 30
0.0
 11
-71.4895769652151
 21
22.811148205924127
 31
0.0
  0
LINE
  5
362
330
17
100
AcDbEntity
  8
0
100
AcDbLine
 10
-71.4895769652151
 20
22.811148205924127
 30
0.0
 11
-70.83259707695775
 21
23.661408811217015
 31
0.0
  0
LINE
  5
363
330
17
100
AcDbEntity
  8
0
100
AcDbLine
 10
-70.83259707695775
 20
23.661408811217015
 30
0.0
 11
-70.16954334310059
 21
24.50694143418653
 31
0.0
  0
LINE
  5
364
330
17
100
AcDbEntity
  8
0
100
AcDbLine
 10
-70.16954334310059
 20
24.50694143418653
 30
0.0
 11
-69.50044978760262
 21
25.347702687146466
 31
0.0
  0
LINE
  5
365
330
17
100
AcDbEntity
  8
0
100
AcDbLine
 10
-69.50044978760262
 20
25.347702687146466
 30
0.0
 11
-68.82535074435053
 21
26.183649427248824
 31
0.0
  0
LINE
  5
366
330
17
100
AcDbEntity
  8
0
100
AcDbLine
 10
-68.82535074435053
 20
26.183649427248824
 30
0.0
 11
-68.14428085539673
 21
27.01473875869769
 31
0.0
  0
LINE
  5
367
330
17
100
AcDbEntity
  8
0
100
AcDbLine
 10
-68.14428085539673
 20
27.01473875869769
 30
0.0
 11
-67.45727506918186
 21
27.84092803495021
 31
0.0
  0
LINE
  5
368
330
17
100
AcDbEntity
  8
0
100
AcDbLine
 10
-67.45727506918186
 20
27.84092803495021
 30
0.0
 11
-66.76436863874116
 21
28.66217486090548
 31
0.0
  0
LINE
  5
369
330
17
100
AcDbEntity
  8
0
100
AcDbLine
 10
-66.76436863874116
 20
28.66217486090548
 30
0.0
 11
-66.06559711989595
 21
29.478437095079272
 31
0.0
  0
LINE
  5
36A
330
17
100
AcDbEntity
  8
0
100
AcDbLine
 10
-66.06559711989595
 20
29.478437095079272
 30
0.0
 11
-65.36099636942873
 21
30.28967285176698
 31
0.0
  0
LINE
  5
36B
330
17
100
AcDbEntity
  8
0
100
AcDbLine
 10
-65.36099636942873
 20
30.28967285176698
 30
0.0
 11
-64.65060254324344
 21
31.095840503192832
 31
0.0
  0
LINE
  5
36C
330
17
100
AcDbEntity
  8
0
100
AcDbLine
 10
-64.65060254324344
 20
31.095840503192832
 30
0.0
 11
-63.934452094510014
 21
31.896898681645936
 31
0.0
  0
LINE
  5
36D
330
17
100
AcDbEntity
  8
0
100
AcDbLine
 10
-63.934452094510014
 20
31.896898681645936
 30
0.0
 11
-63.212581771794056
 21
32.69280628160293
 31
0.0
  0
LINE
  5
36E
330
17
100
AcDbEntity
  8
0
100
AcDbLine
 10
-63.212581771794056
 20
32.69280628160293
 30
0.0
 11
-62.48502861717059
 21
33.48352246183772
 31
0.0
  0
LINE
  5
36F
330
17
100
AcDbEntity
  8
0
100
AcDbLine
 10
-62.48502861717059
 20
33.48352246183772
 30
0.0
 11
-61.751829964323996
 21
34.26900664751659
 31
0.0
  0
LINE
  5
370
330
17
100
AcDbEntity
  8
0
100
AcDbLine
 10
-61.751829964323996
 20
34.26900664751659
 30
0.0
 11
-61.01302343663176
 21
35.049218532280605
 31
0.0
  0
LINE
  5
371
330
17
100
AcDbEntity
  8
0
100
AcDbLine
 10
-61.01302343663176
 20
35.049218532280605
 30
0.0
 11
-60.2686469452341
 21
35.824118080313866
 31
0.0
  0
LINE
  5
372
330
17
100
AcDbEntity
  8
0
100
AcDbLine
 10
-60.2686469452341
 20
35.824118080313866
 30
0.0
 11
-59.518738687088465
 21
36.59366552839788
 31
0.0
  0
LINE
  5
373
330
17
100
AcDbEntity
  8
0
100
AcDbLine
 10
-59.518738687088465
 20
36.59366552839788
 30
0.0
 11
-58.76333714300953
 21
37.35782138795197
 31
0.0
  0
LINE
  5
374
330
17
100
AcDbEntity
  8
0
100
AcDbLine
 10
-58.76333714300953
 20
37.35782138795197
 30
0.0
 11
-58.00248107569477
 21
38.11654644705949
 31
0.0
  0
LINE
  5
375
330
17
100
AcDbEntity
  8
0
100
AcDbLine
 10
-58.00248107569477
 20
38.11654644705949
 30
0.0
 11
-57.23620952773489
 21
38.869801772480315
 31
0.0
  0
LINE
  5
376
330
17
100
AcDbEntity
  8
0
100
AcDbLine
 10
-57.23620952773489
 20
38.869801772480315
 30
0.0
 11
-56.464561819611056
 21
39.61754871164814
 31
0.0
  0
LINE
  5
377
330
17
100
AcDbEntity
  8
0
100
AcDbLine
 10
-56.464561819611056
 20
39.61754871164814
 30
0.0
 11
-55.6875775476767
 21
40.359748894654274
 31
0.0
  0
LINE
  5
378
330
17
100
AcDbEntity
  8
0
100
AcDbLine
 10
-55.6875775476767
 20
40.359748894654274
 30
0.0
 11
-54.90529658212599
 21
41.0963642362164
 31
0.0
  0
LINE
  5
379
330
17
100
AcDbEntity
  8
0
100
AcDbLine
 10
-54.90529658212599
 20
41.0963642362164
 30
0.0
 11
-54.11775906494761
 21
41.82735693763291
 31
0.0
  0
LINE
  5
37A
330
17
100
AcDbEntity
  8
0
100
AcDbLine
 10
-54.11775906494761
 20
41.82735693763291
 30
0.0
 11
-53.32500540786538
 21
42.55268948872245
 31
0.0
  0
LINE
  5
37B
330
17
100
AcDbEntity
  8
0
100
AcDbLine
 10
-53.32500540786538
 20
42.55268948872245
 30
0.0
 11
-52.5270762902638
 21
43.272324669749096
 31
0.0
  0
LINE
  5
37C
330
17
100
AcDbEntity
  8
0
100
AcDbLine
 10
-52.5270762902638
 20
43.272324669749096
 30
0.0
 11
-51.72401265710153
 21
43.98622555333159
 31
0.0
  0
LINE
  5
37D
330
17
100
AcDbEntity
  8
0
100
AcDbLine
 10
-51.72401265710153
 20
43.98622555333159
 30
0.0
 11
-50.915855716809766
 21
44.69435550633874
 31
0.0
  0
LINE
  5
37E
330
17
100
AcDbEntity
  8
0
100
AcDbLine
 10
-50.915855716809766
 20
44.69435550633874
 30
0.0
 11
-50.10264693917784
 21
45.39667819176904
 31
0.0
  0
LINE
  5
37F
330
17
100
AcDbEntity
  8
0
100
AcDbLine
 10
-50.10264693917784
 20
45.39667819176904
 30
0.0
 11
-49.28442805322516
 21
46.093157570615276
 31
0.0
  0
LINE
  5
380
330
17
100
AcDbEntity
  8
0
100
AcDbLine
 10
-49.28442805322516
 20
46.093157570615276
 30
0.0
 11
-48.46124104506017
 21
46.78375790371375
 31
0.0
  0
LINE
  5
381
330
17
100
AcDbEntity
  8
0
100
AcDbLine
 10
-48.46124104506017
 20
46.78375790371375
 30
0.0
 11
-47.633128155725295
 21
47.46844375357858
 31
0.0
  0
LINE
  5
382
330
17
100
AcDbEntity
  8
0
100
AcDbLine
 10
-47.633128155725295
 20
47.46844375357858
 30
0.0
 11
-46.80013187903017
 21
48.14717998621957
 31
0.0
  0
LINE
  5
383
330
17
100
AcDbEntity
  8
0
100
AcDbLine
 10
-46.80013187903017
 20
48.14717998621957
 30
0.0
 11
-45.96229495937049
 21
48.81993177294545
 31
0.0
  0
LINE
  5
384
330
17
100
AcDbEntity
  8
0
100
AcDbLine
 10
-45.96229495937049
 20
48.81993177294545
 30
0.0
 11
-45.119660389534964
 21
49.48666459215097
 31
0.0
  0
LINE
  5
385
330
17
100
AcDbEntity
  8
0
100
AcDbLine
 10
-45.119660389534964
 20
49.48666459215097
 30
0.0
 11
-44.272271408499016
 21
50.1473442310884
 31
0.0
  0
LINE
  5
386
330
17
100
AcDbEntity
  8
0
100
AcDbLine
 10
-44.272271408499016
 20
50.1473442310884
 30
0.0
 11
-43.420171499206155
 21
50.80193678762299
 31
0.0
  0
LINE
  5
387
330
17
100
AcDbEntity
  8
0
100
AcDbLine
 10
-43.420171499206155
 20
50.80193678762299
 30
0.0
 11
-42.56340438633632
 21
51.45040867197292
 31
0.0
  0
LINE
  5
388
330
17
100
AcDbEntity
  8
0
100
AcDbLine
 10
-42.56340438633632
 20
51.45040867197292
 30
0.0
 11
-41.70201403406279
 21
52.09272660843253
 31
0.0
  0
LINE
  5
389
330
17
100
AcDbEntity
  8
0
100
AcDbLine
 10
-41.70201403406279
 20
52.09272660843253
 30
0.0
 11
-40.83604464379575
 21
52.72885763708008
 31
0.0
  0
LINE
  5
38A
330
17
100
AcDbEntity
  8
0
100
AcDbLine
 10
-40.83604464379575
 20
52.72885763708008
 30
0.0
 11
-39.96554065191432
 21
53.358769115469016
 31
0.0
  0
LINE
  5
38B
330
17
100
AcDbEntity
  8
0
100
AcDbLine
 10
-39.96554065191432
 20
53.358769115469016
 30
0.0
 11
-39.09054672748625
 21
53.98242872030298
 31
0.0
  0
LINE
  5
38C
330
17
100
AcDbEntity
  8
0
100
AcDbLine
 10
-39.09054672748625
 20
53.98242872030298
 30
0.0
 11
-38.21110776997599
 21
54.59980444909431
 31
0.0
  0
LINE
  5
38D
330
17
100
AcDbEntity
  8
0
100
AcDbLine
 10
-38.21110776997599
 20
54.59980444909431
 30
0.0
 11
-37.32726890694018
 21
55.21086462180662
 31
0.0
  0
LINE
  5
38E
330
17
100
AcDbEntity
  8
0
100
AcDbLine
 10
-37.32726890694018
 20
55.21086462180662
 30
0.0
 11
-36.43907549171268
 21
55.81557788247994
 31
0.0
  0
LINE
  5
38F
330
17
100
AcDbEntity
  8
0
100
AcDbLine
 10
-36.43907549171268
 20
55.81557788247994
 30
0.0
 11
-35.546573101076866
 21
56.41391320084
 31
0.0
  0
LINE
  5
390
330
17
100
AcDbEntity
  8
0
100
AcDbLine
 10
-35.546573101076866
 20
56.41391320084
 30
0.0
 11
-34.649807532927035
 21
57.00583987389044
 31
0.0
  0
LINE
  5
391
330
17
100
AcDbEntity
  8
0
100
AcDbLine
 10
-34.649807532927035
 20
57.00583987389044
 30
0.0
 11
-33.74882480391823
 21
57.5913275274883
 31
0.0
  0
LINE
  5
392
330
17
100
AcDbEntity
  8
0
100
AcDbLine
 10
-33.74882480391823
 20
57.5913275274883
 30
0.0
 11
-32.84367114710509
 21
58.170346117902696
 31
0.0
  0
LINE
  5
393
330
17
100
AcDbEntity
  8
0
100
AcDbLine
 10
-32.84367114710509
 20
58.170346117902696
 30
0.0
 11
-31.934393009569455
 21
58.74286593335633
 31
0.0
  0
LINE
  5
394
330
17
100
AcDbEntity
  8
0
100
AcDbLine
 10
-31.934393009569455
 20
58.74286593335633
 30
0.0
 11
-31.02103705003652
 21
59.30885759555049
 31
0.0
  0
LINE
  5
395
330
17
100
AcDbEntity
  8
0
100
AcDbLine
 10
-31.02103705003652
 20
59.30885759555049
 30
0.0
 11
-30.1036501364813
 21
59.8682920611721
 31
0.0
  0
LINE
  5
396
330
17
100
AcDbEntity
  8
0
100
AcDbLine
 10
-30.1036501364813
 20
59.8682920611721
 30
0.0
 11
-29.182279343723273
 21
60.421140623384275
 31
0.0
  0
LINE
  5
397
330
17
100
AcDbEntity
  8
0
100
AcDbLine
 10
-29.182279343723273
 20
60.421140623384275
 30
0.0
 11
-28.25697195101072
 21
60.967374913299466
 31
0.0
  0
LINE
  5
398
330
17
100
AcDbEntity
  8
0
100
AcDbLine
 10
-28.25697195101072
 20
60.967374913299466
 30
0.0
 11
-27.327775439594767
 21
61.50696690143502
 31
0.0
  0
LINE
  5
399
330
17
100
AcDbEntity
  8
0
100
AcDbLine
 10
-27.327775439594767
 20
61.50696690143502
 30
0.0
 11
-26.394737490293004
 21
62.03988889915152
 31
0.0
  0
LINE
  5
39A
330
17
100
AcDbEntity
  8
0
100
AcDbLine
 10
-26.394737490293004
 20
62.03988889915152
 30
0.0
 11
-25.45790598104235
 21
62.5661135600738
 31
0.0
  0
LINE
  5
39B
330
17
100
AcDbEntity
  8
0
100
AcDbLine
 10
-25.45790598104235
 20
62.5661135600738
 30
0.0
 11
-24.51732898444289
 21
63.08561388149391
 31
0.0
  0
LINE
  5
39C
330
17
100
AcDbEntity
  8
0
100
AcDbLine
 10
-24.51732898444289
 20
63.08561388149391
 30
0.0
 11
-23.573054765290657
 21
63.59836320575684
 31
0.0
  0
LINE
  5
39D
330
17
100
AcDbEntity
  8
0
100
AcDbLine
 10
-23.573054765290657
 20
63.59836320575684
 30
0.0
 11
-22.62513177810107
 21
64.10433522162853
 31
0.0
  0
LINE
  5
39E
330
17
100
AcDbEntity
  8
0
100
AcDbLine
 10
-22.62513177810107
 20
64.10433522162853
 30
0.0
 11
-21.67360866462254
 21
64.60350396564581
 31
0.0
  0
LINE
  5
39F
330
17
100
AcDbEntity
  8
0
100
AcDbLine
 10
-21.67360866462254
 20
64.60350396564581
 30
0.0
 11
-20.718534251340607
 21
65.09584382344886
 31
0.0
  0
LINE
  5
3A0
330
17
100
AcDbEntity
  8
0
100
AcDbLine
 10
-20.718534251340607
 20
65.09584382344886
 30
0.0
 11
-19.75995754697191
 21
65.58132953109566
 31
0.0
  0
LINE
  5
3A1
330
17
100
AcDbEntity
  8
0
100
AcDbLine
 10
-19.75995754697191
 20
65.58132953109566
 30
0.0
 11
-18.797927739950147
 21
66.05993617635806
 31
0.0
  0
LINE
  5
3A2
330
17
100
AcDbEntity
  8
0
100
AcDbLine
 10
-18.797927739950147
 20
66.05993617635806
 30
0.0
 11
-17.83249419590151
 21
66.53163920000043
 31
0.0
  0
LINE
  5
3A3
330
17
100
AcDbEntity
  8
0
100
AcDbLine
 10
-17.83249419590151
 20
66.53163920000043
 30
0.0
 11
-16.86370645511166
 21
66.99641439703976
 31
0.0
  0
LINE
  5
3A4
330
17
100
AcDbEntity
  8
0
100
AcDbLine
 10
-16.86370645511166
 20
66.99641439703976
 30
0.0
 11
-15.891614229983569
 21
67.45423791798768
 31
0.0
  0
LINE
  5
3A5
330
17
100
AcDbEntity
  8
0
100
AcDbLine
 10
-15.891614229983569
 20
67.45423791798768
 30
0.0
 11
-14.91626740248679
 21
67.90508627007443
 31
0.0
  0
LINE
  5
3A6
330
17
100
AcDbEntity
  8
0
100
AcDbLine
 10
-14.91626740248679
 20
67.90508627007443
 30
0.0
 11
-13.937716021597234
 21
68.34893631845429
 31
0.0
  0
LINE
  5
3A7
330
17
100
AcDbEntity
  8
0
100
AcDbLine
 10
-13.937716021597234
 20
68.34893631845429
 30
0.0
 11
-12.956010300729753
 21
68.78576528739262
 31
0.0
  0
LINE
  5
3A8
330
17
100
AcDbEntity
  8
0
100
AcDbLine
 10
-12.956010300729753
 20
68.78576528739262
 30
0.0
 11
-11.971200615160948
 21
69.21555076143466
 31
0.0
  0
LINE
  5
3A9
330
17
100
AcDbEntity
  8
0
100
AcDbLine
 10
-11.971200615160948
 20
69.21555076143466
 30
0.0
 11
-10.98333749944439
 21
69.63827068655579
 31
0.0
  0
LINE
  5
3AA
330
17
100
AcDbEntity
  8
0
100
AcDbLine
 10
-10.98333749944439
 20
69.63827068655579
 30
0.0
 11
-9.99247164481743
 21
70.05390337129322
 31
0.0
  0
LINE
  5
3AB
330
17
100
AcDbEntity
  8
0
100
AcDbLine
 10
-9.99247164481743
 20
70.05390337129322
 30
0.0
 11
-8.998653896600176
 21
70.46242748785889
 31
0.0
  0
LINE
  5
3AC
330
17
100
AcDbEntity
  8
0
100
AcDbLine
 10
-8.998653896600176
 20
70.46242748785889
 30
0.0
 11
-8.001935251585936
 21
70.86382207323422
 31
0.0
  0
LINE
  5
3AD
330
17
100
AcDbEntity
  8
0
100
AcDbLine
 10
-8.001935251585936
 20
70.86382207323422
 30
0.0
 11
-7.002366855425075
 21
71.25806653024543
 31
0.0
  0
LINE
  5
3AE
330
17
100
AcDbEntity
  8
0
100
AcDbLine
 10
-7.002366855425075
 20
71.25806653024543
 30
0.0
 11
-6.00000000000008
 21
71.64514062862071
 31
0.0
  0
ENDSEC
  0
SECTION
  2
OBJECTS
  0
DICTIONARY
  5
A
330
0
100
AcDbDictionary
280
0
281
1
  3
ACAD_COLOR
350
B
  3
ACAD_GROUP
350
C
  3
ACAD_LAYOUT
350
D
  3
ACAD_MATERIAL
350
E
  3
ACAD_MLEADERSTYLE
350
F
  3
ACAD_MLINESTYLE
350
10
  3
ACAD_PLOTSETTINGS
350
11
  3
ACAD_PLOTSTYLENAME
350
12
  3
ACAD_SCALELIST
350
14
  3
ACAD_TABLESTYLE
350
15
  3
ACAD_VISUALSTYLE
350
16
  3
EZDXF_META
350
2D
  0
DICTIONARY
  5
B
330
A
100
AcDbDictionary
280
0
281
1
  0
DICTIONARY
  5
C
330
A
100
AcDbDictionary
280
0
281
1
  0
DICTIONARY
  5
D
330
A
100
AcDbDictionary
280
0
281
1
  3
Model
350
1A
  3
Layout1
350
1E
  0
DICTIONARY
  5
E
330
A
100
AcDbDictionary
280
0
281
1
  3
ByBlock
350
1F
  3
ByLayer
350
20
  3
Global
350
21
  0
DICTIONARY
  5
F
330
A
100
AcDbDictionary
280
0
281
1
  3
Standard
350
2C
  0
DICTIONARY
  5
10
330
A
100
AcDbDictionary
280
0
281
1
  3
Standard
350
22
  0
DICTIONARY
  5
11
330
A
100
AcDbDictionary
280
0
281
1
  0
ACDBDICTIONARYWDFLT
  5
12
330
A
100
AcDbDictionary
280
0
281
1
  3
Normal
350
13
100
AcDbDictionaryWithDefault
340
13
  0
ACDBPLACEHOLDER
  5
13
330
12
  0
DICTIONARY
  5
14
330
A
100
AcDbDictionary
280
0
281
1
  0
DICTIONARY
  5
15
330
A
100
AcDbDictionary
280
0
281
1
  0
DICTIONARY
  5
16
330
A
100
AcDbDictionary
280
0
281
1
  0
LAYOUT
  5
1A
330
D
100
AcDbPlotSettings
  1

  2
Adobe PDF
  4
A3
  6

 40
7.5
 41
20.0
 42
7.5
 43
20.0
 44
420.0
 45
297.0
 46
0.0
 47
0.0
 48
0.0
 49
0.0
140
0.0
141
0.0
142
1.0
143
1.0
 70
1024
 72
1
 73
0
 74
5
  7

 75
16
 76
0
 77
2
 78
300
147
1.0
148
0.0
149
0.0
100
AcDbLayout
  1
Model
 70
1
 71
0
 10
0.0
 20
0.0
 11
420.0
 21
297.0
 12
0.0
 22
0.0
 32
0.0
 14
1e+20
 24
1e+20
 34
1e+20
 15
-1e+20
 25
-1e+20
 35
-1e+20
146
0.0
 13
0.0
 23
0.0
 33
0.0
 16
1.0
 26
0.0
 36
0.0
 17
0.0
 27
1.0
 37
0.0
 76
1
330
17
  0
LAYOUT
  5
1E
330
D
100
AcDbPlotSettings
  1

  2
Adobe PDF
  4
A3
  6

 40
7.5
 41
20.0
 42
7.5
 43
20.0
 44
420.0
 45
297.0
 46
0.0
 47
0.0
 48
0.0
 49
0.0
140
0.0
141
0.0
142
1.0
143
1.0
 70
0
 72
1
 73
0
 74
5
  7

 75
16
 76
0
 77
2
 78
300
147
1.0
148
0.0
149
0.0
100
AcDbLayout
  1
Layout1
 70
1
 71
1
 10
0.0
 20
0.0
 11
420.0
 21
297.0
 12
0.0
 22
0.0
 32
0.0
 14
1e+20
 24
1e+20
 34
1e+20
 15
-1e+20
 25
-1e+20
 35
-1e+20
146
0.0
 13
0.0
 23
0.0
 33
0.0
 16
1.0
 26
0.0
 36
0.0
 17
0.0
 27
1.0
 37
0.0
 76
1
330
1B
  0
MATERIAL
  5
1F
102
{ACAD_REACTORS
330
E
102
}
330
E
100
AcDbMaterial
  1
ByBlock
  2

 70
0
 40
1.0
 71
1
 41
1.0
 91
-1023410177
 42
1.0
 72
1
  3

 73
1
 74
1
 75
1
 44
0.5
 73
0
 45
1.0
 46
1.0
 77
1
  4

 78
1
 79
1
170
1
 48
1.0
171
1
  6

172
1
173
1
174
1
140
1.0
141
1.0
175
1
  7

176
1
177
1
178
1
143
1.0
179
1
  8

270
1
271
1
272
1
145
1.0
146
1.0
273
1
  9

274
1
275
1
276
1
 42
1.0
 72
1
  3

 73
1
 74
1
 75
1
 94
63
  0
MATERIAL
  5
20
102
{ACAD_REACTORS
330
E
102
}
330
E
100
AcDbMaterial
  1
ByLayer
  2

 70
0
 40
1.0
 71
1
 41
1.0
 91
-1023410177
 42
1.0
 72
1
  3

 73
1
 74
1
 75
1
 44
0.5
 73
0
 45
1.0
 46
1.0
 77
1
  4

 78
1
 79
1
170
1
 48
1.0
171
1
  6

172
1
173
1
174
1
140
1.0
141
1.0
175
1
  7

176
1
177
1
178
1
143
1.0
179
1
  8

270
1
271
1
272
1
145
1.0
146
1.0
273
1
  9

274
1
275
1
276
1
 42
1.0
 72
1
  3

 73
1
 74
1
 75
1
 94
63
  0
MATERIAL
  5
21
102
{ACAD_REACTORS
330
E
102
}
330
E
100
AcDbMaterial
  1
Global
  2

 70
0
 40
1.0
 71
1
 41
1.0
 91
-1023410177
 42
1.0
 72
1
  3

 73
1
 74
1
 75
1
 44
0.5
 73
0
 45
1.0
 46
1.0
 77
1
  4

 78
1
 79
1
170
1
 48
1.0
171
1
  6

172
1
173
1
174
1
140
1.0
141
1.0
175
1
  7

176
1
177
1
178
1
143
1.0
179
1
  8

270
1
271
1
272
1
145
1.0
146
1.0
273
1
  9

274
1
275
1
276
1
 42
1.0
 72
1
  3

 73
1
 74
1
 75
1
 94
63
  0
MLINESTYLE
  5
22
102
{ACAD_REACTORS
330
10
102
}
330
10
100
AcDbMlineStyle
  2
Standard
 70
0
  3

 62
256
 51
90.0
 52
90.0
 71
2
 49
0.5
 62
256
  6
BYLAYER
 49
-0.5
 62
256
  6
BYLAYER
  0
MLEADERSTYLE
  5
2C
102
{ACAD_REACTORS
330
F
102
}
330
F
100
AcDbMLeaderStyle
179
2
170
2
171
1
172
0
 90
2
 40
0.0
 41
0.0
173
1
 91
-1056964608
 92
-2
290
1
 42
2.0
291
1
 43
8.0
  3
Standard
 44
4.0
300

342
29
174
1
175
1
176
0
178
1
 93
-1056964608
 45
4.0
292
0
297
0
 46
4.0
 94
-1056964608
 47
1.0
 49
1.0
140
1.0
294
1
141
0.0
177
0
142
1.0
295
0
296
0
143
3.75
271
0
272
9
273
9
  0
DICTIONARY
  5
2D
330
A
100
AcDbDictionary
281
1
  3
CREATED_BY_EZDXF
350
2E
  3
WRITTEN_BY_EZDXF
350
3B1
  0
DICTIONARYVAR
  5
2E
330
2D
100
DictionaryVariables
280
0
  1
1.0.2 @ 2023-11-27T08:45:33.977479+00:00
  0
DICTIONARYVAR
  5
3B1
330
2D
100
DictionaryVariables
280
0
  1
1.0.2 @ 2023-11-27T08:45:34.003321+00:00
  0
ENDSEC
  0
EOF
