  0
SECTION
  2
HEADER
  9
$ACADVER
  1
AC1027
  9
$ACADMAINTVER
 70
105
  9
$DWGCODEPAGE
  3
ANSI_1252
  9
$LASTSAVEDBY
  1
ezdxf
  9
$REQUIREDVERSIONS
160
0
  9
$INSBASE
 10
0.0
 20
0.0
 30
0.0
  9
$EXTMIN
 10
1e+20
 20
1e+20
 30
1e+20
  9
$EXTMAX
 10
-1e+20
 20
-1e+20
 30
-1e+20
  9
$LIMMIN
 10
0.0
 20
0.0
  9
$LIMMAX
 10
420.0
 20
297.0
  9
$ORTHOMODE
 70
0
  9
$REGENMODE
 70
1
  9
$FILLMODE
 70
1
  9
$QTEXTMODE
 70
0
  9
$MIRRTEXT
 70
1
  9
$LTSCALE
 40
1.0
  9
$ATTMODE
 70
1
  9
$TEXTSIZE
 40
2.5
  9
$TRACEWID
 40
1.0
  9
$TEXTSTYLE
  7
Standard
  9
$CLAYER
  8
0
  9
$CELTYPE
  6
ByLayer
  9
$CECOLOR
 62
256
  9
$CELTSCALE
 40
1.0
  9
$DISPSILH
 70
0
  9
$DIMSCALE
 40
1.0
  9
$DIMASZ
 40
2.5
  9
$DIMEXO
 40
0.625
  9
$DIMDLI
 40
3.75
  9
$DIMRND
 40
0.0
  9
$DIMDLE
 40
0.0
  9
$DIMEXE
 40
1.25
  9
$DIMTP
 40
0.0
  9
$DIMTM
 40
0.0
  9
$DIMTXT
 40
2.5
  9
$DIMCEN
 40
2.5
  9
$DIMTSZ
 40
0.0
  9
$DIMTOL
 70
0
  9
$DIMLIM
 70
0
  9
$DIMTIH
 70
0
  9
$DIMTOH
 70
0
  9
$DIMSE1
 70
0
  9
$DIMSE2
 70
0
  9
$DIMTAD
 70
1
  9
$DIMZIN
 70
8
  9
$DIMBLK
  1

  9
$DIMASO
 70
1
  9
$DIMSHO
 70
1
  9
$DIMPOST
  1

  9
$DIMAPOST
  1

  9
$DIMALT
 70
0
  9
$DIMALTD
 70
3
  9
$DIMALTF
 40
0.03937007874
  9
$DIMLFAC
 40
1.0
  9
$DIMTOFL
 70
1
  9
$DIMTVP
 40
0.0
  9
$DIMTIX
 70
0
  9
$DIMSOXD
 70
0
  9
$DIMSAH
 70
0
  9
$DIMBLK1
  1

  9
$DIMBLK2
  1

  9
$DIMSTYLE
  2
ISO-25
  9
$DIMCLRD
 70
0
  9
$DIMCLRE
 70
0
  9
$DIMCLRT
 70
0
  9
$DIMTFAC
 40
1.0
  9
$DIMGAP
 40
0.625
  9
$DIMJUST
 70
0
  9
$DIMSD1
 70
0
  9
$DIMSD2
 70
0
  9
$DIMTOLJ
 70
0
  9
$DIMTZIN
 70
8
  9
$DIMALTZ
 70
0
  9
$DIMALTTZ
 70
0
  9
$DIMUPT
 70
0
  9
$DIMDEC
 70
2
  9
$DIMTDEC
 70
2
  9
$DIMALTU
 70
2
  9
$DIMALTTD
 70
3
  9
$DIMTXSTY
  7
Standard
  9
$DIMAUNIT
 70
0
  9
$DIMADEC
 70
0
  9
$DIMALTRND
 40
0.0
  9
$DIMAZIN
 70
0
  9
$DIMDSEP
 70
44
  9
$DIMATFIT
 70
3
  9
$DIMFRAC
 70
0
  9
$DIMLDRBLK
  1

  9
$DIMLUNIT
 70
2
  9
$DIMLWD
 70
-2
  9
$DIMLWE
 70
-2
  9
$DIMTMOVE
 70
0
  9
$DIMFXL
 40
1.0
  9
$DIMFXLON
 70
0
  9
$DIMJOGANG
 40
0.785398163397
  9
$DIMTFILL
 70
0
  9
$DIMTFILLCLR
 70
0
  9
$DIMARCSYM
 70
0
  9
$DIMLTYPE
  6

  9
$DIMLTEX1
  6

  9
$DIMLTEX2
  6

  9
$DIMTXTDIRECTION
 70
0
  9
$LUNITS
 70
2
  9
$LUPREC
 70
4
  9
$SKETCHINC
 40
1.0
  9
$FILLETRAD
 40
10.0
  9
$AUNITS
 70
0
  9
$AUPREC
 70
2
  9
$MENU
  1
.
  9
$ELEVATION
 40
0.0
  9
$PELEVATION
 40
0.0
  9
$THICKNESS
 40
0.0
  9
$LIMCHECK
 70
0
  9
$CHAMFERA
 40
0.0
  9
$CHAMFERB
 40
0.0
  9
$CHAMFERC
 40
0.0
  9
$CHAMFERD
 40
0.0
  9
$SKPOLY
 70
0
  9
$TDCREATE
 40
2460276.0316435187
  9
$TDUCREATE
 40
2458532.153996898
  9
$TDUPDATE
 40
2460276.0316435187
  9
$TDUUPDATE
 40
2458532.1544311
  9
$TDINDWG
 40
0.0
  9
$TDUSRTIMER
 40
0.0
  9
$USRTIMER
 70
1
  9
$ANGBASE
 50
0.0
  9
$ANGDIR
 70
0
  9
$PDMODE
 70
0
  9
$PDSIZE
 40
0.0
  9
$PLINEWID
 40
0.0
  9
$SPLFRAME
 70
0
  9
$SPLINETYPE
 70
6
  9
$SPLINESEGS
 70
8
  9
$HANDSEED
  5
FD
  9
$SURFTAB1
 70
6
  9
$SURFTAB2
 70
6
  9
$SURFTYPE
 70
6
  9
$SURFU
 70
6
  9
$SURFV
 70
6
  9
$UCSBASE
  2

  9
$UCSNAME
  2

  9
$UCSORG
 10
0.0
 20
0.0
 30
0.0
  9
$UCSXDIR
 10
1.0
 20
0.0
 30
0.0
  9
$UCSYDIR
 10
0.0
 20
1.0
 30
0.0
  9
$UCSORTHOREF
  2

  9
$UCSORTHOVIEW
 70
0
  9
$UCSORGTOP
 10
0.0
 20
0.0
 30
0.0
  9
$UCSORGBOTTOM
 10
0.0
 20
0.0
 30
0.0
  9
$UCSORGLEFT
 10
0.0
 20
0.0
 30
0.0
  9
$UCSORGRIGHT
 10
0.0
 20
0.0
 30
0.0
  9
$UCSORGFRONT
 10
0.0
 20
0.0
 30
0.0
  9
$UCSORGBACK
 10
0.0
 20
0.0
 30
0.0
  9
$PUCSBASE
  2

  9
$PUCSNAME
  2

  9
$PUCSORG
 10
0.0
 20
0.0
 30
0.0
  9
$PUCSXDIR
 10
1.0
 20
0.0
 30
0.0
  9
$PUCSYDIR
 10
0.0
 20
1.0
 30
0.0
  9
$PUCSORTHOREF
  2

  9
$PUCSORTHOVIEW
 70
0
  9
$PUCSORGTOP
 10
0.0
 20
0.0
 30
0.0
  9
$PUCSORGBOTTOM
 10
0.0
 20
0.0
 30
0.0
  9
$PUCSORGLEFT
 10
0.0
 20
0.0
 30
0.0
  9
$PUCSORGRIGHT
 10
0.0
 20
0.0
 30
0.0
  9
$PUCSORGFRONT
 10
0.0
 20
0.0
 30
0.0
  9
$PUCSORGBACK
 10
0.0
 20
0.0
 30
0.0
  9
$USERI1
 70
0
  9
$USERI2
 70
0
  9
$USERI3
 70
0
  9
$USERI4
 70
0
  9
$USERI5
 70
0
  9
$USERR1
 40
0.0
  9
$USERR2
 40
0.0
  9
$USERR3
 40
0.0
  9
$USERR4
 40
0.0
  9
$USERR5
 40
0.0
  9
$WORLDVIEW
 70
1
  9
$SHADEDGE
 70
3
  9
$SHADEDIF
 70
70
  9
$TILEMODE
 70
1
  9
$MAXACTVP
 70
64
  9
$PINSBASE
 10
0.0
 20
0.0
 30
0.0
  9
$PLIMCHECK
 70
0
  9
$PEXTMIN
 10
1e+20
 20
1e+20
 30
1e+20
  9
$PEXTMAX
 10
-1e+20
 20
-1e+20
 30
-1e+20
  9
$PLIMMIN
 10
0.0
 20
0.0
  9
$PLIMMAX
 10
420.0
 20
297.0
  9
$UNITMODE
 70
0
  9
$VISRETAIN
 70
1
  9
$PLINEGEN
 70
0
  9
$PSLTSCALE
 70
1
  9
$TREEDEPTH
 70
3020
  9
$CMLSTYLE
  2
Standard
  9
$CMLJUST
 70
0
  9
$CMLSCALE
 40
20.0
  9
$PROXYGRAPHICS
 70
1
  9
$MEASUREMENT
 70
1
  9
$CELWEIGHT
370
-1
  9
$ENDCAPS
280
0
  9
$JOINSTYLE
280
0
  9
$LWDISPLAY
290
0
  9
$INSUNITS
 70
6
  9
$HYPERLINKBASE
  1

  9
$STYLESHEET
  1

  9
$XEDIT
290
1
  9
$CEPSNTYPE
380
0
  9
$PSTYLEMODE
290
1
  9
$FINGERPRINTGUID
  2
{F8DC2CB1-C890-4B3D-9DF8-368014378CE3}
  9
$VERSIONGUID
  2
{8CB78F08-AEEE-4C3C-931F-44BB98EC1278}
  9
$EXTNAMES
290
1
  9
$PSVPSCALE
 40
0.0
  9
$OLESTARTUP
290
0
  9
$SORTENTS
280
127
  9
$INDEXCTL
280
0
  9
$HIDETEXT
280
1
  9
$XCLIPFRAME
280
0
  9
$HALOGAP
280
0
  9
$OBSCOLOR
 70
257
  9
$OBSLTYPE
280
0
  9
$INTERSECTIONDISPLAY
280
0
  9
$INTERSECTIONCOLOR
 70
257
  9
$DIMASSOC
280
2
  9
$PROJECTNAME
  1

  9
$CAMERADISPLAY
290
0
  9
$LENSLENGTH
 40
50.0
  9
$CAMERAHEIGHT
 40
0.0
  9
$STEPSPERSEC
 40
24.0
  9
$STEPSIZE
 40
100.0
  9
$3DDWFPREC
 40
2.0
  9
$PSOLWIDTH
 40
0.005
  9
$PSOLHEIGHT
 40
0.08
  9
$LOFTANG1
 40
1.570796326795
  9
$LOFTANG2
 40
1.570796326795
  9
$LOFTMAG1
 40
0.0
  9
$LOFTMAG2
 40
0.0
  9
$LOFTPARAM
 70
7
  9
$LOFTNORMALS
280
1
  9
$LATITUDE
 40
37.795
  9
$LONGITUDE
 40
-122.394
  9
$NORTHDIRECTION
 40
0.0
  9
$TIMEZONE
 70
-8000
  9
$LIGHTGLYPHDISPLAY
280
1
  9
$TILEMODELIGHTSYNCH
280
1
  9
$CMATERIAL
347
20
  9
$SOLIDHIST
280
0
  9
$SHOWHIST
280
1
  9
$DWFFRAME
280
2
  9
$DGNFRAME
280
2
  9
$REALWORLDSCALE
290
1
  9
$INTERFERECOLOR
 62
256
  9
$CSHADOW
280
0
  9
$SHADOWPLANELOCATION
 40
0.0
  0
ENDSEC
  0
SECTION
  2
CLASSES
  0
CLASS
  1
ACDBDICTIONARYWDFLT
  2
AcDbDictionaryWithDefault
  3
ObjectDBX Classes
 90
0
 91
0
280
0
281
0
  0
CLASS
  1
SUN
  2
AcDbSun
  3
SCENEOE
 90
1153
 91
0
280
0
281
0
  0
CLASS
  1
VISUALSTYLE
  2
AcDbVisualStyle
  3
ObjectDBX Classes
 90
4095
 91
0
280
0
281
0
  0
CLASS
  1
MATERIAL
  2
AcDbMaterial
  3
ObjectDBX Classes
 90
1153
 91
0
280
0
281
0
  0
CLASS
  1
SCALE
  2
AcDbScale
  3
ObjectDBX Classes
 90
1153
 91
0
280
0
281
0
  0
CLASS
  1
TABLESTYLE
  2
AcDbTableStyle
  3
ObjectDBX Classes
 90
4095
 91
0
280
0
281
0
  0
CLASS
  1
MLEADERSTYLE
  2
AcDbMLeaderStyle
  3
ACDB_MLEADERSTYLE_CLASS
 90
4095
 91
0
280
0
281
0
  0
CLASS
  1
DICTIONARYVAR
  2
AcDbDictionaryVar
  3
ObjectDBX Classes
 90
0
 91
0
280
0
281
0
  0
CLASS
  1
CELLSTYLEMAP
  2
AcDbCellStyleMap
  3
ObjectDBX Classes
 90
1152
 91
0
280
0
281
0
  0
CLASS
  1
MENTALRAYRENDERSETTINGS
  2
AcDbMentalRayRenderSettings
  3
SCENEOE
 90
1024
 91
0
280
0
281
0
  0
CLASS
  1
ACDBDETAILVIEWSTYLE
  2
AcDbDetailViewStyle
  3
ObjectDBX Classes
 90
1025
 91
0
280
0
281
0
  0
CLASS
  1
ACDBSECTIONVIEWSTYLE
  2
AcDbSectionViewStyle
  3
ObjectDBX Classes
 90
1025
 91
0
280
0
281
0
  0
CLASS
  1
RASTERVARIABLES
  2
AcDbRasterVariables
  3
ISM
 90
0
 91
0
280
0
281
0
  0
CLASS
  1
ACDBPLACEHOLDER
  2
AcDbPlaceHolder
  3
ObjectDBX Classes
 90
0
 91
0
280
0
281
0
  0
CLASS
  1
LAYOUT
  2
AcDbLayout
  3
ObjectDBX Classes
 90
0
 91
0
280
0
281
0
  0
ENDSEC
  0
SECTION
  2
TABLES
  0
TABLE
  2
VPORT
  5
8
330
0
100
AcDbSymbolTable
 70
1
  0
VPORT
  5
23
330
8
100
AcDbSymbolTableRecord
100
AcDbViewportTableRecord
  2
*Active
 70
0
 10
0.0
 20
0.0
 11
1.0
 21
1.0
 12
0.0
 22
0.0
 13
0.0
 23
0.0
 14
0.5
 24
0.5
 15
0.5
 25
0.5
 16
0.0
 26
0.0
 36
1.0
 17
0.0
 27
0.0
 37
0.0
 40
1000.0
 41
1.34
 42
50.0
 43
0.0
 44
0.0
 50
0.0
 51
0.0
 71
0
 72
1000
 73
1
 74
3
 75
0
 76
0
 77
0
 78
0
281
0
 65
0
146
0.0
  0
ENDTAB
  0
TABLE
  2
LTYPE
  5
2
330
0
100
AcDbSymbolTable
 70
3
  0
LTYPE
  5
24
330
2
100
AcDbSymbolTableRecord
100
AcDbLinetypeTableRecord
  2
ByBlock
 70
0
  3

 72
65
 73
0
 40
0.0
  0
LTYPE
  5
25
330
2
100
AcDbSymbolTableRecord
100
AcDbLinetypeTableRecord
  2
ByLayer
 70
0
  3

 72
65
 73
0
 40
0.0
  0
LTYPE
  5
26
330
2
100
AcDbSymbolTableRecord
100
AcDbLinetypeTableRecord
  2
Continuous
 70
0
  3

 72
65
 73
0
 40
0.0
  0
ENDTAB
  0
TABLE
  2
LAYER
  5
1
330
0
100
AcDbSymbolTable
 70
2
  0
LAYER
  5
27
330
1
100
AcDbSymbolTableRecord
100
AcDbLayerTableRecord
  2
0
 70
0
 62
7
  6
Continuous
370
-3
390
13
347
21
  0
LAYER
  5
28
330
1
100
AcDbSymbolTableRecord
100
AcDbLayerTableRecord
  2
Defpoints
 70
0
 62
7
  6
Continuous
290
0
370
-3
390
13
347
21
  0
ENDTAB
  0
TABLE
  2
STYLE
  5
5
330
0
100
AcDbSymbolTable
 70
1
  0
STYLE
  5
29
330
5
100
AcDbSymbolTableRecord
100
AcDbTextStyleTableRecord
  2
Standard
 70
0
 40
0.0
 41
1.0
 50
0.0
 71
0
 42
2.5
  3
txt
  4

  0
ENDTAB
  0
TABLE
  2
VIEW
  5
7
330
0
100
AcDbSymbolTable
 70
0
  0
ENDTAB
  0
TABLE
  2
UCS
  5
6
330
0
100
AcDbSymbolTable
 70
0
  0
ENDTAB
  0
TABLE
  2
APPID
  5
3
330
0
100
AcDbSymbolTable
 70
3
  0
APPID
  5
2A
330
3
100
AcDbSymbolTableRecord
100
AcDbRegAppTableRecord
  2
ACAD
 70
0
  0
APPID
  5
FA
330
3
100
AcDbSymbolTableRecord
100
AcDbRegAppTableRecord
  2
HATCHBACKGROUNDCOLOR
 70
0
  0
APPID
  5
FB
330
3
100
AcDbSymbolTableRecord
100
AcDbRegAppTableRecord
  2
EZDXF
 70
0
  0
ENDTAB
  0
TABLE
  2
DIMSTYLE
  5
4
330
0
100
AcDbSymbolTable
 70
1
100
AcDbDimStyleTable
  0
DIMSTYLE
105
2B
330
4
100
AcDbSymbolTableRecord
100
AcDbDimStyleTableRecord
  2
Standard
 70
0
 40
1.0
 41
2.5
 42
0.625
 43
3.75
 44
1.25
 45
0.0
 46
0.0
 47
0.0
 48
0.0
 49
2.5
140
2.5
141
2.5
142
0.0
143
0.03937007874
144
1.0
145
0.0
146
1.0
147
0.625
148
0.0
 69
0
 70
0
 71
0
 72
0
 73
0
 74
0
 75
0
 76
0
 77
1
 78
8
 79
3
170
0
171
3
172
1
173
0
174
0
175
0
176
0
177
0
178
0
179
2
271
2
272
2
273
2
274
3
275
0
276
0
277
2
278
44
279
0
280
0
281
0
282
0
283
0
284
8
285
0
286
0
288
0
289
3
290
0
371
-2
372
-2
  0
ENDTAB
  0
TABLE
  2
BLOCK_RECORD
  5
9
330
0
100
AcDbSymbolTable
 70
2
  0
BLOCK_RECORD
  5
17
330
9
100
AcDbSymbolTableRecord
100
AcDbBlockTableRecord
  2
*Model_Space
340
1A
 70
0
280
1
281
0
  0
BLOCK_RECORD
  5
1B
330
9
100
AcDbSymbolTableRecord
100
AcDbBlockTableRecord
  2
*Paper_Space
340
1E
 70
0
280
1
281
0
  0
ENDTAB
  0
ENDSEC
  0
SECTION
  2
BLOCKS
  0
BLOCK
  5
18
330
17
100
AcDbEntity
  8
0
100
AcDbBlockBegin
  2
*Model_Space
 70
0
 10
0.0
 20
0.0
 30
0.0
  3
*Model_Space
  1

  0
ENDBLK
  5
19
330
17
100
AcDbEntity
  8
0
100
AcDbBlockEnd
  0
BLOCK
  5
1C
330
1B
100
AcDbEntity
  8
0
100
AcDbBlockBegin
  2
*Paper_Space
 70
0
 10
0.0
 20
0.0
 30
0.0
  3
*Paper_Space
  1

  0
ENDBLK
  5
1D
330
1B
100
AcDbEntity
  8
0
100
AcDbBlockEnd
  0
ENDSEC
  0
SECTION
  2
ENTITIES
  0
LINE
  5
2F
330
17
100
AcDbEntity
  8
0
100
AcDbLine
 10
268.074544922705
 20
-16.0
 30
0.0
 11
268.074544922705
 21
-35.3
 31
0.0
  0
LINE
  5
30
330
17
100
AcDbEntity
  8
0
100
AcDbLine
 10
268.074544922705
 20
-6.0
 30
0.0
 11
268.074544922705
 21
-16.0
 31
0.0
  0
LINE
  5
31
330
17
100
AcDbEntity
  8
0
100
AcDbLine
 10
268.074544922705
 20
-6.0
 30
0.0
 11
288.074544922705
 21
-6.0
 31
0.0
  0
LINE
  5
32
330
17
100
AcDbEntity
  8
0
100
AcDbLine
 10
288.074544922705
 20
-6.0
 30
0.0
 11
288.074544922705
 21
-35.3
 31
0.0
  0
LINE
  5
33
330
17
100
AcDbEntity
  8
0
100
AcDbLine
 10
288.074544922705
 20
-35.3
 30
0.0
 11
268.074544922705
 21
-35.3
 31
0.0
  0
LINE
  5
34
330
17
100
AcDbEntity
  8
0
100
AcDbLine
 10
276.574544922705
 20
-26.6500000000129
 30
0.0
 11
276.57530010913024
 21
-26.69759190026
 31
0.0
  0
LINE
  5
35
330
17
100
AcDbEntity
  8
0
100
AcDbLine
 10
276.57530010913024
 20
-26.69759190026
 30
0.0
 11
276.57756490799716
 21
-26.745135879497745
 31
0.0
  0
LINE
  5
36
330
17
100
AcDbEntity
  8
0
100
AcDbLine
 10
276.57756490799716
 20
-26.745135879497745
 30
0.0
 11
276.5813370388454
 21
-26.792584064969173
 31
0.0
  0
LINE
  5
37
330
17
100
AcDbEntity
  8
0
100
AcDbLine
 10
276.5813370388454
 20
-26.792584064969173
 30
0.0
 11
276.5866127034588
 21
-26.839888680373523
 31
0.0
  0
LINE
  5
38
330
17
100
AcDbEntity
  8
0
100
AcDbLine
 10
276.5866127034588
 20
-26.839888680373523
 30
0.0
 11
276.5933865896904
 21
-26.887002093972924
 31
0.0
  0
LINE
  5
39
330
17
100
AcDbEntity
  8
0
100
AcDbLine
 10
276.5933865896904
 20
-26.887002093972924
 30
0.0
 11
276.60165187681093
 21
-26.933876866553515
 31
0.0
  0
LINE
  5
3A
330
17
100
AcDbEntity
  8
0
100
AcDbLine
 10
276.60165187681093
 20
-26.933876866553515
 30
0.0
 11
276.6114002423769
 21
-26.98046579919271
 31
0.0
  0
LINE
  5
3B
330
17
100
AcDbEntity
  8
0
100
AcDbLine
 10
276.6114002423769
 20
-26.98046579919271
 30
0.0
 11
276.6226218706105
 21
-27.02672198078452
 31
0.0
  0
LINE
  5
3C
330
17
100
AcDbEntity
  8
0
100
AcDbLine
 10
276.6226218706105
 20
-27.02672198078452
 30
0.0
 11
276.63530546228327
 21
-27.07259883527504
 31
0.0
  0
LINE
  5
3D
330
17
100
AcDbEntity
  8
0
100
AcDbLine
 10
276.63530546228327
 20
-27.07259883527504
 30
0.0
 11
276.6494382460936
 21
-27.11805016856063
 31
0.0
  0
LINE
  5
3E
330
17
100
AcDbEntity
  8
0
100
AcDbLine
 10
276.6494382460936
 20
-27.11805016856063
 30
0.0
 11
276.66500599152613
 21
-27.163030215001402
 31
0.0
  0
LINE
  5
3F
330
17
100
AcDbEntity
  8
0
100
AcDbLine
 10
276.66500599152613
 20
-27.163030215001402
 30
0.0
 11
276.6819930231809
 21
-27.20749368350339
 31
0.0
  0
LINE
  5
40
330
17
100
AcDbEntity
  8
0
100
AcDbLine
 10
276.6819930231809
 20
-27.20749368350339
 30
0.0
 11
276.7003822365569
 21
-27.25139580312282
 31
0.0
  0
LINE
  5
41
330
17
100
AcDbEntity
  8
0
100
AcDbLine
 10
276.7003822365569
 20
-27.25139580312282
 30
0.0
 11
276.7201551152751
 21
-27.294692368146656
 31
0.0
  0
LINE
  5
42
330
17
100
AcDbEntity
  8
0
100
AcDbLine
 10
276.7201551152751
 20
-27.294692368146656
 30
0.0
 11
276.7412917497226
 21
-27.337339782604015
 31
0.0
  0
LINE
  5
43
330
17
100
AcDbEntity
  8
0
100
AcDbLine
 10
276.7412917497226
 20
-27.337339782604015
 30
0.0
 11
276.7637708571003
 21
-27.379295104163603
 31
0.0
  0
LINE
  5
44
330
17
100
AcDbEntity
  8
0
100
AcDbLine
 10
276.7637708571003
 20
-27.379295104163603
 30
0.0
 11
276.78756980285254
 21
-27.42051608737301
 31
0.0
  0
LINE
  5
45
330
17
100
AcDbEntity
  8
0
100
AcDbLine
 10
276.78756980285254
 20
-27.42051608737301
 30
0.0
 11
276.8126646234582
 21
-27.460961226196297
 31
0.0
  0
LINE
  5
46
330
17
100
AcDbEntity
  8
0
100
AcDbLine
 10
276.8126646234582
 20
-27.460961226196297
 30
0.0
 11
276.83903005056027
 21
-27.500589795807056
 31
0.0
  0
LINE
  5
47
330
17
100
AcDbEntity
  8
0
100
AcDbLine
 10
276.83903005056027
 20
-27.500589795807056
 30
0.0
 11
276.8666395364084
 21
-27.539361893594858
 31
0.0
  0
LINE
  5
48
330
17
100
AcDbEntity
  8
0
100
AcDbLine
 10
276.8666395364084
 20
-27.539361893594858
 30
0.0
 11
276.8954652805908
 21
-27.577238479343805
 31
0.0
  0
LINE
  5
49
330
17
100
AcDbEntity
  8
0
100
AcDbLine
 10
276.8954652805908
 20
-27.577238479343805
 30
0.0
 11
276.92547825802654
 21
-27.614181414542706
 31
0.0
  0
LINE
  5
4A
330
17
100
AcDbEntity
  8
0
100
AcDbLine
 10
276.92547825802654
 20
-27.614181414542706
 30
0.0
 11
276.95664824819136
 21
-27.650153500787336
 31
0.0
  0
LINE
  5
4B
330
17
100
AcDbEntity
  8
0
100
AcDbLine
 10
276.95664824819136
 20
-27.650153500787336
 30
0.0
 11
276.9889438655474
 21
-27.685118517236067
 31
0.0
  0
LINE
  5
4C
330
17
100
AcDbEntity
  8
0
100
AcDbLine
 10
276.9889438655474
 20
-27.685118517236067
 30
0.0
 11
277.0223325911455
 21
-27.719041257081194
 31
0.0
  0
LINE
  5
4D
330
17
100
AcDbEntity
  8
0
100
AcDbLine
 10
277.0223325911455
 20
-27.719041257081194
 30
0.0
 11
277.0567808053693
 21
-27.751887562999197
 31
0.0
  0
LINE
  5
4E
330
17
100
AcDbEntity
  8
0
100
AcDbLine
 10
277.0567808053693
 20
-27.751887562999197
 30
0.0
 11
277.0922538217871
 21
-27.783624361544284
 31
0.0
  0
LINE
  5
4F
330
17
100
AcDbEntity
  8
0
100
AcDbLine
 10
277.0922538217871
 20
-27.783624361544284
 30
0.0
 11
277.12871592207824
 21
-27.814219696450532
 31
0.0
  0
LINE
  5
50
330
17
100
AcDbEntity
  8
0
100
AcDbLine
 10
277.12871592207824
 20
-27.814219696450532
 30
0.0
 11
277.1661303919985
 21
-27.843642760809146
 31
0.0
  0
LINE
  5
51
330
17
100
AcDbEntity
  8
0
100
AcDbLine
 10
277.1661303919985
 20
-27.843642760809146
 30
0.0
 11
277.2044595583482
 21
-27.871863928088402
 31
0.0
  0
LINE
  5
52
330
17
100
AcDbEntity
  8
0
100
AcDbLine
 10
277.2044595583482
 20
-27.871863928088402
 30
0.0
 11
277.24366482690584
 21
-27.898854781965056
 31
0.0
  0
LINE
  5
53
330
17
100
AcDbEntity
  8
0
100
AcDbLine
 10
277.24366482690584
 20
-27.898854781965056
 30
0.0
 11
277.28370672128926
 21
-27.924588144937168
 31
0.0
  0
LINE
  5
54
330
17
100
AcDbEntity
  8
0
100
AcDbLine
 10
277.28370672128926
 20
-27.924588144937168
 30
0.0
 11
277.324544922705
 21
-27.949038105689556
 31
0.0
  0
LINE
  5
55
330
17
100
AcDbEntity
  8
0
100
AcDbLine
 10
277.324544922705
 20
-27.949038105689556
 30
0.0
 11
277.366138310546
 21
-27.97218004518427
 31
0.0
  0
LINE
  5
56
330
17
100
AcDbEntity
  8
0
100
AcDbLine
 10
277.366138310546
 20
-27.97218004518427
 30
0.0
 11
277.4084450037963
 21
-27.993990661449903
 31
0.0
  0
LINE
  5
57
330
17
100
AcDbEntity
  8
0
100
AcDbLine
 10
277.4084450037963
 20
-27.993990661449903
 30
0.0
 11
277.4514224032022
 21
-28.014447993044676
 31
0.0
  0
LINE
  5
58
330
17
100
AcDbEntity
  8
0
100
AcDbLine
 10
277.4514224032022
 20
-28.014447993044676
 30
0.0
 11
277.4950272341653
 21
-28.03353144116977
 31
0.0
  0
LINE
  5
59
330
17
100
AcDbEntity
  8
0
100
AcDbLine
 10
277.4950272341653
 20
-28.03353144116977
 30
0.0
 11
277.5392155903172
 21
-28.05122179041056
 31
0.0
  0
LINE
  5
5A
330
17
100
AcDbEntity
  8
0
100
AcDbLine
 10
277.5392155903172
 20
-28.05122179041056
 30
0.0
 11
277.5839429777289
 21
-28.0675012280849
 31
0.0
  0
LINE
  5
5B
330
17
100
AcDbEntity
  8
0
100
AcDbLine
 10
277.5839429777289
 20
-28.0675012280849
 30
0.0
 11
277.6291643597126
 21
-28.08235336217901
 31
0.0
  0
LINE
  5
5C
330
17
100
AcDbEntity
  8
0
100
AcDbLine
 10
277.6291643597126
 20
-28.08235336217901
 30
0.0
 11
277.67483420216996
 21
-28.09576323785281
 31
0.0
  0
LINE
  5
5D
330
17
100
AcDbEntity
  8
0
100
AcDbLine
 10
277.67483420216996
 20
-28.09576323785281
 30
0.0
 11
277.72090651944086
 21
-28.107717352498213
 31
0.0
  0
LINE
  5
5E
330
17
100
AcDbEntity
  8
0
100
AcDbLine
 10
277.72090651944086
 20
-28.107717352498213
 30
0.0
 11
277.7673349206072
 21
-28.118203669335067
 31
0.0
  0
LINE
  5
5F
330
17
100
AcDbEntity
  8
0
100
AcDbLine
 10
277.7673349206072
 20
-28.118203669335067
 30
0.0
 11
277.8140726562046
 21
-28.12721162953121
 31
0.0
  0
LINE
  5
60
330
17
100
AcDbEntity
  8
0
100
AcDbLine
 10
277.8140726562046
 20
-28.12721162953121
 30
0.0
 11
277.86107266529507
 21
-28.134732162834297
 31
0.0
  0
LINE
  5
61
330
17
100
AcDbEntity
  8
0
100
AcDbLine
 10
277.86107266529507
 20
-28.134732162834297
 30
0.0
 11
277.9082876228535
 21
-28.140757696704778
 31
0.0
  0
LINE
  5
62
330
17
100
AcDbEntity
  8
0
100
AcDbLine
 10
277.9082876228535
 20
-28.140757696704778
 30
0.0
 11
277.9556699874198
 21
-28.145282163940813
 31
0.0
  0
LINE
  5
63
330
17
100
AcDbEntity
  8
0
100
AcDbLine
 10
277.9556699874198
 20
-28.145282163940813
 30
0.0
 11
278.00317204896936
 21
-28.14830100878741
 31
0.0
  0
LINE
  5
64
330
17
100
AcDbEntity
  8
0
100
AcDbLine
 10
278.00317204896936
 20
-28.14830100878741
 30
0.0
 11
278.0507459769528
 21
-28.14981119152371
 31
0.0
  0
LINE
  5
65
330
17
100
AcDbEntity
  8
0
100
AcDbLine
 10
278.0507459769528
 20
-28.14981119152371
 30
0.0
 11
278.0983438684572
 21
-28.14981119152371
 31
0.0
  0
LINE
  5
66
330
17
100
AcDbEntity
  8
0
100
AcDbLine
 10
278.0983438684572
 20
-28.14981119152371
 30
0.0
 11
278.14591779644064
 21
-28.14830100878741
 31
0.0
  0
LINE
  5
67
330
17
100
AcDbEntity
  8
0
100
AcDbLine
 10
278.14591779644064
 20
-28.14830100878741
 30
0.0
 11
278.1934198579902
 21
-28.145282163940813
 31
0.0
  0
LINE
  5
68
330
17
100
AcDbEntity
  8
0
100
AcDbLine
 10
278.1934198579902
 20
-28.145282163940813
 30
0.0
 11
278.2408022225565
 21
-28.140757696704778
 31
0.0
  0
LINE
  5
69
330
17
100
AcDbEntity
  8
0
100
AcDbLine
 10
278.2408022225565
 20
-28.140757696704778
 30
0.0
 11
278.28801718011493
 21
-28.134732162834297
 31
0.0
  0
LINE
  5
6A
330
17
100
AcDbEntity
  8
0
100
AcDbLine
 10
278.28801718011493
 20
-28.134732162834297
 30
0.0
 11
278.3350171892054
 21
-28.12721162953121
 31
0.0
  0
LINE
  5
6B
330
17
100
AcDbEntity
  8
0
100
AcDbLine
 10
278.3350171892054
 20
-28.12721162953121
 30
0.0
 11
278.3817549248028
 21
-28.118203669335067
 31
0.0
  0
LINE
  5
6C
330
17
100
AcDbEntity
  8
0
100
AcDbLine
 10
278.3817549248028
 20
-28.118203669335067
 30
0.0
 11
278.42818332596914
 21
-28.10771735249821
 31
0.0
  0
LINE
  5
6D
330
17
100
AcDbEntity
  8
0
100
AcDbLine
 10
278.42818332596914
 20
-28.10771735249821
 30
0.0
 11
278.47425564324004
 21
-28.09576323785281
 31
0.0
  0
LINE
  5
6E
330
17
100
AcDbEntity
  8
0
100
AcDbLine
 10
278.47425564324004
 20
-28.09576323785281
 30
0.0
 11
278.5199254856974
 21
-28.08235336217901
 31
0.0
  0
LINE
  5
6F
330
17
100
AcDbEntity
  8
0
100
AcDbLine
 10
278.5199254856974
 20
-28.08235336217901
 30
0.0
 11
278.5651468676811
 21
-28.0675012280849
 31
0.0
  0
LINE
  5
70
330
17
100
AcDbEntity
  8
0
100
AcDbLine
 10
278.5651468676811
 20
-28.0675012280849
 30
0.0
 11
278.6098742550928
 21
-28.05122179041056
 31
0.0
  0
LINE
  5
71
330
17
100
AcDbEntity
  8
0
100
AcDbLine
 10
278.6098742550928
 20
-28.05122179041056
 30
0.0
 11
278.6540626112447
 21
-28.03353144116977
 31
0.0
  0
LINE
  5
72
330
17
100
AcDbEntity
  8
0
100
AcDbLine
 10
278.6540626112447
 20
-28.03353144116977
 30
0.0
 11
278.69766744220783
 21
-28.014447993044676
 31
0.0
  0
LINE
  5
73
330
17
100
AcDbEntity
  8
0
100
AcDbLine
 10
278.69766744220783
 20
-28.014447993044676
 30
0.0
 11
278.7406448416137
 21
-27.993990661449903
 31
0.0
  0
LINE
  5
74
330
17
100
AcDbEntity
  8
0
100
AcDbLine
 10
278.7406448416137
 20
-27.993990661449903
 30
0.0
 11
278.782951534864
 21
-27.97218004518427
 31
0.0
  0
LINE
  5
75
330
17
100
AcDbEntity
  8
0
100
AcDbLine
 10
278.782951534864
 20
-27.97218004518427
 30
0.0
 11
278.824544922705
 21
-27.949038105689556
 31
0.0
  0
LINE
  5
76
330
17
100
AcDbEntity
  8
0
100
AcDbLine
 10
278.824544922705
 20
-27.949038105689556
 30
0.0
 11
278.86538312412074
 21
-27.92458814493717
 31
0.0
  0
LINE
  5
77
330
17
100
AcDbEntity
  8
0
100
AcDbLine
 10
278.86538312412074
 20
-27.92458814493717
 30
0.0
 11
278.90542501850416
 21
-27.898854781965056
 31
0.0
  0
LINE
  5
78
330
17
100
AcDbEntity
  8
0
100
AcDbLine
 10
278.90542501850416
 20
-27.898854781965056
 30
0.0
 11
278.9446302870618
 21
-27.871863928088402
 31
0.0
  0
LINE
  5
79
330
17
100
AcDbEntity
  8
0
100
AcDbLine
 10
278.9446302870618
 20
-27.871863928088402
 30
0.0
 11
278.9829594534115
 21
-27.843642760809146
 31
0.0
  0
LINE
  5
7A
330
17
100
AcDbEntity
  8
0
100
AcDbLine
 10
278.9829594534115
 20
-27.843642760809146
 30
0.0
 11
279.02037392333176
 21
-27.814219696450536
 31
0.0
  0
LINE
  5
7B
330
17
100
AcDbEntity
  8
0
100
AcDbLine
 10
279.02037392333176
 20
-27.814219696450536
 30
0.0
 11
279.0568360236229
 21
-27.783624361544284
 31
0.0
  0
LINE
  5
7C
330
17
100
AcDbEntity
  8
0
100
AcDbLine
 10
279.0568360236229
 20
-27.783624361544284
 30
0.0
 11
279.0923090400407
 21
-27.7518875629992
 31
0.0
  0
LINE
  5
7D
330
17
100
AcDbEntity
  8
0
100
AcDbLine
 10
279.0923090400407
 20
-27.7518875629992
 30
0.0
 11
279.1267572542645
 21
-27.719041257081194
 31
0.0
  0
LINE
  5
7E
330
17
100
AcDbEntity
  8
0
100
AcDbLine
 10
279.1267572542645
 20
-27.719041257081194
 30
0.0
 11
279.1601459798626
 21
-27.685118517236067
 31
0.0
  0
LINE
  5
7F
330
17
100
AcDbEntity
  8
0
100
AcDbLine
 10
279.1601459798626
 20
-27.685118517236067
 30
0.0
 11
279.19244159721865
 21
-27.650153500787336
 31
0.0
  0
LINE
  5
80
330
17
100
AcDbEntity
  8
0
100
AcDbLine
 10
279.19244159721865
 20
-27.650153500787336
 30
0.0
 11
279.22361158738346
 21
-27.614181414542706
 31
0.0
  0
LINE
  5
81
330
17
100
AcDbEntity
  8
0
100
AcDbLine
 10
279.22361158738346
 20
-27.614181414542706
 30
0.0
 11
279.2536245648192
 21
-27.577238479343805
 31
0.0
  0
LINE
  5
82
330
17
100
AcDbEntity
  8
0
100
AcDbLine
 10
279.2536245648192
 20
-27.577238479343805
 30
0.0
 11
279.2824503090016
 21
-27.539361893594858
 31
0.0
  0
LINE
  5
83
330
17
100
AcDbEntity
  8
0
100
AcDbLine
 10
279.2824503090016
 20
-27.539361893594858
 30
0.0
 11
279.31005979484974
 21
-27.500589795807056
 31
0.0
  0
LINE
  5
84
330
17
100
AcDbEntity
  8
0
100
AcDbLine
 10
279.31005979484974
 20
-27.500589795807056
 30
0.0
 11
279.3364252219518
 21
-27.460961226196293
 31
0.0
  0
LINE
  5
85
330
17
100
AcDbEntity
  8
0
100
AcDbLine
 10
279.3364252219518
 20
-27.460961226196293
 30
0.0
 11
279.36152004255746
 21
-27.42051608737301
 31
0.0
  0
LINE
  5
86
330
17
100
AcDbEntity
  8
0
100
AcDbLine
 10
279.36152004255746
 20
-27.42051608737301
 30
0.0
 11
279.3853189883097
 21
-27.379295104163603
 31
0.0
  0
LINE
  5
87
330
17
100
AcDbEntity
  8
0
100
AcDbLine
 10
279.3853189883097
 20
-27.379295104163603
 30
0.0
 11
279.4077980956874
 21
-27.337339782604015
 31
0.0
  0
LINE
  5
88
330
17
100
AcDbEntity
  8
0
100
AcDbLine
 10
279.4077980956874
 20
-27.337339782604015
 30
0.0
 11
279.4289347301349
 21
-27.294692368146656
 31
0.0
  0
LINE
  5
89
330
17
100
AcDbEntity
  8
0
100
AcDbLine
 10
279.4289347301349
 20
-27.294692368146656
 30
0.0
 11
279.4487076088531
 21
-27.25139580312282
 31
0.0
  0
LINE
  5
8A
330
17
100
AcDbEntity
  8
0
100
AcDbLine
 10
279.4487076088531
 20
-27.25139580312282
 30
0.0
 11
279.4670968222291
 21
-27.20749368350339
 31
0.0
  0
LINE
  5
8B
330
17
100
AcDbEntity
  8
0
100
AcDbLine
 10
279.4670968222291
 20
-27.20749368350339
 30
0.0
 11
279.4840838538839
 21
-27.163030215001402
 31
0.0
  0
LINE
  5
8C
330
17
100
AcDbEntity
  8
0
100
AcDbLine
 10
279.4840838538839
 20
-27.163030215001402
 30
0.0
 11
279.4996515993164
 21
-27.11805016856063
 31
0.0
  0
LINE
  5
8D
330
17
100
AcDbEntity
  8
0
100
AcDbLine
 10
279.4996515993164
 20
-27.11805016856063
 30
0.0
 11
279.51378438312673
 21
-27.072598835275045
 31
0.0
  0
LINE
  5
8E
330
17
100
AcDbEntity
  8
0
100
AcDbLine
 10
279.51378438312673
 20
-27.072598835275045
 30
0.0
 11
279.5264679747995
 21
-27.02672198078452
 31
0.0
  0
LINE
  5
8F
330
17
100
AcDbEntity
  8
0
100
AcDbLine
 10
279.5264679747995
 20
-27.02672198078452
 30
0.0
 11
279.53768960303313
 21
-26.98046579919271
 31
0.0
  0
LINE
  5
90
330
17
100
AcDbEntity
  8
0
100
AcDbLine
 10
279.53768960303313
 20
-26.98046579919271
 30
0.0
 11
279.54743796859907
 21
-26.93387686655351
 31
0.0
  0
LINE
  5
91
330
17
100
AcDbEntity
  8
0
100
AcDbLine
 10
279.54743796859907
 20
-26.93387686655351
 30
0.0
 11
279.5557032557196
 21
-26.887002093972924
 31
0.0
  0
LINE
  5
92
330
17
100
AcDbEntity
  8
0
100
AcDbLine
 10
279.5557032557196
 20
-26.887002093972924
 30
0.0
 11
279.5624771419512
 21
-26.839888680373523
 31
0.0
  0
LINE
  5
93
330
17
100
AcDbEntity
  8
0
100
AcDbLine
 10
279.5624771419512
 20
-26.839888680373523
 30
0.0
 11
279.5677528065646
 21
-26.792584064969173
 31
0.0
  0
LINE
  5
94
330
17
100
AcDbEntity
  8
0
100
AcDbLine
 10
279.5677528065646
 20
-26.792584064969173
 30
0.0
 11
279.57152493741285
 21
-26.745135879497745
 31
0.0
  0
LINE
  5
95
330
17
100
AcDbEntity
  8
0
100
AcDbLine
 10
279.57152493741285
 20
-26.745135879497745
 30
0.0
 11
279.57378973627976
 21
-26.69759190026
 31
0.0
  0
LINE
  5
96
330
17
100
AcDbEntity
  8
0
100
AcDbLine
 10
279.57378973627976
 20
-26.69759190026
 30
0.0
 11
279.574544922705
 21
-26.6500000000129
 31
0.0
  0
LINE
  5
97
330
17
100
AcDbEntity
  8
0
100
AcDbLine
 10
279.574544922705
 20
-26.6500000000129
 30
0.0
 11
279.57378973627976
 21
-26.602408099765796
 31
0.0
  0
LINE
  5
98
330
17
100
AcDbEntity
  8
0
100
AcDbLine
 10
279.57378973627976
 20
-26.602408099765796
 30
0.0
 11
279.57152493741285
 21
-26.554864120528052
 31
0.0
  0
LINE
  5
99
330
17
100
AcDbEntity
  8
0
100
AcDbLine
 10
279.57152493741285
 20
-26.554864120528052
 30
0.0
 11
279.5677528065646
 21
-26.507415935056624
 31
0.0
  0
LINE
  5
9A
330
17
100
AcDbEntity
  8
0
100
AcDbLine
 10
279.5677528065646
 20
-26.507415935056624
 30
0.0
 11
279.5624771419512
 21
-26.460111319652274
 31
0.0
  0
LINE
  5
9B
330
17
100
AcDbEntity
  8
0
100
AcDbLine
 10
279.5624771419512
 20
-26.460111319652274
 30
0.0
 11
279.5557032557196
 21
-26.412997906052873
 31
0.0
  0
LINE
  5
9C
330
17
100
AcDbEntity
  8
0
100
AcDbLine
 10
279.5557032557196
 20
-26.412997906052873
 30
0.0
 11
279.54743796859907
 21
-26.366123133472282
 31
0.0
  0
LINE
  5
9D
330
17
100
AcDbEntity
  8
0
100
AcDbLine
 10
279.54743796859907
 20
-26.366123133472282
 30
0.0
 11
279.53768960303313
 21
-26.319534200833086
 31
0.0
  0
LINE
  5
9E
330
17
100
AcDbEntity
  8
0
100
AcDbLine
 10
279.53768960303313
 20
-26.319534200833086
 30
0.0
 11
279.5264679747995
 21
-26.27327801924128
 31
0.0
  0
LINE
  5
9F
330
17
100
AcDbEntity
  8
0
100
AcDbLine
 10
279.5264679747995
 20
-26.27327801924128
 30
0.0
 11
279.51378438312673
 21
-26.227401164750756
 31
0.0
  0
LINE
  5
A0
330
17
100
AcDbEntity
  8
0
100
AcDbLine
 10
279.51378438312673
 20
-26.227401164750756
 30
0.0
 11
279.4996515993164
 21
-26.181949831465168
 31
0.0
  0
LINE
  5
A1
330
17
100
AcDbEntity
  8
0
100
AcDbLine
 10
279.4996515993164
 20
-26.181949831465168
 30
0.0
 11
279.4840838538839
 21
-26.136969785024394
 31
0.0
  0
LINE
  5
A2
330
17
100
AcDbEntity
  8
0
100
AcDbLine
 10
279.4840838538839
 20
-26.136969785024394
 30
0.0
 11
279.4670968222291
 21
-26.092506316522407
 31
0.0
  0
LINE
  5
A3
330
17
100
AcDbEntity
  8
0
100
AcDbLine
 10
279.4670968222291
 20
-26.092506316522407
 30
0.0
 11
279.4487076088531
 21
-26.04860419690298
 31
0.0
  0
LINE
  5
A4
330
17
100
AcDbEntity
  8
0
100
AcDbLine
 10
279.4487076088531
 20
-26.04860419690298
 30
0.0
 11
279.4289347301349
 21
-26.00530763187914
 31
0.0
  0
LINE
  5
A5
330
17
100
AcDbEntity
  8
0
100
AcDbLine
 10
279.4289347301349
 20
-26.00530763187914
 30
0.0
 11
279.4077980956874
 21
-25.96266021742178
 31
0.0
  0
LINE
  5
A6
330
17
100
AcDbEntity
  8
0
100
AcDbLine
 10
279.4077980956874
 20
-25.96266021742178
 30
0.0
 11
279.3853189883097
 21
-25.920704895862194
 31
0.0
  0
LINE
  5
A7
330
17
100
AcDbEntity
  8
0
100
AcDbLine
 10
279.3853189883097
 20
-25.920704895862194
 30
0.0
 11
279.36152004255746
 21
-25.879483912652788
 31
0.0
  0
LINE
  5
A8
330
17
100
AcDbEntity
  8
0
100
AcDbLine
 10
279.36152004255746
 20
-25.879483912652788
 30
0.0
 11
279.3364252219518
 21
-25.8390387738295
 31
0.0
  0
LINE
  5
A9
330
17
100
AcDbEntity
  8
0
100
AcDbLine
 10
279.3364252219518
 20
-25.8390387738295
 30
0.0
 11
279.31005979484974
 21
-25.79941020421874
 31
0.0
  0
LINE
  5
AA
330
17
100
AcDbEntity
  8
0
100
AcDbLine
 10
279.31005979484974
 20
-25.79941020421874
 30
0.0
 11
279.2824503090016
 21
-25.76063810643094
 31
0.0
  0
LINE
  5
AB
330
17
100
AcDbEntity
  8
0
100
AcDbLine
 10
279.2824503090016
 20
-25.76063810643094
 30
0.0
 11
279.2536245648192
 21
-25.722761520681992
 31
0.0
  0
LINE
  5
AC
330
17
100
AcDbEntity
  8
0
100
AcDbLine
 10
279.2536245648192
 20
-25.722761520681992
 30
0.0
 11
279.22361158738346
 21
-25.68581858548309
 31
0.0
  0
LINE
  5
AD
330
17
100
AcDbEntity
  8
0
100
AcDbLine
 10
279.22361158738346
 20
-25.68581858548309
 30
0.0
 11
279.19244159721865
 21
-25.64984649923846
 31
0.0
  0
LINE
  5
AE
330
17
100
AcDbEntity
  8
0
100
AcDbLine
 10
279.19244159721865
 20
-25.64984649923846
 30
0.0
 11
279.1601459798626
 21
-25.61488148278973
 31
0.0
  0
LINE
  5
AF
330
17
100
AcDbEntity
  8
0
100
AcDbLine
 10
279.1601459798626
 20
-25.61488148278973
 30
0.0
 11
279.1267572542645
 21
-25.580958742944603
 31
0.0
  0
LINE
  5
B0
330
17
100
AcDbEntity
  8
0
100
AcDbLine
 10
279.1267572542645
 20
-25.580958742944603
 30
0.0
 11
279.0923090400407
 21
-25.5481124370266
 31
0.0
  0
LINE
  5
B1
330
17
100
AcDbEntity
  8
0
100
AcDbLine
 10
279.0923090400407
 20
-25.5481124370266
 30
0.0
 11
279.0568360236229
 21
-25.516375638481513
 31
0.0
  0
LINE
  5
B2
330
17
100
AcDbEntity
  8
0
100
AcDbLine
 10
279.0568360236229
 20
-25.516375638481513
 30
0.0
 11
279.02037392333176
 21
-25.485780303575265
 31
0.0
  0
LINE
  5
B3
330
17
100
AcDbEntity
  8
0
100
AcDbLine
 10
279.02037392333176
 20
-25.485780303575265
 30
0.0
 11
278.9829594534115
 21
-25.45635723921665
 31
0.0
  0
LINE
  5
B4
330
17
100
AcDbEntity
  8
0
100
AcDbLine
 10
278.9829594534115
 20
-25.45635723921665
 30
0.0
 11
278.9446302870618
 21
-25.428136071937395
 31
0.0
  0
LINE
  5
B5
330
17
100
AcDbEntity
  8
0
100
AcDbLine
 10
278.9446302870618
 20
-25.428136071937395
 30
0.0
 11
278.90542501850416
 21
-25.40114521806074
 31
0.0
  0
LINE
  5
B6
330
17
100
AcDbEntity
  8
0
100
AcDbLine
 10
278.90542501850416
 20
-25.40114521806074
 30
0.0
 11
278.86538312412074
 21
-25.375411855088625
 31
0.0
  0
LINE
  5
B7
330
17
100
AcDbEntity
  8
0
100
AcDbLine
 10
278.86538312412074
 20
-25.375411855088625
 30
0.0
 11
278.824544922705
 21
-25.35096189433624
 31
0.0
  0
LINE
  5
B8
330
17
100
AcDbEntity
  8
0
100
AcDbLine
 10
278.824544922705
 20
-25.35096189433624
 30
0.0
 11
278.782951534864
 21
-25.327819954841527
 31
0.0
  0
LINE
  5
B9
330
17
100
AcDbEntity
  8
0
100
AcDbLine
 10
278.782951534864
 20
-25.327819954841527
 30
0.0
 11
278.7406448416137
 21
-25.306009338575894
 31
0.0
  0
LINE
  5
BA
330
17
100
AcDbEntity
  8
0
100
AcDbLine
 10
278.7406448416137
 20
-25.306009338575894
 30
0.0
 11
278.69766744220783
 21
-25.28555200698112
 31
0.0
  0
LINE
  5
BB
330
17
100
AcDbEntity
  8
0
100
AcDbLine
 10
278.69766744220783
 20
-25.28555200698112
 30
0.0
 11
278.6540626112447
 21
-25.266468558856026
 31
0.0
  0
LINE
  5
BC
330
17
100
AcDbEntity
  8
0
100
AcDbLine
 10
278.6540626112447
 20
-25.266468558856026
 30
0.0
 11
278.6098742550928
 21
-25.24877820961524
 31
0.0
  0
LINE
  5
BD
330
17
100
AcDbEntity
  8
0
100
AcDbLine
 10
278.6098742550928
 20
-25.24877820961524
 30
0.0
 11
278.5651468676811
 21
-25.232498771940897
 31
0.0
  0
LINE
  5
BE
330
17
100
AcDbEntity
  8
0
100
AcDbLine
 10
278.5651468676811
 20
-25.232498771940897
 30
0.0
 11
278.5199254856974
 21
-25.217646637846787
 31
0.0
  0
LINE
  5
BF
330
17
100
AcDbEntity
  8
0
100
AcDbLine
 10
278.5199254856974
 20
-25.217646637846787
 30
0.0
 11
278.47425564324004
 21
-25.204236762172986
 31
0.0
  0
LINE
  5
C0
330
17
100
AcDbEntity
  8
0
100
AcDbLine
 10
278.47425564324004
 20
-25.204236762172986
 30
0.0
 11
278.42818332596914
 21
-25.192282647527588
 31
0.0
  0
LINE
  5
C1
330
17
100
AcDbEntity
  8
0
100
AcDbLine
 10
278.42818332596914
 20
-25.192282647527588
 30
0.0
 11
278.3817549248028
 21
-25.18179633069073
 31
0.0
  0
LINE
  5
C2
330
17
100
AcDbEntity
  8
0
100
AcDbLine
 10
278.3817549248028
 20
-25.18179633069073
 30
0.0
 11
278.3350171892054
 21
-25.172788370494587
 31
0.0
  0
LINE
  5
C3
330
17
100
AcDbEntity
  8
0
100
AcDbLine
 10
278.3350171892054
 20
-25.172788370494587
 30
0.0
 11
278.28801718011493
 21
-25.1652678371915
 31
0.0
  0
LINE
  5
C4
330
17
100
AcDbEntity
  8
0
100
AcDbLine
 10
278.28801718011493
 20
-25.1652678371915
 30
0.0
 11
278.2408022225565
 21
-25.15924230332102
 31
0.0
  0
LINE
  5
C5
330
17
100
AcDbEntity
  8
0
100
AcDbLine
 10
278.2408022225565
 20
-25.15924230332102
 30
0.0
 11
278.1934198579902
 21
-25.154717836084984
 31
0.0
  0
LINE
  5
C6
330
17
100
AcDbEntity
  8
0
100
AcDbLine
 10
278.1934198579902
 20
-25.154717836084984
 30
0.0
 11
278.14591779644064
 21
-25.151698991238387
 31
0.0
  0
LINE
  5
C7
330
17
100
AcDbEntity
  8
0
100
AcDbLine
 10
278.14591779644064
 20
-25.151698991238387
 30
0.0
 11
278.0983438684572
 21
-25.150188808502087
 31
0.0
  0
LINE
  5
C8
330
17
100
AcDbEntity
  8
0
100
AcDbLine
 10
278.0983438684572
 20
-25.150188808502087
 30
0.0
 11
278.0507459769528
 21
-25.150188808502087
 31
0.0
  0
LINE
  5
C9
330
17
100
AcDbEntity
  8
0
100
AcDbLine
 10
278.0507459769528
 20
-25.150188808502087
 30
0.0
 11
278.00317204896936
 21
-25.151698991238387
 31
0.0
  0
LINE
  5
CA
330
17
100
AcDbEntity
  8
0
100
AcDbLine
 10
278.00317204896936
 20
-25.151698991238387
 30
0.0
 11
277.9556699874198
 21
-25.154717836084984
 31
0.0
  0
LINE
  5
CB
330
17
100
AcDbEntity
  8
0
100
AcDbLine
 10
277.9556699874198
 20
-25.154717836084984
 30
0.0
 11
277.9082876228535
 21
-25.15924230332102
 31
0.0
  0
LINE
  5
CC
330
17
100
AcDbEntity
  8
0
100
AcDbLine
 10
277.9082876228535
 20
-25.15924230332102
 30
0.0
 11
277.86107266529507
 21
-25.1652678371915
 31
0.0
  0
LINE
  5
CD
330
17
100
AcDbEntity
  8
0
100
AcDbLine
 10
277.86107266529507
 20
-25.1652678371915
 30
0.0
 11
277.8140726562046
 21
-25.172788370494587
 31
0.0
  0
LINE
  5
CE
330
17
100
AcDbEntity
  8
0
100
AcDbLine
 10
277.8140726562046
 20
-25.172788370494587
 30
0.0
 11
277.7673349206072
 21
-25.18179633069073
 31
0.0
  0
LINE
  5
CF
330
17
100
AcDbEntity
  8
0
100
AcDbLine
 10
277.7673349206072
 20
-25.18179633069073
 30
0.0
 11
277.72090651944086
 21
-25.192282647527588
 31
0.0
  0
LINE
  5
D0
330
17
100
AcDbEntity
  8
0
100
AcDbLine
 10
277.72090651944086
 20
-25.192282647527588
 30
0.0
 11
277.67483420216996
 21
-25.204236762172986
 31
0.0
  0
LINE
  5
D1
330
17
100
AcDbEntity
  8
0
100
AcDbLine
 10
277.67483420216996
 20
-25.204236762172986
 30
0.0
 11
277.6291643597126
 21
-25.217646637846787
 31
0.0
  0
LINE
  5
D2
330
17
100
AcDbEntity
  8
0
100
AcDbLine
 10
277.6291643597126
 20
-25.217646637846787
 30
0.0
 11
277.5839429777289
 21
-25.232498771940897
 31
0.0
  0
LINE
  5
D3
330
17
100
AcDbEntity
  8
0
100
AcDbLine
 10
277.5839429777289
 20
-25.232498771940897
 30
0.0
 11
277.5392155903172
 21
-25.24877820961524
 31
0.0
  0
LINE
  5
D4
330
17
100
AcDbEntity
  8
0
100
AcDbLine
 10
277.5392155903172
 20
-25.24877820961524
 30
0.0
 11
277.4950272341653
 21
-25.266468558856026
 31
0.0
  0
LINE
  5
D5
330
17
100
AcDbEntity
  8
0
100
AcDbLine
 10
277.4950272341653
 20
-25.266468558856026
 30
0.0
 11
277.4514224032022
 21
-25.28555200698112
 31
0.0
  0
LINE
  5
D6
330
17
100
AcDbEntity
  8
0
100
AcDbLine
 10
277.4514224032022
 20
-25.28555200698112
 30
0.0
 11
277.4084450037963
 21
-25.306009338575894
 31
0.0
  0
LINE
  5
D7
330
17
100
AcDbEntity
  8
0
100
AcDbLine
 10
277.4084450037963
 20
-25.306009338575894
 30
0.0
 11
277.366138310546
 21
-25.327819954841527
 31
0.0
  0
LINE
  5
D8
330
17
100
AcDbEntity
  8
0
100
AcDbLine
 10
277.366138310546
 20
-25.327819954841527
 30
0.0
 11
277.324544922705
 21
-25.35096189433624
 31
0.0
  0
LINE
  5
D9
330
17
100
AcDbEntity
  8
0
100
AcDbLine
 10
277.324544922705
 20
-25.35096189433624
 30
0.0
 11
277.28370672128926
 21
-25.375411855088625
 31
0.0
  0
LINE
  5
DA
330
17
100
AcDbEntity
  8
0
100
AcDbLine
 10
277.28370672128926
 20
-25.375411855088625
 30
0.0
 11
277.24366482690584
 21
-25.40114521806074
 31
0.0
  0
LINE
  5
DB
330
17
100
AcDbEntity
  8
0
100
AcDbLine
 10
277.24366482690584
 20
-25.40114521806074
 30
0.0
 11
277.2044595583482
 21
-25.428136071937395
 31
0.0
  0
LINE
  5
DC
330
17
100
AcDbEntity
  8
0
100
AcDbLine
 10
277.2044595583482
 20
-25.428136071937395
 30
0.0
 11
277.1661303919985
 21
-25.45635723921665
 31
0.0
  0
LINE
  5
DD
330
17
100
AcDbEntity
  8
0
100
AcDbLine
 10
277.1661303919985
 20
-25.45635723921665
 30
0.0
 11
277.12871592207824
 21
-25.48578030357526
 31
0.0
  0
LINE
  5
DE
330
17
100
AcDbEntity
  8
0
100
AcDbLine
 10
277.12871592207824
 20
-25.48578030357526
 30
0.0
 11
277.0922538217871
 21
-25.51637563848151
 31
0.0
  0
LINE
  5
DF
330
17
100
AcDbEntity
  8
0
100
AcDbLine
 10
277.0922538217871
 20
-25.51637563848151
 30
0.0
 11
277.0567808053693
 21
-25.5481124370266
 31
0.0
  0
LINE
  5
E0
330
17
100
AcDbEntity
  8
0
100
AcDbLine
 10
277.0567808053693
 20
-25.5481124370266
 30
0.0
 11
277.0223325911455
 21
-25.580958742944603
 31
0.0
  0
LINE
  5
E1
330
17
100
AcDbEntity
  8
0
100
AcDbLine
 10
277.0223325911455
 20
-25.580958742944603
 30
0.0
 11
276.9889438655474
 21
-25.61488148278973
 31
0.0
  0
LINE
  5
E2
330
17
100
AcDbEntity
  8
0
100
AcDbLine
 10
276.9889438655474
 20
-25.61488148278973
 30
0.0
 11
276.95664824819136
 21
-25.64984649923846
 31
0.0
  0
LINE
  5
E3
330
17
100
AcDbEntity
  8
0
100
AcDbLine
 10
276.95664824819136
 20
-25.64984649923846
 30
0.0
 11
276.92547825802654
 21
-25.68581858548309
 31
0.0
  0
LINE
  5
E4
330
17
100
AcDbEntity
  8
0
100
AcDbLine
 10
276.92547825802654
 20
-25.68581858548309
 30
0.0
 11
276.8954652805908
 21
-25.722761520681992
 31
0.0
  0
LINE
  5
E5
330
17
100
AcDbEntity
  8
0
100
AcDbLine
 10
276.8954652805908
 20
-25.722761520681992
 30
0.0
 11
276.8666395364084
 21
-25.76063810643094
 31
0.0
  0
LINE
  5
E6
330
17
100
AcDbEntity
  8
0
100
AcDbLine
 10
276.8666395364084
 20
-25.76063810643094
 30
0.0
 11
276.83903005056027
 21
-25.79941020421874
 31
0.0
  0
LINE
  5
E7
330
17
100
AcDbEntity
  8
0
100
AcDbLine
 10
276.83903005056027
 20
-25.79941020421874
 30
0.0
 11
276.8126646234582
 21
-25.839038773829504
 31
0.0
  0
LINE
  5
E8
330
17
100
AcDbEntity
  8
0
100
AcDbLine
 10
276.8126646234582
 20
-25.839038773829504
 30
0.0
 11
276.78756980285254
 21
-25.879483912652788
 31
0.0
  0
LINE
  5
E9
330
17
100
AcDbEntity
  8
0
100
AcDbLine
 10
276.78756980285254
 20
-25.879483912652788
 30
0.0
 11
276.7637708571003
 21
-25.920704895862194
 31
0.0
  0
LINE
  5
EA
330
17
100
AcDbEntity
  8
0
100
AcDbLine
 10
276.7637708571003
 20
-25.920704895862194
 30
0.0
 11
276.7412917497226
 21
-25.96266021742178
 31
0.0
  0
LINE
  5
EB
330
17
100
AcDbEntity
  8
0
100
AcDbLine
 10
276.7412917497226
 20
-25.96266021742178
 30
0.0
 11
276.7201551152751
 21
-26.00530763187914
 31
0.0
  0
LINE
  5
EC
330
17
100
AcDbEntity
  8
0
100
AcDbLine
 10
276.7201551152751
 20
-26.00530763187914
 30
0.0
 11
276.7003822365569
 21
-26.04860419690298
 31
0.0
  0
LINE
  5
ED
330
17
100
AcDbEntity
  8
0
100
AcDbLine
 10
276.7003822365569
 20
-26.04860419690298
 30
0.0
 11
276.6819930231809
 21
-26.092506316522407
 31
0.0
  0
LINE
  5
EE
330
17
100
AcDbEntity
  8
0
100
AcDbLine
 10
276.6819930231809
 20
-26.092506316522407
 30
0.0
 11
276.66500599152613
 21
-26.136969785024394
 31
0.0
  0
LINE
  5
EF
330
17
100
AcDbEntity
  8
0
100
AcDbLine
 10
276.66500599152613
 20
-26.136969785024394
 30
0.0
 11
276.6494382460936
 21
-26.181949831465168
 31
0.0
  0
LINE
  5
F0
330
17
100
AcDbEntity
  8
0
100
AcDbLine
 10
276.6494382460936
 20
-26.181949831465168
 30
0.0
 11
276.63530546228327
 21
-26.227401164750752
 31
0.0
  0
LINE
  5
F1
330
17
100
AcDbEntity
  8
0
100
AcDbLine
 10
276.63530546228327
 20
-26.227401164750752
 30
0.0
 11
276.6226218706105
 21
-26.27327801924128
 31
0.0
  0
LINE
  5
F2
330
17
100
AcDbEntity
  8
0
100
AcDbLine
 10
276.6226218706105
 20
-26.27327801924128
 30
0.0
 11
276.6114002423769
 21
-26.319534200833086
 31
0.0
  0
LINE
  5
F3
330
17
100
AcDbEntity
  8
0
100
AcDbLine
 10
276.6114002423769
 20
-26.319534200833086
 30
0.0
 11
276.60165187681093
 21
-26.366123133472282
 31
0.0
  0
LINE
  5
F4
330
17
100
AcDbEntity
  8
0
100
AcDbLine
 10
276.60165187681093
 20
-26.366123133472282
 30
0.0
 11
276.5933865896904
 21
-26.412997906052873
 31
0.0
  0
LINE
  5
F5
330
17
100
AcDbEntity
  8
0
100
AcDbLine
 10
276.5933865896904
 20
-26.412997906052873
 30
0.0
 11
276.5866127034588
 21
-26.460111319652274
 31
0.0
  0
LINE
  5
F6
330
17
100
AcDbEntity
  8
0
100
AcDbLine
 10
276.5866127034588
 20
-26.460111319652274
 30
0.0
 11
276.5813370388454
 21
-26.507415935056624
 31
0.0
  0
LINE
  5
F7
330
17
100
AcDbEntity
  8
0
100
AcDbLine
 10
276.5813370388454
 20
-26.507415935056624
 30
0.0
 11
276.57756490799716
 21
-26.554864120528052
 31
0.0
  0
LINE
  5
F8
330
17
100
AcDbEntity
  8
0
100
AcDbLine
 10
276.57756490799716
 20
-26.554864120528052
 30
0.0
 11
276.57530010913024
 21
-26.602408099765796
 31
0.0
  0
LINE
  5
F9
330
17
100
AcDbEntity
  8
0
100
AcDbLine
 10
276.57530010913024
 20
-26.602408099765796
 30
0.0
 11
276.574544922705
 21
-26.6500000000129
 31
0.0
  0
ENDSEC
  0
SECTION
  2
OBJECTS
  0
DICTIONARY
  5
A
330
0
100
AcDbDictionary
280
0
281
1
  3
ACAD_COLOR
350
B
  3
ACAD_GROUP
350
C
  3
ACAD_LAYOUT
350
D
  3
ACAD_MATERIAL
350
E
  3
ACAD_MLEADERSTYLE
350
F
  3
ACAD_MLINESTYLE
350
10
  3
ACAD_PLOTSETTINGS
350
11
  3
ACAD_PLOTSTYLENAME
350
12
  3
ACAD_SCALELIST
350
14
  3
ACAD_TABLESTYLE
350
15
  3
ACAD_VISUALSTYLE
350
16
  3
EZDXF_META
350
2D
  0
DICTIONARY
  5
B
330
A
100
AcDbDictionary
280
0
281
1
  0
DICTIONARY
  5
C
330
A
100
AcDbDictionary
280
0
281
1
  0
DICTIONARY
  5
D
330
A
100
AcDbDictionary
280
0
281
1
  3
Model
350
1A
  3
Layout1
350
1E
  0
DICTIONARY
  5
E
330
A
100
AcDbDictionary
280
0
281
1
  3
ByBlock
350
1F
  3
ByLayer
350
20
  3
Global
350
21
  0
DICTIONARY
  5
F
330
A
100
AcDbDictionary
280
0
281
1
  3
Standard
350
2C
  0
DICTIONARY
  5
10
330
A
100
AcDbDictionary
280
0
281
1
  3
Standard
350
22
  0
DICTIONARY
  5
11
330
A
100
AcDbDictionary
280
0
281
1
  0
ACDBDICTIONARYWDFLT
  5
12
330
A
100
AcDbDictionary
280
0
281
1
  3
Normal
350
13
100
AcDbDictionaryWithDefault
340
13
  0
ACDBPLACEHOLDER
  5
13
330
12
  0
DICTIONARY
  5
14
330
A
100
AcDbDictionary
280
0
281
1
  0
DICTIONARY
  5
15
330
A
100
AcDbDictionary
280
0
281
1
  0
DICTIONARY
  5
16
330
A
100
AcDbDictionary
280
0
281
1
  0
LAYOUT
  5
1A
330
D
100
AcDbPlotSettings
  1

  2
Adobe PDF
  4
A3
  6

 40
7.5
 41
20.0
 42
7.5
 43
20.0
 44
420.0
 45
297.0
 46
0.0
 47
0.0
 48
0.0
 49
0.0
140
0.0
141
0.0
142
1.0
143
1.0
 70
1024
 72
1
 73
0
 74
5
  7

 75
16
 76
0
 77
2
 78
300
147
1.0
148
0.0
149
0.0
100
AcDbLayout
  1
Model
 70
1
 71
0
 10
0.0
 20
0.0
 11
420.0
 21
297.0
 12
0.0
 22
0.0
 32
0.0
 14
1e+20
 24
1e+20
 34
1e+20
 15
-1e+20
 25
-1e+20
 35
-1e+20
146
0.0
 13
0.0
 23
0.0
 33
0.0
 16
1.0
 26
0.0
 36
0.0
 17
0.0
 27
1.0
 37
0.0
 76
1
330
17
  0
LAYOUT
  5
1E
330
D
100
AcDbPlotSettings
  1

  2
Adobe PDF
  4
A3
  6

 40
7.5
 41
20.0
 42
7.5
 43
20.0
 44
420.0
 45
297.0
 46
0.0
 47
0.0
 48
0.0
 49
0.0
140
0.0
141
0.0
142
1.0
143
1.0
 70
0
 72
1
 73
0
 74
5
  7

 75
16
 76
0
 77
2
 78
300
147
1.0
148
0.0
149
0.0
100
AcDbLayout
  1
Layout1
 70
1
 71
1
 10
0.0
 20
0.0
 11
420.0
 21
297.0
 12
0.0
 22
0.0
 32
0.0
 14
1e+20
 24
1e+20
 34
1e+20
 15
-1e+20
 25
-1e+20
 35
-1e+20
146
0.0
 13
0.0
 23
0.0
 33
0.0
 16
1.0
 26
0.0
 36
0.0
 17
0.0
 27
1.0
 37
0.0
 76
1
330
1B
  0
MATERIAL
  5
1F
102
{ACAD_REACTORS
330
E
102
}
330
E
100
AcDbMaterial
  1
ByBlock
  2

 70
0
 40
1.0
 71
1
 41
1.0
 91
-1023410177
 42
1.0
 72
1
  3

 73
1
 74
1
 75
1
 44
0.5
 73
0
 45
1.0
 46
1.0
 77
1
  4

 78
1
 79
1
170
1
 48
1.0
171
1
  6

172
1
173
1
174
1
140
1.0
141
1.0
175
1
  7

176
1
177
1
178
1
143
1.0
179
1
  8

270
1
271
1
272
1
145
1.0
146
1.0
273
1
  9

274
1
275
1
276
1
 42
1.0
 72
1
  3

 73
1
 74
1
 75
1
 94
63
  0
MATERIAL
  5
20
102
{ACAD_REACTORS
330
E
102
}
330
E
100
AcDbMaterial
  1
ByLayer
  2

 70
0
 40
1.0
 71
1
 41
1.0
 91
-1023410177
 42
1.0
 72
1
  3

 73
1
 74
1
 75
1
 44
0.5
 73
0
 45
1.0
 46
1.0
 77
1
  4

 78
1
 79
1
170
1
 48
1.0
171
1
  6

172
1
173
1
174
1
140
1.0
141
1.0
175
1
  7

176
1
177
1
178
1
143
1.0
179
1
  8

270
1
271
1
272
1
145
1.0
146
1.0
273
1
  9

274
1
275
1
276
1
 42
1.0
 72
1
  3

 73
1
 74
1
 75
1
 94
63
  0
MATERIAL
  5
21
102
{ACAD_REACTORS
330
E
102
}
330
E
100
AcDbMaterial
  1
Global
  2

 70
0
 40
1.0
 71
1
 41
1.0
 91
-1023410177
 42
1.0
 72
1
  3

 73
1
 74
1
 75
1
 44
0.5
 73
0
 45
1.0
 46
1.0
 77
1
  4

 78
1
 79
1
170
1
 48
1.0
171
1
  6

172
1
173
1
174
1
140
1.0
141
1.0
175
1
  7

176
1
177
1
178
1
143
1.0
179
1
  8

270
1
271
1
272
1
145
1.0
146
1.0
273
1
  9

274
1
275
1
276
1
 42
1.0
 72
1
  3

 73
1
 74
1
 75
1
 94
63
  0
MLINESTYLE
  5
22
102
{ACAD_REACTORS
330
10
102
}
330
10
100
AcDbMlineStyle
  2
Standard
 70
0
  3

 62
256
 51
90.0
 52
90.0
 71
2
 49
0.5
 62
256
  6
BYLAYER
 49
-0.5
 62
256
  6
BYLAYER
  0
MLEADERSTYLE
  5
2C
102
{ACAD_REACTORS
330
F
102
}
330
F
100
AcDbMLeaderStyle
179
2
170
2
171
1
172
0
 90
2
 40
0.0
 41
0.0
173
1
 91
-1056964608
 92
-2
290
1
 42
2.0
291
1
 43
8.0
  3
Standard
 44
4.0
300

342
29
174
1
175
1
176
0
178
1
 93
-1056964608
 45
4.0
292
0
297
0
 46
4.0
 94
-1056964608
 47
1.0
 49
1.0
140
1.0
294
1
141
0.0
177
0
142
1.0
295
0
296
0
143
3.75
271
0
272
9
273
9
  0
DICTIONARY
  5
2D
330
A
100
AcDbDictionary
281
1
  3
CREATED_BY_EZDXF
350
2E
  3
WRITTEN_BY_EZDXF
350
FC
  0
DICTIONARYVAR
  5
2E
330
2D
100
DictionaryVariables
280
0
  1
1.0.2 @ 2023-11-27T08:45:34.123446+00:00
  0
DICTIONARYVAR
  5
FC
330
2D
100
DictionaryVariables
280
0
  1
1.0.2 @ 2023-11-27T08:45:34.129839+00:00
  0
ENDSEC
  0
EOF
