  0
SECTION
  2
HEADER
  9
$ACADVER
  1
AC1027
  9
$ACADMAINTVER
 70
105
  9
$DWGCODEPAGE
  3
ANSI_1252
  9
$LASTSAVEDBY
  1
ezdxf
  9
$REQUIREDVERSIONS
160
0
  9
$INSBASE
 10
0.0
 20
0.0
 30
0.0
  9
$EXTMIN
 10
1e+20
 20
1e+20
 30
1e+20
  9
$EXTMAX
 10
-1e+20
 20
-1e+20
 30
-1e+20
  9
$LIMMIN
 10
0.0
 20
0.0
  9
$LIMMAX
 10
420.0
 20
297.0
  9
$ORTHOMODE
 70
0
  9
$REGENMODE
 70
1
  9
$FILLMODE
 70
1
  9
$QTEXTMODE
 70
0
  9
$MIRRTEXT
 70
1
  9
$LTSCALE
 40
1.0
  9
$ATTMODE
 70
1
  9
$TEXTSIZE
 40
2.5
  9
$TRACEWID
 40
1.0
  9
$TEXTSTYLE
  7
Standard
  9
$CLAYER
  8
0
  9
$CELTYPE
  6
ByLayer
  9
$CECOLOR
 62
256
  9
$CELTSCALE
 40
1.0
  9
$DISPSILH
 70
0
  9
$DIMSCALE
 40
1.0
  9
$DIMASZ
 40
2.5
  9
$DIMEXO
 40
0.625
  9
$DIMDLI
 40
3.75
  9
$DIMRND
 40
0.0
  9
$DIMDLE
 40
0.0
  9
$DIMEXE
 40
1.25
  9
$DIMTP
 40
0.0
  9
$DIMTM
 40
0.0
  9
$DIMTXT
 40
2.5
  9
$DIMCEN
 40
2.5
  9
$DIMTSZ
 40
0.0
  9
$DIMTOL
 70
0
  9
$DIMLIM
 70
0
  9
$DIMTIH
 70
0
  9
$DIMTOH
 70
0
  9
$DIMSE1
 70
0
  9
$DIMSE2
 70
0
  9
$DIMTAD
 70
1
  9
$DIMZIN
 70
8
  9
$DIMBLK
  1

  9
$DIMASO
 70
1
  9
$DIMSHO
 70
1
  9
$DIMPOST
  1

  9
$DIMAPOST
  1

  9
$DIMALT
 70
0
  9
$DIMALTD
 70
3
  9
$DIMALTF
 40
0.03937007874
  9
$DIMLFAC
 40
1.0
  9
$DIMTOFL
 70
1
  9
$DIMTVP
 40
0.0
  9
$DIMTIX
 70
0
  9
$DIMSOXD
 70
0
  9
$DIMSAH
 70
0
  9
$DIMBLK1
  1

  9
$DIMBLK2
  1

  9
$DIMSTYLE
  2
ISO-25
  9
$DIMCLRD
 70
0
  9
$DIMCLRE
 70
0
  9
$DIMCLRT
 70
0
  9
$DIMTFAC
 40
1.0
  9
$DIMGAP
 40
0.625
  9
$DIMJUST
 70
0
  9
$DIMSD1
 70
0
  9
$DIMSD2
 70
0
  9
$DIMTOLJ
 70
0
  9
$DIMTZIN
 70
8
  9
$DIMALTZ
 70
0
  9
$DIMALTTZ
 70
0
  9
$DIMUPT
 70
0
  9
$DIMDEC
 70
2
  9
$DIMTDEC
 70
2
  9
$DIMALTU
 70
2
  9
$DIMALTTD
 70
3
  9
$DIMTXSTY
  7
Standard
  9
$DIMAUNIT
 70
0
  9
$DIMADEC
 70
0
  9
$DIMALTRND
 40
0.0
  9
$DIMAZIN
 70
0
  9
$DIMDSEP
 70
44
  9
$DIMATFIT
 70
3
  9
$DIMFRAC
 70
0
  9
$DIMLDRBLK
  1

  9
$DIMLUNIT
 70
2
  9
$DIMLWD
 70
-2
  9
$DIMLWE
 70
-2
  9
$DIMTMOVE
 70
0
  9
$DIMFXL
 40
1.0
  9
$DIMFXLON
 70
0
  9
$DIMJOGANG
 40
0.785398163397
  9
$DIMTFILL
 70
0
  9
$DIMTFILLCLR
 70
0
  9
$DIMARCSYM
 70
0
  9
$DIMLTYPE
  6

  9
$DIMLTEX1
  6

  9
$DIMLTEX2
  6

  9
$DIMTXTDIRECTION
 70
0
  9
$LUNITS
 70
2
  9
$LUPREC
 70
4
  9
$SKETCHINC
 40
1.0
  9
$FILLETRAD
 40
10.0
  9
$AUNITS
 70
0
  9
$AUPREC
 70
2
  9
$MENU
  1
.
  9
$ELEVATION
 40
0.0
  9
$PELEVATION
 40
0.0
  9
$THICKNESS
 40
0.0
  9
$LIMCHECK
 70
0
  9
$CHAMFERA
 40
0.0
  9
$CHAMFERB
 40
0.0
  9
$CHAMFERC
 40
0.0
  9
$CHAMFERD
 40
0.0
  9
$SKPOLY
 70
0
  9
$TDCREATE
 40
2460276.0316898148
  9
$TDUCREATE
 40
2458532.153996898
  9
$TDUPDATE
 40
2460276.0316898148
  9
$TDUUPDATE
 40
2458532.1544311
  9
$TDINDWG
 40
0.0
  9
$TDUSRTIMER
 40
0.0
  9
$USRTIMER
 70
1
  9
$ANGBASE
 50
0.0
  9
$ANGDIR
 70
0
  9
$PDMODE
 70
0
  9
$PDSIZE
 40
0.0
  9
$PLINEWID
 40
0.0
  9
$SPLFRAME
 70
0
  9
$SPLINETYPE
 70
6
  9
$SPLINESEGS
 70
8
  9
$HANDSEED
  5
2EE
  9
$SURFTAB1
 70
6
  9
$SURFTAB2
 70
6
  9
$SURFTYPE
 70
6
  9
$SURFU
 70
6
  9
$SURFV
 70
6
  9
$UCSBASE
  2

  9
$UCSNAME
  2

  9
$UCSORG
 10
0.0
 20
0.0
 30
0.0
  9
$UCSXDIR
 10
1.0
 20
0.0
 30
0.0
  9
$UCSYDIR
 10
0.0
 20
1.0
 30
0.0
  9
$UCSORTHOREF
  2

  9
$UCSORTHOVIEW
 70
0
  9
$UCSORGTOP
 10
0.0
 20
0.0
 30
0.0
  9
$UCSORGBOTTOM
 10
0.0
 20
0.0
 30
0.0
  9
$UCSORGLEFT
 10
0.0
 20
0.0
 30
0.0
  9
$UCSORGRIGHT
 10
0.0
 20
0.0
 30
0.0
  9
$UCSORGFRONT
 10
0.0
 20
0.0
 30
0.0
  9
$UCSORGBACK
 10
0.0
 20
0.0
 30
0.0
  9
$PUCSBASE
  2

  9
$PUCSNAME
  2

  9
$PUCSORG
 10
0.0
 20
0.0
 30
0.0
  9
$PUCSXDIR
 10
1.0
 20
0.0
 30
0.0
  9
$PUCSYDIR
 10
0.0
 20
1.0
 30
0.0
  9
$PUCSORTHOREF
  2

  9
$PUCSORTHOVIEW
 70
0
  9
$PUCSORGTOP
 10
0.0
 20
0.0
 30
0.0
  9
$PUCSORGBOTTOM
 10
0.0
 20
0.0
 30
0.0
  9
$PUCSORGLEFT
 10
0.0
 20
0.0
 30
0.0
  9
$PUCSORGRIGHT
 10
0.0
 20
0.0
 30
0.0
  9
$PUCSORGFRONT
 10
0.0
 20
0.0
 30
0.0
  9
$PUCSORGBACK
 10
0.0
 20
0.0
 30
0.0
  9
$USERI1
 70
0
  9
$USERI2
 70
0
  9
$USERI3
 70
0
  9
$USERI4
 70
0
  9
$USERI5
 70
0
  9
$USERR1
 40
0.0
  9
$USERR2
 40
0.0
  9
$USERR3
 40
0.0
  9
$USERR4
 40
0.0
  9
$USERR5
 40
0.0
  9
$WORLDVIEW
 70
1
  9
$SHADEDGE
 70
3
  9
$SHADEDIF
 70
70
  9
$TILEMODE
 70
1
  9
$MAXACTVP
 70
64
  9
$PINSBASE
 10
0.0
 20
0.0
 30
0.0
  9
$PLIMCHECK
 70
0
  9
$PEXTMIN
 10
1e+20
 20
1e+20
 30
1e+20
  9
$PEXTMAX
 10
-1e+20
 20
-1e+20
 30
-1e+20
  9
$PLIMMIN
 10
0.0
 20
0.0
  9
$PLIMMAX
 10
420.0
 20
297.0
  9
$UNITMODE
 70
0
  9
$VISRETAIN
 70
1
  9
$PLINEGEN
 70
0
  9
$PSLTSCALE
 70
1
  9
$TREEDEPTH
 70
3020
  9
$CMLSTYLE
  2
Standard
  9
$CMLJUST
 70
0
  9
$CMLSCALE
 40
20.0
  9
$PROXYGRAPHICS
 70
1
  9
$MEASUREMENT
 70
1
  9
$CELWEIGHT
370
-1
  9
$ENDCAPS
280
0
  9
$JOINSTYLE
280
0
  9
$LWDISPLAY
290
0
  9
$INSUNITS
 70
6
  9
$HYPERLINKBASE
  1

  9
$STYLESHEET
  1

  9
$XEDIT
290
1
  9
$CEPSNTYPE
380
0
  9
$PSTYLEMODE
290
1
  9
$FINGERPRINTGUID
  2
{BB6BA59E-499A-41A5-B166-2A465CBDBF69}
  9
$VERSIONGUID
  2
{CD924265-910C-4F2A-B4E5-966E94537192}
  9
$EXTNAMES
290
1
  9
$PSVPSCALE
 40
0.0
  9
$OLESTARTUP
290
0
  9
$SORTENTS
280
127
  9
$INDEXCTL
280
0
  9
$HIDETEXT
280
1
  9
$XCLIPFRAME
280
0
  9
$HALOGAP
280
0
  9
$OBSCOLOR
 70
257
  9
$OBSLTYPE
280
0
  9
$INTERSECTIONDISPLAY
280
0
  9
$INTERSECTIONCOLOR
 70
257
  9
$DIMASSOC
280
2
  9
$PROJECTNAME
  1

  9
$CAMERADISPLAY
290
0
  9
$LENSLENGTH
 40
50.0
  9
$CAMERAHEIGHT
 40
0.0
  9
$STEPSPERSEC
 40
24.0
  9
$STEPSIZE
 40
100.0
  9
$3DDWFPREC
 40
2.0
  9
$PSOLWIDTH
 40
0.005
  9
$PSOLHEIGHT
 40
0.08
  9
$LOFTANG1
 40
1.570796326795
  9
$LOFTANG2
 40
1.570796326795
  9
$LOFTMAG1
 40
0.0
  9
$LOFTMAG2
 40
0.0
  9
$LOFTPARAM
 70
7
  9
$LOFTNORMALS
280
1
  9
$LATITUDE
 40
37.795
  9
$LONGITUDE
 40
-122.394
  9
$NORTHDIRECTION
 40
0.0
  9
$TIMEZONE
 70
-8000
  9
$LIGHTGLYPHDISPLAY
280
1
  9
$TILEMODELIGHTSYNCH
280
1
  9
$CMATERIAL
347
20
  9
$SOLIDHIST
280
0
  9
$SHOWHIST
280
1
  9
$DWFFRAME
280
2
  9
$DGNFRAME
280
2
  9
$REALWORLDSCALE
290
1
  9
$INTERFERECOLOR
 62
256
  9
$CSHADOW
280
0
  9
$SHADOWPLANELOCATION
 40
0.0
  0
ENDSEC
  0
SECTION
  2
CLASSES
  0
CLASS
  1
ACDBDICTIONARYWDFLT
  2
AcDbDictionaryWithDefault
  3
ObjectDBX Classes
 90
0
 91
0
280
0
281
0
  0
CLASS
  1
SUN
  2
AcDbSun
  3
SCENEOE
 90
1153
 91
0
280
0
281
0
  0
CLASS
  1
VISUALSTYLE
  2
AcDbVisualStyle
  3
ObjectDBX Classes
 90
4095
 91
0
280
0
281
0
  0
CLASS
  1
MATERIAL
  2
AcDbMaterial
  3
ObjectDBX Classes
 90
1153
 91
0
280
0
281
0
  0
CLASS
  1
SCALE
  2
AcDbScale
  3
ObjectDBX Classes
 90
1153
 91
0
280
0
281
0
  0
CLASS
  1
TABLESTYLE
  2
AcDbTableStyle
  3
ObjectDBX Classes
 90
4095
 91
0
280
0
281
0
  0
CLASS
  1
MLEADERSTYLE
  2
AcDbMLeaderStyle
  3
ACDB_MLEADERSTYLE_CLASS
 90
4095
 91
0
280
0
281
0
  0
CLASS
  1
DICTIONARYVAR
  2
AcDbDictionaryVar
  3
ObjectDBX Classes
 90
0
 91
0
280
0
281
0
  0
CLASS
  1
CELLSTYLEMAP
  2
AcDbCellStyleMap
  3
ObjectDBX Classes
 90
1152
 91
0
280
0
281
0
  0
CLASS
  1
MENTALRAYRENDERSETTINGS
  2
AcDbMentalRayRenderSettings
  3
SCENEOE
 90
1024
 91
0
280
0
281
0
  0
CLASS
  1
ACDBDETAILVIEWSTYLE
  2
AcDbDetailViewStyle
  3
ObjectDBX Classes
 90
1025
 91
0
280
0
281
0
  0
CLASS
  1
ACDBSECTIONVIEWSTYLE
  2
AcDbSectionViewStyle
  3
ObjectDBX Classes
 90
1025
 91
0
280
0
281
0
  0
CLASS
  1
RASTERVARIABLES
  2
AcDbRasterVariables
  3
ISM
 90
0
 91
0
280
0
281
0
  0
CLASS
  1
ACDBPLACEHOLDER
  2
AcDbPlaceHolder
  3
ObjectDBX Classes
 90
0
 91
0
280
0
281
0
  0
CLASS
  1
LAYOUT
  2
AcDbLayout
  3
ObjectDBX Classes
 90
0
 91
0
280
0
281
0
  0
ENDSEC
  0
SECTION
  2
TABLES
  0
TABLE
  2
VPORT
  5
8
330
0
100
AcDbSymbolTable
 70
1
  0
VPORT
  5
23
330
8
100
AcDbSymbolTableRecord
100
AcDbViewportTableRecord
  2
*Active
 70
0
 10
0.0
 20
0.0
 11
1.0
 21
1.0
 12
0.0
 22
0.0
 13
0.0
 23
0.0
 14
0.5
 24
0.5
 15
0.5
 25
0.5
 16
0.0
 26
0.0
 36
1.0
 17
0.0
 27
0.0
 37
0.0
 40
1000.0
 41
1.34
 42
50.0
 43
0.0
 44
0.0
 50
0.0
 51
0.0
 71
0
 72
1000
 73
1
 74
3
 75
0
 76
0
 77
0
 78
0
281
0
 65
0
146
0.0
  0
ENDTAB
  0
TABLE
  2
LTYPE
  5
2
330
0
100
AcDbSymbolTable
 70
3
  0
LTYPE
  5
24
330
2
100
AcDbSymbolTableRecord
100
AcDbLinetypeTableRecord
  2
ByBlock
 70
0
  3

 72
65
 73
0
 40
0.0
  0
LTYPE
  5
25
330
2
100
AcDbSymbolTableRecord
100
AcDbLinetypeTableRecord
  2
ByLayer
 70
0
  3

 72
65
 73
0
 40
0.0
  0
LTYPE
  5
26
330
2
100
AcDbSymbolTableRecord
100
AcDbLinetypeTableRecord
  2
Continuous
 70
0
  3

 72
65
 73
0
 40
0.0
  0
ENDTAB
  0
TABLE
  2
LAYER
  5
1
330
0
100
AcDbSymbolTable
 70
2
  0
LAYER
  5
27
330
1
100
AcDbSymbolTableRecord
100
AcDbLayerTableRecord
  2
0
 70
0
 62
7
  6
Continuous
370
-3
390
13
347
21
  0
LAYER
  5
28
330
1
100
AcDbSymbolTableRecord
100
AcDbLayerTableRecord
  2
Defpoints
 70
0
 62
7
  6
Continuous
290
0
370
-3
390
13
347
21
  0
ENDTAB
  0
TABLE
  2
STYLE
  5
5
330
0
100
AcDbSymbolTable
 70
1
  0
STYLE
  5
29
330
5
100
AcDbSymbolTableRecord
100
AcDbTextStyleTableRecord
  2
Standard
 70
0
 40
0.0
 41
1.0
 50
0.0
 71
0
 42
2.5
  3
txt
  4

  0
ENDTAB
  0
TABLE
  2
VIEW
  5
7
330
0
100
AcDbSymbolTable
 70
0
  0
ENDTAB
  0
TABLE
  2
UCS
  5
6
330
0
100
AcDbSymbolTable
 70
0
  0
ENDTAB
  0
TABLE
  2
APPID
  5
3
330
0
100
AcDbSymbolTable
 70
3
  0
APPID
  5
2A
330
3
100
AcDbSymbolTableRecord
100
AcDbRegAppTableRecord
  2
ACAD
 70
0
  0
APPID
  5
2EB
330
3
100
AcDbSymbolTableRecord
100
AcDbRegAppTableRecord
  2
HATCHBACKGROUNDCOLOR
 70
0
  0
APPID
  5
2EC
330
3
100
AcDbSymbolTableRecord
100
AcDbRegAppTableRecord
  2
EZDXF
 70
0
  0
ENDTAB
  0
TABLE
  2
DIMSTYLE
  5
4
330
0
100
AcDbSymbolTable
 70
1
100
AcDbDimStyleTable
  0
DIMSTYLE
105
2B
330
4
100
AcDbSymbolTableRecord
100
AcDbDimStyleTableRecord
  2
Standard
 70
0
 40
1.0
 41
2.5
 42
0.625
 43
3.75
 44
1.25
 45
0.0
 46
0.0
 47
0.0
 48
0.0
 49
2.5
140
2.5
141
2.5
142
0.0
143
0.03937007874
144
1.0
145
0.0
146
1.0
147
0.625
148
0.0
 69
0
 70
0
 71
0
 72
0
 73
0
 74
0
 75
0
 76
0
 77
1
 78
8
 79
3
170
0
171
3
172
1
173
0
174
0
175
0
176
0
177
0
178
0
179
2
271
2
272
2
273
2
274
3
275
0
276
0
277
2
278
44
279
0
280
0
281
0
282
0
283
0
284
8
285
0
286
0
288
0
289
3
290
0
371
-2
372
-2
  0
ENDTAB
  0
TABLE
  2
BLOCK_RECORD
  5
9
330
0
100
AcDbSymbolTable
 70
2
  0
BLOCK_RECORD
  5
17
330
9
100
AcDbSymbolTableRecord
100
AcDbBlockTableRecord
  2
*Model_Space
340
1A
 70
0
280
1
281
0
  0
BLOCK_RECORD
  5
1B
330
9
100
AcDbSymbolTableRecord
100
AcDbBlockTableRecord
  2
*Paper_Space
340
1E
 70
0
280
1
281
0
  0
ENDTAB
  0
ENDSEC
  0
SECTION
  2
BLOCKS
  0
BLOCK
  5
18
330
17
100
AcDbEntity
  8
0
100
AcDbBlockBegin
  2
*Model_Space
 70
0
 10
0.0
 20
0.0
 30
0.0
  3
*Model_Space
  1

  0
ENDBLK
  5
19
330
17
100
AcDbEntity
  8
0
100
AcDbBlockEnd
  0
BLOCK
  5
1C
330
1B
100
AcDbEntity
  8
0
100
AcDbBlockBegin
  2
*Paper_Space
 70
0
 10
0.0
 20
0.0
 30
0.0
  3
*Paper_Space
  1

  0
ENDBLK
  5
1D
330
1B
100
AcDbEntity
  8
0
100
AcDbBlockEnd
  0
ENDSEC
  0
SECTION
  2
ENTITIES
  0
LINE
  5
2F
330
17
100
AcDbEntity
  8
0
100
AcDbLine
 10
-5.999999999999911
 20
144.847627296504
 30
0.0
 11
-5.999999999999911
 21
-144.847627296504
 31
0.0
  0
LINE
  5
30
330
17
100
AcDbEntity
  8
0
100
AcDbLine
 10
-5.999999999999726
 20
144.8476272965044
 30
0.0
 11
-8.669591812490898
 21
144.9851943675207
 31
0.0
  0
LINE
  5
31
330
17
100
AcDbEntity
  8
0
100
AcDbLine
 10
-8.669591812490898
 20
144.9851943675207
 30
0.0
 11
-11.340314492327373
 21
145.09790985240195
 31
0.0
  0
LINE
  5
32
330
17
100
AcDbEntity
  8
0
100
AcDbLine
 10
-11.340314492327373
 20
145.09790985240195
 30
0.0
 11
-14.011934171214143
 21
145.1856945335895
 31
0.0
  0
LINE
  5
33
330
17
100
AcDbEntity
  8
0
100
AcDbLine
 10
-14.011934171214143
 20
145.1856945335895
 30
0.0
 11
-16.6842169808562
 21
145.24846919352458
 31
0.0
  0
LINE
  5
34
330
17
100
AcDbEntity
  8
0
100
AcDbLine
 10
-16.6842169808562
 20
145.24846919352458
 30
0.0
 11
-19.35692905295854
 21
145.28615461464852
 31
0.0
  0
LINE
  5
35
330
17
100
AcDbEntity
  8
0
100
AcDbLine
 10
-19.35692905295854
 20
145.28615461464852
 30
0.0
 11
-22.02983651922616
 21
145.29867157940262
 31
0.0
  0
LINE
  5
36
330
17
100
AcDbEntity
  8
0
100
AcDbLine
 10
-22.02983651922616
 20
145.29867157940262
 30
0.0
 11
-24.70270551136404
 21
145.2859408702281
 31
0.0
  0
LINE
  5
37
330
17
100
AcDbEntity
  8
0
100
AcDbLine
 10
-24.70270551136404
 20
145.2859408702281
 30
0.0
 11
-27.37530216107719
 21
145.2478832695663
 31
0.0
  0
LINE
  5
38
330
17
100
AcDbEntity
  8
0
100
AcDbLine
 10
-27.37530216107719
 20
145.2478832695663
 30
0.0
 11
-30.04739260007059
 21
145.1844195598585
 31
0.0
  0
LINE
  5
39
330
17
100
AcDbEntity
  8
0
100
AcDbLine
 10
-30.04739260007059
 20
145.1844195598585
 30
0.0
 11
-32.71874327070787
 21
145.0954756649608
 31
0.0
  0
LINE
  5
3A
330
17
100
AcDbEntity
  8
0
100
AcDbLine
 10
-32.71874327070787
 20
145.0954756649608
 30
0.0
 11
-35.38913113892256
 21
144.98115167430313
 31
0.0
  0
LINE
  5
3B
330
17
100
AcDbEntity
  8
0
100
AcDbLine
 10
-35.38913113892256
 20
144.98115167430313
 30
0.0
 11
-38.05834600483369
 21
144.84176008368559
 31
0.0
  0
LINE
  5
3C
330
17
100
AcDbEntity
  8
0
100
AcDbLine
 10
-38.05834600483369
 20
144.84176008368559
 30
0.0
 11
-40.726178447057265
 21
144.67762627306936
 31
0.0
  0
LINE
  5
3D
330
17
100
AcDbEntity
  8
0
100
AcDbLine
 10
-40.726178447057265
 20
144.67762627306936
 30
0.0
 11
-43.39241904420927
 21
144.48907562241558
 31
0.0
  0
LINE
  5
3E
330
17
100
AcDbEntity
  8
0
100
AcDbLine
 10
-43.39241904420927
 20
144.48907562241558
 30
0.0
 11
-46.05685396643634
 21
144.2764050210027
 31
0.0
  0
LINE
  5
3F
330
17
100
AcDbEntity
  8
0
100
AcDbLine
 10
-46.05685396643634
 20
144.2764050210027
 30
0.0
 11
-48.71912177131131
 21
144.0389573800626
 31
0.0
  0
LINE
  5
40
330
17
100
AcDbEntity
  8
0
100
AcDbLine
 10
-48.71912177131131
 20
144.0389573800626
 30
0.0
 11
-51.37868197971893
 21
143.7749185476747
 31
0.0
  0
LINE
  5
41
330
17
100
AcDbEntity
  8
0
100
AcDbLine
 10
-51.37868197971893
 20
143.7749185476747
 30
0.0
 11
-54.03498368745022
 21
143.4824067277854
 31
0.0
  0
LINE
  5
42
330
17
100
AcDbEntity
  8
0
100
AcDbLine
 10
-54.03498368745022
 20
143.4824067277854
 30
0.0
 11
-56.687782744808736
 21
143.16128043846217
 31
0.0
  0
LINE
  5
43
330
17
100
AcDbEntity
  8
0
100
AcDbLine
 10
-56.687782744808736
 20
143.16128043846217
 30
0.0
 11
-59.33770629408079
 21
142.81634130921634
 31
0.0
  0
LINE
  5
44
330
17
100
AcDbEntity
  8
0
100
AcDbLine
 10
-59.33770629408079
 20
142.81634130921634
 30
0.0
 11
-61.98553512402482
 21
142.45326265396528
 31
0.0
  0
LINE
  5
45
330
17
100
AcDbEntity
  8
0
100
AcDbLine
 10
-61.98553512402482
 20
142.45326265396528
 30
0.0
 11
-64.63205002339924
 21
142.07771778662632
 31
0.0
  0
LINE
  5
46
330
17
100
AcDbEntity
  8
0
100
AcDbLine
 10
-64.63205002339924
 20
142.07771778662632
 30
0.0
 11
-67.27703245245253
 21
141.68992279198076
 31
0.0
  0
LINE
  5
47
330
17
100
AcDbEntity
  8
0
100
AcDbLine
 10
-67.27703245245253
 20
141.68992279198076
 30
0.0
 11
-69.91609088467649
 21
141.26730550781602
 31
0.0
  0
LINE
  5
48
330
17
100
AcDbEntity
  8
0
100
AcDbLine
 10
-69.91609088467649
 20
141.26730550781602
 30
0.0
 11
-72.54374471566658
 21
140.7813464307118
 31
0.0
  0
LINE
  5
49
330
17
100
AcDbEntity
  8
0
100
AcDbLine
 10
-72.54374471566658
 20
140.7813464307118
 30
0.0
 11
-75.15450846925854
 21
140.2053675172343
 31
0.0
  0
LINE
  5
4A
330
17
100
AcDbEntity
  8
0
100
AcDbLine
 10
-75.15450846925854
 20
140.2053675172343
 30
0.0
 11
-77.7428525867503
 21
139.52936400551928
 31
0.0
  0
LINE
  5
4B
330
17
100
AcDbEntity
  8
0
100
AcDbLine
 10
-77.7428525867503
 20
139.52936400551928
 30
0.0
 11
-80.30322406716952
 21
138.75219767343512
 31
0.0
  0
LINE
  5
4C
330
17
100
AcDbEntity
  8
0
100
AcDbLine
 10
-80.30322406716952
 20
138.75219767343512
 30
0.0
 11
-82.83006969245262
 21
137.87281240896496
 31
0.0
  0
LINE
  5
4D
330
17
100
AcDbEntity
  8
0
100
AcDbLine
 10
-82.83006969245262
 20
137.87281240896496
 30
0.0
 11
-85.31783627727792
 21
136.8901521631131
 31
0.0
  0
LINE
  5
4E
330
17
100
AcDbEntity
  8
0
100
AcDbLine
 10
-85.31783627727792
 20
136.8901521631131
 30
0.0
 11
-87.76140985277429
 21
135.8040062873305
 31
0.0
  0
LINE
  5
4F
330
17
100
AcDbEntity
  8
0
100
AcDbLine
 10
-87.76140985277429
 20
135.8040062873305
 30
0.0
 11
-90.1572168073052
 21
134.61712900082827
 31
0.0
  0
LINE
  5
50
330
17
100
AcDbEntity
  8
0
100
AcDbLine
 10
-90.1572168073052
 20
134.61712900082827
 30
0.0
 11
-92.50202101904947
 21
133.3329241206188
 31
0.0
  0
LINE
  5
51
330
17
100
AcDbEntity
  8
0
100
AcDbLine
 10
-92.50202101904947
 20
133.3329241206188
 30
0.0
 11
-94.79258636618592
 21
131.95479546371453
 31
0.0
  0
LINE
  5
52
330
17
100
AcDbEntity
  8
0
100
AcDbLine
 10
-94.79258636618592
 20
131.95479546371453
 30
0.0
 11
-97.02567403702376
 21
130.48614412969076
 31
0.0
  0
LINE
  5
53
330
17
100
AcDbEntity
  8
0
100
AcDbLine
 10
-97.02567403702376
 20
130.48614412969076
 30
0.0
 11
-99.19711406417167
 21
128.9294305193097
 31
0.0
  0
LINE
  5
54
330
17
100
AcDbEntity
  8
0
100
AcDbLine
 10
-99.19711406417167
 20
128.9294305193097
 30
0.0
 11
-101.30044522654231
 21
127.2848002973224
 31
0.0
  0
LINE
  5
55
330
17
100
AcDbEntity
  8
0
100
AcDbLine
 10
-101.30044522654231
 20
127.2848002973224
 30
0.0
 11
-103.3288602003483
 21
125.55204947868576
 31
0.0
  0
LINE
  5
56
330
17
100
AcDbEntity
  8
0
100
AcDbLine
 10
-103.3288602003483
 20
125.55204947868576
 30
0.0
 11
-105.27581680874
 21
123.73119851355005
 31
0.0
  0
LINE
  5
57
330
17
100
AcDbEntity
  8
0
100
AcDbLine
 10
-105.27581680874
 20
123.73119851355005
 30
0.0
 11
-107.143277895115
 21
121.82946697675324
 31
0.0
  0
LINE
  5
58
330
17
100
AcDbEntity
  8
0
100
AcDbLine
 10
-107.143277895115
 20
121.82946697675324
 30
0.0
 11
-108.94331207418077
 21
119.8626285330245
 31
0.0
  0
LINE
  5
59
330
17
100
AcDbEntity
  8
0
100
AcDbLine
 10
-108.94331207418077
 20
119.8626285330245
 30
0.0
 11
-110.68857621105131
 21
117.84695473513895
 31
0.0
  0
LINE
  5
5A
330
17
100
AcDbEntity
  8
0
100
AcDbLine
 10
-110.68857621105131
 20
117.84695473513895
 30
0.0
 11
-112.39077400810744
 21
115.79679931098258
 31
0.0
  0
LINE
  5
5B
330
17
100
AcDbEntity
  8
0
100
AcDbLine
 10
-112.39077400810744
 20
115.79679931098258
 30
0.0
 11
-114.05816724936037
 21
113.71959062671147
 31
0.0
  0
LINE
  5
5C
330
17
100
AcDbEntity
  8
0
100
AcDbLine
 10
-114.05816724936037
 20
113.71959062671147
 30
0.0
 11
-115.69824106757797
 21
111.6211943760932
 31
0.0
  0
LINE
  5
5D
330
17
100
AcDbEntity
  8
0
100
AcDbLine
 10
-115.69824106757797
 20
111.6211943760932
 30
0.0
 11
-117.318480595528
 21
109.50747625289554
 31
0.0
  0
LINE
  5
5E
330
17
100
AcDbEntity
  8
0
100
AcDbLine
 10
-117.318480595528
 20
109.50747625289554
 30
0.0
 11
-118.9263709659783
 21
107.3843019508861
 31
0.0
  0
LINE
  5
5F
330
17
100
AcDbEntity
  8
0
100
AcDbLine
 10
-118.9263709659783
 20
107.3843019508861
 30
0.0
 11
-120.52900789104551
 21
105.25723607725703
 31
0.0
  0
LINE
  5
60
330
17
100
AcDbEntity
  8
0
100
AcDbLine
 10
-120.52900789104551
 20
105.25723607725703
 30
0.0
 11
-122.1281569328179
 21
103.12772215159298
 31
0.0
  0
LINE
  5
61
330
17
100
AcDbEntity
  8
0
100
AcDbLine
 10
-122.1281569328179
 20
103.12772215159298
 30
0.0
 11
-123.72172057654801
 21
100.99421689611104
 31
0.0
  0
LINE
  5
62
330
17
100
AcDbEntity
  8
0
100
AcDbLine
 10
-123.72172057654801
 20
100.99421689611104
 30
0.0
 11
-125.30751486644476
 21
98.85511019980372
 31
0.0
  0
LINE
  5
63
330
17
100
AcDbEntity
  8
0
100
AcDbLine
 10
-125.30751486644476
 20
98.85511019980372
 30
0.0
 11
-126.88335584671708
 21
96.70879195166344
 31
0.0
  0
LINE
  5
64
330
17
100
AcDbEntity
  8
0
100
AcDbLine
 10
-126.88335584671708
 20
96.70879195166344
 30
0.0
 11
-128.44709884184664
 21
94.5536835059919
 31
0.0
  0
LINE
  5
65
330
17
100
AcDbEntity
  8
0
100
AcDbLine
 10
-128.44709884184664
 20
94.5536835059919
 30
0.0
 11
-129.99776831467318
 21
92.3891427508052
 31
0.0
  0
LINE
  5
66
330
17
100
AcDbEntity
  8
0
100
AcDbLine
 10
-129.99776831467318
 20
92.3891427508052
 30
0.0
 11
-131.5357278339183
 21
90.21560025965496
 31
0.0
  0
LINE
  5
67
330
17
100
AcDbEntity
  8
0
100
AcDbLine
 10
-131.5357278339183
 20
90.21560025965496
 30
0.0
 11
-133.0614144385323
 21
88.03354545913271
 31
0.0
  0
LINE
  5
68
330
17
100
AcDbEntity
  8
0
100
AcDbLine
 10
-133.0614144385323
 20
88.03354545913271
 30
0.0
 11
-134.5752675227504
 21
85.84346765777677
 31
0.0
  0
LINE
  5
69
330
17
100
AcDbEntity
  8
0
100
AcDbLine
 10
-134.5752675227504
 20
85.84346765777677
 30
0.0
 11
-136.0778594363579
 21
83.64584950004487
 31
0.0
  0
LINE
  5
6A
330
17
100
AcDbEntity
  8
0
100
AcDbLine
 10
-136.0778594363579
 20
83.64584950004487
 30
0.0
 11
-137.56996394095606
 21
81.44116353510648
 31
0.0
  0
LINE
  5
6B
330
17
100
AcDbEntity
  8
0
100
AcDbLine
 10
-137.56996394095606
 20
81.44116353510648
 30
0.0
 11
-139.05237158942373
 21
79.22988147050818
 31
0.0
  0
LINE
  5
6C
330
17
100
AcDbEntity
  8
0
100
AcDbLine
 10
-139.05237158942373
 20
79.22988147050818
 30
0.0
 11
-140.52587293463966
 21
77.01247501379659
 31
0.0
  0
LINE
  5
6D
330
17
100
AcDbEntity
  8
0
100
AcDbLine
 10
-140.52587293463966
 20
77.01247501379659
 30
0.0
 11
-141.9911297215672
 21
74.7893470581324
 31
0.0
  0
LINE
  5
6E
330
17
100
AcDbEntity
  8
0
100
AcDbLine
 10
-141.9911297215672
 20
74.7893470581324
 30
0.0
 11
-143.4465265589157
 21
72.55968395860717
 31
0.0
  0
LINE
  5
6F
330
17
100
AcDbEntity
  8
0
100
AcDbLine
 10
-143.4465265589157
 20
72.55968395860717
 30
0.0
 11
-144.88849699448528
 21
70.3216297348492
 31
0.0
  0
LINE
  5
70
330
17
100
AcDbEntity
  8
0
100
AcDbLine
 10
-144.88849699448528
 20
70.3216297348492
 30
0.0
 11
-146.31341147189562
 21
68.07329469368761
 31
0.0
  0
LINE
  5
71
330
17
100
AcDbEntity
  8
0
100
AcDbLine
 10
-146.31341147189562
 20
68.07329469368761
 30
0.0
 11
-147.7176404347665
 21
65.81278914195144
 31
0.0
  0
LINE
  5
72
330
17
100
AcDbEntity
  8
0
100
AcDbLine
 10
-147.7176404347665
 20
65.81278914195144
 30
0.0
 11
-149.0986889894963
 21
63.538840305136006
 31
0.0
  0
LINE
  5
73
330
17
100
AcDbEntity
  8
0
100
AcDbLine
 10
-149.0986889894963
 20
63.538840305136006
 30
0.0
 11
-150.46386513603576
 21
61.25550526367712
 31
0.0
  0
LINE
  5
74
330
17
100
AcDbEntity
  8
0
100
AcDbLine
 10
-150.46386513603576
 20
61.25550526367712
 30
0.0
 11
-151.82549359699613
 21
58.96956870123448
 31
0.0
  0
LINE
  5
75
330
17
100
AcDbEntity
  8
0
100
AcDbLine
 10
-151.82549359699613
 20
58.96956870123448
 30
0.0
 11
-153.19593964731072
 21
56.68783734985512
 31
0.0
  0
LINE
  5
76
330
17
100
AcDbEntity
  8
0
100
AcDbLine
 10
-153.19593964731072
 20
56.68783734985512
 30
0.0
 11
-154.58756856191283
 21
54.417117941586085
 31
0.0
  0
LINE
  5
77
330
17
100
AcDbEntity
  8
0
100
AcDbLine
 10
-154.58756856191283
 20
54.417117941586085
 30
0.0
 11
-156.01279165725583
 21
52.16448848665709
 31
0.0
  0
LINE
  5
78
330
17
100
AcDbEntity
  8
0
100
AcDbLine
 10
-156.01279165725583
 20
52.16448848665709
 30
0.0
 11
-157.48465986810442
 21
49.94079564788105
 31
0.0
  0
LINE
  5
79
330
17
100
AcDbEntity
  8
0
100
AcDbLine
 10
-157.48465986810442
 20
49.94079564788105
 30
0.0
 11
-159.01669245316555
 21
47.75964546847332
 31
0.0
  0
LINE
  5
7A
330
17
100
AcDbEntity
  8
0
100
AcDbLine
 10
-159.01669245316555
 20
47.75964546847332
 30
0.0
 11
-160.6224194069035
 21
45.63470724709293
 31
0.0
  0
LINE
  5
7B
330
17
100
AcDbEntity
  8
0
100
AcDbLine
 10
-160.6224194069035
 20
45.63470724709293
 30
0.0
 11
-162.31535715544675
 21
43.579641181030475
 31
0.0
  0
LINE
  5
7C
330
17
100
AcDbEntity
  8
0
100
AcDbLine
 10
-162.31535715544675
 20
43.579641181030475
 30
0.0
 11
-164.10335307540825
 21
41.6043047825284
 31
0.0
  0
LINE
  5
7D
330
17
100
AcDbEntity
  8
0
100
AcDbLine
 10
-164.10335307540825
 20
41.6043047825284
 30
0.0
 11
-165.97984061754826
 21
39.70888699060993
 31
0.0
  0
LINE
  5
7E
330
17
100
AcDbEntity
  8
0
100
AcDbLine
 10
-165.97984061754826
 20
39.70888699060993
 30
0.0
 11
-167.93599624108927
 21
37.892062799508956
 31
0.0
  0
LINE
  5
7F
330
17
100
AcDbEntity
  8
0
100
AcDbLine
 10
-167.93599624108927
 20
37.892062799508956
 30
0.0
 11
-169.96344954679287
 21
36.15287376760024
 31
0.0
  0
LINE
  5
80
330
17
100
AcDbEntity
  8
0
100
AcDbLine
 10
-169.96344954679287
 20
36.15287376760024
 30
0.0
 11
-172.05741702024835
 21
34.49326302648093
 31
0.0
  0
LINE
  5
81
330
17
100
AcDbEntity
  8
0
100
AcDbLine
 10
-172.05741702024835
 20
34.49326302648093
 30
0.0
 11
-174.2148208443194
 21
32.916553513840235
 31
0.0
  0
LINE
  5
82
330
17
100
AcDbEntity
  8
0
100
AcDbLine
 10
-174.2148208443194
 20
32.916553513840235
 30
0.0
 11
-176.43259358694087
 21
31.42607656826266
 31
0.0
  0
LINE
  5
83
330
17
100
AcDbEntity
  8
0
100
AcDbLine
 10
-176.43259358694087
 20
31.42607656826266
 30
0.0
 11
-178.7076678160475
 21
30.025163528332687
 31
0.0
  0
LINE
  5
84
330
17
100
AcDbEntity
  8
0
100
AcDbLine
 10
-178.7076678160475
 20
30.025163528332687
 30
0.0
 11
-181.03692412711553
 21
28.716962258716347
 31
0.0
  0
LINE
  5
85
330
17
100
AcDbEntity
  8
0
100
AcDbLine
 10
-181.03692412711553
 20
28.716962258716347
 30
0.0
 11
-183.4166485024716
 21
27.502521512206137
 31
0.0
  0
LINE
  5
86
330
17
100
AcDbEntity
  8
0
100
AcDbLine
 10
-183.4166485024716
 20
27.502521512206137
 30
0.0
 11
-185.8427477973613
 21
26.3815516417342
 31
0.0
  0
LINE
  5
87
330
17
100
AcDbEntity
  8
0
100
AcDbLine
 10
-185.8427477973613
 20
26.3815516417342
 30
0.0
 11
-188.31112274712996
 21
25.353741395671282
 31
0.0
  0
LINE
  5
88
330
17
100
AcDbEntity
  8
0
100
AcDbLine
 10
-188.31112274712996
 20
25.353741395671282
 30
0.0
 11
-190.81767969385425
 21
24.418864669288528
 31
0.0
  0
LINE
  5
89
330
17
100
AcDbEntity
  8
0
100
AcDbLine
 10
-190.81767969385425
 20
24.418864669288528
 30
0.0
 11
-193.35849972686322
 21
23.57934916536017
 31
0.0
  0
LINE
  5
8A
330
17
100
AcDbEntity
  8
0
100
AcDbLine
 10
-193.35849972686322
 20
23.57934916536017
 30
0.0
 11
-195.92986869141563
 21
22.84073212237845
 31
0.0
  0
LINE
  5
8B
330
17
100
AcDbEntity
  8
0
100
AcDbLine
 10
-195.92986869141563
 20
22.84073212237845
 30
0.0
 11
-198.52808408852906
 21
22.208727789577182
 31
0.0
  0
LINE
  5
8C
330
17
100
AcDbEntity
  8
0
100
AcDbLine
 10
-198.52808408852906
 20
22.208727789577182
 30
0.0
 11
-201.149440040181
 21
21.688994702650493
 31
0.0
  0
LINE
  5
8D
330
17
100
AcDbEntity
  8
0
100
AcDbLine
 10
-201.149440040181
 20
21.688994702650493
 30
0.0
 11
-203.78967156707392
 21
21.27797294807401
 31
0.0
  0
LINE
  5
8E
330
17
100
AcDbEntity
  8
0
100
AcDbLine
 10
-203.78967156707392
 20
21.27797294807401
 30
0.0
 11
-206.4433358467327
 21
20.95268236055846
 31
0.0
  0
LINE
  5
8F
330
17
100
AcDbEntity
  8
0
100
AcDbLine
 10
-206.4433358467327
 20
20.95268236055846
 30
0.0
 11
-209.1048409419487
 21
20.68768417444842
 31
0.0
  0
LINE
  5
90
330
17
100
AcDbEntity
  8
0
100
AcDbLine
 10
-209.1048409419487
 20
20.68768417444842
 30
0.0
 11
-211.76921171127503
 21
20.45984884698459
 31
0.0
  0
LINE
  5
91
330
17
100
AcDbEntity
  8
0
100
AcDbLine
 10
-211.76921171127503
 20
20.45984884698459
 30
0.0
 11
-214.43493926837218
 21
20.259024154891225
 31
0.0
  0
LINE
  5
92
330
17
100
AcDbEntity
  8
0
100
AcDbLine
 10
-214.43493926837218
 20
20.259024154891225
 30
0.0
 11
-217.10172467595692
 21
20.07958780560399
 31
0.0
  0
LINE
  5
93
330
17
100
AcDbEntity
  8
0
100
AcDbLine
 10
-217.10172467595692
 20
20.0795878056041
 30
0.0
 11
-286.6407379999999
 21
15.546273724621528
 31
0.0
  0
LINE
  5
94
330
17
100
AcDbEntity
  8
0
100
AcDbLine
 10
-286.6407379999999
 20
15.546273724621619
 30
0.0
 11
-286.83429685991996
 21
15.532218010051034
 31
0.0
  0
LINE
  5
95
330
17
100
AcDbEntity
  8
0
100
AcDbLine
 10
-286.83429685991996
 20
15.532218010051034
 30
0.0
 11
-287.02762680271184
 21
15.51530267423577
 31
0.0
  0
LINE
  5
96
330
17
100
AcDbEntity
  8
0
100
AcDbLine
 10
-287.02762680271184
 20
15.51530267423577
 30
0.0
 11
-287.22068558291033
 21
15.495531413428047
 31
0.0
  0
LINE
  5
97
330
17
100
AcDbEntity
  8
0
100
AcDbLine
 10
-287.22068558291033
 20
15.495531413428047
 30
0.0
 11
-287.4134310143033
 21
15.472908547942133
 31
0.0
  0
LINE
  5
98
330
17
100
AcDbEntity
  8
0
100
AcDbLine
 10
-287.4134310143033
 20
15.472908547942133
 30
0.0
 11
-287.60582097914994
 21
15.447439021210288
 31
0.0
  0
LINE
  5
99
330
17
100
AcDbEntity
  8
0
100
AcDbLine
 10
-287.60582097914994
 20
15.447439021210288
 30
0.0
 11
-287.7978134373843
 21
15.419128398702552
 31
0.0
  0
LINE
  5
9A
330
17
100
AcDbEntity
  8
0
100
AcDbLine
 10
-287.7978134373843
 20
15.419128398702552
 30
0.0
 11
-287.98936643580146
 21
15.387982866710615
 31
0.0
  0
LINE
  5
9B
330
17
100
AcDbEntity
  8
0
100
AcDbLine
 10
-287.98936643580146
 20
15.387982866710615
 30
0.0
 11
-288.1804381172249
 21
15.354009230996
 31
0.0
  0
LINE
  5
9C
330
17
100
AcDbEntity
  8
0
100
AcDbLine
 10
-288.1804381172249
 20
15.354009230996
 30
0.0
 11
-288.37098672965317
 21
15.317214915302932
 31
0.0
  0
LINE
  5
9D
330
17
100
AcDbEntity
  8
0
100
AcDbLine
 10
-288.37098672965317
 20
15.317214915302932
 30
0.0
 11
-288.56097063538306
 21
15.277607959736109
 31
0.0
  0
LINE
  5
9E
330
17
100
AcDbEntity
  8
0
100
AcDbLine
 10
-288.56097063538306
 20
15.277607959736109
 30
0.0
 11
-288.7503483201082
 21
15.235197019003845
 31
0.0
  0
LINE
  5
9F
330
17
100
AcDbEntity
  8
0
100
AcDbLine
 10
-288.7503483201082
 20
15.235197019003845
 30
0.0
 11
-288.9390784019905
 21
15.189991360526868
 31
0.0
  0
LINE
  5
A0
330
17
100
AcDbEntity
  8
0
100
AcDbLine
 10
-288.9390784019905
 20
15.189991360526868
 30
0.0
 11
-289.12711964070286
 21
15.14200086241327
 31
0.0
  0
LINE
  5
A1
330
17
100
AcDbEntity
  8
0
100
AcDbLine
 10
-289.12711964070286
 20
15.14200086241327
 30
0.0
 11
-289.3144309464404
 21
15.091236011299975
 31
0.0
  0
LINE
  5
A2
330
17
100
AcDbEntity
  8
0
100
AcDbLine
 10
-289.3144309464404
 20
15.091236011299975
 30
0.0
 11
-289.50097138889953
 21
15.037707900061262
 31
0.0
  0
LINE
  5
A3
330
17
100
AcDbEntity
  8
0
100
AcDbLine
 10
-289.50097138889953
 20
15.037707900061262
 30
0.0
 11
-289.68670020622193
 21
14.981428225384814
 31
0.0
  0
LINE
  5
A4
330
17
100
AcDbEntity
  8
0
100
AcDbLine
 10
-289.68670020622193
 20
14.981428225384814
 30
0.0
 11
-289.87157681390113
 21
14.922409285215803
 31
0.0
  0
LINE
  5
A5
330
17
100
AcDbEntity
  8
0
100
AcDbLine
 10
-289.87157681390113
 20
14.922409285215803
 30
0.0
 11
-290.05556081365137
 21
14.860663976069619
 31
0.0
  0
LINE
  5
A6
330
17
100
AcDbEntity
  8
0
100
AcDbLine
 10
-290.05556081365137
 20
14.860663976069619
 30
0.0
 11
-290.23861200223485
 21
14.796205790213776
 31
0.0
  0
LINE
  5
A7
330
17
100
AcDbEntity
  8
0
100
AcDbLine
 10
-290.23861200223485
 20
14.796205790213776
 30
0.0
 11
-290.4206903802469
 21
14.72904881271967
 31
0.0
  0
LINE
  5
A8
330
17
100
AcDbEntity
  8
0
100
AcDbLine
 10
-290.4206903802469
 20
14.72904881271967
 30
0.0
 11
-290.6017561608565
 21
14.659207718384765
 31
0.0
  0
LINE
  5
A9
330
17
100
AcDbEntity
  8
0
100
AcDbLine
 10
-290.6017561608565
 20
14.659207718384765
 30
0.0
 11
-290.78176977850006
 21
14.586697768525942
 31
0.0
  0
LINE
  5
AA
330
17
100
AcDbEntity
  8
0
100
AcDbLine
 10
-290.78176977850006
 20
14.586697768525942
 30
0.0
 11
-290.96069189752734
 21
14.511534807644665
 31
0.0
  0
LINE
  5
AB
330
17
100
AcDbEntity
  8
0
100
AcDbLine
 10
-290.96069189752734
 20
14.511534807644665
 30
0.0
 11
-291.1384834207968
 21
14.433735259964733
 31
0.0
  0
LINE
  5
AC
330
17
100
AcDbEntity
  8
0
100
AcDbLine
 10
-291.1384834207968
 20
14.433735259964733
 30
0.0
 11
-291.3151054982186
 21
14.353316125843332
 31
0.0
  0
LINE
  5
AD
330
17
100
AcDbEntity
  8
0
100
AcDbLine
 10
-291.3151054982186
 20
14.353316125843332
 30
0.0
 11
-291.49051953524463
 21
14.270294978056215
 31
0.0
  0
LINE
  5
AE
330
17
100
AcDbEntity
  8
0
100
AcDbLine
 10
-291.49051953524463
 20
14.270294978056215
 30
0.0
 11
-291.6646872013012
 21
14.184689957957783
 31
0.0
  0
LINE
  5
AF
330
17
100
AcDbEntity
  8
0
100
AcDbLine
 10
-291.6646872013012
 20
14.184689957957783
 30
0.0
 11
-291.8375704381654
 21
14.096519771516924
 31
0.0
  0
LINE
  5
B0
330
17
100
AcDbEntity
  8
0
100
AcDbLine
 10
-291.8375704381654
 20
14.096519771516924
 30
0.0
 11
-292.00913146828105
 21
14.0058036852295
 31
0.0
  0
LINE
  5
B1
330
17
100
AcDbEntity
  8
0
100
AcDbLine
 10
-292.00913146828105
 20
14.0058036852295
 30
0.0
 11
-292.1793328030139
 21
13.912561521908307
 31
0.0
  0
LINE
  5
B2
330
17
100
AcDbEntity
  8
0
100
AcDbLine
 10
-292.1793328030139
 20
13.912561521908307
 30
0.0
 11
-292.34813725084325
 21
13.816813656351515
 31
0.0
  0
LINE
  5
B3
330
17
100
AcDbEntity
  8
0
100
AcDbLine
 10
-292.34813725084325
 20
13.816813656351515
 30
0.0
 11
-292.515507925489
 21
13.718581010890462
 31
0.0
  0
LINE
  5
B4
330
17
100
AcDbEntity
  8
0
100
AcDbLine
 10
-292.515507925489
 20
13.718581010890462
 30
0.0
 11
-292.68140825397177
 21
13.617885050817817
 31
0.0
  0
LINE
  5
B5
330
17
100
AcDbEntity
  8
0
100
AcDbLine
 10
-292.68140825397177
 20
13.617885050817817
 30
0.0
 11
-292.84580198460475
 21
13.514747779697093
 31
0.0
  0
LINE
  5
B6
330
17
100
AcDbEntity
  8
0
100
AcDbLine
 10
-292.84580198460475
 20
13.514747779697093
 30
0.0
 11
-293.008653194915
 21
13.409191734554543
 31
0.0
  0
LINE
  5
B7
330
17
100
AcDbEntity
  8
0
100
AcDbLine
 10
-293.008653194915
 20
13.409191734554543
 30
0.0
 11
-293.1699262994933
 21
13.301239980954486
 31
0.0
  0
LINE
  5
B8
330
17
100
AcDbEntity
  8
0
100
AcDbLine
 10
-293.1699262994933
 20
13.301239980954486
 30
0.0
 11
-293.32958605777
 21
13.190916107959133
 31
0.0
  0
LINE
  5
B9
330
17
100
AcDbEntity
  8
0
100
AcDbLine
 10
-293.32958605777
 20
13.190916107959133
 30
0.0
 11
-293.48759758171536
 21
13.078244222974034
 31
0.0
  0
LINE
  5
BA
330
17
100
AcDbEntity
  8
0
100
AcDbLine
 10
-293.48759758171536
 20
13.078244222974034
 30
0.0
 11
-293.6439263434637
 21
12.963248946480244
 31
0.0
  0
LINE
  5
BB
330
17
100
AcDbEntity
  8
0
100
AcDbLine
 10
-293.6439263434637
 20
12.963248946480244
 30
0.0
 11
-293.79853818285767
 21
12.845955406654388
 31
0.0
  0
LINE
  5
BC
330
17
100
AcDbEntity
  8
0
100
AcDbLine
 10
-293.79853818285767
 20
12.845955406654388
 30
0.0
 11
-293.95139931491286
 21
12.726389233877779
 31
0.0
  0
LINE
  5
BD
330
17
100
AcDbEntity
  8
0
100
AcDbLine
 10
-293.95139931491286
 20
12.726389233877779
 30
0.0
 11
-294.1024763372007
 21
12.6045765551358
 31
0.0
  0
LINE
  5
BE
330
17
100
AcDbEntity
  8
0
100
AcDbLine
 10
-294.1024763372007
 20
12.6045765551358
 30
0.0
 11
-294.2517362371469
 21
12.480543988308764
 31
0.0
  0
LINE
  5
BF
330
17
100
AcDbEntity
  8
0
100
AcDbLine
 10
-294.2517362371469
 20
12.480543988308764
 30
0.0
 11
-294.39914639924547
 21
12.35431863635552
 31
0.0
  0
LINE
  5
C0
330
17
100
AcDbEntity
  8
0
100
AcDbLine
 10
-294.39914639924547
 20
12.35431863635552
 30
0.0
 11
-294.5446746121857
 21
12.225928081391046
 31
0.0
  0
LINE
  5
C1
330
17
100
AcDbEntity
  8
0
100
AcDbLine
 10
-294.5446746121857
 20
12.225928081391046
 30
0.0
 11
-294.68828907589057
 21
12.095400378659354
 31
0.0
  0
LINE
  5
C2
330
17
100
AcDbEntity
  8
0
100
AcDbLine
 10
-294.68828907589057
 20
12.095400378659354
 30
0.0
 11
-294.8299584084658
 21
11.962764050403
 31
0.0
  0
LINE
  5
C3
330
17
100
AcDbEntity
  8
0
100
AcDbLine
 10
-294.8299584084658
 20
11.962764050403
 30
0.0
 11
-294.96965165305727
 21
11.828048079630543
 31
0.0
  0
LINE
  5
C4
330
17
100
AcDbEntity
  8
0
100
AcDbLine
 10
-294.96965165305727
 20
11.828048079630543
 30
0.0
 11
-295.10733828461525
 21
11.691281903783338
 31
0.0
  0
LINE
  5
C5
330
17
100
AcDbEntity
  8
0
100
AcDbLine
 10
-295.10733828461525
 20
11.691281903783338
 30
0.0
 11
-295.2429882165649
 21
11.552495408303011
 31
0.0
  0
LINE
  5
C6
330
17
100
AcDbEntity
  8
0
100
AcDbLine
 10
-295.2429882165649
 20
11.552495408303011
 30
0.0
 11
-295.37657180738046
 21
11.411718920101048
 31
0.0
  0
LINE
  5
C7
330
17
100
AcDbEntity
  8
0
100
AcDbLine
 10
-295.37657180738046
 20
11.411718920101048
 30
0.0
 11
-295.5080598670624
 21
11.268983200931915
 31
0.0
  0
LINE
  5
C8
330
17
100
AcDbEntity
  8
0
100
AcDbLine
 10
-295.5080598670624
 20
11.268983200931915
 30
0.0
 11
-295.6374236635159
 21
11.124319440671155
 31
0.0
  0
LINE
  5
C9
330
17
100
AcDbEntity
  8
0
100
AcDbLine
 10
-295.6374236635159
 20
11.124319440671155
 30
0.0
 11
-295.7646349288293
 21
10.977759250499942
 31
0.0
  0
LINE
  5
CA
330
17
100
AcDbEntity
  8
0
100
AcDbLine
 10
-295.7646349288293
 20
10.977759250499942
 30
0.0
 11
-295.8896658654508
 21
10.829334655997554
 31
0.0
  0
LINE
  5
CB
330
17
100
AcDbEntity
  8
0
100
AcDbLine
 10
-295.8896658654508
 20
10.829334655997554
 30
0.0
 11
-296.012489152263
 21
10.679078090143333
 31
0.0
  0
LINE
  5
CC
330
17
100
AcDbEntity
  8
0
100
AcDbLine
 10
-296.012489152263
 20
10.679078090143333
 30
0.0
 11
-296.13307795055266
 21
10.527022386229572
 31
0.0
  0
LINE
  5
CD
330
17
100
AcDbEntity
  8
0
100
AcDbLine
 10
-296.13307795055266
 20
10.527022386229572
 30
0.0
 11
-296.25140590987553
 21
10.373200770686967
 31
0.0
  0
LINE
  5
CE
330
17
100
AcDbEntity
  8
0
100
AcDbLine
 10
-296.25140590987553
 20
10.373200770686967
 30
0.0
 11
-296.36744717381424
 21
10.217646855824146
 31
0.0
  0
LINE
  5
CF
330
17
100
AcDbEntity
  8
0
100
AcDbLine
 10
-296.36744717381424
 20
10.217646855824146
 30
0.0
 11
-296.4811763856285
 21
10.060394632482872
 31
0.0
  0
LINE
  5
D0
330
17
100
AcDbEntity
  8
0
100
AcDbLine
 10
-296.4811763856285
 20
10.060394632482872
 30
0.0
 11
-296.59256869379544
 21
9.901478462610557
 31
0.0
  0
LINE
  5
D1
330
17
100
AcDbEntity
  8
0
100
AcDbLine
 10
-296.59256869379544
 20
9.901478462610557
 30
0.0
 11
-296.70159975744065
 21
9.74093307175164
 31
0.0
  0
LINE
  5
D2
330
17
100
AcDbEntity
  8
0
100
AcDbLine
 10
-296.70159975744065
 20
9.74093307175164
 30
0.0
 11
-296.80824575165667
 21
9.57879354145957
 31
0.0
  0
LINE
  5
D3
330
17
100
AcDbEntity
  8
0
100
AcDbLine
 10
-296.80824575165667
 20
9.57879354145957
 30
0.0
 11
-296.91248337270906
 21
9.415095301630936
 31
0.0
  0
LINE
  5
D4
330
17
100
AcDbEntity
  8
0
100
AcDbLine
 10
-296.91248337270906
 20
9.415095301630936
 30
0.0
 11
-297.0142898431287
 21
9.24987412276353
 31
0.0
  0
LINE
  5
D5
330
17
100
AcDbEntity
  8
0
100
AcDbLine
 10
-297.0142898431287
 20
9.24987412276353
 30
0.0
 11
-297.11364291668923
 21
9.08316610813995
 31
0.0
  0
LINE
  5
D6
330
17
100
AcDbEntity
  8
0
100
AcDbLine
 10
-297.11364291668923
 20
9.08316610813995
 30
0.0
 11
-297.2105208832677
 21
8.915007685938502
 31
0.0
  0
LINE
  5
D7
330
17
100
AcDbEntity
  8
0
100
AcDbLine
 10
-297.2105208832677
 20
8.915007685938502
 30
0.0
 11
-297.30490257358883
 21
8.745435601273092
 31
0.0
  0
LINE
  5
D8
330
17
100
AcDbEntity
  8
0
100
AcDbLine
 10
-297.30490257358883
 20
8.745435601273092
 30
0.0
 11
-297.396767363851
 21
8.574486908163887
 31
0.0
  0
LINE
  5
D9
330
17
100
AcDbEntity
  8
0
100
AcDbLine
 10
-297.396767363851
 20
8.574486908163887
 30
0.0
 11
-297.4860951802324
 21
8.402198961440455
 31
0.0
  0
LINE
  5
DA
330
17
100
AcDbEntity
  8
0
100
AcDbLine
 10
-297.4860951802324
 20
8.402198961440455
 30
0.0
 11
-297.57286650327796
 21
8.228609408579173
 31
0.0
  0
LINE
  5
DB
330
17
100
AcDbEntity
  8
0
100
AcDbLine
 10
-297.57286650327796
 20
8.228609408579173
 30
0.0
 11
-297.65706237216415
 21
8.053756181476704
 31
0.0
  0
LINE
  5
DC
330
17
100
AcDbEntity
  8
0
100
AcDbLine
 10
-297.65706237216415
 20
8.053756181476704
 30
0.0
 11
-297.7386643888426
 21
7.877677488161307
 31
0.0
  0
LINE
  5
DD
330
17
100
AcDbEntity
  8
0
100
AcDbLine
 10
-297.7386643888426
 20
7.877677488161307
 30
0.0
 11
-297.8176547220602
 21
7.700411804443819
 31
0.0
  0
LINE
  5
DE
330
17
100
AcDbEntity
  8
0
100
AcDbLine
 10
-297.8176547220602
 20
7.700411804443819
 30
0.0
 11
-297.8940161112554
 21
7.521997865510116
 31
0.0
  0
LINE
  5
DF
330
17
100
AcDbEntity
  8
0
100
AcDbLine
 10
-297.8940161112554
 20
7.521997865510116
 30
0.0
 11
-297.9677318703299
 21
7.342474657456902
 31
0.0
  0
LINE
  5
E0
330
17
100
AcDbEntity
  8
0
100
AcDbLine
 10
-297.9677318703299
 20
7.342474657456902
 30
0.0
 11
-298.0387858912951
 21
7.161881408772665
 31
0.0
  0
LINE
  5
E1
330
17
100
AcDbEntity
  8
0
100
AcDbLine
 10
-298.0387858912951
 20
7.161881408772665
 30
0.0
 11
-298.10716264779165
 21
6.980257581765677
 31
0.0
  0
LINE
  5
E2
330
17
100
AcDbEntity
  8
0
100
AcDbLine
 10
-298.10716264779165
 20
6.980257581765677
 30
0.0
 11
-298.1728471984822
 21
6.797642863940872
 31
0.0
  0
LINE
  5
E3
330
17
100
AcDbEntity
  8
0
100
AcDbLine
 10
-298.1728471984822
 20
6.797642863940872
 30
0.0
 11
-298.23582519031646
 21
6.614077159327568
 31
0.0
  0
LINE
  5
E4
330
17
100
AcDbEntity
  8
0
100
AcDbLine
 10
-298.23582519031646
 20
6.614077159327568
 30
0.0
 11
-298.29608286166734
 21
6.429600579759817
 31
0.0
  0
LINE
  5
E5
330
17
100
AcDbEntity
  8
0
100
AcDbLine
 10
-298.29608286166734
 20
6.429600579759817
 30
0.0
 11
-298.35360704533844
 21
6.244253436111386
 31
0.0
  0
LINE
  5
E6
330
17
100
AcDbEntity
  8
0
100
AcDbLine
 10
-298.35360704533844
 20
6.244253436111386
 30
0.0
 11
-298.40838517144067
 21
6.058076229487227
 31
0.0
  0
LINE
  5
E7
330
17
100
AcDbEntity
  8
0
100
AcDbLine
 10
-298.40838517144067
 20
6.058076229487227
 30
0.0
 11
-298.46040527013974
 21
5.871109642373392
 31
0.0
  0
LINE
  5
E8
330
17
100
AcDbEntity
  8
0
100
AcDbLine
 10
-298.46040527013974
 20
5.871109642373392
 30
0.0
 11
-298.50965597427097
 21
5.683394529747292
 31
0.0
  0
LINE
  5
E9
330
17
100
AcDbEntity
  8
0
100
AcDbLine
 10
-298.50965597427097
 20
5.683394529747292
 30
0.0
 11
-298.5561265218237
 21
5.494971910150289
 31
0.0
  0
LINE
  5
EA
330
17
100
AcDbEntity
  8
0
100
AcDbLine
 10
-298.5561265218237
 20
5.494971910150289
 30
0.0
 11
-298.5998067582929
 21
5.305882956724531
 31
0.0
  0
LINE
  5
EB
330
17
100
AcDbEntity
  8
0
100
AcDbLine
 10
-298.5998067582929
 20
5.305882956724531
 30
0.0
 11
-298.6406871388978
 21
5.116168988216008
 31
0.0
  0
LINE
  5
EC
330
17
100
AcDbEntity
  8
0
100
AcDbLine
 10
-298.6406871388978
 20
5.116168988216008
 30
0.0
 11
-298.67875873066777
 21
4.925871459945791
 31
0.0
  0
LINE
  5
ED
330
17
100
AcDbEntity
  8
0
100
AcDbLine
 10
-298.67875873066777
 20
4.925871459945791
 30
0.0
 11
-298.7140132143943
 21
4.735031954751433
 31
0.0
  0
LINE
  5
EE
330
17
100
AcDbEntity
  8
0
100
AcDbLine
 10
-298.7140132143943
 20
4.735031954751433
 30
0.0
 11
-298.74644288644885
 21
4.543692173900492
 31
0.0
  0
LINE
  5
EF
330
17
100
AcDbEntity
  8
0
100
AcDbLine
 10
-298.74644288644885
 20
4.543692173900492
 30
0.0
 11
-298.77604066046626
 21
4.351893927978206
 31
0.0
  0
LINE
  5
F0
330
17
100
AcDbEntity
  8
0
100
AcDbLine
 10
-298.77604066046626
 20
4.351893927978206
 30
0.0
 11
-298.8028000688931
 21
4.159679127751219
 31
0.0
  0
LINE
  5
F1
330
17
100
AcDbEntity
  8
0
100
AcDbLine
 10
-298.8028000688931
 20
4.159679127751219
 30
0.0
 11
-298.82671526440095
 21
3.967089775009504
 31
0.0
  0
LINE
  5
F2
330
17
100
AcDbEntity
  8
0
100
AcDbLine
 10
-298.82671526440095
 20
3.967089775009504
 30
0.0
 11
-298.8477810211643
 21
3.7741679533883126
 31
0.0
  0
LINE
  5
F3
330
17
100
AcDbEntity
  8
0
100
AcDbLine
 10
-298.8477810211643
 20
3.7741679533883126
 30
0.0
 11
-298.8659927360022
 21
3.5809558191722797
 31
0.0
  0
LINE
  5
F4
330
17
100
AcDbEntity
  8
0
100
AcDbLine
 10
-298.8659927360022
 20
3.5809558191722797
 30
0.0
 11
-298.8813464293845
 21
3.387495592083672
 31
0.0
  0
LINE
  5
F5
330
17
100
AcDbEntity
  8
0
100
AcDbLine
 10
-298.8813464293845
 20
3.387495592083672
 30
0.0
 11
-298.8938387463009
 21
3.1938295460567243
 31
0.0
  0
LINE
  5
F6
330
17
100
AcDbEntity
  8
0
100
AcDbLine
 10
-298.8938387463009
 20
3.1938295460567243
 30
0.0
 11
-298.90346695699463
 21
3.0000000000001714
 31
0.0
  0
LINE
  5
F7
330
17
100
AcDbEntity
  8
0
100
AcDbLine
 10
-195.25609153149892
 20
3.00000000000018
 30
0.0
 11
-298.90346695699486
 21
3.00000000000018
 31
0.0
  0
LINE
  5
F8
330
17
100
AcDbEntity
  8
0
100
AcDbLine
 10
-195.25609153149892
 20
3.00000000000018
 30
0.0
 11
-195.25609153149892
 21
-2.99999999999982
 31
0.0
  0
LINE
  5
F9
330
17
100
AcDbEntity
  8
0
100
AcDbLine
 10
-195.2560915314699
 20
-2.99999999999982
 30
0.0
 11
-298.90346695699486
 21
-2.99999999999982
 31
0.0
  0
LINE
  5
FA
330
17
100
AcDbEntity
  8
0
100
AcDbLine
 10
-286.6407379999999
 20
-15.546273724621258
 30
0.0
 11
-286.83429685991996
 21
-15.532218010050673
 31
0.0
  0
LINE
  5
FB
330
17
100
AcDbEntity
  8
0
100
AcDbLine
 10
-286.83429685991996
 20
-15.532218010050673
 30
0.0
 11
-287.02762680271184
 21
-15.515302674235409
 31
0.0
  0
LINE
  5
FC
330
17
100
AcDbEntity
  8
0
100
AcDbLine
 10
-287.02762680271184
 20
-15.515302674235409
 30
0.0
 11
-287.22068558291033
 21
-15.495531413427686
 31
0.0
  0
LINE
  5
FD
330
17
100
AcDbEntity
  8
0
100
AcDbLine
 10
-287.22068558291033
 20
-15.495531413427686
 30
0.0
 11
-287.4134310143033
 21
-15.472908547941772
 31
0.0
  0
LINE
  5
FE
330
17
100
AcDbEntity
  8
0
100
AcDbLine
 10
-287.4134310143033
 20
-15.472908547941772
 30
0.0
 11
-287.60582097915
 21
-15.447439021209927
 31
0.0
  0
LINE
  5
FF
330
17
100
AcDbEntity
  8
0
100
AcDbLine
 10
-287.60582097915
 20
-15.447439021209927
 30
0.0
 11
-287.7978134373843
 21
-15.419128398702192
 31
0.0
  0
LINE
  5
100
330
17
100
AcDbEntity
  8
0
100
AcDbLine
 10
-287.7978134373843
 20
-15.419128398702192
 30
0.0
 11
-287.98936643580146
 21
-15.387982866710253
 31
0.0
  0
LINE
  5
101
330
17
100
AcDbEntity
  8
0
100
AcDbLine
 10
-287.98936643580146
 20
-15.387982866710253
 30
0.0
 11
-288.1804381172249
 21
-15.35400923099564
 31
0.0
  0
LINE
  5
102
330
17
100
AcDbEntity
  8
0
100
AcDbLine
 10
-288.1804381172249
 20
-15.35400923099564
 30
0.0
 11
-288.37098672965317
 21
-15.317214915302571
 31
0.0
  0
LINE
  5
103
330
17
100
AcDbEntity
  8
0
100
AcDbLine
 10
-288.37098672965317
 20
-15.317214915302571
 30
0.0
 11
-288.56097063538306
 21
-15.277607959735748
 31
0.0
  0
LINE
  5
104
330
17
100
AcDbEntity
  8
0
100
AcDbLine
 10
-288.56097063538306
 20
-15.277607959735748
 30
0.0
 11
-288.7503483201082
 21
-15.235197019003484
 31
0.0
  0
LINE
  5
105
330
17
100
AcDbEntity
  8
0
100
AcDbLine
 10
-288.7503483201082
 20
-15.235197019003484
 30
0.0
 11
-288.9390784019905
 21
-15.189991360526507
 31
0.0
  0
LINE
  5
106
330
17
100
AcDbEntity
  8
0
100
AcDbLine
 10
-288.9390784019905
 20
-15.189991360526507
 30
0.0
 11
-289.12711964070286
 21
-15.142000862412909
 31
0.0
  0
LINE
  5
107
330
17
100
AcDbEntity
  8
0
100
AcDbLine
 10
-289.12711964070286
 20
-15.142000862412909
 30
0.0
 11
-289.3144309464404
 21
-15.091236011299612
 31
0.0
  0
LINE
  5
108
330
17
100
AcDbEntity
  8
0
100
AcDbLine
 10
-289.3144309464404
 20
-15.091236011299612
 30
0.0
 11
-289.50097138889953
 21
-15.037707900060902
 31
0.0
  0
LINE
  5
109
330
17
100
AcDbEntity
  8
0
100
AcDbLine
 10
-289.50097138889953
 20
-15.037707900060902
 30
0.0
 11
-289.68670020622193
 21
-14.981428225384454
 31
0.0
  0
LINE
  5
10A
330
17
100
AcDbEntity
  8
0
100
AcDbLine
 10
-289.68670020622193
 20
-14.981428225384454
 30
0.0
 11
-289.87157681390113
 21
-14.922409285215442
 31
0.0
  0
LINE
  5
10B
330
17
100
AcDbEntity
  8
0
100
AcDbLine
 10
-289.87157681390113
 20
-14.922409285215442
 30
0.0
 11
-290.05556081365137
 21
-14.860663976069256
 31
0.0
  0
LINE
  5
10C
330
17
100
AcDbEntity
  8
0
100
AcDbLine
 10
-290.05556081365137
 20
-14.860663976069256
 30
0.0
 11
-290.23861200223485
 21
-14.796205790213413
 31
0.0
  0
LINE
  5
10D
330
17
100
AcDbEntity
  8
0
100
AcDbLine
 10
-290.23861200223485
 20
-14.796205790213413
 30
0.0
 11
-290.4206903802469
 21
-14.729048812719308
 31
0.0
  0
LINE
  5
10E
330
17
100
AcDbEntity
  8
0
100
AcDbLine
 10
-290.4206903802469
 20
-14.729048812719308
 30
0.0
 11
-290.6017561608565
 21
-14.659207718384405
 31
0.0
  0
LINE
  5
10F
330
17
100
AcDbEntity
  8
0
100
AcDbLine
 10
-290.6017561608565
 20
-14.659207718384405
 30
0.0
 11
-290.78176977850006
 21
-14.58669776852558
 31
0.0
  0
LINE
  5
110
330
17
100
AcDbEntity
  8
0
100
AcDbLine
 10
-290.78176977850006
 20
-14.58669776852558
 30
0.0
 11
-290.96069189752734
 21
-14.511534807644304
 31
0.0
  0
LINE
  5
111
330
17
100
AcDbEntity
  8
0
100
AcDbLine
 10
-290.96069189752734
 20
-14.511534807644304
 30
0.0
 11
-291.1384834207968
 21
-14.43373525996437
 31
0.0
  0
LINE
  5
112
330
17
100
AcDbEntity
  8
0
100
AcDbLine
 10
-291.1384834207968
 20
-14.43373525996437
 30
0.0
 11
-291.3151054982186
 21
-14.353316125842971
 31
0.0
  0
LINE
  5
113
330
17
100
AcDbEntity
  8
0
100
AcDbLine
 10
-291.3151054982186
 20
-14.353316125842971
 30
0.0
 11
-291.49051953524463
 21
-14.270294978055853
 31
0.0
  0
LINE
  5
114
330
17
100
AcDbEntity
  8
0
100
AcDbLine
 10
-291.49051953524463
 20
-14.270294978055853
 30
0.0
 11
-291.6646872013012
 21
-14.18468995795742
 31
0.0
  0
LINE
  5
115
330
17
100
AcDbEntity
  8
0
100
AcDbLine
 10
-291.6646872013012
 20
-14.18468995795742
 30
0.0
 11
-291.8375704381654
 21
-14.096519771516563
 31
0.0
  0
LINE
  5
116
330
17
100
AcDbEntity
  8
0
100
AcDbLine
 10
-291.8375704381654
 20
-14.096519771516563
 30
0.0
 11
-292.00913146828105
 21
-14.005803685229138
 31
0.0
  0
LINE
  5
117
330
17
100
AcDbEntity
  8
0
100
AcDbLine
 10
-292.00913146828105
 20
-14.005803685229138
 30
0.0
 11
-292.1793328030139
 21
-13.912561521907946
 31
0.0
  0
LINE
  5
118
330
17
100
AcDbEntity
  8
0
100
AcDbLine
 10
-292.1793328030139
 20
-13.912561521907946
 30
0.0
 11
-292.34813725084325
 21
-13.816813656351153
 31
0.0
  0
LINE
  5
119
330
17
100
AcDbEntity
  8
0
100
AcDbLine
 10
-292.34813725084325
 20
-13.816813656351153
 30
0.0
 11
-292.515507925489
 21
-13.7185810108901
 31
0.0
  0
LINE
  5
11A
330
17
100
AcDbEntity
  8
0
100
AcDbLine
 10
-292.515507925489
 20
-13.7185810108901
 30
0.0
 11
-292.68140825397177
 21
-13.617885050817456
 31
0.0
  0
LINE
  5
11B
330
17
100
AcDbEntity
  8
0
100
AcDbLine
 10
-292.68140825397177
 20
-13.617885050817456
 30
0.0
 11
-292.84580198460475
 21
-13.514747779696732
 31
0.0
  0
LINE
  5
11C
330
17
100
AcDbEntity
  8
0
100
AcDbLine
 10
-292.84580198460475
 20
-13.514747779696732
 30
0.0
 11
-293.008653194915
 21
-13.409191734554183
 31
0.0
  0
LINE
  5
11D
330
17
100
AcDbEntity
  8
0
100
AcDbLine
 10
-293.008653194915
 20
-13.409191734554183
 30
0.0
 11
-293.1699262994933
 21
-13.301239980954126
 31
0.0
  0
LINE
  5
11E
330
17
100
AcDbEntity
  8
0
100
AcDbLine
 10
-293.1699262994933
 20
-13.301239980954126
 30
0.0
 11
-293.32958605777
 21
-13.190916107958772
 31
0.0
  0
LINE
  5
11F
330
17
100
AcDbEntity
  8
0
100
AcDbLine
 10
-293.32958605777
 20
-13.190916107958772
 30
0.0
 11
-293.48759758171536
 21
-13.078244222973673
 31
0.0
  0
LINE
  5
120
330
17
100
AcDbEntity
  8
0
100
AcDbLine
 10
-293.48759758171536
 20
-13.078244222973673
 30
0.0
 11
-293.6439263434637
 21
-12.963248946479881
 31
0.0
  0
LINE
  5
121
330
17
100
AcDbEntity
  8
0
100
AcDbLine
 10
-293.6439263434637
 20
-12.963248946479881
 30
0.0
 11
-293.79853818285767
 21
-12.845955406654026
 31
0.0
  0
LINE
  5
122
330
17
100
AcDbEntity
  8
0
100
AcDbLine
 10
-293.79853818285767
 20
-12.845955406654026
 30
0.0
 11
-293.95139931491286
 21
-12.726389233877416
 31
0.0
  0
LINE
  5
123
330
17
100
AcDbEntity
  8
0
100
AcDbLine
 10
-293.95139931491286
 20
-12.726389233877416
 30
0.0
 11
-294.1024763372007
 21
-12.604576555135438
 31
0.0
  0
LINE
  5
124
330
17
100
AcDbEntity
  8
0
100
AcDbLine
 10
-294.1024763372007
 20
-12.604576555135438
 30
0.0
 11
-294.2517362371469
 21
-12.480543988308401
 31
0.0
  0
LINE
  5
125
330
17
100
AcDbEntity
  8
0
100
AcDbLine
 10
-294.2517362371469
 20
-12.480543988308401
 30
0.0
 11
-294.39914639924547
 21
-12.35431863635516
 31
0.0
  0
LINE
  5
126
330
17
100
AcDbEntity
  8
0
100
AcDbLine
 10
-294.39914639924547
 20
-12.35431863635516
 30
0.0
 11
-294.5446746121857
 21
-12.225928081390686
 31
0.0
  0
LINE
  5
127
330
17
100
AcDbEntity
  8
0
100
AcDbLine
 10
-294.5446746121857
 20
-12.225928081390686
 30
0.0
 11
-294.68828907589057
 21
-12.095400378658994
 31
0.0
  0
LINE
  5
128
330
17
100
AcDbEntity
  8
0
100
AcDbLine
 10
-294.68828907589057
 20
-12.095400378658994
 30
0.0
 11
-294.8299584084658
 21
-11.962764050402638
 31
0.0
  0
LINE
  5
129
330
17
100
AcDbEntity
  8
0
100
AcDbLine
 10
-294.8299584084658
 20
-11.962764050402638
 30
0.0
 11
-294.96965165305727
 21
-11.82804807963018
 31
0.0
  0
LINE
  5
12A
330
17
100
AcDbEntity
  8
0
100
AcDbLine
 10
-294.96965165305727
 20
-11.82804807963018
 30
0.0
 11
-295.10733828461525
 21
-11.691281903782976
 31
0.0
  0
LINE
  5
12B
330
17
100
AcDbEntity
  8
0
100
AcDbLine
 10
-295.10733828461525
 20
-11.691281903782976
 30
0.0
 11
-295.2429882165649
 21
-11.552495408302649
 31
0.0
  0
LINE
  5
12C
330
17
100
AcDbEntity
  8
0
100
AcDbLine
 10
-295.2429882165649
 20
-11.552495408302649
 30
0.0
 11
-295.37657180738046
 21
-11.411718920100688
 31
0.0
  0
LINE
  5
12D
330
17
100
AcDbEntity
  8
0
100
AcDbLine
 10
-295.37657180738046
 20
-11.411718920100688
 30
0.0
 11
-295.5080598670624
 21
-11.268983200931553
 31
0.0
  0
LINE
  5
12E
330
17
100
AcDbEntity
  8
0
100
AcDbLine
 10
-295.5080598670624
 20
-11.268983200931553
 30
0.0
 11
-295.6374236635159
 21
-11.124319440670794
 31
0.0
  0
LINE
  5
12F
330
17
100
AcDbEntity
  8
0
100
AcDbLine
 10
-295.6374236635159
 20
-11.124319440670794
 30
0.0
 11
-295.7646349288293
 21
-10.977759250499581
 31
0.0
  0
LINE
  5
130
330
17
100
AcDbEntity
  8
0
100
AcDbLine
 10
-295.7646349288293
 20
-10.977759250499581
 30
0.0
 11
-295.8896658654508
 21
-10.829334655997194
 31
0.0
  0
LINE
  5
131
330
17
100
AcDbEntity
  8
0
100
AcDbLine
 10
-295.8896658654508
 20
-10.829334655997194
 30
0.0
 11
-296.012489152263
 21
-10.679078090142971
 31
0.0
  0
LINE
  5
132
330
17
100
AcDbEntity
  8
0
100
AcDbLine
 10
-296.012489152263
 20
-10.679078090142971
 30
0.0
 11
-296.13307795055266
 21
-10.527022386229211
 31
0.0
  0
LINE
  5
133
330
17
100
AcDbEntity
  8
0
100
AcDbLine
 10
-296.13307795055266
 20
-10.527022386229211
 30
0.0
 11
-296.25140590987553
 21
-10.373200770686607
 31
0.0
  0
LINE
  5
134
330
17
100
AcDbEntity
  8
0
100
AcDbLine
 10
-296.25140590987553
 20
-10.373200770686607
 30
0.0
 11
-296.36744717381424
 21
-10.217646855823784
 31
0.0
  0
LINE
  5
135
330
17
100
AcDbEntity
  8
0
100
AcDbLine
 10
-296.36744717381424
 20
-10.217646855823784
 30
0.0
 11
-296.4811763856285
 21
-10.060394632482511
 31
0.0
  0
LINE
  5
136
330
17
100
AcDbEntity
  8
0
100
AcDbLine
 10
-296.4811763856285
 20
-10.060394632482511
 30
0.0
 11
-296.59256869379544
 21
-9.901478462610195
 31
0.0
  0
LINE
  5
137
330
17
100
AcDbEntity
  8
0
100
AcDbLine
 10
-296.59256869379544
 20
-9.901478462610195
 30
0.0
 11
-296.70159975744065
 21
-9.740933071751279
 31
0.0
  0
LINE
  5
138
330
17
100
AcDbEntity
  8
0
100
AcDbLine
 10
-296.70159975744065
 20
-9.740933071751279
 30
0.0
 11
-296.80824575165667
 21
-9.57879354145921
 31
0.0
  0
LINE
  5
139
330
17
100
AcDbEntity
  8
0
100
AcDbLine
 10
-296.80824575165667
 20
-9.57879354145921
 30
0.0
 11
-296.91248337270906
 21
-9.415095301630576
 31
0.0
  0
LINE
  5
13A
330
17
100
AcDbEntity
  8
0
100
AcDbLine
 10
-296.91248337270906
 20
-9.415095301630576
 30
0.0
 11
-297.0142898431287
 21
-9.24987412276317
 31
0.0
  0
LINE
  5
13B
330
17
100
AcDbEntity
  8
0
100
AcDbLine
 10
-297.0142898431287
 20
-9.24987412276317
 30
0.0
 11
-297.11364291668923
 21
-9.08316610813959
 31
0.0
  0
LINE
  5
13C
330
17
100
AcDbEntity
  8
0
100
AcDbLine
 10
-297.11364291668923
 20
-9.08316610813959
 30
0.0
 11
-297.2105208832677
 21
-8.915007685938141
 31
0.0
  0
LINE
  5
13D
330
17
100
AcDbEntity
  8
0
100
AcDbLine
 10
-297.2105208832677
 20
-8.915007685938141
 30
0.0
 11
-297.30490257358883
 21
-8.745435601272732
 31
0.0
  0
LINE
  5
13E
330
17
100
AcDbEntity
  8
0
100
AcDbLine
 10
-297.30490257358883
 20
-8.745435601272732
 30
0.0
 11
-297.396767363851
 21
-8.574486908163527
 31
0.0
  0
LINE
  5
13F
330
17
100
AcDbEntity
  8
0
100
AcDbLine
 10
-297.396767363851
 20
-8.574486908163527
 30
0.0
 11
-297.4860951802324
 21
-8.402198961440096
 31
0.0
  0
LINE
  5
140
330
17
100
AcDbEntity
  8
0
100
AcDbLine
 10
-297.4860951802324
 20
-8.402198961440096
 30
0.0
 11
-297.57286650327796
 21
-8.228609408578812
 31
0.0
  0
LINE
  5
141
330
17
100
AcDbEntity
  8
0
100
AcDbLine
 10
-297.57286650327796
 20
-8.228609408578812
 30
0.0
 11
-297.65706237216415
 21
-8.053756181476345
 31
0.0
  0
LINE
  5
142
330
17
100
AcDbEntity
  8
0
100
AcDbLine
 10
-297.65706237216415
 20
-8.053756181476345
 30
0.0
 11
-297.7386643888426
 21
-7.877677488160947
 31
0.0
  0
LINE
  5
143
330
17
100
AcDbEntity
  8
0
100
AcDbLine
 10
-297.7386643888426
 20
-7.877677488160947
 30
0.0
 11
-297.8176547220602
 21
-7.700411804443455
 31
0.0
  0
LINE
  5
144
330
17
100
AcDbEntity
  8
0
100
AcDbLine
 10
-297.8176547220602
 20
-7.700411804443455
 30
0.0
 11
-297.8940161112554
 21
-7.521997865509753
 31
0.0
  0
LINE
  5
145
330
17
100
AcDbEntity
  8
0
100
AcDbLine
 10
-297.8940161112554
 20
-7.521997865509753
 30
0.0
 11
-297.9677318703299
 21
-7.342474657456543
 31
0.0
  0
LINE
  5
146
330
17
100
AcDbEntity
  8
0
100
AcDbLine
 10
-297.9677318703299
 20
-7.342474657456543
 30
0.0
 11
-298.0387858912951
 21
-7.161881408772305
 31
0.0
  0
LINE
  5
147
330
17
100
AcDbEntity
  8
0
100
AcDbLine
 10
-298.0387858912951
 20
-7.161881408772305
 30
0.0
 11
-298.10716264779165
 21
-6.980257581765315
 31
0.0
  0
LINE
  5
148
330
17
100
AcDbEntity
  8
0
100
AcDbLine
 10
-298.10716264779165
 20
-6.980257581765315
 30
0.0
 11
-298.1728471984822
 21
-6.797642863940512
 31
0.0
  0
LINE
  5
149
330
17
100
AcDbEntity
  8
0
100
AcDbLine
 10
-298.1728471984822
 20
-6.797642863940512
 30
0.0
 11
-298.23582519031646
 21
-6.614077159327208
 31
0.0
  0
LINE
  5
14A
330
17
100
AcDbEntity
  8
0
100
AcDbLine
 10
-298.23582519031646
 20
-6.614077159327208
 30
0.0
 11
-298.29608286166734
 21
-6.429600579759457
 31
0.0
  0
LINE
  5
14B
330
17
100
AcDbEntity
  8
0
100
AcDbLine
 10
-298.29608286166734
 20
-6.429600579759457
 30
0.0
 11
-298.35360704533844
 21
-6.244253436111026
 31
0.0
  0
LINE
  5
14C
330
17
100
AcDbEntity
  8
0
100
AcDbLine
 10
-298.35360704533844
 20
-6.244253436111026
 30
0.0
 11
-298.40838517144067
 21
-6.0580762294868675
 31
0.0
  0
LINE
  5
14D
330
17
100
AcDbEntity
  8
0
100
AcDbLine
 10
-298.40838517144067
 20
-6.0580762294868675
 30
0.0
 11
-298.46040527013974
 21
-5.871109642373032
 31
0.0
  0
LINE
  5
14E
330
17
100
AcDbEntity
  8
0
100
AcDbLine
 10
-298.46040527013974
 20
-5.871109642373032
 30
0.0
 11
-298.50965597427097
 21
-5.683394529746932
 31
0.0
  0
LINE
  5
14F
330
17
100
AcDbEntity
  8
0
100
AcDbLine
 10
-298.50965597427097
 20
-5.683394529746932
 30
0.0
 11
-298.5561265218237
 21
-5.494971910149929
 31
0.0
  0
LINE
  5
150
330
17
100
AcDbEntity
  8
0
100
AcDbLine
 10
-298.5561265218237
 20
-5.494971910149929
 30
0.0
 11
-298.5998067582929
 21
-5.3058829567241705
 31
0.0
  0
LINE
  5
151
330
17
100
AcDbEntity
  8
0
100
AcDbLine
 10
-298.5998067582929
 20
-5.3058829567241705
 30
0.0
 11
-298.6406871388978
 21
-5.116168988215648
 31
0.0
  0
LINE
  5
152
330
17
100
AcDbEntity
  8
0
100
AcDbLine
 10
-298.6406871388978
 20
-5.116168988215648
 30
0.0
 11
-298.67875873066777
 21
-4.925871459945431
 31
0.0
  0
LINE
  5
153
330
17
100
AcDbEntity
  8
0
100
AcDbLine
 10
-298.67875873066777
 20
-4.925871459945431
 30
0.0
 11
-298.7140132143943
 21
-4.735031954751072
 31
0.0
  0
LINE
  5
154
330
17
100
AcDbEntity
  8
0
100
AcDbLine
 10
-298.7140132143943
 20
-4.735031954751072
 30
0.0
 11
-298.74644288644885
 21
-4.543692173900132
 31
0.0
  0
LINE
  5
155
330
17
100
AcDbEntity
  8
0
100
AcDbLine
 10
-298.74644288644885
 20
-4.543692173900132
 30
0.0
 11
-298.77604066046626
 21
-4.351893927977843
 31
0.0
  0
LINE
  5
156
330
17
100
AcDbEntity
  8
0
100
AcDbLine
 10
-298.77604066046626
 20
-4.351893927977843
 30
0.0
 11
-298.8028000688931
 21
-4.159679127750859
 31
0.0
  0
LINE
  5
157
330
17
100
AcDbEntity
  8
0
100
AcDbLine
 10
-298.8028000688931
 20
-4.159679127750859
 30
0.0
 11
-298.82671526440095
 21
-3.967089775009144
 31
0.0
  0
LINE
  5
158
330
17
100
AcDbEntity
  8
0
100
AcDbLine
 10
-298.82671526440095
 20
-3.967089775009144
 30
0.0
 11
-298.8477810211643
 21
-3.7741679533879497
 31
0.0
  0
LINE
  5
159
330
17
100
AcDbEntity
  8
0
100
AcDbLine
 10
-298.8477810211643
 20
-3.7741679533879497
 30
0.0
 11
-298.8659927360022
 21
-3.580955819171919
 31
0.0
  0
LINE
  5
15A
330
17
100
AcDbEntity
  8
0
100
AcDbLine
 10
-298.8659927360022
 20
-3.580955819171919
 30
0.0
 11
-298.8813464293845
 21
-3.3874955920833116
 31
0.0
  0
LINE
  5
15B
330
17
100
AcDbEntity
  8
0
100
AcDbLine
 10
-298.8813464293845
 20
-3.3874955920833116
 30
0.0
 11
-298.8938387463009
 21
-3.193829546056364
 31
0.0
  0
LINE
  5
15C
330
17
100
AcDbEntity
  8
0
100
AcDbLine
 10
-298.8938387463009
 20
-3.193829546056364
 30
0.0
 11
-298.90346695699463
 21
-2.9999999999998113
 31
0.0
  0
LINE
  5
15D
330
17
100
AcDbEntity
  8
0
100
AcDbLine
 10
-217.10172467595692
 20
-20.0795878056038
 30
0.0
 11
-286.6407379999999
 21
-15.54627372462123
 31
0.0
  0
LINE
  5
15E
330
17
100
AcDbEntity
  8
0
100
AcDbLine
 10
-5.999999999999746
 20
-144.84762729650407
 30
0.0
 11
-8.66959181249092
 21
-144.98519436752022
 31
0.0
  0
LINE
  5
15F
330
17
100
AcDbEntity
  8
0
100
AcDbLine
 10
-8.66959181249092
 20
-144.98519436752022
 30
0.0
 11
-11.340314492327392
 21
-145.09790985240141
 31
0.0
  0
LINE
  5
160
330
17
100
AcDbEntity
  8
0
100
AcDbLine
 10
-11.340314492327392
 20
-145.09790985240141
 30
0.0
 11
-14.011934171214158
 21
-145.18569453358893
 31
0.0
  0
LINE
  5
161
330
17
100
AcDbEntity
  8
0
100
AcDbLine
 10
-14.011934171214158
 20
-145.18569453358893
 30
0.0
 11
-16.68421698085621
 21
-145.24846919352407
 31
0.0
  0
LINE
  5
162
330
17
100
AcDbEntity
  8
0
100
AcDbLine
 10
-16.68421698085621
 20
-145.24846919352407
 30
0.0
 11
-19.356929052958545
 21
-145.28615461464807
 31
0.0
  0
LINE
  5
163
330
17
100
AcDbEntity
  8
0
100
AcDbLine
 10
-19.356929052958545
 20
-145.28615461464807
 30
0.0
 11
-22.02983651922616
 21
-145.29867157940222
 31
0.0
  0
LINE
  5
164
330
17
100
AcDbEntity
  8
0
100
AcDbLine
 10
-22.02983651922616
 20
-145.29867157940222
 30
0.0
 11
-24.70270551136404
 21
-145.28594087022782
 31
0.0
  0
LINE
  5
165
330
17
100
AcDbEntity
  8
0
100
AcDbLine
 10
-24.70270551136404
 20
-145.28594087022782
 30
0.0
 11
-27.37530216107719
 21
-145.2478832695661
 31
0.0
  0
LINE
  5
166
330
17
100
AcDbEntity
  8
0
100
AcDbLine
 10
-27.37530216107719
 20
-145.2478832695661
 30
0.0
 11
-30.047392600070598
 21
-145.18441955985836
 31
0.0
  0
LINE
  5
167
330
17
100
AcDbEntity
  8
0
100
AcDbLine
 10
-30.047392600070598
 20
-145.18441955985836
 30
0.0
 11
-32.718743270707876
 21
-145.09547566496073
 31
0.0
  0
LINE
  5
168
330
17
100
AcDbEntity
  8
0
100
AcDbLine
 10
-32.718743270707876
 20
-145.09547566496073
 30
0.0
 11
-35.38913113892257
 21
-144.9811516743031
 31
0.0
  0
LINE
  5
169
330
17
100
AcDbEntity
  8
0
100
AcDbLine
 10
-35.38913113892257
 20
-144.9811516743031
 30
0.0
 11
-38.058346004833716
 21
-144.84176008368559
 31
0.0
  0
LINE
  5
16A
330
17
100
AcDbEntity
  8
0
100
AcDbLine
 10
-38.058346004833716
 20
-144.84176008368559
 30
0.0
 11
-40.7261784470573
 21
-144.6776262730693
 31
0.0
  0
LINE
  5
16B
330
17
100
AcDbEntity
  8
0
100
AcDbLine
 10
-40.7261784470573
 20
-144.6776262730693
 30
0.0
 11
-43.39241904420932
 21
-144.48907562241544
 31
0.0
  0
LINE
  5
16C
330
17
100
AcDbEntity
  8
0
100
AcDbLine
 10
-43.39241904420932
 20
-144.48907562241544
 30
0.0
 11
-46.056853966436385
 21
-144.2764050210024
 31
0.0
  0
LINE
  5
16D
330
17
100
AcDbEntity
  8
0
100
AcDbLine
 10
-46.056853966436385
 20
-144.2764050210024
 30
0.0
 11
-48.71912177131135
 21
-144.03895738006213
 31
0.0
  0
LINE
  5
16E
330
17
100
AcDbEntity
  8
0
100
AcDbLine
 10
-48.71912177131135
 20
-144.03895738006213
 30
0.0
 11
-51.378681979718955
 21
-143.77491854767408
 31
0.0
  0
LINE
  5
16F
330
17
100
AcDbEntity
  8
0
100
AcDbLine
 10
-51.378681979718955
 20
-143.77491854767408
 30
0.0
 11
-54.034983687450264
 21
-143.48240672778473
 31
0.0
  0
LINE
  5
170
330
17
100
AcDbEntity
  8
0
100
AcDbLine
 10
-54.034983687450264
 20
-143.48240672778473
 30
0.0
 11
-56.687782744808786
 21
-143.16128043846157
 31
0.0
  0
LINE
  5
171
330
17
100
AcDbEntity
  8
0
100
AcDbLine
 10
-56.687782744808786
 20
-143.16128043846157
 30
0.0
 11
-59.33770629408088
 21
-142.81634130921591
 31
0.0
  0
LINE
  5
172
330
17
100
AcDbEntity
  8
0
100
AcDbLine
 10
-59.33770629408088
 20
-142.81634130921591
 30
0.0
 11
-61.985535124024935
 21
-142.45326265396503
 31
0.0
  0
LINE
  5
173
330
17
100
AcDbEntity
  8
0
100
AcDbLine
 10
-61.985535124024935
 20
-142.45326265396503
 30
0.0
 11
-64.63205002339937
 21
-142.0777177866262
 31
0.0
  0
LINE
  5
174
330
17
100
AcDbEntity
  8
0
100
AcDbLine
 10
-64.63205002339937
 20
-142.0777177866262
 30
0.0
 11
-67.27703245245264
 21
-141.68992279198073
 31
0.0
  0
LINE
  5
175
330
17
100
AcDbEntity
  8
0
100
AcDbLine
 10
-67.27703245245264
 20
-141.68992279198073
 30
0.0
 11
-69.91609088467658
 21
-141.26730550781605
 31
0.0
  0
LINE
  5
176
330
17
100
AcDbEntity
  8
0
100
AcDbLine
 10
-69.91609088467658
 20
-141.26730550781605
 30
0.0
 11
-72.54374471566665
 21
-140.78134643071184
 31
0.0
  0
LINE
  5
177
330
17
100
AcDbEntity
  8
0
100
AcDbLine
 10
-72.54374471566665
 20
-140.78134643071184
 30
0.0
 11
-75.1545084692586
 21
-140.20536751723432
 31
0.0
  0
LINE
  5
178
330
17
100
AcDbEntity
  8
0
100
AcDbLine
 10
-75.1545084692586
 20
-140.20536751723432
 30
0.0
 11
-77.74285258675037
 21
-139.5293640055193
 31
0.0
  0
LINE
  5
179
330
17
100
AcDbEntity
  8
0
100
AcDbLine
 10
-77.74285258675037
 20
-139.5293640055193
 30
0.0
 11
-80.30322406716961
 21
-138.75219767343518
 31
0.0
  0
LINE
  5
17A
330
17
100
AcDbEntity
  8
0
100
AcDbLine
 10
-80.30322406716961
 20
-138.75219767343518
 30
0.0
 11
-82.83006969245272
 21
-137.87281240896502
 31
0.0
  0
LINE
  5
17B
330
17
100
AcDbEntity
  8
0
100
AcDbLine
 10
-82.83006969245272
 20
-137.87281240896502
 30
0.0
 11
-85.31783627727803
 21
-136.89015216311319
 31
0.0
  0
LINE
  5
17C
330
17
100
AcDbEntity
  8
0
100
AcDbLine
 10
-85.31783627727803
 20
-136.89015216311319
 30
0.0
 11
-87.76140985277442
 21
-135.8040062873306
 31
0.0
  0
LINE
  5
17D
330
17
100
AcDbEntity
  8
0
100
AcDbLine
 10
-87.76140985277442
 20
-135.8040062873306
 30
0.0
 11
-90.15721680730535
 21
-134.61712900082836
 31
0.0
  0
LINE
  5
17E
330
17
100
AcDbEntity
  8
0
100
AcDbLine
 10
-90.15721680730535
 20
-134.61712900082836
 30
0.0
 11
-92.50202101904961
 21
-133.33292412061888
 31
0.0
  0
LINE
  5
17F
330
17
100
AcDbEntity
  8
0
100
AcDbLine
 10
-92.50202101904961
 20
-133.33292412061888
 30
0.0
 11
-94.79258636618603
 21
-131.95479546371462
 31
0.0
  0
LINE
  5
180
330
17
100
AcDbEntity
  8
0
100
AcDbLine
 10
-94.79258636618603
 20
-131.95479546371462
 30
0.0
 11
-97.02567403702385
 21
-130.48614412969084
 31
0.0
  0
LINE
  5
181
330
17
100
AcDbEntity
  8
0
100
AcDbLine
 10
-97.02567403702385
 20
-130.48614412969084
 30
0.0
 11
-99.19711406417171
 21
-128.9294305193098
 31
0.0
  0
LINE
  5
182
330
17
100
AcDbEntity
  8
0
100
AcDbLine
 10
-99.19711406417171
 20
-128.9294305193098
 30
0.0
 11
-101.3004452265423
 21
-127.28480029732248
 31
0.0
  0
LINE
  5
183
330
17
100
AcDbEntity
  8
0
100
AcDbLine
 10
-101.3004452265423
 20
-127.28480029732248
 30
0.0
 11
-103.32886020034823
 21
-125.55204947868577
 31
0.0
  0
LINE
  5
184
330
17
100
AcDbEntity
  8
0
100
AcDbLine
 10
-103.32886020034823
 20
-125.55204947868577
 30
0.0
 11
-105.2758168087399
 21
-123.73119851354996
 31
0.0
  0
LINE
  5
185
330
17
100
AcDbEntity
  8
0
100
AcDbLine
 10
-105.2758168087399
 20
-123.73119851354996
 30
0.0
 11
-107.1432778951149
 21
-121.82946697675298
 31
0.0
  0
LINE
  5
186
330
17
100
AcDbEntity
  8
0
100
AcDbLine
 10
-107.1432778951149
 20
-121.82946697675298
 30
0.0
 11
-108.94331207418067
 21
-119.8626285330241
 31
0.0
  0
LINE
  5
187
330
17
100
AcDbEntity
  8
0
100
AcDbLine
 10
-108.94331207418067
 20
-119.8626285330241
 30
0.0
 11
-110.68857621105121
 21
-117.84695473513843
 31
0.0
  0
LINE
  5
188
330
17
100
AcDbEntity
  8
0
100
AcDbLine
 10
-110.68857621105121
 20
-117.84695473513843
 30
0.0
 11
-112.39077400810733
 21
-115.79679931098207
 31
0.0
  0
LINE
  5
189
330
17
100
AcDbEntity
  8
0
100
AcDbLine
 10
-112.39077400810733
 20
-115.79679931098207
 30
0.0
 11
-114.05816724936028
 21
-113.719590626711
 31
0.0
  0
LINE
  5
18A
330
17
100
AcDbEntity
  8
0
100
AcDbLine
 10
-114.05816724936028
 20
-113.719590626711
 30
0.0
 11
-115.69824106757788
 21
-111.62119437609283
 31
0.0
  0
LINE
  5
18B
330
17
100
AcDbEntity
  8
0
100
AcDbLine
 10
-115.69824106757788
 20
-111.62119437609283
 30
0.0
 11
-117.3184805955279
 21
-109.50747625289529
 31
0.0
  0
LINE
  5
18C
330
17
100
AcDbEntity
  8
0
100
AcDbLine
 10
-117.3184805955279
 20
-109.50747625289529
 30
0.0
 11
-118.9263709659782
 21
-107.38430195088596
 31
0.0
  0
LINE
  5
18D
330
17
100
AcDbEntity
  8
0
100
AcDbLine
 10
-118.9263709659782
 20
-107.38430195088596
 30
0.0
 11
-120.52900789104541
 21
-105.25723607725695
 31
0.0
  0
LINE
  5
18E
330
17
100
AcDbEntity
  8
0
100
AcDbLine
 10
-120.52900789104541
 20
-105.25723607725695
 30
0.0
 11
-122.12815693281782
 21
-103.12772215159292
 31
0.0
  0
LINE
  5
18F
330
17
100
AcDbEntity
  8
0
100
AcDbLine
 10
-122.12815693281782
 20
-103.12772215159292
 30
0.0
 11
-123.72172057654794
 21
-100.99421689611098
 31
0.0
  0
LINE
  5
190
330
17
100
AcDbEntity
  8
0
100
AcDbLine
 10
-123.72172057654794
 20
-100.99421689611098
 30
0.0
 11
-125.30751486644473
 21
-98.85511019980363
 31
0.0
  0
LINE
  5
191
330
17
100
AcDbEntity
  8
0
100
AcDbLine
 10
-125.30751486644473
 20
-98.85511019980363
 30
0.0
 11
-126.88335584671712
 21
-96.70879195166334
 31
0.0
  0
LINE
  5
192
330
17
100
AcDbEntity
  8
0
100
AcDbLine
 10
-126.88335584671712
 20
-96.70879195166334
 30
0.0
 11
-128.4470988418468
 21
-94.55368350599178
 31
0.0
  0
LINE
  5
193
330
17
100
AcDbEntity
  8
0
100
AcDbLine
 10
-128.4470988418468
 20
-94.55368350599178
 30
0.0
 11
-129.99776831467352
 21
-92.38914275080506
 31
0.0
  0
LINE
  5
194
330
17
100
AcDbEntity
  8
0
100
AcDbLine
 10
-129.99776831467352
 20
-92.38914275080506
 30
0.0
 11
-131.5357278339188
 21
-90.21560025965483
 31
0.0
  0
LINE
  5
195
330
17
100
AcDbEntity
  8
0
100
AcDbLine
 10
-131.5357278339188
 20
-90.21560025965483
 30
0.0
 11
-133.06141443853292
 21
-88.03354545913258
 31
0.0
  0
LINE
  5
196
330
17
100
AcDbEntity
  8
0
100
AcDbLine
 10
-133.06141443853292
 20
-88.03354545913258
 30
0.0
 11
-134.5752675227512
 21
-85.84346765777664
 31
0.0
  0
LINE
  5
197
330
17
100
AcDbEntity
  8
0
100
AcDbLine
 10
-134.5752675227512
 20
-85.84346765777664
 30
0.0
 11
-136.07785943635878
 21
-83.64584950004476
 31
0.0
  0
LINE
  5
198
330
17
100
AcDbEntity
  8
0
100
AcDbLine
 10
-136.07785943635878
 20
-83.64584950004476
 30
0.0
 11
-137.56996394095697
 21
-81.44116353510636
 31
0.0
  0
LINE
  5
199
330
17
100
AcDbEntity
  8
0
100
AcDbLine
 10
-137.56996394095697
 20
-81.44116353510636
 30
0.0
 11
-139.05237158942458
 21
-79.22988147050802
 31
0.0
  0
LINE
  5
19A
330
17
100
AcDbEntity
  8
0
100
AcDbLine
 10
-139.05237158942458
 20
-79.22988147050802
 30
0.0
 11
-140.5258729346405
 21
-77.0124750137964
 31
0.0
  0
LINE
  5
19B
330
17
100
AcDbEntity
  8
0
100
AcDbLine
 10
-140.5258729346405
 20
-77.0124750137964
 30
0.0
 11
-141.99112972156794
 21
-74.78934705813221
 31
0.0
  0
LINE
  5
19C
330
17
100
AcDbEntity
  8
0
100
AcDbLine
 10
-141.99112972156794
 20
-74.78934705813221
 30
0.0
 11
-143.44652655891633
 21
-72.55968395860694
 31
0.0
  0
LINE
  5
19D
330
17
100
AcDbEntity
  8
0
100
AcDbLine
 10
-143.44652655891633
 20
-72.55968395860694
 30
0.0
 11
-144.88849699448573
 21
-70.32162973484895
 31
0.0
  0
LINE
  5
19E
330
17
100
AcDbEntity
  8
0
100
AcDbLine
 10
-144.88849699448573
 20
-70.32162973484895
 30
0.0
 11
-146.3134114718959
 21
-68.07329469368737
 31
0.0
  0
LINE
  5
19F
330
17
100
AcDbEntity
  8
0
100
AcDbLine
 10
-146.3134114718959
 20
-68.07329469368737
 30
0.0
 11
-147.71764043476668
 21
-65.8127891419512
 31
0.0
  0
LINE
  5
1A0
330
17
100
AcDbEntity
  8
0
100
AcDbLine
 10
-147.71764043476668
 20
-65.8127891419512
 30
0.0
 11
-149.0986889894964
 21
-63.538840305135764
 31
0.0
  0
LINE
  5
1A1
330
17
100
AcDbEntity
  8
0
100
AcDbLine
 10
-149.0986889894964
 20
-63.538840305135764
 30
0.0
 11
-150.46386513603576
 21
-61.25550526367691
 31
0.0
  0
LINE
  5
1A2
330
17
100
AcDbEntity
  8
0
100
AcDbLine
 10
-150.46386513603576
 20
-61.25550526367691
 30
0.0
 11
-151.82549359699615
 21
-58.96956870123429
 31
0.0
  0
LINE
  5
1A3
330
17
100
AcDbEntity
  8
0
100
AcDbLine
 10
-151.82549359699615
 20
-58.96956870123429
 30
0.0
 11
-153.19593964731078
 21
-56.68783734985496
 31
0.0
  0
LINE
  5
1A4
330
17
100
AcDbEntity
  8
0
100
AcDbLine
 10
-153.19593964731078
 20
-56.68783734985496
 30
0.0
 11
-154.58756856191297
 21
-54.41711794158593
 31
0.0
  0
LINE
  5
1A5
330
17
100
AcDbEntity
  8
0
100
AcDbLine
 10
-154.58756856191297
 20
-54.41711794158593
 30
0.0
 11
-156.01279165725606
 21
-52.16448848665694
 31
0.0
  0
LINE
  5
1A6
330
17
100
AcDbEntity
  8
0
100
AcDbLine
 10
-156.01279165725606
 20
-52.16448848665694
 30
0.0
 11
-157.4846598681048
 21
-49.94079564788093
 31
0.0
  0
LINE
  5
1A7
330
17
100
AcDbEntity
  8
0
100
AcDbLine
 10
-157.4846598681048
 20
-49.94079564788093
 30
0.0
 11
-159.01669245316612
 21
-47.75964546847319
 31
0.0
  0
LINE
  5
1A8
330
17
100
AcDbEntity
  8
0
100
AcDbLine
 10
-159.01669245316612
 20
-47.75964546847319
 30
0.0
 11
-160.62241940690419
 21
-45.63470724709281
 31
0.0
  0
LINE
  5
1A9
330
17
100
AcDbEntity
  8
0
100
AcDbLine
 10
-160.62241940690419
 20
-45.63470724709281
 30
0.0
 11
-162.31535715544757
 21
-43.579641181030354
 31
0.0
  0
LINE
  5
1AA
330
17
100
AcDbEntity
  8
0
100
AcDbLine
 10
-162.31535715544757
 20
-43.579641181030354
 30
0.0
 11
-164.10335307540916
 21
-41.60430478252828
 31
0.0
  0
LINE
  5
1AB
330
17
100
AcDbEntity
  8
0
100
AcDbLine
 10
-164.10335307540916
 20
-41.60430478252828
 30
0.0
 11
-165.97984061754914
 21
-39.708886990609805
 31
0.0
  0
LINE
  5
1AC
330
17
100
AcDbEntity
  8
0
100
AcDbLine
 10
-165.97984061754914
 20
-39.708886990609805
 30
0.0
 11
-167.93599624109012
 21
-37.89206279950881
 31
0.0
  0
LINE
  5
1AD
330
17
100
AcDbEntity
  8
0
100
AcDbLine
 10
-167.93599624109012
 20
-37.89206279950881
 30
0.0
 11
-169.9634495467936
 21
-36.15287376760009
 31
0.0
  0
LINE
  5
1AE
330
17
100
AcDbEntity
  8
0
100
AcDbLine
 10
-169.9634495467936
 20
-36.15287376760009
 30
0.0
 11
-172.05741702024892
 21
-34.493263026480776
 31
0.0
  0
LINE
  5
1AF
330
17
100
AcDbEntity
  8
0
100
AcDbLine
 10
-172.05741702024892
 20
-34.493263026480776
 30
0.0
 11
-174.21482084431983
 21
-32.916553513840086
 31
0.0
  0
LINE
  5
1B0
330
17
100
AcDbEntity
  8
0
100
AcDbLine
 10
-174.21482084431983
 20
-32.916553513840086
 30
0.0
 11
-176.43259358694112
 21
-31.426076568262506
 31
0.0
  0
LINE
  5
1B1
330
17
100
AcDbEntity
  8
0
100
AcDbLine
 10
-176.43259358694112
 20
-31.426076568262506
 30
0.0
 11
-178.7076678160476
 21
-30.025163528332534
 31
0.0
  0
LINE
  5
1B2
330
17
100
AcDbEntity
  8
0
100
AcDbLine
 10
-178.7076678160476
 20
-30.025163528332534
 30
0.0
 11
-181.03692412711558
 21
-28.71696225871619
 31
0.0
  0
LINE
  5
1B3
330
17
100
AcDbEntity
  8
0
100
AcDbLine
 10
-181.03692412711558
 20
-28.71696225871619
 30
0.0
 11
-183.41664850247156
 21
-27.502521512205977
 31
0.0
  0
LINE
  5
1B4
330
17
100
AcDbEntity
  8
0
100
AcDbLine
 10
-183.41664850247156
 20
-27.502521512205977
 30
0.0
 11
-185.84274779736134
 21
-26.381551641734003
 31
0.0
  0
LINE
  5
1B5
330
17
100
AcDbEntity
  8
0
100
AcDbLine
 10
-185.84274779736134
 20
-26.381551641734003
 30
0.0
 11
-188.31112274712993
 21
-25.353741395671094
 31
0.0
  0
LINE
  5
1B6
330
17
100
AcDbEntity
  8
0
100
AcDbLine
 10
-188.31112274712993
 20
-25.353741395671094
 30
0.0
 11
-190.81767969385422
 21
-24.418864669288322
 31
0.0
  0
LINE
  5
1B7
330
17
100
AcDbEntity
  8
0
100
AcDbLine
 10
-190.81767969385422
 20
-24.418864669288322
 30
0.0
 11
-193.35849972686322
 21
-23.579349165359933
 31
0.0
  0
LINE
  5
1B8
330
17
100
AcDbEntity
  8
0
100
AcDbLine
 10
-193.35849972686322
 20
-23.579349165359933
 30
0.0
 11
-195.92986869141563
 21
-22.840732122378196
 31
0.0
  0
LINE
  5
1B9
330
17
100
AcDbEntity
  8
0
100
AcDbLine
 10
-195.92986869141563
 20
-22.840732122378196
 30
0.0
 11
-198.52808408852906
 21
-22.208727789576912
 31
0.0
  0
LINE
  5
1BA
330
17
100
AcDbEntity
  8
0
100
AcDbLine
 10
-198.52808408852906
 20
-22.208727789576912
 30
0.0
 11
-201.149440040181
 21
-21.688994702650223
 31
0.0
  0
LINE
  5
1BB
330
17
100
AcDbEntity
  8
0
100
AcDbLine
 10
-201.149440040181
 20
-21.688994702650223
 30
0.0
 11
-203.78967156707392
 21
-21.277972948073746
 31
0.0
  0
LINE
  5
1BC
330
17
100
AcDbEntity
  8
0
100
AcDbLine
 10
-203.78967156707392
 20
-21.277972948073746
 30
0.0
 11
-206.4433358467327
 21
-20.952682360558207
 31
0.0
  0
LINE
  5
1BD
330
17
100
AcDbEntity
  8
0
100
AcDbLine
 10
-206.4433358467327
 20
-20.952682360558207
 30
0.0
 11
-209.1048409419487
 21
-20.687684174448183
 31
0.0
  0
LINE
  5
1BE
330
17
100
AcDbEntity
  8
0
100
AcDbLine
 10
-209.1048409419487
 20
-20.687684174448183
 30
0.0
 11
-211.76921171127503
 21
-20.45984884698436
 31
0.0
  0
LINE
  5
1BF
330
17
100
AcDbEntity
  8
0
100
AcDbLine
 10
-211.76921171127503
 20
-20.45984884698436
 30
0.0
 11
-214.43493926837218
 21
-20.25902415489101
 31
0.0
  0
LINE
  5
1C0
330
17
100
AcDbEntity
  8
0
100
AcDbLine
 10
-214.43493926837218
 20
-20.25902415489101
 30
0.0
 11
-217.10172467595694
 21
-20.07958780560378
 31
0.0
  0
LINE
  5
1C1
330
17
100
AcDbEntity
  8
0
100
AcDbLine
 10
-167.7497626618789
 20
19.179477771713284
 30
0.0
 11
-168.13108910392617
 21
18.924113299736682
 31
0.0
  0
LINE
  5
1C2
330
17
100
AcDbEntity
  8
0
100
AcDbLine
 10
-168.13108910392617
 20
18.924113299736682
 30
0.0
 11
-168.5072285002023
 21
18.661168393869783
 31
0.0
  0
LINE
  5
1C3
330
17
100
AcDbEntity
  8
0
100
AcDbLine
 10
-168.5072285002023
 20
18.661168393869783
 30
0.0
 11
-168.878030180513
 21
18.390748381978884
 31
0.0
  0
LINE
  5
1C4
330
17
100
AcDbEntity
  8
0
100
AcDbLine
 10
-168.878030180513
 20
18.390748381978884
 30
0.0
 11
-169.24334561279346
 21
18.112961586234263
 31
0.0
  0
LINE
  5
1C5
330
17
100
AcDbEntity
  8
0
100
AcDbLine
 10
-169.24334561279346
 20
18.112961586234263
 30
0.0
 11
-169.6030284626057
 21
17.82791927971947
 31
0.0
  0
LINE
  5
1C6
330
17
100
AcDbEntity
  8
0
100
AcDbLine
 10
-169.6030284626057
 20
17.82791927971947
 30
0.0
 11
-169.95693465175586
 21
17.535735641858743
 31
0.0
  0
LINE
  5
1C7
330
17
100
AcDbEntity
  8
0
100
AcDbLine
 10
-169.95693465175586
 20
17.535735641858743
 30
0.0
 11
-170.30492241600763
 21
17.236527712680072
 31
0.0
  0
LINE
  5
1C8
330
17
100
AcDbEntity
  8
0
100
AcDbLine
 10
-170.30492241600763
 20
17.236527712680072
 30
0.0
 11
-170.64685236186867
 21
16.930415345932534
 31
0.0
  0
LINE
  5
1C9
330
17
100
AcDbEntity
  8
0
100
AcDbLine
 10
-170.64685236186867
 20
16.930415345932534
 30
0.0
 11
-170.98258752242762
 21
16.617521161076407
 31
0.0
  0
LINE
  5
1CA
330
17
100
AcDbEntity
  8
0
100
AcDbLine
 10
-170.98258752242762
 20
16.617521161076407
 30
0.0
 11
-171.31199341221878
 21
16.297970494165504
 31
0.0
  0
LINE
  5
1CB
330
17
100
AcDbEntity
  8
0
100
AcDbLine
 10
-171.31199341221878
 20
16.297970494165504
 30
0.0
 11
-171.63493808109317
 21
15.971891347641293
 31
0.0
  0
LINE
  5
1CC
330
17
100
AcDbEntity
  8
0
100
AcDbLine
 10
-171.63493808109317
 20
15.971891347641293
 30
0.0
 11
-171.95129216707352
 21
15.639414339058973
 31
0.0
  0
LINE
  5
1CD
330
17
100
AcDbEntity
  8
0
100
AcDbLine
 10
-171.95129216707352
 20
15.639414339058973
 30
0.0
 11
-172.26092894817316
 21
15.300672648765941
 31
0.0
  0
LINE
  5
1CE
330
17
100
AcDbEntity
  8
0
100
AcDbLine
 10
-172.26092894817316
 20
15.300672648765941
 30
0.0
 11
-172.56372439315678
 21
14.955801966553757
 31
0.0
  0
LINE
  5
1CF
330
17
100
AcDbEntity
  8
0
100
AcDbLine
 10
-172.56372439315678
 20
14.955801966553757
 30
0.0
 11
-172.85955721122374
 21
14.604940437304887
 31
0.0
  0
LINE
  5
1D0
330
17
100
AcDbEntity
  8
0
100
AcDbLine
 10
-172.85955721122374
 20
14.604940437304887
 30
0.0
 11
-173.14830890059366
 21
14.248228605655925
 31
0.0
  0
LINE
  5
1D1
330
17
100
AcDbEntity
  8
0
100
AcDbLine
 10
-173.14830890059366
 20
14.248228605655925
 30
0.0
 11
-173.42986379597437
 21
13.885809359699717
 31
0.0
  0
LINE
  5
1D2
330
17
100
AcDbEntity
  8
0
100
AcDbLine
 10
-173.42986379597437
 20
13.885809359699717
 30
0.0
 11
-173.70410911489432
 21
13.51782787374856
 31
0.0
  0
LINE
  5
1D3
330
17
100
AcDbEntity
  8
0
100
AcDbLine
 10
-173.70410911489432
 20
13.51782787374856
 30
0.0
 11
-173.97093500287963
 21
13.144431550181794
 31
0.0
  0
LINE
  5
1D4
330
17
100
AcDbEntity
  8
0
100
AcDbLine
 10
-173.97093500287963
 20
13.144431550181794
 30
0.0
 11
-174.23023457745862
 21
12.765769960400792
 31
0.0
  0
LINE
  5
1D5
330
17
100
AcDbEntity
  8
0
100
AcDbLine
 10
-174.23023457745862
 20
12.765769960400792
 30
0.0
 11
-174.48190397097565
 21
12.381994784915078
 31
0.0
  0
LINE
  5
1D6
330
17
100
AcDbEntity
  8
0
100
AcDbLine
 10
-174.48190397097565
 20
12.381994784915078
 30
0.0
 11
-174.72584237219752
 21
11.993259752583738
 31
0.0
  0
LINE
  5
1D7
330
17
100
AcDbEntity
  8
0
100
AcDbLine
 10
-174.72584237219752
 20
11.993259752583738
 30
0.0
 11
-174.9619520666953
 21
11.599720579036193
 31
0.0
  0
LINE
  5
1D8
330
17
100
AcDbEntity
  8
0
100
AcDbLine
 10
-174.9619520666953
 20
11.599720579036193
 30
0.0
 11
-175.19013847598583
 21
11.201534904297127
 31
0.0
  0
LINE
  5
1D9
330
17
100
AcDbEntity
  8
0
100
AcDbLine
 10
-175.19013847598583
 20
11.201534904297127
 30
0.0
 11
-175.41031019541722
 21
10.798862229640724
 31
0.0
  0
LINE
  5
1DA
330
17
100
AcDbEntity
  8
0
100
AcDbLine
 10
-175.41031019541722
 20
10.798862229640724
 30
0.0
 11
-175.62237903078253
 21
10.391863853699087
 31
0.0
  0
LINE
  5
1DB
330
17
100
AcDbEntity
  8
0
100
AcDbLine
 10
-175.62237903078253
 20
10.391863853699087
 30
0.0
 11
-175.8262600336479
 21
9.980702807850953
 31
0.0
  0
LINE
  5
1DC
330
17
100
AcDbEntity
  8
0
100
AcDbLine
 10
-175.8262600336479
 20
9.980702807850953
 30
0.0
 11
-176.0218715353804
 21
9.565543790916143
 31
0.0
  0
LINE
  5
1DD
330
17
100
AcDbEntity
  8
0
100
AcDbLine
 10
-176.0218715353804
 20
9.565543790916143
 30
0.0
 11
-176.20913517986185
 21
9.146553103182088
 31
0.0
  0
LINE
  5
1DE
330
17
100
AcDbEntity
  8
0
100
AcDbLine
 10
-176.20913517986185
 20
9.146553103182088
 30
0.0
 11
-176.3879759548761
 21
8.723898579789038
 31
0.0
  0
LINE
  5
1DF
330
17
100
AcDbEntity
  8
0
100
AcDbLine
 10
-176.3879759548761
 20
8.723898579789038
 30
0.0
 11
-176.5583222221567
 21
8.297749523500169
 31
0.0
  0
LINE
  5
1E0
330
17
100
AcDbEntity
  8
0
100
AcDbLine
 10
-176.5583222221567
 20
8.297749523500169
 30
0.0
 11
-176.7201057460829
 21
7.868276636884092
 31
0.0
  0
LINE
  5
1E1
330
17
100
AcDbEntity
  8
0
100
AcDbLine
 10
-176.7201057460829
 20
7.868276636884092
 30
0.0
 11
-176.87326172101294
 21
7.435651953936454
 31
0.0
  0
LINE
  5
1E2
330
17
100
AcDbEntity
  8
0
100
AcDbLine
 10
-176.87326172101294
 20
7.435651953936454
 30
0.0
 11
-177.01772879724314
 21
7.000048771168208
 31
0.0
  0
LINE
  5
1E3
330
17
100
AcDbEntity
  8
0
100
AcDbLine
 10
-177.01772879724314
 20
7.000048771168208
 30
0.0
 11
-177.15344910558284
 21
6.5616415781883175
 31
0.0
  0
LINE
  5
1E4
330
17
100
AcDbEntity
  8
0
100
AcDbLine
 10
-177.15344910558284
 20
6.5616415781883175
 30
0.0
 11
-177.28036828053504
 21
6.120605987808396
 31
0.0
  0
LINE
  5
1E5
330
17
100
AcDbEntity
  8
0
100
AcDbLine
 10
-177.28036828053504
 20
6.120605987808396
 30
0.0
 11
-177.39843548207355
 21
5.677118665697394
 31
0.0
  0
LINE
  5
1E6
330
17
100
AcDbEntity
  8
0
100
AcDbLine
 10
-177.39843548207355
 20
5.677118665697394
 30
0.0
 11
-177.50760341600812
 21
5.231357259614757
 31
0.0
  0
LINE
  5
1E7
330
17
100
AcDbEntity
  8
0
100
AcDbLine
 10
-177.50760341600812
 20
5.231357259614757
 30
0.0
 11
-177.6078283529289
 21
4.783500328249886
 31
0.0
  0
LINE
  5
1E8
330
17
100
AcDbEntity
  8
0
100
AcDbLine
 10
-177.6078283529289
 20
4.783500328249886
 30
0.0
 11
-177.6990701457232
 21
4.33372726969701
 31
0.0
  0
LINE
  5
1E9
330
17
100
AcDbEntity
  8
0
100
AcDbLine
 10
-177.6990701457232
 20
4.33372726969701
 30
0.0
 11
-177.78129224565728
 21
3.8822182495936066
 31
0.0
  0
LINE
  5
1EA
330
17
100
AcDbEntity
  8
0
100
AcDbLine
 10
-177.78129224565728
 20
3.8822182495936066
 30
0.0
 11
-177.8544617170167
 21
3.429154128951381
 31
0.0
  0
LINE
  5
1EB
330
17
100
AcDbEntity
  8
0
100
AcDbLine
 10
-177.8544617170167
 20
3.429154128951381
 30
0.0
 11
-177.9185492502992
 21
2.974716391708872
 31
0.0
  0
LINE
  5
1EC
330
17
100
AcDbEntity
  8
0
100
AcDbLine
 10
-177.9185492502992
 20
2.974716391708872
 30
0.0
 11
-177.97352917395543
 21
2.519087072034351
 31
0.0
  0
LINE
  5
1ED
330
17
100
AcDbEntity
  8
0
100
AcDbLine
 10
-177.97352917395543
 20
2.519087072034351
 30
0.0
 11
-178.01937946467203
 21
2.06244868140832
 31
0.0
  0
LINE
  5
1EE
330
17
100
AcDbEntity
  8
0
100
AcDbLine
 10
-178.01937946467203
 20
2.06244868140832
 30
0.0
 11
-178.05608175619366
 21
1.6049841355150096
 31
0.0
  0
LINE
  5
1EF
330
17
100
AcDbEntity
  8
0
100
AcDbLine
 10
-178.05608175619366
 20
1.6049841355150096
 30
0.0
 11
-178.08362134667982
 21
1.1468766809716644
 31
0.0
  0
LINE
  5
1F0
330
17
100
AcDbEntity
  8
0
100
AcDbLine
 10
-178.08362134667982
 20
1.1468766809716644
 30
0.0
 11
-178.1019872045941
 21
0.6883098219255703
 31
0.0
  0
LINE
  5
1F1
330
17
100
AcDbEntity
  8
0
100
AcDbLine
 10
-178.1019872045941
 20
0.6883098219255703
 30
0.0
 11
-178.11117197312308
 21
0.22946724654771863
 31
0.0
  0
LINE
  5
1F2
330
17
100
AcDbEntity
  8
0
100
AcDbLine
 10
-178.11117197312308
 20
0.22946724654771863
 30
0.0
 11
-178.11117197312308
 21
-0.22946724654724224
 31
0.0
  0
LINE
  5
1F3
330
17
100
AcDbEntity
  8
0
100
AcDbLine
 10
-178.11117197312308
 20
-0.22946724654724224
 30
0.0
 11
-178.1019872045941
 21
-0.6883098219250939
 31
0.0
  0
LINE
  5
1F4
330
17
100
AcDbEntity
  8
0
100
AcDbLine
 10
-178.1019872045941
 20
-0.6883098219250939
 30
0.0
 11
-178.08362134667982
 21
-1.1468766809711883
 31
0.0
  0
LINE
  5
1F5
330
17
100
AcDbEntity
  8
0
100
AcDbLine
 10
-178.08362134667982
 20
-1.1468766809711883
 30
0.0
 11
-178.05608175619366
 21
-1.6049841355145333
 31
0.0
  0
LINE
  5
1F6
330
17
100
AcDbEntity
  8
0
100
AcDbLine
 10
-178.05608175619366
 20
-1.6049841355145333
 30
0.0
 11
-178.01937946467203
 21
-2.0624486814078438
 31
0.0
  0
LINE
  5
1F7
330
17
100
AcDbEntity
  8
0
100
AcDbLine
 10
-178.01937946467203
 20
-2.0624486814078438
 30
0.0
 11
-177.97352917395543
 21
-2.519087072033875
 31
0.0
  0
LINE
  5
1F8
330
17
100
AcDbEntity
  8
0
100
AcDbLine
 10
-177.97352917395543
 20
-2.519087072033875
 30
0.0
 11
-177.91854925029924
 21
-2.974716391708396
 31
0.0
  0
LINE
  5
1F9
330
17
100
AcDbEntity
  8
0
100
AcDbLine
 10
-177.91854925029924
 20
-2.974716391708396
 30
0.0
 11
-177.8544617170167
 21
-3.4291541289509047
 31
0.0
  0
LINE
  5
1FA
330
17
100
AcDbEntity
  8
0
100
AcDbLine
 10
-177.8544617170167
 20
-3.4291541289509047
 30
0.0
 11
-177.7812922456573
 21
-3.88221824959313
 31
0.0
  0
LINE
  5
1FB
330
17
100
AcDbEntity
  8
0
100
AcDbLine
 10
-177.7812922456573
 20
-3.88221824959313
 30
0.0
 11
-177.6990701457232
 21
-4.333727269696535
 31
0.0
  0
LINE
  5
1FC
330
17
100
AcDbEntity
  8
0
100
AcDbLine
 10
-177.6990701457232
 20
-4.333727269696535
 30
0.0
 11
-177.6078283529289
 21
-4.783500328249412
 31
0.0
  0
LINE
  5
1FD
330
17
100
AcDbEntity
  8
0
100
AcDbLine
 10
-177.6078283529289
 20
-4.783500328249412
 30
0.0
 11
-177.50760341600815
 21
-5.231357259614263
 31
0.0
  0
LINE
  5
1FE
330
17
100
AcDbEntity
  8
0
100
AcDbLine
 10
-177.50760341600815
 20
-5.231357259614263
 30
0.0
 11
-177.39843548207358
 21
-5.677118665696921
 31
0.0
  0
LINE
  5
1FF
330
17
100
AcDbEntity
  8
0
100
AcDbLine
 10
-177.39843548207358
 20
-5.677118665696921
 30
0.0
 11
-177.28036828053504
 21
-6.120605987807924
 31
0.0
  0
LINE
  5
200
330
17
100
AcDbEntity
  8
0
100
AcDbLine
 10
-177.28036828053504
 20
-6.120605987807924
 30
0.0
 11
-177.15344910558284
 21
-6.5616415781878645
 31
0.0
  0
LINE
  5
201
330
17
100
AcDbEntity
  8
0
100
AcDbLine
 10
-177.15344910558284
 20
-6.5616415781878645
 30
0.0
 11
-177.01772879724317
 21
-7.000048771167735
 31
0.0
  0
LINE
  5
202
330
17
100
AcDbEntity
  8
0
100
AcDbLine
 10
-177.01772879724317
 20
-7.000048771167735
 30
0.0
 11
-176.87326172101297
 21
-7.435651953935963
 31
0.0
  0
LINE
  5
203
330
17
100
AcDbEntity
  8
0
100
AcDbLine
 10
-176.87326172101297
 20
-7.435651953935963
 30
0.0
 11
-176.72010574608294
 21
-7.86827663688362
 31
0.0
  0
LINE
  5
204
330
17
100
AcDbEntity
  8
0
100
AcDbLine
 10
-176.72010574608294
 20
-7.86827663688362
 30
0.0
 11
-176.55832222215673
 21
-8.297749523499697
 31
0.0
  0
LINE
  5
205
330
17
100
AcDbEntity
  8
0
100
AcDbLine
 10
-176.55832222215673
 20
-8.297749523499697
 30
0.0
 11
-176.3879759548761
 21
-8.723898579788566
 31
0.0
  0
LINE
  5
206
330
17
100
AcDbEntity
  8
0
100
AcDbLine
 10
-176.3879759548761
 20
-8.723898579788566
 30
0.0
 11
-176.20913517986187
 21
-9.146553103181617
 31
0.0
  0
LINE
  5
207
330
17
100
AcDbEntity
  8
0
100
AcDbLine
 10
-176.20913517986187
 20
-9.146553103181617
 30
0.0
 11
-176.02187153538043
 21
-9.56554379091567
 31
0.0
  0
LINE
  5
208
330
17
100
AcDbEntity
  8
0
100
AcDbLine
 10
-176.02187153538043
 20
-9.56554379091567
 30
0.0
 11
-175.82626003364794
 21
-9.980702807850482
 31
0.0
  0
LINE
  5
209
330
17
100
AcDbEntity
  8
0
100
AcDbLine
 10
-175.82626003364794
 20
-9.980702807850482
 30
0.0
 11
-175.62237903078255
 21
-10.391863853698618
 31
0.0
  0
LINE
  5
20A
330
17
100
AcDbEntity
  8
0
100
AcDbLine
 10
-175.62237903078255
 20
-10.391863853698618
 30
0.0
 11
-175.41031019541725
 21
-10.798862229640255
 31
0.0
  0
LINE
  5
20B
330
17
100
AcDbEntity
  8
0
100
AcDbLine
 10
-175.41031019541725
 20
-10.798862229640255
 30
0.0
 11
-175.19013847598586
 21
-11.201534904296656
 31
0.0
  0
LINE
  5
20C
330
17
100
AcDbEntity
  8
0
100
AcDbLine
 10
-175.19013847598586
 20
-11.201534904296656
 30
0.0
 11
-174.96195206669532
 21
-11.59972057903572
 31
0.0
  0
LINE
  5
20D
330
17
100
AcDbEntity
  8
0
100
AcDbLine
 10
-174.96195206669532
 20
-11.59972057903572
 30
0.0
 11
-174.72584237219755
 21
-11.993259752583265
 31
0.0
  0
LINE
  5
20E
330
17
100
AcDbEntity
  8
0
100
AcDbLine
 10
-174.72584237219755
 20
-11.993259752583265
 30
0.0
 11
-174.48190397097568
 21
-12.381994784914609
 31
0.0
  0
LINE
  5
20F
330
17
100
AcDbEntity
  8
0
100
AcDbLine
 10
-174.48190397097568
 20
-12.381994784914609
 30
0.0
 11
-174.23023457745865
 21
-12.765769960400325
 31
0.0
  0
LINE
  5
210
330
17
100
AcDbEntity
  8
0
100
AcDbLine
 10
-174.23023457745865
 20
-12.765769960400325
 30
0.0
 11
-173.97093500287966
 21
-13.144431550181325
 31
0.0
  0
LINE
  5
211
330
17
100
AcDbEntity
  8
0
100
AcDbLine
 10
-173.97093500287966
 20
-13.144431550181325
 30
0.0
 11
-173.70410911489435
 21
-13.517827873748093
 31
0.0
  0
LINE
  5
212
330
17
100
AcDbEntity
  8
0
100
AcDbLine
 10
-173.70410911489435
 20
-13.517827873748093
 30
0.0
 11
-173.4298637959744
 21
-13.885809359699236
 31
0.0
  0
LINE
  5
213
330
17
100
AcDbEntity
  8
0
100
AcDbLine
 10
-173.4298637959744
 20
-13.885809359699236
 30
0.0
 11
-173.1483089005937
 21
-14.248228605655457
 31
0.0
  0
LINE
  5
214
330
17
100
AcDbEntity
  8
0
100
AcDbLine
 10
-173.1483089005937
 20
-14.248228605655457
 30
0.0
 11
-172.8595572112238
 21
-14.604940437304421
 31
0.0
  0
LINE
  5
215
330
17
100
AcDbEntity
  8
0
100
AcDbLine
 10
-172.8595572112238
 20
-14.604940437304421
 30
0.0
 11
-172.5637243931568
 21
-14.955801966553292
 31
0.0
  0
LINE
  5
216
330
17
100
AcDbEntity
  8
0
100
AcDbLine
 10
-172.5637243931568
 20
-14.955801966553292
 30
0.0
 11
-172.2609289481732
 21
-15.300672648765477
 31
0.0
  0
LINE
  5
217
330
17
100
AcDbEntity
  8
0
100
AcDbLine
 10
-172.2609289481732
 20
-15.300672648765477
 30
0.0
 11
-171.95129216707355
 21
-15.6394143390585
 31
0.0
  0
LINE
  5
218
330
17
100
AcDbEntity
  8
0
100
AcDbLine
 10
-171.95129216707355
 20
-15.6394143390585
 30
0.0
 11
-171.6349380810932
 21
-15.971891347640831
 31
0.0
  0
LINE
  5
219
330
17
100
AcDbEntity
  8
0
100
AcDbLine
 10
-171.6349380810932
 20
-15.971891347640831
 30
0.0
 11
-171.31199341221884
 21
-16.297970494165043
 31
0.0
  0
LINE
  5
21A
330
17
100
AcDbEntity
  8
0
100
AcDbLine
 10
-171.31199341221884
 20
-16.297970494165043
 30
0.0
 11
-170.98258752242765
 21
-16.617521161075953
 31
0.0
  0
LINE
  5
21B
330
17
100
AcDbEntity
  8
0
100
AcDbLine
 10
-170.98258752242765
 20
-16.617521161075953
 30
0.0
 11
-170.64685236186872
 21
-16.930415345932076
 31
0.0
  0
LINE
  5
21C
330
17
100
AcDbEntity
  8
0
100
AcDbLine
 10
-170.64685236186872
 20
-16.930415345932076
 30
0.0
 11
-170.30492241600766
 21
-17.23652771267962
 31
0.0
  0
LINE
  5
21D
330
17
100
AcDbEntity
  8
0
100
AcDbLine
 10
-170.30492241600766
 20
-17.23652771267962
 30
0.0
 11
-169.95693465175592
 21
-17.535735641858277
 31
0.0
  0
LINE
  5
21E
330
17
100
AcDbEntity
  8
0
100
AcDbLine
 10
-169.95693465175592
 20
-17.535735641858277
 30
0.0
 11
-169.60302846260575
 21
-17.827919279719012
 31
0.0
  0
LINE
  5
21F
330
17
100
AcDbEntity
  8
0
100
AcDbLine
 10
-169.60302846260575
 20
-17.827919279719012
 30
0.0
 11
-169.2433456127935
 21
-18.11296158623381
 31
0.0
  0
LINE
  5
220
330
17
100
AcDbEntity
  8
0
100
AcDbLine
 10
-169.2433456127935
 20
-18.11296158623381
 30
0.0
 11
-168.87803018051306
 21
-18.390748381978433
 31
0.0
  0
LINE
  5
221
330
17
100
AcDbEntity
  8
0
100
AcDbLine
 10
-168.87803018051306
 20
-18.390748381978433
 30
0.0
 11
-168.50722850020233
 21
-18.66116839386933
 31
0.0
  0
LINE
  5
222
330
17
100
AcDbEntity
  8
0
100
AcDbLine
 10
-168.50722850020233
 20
-18.66116839386933
 30
0.0
 11
-168.13108910392623
 21
-18.924113299736224
 31
0.0
  0
LINE
  5
223
330
17
100
AcDbEntity
  8
0
100
AcDbLine
 10
-168.13108910392623
 20
-18.924113299736224
 30
0.0
 11
-167.74976266187895
 21
-19.17947777171283
 31
0.0
  0
LINE
  5
224
330
17
100
AcDbEntity
  8
0
100
AcDbLine
 10
-15.999999999999812
 20
130.23063475732894
 30
0.0
 11
-18.0237888724398
 21
130.26810873444185
 31
0.0
  0
LINE
  5
225
330
17
100
AcDbEntity
  8
0
100
AcDbLine
 10
-18.0237888724398
 20
130.26810873444185
 30
0.0
 11
-20.047615639373817
 21
130.29037423442998
 31
0.0
  0
LINE
  5
226
330
17
100
AcDbEntity
  8
0
100
AcDbLine
 10
-20.047615639373817
 20
130.29037423442998
 30
0.0
 11
-22.071461212979298
 21
130.2974165630219
 31
0.0
  0
LINE
  5
227
330
17
100
AcDbEntity
  8
0
100
AcDbLine
 10
-22.071461212979298
 20
130.2974165630219
 30
0.0
 11
-24.09530650543368
 21
130.28922102594618
 31
0.0
  0
LINE
  5
228
330
17
100
AcDbEntity
  8
0
100
AcDbLine
 10
-24.09530650543368
 20
130.28922102594618
 30
0.0
 11
-26.11913242891439
 21
130.26577292893134
 31
0.0
  0
LINE
  5
229
330
17
100
AcDbEntity
  8
0
100
AcDbLine
 10
-26.11913242891439
 20
130.26577292893134
 30
0.0
 11
-28.14291989559888
 21
130.22705757770598
 31
0.0
  0
LINE
  5
22A
330
17
100
AcDbEntity
  8
0
100
AcDbLine
 10
-28.14291989559888
 20
130.22705757770598
 30
0.0
 11
-30.166649817664567
 21
130.17306027799862
 31
0.0
  0
LINE
  5
22B
330
17
100
AcDbEntity
  8
0
100
AcDbLine
 10
-30.166649817664567
 20
130.17306027799862
 30
0.0
 11
-32.19030310728889
 21
130.1037663355378
 31
0.0
  0
LINE
  5
22C
330
17
100
AcDbEntity
  8
0
100
AcDbLine
 10
-32.19030310728889
 20
130.1037663355378
 30
0.0
 11
-34.2138606766493
 21
130.01916105605213
 31
0.0
  0
LINE
  5
22D
330
17
100
AcDbEntity
  8
0
100
AcDbLine
 10
-34.2138606766493
 20
130.01916105605213
 30
0.0
 11
-36.2373034379232
 21
129.9192297452701
 31
0.0
  0
LINE
  5
22E
330
17
100
AcDbEntity
  8
0
100
AcDbLine
 10
-36.2373034379232
 20
129.9192297452701
 30
0.0
 11
-38.26060667364692
 21
129.80396002121864
 31
0.0
  0
LINE
  5
22F
330
17
100
AcDbEntity
  8
0
100
AcDbLine
 10
-38.26060667364692
 20
129.80396002121864
 30
0.0
 11
-40.281564996483276
 21
129.674173008278
 31
0.0
  0
LINE
  5
230
330
17
100
AcDbEntity
  8
0
100
AcDbLine
 10
-40.281564996483276
 20
129.674173008278
 30
0.0
 11
-42.29869618178884
 21
129.5301684680957
 31
0.0
  0
LINE
  5
231
330
17
100
AcDbEntity
  8
0
100
AcDbLine
 10
-42.29869618178884
 20
129.5301684680957
 30
0.0
 11
-44.31244456733299
 21
129.37140440158618
 31
0.0
  0
LINE
  5
232
330
17
100
AcDbEntity
  8
0
100
AcDbLine
 10
-44.31244456733299
 20
129.37140440158618
 30
0.0
 11
-46.323254490885084
 21
129.19733880966393
 31
0.0
  0
LINE
  5
233
330
17
100
AcDbEntity
  8
0
100
AcDbLine
 10
-46.323254490885084
 20
129.19733880966393
 30
0.0
 11
-48.33157029021449
 21
129.00742969324338
 31
0.0
  0
LINE
  5
234
330
17
100
AcDbEntity
  8
0
100
AcDbLine
 10
-48.33157029021449
 20
129.00742969324338
 30
0.0
 11
-50.33783630309057
 21
128.801135053239
 31
0.0
  0
LINE
  5
235
330
17
100
AcDbEntity
  8
0
100
AcDbLine
 10
-50.33783630309057
 20
128.801135053239
 30
0.0
 11
-52.342496867282684
 21
128.57791289056527
 31
0.0
  0
LINE
  5
236
330
17
100
AcDbEntity
  8
0
100
AcDbLine
 10
-52.342496867282684
 20
128.57791289056527
 30
0.0
 11
-54.346956505779595
 21
128.33720604147672
 31
0.0
  0
LINE
  5
237
330
17
100
AcDbEntity
  8
0
100
AcDbLine
 10
-54.346956505779595
 20
128.33720604147672
 30
0.0
 11
-56.365461950348106
 21
128.07915400207114
 31
0.0
  0
LINE
  5
238
330
17
100
AcDbEntity
  8
0
100
AcDbLine
 10
-56.365461950348106
 20
128.07915400207114
 30
0.0
 11
-58.4029063639686
 21
127.80602024719713
 31
0.0
  0
LINE
  5
239
330
17
100
AcDbEntity
  8
0
100
AcDbLine
 10
-58.4029063639686
 20
127.80602024719713
 30
0.0
 11
-60.459649211241214
 21
127.5203835797355
 31
0.0
  0
LINE
  5
23A
330
17
100
AcDbEntity
  8
0
100
AcDbLine
 10
-60.459649211241214
 20
127.5203835797355
 30
0.0
 11
-62.528670630175064
 21
127.22604436010721
 31
0.0
  0
LINE
  5
23B
330
17
100
AcDbEntity
  8
0
100
AcDbLine
 10
-62.528670630175064
 20
127.22604436010721
 30
0.0
 11
-64.5474291770844
 21
126.93126279643035
 31
0.0
  0
LINE
  5
23C
330
17
100
AcDbEntity
  8
0
100
AcDbLine
 10
-64.5474291770844
 20
126.93126279643035
 30
0.0
 11
-66.4840789098773
 21
126.63108092190808
 31
0.0
  0
LINE
  5
23D
330
17
100
AcDbEntity
  8
0
100
AcDbLine
 10
-66.4840789098773
 20
126.63108092190808
 30
0.0
 11
-68.31695490287063
 21
126.31816406110855
 31
0.0
  0
LINE
  5
23E
330
17
100
AcDbEntity
  8
0
100
AcDbLine
 10
-68.31695490287063
 20
126.31816406110855
 30
0.0
 11
-70.03657551643813
 21
125.9831055019679
 31
0.0
  0
LINE
  5
23F
330
17
100
AcDbEntity
  8
0
100
AcDbLine
 10
-70.03657551643813
 20
125.9831055019679
 30
0.0
 11
-71.69168049604279
 21
125.6105613589835
 31
0.0
  0
LINE
  5
240
330
17
100
AcDbEntity
  8
0
100
AcDbLine
 10
-71.69168049604279
 20
125.6105613589835
 30
0.0
 11
-73.30502140294008
 21
125.194907685979
 31
0.0
  0
LINE
  5
241
330
17
100
AcDbEntity
  8
0
100
AcDbLine
 10
-73.30502140294008
 20
125.194907685979
 30
0.0
 11
-74.89403810978658
 21
124.73170666361294
 31
0.0
  0
LINE
  5
242
330
17
100
AcDbEntity
  8
0
100
AcDbLine
 10
-74.89403810978658
 20
124.73170666361294
 30
0.0
 11
-76.4678912532584
 21
124.21862665317511
 31
0.0
  0
LINE
  5
243
330
17
100
AcDbEntity
  8
0
100
AcDbLine
 10
-76.4678912532584
 20
124.21862665317511
 30
0.0
 11
-78.01389947415029
 21
123.65846622521715
 31
0.0
  0
LINE
  5
244
330
17
100
AcDbEntity
  8
0
100
AcDbLine
 10
-78.01389947415029
 20
123.65846622521715
 30
0.0
 11
-79.53408864087412
 21
123.04984644817056
 31
0.0
  0
LINE
  5
245
330
17
100
AcDbEntity
  8
0
100
AcDbLine
 10
-79.53408864087412
 20
123.04984644817056
 30
0.0
 11
-81.0316660041668
 21
122.39107559873433
 31
0.0
  0
LINE
  5
246
330
17
100
AcDbEntity
  8
0
100
AcDbLine
 10
-81.0316660041668
 20
122.39107559873433
 30
0.0
 11
-82.51136657284562
 21
121.67975603416406
 31
0.0
  0
LINE
  5
247
330
17
100
AcDbEntity
  8
0
100
AcDbLine
 10
-82.51136657284562
 20
121.67975603416406
 30
0.0
 11
-83.97455492625883
 21
120.9156876139302
 31
0.0
  0
LINE
  5
248
330
17
100
AcDbEntity
  8
0
100
AcDbLine
 10
-83.97455492625883
 20
120.9156876139302
 30
0.0
 11
-85.4164329701381
 21
120.10200536513128
 31
0.0
  0
LINE
  5
249
330
17
100
AcDbEntity
  8
0
100
AcDbLine
 10
-85.4164329701381
 20
120.10200536513128
 30
0.0
 11
-86.8321146459477
 21
119.24188969578336
 31
0.0
  0
LINE
  5
24A
330
17
100
AcDbEntity
  8
0
100
AcDbLine
 10
-86.8321146459477
 20
119.24188969578336
 30
0.0
 11
-88.21671389515193
 21
118.33852101390251
 31
0.0
  0
LINE
  5
24B
330
17
100
AcDbEntity
  8
0
100
AcDbLine
 10
-88.21671389515193
 20
118.33852101390251
 30
0.0
 11
-89.56534465921504
 21
117.39507972750478
 31
0.0
  0
LINE
  5
24C
330
17
100
AcDbEntity
  8
0
100
AcDbLine
 10
-89.56534465921504
 20
117.39507972750478
 30
0.0
 11
-90.87312087960134
 21
116.41474624460626
 31
0.0
  0
LINE
  5
24D
330
17
100
AcDbEntity
  8
0
100
AcDbLine
 10
-90.87312087960134
 20
116.41474624460626
 30
0.0
 11
-92.13507445076168
 21
115.40076062618787
 31
0.0
  0
LINE
  5
24E
330
17
100
AcDbEntity
  8
0
100
AcDbLine
 10
-92.13507445076168
 20
115.40076062618787
 30
0.0
 11
-93.34366676017906
 21
114.357607887152
 31
0.0
  0
LINE
  5
24F
330
17
100
AcDbEntity
  8
0
100
AcDbLine
 10
-93.34366676017906
 20
114.357607887152
 30
0.0
 11
-94.5145507345138
 21
113.27087765271656
 31
0.0
  0
LINE
  5
250
330
17
100
AcDbEntity
  8
0
100
AcDbLine
 10
-94.5145507345138
 20
113.27087765271656
 30
0.0
 11
-95.67346468613242
 21
112.11841711965928
 31
0.0
  0
LINE
  5
251
330
17
100
AcDbEntity
  8
0
100
AcDbLine
 10
-95.67346468613242
 20
112.11841711965928
 30
0.0
 11
-96.84580419492936
 21
110.87846820904095
 31
0.0
  0
LINE
  5
252
330
17
100
AcDbEntity
  8
0
100
AcDbLine
 10
-96.84580419492936
 20
110.87846820904095
 30
0.0
 11
-98.04071410939221
 21
109.54804806091742
 31
0.0
  0
LINE
  5
253
330
17
100
AcDbEntity
  8
0
100
AcDbLine
 10
-98.04071410939221
 20
109.54804806091742
 30
0.0
 11
-99.25114896012967
 21
108.14297098947783
 31
0.0
  0
LINE
  5
254
330
17
100
AcDbEntity
  8
0
100
AcDbLine
 10
-99.25114896012967
 20
108.14297098947783
 30
0.0
 11
-100.4704984829529
 21
106.67857270590497
 31
0.0
  0
LINE
  5
255
330
17
100
AcDbEntity
  8
0
100
AcDbLine
 10
-100.4704984829529
 20
106.67857270590497
 30
0.0
 11
-101.69251477197531
 21
105.16959405151448
 31
0.0
  0
LINE
  5
256
330
17
100
AcDbEntity
  8
0
100
AcDbLine
 10
-101.69251477197531
 20
105.16959405151448
 30
0.0
 11
-102.91757078008527
 21
103.62092118537912
 31
0.0
  0
LINE
  5
257
330
17
100
AcDbEntity
  8
0
100
AcDbLine
 10
-102.91757078008527
 20
103.62092118537912
 30
0.0
 11
-104.14928635058676
 21
102.03413206878977
 31
0.0
  0
LINE
  5
258
330
17
100
AcDbEntity
  8
0
100
AcDbLine
 10
-104.14928635058676
 20
102.03413206878977
 30
0.0
 11
-105.39086500584656
 21
100.41170477940753
 31
0.0
  0
LINE
  5
259
330
17
100
AcDbEntity
  8
0
100
AcDbLine
 10
-105.39086500584656
 20
100.41170477940753
 30
0.0
 11
-106.64548859981564
 21
98.7567722441233
 31
0.0
  0
LINE
  5
25A
330
17
100
AcDbEntity
  8
0
100
AcDbLine
 10
-106.64548859981564
 20
98.7567722441233
 30
0.0
 11
-107.91172519932314
 21
97.0792463868397
 31
0.0
  0
LINE
  5
25B
330
17
100
AcDbEntity
  8
0
100
AcDbLine
 10
-107.91172519932314
 20
97.0792463868397
 30
0.0
 11
-109.1812359839241
 21
95.39120308210288
 31
0.0
  0
LINE
  5
25C
330
17
100
AcDbEntity
  8
0
100
AcDbLine
 10
-109.1812359839241
 20
95.39120308210288
 30
0.0
 11
-110.44520184382816
 21
93.70445004259929
 31
0.0
  0
LINE
  5
25D
330
17
100
AcDbEntity
  8
0
100
AcDbLine
 10
-110.44520184382816
 20
93.70445004259929
 30
0.0
 11
-111.69660127412484
 21
92.02779398979246
 31
0.0
  0
LINE
  5
25E
330
17
100
AcDbEntity
  8
0
100
AcDbLine
 10
-111.69660127412484
 20
92.02779398979246
 30
0.0
 11
-112.93675159130561
 21
90.35633470716152
 31
0.0
  0
LINE
  5
25F
330
17
100
AcDbEntity
  8
0
100
AcDbLine
 10
-112.93675159130561
 20
90.35633470716152
 30
0.0
 11
-114.16520648610852
 21
88.68837421652597
 31
0.0
  0
LINE
  5
260
330
17
100
AcDbEntity
  8
0
100
AcDbLine
 10
-114.16520648610852
 20
88.68837421652597
 30
0.0
 11
-115.38108512606865
 21
87.02295091304437
 31
0.0
  0
LINE
  5
261
330
17
100
AcDbEntity
  8
0
100
AcDbLine
 10
-115.38108512606865
 20
87.02295091304437
 30
0.0
 11
-116.58556253953512
 21
85.35651593866471
 31
0.0
  0
LINE
  5
262
330
17
100
AcDbEntity
  8
0
100
AcDbLine
 10
-116.58556253953512
 20
85.35651593866471
 30
0.0
 11
-117.78313069383184
 21
83.68266671879049
 31
0.0
  0
LINE
  5
263
330
17
100
AcDbEntity
  8
0
100
AcDbLine
 10
-117.78313069383184
 20
83.68266671879049
 30
0.0
 11
-118.97417454390346
 21
82.00137515985833
 31
0.0
  0
LINE
  5
264
330
17
100
AcDbEntity
  8
0
100
AcDbLine
 10
-118.97417454390346
 20
82.00137515985833
 30
0.0
 11
-120.15888989140497
 21
80.31287517305864
 31
0.0
  0
LINE
  5
265
330
17
100
AcDbEntity
  8
0
100
AcDbLine
 10
-120.15888989140497
 20
80.31287517305864
 30
0.0
 11
-121.33800359333877
 21
78.6165960414224
 31
0.0
  0
LINE
  5
266
330
17
100
AcDbEntity
  8
0
100
AcDbLine
 10
-121.33800359333877
 20
78.6165960414224
 30
0.0
 11
-122.51232071855961
 21
76.9119599340359
 31
0.0
  0
LINE
  5
267
330
17
100
AcDbEntity
  8
0
100
AcDbLine
 10
-122.51232071855961
 20
76.9119599340359
 30
0.0
 11
-123.68174290739995
 21
75.1998323907694
 31
0.0
  0
LINE
  5
268
330
17
100
AcDbEntity
  8
0
100
AcDbLine
 10
-123.68174290739995
 20
75.1998323907694
 30
0.0
 11
-124.84616379434804
 21
73.4810914293695
 31
0.0
  0
LINE
  5
269
330
17
100
AcDbEntity
  8
0
100
AcDbLine
 10
-124.84616379434804
 20
73.4810914293695
 30
0.0
 11
-126.00547701389203
 21
71.75661506758291
 31
0.0
  0
LINE
  5
26A
330
17
100
AcDbEntity
  8
0
100
AcDbLine
 10
-126.00547701389203
 20
71.75661506758291
 30
0.0
 11
-127.15957620052009
 21
70.02728132315627
 31
0.0
  0
LINE
  5
26B
330
17
100
AcDbEntity
  8
0
100
AcDbLine
 10
-127.15957620052009
 20
70.02728132315627
 30
0.0
 11
-128.30835498872045
 21
68.29396821383624
 31
0.0
  0
LINE
  5
26C
330
17
100
AcDbEntity
  8
0
100
AcDbLine
 10
-128.30835498872045
 20
68.29396821383624
 30
0.0
 11
-129.45160191815376
 21
66.55768468773046
 31
0.0
  0
LINE
  5
26D
330
17
100
AcDbEntity
  8
0
100
AcDbLine
 10
-129.45160191815376
 20
66.55768468773046
 30
0.0
 11
-130.58348734238803
 21
64.82562372476765
 31
0.0
  0
LINE
  5
26E
330
17
100
AcDbEntity
  8
0
100
AcDbLine
 10
-130.58348734238803
 20
64.82562372476765
 30
0.0
 11
-131.69950852212722
 21
63.100920435165115
 31
0.0
  0
LINE
  5
26F
330
17
100
AcDbEntity
  8
0
100
AcDbLine
 10
-131.69950852212722
 20
63.100920435165115
 30
0.0
 11
-132.79799411565844
 21
61.38275019908688
 31
0.0
  0
LINE
  5
270
330
17
100
AcDbEntity
  8
0
100
AcDbLine
 10
-132.79799411565844
 20
61.38275019908688
 30
0.0
 11
-133.87697769239318
 21
59.67045644916571
 31
0.0
  0
LINE
  5
271
330
17
100
AcDbEntity
  8
0
100
AcDbLine
 10
-133.87697769239318
 20
59.67045644916571
 30
0.0
 11
-134.93463417435754
 21
57.96089660741624
 31
0.0
  0
LINE
  5
272
330
17
100
AcDbEntity
  8
0
100
AcDbLine
 10
-134.93463417435754
 20
57.96089660741624
 30
0.0
 11
-135.98349779562687
 21
56.2371998075592
 31
0.0
  0
LINE
  5
273
330
17
100
AcDbEntity
  8
0
100
AcDbLine
 10
-135.98349779562687
 20
56.2371998075592
 30
0.0
 11
-137.03936342738697
 21
54.47990593332822
 31
0.0
  0
LINE
  5
274
330
17
100
AcDbEntity
  8
0
100
AcDbLine
 10
-137.03936342738697
 20
54.47990593332822
 30
0.0
 11
-138.11719259366527
 21
52.67151115949464
 31
0.0
  0
LINE
  5
275
330
17
100
AcDbEntity
  8
0
100
AcDbLine
 10
-138.11719259366527
 20
52.67151115949464
 30
0.0
 11
-139.2228050116759
 21
50.81690856179999
 31
0.0
  0
LINE
  5
276
330
17
100
AcDbEntity
  8
0
100
AcDbLine
 10
-139.2228050116759
 20
50.81690856179999
 30
0.0
 11
-140.36209366509487
 21
48.922511617665116
 31
0.0
  0
LINE
  5
277
330
17
100
AcDbEntity
  8
0
100
AcDbLine
 10
-140.36209366509487
 20
48.922511617665116
 30
0.0
 11
-141.54204184484212
 21
46.99233019459834
 31
0.0
  0
LINE
  5
278
330
17
100
AcDbEntity
  8
0
100
AcDbLine
 10
-141.54204184484212
 20
46.99233019459834
 30
0.0
 11
-142.7706194899994
 21
45.02874290787679
 31
0.0
  0
LINE
  5
279
330
17
100
AcDbEntity
  8
0
100
AcDbLine
 10
-142.7706194899994
 20
45.02874290787679
 30
0.0
 11
-144.06147064037455
 21
43.02913763068992
 31
0.0
  0
LINE
  5
27A
330
17
100
AcDbEntity
  8
0
100
AcDbLine
 10
-144.06147064037455
 20
43.02913763068992
 30
0.0
 11
-145.42661321776166
 21
40.999770856934255
 31
0.0
  0
LINE
  5
27B
330
17
100
AcDbEntity
  8
0
100
AcDbLine
 10
-145.42661321776166
 20
40.999770856934255
 30
0.0
 11
-146.87756700136322
 21
38.948088501522975
 31
0.0
  0
LINE
  5
27C
330
17
100
AcDbEntity
  8
0
100
AcDbLine
 10
-146.87756700136322
 20
38.948088501522975
 30
0.0
 11
-148.425794915618
 21
36.88233849860937
 31
0.0
  0
LINE
  5
27D
330
17
100
AcDbEntity
  8
0
100
AcDbLine
 10
-148.425794915618
 20
36.88233849860937
 30
0.0
 11
-150.08280374052137
 21
34.81456612231058
 31
0.0
  0
LINE
  5
27E
330
17
100
AcDbEntity
  8
0
100
AcDbLine
 10
-150.08280374052137
 20
34.81456612231058
 30
0.0
 11
-151.84361541068557
 21
32.7747701608372
 31
0.0
  0
LINE
  5
27F
330
17
100
AcDbEntity
  8
0
100
AcDbLine
 10
-151.84361541068557
 20
32.7747701608372
 30
0.0
 11
-153.66629862443784
 21
30.815026222801016
 31
0.0
  0
LINE
  5
280
330
17
100
AcDbEntity
  8
0
100
AcDbLine
 10
-153.66629862443784
 20
30.815026222801016
 30
0.0
 11
-155.53638733826273
 21
28.940621357104494
 31
0.0
  0
LINE
  5
281
330
17
100
AcDbEntity
  8
0
100
AcDbLine
 10
-155.53638733826273
 20
28.940621357104494
 30
0.0
 11
-157.4496657701188
 21
27.14685012862467
 31
0.0
  0
LINE
  5
282
330
17
100
AcDbEntity
  8
0
100
AcDbLine
 10
-157.4496657701188
 20
27.14685012862467
 30
0.0
 11
-159.4089995241524
 21
25.426064380130203
 31
0.0
  0
LINE
  5
283
330
17
100
AcDbEntity
  8
0
100
AcDbLine
 10
-159.4089995241524
 20
25.426064380130203
 30
0.0
 11
-161.41734568560034
 21
23.770613239509146
 31
0.0
  0
LINE
  5
284
330
17
100
AcDbEntity
  8
0
100
AcDbLine
 10
-161.41734568560034
 20
23.770613239509146
 30
0.0
 11
-163.4772557900271
 21
22.176150732792586
 31
0.0
  0
LINE
  5
285
330
17
100
AcDbEntity
  8
0
100
AcDbLine
 10
-163.4772557900271
 20
22.176150732792586
 30
0.0
 11
-165.58849640590665
 21
20.645130377764914
 31
0.0
  0
LINE
  5
286
330
17
100
AcDbEntity
  8
0
100
AcDbLine
 10
-165.58849640590665
 20
20.645130377764914
 30
0.0
 11
-167.7497626618789
 21
19.179477771713213
 31
0.0
  0
LINE
  5
287
330
17
100
AcDbEntity
  8
0
100
AcDbLine
 10
-15.999999999999911
 20
-130.230634757328
 30
0.0
 11
-15.999999999999911
 21
130.230634757329
 31
0.0
  0
LINE
  5
288
330
17
100
AcDbEntity
  8
0
100
AcDbLine
 10
-15.999999999999805
 20
-130.23063475732818
 30
0.0
 11
-18.023788872439795
 21
-130.26810873444114
 31
0.0
  0
LINE
  5
289
330
17
100
AcDbEntity
  8
0
100
AcDbLine
 10
-18.023788872439795
 20
-130.26810873444114
 30
0.0
 11
-20.047615639373813
 21
-130.29037423442935
 31
0.0
  0
LINE
  5
28A
330
17
100
AcDbEntity
  8
0
100
AcDbLine
 10
-20.047615639373813
 20
-130.29037423442935
 30
0.0
 11
-22.071461212979298
 21
-130.2974165630214
 31
0.0
  0
LINE
  5
28B
330
17
100
AcDbEntity
  8
0
100
AcDbLine
 10
-22.071461212979298
 20
-130.2974165630214
 30
0.0
 11
-24.09530650543368
 21
-130.28922102594575
 31
0.0
  0
LINE
  5
28C
330
17
100
AcDbEntity
  8
0
100
AcDbLine
 10
-24.09530650543368
 20
-130.28922102594575
 30
0.0
 11
-26.11913242891439
 21
-130.26577292893103
 31
0.0
  0
LINE
  5
28D
330
17
100
AcDbEntity
  8
0
100
AcDbLine
 10
-26.11913242891439
 20
-130.26577292893103
 30
0.0
 11
-28.14291989559888
 21
-130.22705757770575
 31
0.0
  0
LINE
  5
28E
330
17
100
AcDbEntity
  8
0
100
AcDbLine
 10
-28.14291989559888
 20
-130.22705757770575
 30
0.0
 11
-30.166649817664567
 21
-130.17306027799847
 31
0.0
  0
LINE
  5
28F
330
17
100
AcDbEntity
  8
0
100
AcDbLine
 10
-30.166649817664567
 20
-130.17306027799847
 30
0.0
 11
-32.19030310728889
 21
-130.10376633553773
 31
0.0
  0
LINE
  5
290
330
17
100
AcDbEntity
  8
0
100
AcDbLine
 10
-32.19030310728889
 20
-130.10376633553773
 30
0.0
 11
-34.2138606766493
 21
-130.01916105605207
 31
0.0
  0
LINE
  5
291
330
17
100
AcDbEntity
  8
0
100
AcDbLine
 10
-34.2138606766493
 20
-130.01916105605207
 30
0.0
 11
-36.23730343792321
 21
-129.9192297452701
 31
0.0
  0
LINE
  5
292
330
17
100
AcDbEntity
  8
0
100
AcDbLine
 10
-36.23730343792321
 20
-129.9192297452701
 30
0.0
 11
-38.26060667364692
 21
-129.80396002121864
 31
0.0
  0
LINE
  5
293
330
17
100
AcDbEntity
  8
0
100
AcDbLine
 10
-38.26060667364692
 20
-129.80396002121864
 30
0.0
 11
-40.281564996483276
 21
-129.674173008278
 31
0.0
  0
LINE
  5
294
330
17
100
AcDbEntity
  8
0
100
AcDbLine
 10
-40.281564996483276
 20
-129.674173008278
 30
0.0
 11
-42.29869618178885
 21
-129.5301684680957
 31
0.0
  0
LINE
  5
295
330
17
100
AcDbEntity
  8
0
100
AcDbLine
 10
-42.29869618178885
 20
-129.5301684680957
 30
0.0
 11
-44.31244456733299
 21
-129.37140440158618
 31
0.0
  0
LINE
  5
296
330
17
100
AcDbEntity
  8
0
100
AcDbLine
 10
-44.31244456733299
 20
-129.37140440158618
 30
0.0
 11
-46.323254490885084
 21
-129.19733880966393
 31
0.0
  0
LINE
  5
297
330
17
100
AcDbEntity
  8
0
100
AcDbLine
 10
-46.323254490885084
 20
-129.19733880966393
 30
0.0
 11
-48.33157029021449
 21
-129.00742969324338
 31
0.0
  0
LINE
  5
298
330
17
100
AcDbEntity
  8
0
100
AcDbLine
 10
-48.33157029021449
 20
-129.00742969324338
 30
0.0
 11
-50.33783630309057
 21
-128.801135053239
 31
0.0
  0
LINE
  5
299
330
17
100
AcDbEntity
  8
0
100
AcDbLine
 10
-50.33783630309057
 20
-128.801135053239
 30
0.0
 11
-52.34249686728269
 21
-128.57791289056527
 31
0.0
  0
LINE
  5
29A
330
17
100
AcDbEntity
  8
0
100
AcDbLine
 10
-52.34249686728269
 20
-128.57791289056527
 30
0.0
 11
-54.346956505779595
 21
-128.33720604147672
 31
0.0
  0
LINE
  5
29B
330
17
100
AcDbEntity
  8
0
100
AcDbLine
 10
-54.346956505779595
 20
-128.33720604147672
 30
0.0
 11
-56.36546195034811
 21
-128.07915400207114
 31
0.0
  0
LINE
  5
29C
330
17
100
AcDbEntity
  8
0
100
AcDbLine
 10
-56.36546195034811
 20
-128.07915400207114
 30
0.0
 11
-58.4029063639686
 21
-127.80602024719713
 31
0.0
  0
LINE
  5
29D
330
17
100
AcDbEntity
  8
0
100
AcDbLine
 10
-58.4029063639686
 20
-127.80602024719713
 30
0.0
 11
-60.45964921124123
 21
-127.5203835797355
 31
0.0
  0
LINE
  5
29E
330
17
100
AcDbEntity
  8
0
100
AcDbLine
 10
-60.45964921124123
 20
-127.5203835797355
 30
0.0
 11
-62.52867063017508
 21
-127.22604436010721
 31
0.0
  0
LINE
  5
29F
330
17
100
AcDbEntity
  8
0
100
AcDbLine
 10
-62.52867063017508
 20
-127.22604436010721
 30
0.0
 11
-64.54742917708441
 21
-126.93126279643035
 31
0.0
  0
LINE
  5
2A0
330
17
100
AcDbEntity
  8
0
100
AcDbLine
 10
-64.54742917708441
 20
-126.93126279643035
 30
0.0
 11
-66.48407890987731
 21
-126.63108092190807
 31
0.0
  0
LINE
  5
2A1
330
17
100
AcDbEntity
  8
0
100
AcDbLine
 10
-66.48407890987731
 20
-126.63108092190807
 30
0.0
 11
-68.31695490287063
 21
-126.31816406110855
 31
0.0
  0
LINE
  5
2A2
330
17
100
AcDbEntity
  8
0
100
AcDbLine
 10
-68.31695490287063
 20
-126.31816406110855
 30
0.0
 11
-70.03657551643816
 21
-125.98310550196788
 31
0.0
  0
LINE
  5
2A3
330
17
100
AcDbEntity
  8
0
100
AcDbLine
 10
-70.03657551643816
 20
-125.98310550196788
 30
0.0
 11
-71.6916804960428
 21
-125.6105613589835
 31
0.0
  0
LINE
  5
2A4
330
17
100
AcDbEntity
  8
0
100
AcDbLine
 10
-71.6916804960428
 20
-125.6105613589835
 30
0.0
 11
-73.3050214029401
 21
-125.194907685979
 31
0.0
  0
LINE
  5
2A5
330
17
100
AcDbEntity
  8
0
100
AcDbLine
 10
-73.3050214029401
 20
-125.194907685979
 30
0.0
 11
-74.89403810978659
 21
-124.73170666361294
 31
0.0
  0
LINE
  5
2A6
330
17
100
AcDbEntity
  8
0
100
AcDbLine
 10
-74.89403810978659
 20
-124.73170666361294
 30
0.0
 11
-76.4678912532584
 21
-124.21862665317511
 31
0.0
  0
LINE
  5
2A7
330
17
100
AcDbEntity
  8
0
100
AcDbLine
 10
-76.4678912532584
 20
-124.21862665317511
 30
0.0
 11
-78.01389947415029
 21
-123.65846622521715
 31
0.0
  0
LINE
  5
2A8
330
17
100
AcDbEntity
  8
0
100
AcDbLine
 10
-78.01389947415029
 20
-123.65846622521715
 30
0.0
 11
-79.53408864087413
 21
-123.04984644817054
 31
0.0
  0
LINE
  5
2A9
330
17
100
AcDbEntity
  8
0
100
AcDbLine
 10
-79.53408864087413
 20
-123.04984644817054
 30
0.0
 11
-81.03166600416681
 21
-122.39107559873433
 31
0.0
  0
LINE
  5
2AA
330
17
100
AcDbEntity
  8
0
100
AcDbLine
 10
-81.03166600416681
 20
-122.39107559873433
 30
0.0
 11
-82.51136657284563
 21
-121.67975603416401
 31
0.0
  0
LINE
  5
2AB
330
17
100
AcDbEntity
  8
0
100
AcDbLine
 10
-82.51136657284563
 20
-121.67975603416401
 30
0.0
 11
-83.97455492625886
 21
-120.91568761393006
 31
0.0
  0
LINE
  5
2AC
330
17
100
AcDbEntity
  8
0
100
AcDbLine
 10
-83.97455492625886
 20
-120.91568761393006
 30
0.0
 11
-85.41643297013813
 21
-120.10200536513099
 31
0.0
  0
LINE
  5
2AD
330
17
100
AcDbEntity
  8
0
100
AcDbLine
 10
-85.41643297013813
 20
-120.10200536513099
 30
0.0
 11
-86.83211464594773
 21
-119.24188969578294
 31
0.0
  0
LINE
  5
2AE
330
17
100
AcDbEntity
  8
0
100
AcDbLine
 10
-86.83211464594773
 20
-119.24188969578294
 30
0.0
 11
-88.21671389515194
 21
-118.33852101390197
 31
0.0
  0
LINE
  5
2AF
330
17
100
AcDbEntity
  8
0
100
AcDbLine
 10
-88.21671389515194
 20
-118.33852101390197
 30
0.0
 11
-89.56534465921506
 21
-117.39507972750421
 31
0.0
  0
LINE
  5
2B0
330
17
100
AcDbEntity
  8
0
100
AcDbLine
 10
-89.56534465921506
 20
-117.39507972750421
 30
0.0
 11
-90.87312087960136
 21
-116.41474624460575
 31
0.0
  0
LINE
  5
2B1
330
17
100
AcDbEntity
  8
0
100
AcDbLine
 10
-90.87312087960136
 20
-116.41474624460575
 30
0.0
 11
-92.13507445076169
 21
-115.40076062618756
 31
0.0
  0
LINE
  5
2B2
330
17
100
AcDbEntity
  8
0
100
AcDbLine
 10
-92.13507445076169
 20
-115.40076062618756
 30
0.0
 11
-93.34366676017908
 21
-114.35760788715167
 31
0.0
  0
LINE
  5
2B3
330
17
100
AcDbEntity
  8
0
100
AcDbLine
 10
-93.34366676017908
 20
-114.35760788715167
 30
0.0
 11
-94.5145507345138
 21
-113.27087765271602
 31
0.0
  0
LINE
  5
2B4
330
17
100
AcDbEntity
  8
0
100
AcDbLine
 10
-94.5145507345138
 20
-113.27087765271602
 30
0.0
 11
-95.67346468613243
 21
-112.11841711965863
 31
0.0
  0
LINE
  5
2B5
330
17
100
AcDbEntity
  8
0
100
AcDbLine
 10
-95.67346468613243
 20
-112.11841711965863
 30
0.0
 11
-96.84580419492937
 21
-110.87846820904052
 31
0.0
  0
LINE
  5
2B6
330
17
100
AcDbEntity
  8
0
100
AcDbLine
 10
-96.84580419492937
 20
-110.87846820904052
 30
0.0
 11
-98.04071410939223
 21
-109.54804806091701
 31
0.0
  0
LINE
  5
2B7
330
17
100
AcDbEntity
  8
0
100
AcDbLine
 10
-98.04071410939223
 20
-109.54804806091701
 30
0.0
 11
-99.25114896012968
 21
-108.14297098947716
 31
0.0
  0
LINE
  5
2B8
330
17
100
AcDbEntity
  8
0
100
AcDbLine
 10
-99.25114896012968
 20
-108.14297098947716
 30
0.0
 11
-100.47049848295292
 21
-106.67857270590403
 31
0.0
  0
LINE
  5
2B9
330
17
100
AcDbEntity
  8
0
100
AcDbLine
 10
-100.47049848295292
 20
-106.67857270590403
 30
0.0
 11
-101.69251477197533
 21
-105.16959405151349
 31
0.0
  0
LINE
  5
2BA
330
17
100
AcDbEntity
  8
0
100
AcDbLine
 10
-101.69251477197533
 20
-105.16959405151349
 30
0.0
 11
-102.91757078008528
 21
-103.62092118537838
 31
0.0
  0
LINE
  5
2BB
330
17
100
AcDbEntity
  8
0
100
AcDbLine
 10
-102.91757078008528
 20
-103.62092118537838
 30
0.0
 11
-104.14928635058678
 21
-102.03413206878938
 31
0.0
  0
LINE
  5
2BC
330
17
100
AcDbEntity
  8
0
100
AcDbLine
 10
-104.14928635058678
 20
-102.03413206878938
 30
0.0
 11
-105.39086500584658
 21
-100.41170477940733
 31
0.0
  0
LINE
  5
2BD
330
17
100
AcDbEntity
  8
0
100
AcDbLine
 10
-105.39086500584658
 20
-100.41170477940733
 30
0.0
 11
-106.64548859981565
 21
-98.75677224412301
 31
0.0
  0
LINE
  5
2BE
330
17
100
AcDbEntity
  8
0
100
AcDbLine
 10
-106.64548859981565
 20
-98.75677224412301
 30
0.0
 11
-107.91172519932316
 21
-97.07924638683933
 31
0.0
  0
LINE
  5
2BF
330
17
100
AcDbEntity
  8
0
100
AcDbLine
 10
-107.91172519932316
 20
-97.07924638683933
 30
0.0
 11
-109.18123598392411
 21
-95.39120308210248
 31
0.0
  0
LINE
  5
2C0
330
17
100
AcDbEntity
  8
0
100
AcDbLine
 10
-109.18123598392411
 20
-95.39120308210248
 30
0.0
 11
-110.44520184382819
 21
-93.70445004259892
 31
0.0
  0
LINE
  5
2C1
330
17
100
AcDbEntity
  8
0
100
AcDbLine
 10
-110.44520184382819
 20
-93.70445004259892
 30
0.0
 11
-111.69660127412486
 21
-92.02779398979212
 31
0.0
  0
LINE
  5
2C2
330
17
100
AcDbEntity
  8
0
100
AcDbLine
 10
-111.69660127412486
 20
-92.02779398979212
 30
0.0
 11
-112.93675159130562
 21
-90.35633470716117
 31
0.0
  0
LINE
  5
2C3
330
17
100
AcDbEntity
  8
0
100
AcDbLine
 10
-112.93675159130562
 20
-90.35633470716117
 30
0.0
 11
-114.16520648610853
 21
-88.68837421652559
 31
0.0
  0
LINE
  5
2C4
330
17
100
AcDbEntity
  8
0
100
AcDbLine
 10
-114.16520648610853
 20
-88.68837421652559
 30
0.0
 11
-115.38108512606867
 21
-87.022950913044
 31
0.0
  0
LINE
  5
2C5
330
17
100
AcDbEntity
  8
0
100
AcDbLine
 10
-115.38108512606867
 20
-87.022950913044
 30
0.0
 11
-116.58556253953513
 21
-85.35651593866436
 31
0.0
  0
LINE
  5
2C6
330
17
100
AcDbEntity
  8
0
100
AcDbLine
 10
-116.58556253953513
 20
-85.35651593866436
 30
0.0
 11
-117.78313069383185
 21
-83.68266671879012
 31
0.0
  0
LINE
  5
2C7
330
17
100
AcDbEntity
  8
0
100
AcDbLine
 10
-117.78313069383185
 20
-83.68266671879012
 30
0.0
 11
-118.97417454390347
 21
-82.00137515985793
 31
0.0
  0
LINE
  5
2C8
330
17
100
AcDbEntity
  8
0
100
AcDbLine
 10
-118.97417454390347
 20
-82.00137515985793
 30
0.0
 11
-120.15888989140498
 21
-80.31287517305822
 31
0.0
  0
LINE
  5
2C9
330
17
100
AcDbEntity
  8
0
100
AcDbLine
 10
-120.15888989140498
 20
-80.31287517305822
 30
0.0
 11
-121.33800359333878
 21
-78.61659604142197
 31
0.0
  0
LINE
  5
2CA
330
17
100
AcDbEntity
  8
0
100
AcDbLine
 10
-121.33800359333878
 20
-78.61659604142197
 30
0.0
 11
-122.51232071855962
 21
-76.9119599340355
 31
0.0
  0
LINE
  5
2CB
330
17
100
AcDbEntity
  8
0
100
AcDbLine
 10
-122.51232071855962
 20
-76.9119599340355
 30
0.0
 11
-123.68174290739996
 21
-75.19983239076898
 31
0.0
  0
LINE
  5
2CC
330
17
100
AcDbEntity
  8
0
100
AcDbLine
 10
-123.68174290739996
 20
-75.19983239076898
 30
0.0
 11
-124.84616379434806
 21
-73.48109142936909
 31
0.0
  0
LINE
  5
2CD
330
17
100
AcDbEntity
  8
0
100
AcDbLine
 10
-124.84616379434806
 20
-73.48109142936909
 30
0.0
 11
-126.00547701389206
 21
-71.75661506758247
 31
0.0
  0
LINE
  5
2CE
330
17
100
AcDbEntity
  8
0
100
AcDbLine
 10
-126.00547701389206
 20
-71.75661506758247
 30
0.0
 11
-127.15957620052012
 21
-70.02728132315583
 31
0.0
  0
LINE
  5
2CF
330
17
100
AcDbEntity
  8
0
100
AcDbLine
 10
-127.15957620052012
 20
-70.02728132315583
 30
0.0
 11
-128.30835498872048
 21
-68.2939682138358
 31
0.0
  0
LINE
  5
2D0
330
17
100
AcDbEntity
  8
0
100
AcDbLine
 10
-128.30835498872048
 20
-68.2939682138358
 30
0.0
 11
-129.45160191815378
 21
-66.55768468773003
 31
0.0
  0
LINE
  5
2D1
330
17
100
AcDbEntity
  8
0
100
AcDbLine
 10
-129.45160191815378
 20
-66.55768468773003
 30
0.0
 11
-130.58348734238805
 21
-64.82562372476723
 31
0.0
  0
LINE
  5
2D2
330
17
100
AcDbEntity
  8
0
100
AcDbLine
 10
-130.58348734238805
 20
-64.82562372476723
 30
0.0
 11
-131.69950852212725
 21
-63.100920435164724
 31
0.0
  0
LINE
  5
2D3
330
17
100
AcDbEntity
  8
0
100
AcDbLine
 10
-131.69950852212725
 20
-63.100920435164724
 30
0.0
 11
-132.79799411565847
 21
-61.3827501990865
 31
0.0
  0
LINE
  5
2D4
330
17
100
AcDbEntity
  8
0
100
AcDbLine
 10
-132.79799411565847
 20
-61.3827501990865
 30
0.0
 11
-133.8769776923932
 21
-59.670456449165314
 31
0.0
  0
LINE
  5
2D5
330
17
100
AcDbEntity
  8
0
100
AcDbLine
 10
-133.8769776923932
 20
-59.670456449165314
 30
0.0
 11
-134.93463417435757
 21
-57.96089660741582
 31
0.0
  0
LINE
  5
2D6
330
17
100
AcDbEntity
  8
0
100
AcDbLine
 10
-134.93463417435757
 20
-57.96089660741582
 30
0.0
 11
-135.9834977956269
 21
-56.23719980755878
 31
0.0
  0
LINE
  5
2D7
330
17
100
AcDbEntity
  8
0
100
AcDbLine
 10
-135.9834977956269
 20
-56.23719980755878
 30
0.0
 11
-137.039363427387
 21
-54.47990593332781
 31
0.0
  0
LINE
  5
2D8
330
17
100
AcDbEntity
  8
0
100
AcDbLine
 10
-137.039363427387
 20
-54.47990593332781
 30
0.0
 11
-138.1171925936653
 21
-52.67151115949426
 31
0.0
  0
LINE
  5
2D9
330
17
100
AcDbEntity
  8
0
100
AcDbLine
 10
-138.1171925936653
 20
-52.67151115949426
 30
0.0
 11
-139.22280501167592
 21
-50.8169085617996
 31
0.0
  0
LINE
  5
2DA
330
17
100
AcDbEntity
  8
0
100
AcDbLine
 10
-139.22280501167592
 20
-50.8169085617996
 30
0.0
 11
-140.3620936650949
 21
-48.922511617664725
 31
0.0
  0
LINE
  5
2DB
330
17
100
AcDbEntity
  8
0
100
AcDbLine
 10
-140.3620936650949
 20
-48.922511617664725
 30
0.0
 11
-141.54204184484215
 21
-46.99233019459792
 31
0.0
  0
LINE
  5
2DC
330
17
100
AcDbEntity
  8
0
100
AcDbLine
 10
-141.54204184484215
 20
-46.99233019459792
 30
0.0
 11
-142.7706194899994
 21
-45.028742907876364
 31
0.0
  0
LINE
  5
2DD
330
17
100
AcDbEntity
  8
0
100
AcDbLine
 10
-142.7706194899994
 20
-45.028742907876364
 30
0.0
 11
-144.06147064037455
 21
-43.0291376306895
 31
0.0
  0
LINE
  5
2DE
330
17
100
AcDbEntity
  8
0
100
AcDbLine
 10
-144.06147064037455
 20
-43.0291376306895
 30
0.0
 11
-145.42661321776168
 21
-40.99977085693385
 31
0.0
  0
LINE
  5
2DF
330
17
100
AcDbEntity
  8
0
100
AcDbLine
 10
-145.42661321776168
 20
-40.99977085693385
 30
0.0
 11
-146.87756700136325
 21
-38.9480885015226
 31
0.0
  0
LINE
  5
2E0
330
17
100
AcDbEntity
  8
0
100
AcDbLine
 10
-146.87756700136325
 20
-38.9480885015226
 30
0.0
 11
-148.42579491561804
 21
-36.88233849860904
 31
0.0
  0
LINE
  5
2E1
330
17
100
AcDbEntity
  8
0
100
AcDbLine
 10
-148.42579491561804
 20
-36.88233849860904
 30
0.0
 11
-150.08280374052143
 21
-34.81456612231023
 31
0.0
  0
LINE
  5
2E2
330
17
100
AcDbEntity
  8
0
100
AcDbLine
 10
-150.08280374052143
 20
-34.81456612231023
 30
0.0
 11
-151.84361541068563
 21
-32.77477016083685
 31
0.0
  0
LINE
  5
2E3
330
17
100
AcDbEntity
  8
0
100
AcDbLine
 10
-151.84361541068563
 20
-32.77477016083685
 30
0.0
 11
-153.66629862443787
 21
-30.81502622280067
 31
0.0
  0
LINE
  5
2E4
330
17
100
AcDbEntity
  8
0
100
AcDbLine
 10
-153.66629862443787
 20
-30.81502622280067
 30
0.0
 11
-155.53638733826278
 21
-28.94062135710414
 31
0.0
  0
LINE
  5
2E5
330
17
100
AcDbEntity
  8
0
100
AcDbLine
 10
-155.53638733826278
 20
-28.94062135710414
 30
0.0
 11
-157.44966577011883
 21
-27.146850128624287
 31
0.0
  0
LINE
  5
2E6
330
17
100
AcDbEntity
  8
0
100
AcDbLine
 10
-157.44966577011883
 20
-27.146850128624287
 30
0.0
 11
-159.40899952415245
 21
-25.4260643801298
 31
0.0
  0
LINE
  5
2E7
330
17
100
AcDbEntity
  8
0
100
AcDbLine
 10
-159.40899952415245
 20
-25.4260643801298
 30
0.0
 11
-161.4173456856004
 21
-23.77061323950875
 31
0.0
  0
LINE
  5
2E8
330
17
100
AcDbEntity
  8
0
100
AcDbLine
 10
-161.4173456856004
 20
-23.77061323950875
 30
0.0
 11
-163.47725579002713
 21
-22.17615073279221
 31
0.0
  0
LINE
  5
2E9
330
17
100
AcDbEntity
  8
0
100
AcDbLine
 10
-163.47725579002713
 20
-22.17615073279221
 30
0.0
 11
-165.5884964059067
 21
-20.64513037776452
 31
0.0
  0
LINE
  5
2EA
330
17
100
AcDbEntity
  8
0
100
AcDbLine
 10
-165.5884964059067
 20
-20.64513037776452
 30
0.0
 11
-167.74976266187892
 21
-19.179477771712794
 31
0.0
  0
ENDSEC
  0
SECTION
  2
OBJECTS
  0
DICTIONARY
  5
A
330
0
100
AcDbDictionary
280
0
281
1
  3
ACAD_COLOR
350
B
  3
ACAD_GROUP
350
C
  3
ACAD_LAYOUT
350
D
  3
ACAD_MATERIAL
350
E
  3
ACAD_MLEADERSTYLE
350
F
  3
ACAD_MLINESTYLE
350
10
  3
ACAD_PLOTSETTINGS
350
11
  3
ACAD_PLOTSTYLENAME
350
12
  3
ACAD_SCALELIST
350
14
  3
ACAD_TABLESTYLE
350
15
  3
ACAD_VISUALSTYLE
350
16
  3
EZDXF_META
350
2D
  0
DICTIONARY
  5
B
330
A
100
AcDbDictionary
280
0
281
1
  0
DICTIONARY
  5
C
330
A
100
AcDbDictionary
280
0
281
1
  0
DICTIONARY
  5
D
330
A
100
AcDbDictionary
280
0
281
1
  3
Model
350
1A
  3
Layout1
350
1E
  0
DICTIONARY
  5
E
330
A
100
AcDbDictionary
280
0
281
1
  3
ByBlock
350
1F
  3
ByLayer
350
20
  3
Global
350
21
  0
DICTIONARY
  5
F
330
A
100
AcDbDictionary
280
0
281
1
  3
Standard
350
2C
  0
DICTIONARY
  5
10
330
A
100
AcDbDictionary
280
0
281
1
  3
Standard
350
22
  0
DICTIONARY
  5
11
330
A
100
AcDbDictionary
280
0
281
1
  0
ACDBDICTIONARYWDFLT
  5
12
330
A
100
AcDbDictionary
280
0
281
1
  3
Normal
350
13
100
AcDbDictionaryWithDefault
340
13
  0
ACDBPLACEHOLDER
  5
13
330
12
  0
DICTIONARY
  5
14
330
A
100
AcDbDictionary
280
0
281
1
  0
DICTIONARY
  5
15
330
A
100
AcDbDictionary
280
0
281
1
  0
DICTIONARY
  5
16
330
A
100
AcDbDictionary
280
0
281
1
  0
LAYOUT
  5
1A
330
D
100
AcDbPlotSettings
  1

  2
Adobe PDF
  4
A3
  6

 40
7.5
 41
20.0
 42
7.5
 43
20.0
 44
420.0
 45
297.0
 46
0.0
 47
0.0
 48
0.0
 49
0.0
140
0.0
141
0.0
142
1.0
143
1.0
 70
1024
 72
1
 73
0
 74
5
  7

 75
16
 76
0
 77
2
 78
300
147
1.0
148
0.0
149
0.0
100
AcDbLayout
  1
Model
 70
1
 71
0
 10
0.0
 20
0.0
 11
420.0
 21
297.0
 12
0.0
 22
0.0
 32
0.0
 14
1e+20
 24
1e+20
 34
1e+20
 15
-1e+20
 25
-1e+20
 35
-1e+20
146
0.0
 13
0.0
 23
0.0
 33
0.0
 16
1.0
 26
0.0
 36
0.0
 17
0.0
 27
1.0
 37
0.0
 76
1
330
17
  0
LAYOUT
  5
1E
330
D
100
AcDbPlotSettings
  1

  2
Adobe PDF
  4
A3
  6

 40
7.5
 41
20.0
 42
7.5
 43
20.0
 44
420.0
 45
297.0
 46
0.0
 47
0.0
 48
0.0
 49
0.0
140
0.0
141
0.0
142
1.0
143
1.0
 70
0
 72
1
 73
0
 74
5
  7

 75
16
 76
0
 77
2
 78
300
147
1.0
148
0.0
149
0.0
100
AcDbLayout
  1
Layout1
 70
1
 71
1
 10
0.0
 20
0.0
 11
420.0
 21
297.0
 12
0.0
 22
0.0
 32
0.0
 14
1e+20
 24
1e+20
 34
1e+20
 15
-1e+20
 25
-1e+20
 35
-1e+20
146
0.0
 13
0.0
 23
0.0
 33
0.0
 16
1.0
 26
0.0
 36
0.0
 17
0.0
 27
1.0
 37
0.0
 76
1
330
1B
  0
MATERIAL
  5
1F
102
{ACAD_REACTORS
330
E
102
}
330
E
100
AcDbMaterial
  1
ByBlock
  2

 70
0
 40
1.0
 71
1
 41
1.0
 91
-1023410177
 42
1.0
 72
1
  3

 73
1
 74
1
 75
1
 44
0.5
 73
0
 45
1.0
 46
1.0
 77
1
  4

 78
1
 79
1
170
1
 48
1.0
171
1
  6

172
1
173
1
174
1
140
1.0
141
1.0
175
1
  7

176
1
177
1
178
1
143
1.0
179
1
  8

270
1
271
1
272
1
145
1.0
146
1.0
273
1
  9

274
1
275
1
276
1
 42
1.0
 72
1
  3

 73
1
 74
1
 75
1
 94
63
  0
MATERIAL
  5
20
102
{ACAD_REACTORS
330
E
102
}
330
E
100
AcDbMaterial
  1
ByLayer
  2

 70
0
 40
1.0
 71
1
 41
1.0
 91
-1023410177
 42
1.0
 72
1
  3

 73
1
 74
1
 75
1
 44
0.5
 73
0
 45
1.0
 46
1.0
 77
1
  4

 78
1
 79
1
170
1
 48
1.0
171
1
  6

172
1
173
1
174
1
140
1.0
141
1.0
175
1
  7

176
1
177
1
178
1
143
1.0
179
1
  8

270
1
271
1
272
1
145
1.0
146
1.0
273
1
  9

274
1
275
1
276
1
 42
1.0
 72
1
  3

 73
1
 74
1
 75
1
 94
63
  0
MATERIAL
  5
21
102
{ACAD_REACTORS
330
E
102
}
330
E
100
AcDbMaterial
  1
Global
  2

 70
0
 40
1.0
 71
1
 41
1.0
 91
-1023410177
 42
1.0
 72
1
  3

 73
1
 74
1
 75
1
 44
0.5
 73
0
 45
1.0
 46
1.0
 77
1
  4

 78
1
 79
1
170
1
 48
1.0
171
1
  6

172
1
173
1
174
1
140
1.0
141
1.0
175
1
  7

176
1
177
1
178
1
143
1.0
179
1
  8

270
1
271
1
272
1
145
1.0
146
1.0
273
1
  9

274
1
275
1
276
1
 42
1.0
 72
1
  3

 73
1
 74
1
 75
1
 94
63
  0
MLINESTYLE
  5
22
102
{ACAD_REACTORS
330
10
102
}
330
10
100
AcDbMlineStyle
  2
Standard
 70
0
  3

 62
256
 51
90.0
 52
90.0
 71
2
 49
0.5
 62
256
  6
BYLAYER
 49
-0.5
 62
256
  6
BYLAYER
  0
MLEADERSTYLE
  5
2C
102
{ACAD_REACTORS
330
F
102
}
330
F
100
AcDbMLeaderStyle
179
2
170
2
171
1
172
0
 90
2
 40
0.0
 41
0.0
173
1
 91
-1056964608
 92
-2
290
1
 42
2.0
291
1
 43
8.0
  3
Standard
 44
4.0
300

342
29
174
1
175
1
176
0
178
1
 93
-1056964608
 45
4.0
292
0
297
0
 46
4.0
 94
-1056964608
 47
1.0
 49
1.0
140
1.0
294
1
141
0.0
177
0
142
1.0
295
0
296
0
143
3.75
271
0
272
9
273
9
  0
DICTIONARY
  5
2D
330
A
100
AcDbDictionary
281
1
  3
CREATED_BY_EZDXF
350
2E
  3
WRITTEN_BY_EZDXF
350
2ED
  0
DICTIONARYVAR
  5
2E
330
2D
100
DictionaryVariables
280
0
  1
1.0.2 @ 2023-11-27T08:45:38.633519+00:00
  0
DICTIONARYVAR
  5
2ED
330
2D
100
DictionaryVariables
280
0
  1
1.0.2 @ 2023-11-27T08:45:38.653796+00:00
  0
ENDSEC
  0
EOF
